<svg width="32" height="32" viewBox="0 0 32 32" fill="none" xmlns="http://www.w3.org/2000/svg">
<path d="M28.6666 19.3335H3.33331C2.23331 19.3335 1.33331 18.4335 1.33331 17.3335V9.3335C1.33331 8.2335 2.23331 7.3335 3.33331 7.3335H28.6666C29.7666 7.3335 30.6666 8.2335 30.6666 9.3335V17.3335C30.6666 18.4335 29.7666 19.3335 28.6666 19.3335ZM3.33331 8.66683C2.96665 8.66683 2.66665 8.96683 2.66665 9.3335V17.3335C2.66665 17.7002 2.96665 18.0002 3.33331 18.0002H28.6666C29.0333 18.0002 29.3333 17.7002 29.3333 17.3335V9.3335C29.3333 8.96683 29.0333 8.66683 28.6666 8.66683H3.33331Z" fill="#888888"/>
<path d="M11.3333 27.3333C10.6933 27.3333 10.3667 27.04 10.2067 26.8C9.71999 26.06 10.1867 24.98 10.7267 23.74C10.9533 23.2133 11.32 22.3733 11.34 22.0067C10.9733 22.0067 10.6733 21.7067 10.6733 21.34C10.6733 20.9733 10.9733 20.6733 11.34 20.6733C11.98 20.6733 12.3067 20.9667 12.4667 21.2067C12.9533 21.9467 12.4867 23.0267 11.9467 24.2667C11.72 24.7933 11.3533 25.6333 11.3333 26C11.7 26 12 26.3 12 26.6667C12 27.0333 11.7 27.3333 11.3333 27.3333ZM11.4333 22.0067H11.44H11.4333Z" fill="#888888"/>
<path d="M20.6667 27.3333C20.0267 27.3333 19.7 27.04 19.54 26.8C19.0534 26.06 19.52 24.98 20.06 23.74C20.2867 23.2133 20.6534 22.3733 20.6734 22.0067C20.3067 22.0067 20.0067 21.7067 20.0067 21.34C20.0067 20.9733 20.3067 20.6733 20.6734 20.6733C21.3134 20.6733 21.64 20.9667 21.8 21.2067C22.2867 21.9467 21.82 23.0267 21.28 24.2667C21.0534 24.7933 20.6867 25.6333 20.6667 26C21.0334 26 21.3334 26.3 21.3334 26.6667C21.3334 27.0333 21.0334 27.3333 20.6667 27.3333ZM20.7667 22.0067H20.7734H20.7667Z" fill="#888888"/>
<path d="M16 27.3333C15.36 27.3333 15.0333 27.04 14.8733 26.8C14.3867 26.06 14.8533 24.98 15.3933 23.74C15.62 23.2133 15.9867 22.3733 16.0067 22.0067C15.64 22.0067 15.34 21.7067 15.34 21.34C15.34 20.9733 15.64 20.6733 16.0067 20.6733C16.6467 20.6733 16.9733 20.9667 17.1333 21.2067C17.62 21.9467 17.1533 23.0267 16.6133 24.2667C16.3867 24.7933 16.02 25.6333 16 26C16.3667 26 16.6667 26.3 16.6667 26.6667C16.6667 27.0333 16.3667 27.3333 16 27.3333ZM16.1 22.0067H16.1067H16.1Z" fill="#888888"/>
<path d="M27.3333 17.3333H4.66667C4.3 17.3333 4 17.0333 4 16.6667C4 16.3 4.3 16 4.66667 16H27.3333C27.7 16 28 16.3 28 16.6667C28 17.0333 27.7 17.3333 27.3333 17.3333Z" fill="#888888"/>
<path d="M27.3333 15.3333H4.66667C4.3 15.3333 4 15.0333 4 14.6667C4 14.3 4.3 14 4.66667 14H27.3333C27.7 14 28 14.3 28 14.6667C28 15.0333 27.7 15.3333 27.3333 15.3333Z" fill="#888888"/>
</svg>
