<svg width="20" height="20" viewBox="0 0 20 20" fill="none" xmlns="http://www.w3.org/2000/svg">
<g clip-path="url(#clip0)">
<path d="M17.917 14.1668H2.08366C1.85449 14.1668 1.66699 13.9793 1.66699 13.7502V10.4168C1.66699 9.26683 2.60033 8.3335 3.75033 8.3335H16.2503C17.4003 8.3335 18.3337 9.26683 18.3337 10.4168V13.7502C18.3337 13.9793 18.1462 14.1668 17.917 14.1668ZM2.50033 13.3335H17.5003V10.4168C17.5003 9.72933 16.9378 9.16683 16.2503 9.16683H3.75033C3.06283 9.16683 2.50033 9.72933 2.50033 10.4168V13.3335Z" fill="#222222"/>
<path d="M17.917 12.4998H2.08366C1.85449 12.4998 1.66699 12.3123 1.66699 12.0832C1.66699 11.854 1.85449 11.6665 2.08366 11.6665H17.917C18.1462 11.6665 18.3337 11.854 18.3337 12.0832C18.3337 12.3123 18.1462 12.4998 17.917 12.4998Z" fill="#222222"/>
<path d="M16.2497 9.1665H3.74967C3.52051 9.1665 3.33301 8.979 3.33301 8.74984V5.4165C3.33301 4.729 3.89551 4.1665 4.58301 4.1665H15.4163C16.1038 4.1665 16.6663 4.729 16.6663 5.4165V8.74984C16.6663 8.979 16.4788 9.1665 16.2497 9.1665ZM4.16634 8.33317H15.833V5.4165C15.833 5.18734 15.6455 4.99984 15.4163 4.99984H4.58301C4.35384 4.99984 4.16634 5.18734 4.16634 5.4165V8.33317Z" fill="#222222"/>
<path d="M16.2497 15.8335H13.7497C13.5205 15.8335 13.333 15.646 13.333 15.4168V13.7502C13.333 13.521 13.5205 13.3335 13.7497 13.3335H16.2497C16.4788 13.3335 16.6663 13.521 16.6663 13.7502V15.4168C16.6663 15.646 16.4788 15.8335 16.2497 15.8335ZM14.1663 15.0002H15.833V14.1668H14.1663V15.0002Z" fill="#222222"/>
<path d="M13.1247 9.16683H6.87467C6.64551 9.16683 6.45801 8.97933 6.45801 8.75016V7.0835C6.45801 6.396 7.02051 5.8335 7.70801 5.8335H12.2913C12.9788 5.8335 13.5413 6.396 13.5413 7.0835V8.75016C13.5413 8.97933 13.3538 9.16683 13.1247 9.16683ZM7.29134 8.3335H12.708V7.0835C12.708 6.85433 12.5205 6.66683 12.2913 6.66683H7.70801C7.47884 6.66683 7.29134 6.85433 7.29134 7.0835V8.3335Z" fill="#222222"/>
<path d="M6.24967 15.8335H3.74967C3.52051 15.8335 3.33301 15.646 3.33301 15.4168V13.7502C3.33301 13.521 3.52051 13.3335 3.74967 13.3335H6.24967C6.47884 13.3335 6.66634 13.521 6.66634 13.7502V15.4168C6.66634 15.646 6.47884 15.8335 6.24967 15.8335ZM4.16634 15.0002H5.83301V14.1668H4.16634V15.0002Z" fill="#222222"/>
</g>
<defs>
<clipPath id="clip0">
<rect width="20" height="20" fill="white"/>
</clipPath>
</defs>
</svg>
