<svg width="20" height="20" viewBox="0 0 20 20" fill="none" xmlns="http://www.w3.org/2000/svg">
<g clip-path="url(#clip0)">
<path d="M2.45508 12.0059H5.94874" stroke="#222222" stroke-width="0.8"/>
<path d="M8.16862 12.0059C8.16862 12.6672 7.67204 13.1586 7.11292 13.1586C6.5538 13.1586 6.05723 12.6672 6.05723 12.0059C6.05723 11.3445 6.5538 10.8531 7.11292 10.8531C7.67204 10.8531 8.16862 11.3445 8.16862 12.0059Z" stroke="#222222" stroke-width="0.8"/>
<path d="M7.4043 11.0742L7.98657 9.21094" stroke="#222222" stroke-width="0.8"/>
<path d="M5.62974 3.60122C5.64433 3.54795 5.6989 3.51809 5.75163 3.53451L14.7158 6.32702C14.7784 6.34652 14.8076 6.42058 14.775 6.47677L12.4238 10.5209C12.4012 10.5599 12.3551 10.5776 12.3118 10.5641L4.49377 8.12863C4.44104 8.1122 4.41012 8.0557 4.42471 8.00244L5.62974 3.60122Z" stroke="#222222" stroke-width="0.8"/>
<path d="M14.5552 7.15229L15.1957 7.35181C15.4593 7.43394 15.6139 7.71644 15.541 7.98277L15.5098 8.09671L14.9889 9.99923C14.916 10.2656 14.6431 10.4149 14.3795 10.3328L13.3664 10.0172L12.9006 9.87207" stroke="#222222" stroke-width="0.8"/>
<rect x="1.4" y="9.4" width="1.2" height="5.2" stroke="#222222" stroke-width="0.8"/>
</g>
<defs>
<clipPath id="clip0">
<rect width="20" height="20" fill="white"/>
</clipPath>
</defs>
</svg>
