<svg width="48" height="48" viewBox="0 0 48 48" fill="none" xmlns="http://www.w3.org/2000/svg">
<path d="M19 26C18.45 26 18 25.55 18 25V21.5C18 20.95 18.45 20.5 19 20.5C19.55 20.5 20 20.95 20 21.5V25C20 25.55 19.55 26 19 26Z" fill="#6F22D2"/>
<path d="M29 26C28.45 26 28 25.55 28 25V21.5C28 20.95 28.45 20.5 29 20.5C29.55 20.5 30 20.95 30 21.5V25C30 25.55 29.55 26 29 26Z" fill="#6F22D2"/>
<path d="M39 42H9C8.45 42 8 41.55 8 41V6C8 5.45 8.45 5 9 5H39C39.55 5 40 5.45 40 6V41C40 41.55 39.55 42 39 42ZM10 40H38V7H10V40Z" fill="#6F22D2"/>
<path d="M24 42C23.45 42 23 41.55 23 41V6C23 5.45 23.45 5 24 5C24.55 5 25 5.45 25 6V41C25 41.55 24.55 42 24 42Z" fill="#6F22D2"/>
</svg>
