<svg width="48" height="48" viewBox="0 0 48 48" fill="none" xmlns="http://www.w3.org/2000/svg">
<path d="M45 15H3C2.45 15 2 14.55 2 14C2 13.45 2.45 13 3 13H45C45.55 13 46 13.45 46 14C46 14.55 45.55 15 45 15Z" fill="#6F22D2"/>
<path d="M40 37C39.45 37 39 36.55 39 36V14C39 13.45 39.45 13 40 13C40.55 13 41 13.45 41 14V36C41 36.55 40.55 37 40 37Z" fill="#6F22D2"/>
<path d="M7 37C6.45 37 6 36.55 6 36V14C6 13.45 6.45 13 7 13C7.55 13 8 13.45 8 14V36C8 36.55 7.55 37 7 37Z" fill="#6F22D2"/>
<path d="M26 31C25.45 31 25 30.55 25 30V14C25 13.45 25.45 13 26 13C26.55 13 27 13.45 27 14V30C27 30.55 26.55 31 26 31Z" fill="#6F22D2"/>
<path d="M40 31H26C25.45 31 25 30.55 25 30C25 29.45 25.45 29 26 29H40C40.55 29 41 29.45 41 30C41 30.55 40.55 31 40 31Z" fill="#6F22D2"/>
<path d="M40 23H26C25.45 23 25 22.55 25 22C25 21.45 25.45 21 26 21H40C40.55 21 41 21.45 41 22C41 22.55 40.55 23 40 23Z" fill="#6F22D2"/>
<path d="M33.5 19H32.5C31.95 19 31.5 18.55 31.5 18C31.5 17.45 31.95 17 32.5 17H33.5C34.05 17 34.5 17.45 34.5 18C34.5 18.55 34.05 19 33.5 19Z" fill="#6F22D2"/>
<path d="M33.5 27H32.5C31.95 27 31.5 26.55 31.5 26C31.5 25.45 31.95 25 32.5 25H33.5C34.05 25 34.5 25.45 34.5 26C34.5 26.55 34.05 27 33.5 27Z" fill="#6F22D2"/>
<path d="M26 20H7C6.45 20 6 19.55 6 19C6 18.45 6.45 18 7 18H26C26.55 18 27 18.45 27 19C27 19.55 26.55 20 26 20Z" fill="#6F22D2"/>
</svg>
