<svg width="48" height="48" viewBox="0 0 48 48" fill="none" xmlns="http://www.w3.org/2000/svg">
<path d="M24 38C22.35 38 21 36.65 21 35C21 33.35 22.35 32 24 32C25.65 32 27 33.35 27 35C27 36.65 25.65 38 24 38ZM24 34C23.45 34 23 34.45 23 35C23 35.55 23.45 36 24 36C24.55 36 25 35.55 25 35C25 34.45 24.55 34 24 34Z" fill="#6F22D2"/>
<path d="M32 41.99C32 42.55 31.55 43 30.99 43H17.01C16.45 43 16 42.55 16 41.99V6.01C16 5.45 16.45 5 17.01 5H30.99C31.55 5 32 5.45 32 6.01V22H34V6.01C34 4.35 32.65 3 30.99 3H17.01C15.35 3 14 4.35 14 6.01V41.99C14 43.65 15.35 45 17.01 45H30.99C32.65 45 34 43.65 34 41.99V29.47H32V41.99Z" fill="#6F22D2"/>
<path d="M41.27 22H34V24H41.27C42.23 24 43 24.78 43 25.73C43 26.68 42.22 27.46 41.27 27.46H34V29.46H41.27C43.33 29.46 45 27.79 45 25.73C45 23.67 43.33 22 41.27 22Z" fill="#6F22D2"/>
<path d="M25 25.73C25 24.77 25.78 24 26.73 24H32V22H26.73C24.67 22 23 23.67 23 25.73C23 27.79 24.67 29.46 26.73 29.46H32V27.46H26.73C25.78 27.47 25 26.69 25 25.73Z" fill="#6F22D2"/>
<path d="M34 22H32V24H34V22Z" fill="#6F22D2"/>
<path d="M34 27.47H32V29.47H34V27.47Z" fill="#6F22D2"/>
</svg>
