<svg width="32" height="32" viewBox="0 0 32 32" fill="none" xmlns="http://www.w3.org/2000/svg">
<path d="M26 30.6667H5.99998C5.63331 30.6667 5.33331 30.3667 5.33331 30V6.66667C5.33331 6.3 5.63331 6 5.99998 6H26C26.3666 6 26.6666 6.3 26.6666 6.66667V30C26.6666 30.3667 26.3666 30.6667 26 30.6667ZM6.66665 29.3333H25.3333V7.33333H6.66665V29.3333Z" fill="#888888"/>
<path d="M12 4.66671C11.8267 4.66671 11.66 4.60005 11.5267 4.47338L9.52667 2.47338C9.26667 2.21338 9.26667 1.79338 9.52667 1.53338C9.78666 1.27338 10.2067 1.27338 10.4667 1.53338L12 3.06005L13.5267 1.53338C13.7867 1.27338 14.2067 1.27338 14.4667 1.53338C14.7267 1.79338 14.7267 2.21338 14.4667 2.47338L12.4667 4.47338C12.34 4.60005 12.1733 4.66671 12 4.66671Z" fill="#888888"/>
<path d="M22 4.66654C21.8267 4.66654 21.66 4.59988 21.5267 4.47321L20 2.93988L18.4733 4.46654C18.2133 4.72654 17.7933 4.72654 17.5333 4.46654C17.2733 4.20654 17.2733 3.78654 17.5333 3.52654L19.5333 1.52654C19.7933 1.26654 20.2133 1.26654 20.4733 1.52654L22.4733 3.52654C22.7333 3.78654 22.7333 4.20654 22.4733 4.46654C22.34 4.59988 22.1733 4.66654 22 4.66654Z" fill="#888888"/>
<path d="M16 30.6667C15.6333 30.6667 15.3333 30.3667 15.3333 30V6.66667C15.3333 6.3 15.6333 6 16 6C16.3666 6 16.6666 6.3 16.6666 6.66667V30C16.6666 30.3667 16.3666 30.6667 16 30.6667Z" fill="#888888"/>
</svg>
