<svg width="32" height="32" viewBox="0 0 32 32" fill="none" xmlns="http://www.w3.org/2000/svg">
<path d="M29.3334 25.3332H2.66671C1.93337 25.3332 1.33337 24.7332 1.33337 23.9998V7.99984C1.33337 7.2665 1.93337 6.6665 2.66671 6.6665H29.3334C30.0667 6.6665 30.6667 7.2665 30.6667 7.99984V23.9998C30.6667 24.7332 30.0667 25.3332 29.3334 25.3332ZM2.66671 7.99984V23.9998H29.3334V7.99984H2.66671Z" fill="#888888"/>
<path d="M22 22.6668H4.66667C4.3 22.6668 4 22.3668 4 22.0002V10.0002C4 9.6335 4.3 9.3335 4.66667 9.3335H22C22.3667 9.3335 22.6667 9.6335 22.6667 10.0002V22.0002C22.6667 22.3668 22.3667 22.6668 22 22.6668ZM5.33333 21.3335H21.3333V10.6668H5.33333V21.3335Z" fill="#888888"/>
<path d="M6.66662 14C6.49329 14 6.32662 13.9334 6.19329 13.8067C5.93329 13.5467 5.93329 13.1267 6.19329 12.8667L7.52662 11.5334C7.78662 11.2734 8.20662 11.2734 8.46662 11.5334C8.72662 11.7934 8.72662 12.2134 8.46662 12.4734L7.13329 13.8067C7.00662 13.9334 6.83996 14 6.66662 14Z" fill="#888888"/>
<path d="M6.66662 16.8267C6.49329 16.8267 6.32662 16.76 6.19329 16.6334C5.93329 16.3734 5.93329 15.9534 6.19329 15.6934L10.3533 11.5334C10.6133 11.2734 11.0333 11.2734 11.2933 11.5334C11.5533 11.7934 11.5533 12.2134 11.2933 12.4734L7.13329 16.6334C7.00662 16.7667 6.83996 16.8267 6.66662 16.8267Z" fill="#888888"/>
<path d="M26 14C24.9 14 24 13.1 24 12C24 10.9 24.9 10 26 10C27.1 10 28 10.9 28 12C28 13.1 27.1 14 26 14ZM26 11.3333C25.6333 11.3333 25.3333 11.6333 25.3333 12C25.3333 12.3667 25.6333 12.6667 26 12.6667C26.3667 12.6667 26.6667 12.3667 26.6667 12C26.6667 11.6333 26.3667 11.3333 26 11.3333Z" fill="#888888"/>
<path d="M26 19.3335C24.9 19.3335 24 18.4335 24 17.3335C24 16.2335 24.9 15.3335 26 15.3335C27.1 15.3335 28 16.2335 28 17.3335C28 18.4335 27.1 19.3335 26 19.3335ZM26 16.6668C25.6333 16.6668 25.3333 16.9668 25.3333 17.3335C25.3333 17.7002 25.6333 18.0002 26 18.0002C26.3667 18.0002 26.6667 17.7002 26.6667 17.3335C26.6667 16.9668 26.3667 16.6668 26 16.6668Z" fill="#888888"/>
<path d="M27.3333 21.9998H24.6667C24.3 21.9998 24 21.6998 24 21.3332C24 20.9665 24.3 20.6665 24.6667 20.6665H27.3333C27.7 20.6665 28 20.9665 28 21.3332C28 21.6998 27.7 21.9998 27.3333 21.9998Z" fill="#888888"/>
</svg>
