<svg width="48" height="48" viewBox="0 0 48 48" fill="none" xmlns="http://www.w3.org/2000/svg">
<g clip-path="url(#clip0)">
<circle cx="23.5" cy="23.5" r="17.5" stroke="#6F22D2" stroke-width="2"/>
<path d="M24.0984 15.864C26.3384 15.864 27.9704 16.304 28.9944 17.184C30.0184 18.064 30.5304 19.304 30.5304 20.904C30.5304 21.848 30.3144 22.736 29.8824 23.568C29.4664 24.384 28.7544 25.048 27.7464 25.56C26.7544 26.072 25.4024 26.328 23.6904 26.328H21.7224V33H19.5624V15.864H24.0984ZM23.9064 17.712H21.7224V24.48H23.4504C25.0824 24.48 26.2984 24.216 27.0984 23.688C27.8984 23.16 28.2984 22.264 28.2984 21C28.2984 19.896 27.9384 19.072 27.2184 18.528C26.5144 17.984 25.4104 17.712 23.9064 17.712Z" fill="#6F22D2"/>
</g>
<defs>
<clipPath id="clip0">
<rect width="48" height="48" fill="white"/>
</clipPath>
</defs>
</svg>
