<svg width="48" height="48" viewBox="0 0 48 48" fill="none" xmlns="http://www.w3.org/2000/svg">
<path d="M36 45H12C10.9 45 10 44.1 10 43V5C10 3.9 10.9 3 12 3H36C37.1 3 38 3.9 38 5V43C38 44.1 37.1 45 36 45ZM12 5V43H36V5H12Z" fill="#6F22D2"/>
<path d="M32.8701 16.27C32.3201 16.27 31.8701 15.82 31.8701 15.27V11.94C31.8701 11.39 32.3201 10.94 32.8701 10.94C33.4201 10.94 33.8701 11.39 33.8701 11.94V15.27C33.8701 15.83 33.4201 16.27 32.8701 16.27Z" fill="#6F22D2"/>
<path d="M32.8701 30.56C32.3201 30.56 31.8701 30.11 31.8701 29.56V26.23C31.8701 25.68 32.3201 25.23 32.8701 25.23C33.4201 25.23 33.8701 25.68 33.8701 26.23V29.56C33.8701 30.11 33.4201 30.56 32.8701 30.56Z" fill="#6F22D2"/>
<path d="M37 22.14H11C10.45 22.14 10 21.69 10 21.14C10 20.59 10.45 20.14 11 20.14H37C37.55 20.14 38 20.59 38 21.14C38 21.69 37.55 22.14 37 22.14Z" fill="#6F22D2"/>
</svg>
