<svg width="20" height="20" viewBox="0 0 20 20" fill="none" xmlns="http://www.w3.org/2000/svg">
<path d="M17.4997 14.5833C17.7298 14.5833 17.9163 14.3968 17.9163 14.1667C17.9163 13.9365 17.7298 13.75 17.4997 13.75C17.2696 13.75 17.083 13.9365 17.083 14.1667C17.083 14.3968 17.2696 14.5833 17.4997 14.5833Z" fill="#222222"/>
<path d="M18.7497 15.8332H1.24967C1.02051 15.8332 0.833008 15.6457 0.833008 15.4165V4.58317C0.833008 4.354 1.02051 4.1665 1.24967 4.1665H18.7497C18.9788 4.1665 19.1663 4.354 19.1663 4.58317V15.4165C19.1663 15.6457 18.9788 15.8332 18.7497 15.8332ZM1.66634 14.9998H18.333V4.99984H1.66634V14.9998Z" fill="#222222"/>
<path d="M13.7502 17.4998H6.25016C6.021 17.4998 5.8335 17.3123 5.8335 17.0832C5.8335 16.854 6.021 16.6665 6.25016 16.6665H13.7502C13.9793 16.6665 14.1668 16.854 14.1668 17.0832C14.1668 17.3123 13.9793 17.4998 13.7502 17.4998Z" fill="#222222"/>
<path d="M15.8332 14.5833H13.3332C13.104 14.5833 12.9165 14.3958 12.9165 14.1667C12.9165 13.9375 13.104 13.75 13.3332 13.75H15.8332C16.0623 13.75 16.2498 13.9375 16.2498 14.1667C16.2498 14.3958 16.0623 14.5833 15.8332 14.5833Z" fill="#222222"/>
<path d="M2.49974 7.08346C2.39141 7.08346 2.28724 7.0418 2.20391 6.96263C2.04141 6.80013 2.04141 6.53763 2.20391 6.37513L3.03724 5.5418C3.19974 5.3793 3.46224 5.3793 3.62474 5.5418C3.78724 5.7043 3.78724 5.9668 3.62474 6.1293L2.79141 6.96263C2.71224 7.0418 2.60807 7.08346 2.49974 7.08346Z" fill="#222222"/>
<path d="M2.49974 8.85013C2.39141 8.85013 2.28724 8.80846 2.20391 8.7293C2.04141 8.5668 2.04141 8.3043 2.20391 8.1418L4.80391 5.5418C4.96641 5.3793 5.2289 5.3793 5.3914 5.5418C5.5539 5.7043 5.5539 5.9668 5.3914 6.1293L2.79141 8.7293C2.71224 8.80846 2.60807 8.85013 2.49974 8.85013Z" fill="#222222"/>
<path d="M12.0832 17.5C11.854 17.5 11.6665 17.3125 11.6665 17.0833V15.4167C11.6665 15.1875 11.854 15 12.0832 15C12.3123 15 12.4998 15.1875 12.4998 15.4167V17.0833C12.4998 17.3125 12.3123 17.5 12.0832 17.5Z" fill="#222222"/>
<path d="M7.91667 17.5C7.6875 17.5 7.5 17.3125 7.5 17.0833V15.4167C7.5 15.1875 7.6875 15 7.91667 15C8.14583 15 8.33333 15.1875 8.33333 15.4167V17.0833C8.33333 17.3125 8.14583 17.5 7.91667 17.5Z" fill="#222222"/>
</svg>
