<svg width="32" height="32" viewBox="0 0 32 32" fill="none" xmlns="http://www.w3.org/2000/svg">
<path d="M26.6667 30.6668H5.33333C4.6 30.6668 4 30.0668 4 29.3335V2.66683C4 1.9335 4.6 1.3335 5.33333 1.3335H26.6667C27.4 1.3335 28 1.9335 28 2.66683V29.3335C28 30.0668 27.4 30.6668 26.6667 30.6668ZM5.33333 2.66683V29.3335H26.6667V2.66683H5.33333Z" fill="#888888"/>
<path d="M16 27.3333C11.22 27.3333 7.33331 23.4467 7.33331 18.6667C7.33331 13.8867 11.22 10 16 10C20.78 10 24.6666 13.8867 24.6666 18.6667C24.6666 23.4467 20.78 27.3333 16 27.3333ZM16 11.3333C11.9533 11.3333 8.66665 14.62 8.66665 18.6667C8.66665 22.7133 11.9533 26 16 26C20.0466 26 23.3333 22.7133 23.3333 18.6667C23.3333 14.62 20.0466 11.3333 16 11.3333Z" fill="#888888"/>
<path d="M16 25.3333C12.3266 25.3333 9.33331 22.34 9.33331 18.6667C9.33331 14.9933 12.3266 12 16 12C19.6733 12 22.6666 14.9933 22.6666 18.6667C22.6666 22.34 19.6733 25.3333 16 25.3333ZM16 13.3333C13.06 13.3333 10.6666 15.7267 10.6666 18.6667C10.6666 21.6067 13.06 24 16 24C18.94 24 21.3333 21.6067 21.3333 18.6667C21.3333 15.7267 18.94 13.3333 16 13.3333Z" fill="#888888"/>
<path d="M12 19.3333C11.6333 19.3333 11.3333 19.0333 11.3333 18.6667C11.3333 16.0933 13.4266 14 16 14C16.3666 14 16.6666 14.3 16.6666 14.6667C16.6666 15.0333 16.3666 15.3333 16 15.3333C14.16 15.3333 12.6666 16.8267 12.6666 18.6667C12.6666 19.0333 12.3666 19.3333 12 19.3333Z" fill="#888888"/>
<path d="M23.3333 8C22.2333 8 21.3333 7.1 21.3333 6C21.3333 4.9 22.2333 4 23.3333 4C24.4333 4 25.3333 4.9 25.3333 6C25.3333 7.1 24.4333 8 23.3333 8ZM23.3333 5.33333C22.9666 5.33333 22.6666 5.63333 22.6666 6C22.6666 6.36667 22.9666 6.66667 23.3333 6.66667C23.7 6.66667 24 6.36667 24 6C24 5.63333 23.7 5.33333 23.3333 5.33333Z" fill="#888888"/>
<path d="M18 8C16.9 8 16 7.1 16 6C16 4.9 16.9 4 18 4C19.1 4 20 4.9 20 6C20 7.1 19.1 8 18 8ZM18 5.33333C17.6333 5.33333 17.3333 5.63333 17.3333 6C17.3333 6.36667 17.6333 6.66667 18 6.66667C18.3667 6.66667 18.6667 6.36667 18.6667 6C18.6667 5.63333 18.3667 5.33333 18 5.33333Z" fill="#888888"/>
<path d="M14 8H7.33335C6.96669 8 6.66669 7.7 6.66669 7.33333V4.66667C6.66669 4.3 6.96669 4 7.33335 4H14C14.3667 4 14.6667 4.3 14.6667 4.66667V7.33333C14.6667 7.7 14.3667 8 14 8ZM8.00002 6.66667H13.3334V5.33333H8.00002V6.66667Z" fill="#888888"/>
</svg>
