<svg width="32" height="32" viewBox="0 0 32 32" fill="none" xmlns="http://www.w3.org/2000/svg">
<path d="M16 26C14.9 26 14 25.1 14 24C14 22.9 14.9 22 16 22C17.1 22 18 22.9 18 24C18 25.1 17.1 26 16 26ZM16 23.3333C15.6333 23.3333 15.3333 23.6333 15.3333 24C15.3333 24.3667 15.6333 24.6667 16 24.6667C16.3667 24.6667 16.6667 24.3667 16.6667 24C16.6667 23.6333 16.3667 23.3333 16 23.3333Z" fill="#888888"/>
<path d="M29.16 13.3933C28.9734 13.3933 28.7867 13.3133 28.6534 13.16C25.48 9.46 20.8667 7.33333 16 7.33333C11.1334 7.33333 6.52002 9.46 3.34669 13.16C3.10669 13.44 2.68669 13.4733 2.40669 13.2333C2.12669 12.9933 2.09335 12.5733 2.33335 12.2933C5.76002 8.29333 10.7467 6 16 6C21.2534 6 26.24 8.29333 29.6667 12.2933C29.9067 12.5733 29.8734 12.9933 29.5934 13.2333C29.4667 13.34 29.3134 13.3933 29.16 13.3933Z" fill="#888888"/>
<path d="M26.32 16.2333C26.1267 16.2333 25.9333 16.1467 25.8067 15.9867C23.3867 13.0267 19.8133 11.3333 16 11.3333C12.1867 11.3333 8.61335 13.0267 6.19335 15.9867C5.96002 16.2733 5.54002 16.3133 5.25335 16.08C4.96668 15.8467 4.92668 15.4267 5.16002 15.14C7.83335 11.8733 11.7867 10 16 10C20.2133 10 24.1667 11.8733 26.84 15.14C27.0733 15.4267 27.0333 15.8467 26.7467 16.08C26.62 16.18 26.4733 16.2333 26.32 16.2333Z" fill="#888888"/>
<path d="M8.53333 19.0867C8.39333 19.0867 8.25333 19.0467 8.13333 18.9533C7.83999 18.7333 7.77999 18.3133 7.99999 18.02C9.91333 15.4667 12.8267 14 16 14C19.1733 14 22.0867 15.4667 24 18.02C24.22 18.3133 24.16 18.7333 23.8667 18.9533C23.5733 19.1733 23.1533 19.1133 22.9333 18.82C21.2733 16.6 18.7467 15.3333 16 15.3333C13.2533 15.3333 10.7267 16.6 9.06666 18.82C8.93333 18.9933 8.73333 19.0867 8.53333 19.0867Z" fill="#888888"/>
<path d="M11.4067 21.96C11.2934 21.96 11.1734 21.9333 11.0667 21.8667C10.7467 21.68 10.6467 21.2733 10.8334 20.9533C11.9134 19.1333 13.8934 18 16 18C18.1067 18 20.0867 19.1333 21.1667 20.9533C21.3533 21.2733 21.2467 21.68 20.9333 21.8667C20.6133 22.0533 20.2067 21.9467 20.02 21.6333C19.18 20.2133 17.64 19.3333 16 19.3333C14.36 19.3333 12.82 20.2133 11.98 21.6333C11.86 21.8467 11.64 21.96 11.4067 21.96Z" fill="#888888"/>
</svg>
