<svg width="24" height="24" viewBox="0 0 24 24" fill="none" xmlns="http://www.w3.org/2000/svg">
<path d="M22.4734 11.5266L12.4734 1.52663C12.3484 1.40246 12.1795 1.33276 12.0034 1.33276C11.8272 1.33276 11.6583 1.40246 11.5334 1.52663L1.53335 11.5266C1.42413 11.6542 1.36706 11.8182 1.37354 11.986C1.38002 12.1538 1.44958 12.3129 1.56831 12.4317C1.68704 12.5504 1.8462 12.62 2.01398 12.6264C2.18177 12.6329 2.34582 12.5758 2.47335 12.4666L12 2.93996L21.5267 12.4733C21.6542 12.5825 21.8183 12.6396 21.9861 12.6331C22.1538 12.6266 22.313 12.5571 22.4317 12.4383C22.5505 12.3196 22.62 12.1604 22.6265 11.9927C22.633 11.8249 22.5759 11.6608 22.4667 11.5333L22.4734 11.5266Z" fill="#222222"/>
<path d="M18.6667 21.3334H15.3333V14.6668H8.66667V21.3334H5.33333V12.0001L4 13.3334V21.3334C4 21.687 4.14048 22.0262 4.39052 22.2762C4.64057 22.5263 4.97971 22.6668 5.33333 22.6668H10V16.0001H14V22.6668H18.6667C19.0203 22.6668 19.3594 22.5263 19.6095 22.2762C19.8595 22.0262 20 21.687 20 21.3334V13.1734L18.6667 11.8401V21.3334Z" fill="#222222"/>
</svg>
