<svg width="24" height="24" viewBox="0 0 24 24" fill="none" xmlns="http://www.w3.org/2000/svg">
<path d="M16.5 2.25C14.025 2.25 12 4.275 12 6.75C12 7.494 12.2872 8.253 12.6562 9.09375C13.047 9.96848 13.4851 10.8213 13.9688 11.6483C14.5705 12.6803 15.2118 13.6887 15.891 14.6715L16.5 15.5625L17.1097 14.6715C17.1097 14.6715 18.0765 13.2953 19.0312 11.649C19.5149 10.8218 19.9531 9.96874 20.3438 9.09375C20.7127 8.253 21 7.494 21 6.75C21 4.275 18.975 2.25 16.5 2.25ZM8.97675 3.7035L3 6.258V20.6475L9.02325 18.0465L15.0233 20.2965L21 17.7413V11.2028C20.535 12.0819 20.0346 12.9418 19.5 13.7805V16.7573L15.75 18.351V17.1323L14.6483 15.5385C14.5312 15.3683 14.3933 15.1665 14.25 14.952V18.4208L9.75 16.7333V5.5785L10.5705 5.88375C10.6405 5.3842 10.7743 4.8957 10.9688 4.43025L8.97675 3.7035ZM16.5 3.75C18.1643 3.75 19.5 5.08575 19.5 6.75C19.5 7.04025 19.3185 7.725 18.984 8.48475C18.6503 9.243 18.1785 10.1048 17.7188 10.8983C17.1068 11.9528 16.8427 12.3278 16.5 12.8438C16.1573 12.3278 15.8932 11.9528 15.2812 10.8983C14.8215 10.1048 14.3498 9.243 14.0153 8.484C13.6815 7.7265 13.5 7.04025 13.5 6.75C13.5 5.08575 14.8357 3.75 16.5 3.75ZM8.25 5.625V16.758L4.5 18.3518V7.242L8.25 5.625ZM16.5 5.625C16.2016 5.625 15.9155 5.74353 15.7045 5.95451C15.4935 6.16548 15.375 6.45163 15.375 6.75C15.375 7.04837 15.4935 7.33452 15.7045 7.5455C15.9155 7.75647 16.2016 7.875 16.5 7.875C16.7984 7.875 17.0845 7.75647 17.2955 7.5455C17.5065 7.33452 17.625 7.04837 17.625 6.75C17.625 6.45163 17.5065 6.16548 17.2955 5.95451C17.0845 5.74353 16.7984 5.625 16.5 5.625Z" fill="#222222"/>
</svg>
