<svg width="24" height="24" viewBox="0 0 24 24" fill="none" xmlns="http://www.w3.org/2000/svg">
<path d="M12 10.2C12.9941 10.2 13.8 11.0059 13.8 12C13.8 12.9941 12.9941 13.8 12 13.8C11.0059 13.8 10.2 12.9941 10.2 12C10.2 11.0059 11.0059 10.2 12 10.2Z" stroke="#222222" stroke-width="1.6"/>
<path d="M20 10.2C20.9941 10.2 21.8 11.0059 21.8 12C21.8 12.9941 20.9941 13.8 20 13.8C19.0059 13.8 18.2 12.9941 18.2 12C18.2 11.0059 19.0059 10.2 20 10.2Z" stroke="#222222" stroke-width="1.6"/>
<path d="M4 10.2C4.99411 10.2 5.8 11.0059 5.8 12C5.8 12.9941 4.99411 13.8 4 13.8C3.00589 13.8 2.2 12.9941 2.2 12C2.2 11.0059 3.00589 10.2 4 10.2Z" stroke="#222222" stroke-width="1.6"/>
</svg>
