<svg width="112" height="100" viewBox="0 0 112 100" fill="none" xmlns="http://www.w3.org/2000/svg">
<g clip-path="url(#clip0)">
<path fill-rule="evenodd" clip-rule="evenodd" d="M72.0295 13.2631C71.5304 12.8954 70.85 12.8954 70.3508 13.2631L30.9575 42.2818C29.8575 43.0921 30.4306 44.8365 31.7969 44.8365H38.5319V87.7116C38.5319 88.6887 39.3239 89.4807 40.3009 89.4807H102.959C103.936 89.4807 104.728 88.6887 104.728 87.7116V44.8365H110.583C111.95 44.8365 112.523 43.0921 111.423 42.2818L72.0295 13.2631Z" fill="#EEEEEE"/>
<path d="M56 80V40.0615C56 39.4752 56.4752 39 57.0615 39H85.9385C86.5248 39 87 39.4752 87 40.0615V70.6547C87 71.2409 86.5248 71.7161 85.9385 71.7161H67.8699C67.2837 71.7161 66.8084 71.2409 66.8084 70.6547V49.6037C66.8084 49.0174 67.2837 48.5422 67.8699 48.5422H75.8428C76.429 48.5422 76.9042 49.0174 76.9042 49.6037V60.1687C76.9042 60.755 76.429 61.2302 75.8428 61.2302H73.3356C72.7494 61.2302 72.2741 60.755 72.2741 60.1687V55.7963" stroke="#CCCCCC" stroke-width="1.41527"/>
<path fill-rule="evenodd" clip-rule="evenodd" d="M5.58661 0C5.00039 0 4.52516 0.475228 4.52516 1.06145V6.57355C4.52516 7.15978 5.00039 7.63501 5.58661 7.63501H6.59795V19.7393H5.16362C4.18658 19.7393 3.39453 20.5313 3.39453 21.5084V87.9702C3.39453 94.614 8.78046 100 15.4243 100L26.9687 100L39.0387 100L103.466 100C104.443 100 105.235 99.2079 105.235 98.2309V81.0987C105.235 80.1216 104.443 79.3296 103.466 79.3296H40.8078C39.8308 79.3296 39.0387 78.5375 39.0387 77.5605V21.5084C39.0387 20.5313 38.2467 19.7393 37.2696 19.7393H35.4529V7.63501H36.2789C36.8651 7.63501 37.3403 7.15978 37.3403 6.57356V1.06145C37.3403 0.475228 36.8651 0 36.2789 0H30.6694C30.0832 0 29.608 0.475228 29.608 1.06145V6.57355C29.608 7.15978 30.0832 7.63501 30.6694 7.63501H31.8697V19.7393H10.1812V7.63501H11.196C11.7823 7.63501 12.2575 7.15978 12.2575 6.57356V1.06145C12.2575 0.475228 11.7823 0 11.196 0H5.58661Z" fill="white"/>
<rect x="10.373" y="39.292" width="3.96046" height="6.14525" rx="0.707635" fill="#CCCCCC"/>
<rect x="28.2891" y="39.292" width="3.96046" height="6.14525" rx="0.707635" fill="#CCCCCC"/>
<rect x="15.6543" y="52.5137" width="11.5042" height="2.23464" rx="0.707635" fill="#CCCCCC"/>
<ellipse cx="5.37492" cy="51.1178" rx="5.37492" ry="5.30726" fill="#FFEFEF"/>
<ellipse cx="37.0585" cy="51.1178" rx="5.37492" ry="5.30726" fill="#FFEFEF"/>
</g>
<defs>
<clipPath id="clip0">
<rect width="112" height="100" fill="white"/>
</clipPath>
</defs>
</svg>
