<svg width="360" height="640" viewBox="0 0 360 640" fill="none" xmlns="http://www.w3.org/2000/svg">
<rect width="360" height="640" fill="#6F22D2"/>
<rect width="360" height="640" fill="#6F22D2"/>
<path d="M109.062 590.55C108.295 590.55 107.692 590.807 107.252 591.32C106.812 591.833 106.592 592.537 106.592 593.43C106.592 594.317 106.795 595.02 107.202 595.54C107.615 596.053 108.232 596.31 109.052 596.31C109.365 596.31 109.662 596.283 109.942 596.23C110.222 596.177 110.495 596.11 110.762 596.03V596.81C110.495 596.91 110.218 596.983 109.932 597.03C109.652 597.077 109.315 597.1 108.922 597.1C108.195 597.1 107.588 596.95 107.102 596.65C106.615 596.35 106.248 595.923 106.002 595.37C105.762 594.817 105.642 594.167 105.642 593.42C105.642 592.7 105.772 592.067 106.032 591.52C106.298 590.967 106.688 590.537 107.202 590.23C107.715 589.917 108.338 589.76 109.072 589.76C109.825 589.76 110.482 589.9 111.042 590.18L110.682 590.94C110.462 590.84 110.215 590.75 109.942 590.67C109.675 590.59 109.382 590.55 109.062 590.55ZM116.66 594.31C116.66 595.197 116.433 595.883 115.98 596.37C115.533 596.857 114.927 597.1 114.16 597.1C113.687 597.1 113.263 596.993 112.89 596.78C112.523 596.56 112.233 596.243 112.02 595.83C111.807 595.41 111.7 594.903 111.7 594.31C111.7 593.423 111.923 592.74 112.37 592.26C112.817 591.78 113.423 591.54 114.19 591.54C114.677 591.54 115.103 591.65 115.47 591.87C115.843 592.083 116.133 592.397 116.34 592.81C116.553 593.217 116.66 593.717 116.66 594.31ZM112.61 594.31C112.61 594.943 112.733 595.447 112.98 595.82C113.233 596.187 113.633 596.37 114.18 596.37C114.72 596.37 115.117 596.187 115.37 595.82C115.623 595.447 115.75 594.943 115.75 594.31C115.75 593.677 115.623 593.18 115.37 592.82C115.117 592.46 114.717 592.28 114.17 592.28C113.623 592.28 113.227 592.46 112.98 592.82C112.733 593.18 112.61 593.677 112.61 594.31ZM120.405 591.54C121.065 591.54 121.595 591.77 121.995 592.23C122.401 592.69 122.605 593.383 122.605 594.31C122.605 595.223 122.401 595.917 121.995 596.39C121.595 596.863 121.061 597.1 120.395 597.1C119.981 597.1 119.638 597.023 119.365 596.87C119.098 596.71 118.888 596.527 118.735 596.32H118.675C118.688 596.433 118.701 596.577 118.715 596.75C118.728 596.923 118.735 597.073 118.735 597.2V599.4H117.855V591.64H118.575L118.695 592.37H118.735C118.895 592.137 119.105 591.94 119.365 591.78C119.625 591.62 119.971 591.54 120.405 591.54ZM120.245 592.28C119.698 592.28 119.311 592.433 119.085 592.74C118.865 593.047 118.748 593.513 118.735 594.14V594.31C118.735 594.97 118.841 595.48 119.055 595.84C119.275 596.193 119.678 596.37 120.265 596.37C120.591 596.37 120.858 596.28 121.065 596.1C121.278 595.92 121.435 595.677 121.535 595.37C121.641 595.057 121.695 594.7 121.695 594.3C121.695 593.687 121.575 593.197 121.335 592.83C121.101 592.463 120.738 592.28 120.245 592.28ZM122.772 591.64H123.712L124.872 594.69C124.972 594.957 125.062 595.213 125.142 595.46C125.222 595.7 125.282 595.93 125.322 596.15H125.362C125.402 595.983 125.465 595.767 125.552 595.5C125.638 595.227 125.728 594.953 125.822 594.68L126.912 591.64H127.862L125.552 597.74C125.365 598.247 125.122 598.65 124.822 598.95C124.528 599.25 124.122 599.4 123.602 599.4C123.442 599.4 123.302 599.39 123.182 599.37C123.062 599.357 122.958 599.34 122.872 599.32V598.62C122.945 598.633 123.032 598.647 123.132 598.66C123.238 598.673 123.348 598.68 123.462 598.68C123.768 598.68 124.015 598.593 124.202 598.42C124.395 598.247 124.545 598.017 124.652 597.73L124.932 597.02L122.772 591.64ZM131.009 591.54C131.109 591.54 131.216 591.547 131.329 591.56C131.449 591.567 131.553 591.58 131.639 591.6L131.529 592.41C131.443 592.39 131.346 592.373 131.239 592.36C131.139 592.347 131.043 592.34 130.949 592.34C130.676 592.34 130.419 592.417 130.179 592.57C129.939 592.717 129.746 592.927 129.599 593.2C129.459 593.467 129.389 593.78 129.389 594.14V597H128.509V591.64H129.229L129.329 592.62H129.369C129.543 592.327 129.766 592.073 130.039 591.86C130.313 591.647 130.636 591.54 131.009 591.54ZM132.89 589.63C133.024 589.63 133.14 589.677 133.24 589.77C133.347 589.857 133.4 589.997 133.4 590.19C133.4 590.377 133.347 590.517 133.24 590.61C133.14 590.703 133.024 590.75 132.89 590.75C132.744 590.75 132.62 590.703 132.52 590.61C132.42 590.517 132.37 590.377 132.37 590.19C132.37 589.997 132.42 589.857 132.52 589.77C132.62 589.677 132.744 589.63 132.89 589.63ZM133.32 591.64V597H132.44V591.64H133.32ZM136.718 591.54C137.072 591.54 137.388 591.607 137.668 591.74C137.955 591.873 138.198 592.077 138.398 592.35H138.448L138.568 591.64H139.268V597.09C139.268 597.857 139.072 598.433 138.678 598.82C138.292 599.207 137.688 599.4 136.868 599.4C136.082 599.4 135.438 599.287 134.938 599.06V598.25C135.465 598.53 136.125 598.67 136.918 598.67C137.378 598.67 137.738 598.533 137.998 598.26C138.265 597.993 138.398 597.627 138.398 597.16V596.95C138.398 596.87 138.402 596.757 138.408 596.61C138.415 596.457 138.422 596.35 138.428 596.29H138.388C138.028 596.83 137.475 597.1 136.728 597.1C136.035 597.1 135.492 596.857 135.098 596.37C134.712 595.883 134.518 595.203 134.518 594.33C134.518 593.477 134.712 592.8 135.098 592.3C135.492 591.793 136.032 591.54 136.718 591.54ZM136.838 592.28C136.392 592.28 136.045 592.46 135.798 592.82C135.552 593.173 135.428 593.68 135.428 594.34C135.428 595 135.548 595.507 135.788 595.86C136.035 596.207 136.392 596.38 136.858 596.38C137.398 596.38 137.792 596.237 138.038 595.95C138.285 595.657 138.408 595.187 138.408 594.54V594.33C138.408 593.597 138.282 593.073 138.028 592.76C137.775 592.44 137.378 592.28 136.838 592.28ZM141.651 591.63C141.651 591.897 141.634 592.147 141.601 592.38H141.661C141.834 592.107 142.067 591.9 142.361 591.76C142.661 591.62 142.984 591.55 143.331 591.55C143.984 591.55 144.474 591.707 144.801 592.02C145.127 592.327 145.291 592.823 145.291 593.51V597H144.421V593.57C144.421 592.71 144.021 592.28 143.221 592.28C142.621 592.28 142.207 592.45 141.981 592.79C141.761 593.123 141.651 593.603 141.651 594.23V597H140.771V589.4H141.651V591.63ZM148.542 596.38C148.676 596.38 148.812 596.37 148.952 596.35C149.092 596.323 149.206 596.297 149.292 596.27V596.94C149.199 596.987 149.066 597.023 148.892 597.05C148.719 597.083 148.552 597.1 148.392 597.1C148.112 597.1 147.852 597.053 147.612 596.96C147.379 596.86 147.189 596.69 147.042 596.45C146.896 596.21 146.822 595.873 146.822 595.44V592.32H146.062V591.9L146.832 591.55L147.182 590.41H147.702V591.64H149.252V592.32H147.702V595.42C147.702 595.747 147.779 595.99 147.932 596.15C148.092 596.303 148.296 596.38 148.542 596.38ZM153.476 597.1C152.942 597.1 152.452 597.01 152.006 596.83C151.559 596.65 151.169 596.397 150.836 596.07C150.509 595.737 150.256 595.347 150.076 594.9C149.896 594.453 149.806 593.963 149.806 593.43C149.806 592.897 149.896 592.407 150.076 591.96C150.256 591.513 150.509 591.127 150.836 590.8C151.169 590.467 151.559 590.21 152.006 590.03C152.452 589.85 152.942 589.76 153.476 589.76C153.982 589.76 154.456 589.85 154.896 590.03C155.342 590.21 155.732 590.467 156.066 590.8C156.406 591.127 156.669 591.513 156.856 591.96C157.049 592.407 157.146 592.897 157.146 593.43C157.146 593.963 157.056 594.453 156.876 594.9C156.696 595.347 156.439 595.737 156.106 596.07C155.779 596.397 155.392 596.65 154.946 596.83C154.499 597.01 154.009 597.1 153.476 597.1ZM153.476 596.57C153.902 596.57 154.302 596.493 154.676 596.34C155.049 596.187 155.379 595.97 155.666 595.69C155.952 595.403 156.176 595.07 156.336 594.69C156.496 594.31 156.576 593.89 156.576 593.43C156.576 592.997 156.499 592.59 156.346 592.21C156.192 591.83 155.976 591.497 155.696 591.21C155.422 590.923 155.096 590.7 154.716 590.54C154.342 590.373 153.929 590.29 153.476 590.29C152.876 590.29 152.339 590.427 151.866 590.7C151.399 590.967 151.032 591.337 150.766 591.81C150.499 592.277 150.366 592.817 150.366 593.43C150.366 593.863 150.442 594.27 150.596 594.65C150.749 595.03 150.962 595.363 151.236 595.65C151.516 595.937 151.846 596.163 152.226 596.33C152.606 596.49 153.022 596.57 153.476 596.57ZM153.626 595.67C152.966 595.67 152.472 595.467 152.146 595.06C151.819 594.647 151.656 594.103 151.656 593.43C151.656 592.997 151.732 592.613 151.886 592.28C152.039 591.94 152.266 591.677 152.566 591.49C152.866 591.297 153.232 591.2 153.666 591.2C154.099 591.2 154.509 591.3 154.896 591.5L154.606 592.11C154.272 591.937 153.962 591.85 153.676 591.85C153.282 591.85 152.976 591.99 152.756 592.27C152.542 592.55 152.436 592.937 152.436 593.43C152.436 593.937 152.529 594.33 152.716 594.61C152.909 594.883 153.226 595.02 153.666 595.02C153.819 595.02 153.989 595 154.176 594.96C154.369 594.913 154.549 594.857 154.716 594.79V595.43C154.556 595.497 154.392 595.553 154.226 595.6C154.059 595.647 153.859 595.67 153.626 595.67ZM165.034 597H160.314V596.27L162.184 594.38C162.544 594.02 162.847 593.7 163.094 593.42C163.34 593.14 163.527 592.867 163.654 592.6C163.78 592.327 163.844 592.03 163.844 591.71C163.844 591.317 163.727 591.02 163.494 590.82C163.26 590.613 162.957 590.51 162.584 590.51C162.237 590.51 161.93 590.57 161.664 590.69C161.404 590.81 161.137 590.977 160.864 591.19L160.394 590.6C160.674 590.367 160.994 590.17 161.354 590.01C161.72 589.843 162.13 589.76 162.584 589.76C163.25 589.76 163.777 589.93 164.164 590.27C164.55 590.603 164.744 591.067 164.744 591.66C164.744 592.033 164.667 592.383 164.514 592.71C164.36 593.037 164.147 593.36 163.874 593.68C163.6 593.993 163.28 594.33 162.914 594.69L161.424 596.16V596.2H165.034V597ZM170.586 593.42C170.586 594.187 170.506 594.847 170.346 595.4C170.186 595.947 169.933 596.367 169.586 596.66C169.24 596.953 168.78 597.1 168.206 597.1C167.4 597.1 166.803 596.777 166.416 596.13C166.036 595.477 165.846 594.573 165.846 593.42C165.846 592.647 165.923 591.987 166.076 591.44C166.236 590.893 166.49 590.477 166.836 590.19C167.183 589.897 167.64 589.75 168.206 589.75C169.006 589.75 169.603 590.073 169.996 590.72C170.39 591.36 170.586 592.26 170.586 593.42ZM166.726 593.42C166.726 594.4 166.836 595.133 167.056 595.62C167.283 596.107 167.666 596.35 168.206 596.35C168.74 596.35 169.12 596.11 169.346 595.63C169.58 595.143 169.696 594.407 169.696 593.42C169.696 592.447 169.58 591.717 169.346 591.23C169.12 590.743 168.74 590.5 168.206 590.5C167.666 590.5 167.283 590.743 167.056 591.23C166.836 591.717 166.726 592.447 166.726 593.42ZM176.079 597H171.359V596.27L173.229 594.38C173.589 594.02 173.892 593.7 174.139 593.42C174.386 593.14 174.572 592.867 174.699 592.6C174.826 592.327 174.889 592.03 174.889 591.71C174.889 591.317 174.772 591.02 174.539 590.82C174.306 590.613 174.002 590.51 173.629 590.51C173.282 590.51 172.976 590.57 172.709 590.69C172.449 590.81 172.182 590.977 171.909 591.19L171.439 590.6C171.719 590.367 172.039 590.17 172.399 590.01C172.766 589.843 173.176 589.76 173.629 589.76C174.296 589.76 174.822 589.93 175.209 590.27C175.596 590.603 175.789 591.067 175.789 591.66C175.789 592.033 175.712 592.383 175.559 592.71C175.406 593.037 175.192 593.36 174.919 593.68C174.646 593.993 174.326 594.33 173.959 594.69L172.469 596.16V596.2H176.079V597ZM181.632 593.42C181.632 594.187 181.552 594.847 181.392 595.4C181.232 595.947 180.978 596.367 180.632 596.66C180.285 596.953 179.825 597.1 179.252 597.1C178.445 597.1 177.848 596.777 177.462 596.13C177.082 595.477 176.892 594.573 176.892 593.42C176.892 592.647 176.968 591.987 177.122 591.44C177.282 590.893 177.535 590.477 177.882 590.19C178.228 589.897 178.685 589.75 179.252 589.75C180.052 589.75 180.648 590.073 181.042 590.72C181.435 591.36 181.632 592.26 181.632 593.42ZM177.772 593.42C177.772 594.4 177.882 595.133 178.102 595.62C178.328 596.107 178.712 596.35 179.252 596.35C179.785 596.35 180.165 596.11 180.392 595.63C180.625 595.143 180.742 594.407 180.742 593.42C180.742 592.447 180.625 591.717 180.392 591.23C180.165 590.743 179.785 590.5 179.252 590.5C178.712 590.5 178.328 590.743 178.102 591.23C177.882 591.717 177.772 592.447 177.772 593.42ZM183.844 595.95C183.758 596.303 183.631 596.69 183.464 597.11C183.304 597.537 183.144 597.93 182.984 598.29H182.334C182.428 597.91 182.521 597.493 182.614 597.04C182.714 596.587 182.788 596.187 182.834 595.84H183.774L183.844 595.95ZM188.588 589.86H187.768V595.41H188.338C189.308 595.41 190.338 595.36 191.548 595.13L191.468 594.42C190.398 594.63 189.448 594.69 188.588 594.7V589.86ZM194.148 588.77V592.42H192.878V588.97H192.108V597.28H192.878V593.1H194.148V597.73H194.938V588.77H194.148ZM200.047 592.81H197.507V591.33H200.047V592.81ZM200.847 589.34H200.047V590.69H197.507V589.34H196.697V593.47H200.847V589.34ZM200.437 597.09C199.097 597.09 198.297 596.71 198.297 596.07C198.297 595.43 199.097 595.06 200.437 595.06C201.757 595.06 202.567 595.43 202.567 596.07C202.567 596.71 201.757 597.09 200.437 597.09ZM200.437 594.4C198.607 594.4 197.477 595.01 197.477 596.07C197.477 597.13 198.607 597.74 200.437 597.74C202.257 597.74 203.387 597.13 203.387 596.07C203.387 595.01 202.257 594.4 200.437 594.4ZM203.287 591.03V588.77H202.467V594.17H203.287V591.71H204.617V591.03H203.287ZM206.706 589.64H205.886V595.42H206.626C208.056 595.42 209.466 595.32 211.026 595L210.936 594.3C209.446 594.6 208.056 594.72 206.706 594.72V589.64ZM211.856 588.77V597.73H212.676V588.77H211.856ZM218.045 592.81H215.505V591.33H218.045V592.81ZM218.845 589.34H218.045V590.69H215.505V589.34H214.695V593.47H218.845V589.34ZM218.435 597.09C217.095 597.09 216.295 596.71 216.295 596.07C216.295 595.43 217.095 595.06 218.435 595.06C219.755 595.06 220.565 595.43 220.565 596.07C220.565 596.71 219.755 597.09 218.435 597.09ZM218.435 594.4C216.605 594.4 215.475 595.01 215.475 596.07C215.475 597.13 216.605 597.74 218.435 597.74C220.255 597.74 221.385 597.13 221.385 596.07C221.385 595.01 220.255 594.4 218.435 594.4ZM221.285 591.03V588.77H220.465V594.17H221.285V591.71H222.615V591.03H221.285ZM223.195 594.26C223.195 593.447 223.311 592.663 223.545 591.91C223.785 591.15 224.158 590.467 224.665 589.86H225.495C225.028 590.487 224.675 591.177 224.435 591.93C224.201 592.683 224.085 593.457 224.085 594.25C224.085 595.023 224.201 595.783 224.435 596.53C224.675 597.27 225.025 597.953 225.485 598.58H224.665C224.158 597.993 223.785 597.33 223.545 596.59C223.311 595.843 223.195 595.067 223.195 594.26ZM229.713 597L227.363 590.74H227.323C227.343 590.947 227.359 591.227 227.373 591.58C227.386 591.927 227.393 592.29 227.393 592.67V597H226.563V589.86H227.893L230.093 595.71H230.133L232.373 589.86H233.693V597H232.803V592.61C232.803 592.263 232.809 591.92 232.823 591.58C232.843 591.24 232.859 590.963 232.873 590.75H232.833L230.453 597H229.713ZM237.405 589.86C238.292 589.86 238.945 590.03 239.365 590.37C239.792 590.703 240.005 591.21 240.005 591.89C240.005 592.27 239.935 592.587 239.795 592.84C239.655 593.093 239.475 593.297 239.255 593.45C239.042 593.597 238.815 593.713 238.575 593.8L240.535 597H239.485L237.755 594.05H236.335V597H235.435V589.86H237.405ZM237.355 590.64H236.335V593.29H237.405C237.985 593.29 238.408 593.177 238.675 592.95C238.942 592.717 239.075 592.377 239.075 591.93C239.075 591.463 238.935 591.133 238.655 590.94C238.375 590.74 237.942 590.64 237.355 590.64ZM243.316 593.37L245.176 589.86H246.146L243.766 594.23V597H242.866V594.27L240.486 589.86H241.466L243.316 593.37ZM248.89 589.86C249.776 589.86 250.43 590.03 250.85 590.37C251.276 590.703 251.49 591.21 251.49 591.89C251.49 592.27 251.42 592.587 251.28 592.84C251.14 593.093 250.96 593.297 250.74 593.45C250.526 593.597 250.3 593.713 250.06 593.8L252.02 597H250.97L249.24 594.05H247.82V597H246.92V589.86H248.89ZM248.84 590.64H247.82V593.29H248.89C249.47 593.29 249.893 593.177 250.16 592.95C250.426 592.717 250.56 592.377 250.56 591.93C250.56 591.463 250.42 591.133 250.14 590.94C249.86 590.74 249.426 590.64 248.84 590.64ZM254.57 594.26C254.57 595.067 254.45 595.843 254.21 596.59C253.977 597.33 253.607 597.993 253.1 598.58H252.28C252.74 597.953 253.087 597.27 253.32 596.53C253.56 595.783 253.68 595.023 253.68 594.25C253.68 593.457 253.56 592.683 253.32 591.93C253.087 591.177 252.737 590.487 252.27 589.86H253.1C253.607 590.467 253.977 591.15 254.21 591.91C254.45 592.663 254.57 593.447 254.57 594.26Z" fill="white" fill-opacity="0.6"/>
<g clip-path="url(#clip0)">
<path d="M76.9528 308.33L83.8603 301.179C84.0176 301.021 84.2085 300.897 84.4219 300.84L110.918 293.023C111.131 292.955 111.367 293.034 111.502 293.215L128.799 316.408C129.113 316.837 129.034 317.436 128.608 317.752C128.54 317.809 128.462 317.842 128.372 317.876L123.935 319.593C123.654 319.706 123.463 319.989 123.475 320.294V336.573C123.475 336.968 123.228 337.319 122.857 337.454L107.436 343.17L97.4395 346.876C97.0015 347.034 96.5185 347.034 96.0805 346.853L74.3695 337.94C74.0213 337.793 73.7854 337.443 73.7854 337.07V319.277C73.7854 319.017 73.617 318.78 73.3699 318.69L69.2927 317.198C69.0569 317.108 68.9333 316.848 69.0232 316.6L76.9528 308.33Z" fill="white"/>
<path d="M88.0602 302.941L101.516 323.897C101.74 324.259 102.179 324.417 102.583 324.282L124.575 317.345C125.069 317.187 125.338 316.656 125.181 316.159C125.147 316.069 125.114 315.978 125.058 315.899L110.726 295.813C110.49 295.497 110.086 295.35 109.704 295.451L88.5993 301.518C88.1051 301.665 87.8243 302.185 87.9591 302.682C87.9816 302.783 88.0153 302.862 88.0602 302.941Z" fill="#6F22D2"/>
<path d="M81.2762 322.35V337.522C81.2762 337.917 81.5233 338.267 81.894 338.403L88.9812 341.035C89.4417 341.205 89.9584 340.967 90.1269 340.504C90.1606 340.403 90.183 340.301 90.183 340.188V325.637C90.183 325.242 89.9359 324.892 89.5653 324.756L81.9165 321.909C81.6806 321.819 81.411 321.943 81.3212 322.18C81.3212 322.18 81.3212 322.18 81.3212 322.192C81.2987 322.237 81.2875 322.293 81.2762 322.35Z" fill="#6F22D2"/>
</g>
<path d="M166.687 304V316.56H163.847V304.16H157.607V337.56H163.847V322.96H166.687V338.16H173.007V304H166.687ZM146.207 330.6V304.72H139.607V336.56H147.447C150.327 336.56 153.967 336.2 156.007 335.36V329.44C153.927 330.2 150.727 330.6 148.047 330.6H146.207ZM209.563 309.88V304H202.803V323.28H209.563V316.44H213.563V309.88H209.563ZM199.083 304.4H192.523V307.8H184.803V304.4H178.243V322H199.083V304.4ZM184.803 316.56V313.08H192.523V316.56H184.803ZM194.483 323.84C185.883 323.84 179.083 325.72 179.083 331.2C179.083 336.68 185.883 338.56 194.483 338.56C203.083 338.56 209.883 336.68 209.883 331.2C209.883 325.72 203.083 323.84 194.483 323.84ZM194.483 333.24C189.963 333.24 186.363 332.72 186.363 331.2C186.363 329.72 189.963 329.16 194.483 329.16C199.003 329.16 202.603 329.72 202.603 331.2C202.603 332.72 199.003 333.24 194.483 333.24ZM249 304H242.24V338.16H249V304ZM224.44 304.6H217.48V336.56H231.6C234.88 336.56 238.36 335.96 240.44 334.92V328.76C238.36 329.76 234.84 330.4 231.6 330.4H224.44V304.6ZM286.517 309.88V304H279.757V323.28H286.517V316.44H290.517V309.88H286.517ZM276.037 304.4H269.477V307.8H261.757V304.4H255.197V322H276.037V304.4ZM261.757 316.56V313.08H269.477V316.56H261.757ZM271.437 323.84C262.837 323.84 256.037 325.72 256.037 331.2C256.037 336.68 262.837 338.56 271.437 338.56C280.037 338.56 286.837 336.68 286.837 331.2C286.837 325.72 280.037 323.84 271.437 323.84ZM271.437 333.24C266.917 333.24 263.317 332.72 263.317 331.2C263.317 329.72 266.917 329.16 271.437 329.16C275.957 329.16 279.557 329.72 279.557 331.2C279.557 332.72 275.957 333.24 271.437 333.24Z" fill="white"/>
<defs>
<clipPath id="clip0">
<rect width="60" height="54" fill="white" transform="translate(69 293)"/>
</clipPath>
</defs>
</svg>
