<svg width="222" height="54" viewBox="0 0 222 54" fill="none" xmlns="http://www.w3.org/2000/svg">
<g clip-path="url(#clip0)">
<path d="M7.95279 15.3303L14.8603 8.17925C15.0176 8.02109 15.2085 7.89682 15.4219 7.84034L41.9176 0.0227613C42.131 -0.0450211 42.3669 0.0340563 42.5016 0.214809L59.7985 23.4077C60.113 23.837 60.0344 24.4357 59.6076 24.7521C59.5402 24.8085 59.4616 24.8424 59.3717 24.8763L54.9352 26.5935C54.6544 26.7064 54.4635 26.9889 54.4747 27.2939V43.573C54.4747 43.9684 54.2276 44.3186 53.8569 44.4541L38.4358 50.1705L28.4395 53.8759C28.0015 54.0341 27.5185 54.0341 27.0805 53.8533L5.36948 44.9399C5.0213 44.7931 4.78544 44.4428 4.78544 44.07V26.2772C4.78544 26.0173 4.61696 25.7801 4.36986 25.6897L0.292738 24.1985C0.0568717 24.1081 -0.0666837 23.8483 0.0231703 23.5998L7.95279 15.3303Z" fill="white"/>
<path d="M19.0602 9.94142L32.5158 30.8975C32.7405 31.259 33.1785 31.4172 33.5829 31.2816L55.5746 24.3452C56.0688 24.187 56.3384 23.6561 56.1811 23.159C56.1474 23.0686 56.1138 22.9782 56.0576 22.8992L41.7259 2.81297C41.49 2.49665 41.0857 2.34979 40.7038 2.45146L19.5993 8.51799C19.1051 8.66485 18.8243 9.18452 18.9591 9.68159C18.9816 9.78326 19.0153 9.86234 19.0602 9.94142Z" fill="#6F22D2"/>
<path d="M12.2762 29.3498V44.5218C12.2762 44.9172 12.5233 45.2674 12.894 45.4029L19.9812 48.0352C20.4417 48.2046 20.9584 47.9674 21.1269 47.5042C21.1606 47.4025 21.183 47.3008 21.183 47.1879V32.6372C21.183 32.2418 20.9359 31.8916 20.5653 31.7561L12.9165 28.9092C12.6806 28.8188 12.411 28.9431 12.3212 29.1803C12.3212 29.1803 12.3212 29.1803 12.3212 29.1916C12.2987 29.2368 12.2875 29.2933 12.2762 29.3498Z" fill="#6F22D2"/>
</g>
<path d="M97.6869 11V23.56H94.8469V11.16H88.6069V44.56H94.8469V29.96H97.6869V45.16H104.007V11H97.6869ZM77.2069 37.6V11.72H70.6069V43.56H78.4469C81.3269 43.56 84.9669 43.2 87.0069 42.36V36.44C84.9269 37.2 81.7269 37.6 79.0469 37.6H77.2069ZM140.563 16.88V11H133.803V30.28H140.563V23.44H144.563V16.88H140.563ZM130.083 11.4H123.523V14.8H115.803V11.4H109.243V29H130.083V11.4ZM115.803 23.56V20.08H123.523V23.56H115.803ZM125.483 30.84C116.883 30.84 110.083 32.72 110.083 38.2C110.083 43.68 116.883 45.56 125.483 45.56C134.083 45.56 140.883 43.68 140.883 38.2C140.883 32.72 134.083 30.84 125.483 30.84ZM125.483 40.24C120.963 40.24 117.363 39.72 117.363 38.2C117.363 36.72 120.963 36.16 125.483 36.16C130.003 36.16 133.603 36.72 133.603 38.2C133.603 39.72 130.003 40.24 125.483 40.24ZM180 11H173.24V45.16H180V11ZM155.44 11.6H148.48V43.56H162.6C165.88 43.56 169.36 42.96 171.44 41.92V35.76C169.36 36.76 165.84 37.4 162.6 37.4H155.44V11.6ZM217.517 16.88V11H210.757V30.28H217.517V23.44H221.517V16.88H217.517ZM207.037 11.4H200.477V14.8H192.757V11.4H186.197V29H207.037V11.4ZM192.757 23.56V20.08H200.477V23.56H192.757ZM202.437 30.84C193.837 30.84 187.037 32.72 187.037 38.2C187.037 43.68 193.837 45.56 202.437 45.56C211.037 45.56 217.837 43.68 217.837 38.2C217.837 32.72 211.037 30.84 202.437 30.84ZM202.437 40.24C197.917 40.24 194.317 39.72 194.317 38.2C194.317 36.72 197.917 36.16 202.437 36.16C206.957 36.16 210.557 36.72 210.557 38.2C210.557 39.72 206.957 40.24 202.437 40.24Z" fill="white"/>
<defs>
<clipPath id="clip0">
<rect width="60" height="54" fill="white"/>
</clipPath>
</defs>
</svg>
