<svg width="24" height="24" viewBox="0 0 24 24" fill="none" xmlns="http://www.w3.org/2000/svg">
<path d="M19.6 5.42117L19.5992 5.42039C19.1238 4.95437 18.5633 4.58403 17.9481 4.32951L17.9468 4.32898C17.3086 4.06383 16.6239 3.92811 15.9328 3.9297L15.9305 3.92971C14.9579 3.9297 14.0109 4.19592 13.1888 4.69745L13.1887 4.69747C12.992 4.81747 12.8059 4.9488 12.6299 5.0915L12 5.60246L11.3701 5.0915C11.1941 4.9488 11.008 4.81747 10.8113 4.69747L10.8112 4.69745C9.98912 4.19592 9.04209 3.9297 8.06953 3.9297C7.36741 3.9297 6.69167 4.06375 6.05314 4.32898L6.05206 4.32943C5.43442 4.58514 4.87878 4.95224 4.4005 5.42069L4.39914 5.42202L4.39914 5.42202C3.9256 5.88404 3.54732 6.4345 3.28574 7.04218L19.6 5.42117ZM19.6 5.42117C20.0733 5.88414 20.4519 6.43495 20.7145 7.04276C20.9865 7.67512 21.1246 8.34342 21.1227 9.03234V9.03517C21.1227 9.67872 20.9913 10.371 20.7128 11.0991L20.712 11.1013M19.6 5.42117L20.712 11.1013M7.29708 16.4075L7.29719 16.4076C8.35005 17.3799 9.40169 18.2052 10.2031 18.7952C10.6031 19.0896 10.9387 19.324 11.1785 19.4872C11.2983 19.5689 11.3939 19.6325 11.4613 19.6767C11.5211 19.7161 11.5539 19.7369 11.5615 19.7418C11.563 19.7428 11.5635 19.7431 11.5632 19.7429L11.5711 19.7478L11.5789 19.7528L11.9988 20.0221L12.4187 19.7528L12.4189 19.7527C12.4905 19.7068 14.5859 18.3582 16.7006 16.4075L7.29708 16.4075ZM7.29708 16.4075C6.0259 15.2339 5.02555 14.0973 4.31128 13.0325L7.29708 16.4075ZM20.712 11.1013C20.4815 11.7085 20.138 12.3583 19.6864 13.0325M20.712 11.1013L19.6864 13.0325M19.6864 13.0325C18.9722 14.0972 17.9719 15.2337 16.7009 16.4072L19.6864 13.0325ZM2.875 9.03517C2.875 8.34415 3.01354 7.67474 3.28571 7.04226L4.31095 13.032C3.86075 12.3599 3.51864 11.7094 3.28481 11.0991C3.00639 10.371 2.875 9.67873 2.875 9.03517Z" stroke="#888888" stroke-width="2"/>
</svg>
