<svg width="240" height="40" viewBox="0 0 240 40" fill="none" xmlns="http://www.w3.org/2000/svg">
<path d="M0 4C0 1.79086 1.79086 0 4 0H236C238.209 0 240 1.79086 240 4V40H0V4Z" fill="#EEEEEE"/>
<g clip-path="url(#clip0)">
<path fill-rule="evenodd" clip-rule="evenodd" d="M68.9964 14.6652L72.4674 11.0897C72.5464 11.0106 72.6423 10.9484 72.7496 10.9202L86.0634 7.01141C86.1706 6.97752 86.2891 7.01706 86.3569 7.10744L95.0484 18.7039C95.2064 18.9185 95.1669 19.2179 94.9524 19.3761C94.9186 19.4043 94.8791 19.4212 94.8339 19.4382L92.6046 20.2968C92.4635 20.3533 92.3676 20.4945 92.3732 20.647V28.7865C92.3732 28.9842 92.249 29.1593 92.0628 29.2271L84.3138 32.0853L79.2908 33.938C79.0707 34.0171 78.828 34.0171 78.6079 33.9267L67.6983 29.47C67.5234 29.3966 67.4048 29.2215 67.4048 29.0351V20.1386C67.4048 20.0087 67.3202 19.8901 67.196 19.8449L65.1473 19.0993C65.0288 19.0541 64.9667 18.9242 65.0118 18.7999L68.9964 14.6652ZM74.5777 11.9707L81.3391 22.4488C81.4519 22.6295 81.6721 22.7086 81.8752 22.6408L92.9259 19.1726C93.1742 19.0936 93.3097 18.8281 93.2307 18.5795C93.2137 18.5343 93.1968 18.4892 93.1686 18.4496L85.967 8.40652C85.8485 8.24837 85.6453 8.17493 85.4534 8.22577L74.8486 11.259C74.6003 11.3325 74.4592 11.5923 74.5269 11.8408C74.5382 11.8917 74.5552 11.9312 74.5777 11.9707ZM71.1689 29.2609V21.6749C71.1745 21.6467 71.1802 21.6184 71.1915 21.5959V21.5902C71.2366 21.4716 71.3721 21.4095 71.4906 21.4546L75.334 22.8781C75.5203 22.9459 75.6445 23.121 75.6445 23.3187V30.594C75.6445 30.6505 75.6332 30.7013 75.6162 30.7521C75.5316 30.9837 75.272 31.1023 75.0406 31.0176L71.4793 29.7015C71.2931 29.6337 71.1689 29.4586 71.1689 29.2609Z" fill="white"/>
</g>
<path d="M112.777 12.5V18.78H111.35V12.58H108.214V29.28H111.35V21.98H112.777V29.58H115.953V12.5H112.777ZM102.486 25.8V12.86H99.1694V28.78H103.109C104.556 28.78 106.385 28.6 107.41 28.18V25.22C106.365 25.6 104.757 25.8 103.41 25.8H102.486Z" fill="white"/>
<path d="M134.322 15.44V12.5H130.925V22.14H134.322V18.72H136.332V15.44H134.322ZM129.056 12.7H125.759V14.4H121.88V12.7H118.584V21.5H129.056V12.7ZM121.88 18.78V17.04H125.759V18.78H121.88ZM126.744 22.42C122.423 22.42 119.006 23.36 119.006 26.1C119.006 28.84 122.423 29.78 126.744 29.78C131.066 29.78 134.483 28.84 134.483 26.1C134.483 23.36 131.066 22.42 126.744 22.42ZM126.744 27.12C124.473 27.12 122.664 26.86 122.664 26.1C122.664 25.36 124.473 25.08 126.744 25.08C129.016 25.08 130.825 25.36 130.825 26.1C130.825 26.86 129.016 27.12 126.744 27.12Z" fill="white"/>
<path d="M154.138 12.5H150.742V29.58H154.138V12.5ZM141.797 12.8H138.3V28.78H145.395C147.043 28.78 148.792 28.48 149.837 27.96V24.88C148.792 25.38 147.023 25.7 145.395 25.7H141.797V12.8Z" fill="white"/>
<path d="M172.99 15.44V12.5H169.593V22.14H172.99V18.72H175V15.44H172.99ZM167.724 12.7H164.428V14.4H160.548V12.7H157.252V21.5H167.724V12.7ZM160.548 18.78V17.04H164.428V18.78H160.548ZM165.413 22.42C161.091 22.42 157.674 23.36 157.674 26.1C157.674 28.84 161.091 29.78 165.413 29.78C169.734 29.78 173.151 28.84 173.151 26.1C173.151 23.36 169.734 22.42 165.413 22.42ZM165.413 27.12C163.141 27.12 161.332 26.86 161.332 26.1C161.332 25.36 163.141 25.08 165.413 25.08C167.684 25.08 169.493 25.36 169.493 26.1C169.493 26.86 167.684 27.12 165.413 27.12Z" fill="white"/>
<defs>
<clipPath id="clip0">
<rect width="30.1494" height="27" fill="white" transform="translate(65 7)"/>
</clipPath>
</defs>
</svg>
