<svg width="29" height="29" viewBox="0 0 29 29" fill="none" xmlns="http://www.w3.org/2000/svg">
<path d="M18.7667 6.68076L3.53238 10.2786C2.93197 10.4216 2.39031 10.7462 1.98125 11.2084C1.57219 11.6705 1.31564 12.2476 1.24657 12.8609C1.17751 13.4743 1.29929 14.0941 1.59532 14.6358C1.89134 15.1776 2.3472 15.6148 2.90075 15.8881L8.18569 18.4732C8.31073 18.538 8.42161 18.627 8.51187 18.7351C8.60213 18.8432 8.66996 18.9682 8.71139 19.1028L10.3118 24.7643C10.4485 25.2453 10.7033 25.6845 11.0529 26.042C11.4025 26.3995 11.8359 26.6641 12.3136 26.8115C12.7914 26.959 13.2984 26.9847 13.7886 26.8864C14.2788 26.7881 14.7366 26.5688 15.1204 26.2485C15.4769 25.9448 15.7608 25.5652 15.9516 25.1375L22.2106 10.79C22.4316 10.2799 22.5066 9.71836 22.4271 9.16806C22.3476 8.61777 22.1168 8.10034 21.7604 7.6735C21.4041 7.24667 20.9361 6.92721 20.4089 6.75079C19.8816 6.57436 19.3157 6.5479 18.7743 6.67435L18.7667 6.68076ZM20.3722 9.99235L14.1132 24.3399C14.0286 24.5255 13.8894 24.6808 13.7141 24.785C13.5388 24.8892 13.3358 24.9373 13.1323 24.9228C12.9289 24.9083 12.7347 24.832 12.5758 24.7041C12.417 24.5761 12.301 24.4027 12.2435 24.207L10.6354 18.5519C10.6132 18.477 10.5866 18.4035 10.5558 18.3317L15.8447 13.9159C16.0483 13.7459 16.176 13.502 16.1997 13.2378C16.2234 12.9736 16.1412 12.7107 15.9712 12.5071C15.8012 12.3035 15.5572 12.1757 15.2931 12.1519C15.0289 12.1281 14.7661 12.2102 14.5625 12.3802L9.2736 16.796C9.20847 16.7529 9.14087 16.7136 9.07115 16.6784L3.79388 14.0868C3.61159 13.9953 3.46162 13.8503 3.36408 13.6711C3.26654 13.4919 3.2261 13.2873 3.24817 13.0845C3.27025 12.8817 3.35378 12.6906 3.48758 12.5367C3.62138 12.3828 3.79904 12.2735 3.99675 12.2234L19.231 8.6256C19.4106 8.58506 19.5978 8.59485 19.7722 8.6539C19.9466 8.71296 20.1012 8.81898 20.2192 8.9603C20.3372 9.10162 20.4139 9.27275 20.4409 9.45484C20.4679 9.63694 20.4441 9.82294 20.3722 9.99235Z" fill="#888888"/>
</svg>
