<svg width="28" height="28" viewBox="0 0 28 28" fill="none" xmlns="http://www.w3.org/2000/svg">
<path d="M22.1667 12.8333H8.32999L12.565 7.74664C12.763 7.50839 12.8583 7.20123 12.8298 6.89273C12.8014 6.58423 12.6516 6.29967 12.4133 6.10164C12.1751 5.90361 11.8679 5.80834 11.5594 5.83678C11.2509 5.86523 10.9664 6.01506 10.7683 6.25331L4.93499 13.2533C4.89574 13.309 4.86065 13.3675 4.82999 13.4283C4.82999 13.4866 4.82999 13.5216 4.74832 13.58C4.69544 13.7137 4.66775 13.8561 4.66666 14C4.66775 14.1438 4.69544 14.2862 4.74832 14.42C4.74832 14.4783 4.74832 14.5133 4.82999 14.5716C4.86065 14.6325 4.89574 14.691 4.93499 14.7466L10.7683 21.7466C10.878 21.8783 11.0154 21.9842 11.1706 22.0568C11.3259 22.1294 11.4953 22.1669 11.6667 22.1666C11.9392 22.1672 12.2034 22.0722 12.4133 21.8983C12.5315 21.8004 12.6291 21.6801 12.7007 21.5443C12.7723 21.4086 12.8164 21.2601 12.8304 21.1073C12.8445 20.9545 12.8283 20.8004 12.7828 20.6538C12.7372 20.5073 12.6632 20.3712 12.565 20.2533L8.32999 15.1666H22.1667C22.4761 15.1666 22.7728 15.0437 22.9916 14.8249C23.2104 14.6061 23.3333 14.3094 23.3333 14C23.3333 13.6906 23.2104 13.3938 22.9916 13.175C22.7728 12.9562 22.4761 12.8333 22.1667 12.8333Z" fill="#888888"/>
</svg>
