<svg width="28" height="28" viewBox="0 0 28 28" fill="none" xmlns="http://www.w3.org/2000/svg">
<path d="M23.2167 14.77C23.0297 14.5571 22.9265 14.2834 22.9265 14C22.9265 13.7166 23.0297 13.4429 23.2167 13.23L24.71 11.55C24.8746 11.3665 24.9768 11.1355 25.0019 10.8903C25.0271 10.6451 24.9739 10.3982 24.85 10.185L22.5167 6.14837C22.3941 5.93548 22.2074 5.76673 21.9833 5.66617C21.7591 5.56562 21.5089 5.53839 21.2684 5.58837L19.075 6.03171C18.796 6.08937 18.5054 6.04289 18.2582 5.90104C18.0111 5.75919 17.8244 5.53177 17.7334 5.26171L17.0217 3.12671C16.9434 2.89498 16.7943 2.69372 16.5954 2.55136C16.3966 2.409 16.158 2.33274 15.9134 2.33337H11.2467C10.9923 2.32009 10.7405 2.39045 10.5299 2.53371C10.3192 2.67696 10.1612 2.88523 10.08 3.12671L9.42671 5.26171C9.33571 5.53177 9.14901 5.75919 8.90184 5.90104C8.65467 6.04289 8.36413 6.08937 8.08504 6.03171L5.83338 5.58837C5.60535 5.55615 5.37289 5.59213 5.16528 5.69179C4.95767 5.79144 4.78419 5.95031 4.66671 6.14837L2.33338 10.185C2.2064 10.3958 2.1493 10.6413 2.17025 10.8865C2.19121 11.1316 2.28914 11.3639 2.45004 11.55L3.93171 13.23C4.11875 13.4429 4.2219 13.7166 4.2219 14C4.2219 14.2834 4.11875 14.5571 3.93171 14.77L2.45004 16.45C2.28914 16.6362 2.19121 16.8685 2.17025 17.1136C2.1493 17.3588 2.2064 17.6043 2.33338 17.815L4.66671 21.8517C4.78932 22.0646 4.97601 22.2334 5.20017 22.3339C5.42432 22.4345 5.6745 22.4617 5.91504 22.4117L8.10838 21.9684C8.38746 21.9107 8.678 21.9572 8.92517 22.099C9.17234 22.2409 9.35904 22.4683 9.45004 22.7384L10.1617 24.8734C10.2429 25.1149 10.4009 25.3231 10.6115 25.4664C10.8222 25.6096 11.074 25.68 11.3284 25.6667H15.995C16.2396 25.6673 16.4782 25.5911 16.6771 25.4487C16.876 25.3064 17.0251 25.1051 17.1034 24.8734L17.815 22.7384C17.906 22.4683 18.0927 22.2409 18.3399 22.099C18.5871 21.9572 18.8776 21.9107 19.1567 21.9684L21.35 22.4117C21.5906 22.4617 21.8408 22.4345 22.0649 22.3339C22.2891 22.2334 22.4758 22.0646 22.5984 21.8517L24.9317 17.815C25.0556 17.6019 25.1088 17.355 25.0836 17.1098C25.0584 16.8646 24.9563 16.6336 24.7917 16.45L23.2167 14.77ZM21.4784 16.3334L22.4117 17.3834L20.9184 19.9734L19.5417 19.6934C18.7015 19.5216 17.8274 19.6643 17.0854 20.0945C16.3434 20.5246 15.7852 21.2122 15.5167 22.0267L15.0734 23.3334H12.0867L11.6667 22.0034C11.3982 21.1889 10.84 20.5013 10.098 20.0711C9.35604 19.641 8.48197 19.4983 7.64171 19.67L6.26504 19.95L4.74838 17.3717L5.68171 16.3217C6.25566 15.68 6.57296 14.8493 6.57296 13.9884C6.57296 13.1275 6.25566 12.2967 5.68171 11.655L4.74838 10.605L6.24171 8.03837L7.61838 8.31837C8.45863 8.49013 9.33271 8.3474 10.0747 7.91727C10.8167 7.48714 11.3749 6.79956 11.6434 5.98504L12.0867 4.66671H15.0734L15.5167 5.99671C15.7852 6.81123 16.3434 7.49881 17.0854 7.92894C17.8274 8.35907 18.7015 8.5018 19.5417 8.33004L20.9184 8.05004L22.4117 10.64L21.4784 11.69C20.9109 12.3303 20.5975 13.1562 20.5975 14.0117C20.5975 14.8672 20.9109 15.6932 21.4784 16.3334ZM13.58 9.33337C12.6571 9.33337 11.7548 9.60707 10.9874 10.1198C10.22 10.6326 9.62181 11.3615 9.2686 12.2142C8.9154 13.0669 8.82298 14.0052 9.00304 14.9105C9.18311 15.8157 9.62757 16.6472 10.2802 17.2999C10.9329 17.9525 11.7644 18.397 12.6696 18.577C13.5749 18.7571 14.5132 18.6647 15.3659 18.3115C16.2186 17.9583 16.9475 17.3601 17.4602 16.5927C17.973 15.8253 18.2467 14.923 18.2467 14C18.2467 12.7624 17.755 11.5754 16.8799 10.7002C16.0047 9.82504 14.8177 9.33337 13.58 9.33337ZM13.58 16.3334C13.1186 16.3334 12.6674 16.1965 12.2837 15.9401C11.9 15.6837 11.6009 15.3193 11.4243 14.893C11.2477 14.4666 11.2015 13.9975 11.2915 13.5448C11.3816 13.0922 11.6038 12.6764 11.9301 12.3501C12.2564 12.0238 12.6722 11.8016 13.1248 11.7115C13.5775 11.6215 14.0466 11.6677 14.473 11.8443C14.8993 12.0209 15.2637 12.32 15.5201 12.7037C15.7765 13.0874 15.9134 13.5386 15.9134 14C15.9134 14.6189 15.6675 15.2124 15.23 15.65C14.7924 16.0875 14.1989 16.3334 13.58 16.3334Z" fill="#888888"/>
</svg>
