<svg width="300" height="240" viewBox="0 0 300 240" fill="none" xmlns="http://www.w3.org/2000/svg">
<path d="M234.635 79.5015L114.366 11.2592C113.19 10.5937 109.696 11.1261 109.696 13.9598L111.73 128.483C111.73 129.113 112.068 129.695 112.62 130.006L228.201 198.189C232.844 200.007 237 196.126 237 192.546V83.5505C237 81.8763 236.096 80.3316 234.635 79.5015Z" fill="#0083B7"/>
<path d="M232.597 80.9613L112.332 12.7191C111.156 12.05 109.696 12.8977 109.696 14.2427V129.942C109.696 130.573 110.037 131.154 110.586 131.466L227.959 198.059C231.084 199.831 234.966 197.586 234.966 194.006V85.0139C234.966 83.3396 234.061 81.7914 232.597 80.9613Z" fill="#002E47"/>
<path d="M229.088 191.968L228.413 191.587L115.57 127.565V21.291L229.088 85.7048V191.968ZM116.474 127.043L228.184 190.424V86.2267L116.474 22.8392V127.043Z" fill="#FFDE91"/>
<path d="M208.57 146.657C208.57 146.654 208.57 146.65 208.57 146.65C208.345 143.732 200.419 126.121 200.419 117.466C200.419 113.536 195.918 102.982 195.918 102.982C195.918 102.982 168.653 127.624 169.712 138.433C169.906 140.415 168.896 143.897 168.333 145.512C168.195 145.788 168.079 146.069 167.998 146.349C167.889 146.727 167.833 147.098 167.833 147.473C167.833 147.736 167.865 147.999 167.921 148.261C167.935 148.328 167.953 148.394 167.97 148.461C168.012 148.622 168.065 148.78 168.129 148.941C169.67 153.084 177.49 157.168 188.246 157.168C188.355 157.168 188.46 157.161 188.569 157.158C188.802 157.161 189.034 157.168 189.27 157.168C189.372 157.168 189.47 157.154 189.569 157.133C190.618 157.098 191.649 157.042 192.638 156.934C202.263 155.883 208.655 151.48 208.655 147.473C208.658 147.2 208.63 146.927 208.57 146.657Z" fill="#FF9293"/>
<path d="M151.851 104.336C151.851 104.336 151.605 115.818 152.534 120.96C153.143 124.315 155.332 127.264 155.332 130.981C155.332 131.877 155.863 135.653 155.863 136C155.863 139.317 160.879 142.42 165.623 142.42C166.675 142.42 169.709 131.082 169.709 131.082L160.066 119.748L151.851 104.336Z" fill="#FF9293"/>
<path d="M201.112 106.893C201.112 106.893 206.152 96.3952 203.903 87.9923C201.654 79.5894 160.491 109.506 160.358 109.544C160.069 109.625 153.91 120.973 155.554 124.966C156.916 128.276 161.181 130.276 163.874 131.103C165.918 131.726 161.216 133.047 156.134 129.411C155.944 129.275 155.701 129.492 155.821 129.691C156.768 131.285 158.577 132.893 160.344 133.972C161.174 134.476 160.048 136.595 160.34 138.28C160.769 140.784 165.5 142.371 165.5 142.371C166.147 142.501 167.266 142.424 169.051 141.464C169.051 141.464 184.751 133.198 187.542 130.539C188.348 129.772 190.815 124.038 190.815 124.038C193.746 125.607 195.288 122.816 196.15 122.245C197.009 121.674 201.5 117.18 202.647 113.085C203.791 108.987 202.26 107.751 201.112 106.893Z" fill="#FFACAC"/>
<path d="M151.172 101.397C151.172 101.397 151.82 105.681 153.396 107.607C154.976 109.534 155.117 111.25 154.903 112.178C154.688 113.107 150.957 122.217 150.662 122.781C150.352 123.376 151.337 126.021 154.185 125.026C156.187 124.326 158.637 126.007 158.637 126.007C158.637 123.117 155.983 122.333 155.761 122.136C155.547 121.947 158.855 113.811 159.302 112.938C159.875 111.821 161.452 110.98 162.364 111.464C166.837 113.835 172.549 114.683 174.502 113.835C178.652 112.035 179.623 102.028 183.368 98.5495C194.704 88.024 201.102 87.2079 203.9 87.9925C203.9 87.9925 201.827 78.3287 195.439 75.1132C187.799 71.2708 178.145 68.9731 169.895 73.9013C161.646 78.8295 154.04 82.8996 151.172 101.397Z" fill="#FFC3C3"/>
<path d="M165.496 142.371L165.207 142.29C165.292 142.325 165.387 142.35 165.496 142.371Z" fill="#F7B39C"/>
<path d="M209.221 96.2159C209.221 91.2106 208.352 77.5643 191.262 70.4364C187.25 68.7621 178.134 66.7761 171.352 69.1089C153.892 75.1124 155.272 86.2649 148.501 90.9024C148.501 90.9024 152.094 98.7869 159.647 100.955C167.199 103.123 176.716 102.44 179.391 102.44C190.28 102.44 186.517 113.89 188.703 115.284C191.184 116.864 195.58 106.398 198.74 106.398C199.61 106.398 200.43 106.395 201.109 106.892C204.093 109.081 202.964 112.437 202.323 113.88C202.017 114.573 200.856 116.234 199.733 117.771C198.35 119.67 199.638 122.339 201.989 122.447C202.872 122.489 203.865 122.419 204.956 122.167C203.773 117.813 209.221 106.346 209.221 96.2159Z" fill="#6A8AFF"/>
<path d="M202.467 122.02C202.313 122.02 202.161 122.016 202.013 122.009C201.074 121.967 200.271 121.435 199.863 120.594C199.455 119.75 199.539 118.791 200.095 118.03C201.574 116.002 202.46 114.664 202.731 114.058C204.139 110.885 203.657 108.212 201.376 106.538C200.585 105.957 199.67 105.957 198.79 105.957C197.002 105.957 195.21 108.36 193.317 110.906C191.885 112.829 190.262 115.008 189.259 115.008C189.146 115.008 189.048 114.976 188.949 114.913C188.471 114.608 188.351 113.242 188.228 111.799C187.894 107.897 187.39 101.999 179.398 101.999C178.993 101.999 178.433 102.016 177.747 102.034C176.656 102.065 175.301 102.1 173.735 102.1C168.023 102.1 163.455 101.585 159.777 100.531C158.577 100.188 157.422 99.68 156.314 99.011C159.742 100.615 163.289 101.449 166.777 101.449C174.548 101.449 181.696 98.7868 186.905 93.9532C192.303 88.9409 195.89 81.1089 195.823 74.4609C195.819 74.0616 195.805 73.6413 195.784 73.1895C204.294 78.2648 208.785 86.2088 208.785 96.2159C208.785 101.386 207.363 106.86 206.11 111.691C204.973 116.065 204.062 119.579 204.442 121.834C203.773 121.957 203.112 122.02 202.467 122.02Z" fill="#2C51CB"/>
<path d="M206.596 158.192L194.253 151.187L194.7 150.406L205.691 156.644V145.674H206.596V158.192Z" fill="#FFDE91"/>
<path d="M206.596 106.63H205.691V94.4792L196.875 89.4774L197.326 88.6963L206.596 93.9573V106.63Z" fill="#FFDE91"/>
<path d="M138.967 66.423H138.062V55.0674L148.726 61.12L148.279 61.9011L138.967 56.6191V66.423Z" fill="#FFDE91"/>
<path d="M146.252 123.954L138.062 119.306V107.31H138.967V118.784L146.699 123.173L146.252 123.954Z" fill="#FFDE91"/>
<path opacity="0.3" d="M200.071 94.2508L144.71 62.8355C144.168 62.5272 143.496 62.916 143.496 63.536V116.794C143.496 117.085 143.651 117.351 143.904 117.494L197.934 148.15C199.374 148.966 201.162 147.932 201.162 146.283V96.1142C201.162 95.3436 200.746 94.6326 200.071 94.2508Z" fill="white"/>
<path d="M197.551 144.606L188.33 139.373L188.777 138.592L196.65 143.058V135.229H197.551V144.606Z" fill="white"/>
<path d="M197.551 106.63H196.65V97.7995L190.252 94.1707L190.699 93.3896L197.551 97.2776V106.63Z" fill="white"/>
<path d="M148.012 77.1763H147.107V68.6543L155.1 73.1902L154.653 73.9713L148.012 70.2025V77.1763Z" fill="white"/>
<path d="M153.167 119.426L147.107 115.986V107.128H148.012V115.464L153.614 118.645L153.167 119.426Z" fill="white"/>
<path opacity="0.8" d="M219.843 140.069C219.843 140.665 220.265 141.386 220.783 141.684C221.3 141.982 221.719 141.74 221.719 141.145C221.719 140.549 221.296 139.828 220.779 139.53C220.258 139.232 219.839 139.474 219.843 140.069Z" fill="#0083B7"/>
<path d="M213.152 128.937C213.152 129.533 213.575 130.254 214.092 130.552C214.609 130.85 215.028 130.608 215.028 130.013C215.028 129.417 214.606 128.696 214.089 128.398C213.571 128.1 213.152 128.342 213.152 128.937Z" fill="#0083B7"/>
<path opacity="0.8" d="M216.485 127.193C216.485 127.789 216.908 128.51 217.425 128.808C217.942 129.106 218.361 128.864 218.361 128.269C218.361 127.673 217.939 126.952 217.421 126.654C216.904 126.356 216.485 126.598 216.485 127.193Z" fill="#0083B7"/>
<path d="M213.159 132.59C213.159 133.186 213.582 133.907 214.099 134.205C214.616 134.503 215.035 134.261 215.035 133.666C215.035 133.07 214.613 132.349 214.096 132.051C213.578 131.757 213.159 131.999 213.159 132.59Z" fill="#0083B7"/>
<path opacity="0.5" d="M219.818 125.445C219.818 126.04 220.241 126.762 220.758 127.06C221.275 127.357 221.694 127.116 221.694 126.52C221.694 125.925 221.272 125.203 220.754 124.906C220.233 124.611 219.815 124.853 219.818 125.445Z" fill="#0083B7"/>
<path opacity="0.5" d="M213.149 125.28C213.149 125.876 213.571 126.597 214.089 126.895C214.606 127.193 215.025 126.951 215.025 126.355C215.025 125.76 214.602 125.038 214.085 124.741C213.568 124.443 213.145 124.685 213.149 125.28Z" fill="#0083B7"/>
<path opacity="0.5" d="M219.811 121.792C219.811 122.387 220.234 123.109 220.751 123.407C221.268 123.704 221.687 123.463 221.687 122.867C221.687 122.272 221.265 121.55 220.747 121.252C220.23 120.955 219.811 121.196 219.811 121.792Z" fill="#0083B7"/>
<path d="M216.478 123.536C216.478 124.131 216.901 124.853 217.418 125.151C217.935 125.448 218.354 125.207 218.354 124.611C218.354 124.016 217.932 123.294 217.414 122.997C216.897 122.699 216.478 122.941 216.478 123.536Z" fill="#0083B7"/>
<path opacity="0.2" d="M216.492 130.847C216.492 131.442 216.915 132.164 217.432 132.461C217.949 132.759 218.368 132.517 218.368 131.922C218.368 131.326 217.946 130.605 217.429 130.307C216.911 130.009 216.492 130.251 216.492 130.847Z" fill="#0083B7"/>
<path opacity="0.5" d="M216.503 138.159C216.503 138.755 216.925 139.476 217.443 139.774C217.96 140.071 218.379 139.83 218.379 139.234C218.379 138.639 217.956 137.917 217.439 137.62C216.922 137.322 216.503 137.564 216.503 138.159Z" fill="#0083B7"/>
<path opacity="0.8" d="M219.804 118.135C219.804 118.73 220.226 119.452 220.744 119.749C221.261 120.047 221.68 119.805 221.68 119.21C221.68 118.615 221.258 117.893 220.74 117.595C220.223 117.298 219.804 117.539 219.804 118.135Z" fill="#0083B7"/>
<path d="M219.836 136.412C219.836 137.007 220.258 137.729 220.775 138.027C221.293 138.324 221.712 138.083 221.712 137.487C221.712 136.892 221.289 136.17 220.772 135.872C220.255 135.578 219.836 135.82 219.836 136.412Z" fill="#0083B7"/>
<path opacity="0.5" d="M216.499 134.503C216.499 135.098 216.922 135.82 217.439 136.118C217.956 136.415 218.375 136.174 218.375 135.578C218.375 134.983 217.953 134.261 217.436 133.963C216.915 133.666 216.496 133.907 216.499 134.503Z" fill="#0083B7"/>
<path d="M219.829 132.759C219.829 133.354 220.251 134.076 220.768 134.373C221.286 134.671 221.705 134.429 221.705 133.834C221.705 133.239 221.282 132.517 220.765 132.219C220.248 131.922 219.829 132.163 219.829 132.759Z" fill="#0083B7"/>
<path opacity="0.5" d="M213.167 136.247C213.167 136.842 213.589 137.564 214.106 137.862C214.624 138.159 215.042 137.918 215.042 137.322C215.042 136.727 214.62 136.005 214.103 135.708C213.585 135.41 213.167 135.651 213.167 136.247Z" fill="#0083B7"/>
<path opacity="0.8" d="M219.843 151.698C219.843 152.294 220.265 153.015 220.783 153.313C221.3 153.611 221.719 153.369 221.719 152.773C221.719 152.178 221.296 151.456 220.779 151.159C220.258 150.861 219.839 151.103 219.843 151.698Z" fill="#0083B7"/>
<path d="M213.159 144.223C213.159 144.818 213.582 145.54 214.099 145.837C214.616 146.135 215.035 145.893 215.035 145.298C215.035 144.702 214.613 143.981 214.096 143.683C213.578 143.385 213.159 143.627 213.159 144.223Z" fill="#0083B7"/>
<path opacity="0.2" d="M216.492 142.475C216.492 143.07 216.915 143.792 217.432 144.09C217.949 144.387 218.368 144.146 218.368 143.55C218.368 142.955 217.946 142.233 217.429 141.935C216.911 141.641 216.492 141.879 216.492 142.475Z" fill="#0083B7"/>
<path opacity="0.5" d="M216.503 149.789C216.503 150.384 216.925 151.106 217.443 151.404C217.96 151.701 218.379 151.46 218.379 150.864C218.379 150.269 217.956 149.547 217.439 149.25C216.922 148.952 216.503 149.193 216.503 149.789Z" fill="#0083B7"/>
<path d="M219.836 148.041C219.836 148.636 220.258 149.358 220.775 149.655C221.293 149.953 221.712 149.711 221.712 149.116C221.712 148.521 221.289 147.799 220.772 147.501C220.255 147.207 219.836 147.449 219.836 148.041Z" fill="#0083B7"/>
<path opacity="0.5" d="M216.499 146.132C216.499 146.727 216.922 147.449 217.439 147.746C217.956 148.044 218.375 147.802 218.375 147.207C218.375 146.612 217.953 145.89 217.436 145.592C216.915 145.295 216.496 145.536 216.499 146.132Z" fill="#0083B7"/>
<path d="M213.159 156.339C213.159 156.934 213.582 157.656 214.099 157.953C214.616 158.251 215.035 158.01 215.035 157.414C215.035 156.819 214.613 156.097 214.096 155.799C213.578 155.502 213.159 155.743 213.159 156.339Z" fill="#0083B7"/>
<path opacity="0.5" d="M216.503 161.904C216.503 162.5 216.925 163.221 217.443 163.519C217.96 163.817 218.379 163.575 218.379 162.979C218.379 162.384 217.956 161.662 217.439 161.365C216.922 161.067 216.503 161.309 216.503 161.904Z" fill="#0083B7"/>
<path opacity="0.5" d="M216.499 158.248C216.499 158.843 216.922 159.565 217.439 159.862C217.956 160.16 218.375 159.918 218.375 159.323C218.375 158.728 217.953 158.006 217.436 157.708C216.915 157.414 216.496 157.656 216.499 158.248Z" fill="#0083B7"/>
<path d="M219.829 144.388C219.829 144.983 220.251 145.705 220.768 146.002C221.286 146.3 221.705 146.058 221.705 145.463C221.705 144.867 221.282 144.146 220.765 143.848C220.248 143.55 219.829 143.792 219.829 144.388Z" fill="#0083B7"/>
<path opacity="0.5" d="M213.167 147.877C213.167 148.472 213.589 149.194 214.106 149.492C214.624 149.789 215.042 149.548 215.042 148.952C215.042 148.357 214.62 147.635 214.103 147.337C213.585 147.04 213.167 147.281 213.167 147.877Z" fill="#0083B7"/>
<path d="M219.822 129.101C219.822 129.697 220.244 130.418 220.761 130.716C221.279 131.014 221.698 130.772 221.698 130.177C221.698 129.581 221.275 128.86 220.758 128.562C220.241 128.264 219.822 128.506 219.822 129.101Z" fill="#0083B7"/>
<path opacity="0.8" d="M213.117 107.004C213.117 107.599 213.54 108.321 214.057 108.619C214.574 108.916 214.993 108.675 214.993 108.079C214.993 107.484 214.571 106.762 214.053 106.464C213.536 106.167 213.117 106.408 213.117 107.004Z" fill="#0083B7"/>
<path d="M219.783 103.511C219.783 104.106 220.205 104.828 220.723 105.125C221.24 105.423 221.659 105.181 221.659 104.586C221.659 103.99 221.237 103.269 220.719 102.971C220.198 102.673 219.779 102.915 219.783 103.511Z" fill="#0083B7"/>
<path d="M219.787 107.168C219.787 107.763 220.209 108.485 220.726 108.783C221.244 109.08 221.662 108.839 221.662 108.243C221.662 107.648 221.24 106.926 220.723 106.628C220.205 106.331 219.787 106.572 219.787 107.168Z" fill="#0083B7"/>
<path d="M216.457 108.912C216.457 109.507 216.88 110.229 217.397 110.527C217.914 110.824 218.333 110.583 218.333 109.987C218.333 109.392 217.911 108.67 217.393 108.373C216.872 108.075 216.454 108.317 216.457 108.912Z" fill="#0083B7"/>
<path d="M216.45 105.257C216.45 105.852 216.872 106.574 217.39 106.871C217.907 107.169 218.326 106.927 218.326 106.332C218.326 105.736 217.904 105.015 217.386 104.717C216.869 104.423 216.45 104.665 216.45 105.257Z" fill="#0083B7"/>
<path opacity="0.8" d="M213.124 110.657C213.124 111.252 213.547 111.974 214.064 112.272C214.581 112.569 215 112.328 215 111.732C215 111.137 214.578 110.415 214.06 110.117C213.543 109.823 213.124 110.065 213.124 110.657Z" fill="#0083B7"/>
<path d="M213.107 99.6901C213.107 100.286 213.529 101.007 214.046 101.305C214.564 101.603 214.983 101.361 214.983 100.765C214.983 100.17 214.56 99.4484 214.043 99.1507C213.525 98.8565 213.107 99.0981 213.107 99.6901Z" fill="#0083B7"/>
<path opacity="0.2" d="M216.443 101.602C216.443 102.198 216.865 102.919 217.383 103.217C217.9 103.515 218.319 103.273 218.319 102.678C218.319 102.082 217.897 101.361 217.379 101.063C216.862 100.765 216.443 101.007 216.443 101.602Z" fill="#0083B7"/>
<path d="M213.114 103.347C213.114 103.942 213.536 104.664 214.053 104.961C214.571 105.259 214.99 105.017 214.99 104.422C214.99 103.826 214.567 103.105 214.05 102.807C213.529 102.509 213.11 102.751 213.114 103.347Z" fill="#0083B7"/>
<path opacity="0.5" d="M213.131 114.313C213.131 114.909 213.554 115.63 214.071 115.928C214.588 116.226 215.007 115.984 215.007 115.389C215.007 114.793 214.585 114.072 214.067 113.774C213.547 113.476 213.128 113.718 213.131 114.313Z" fill="#0083B7"/>
<path d="M219.801 114.478C219.801 115.074 220.223 115.795 220.74 116.093C221.258 116.391 221.676 116.149 221.676 115.553C221.676 114.958 221.254 114.236 220.737 113.939C220.216 113.645 219.797 113.886 219.801 114.478Z" fill="#0083B7"/>
<path d="M216.468 116.222C216.468 116.818 216.89 117.539 217.407 117.837C217.925 118.135 218.344 117.893 218.344 117.298C218.344 116.702 217.921 115.981 217.404 115.683C216.887 115.389 216.468 115.63 216.468 116.222Z" fill="#0083B7"/>
<path d="M216.475 119.88C216.475 120.475 216.897 121.197 217.414 121.495C217.932 121.792 218.351 121.551 218.351 120.955C218.351 120.36 217.928 119.638 217.411 119.34C216.89 119.043 216.471 119.284 216.475 119.88Z" fill="#0083B7"/>
<path d="M213.142 121.624C213.142 122.219 213.564 122.941 214.082 123.238C214.599 123.536 215.018 123.294 215.018 122.699C215.018 122.104 214.595 121.382 214.078 121.084C213.561 120.79 213.142 121.032 213.142 121.624Z" fill="#0083B7"/>
<path d="M216.461 112.569C216.461 113.165 216.883 113.886 217.4 114.184C217.918 114.482 218.337 114.24 218.337 113.645C218.337 113.049 217.914 112.328 217.397 112.03C216.879 111.732 216.461 111.974 216.461 112.569Z" fill="#0083B7"/>
<path d="M213.135 117.971C213.135 118.566 213.557 119.288 214.075 119.585C214.592 119.883 215.011 119.641 215.011 119.046C215.011 118.45 214.588 117.729 214.071 117.431C213.554 117.133 213.135 117.375 213.135 117.971Z" fill="#0083B7"/>
<path d="M219.794 110.825C219.794 111.421 220.216 112.142 220.733 112.44C221.251 112.738 221.669 112.496 221.669 111.9C221.669 111.305 221.247 110.583 220.73 110.286C220.212 109.988 219.794 110.23 219.794 110.825Z" fill="#0083B7"/>
<path opacity="0.8" d="M124.653 72.7314C124.653 72.136 124.231 71.4144 123.713 71.1167C123.196 70.819 122.777 71.0607 122.777 71.6561C122.777 72.2516 123.2 72.9731 123.717 73.2708C124.238 73.5686 124.657 73.3269 124.653 72.7314Z" fill="#0083B7"/>
<path d="M131.344 83.8662C131.344 83.2707 130.921 82.5492 130.404 82.2515C129.887 81.9538 129.468 82.1954 129.468 82.7909C129.468 83.3863 129.89 84.1079 130.407 84.4056C130.925 84.6998 131.344 84.4581 131.344 83.8662Z" fill="#0083B7"/>
<path opacity="0.8" d="M128.011 85.6103C128.011 85.0149 127.588 84.2933 127.071 83.9956C126.554 83.6979 126.135 83.9396 126.135 84.535C126.135 85.1305 126.557 85.852 127.075 86.1498C127.592 86.4475 128.011 86.2058 128.011 85.6103Z" fill="#0083B7"/>
<path d="M131.337 80.209C131.337 79.6135 130.914 78.892 130.397 78.5943C129.879 78.2965 129.461 78.5382 129.461 79.1337C129.461 79.7291 129.883 80.4507 130.4 80.7484C130.918 81.0461 131.337 80.8044 131.337 80.209Z" fill="#0083B7"/>
<path opacity="0.5" d="M124.678 87.3545C124.678 86.759 124.255 86.0375 123.738 85.7398C123.221 85.442 122.802 85.6837 122.802 86.2792C122.802 86.8746 123.224 87.5962 123.742 87.8939C124.262 88.1916 124.681 87.9499 124.678 87.3545Z" fill="#0083B7"/>
<path opacity="0.5" d="M131.347 87.5195C131.347 86.9241 130.925 86.2025 130.407 85.9048C129.89 85.6071 129.471 85.8488 129.471 86.4442C129.471 87.0397 129.894 87.7612 130.411 88.0589C130.928 88.3567 131.351 88.115 131.347 87.5195Z" fill="#0083B7"/>
<path opacity="0.5" d="M124.685 91.0107C124.685 90.4153 124.263 89.6937 123.745 89.396C123.228 89.0983 122.809 89.34 122.809 89.9354C122.809 90.5309 123.231 91.2524 123.749 91.5501C124.266 91.8479 124.685 91.6062 124.685 91.0107Z" fill="#0083B7"/>
<path d="M128.018 89.2676C128.018 88.6721 127.595 87.9506 127.078 87.6528C126.561 87.3551 126.142 87.5968 126.142 88.1923C126.142 88.7877 126.564 89.5093 127.082 89.807C127.599 90.1012 128.018 89.8595 128.018 89.2676Z" fill="#0083B7"/>
<path opacity="0.2" d="M128.004 81.9531C128.004 81.3577 127.581 80.6361 127.064 80.3384C126.547 80.0407 126.128 80.2823 126.128 80.8778C126.128 81.4733 126.55 82.1948 127.067 82.4925C127.585 82.7903 128.007 82.5486 128.004 81.9531Z" fill="#0083B7"/>
<path opacity="0.5" d="M127.993 74.6435C127.993 74.0481 127.571 73.3265 127.053 73.0288C126.536 72.7311 126.117 72.9728 126.117 73.5682C126.117 74.1637 126.54 74.8852 127.057 75.183C127.574 75.4807 127.993 75.239 127.993 74.6435Z" fill="#0083B7"/>
<path opacity="0.8" d="M124.692 94.668C124.692 94.0725 124.27 93.351 123.752 93.0532C123.235 92.7555 122.816 92.9972 122.816 93.5927C122.816 94.1881 123.238 94.9097 123.756 95.2074C124.273 95.5016 124.692 95.2599 124.692 94.668Z" fill="#0083B7"/>
<path d="M124.66 76.3877C124.66 75.7922 124.238 75.0707 123.721 74.773C123.203 74.4752 122.784 74.7169 122.784 75.3124C122.784 75.9078 123.207 76.6294 123.724 76.9271C124.241 77.2248 124.66 76.9831 124.66 76.3877Z" fill="#0083B7"/>
<path opacity="0.5" d="M128 78.2998C128 77.7044 127.578 76.9828 127.06 76.6851C126.543 76.3873 126.124 76.629 126.124 77.2245C126.124 77.8199 126.547 78.5415 127.064 78.8392C127.581 79.1334 128 78.8918 128 78.2998Z" fill="#0083B7"/>
<path d="M124.667 80.0449C124.667 79.4495 124.245 78.7279 123.728 78.4302C123.21 78.1325 122.791 78.3742 122.791 78.9696C122.791 79.5651 123.214 80.2866 123.731 80.5843C124.248 80.8821 124.667 80.6404 124.667 80.0449Z" fill="#0083B7"/>
<path opacity="0.5" d="M131.329 76.5527C131.329 75.9573 130.907 75.2357 130.39 74.938C129.872 74.6403 129.454 74.882 129.454 75.4774C129.454 76.0729 129.876 76.7944 130.393 77.0921C130.911 77.3899 131.329 77.1482 131.329 76.5527Z" fill="#0083B7"/>
<path opacity="0.8" d="M124.653 61.1025C124.653 60.5071 124.231 59.7855 123.713 59.4878C123.196 59.1901 122.777 59.4318 122.777 60.0272C122.777 60.6227 123.2 61.3442 123.717 61.6419C124.238 61.9397 124.657 61.698 124.653 61.1025Z" fill="#0083B7"/>
<path d="M131.337 68.5801C131.337 67.9846 130.914 67.2631 130.397 66.9653C129.879 66.6676 129.461 66.9093 129.461 67.5048C129.461 68.1002 129.883 68.8217 130.4 69.1195C130.918 69.4172 131.337 69.1755 131.337 68.5801Z" fill="#0083B7"/>
<path opacity="0.2" d="M128.004 70.3252C128.004 69.7297 127.581 69.0082 127.064 68.7105C126.547 68.4127 126.128 68.6544 126.128 69.2499C126.128 69.8453 126.55 70.5669 127.067 70.8646C127.585 71.1623 128.007 70.9206 128.004 70.3252Z" fill="#0083B7"/>
<path opacity="0.5" d="M127.993 63.0146C127.993 62.4192 127.571 61.6976 127.053 61.3999C126.536 61.1022 126.117 61.3439 126.117 61.9393C126.117 62.5348 126.54 63.2563 127.057 63.5541C127.574 63.8518 127.993 63.6101 127.993 63.0146Z" fill="#0083B7"/>
<path d="M124.66 64.7588C124.66 64.1633 124.238 63.4418 123.721 63.1441C123.203 62.8463 122.784 63.088 122.784 63.6835C122.784 64.2789 123.207 65.0005 123.724 65.2982C124.241 65.5959 124.66 65.3542 124.66 64.7588Z" fill="#0083B7"/>
<path opacity="0.5" d="M128 66.6719C128 66.0764 127.578 65.3549 127.06 65.0571C126.543 64.7594 126.124 65.0011 126.124 65.5966C126.124 66.192 126.547 66.9136 127.064 67.2113C127.581 67.5055 128 67.2638 128 66.6719Z" fill="#0083B7"/>
<path d="M131.337 56.4648C131.337 55.8694 130.914 55.1478 130.397 54.8501C129.879 54.5524 129.461 54.7941 129.461 55.3895C129.461 55.985 129.883 56.7065 130.4 57.0042C130.918 57.2985 131.337 57.0568 131.337 56.4648Z" fill="#0083B7"/>
<path opacity="0.5" d="M127.993 50.8955C127.993 50.3001 127.571 49.5785 127.053 49.2808C126.536 48.9831 126.117 49.2247 126.117 49.8202C126.117 50.4156 126.54 51.1372 127.057 51.4349C127.574 51.7326 127.993 51.491 127.993 50.8955Z" fill="#0083B7"/>
<path opacity="0.5" d="M128 54.5517C128 53.9563 127.578 53.2348 127.06 52.937C126.543 52.6393 126.124 52.881 126.124 53.4764C126.124 54.0719 126.547 54.7934 127.064 55.0912C127.581 55.3889 128 55.1472 128 54.5517Z" fill="#0083B7"/>
<path d="M124.667 68.416C124.667 67.8206 124.245 67.099 123.728 66.8013C123.21 66.5036 122.791 66.7452 122.791 67.3407C122.791 67.9361 123.214 68.6577 123.731 68.9554C124.248 69.2531 124.667 69.0115 124.667 68.416Z" fill="#0083B7"/>
<path opacity="0.5" d="M131.329 64.9238C131.329 64.3284 130.907 63.6068 130.39 63.3091C129.872 63.0114 129.454 63.2531 129.454 63.8485C129.454 64.444 129.876 65.1655 130.393 65.4632C130.911 65.761 131.329 65.5193 131.329 64.9238Z" fill="#0083B7"/>
<path d="M124.674 83.7012C124.674 83.1057 124.252 82.3842 123.735 82.0864C123.217 81.7887 122.798 82.0304 122.798 82.6259C122.798 83.2213 123.221 83.9429 123.738 84.2406C124.255 84.5348 124.674 84.2931 124.674 83.7012Z" fill="#0083B7"/>
<path opacity="0.8" d="M131.379 105.8C131.379 105.204 130.956 104.483 130.439 104.185C129.922 103.887 129.503 104.129 129.503 104.724C129.503 105.32 129.925 106.041 130.443 106.339C130.96 106.637 131.379 106.395 131.379 105.8Z" fill="#0083B7"/>
<path d="M124.717 109.288C124.717 108.693 124.294 107.971 123.777 107.673C123.259 107.376 122.841 107.617 122.841 108.213C122.841 108.808 123.263 109.53 123.78 109.827C124.298 110.125 124.717 109.884 124.717 109.288Z" fill="#0083B7"/>
<path d="M124.709 105.635C124.709 105.039 124.287 104.318 123.77 104.02C123.252 103.722 122.834 103.964 122.834 104.559C122.834 105.155 123.256 105.876 123.773 106.174C124.291 106.468 124.709 106.227 124.709 105.635Z" fill="#0083B7"/>
<path d="M128.039 103.887C128.039 103.291 127.617 102.57 127.099 102.272C126.582 101.974 126.163 102.216 126.163 102.811C126.163 103.407 126.585 104.128 127.103 104.426C127.624 104.724 128.042 104.482 128.039 103.887Z" fill="#0083B7"/>
<path d="M128.046 107.544C128.046 106.948 127.624 106.227 127.106 105.929C126.589 105.631 126.17 105.873 126.17 106.469C126.17 107.064 126.592 107.786 127.11 108.083C127.627 108.381 128.049 108.139 128.046 107.544Z" fill="#0083B7"/>
<path opacity="0.8" d="M131.372 102.144C131.372 101.548 130.949 100.827 130.432 100.529C129.915 100.231 129.496 100.473 129.496 101.068C129.496 101.664 129.918 102.385 130.436 102.683C130.953 102.981 131.372 102.739 131.372 102.144Z" fill="#0083B7"/>
<path d="M131.389 113.109C131.389 112.514 130.967 111.792 130.45 111.495C129.932 111.197 129.513 111.439 129.513 112.034C129.513 112.63 129.936 113.351 130.453 113.649C130.971 113.947 131.389 113.705 131.389 113.109Z" fill="#0083B7"/>
<path opacity="0.2" d="M128.053 111.201C128.053 110.606 127.631 109.884 127.113 109.586C126.596 109.289 126.177 109.53 126.177 110.126C126.177 110.721 126.599 111.443 127.117 111.741C127.634 112.038 128.053 111.793 128.053 111.201Z" fill="#0083B7"/>
<path d="M131.386 109.456C131.386 108.861 130.963 108.139 130.446 107.841C129.929 107.544 129.51 107.785 129.51 108.381C129.51 108.976 129.932 109.698 130.45 109.995C130.967 110.29 131.386 110.048 131.386 109.456Z" fill="#0083B7"/>
<path opacity="0.5" d="M131.365 98.4863C131.365 97.8909 130.942 97.1693 130.425 96.8716C129.908 96.5739 129.489 96.8156 129.489 97.411C129.489 98.0065 129.911 98.728 130.429 99.0257C130.949 99.3235 131.368 99.0818 131.365 98.4863Z" fill="#0083B7"/>
<path d="M124.695 98.3213C124.695 97.7258 124.273 97.0043 123.756 96.7066C123.238 96.4088 122.82 96.6505 122.82 97.246C122.82 97.8414 123.242 98.563 123.759 98.8607C124.28 99.1584 124.699 98.9167 124.695 98.3213Z" fill="#0083B7"/>
<path d="M128.028 96.5771C128.028 95.9817 127.606 95.2601 127.089 94.9624C126.571 94.6647 126.152 94.9064 126.152 95.5018C126.152 96.0973 126.575 96.8188 127.092 97.1165C127.609 97.4143 128.028 97.1726 128.028 96.5771Z" fill="#0083B7"/>
<path d="M128.021 92.9199C128.021 92.3245 127.599 91.6029 127.082 91.3052C126.564 91.0075 126.145 91.2491 126.145 91.8446C126.145 92.44 126.568 93.1616 127.085 93.4593C127.606 93.757 128.025 93.5154 128.021 92.9199Z" fill="#0083B7"/>
<path d="M131.354 91.1758C131.354 90.5803 130.932 89.8588 130.414 89.561C129.897 89.2633 129.478 89.505 129.478 90.1005C129.478 90.6959 129.901 91.4175 130.418 91.7152C130.935 92.0129 131.354 91.7712 131.354 91.1758Z" fill="#0083B7"/>
<path d="M128.035 100.233C128.035 99.6379 127.613 98.9164 127.096 98.6187C126.578 98.3209 126.159 98.5626 126.159 99.1581C126.159 99.7535 126.582 100.475 127.099 100.773C127.617 101.071 128.035 100.825 128.035 100.233Z" fill="#0083B7"/>
<path d="M131.361 94.832C131.361 94.2366 130.939 93.515 130.421 93.2173C129.904 92.9196 129.485 93.1613 129.485 93.7567C129.485 94.3522 129.908 95.0737 130.425 95.3714C130.942 95.6692 131.361 95.4275 131.361 94.832Z" fill="#0083B7"/>
<path d="M124.702 101.979C124.702 101.383 124.28 100.662 123.763 100.364C123.245 100.066 122.827 100.308 122.827 100.903C122.827 101.499 123.249 102.22 123.766 102.518C124.284 102.816 124.702 102.574 124.702 101.979Z" fill="#0083B7"/>
<path opacity="0.08" d="M63 216.819C63 222.994 75.413 228 90.726 228C106.039 228 118.452 222.994 118.452 216.819C118.452 210.644 106.039 205.639 90.726 205.639C75.413 205.642 63 210.647 63 216.819Z" fill="#2C788F"/>
<path d="M105.314 212.511C104.533 212.739 103.772 213.082 103.09 213.516C101.531 214.508 100.556 213.516 100.556 213.516L95.1182 213.846C94.4741 214.616 94.7099 220.508 94.7099 220.508C96.1001 221.184 97.9443 221.156 99.4436 221.016C102.935 220.697 106.102 218.949 108.728 216.62C108.911 216.455 109.08 216.276 109.235 216.091C108.833 211.958 106.004 212.35 105.314 212.511Z" fill="#5A74B7"/>
<path d="M109.059 215.281C106.306 217.723 102.984 219.558 99.3204 219.891C97.8634 220.024 96.0966 220.052 94.6818 219.491C94.6924 220.101 94.71 220.511 94.71 220.511C96.1001 221.187 97.9443 221.159 99.4436 221.019C102.935 220.7 106.102 218.952 108.728 216.623C108.911 216.458 109.08 216.28 109.235 216.094C109.203 215.782 109.157 215.502 109.101 215.239C109.083 215.253 109.073 215.267 109.059 215.281Z" fill="#59559D"/>
<path d="M84.8345 213.145C84.0356 213.302 83.2507 213.576 82.5292 213.95C80.8892 214.798 80.0058 213.726 80.0058 213.726L74.5613 213.572C73.8504 214.283 73.5583 220.171 73.5583 220.171C74.8816 220.966 76.7222 221.103 78.2285 221.099C81.7339 221.089 85.0456 219.632 87.8682 217.544C88.0653 217.397 88.2483 217.236 88.4208 217.064C88.3856 212.907 85.5383 213.047 84.8345 213.145Z" fill="#5A74B7"/>
<path d="M88.3152 216.233C85.3553 218.422 81.8817 219.953 78.2004 219.964C76.7363 219.967 74.9731 219.837 73.6146 219.154C73.5723 219.764 73.5512 220.17 73.5512 220.17C74.8745 220.965 76.7152 221.102 78.2215 221.098C81.7268 221.088 85.0386 219.631 87.8612 217.543C88.0582 217.396 88.2413 217.235 88.4137 217.063C88.4102 216.748 88.3891 216.468 88.3574 216.198C88.3433 216.209 88.3328 216.223 88.3152 216.233Z" fill="#59559D"/>
<path d="M121.957 128.286L123.893 133.76C128.37 133.858 129.524 133.358 131.657 132.135C133.793 130.909 134.462 130.3 134.427 128.125C134.391 125.949 132.199 126.153 132.199 126.153C128.669 127.83 126.325 127.834 126.325 127.834C126.325 127.834 126.35 126.846 128 126.037C129.651 125.231 128.764 124.363 128.764 124.363C128.764 124.363 128.095 123.956 126.145 125.119C124.206 126.279 121.961 128.282 121.957 128.286Z" fill="#F9B9A8"/>
<path d="M72.9494 117.533L75.5115 104.611L80.224 110.503L77.771 118.895L72.9494 117.533Z" fill="#4E5EA6"/>
<path d="M72.8297 115.043C72.8297 115.043 63.1408 118.798 73.7096 132.91L72.8297 115.043Z" fill="#4E5EA6"/>
<path d="M94.9246 157.28L105.159 182.513L102.974 213.789C102.974 213.789 98.166 216.545 94.0237 214.5L95.4033 184.202L80.6464 161.102L94.9246 157.28Z" fill="#4E5EA6"/>
<path d="M83.49 160.343L84.1024 185.184L82.6419 214.329C82.6419 214.329 76.768 215.751 73.4879 213.972L74.2657 184.651L72.4532 157.996L83.49 160.343Z" fill="#4E5EA6"/>
<path d="M97.7367 157.926C97.7648 156.237 96.2515 141.81 96.2515 141.81C96.0121 130.468 94.9141 116.622 94.9141 116.622L86.4499 114.479L77.9399 113.48L74.2973 114.524C72.7066 114.692 71.4466 115.862 71.2284 117.368C70.9187 119.509 70.7779 121.663 70.8342 123.824C70.8976 126.153 71.6859 128.5 72.0132 130.819C73.2943 139.82 71.8549 148.602 71.2002 157.582C71.2002 157.582 71.151 158.269 72.0555 158.917C78.9922 164.434 96.5576 160.913 96.5576 160.913C98.1484 160.689 97.712 159.25 97.7367 157.926Z" fill="#415393"/>
<path d="M77.8731 95.5637C79.9706 95.1398 82.8495 94.9507 84.9189 95.4341C88.4032 96.2432 90.3811 98.2467 91.363 101.305C92.3519 104.387 92.8552 109.578 91.1166 112.562C90.0291 114.429 87.3931 114.205 85.4996 113.816C83.212 113.347 80.2064 112.552 78.2883 111.305C75.6136 109.567 74.0439 105.567 73.7448 102.643C73.4843 100.114 74.6704 96.2081 77.8731 95.5637Z" fill="#F9B9A8"/>
<path d="M77.778 110.023C78.0596 110.332 78.3517 110.612 78.6614 110.854C80.5056 112.283 83.3845 113.211 85.5735 113.761C85.922 113.848 86.3021 113.922 86.6857 113.981L86.4499 114.482C84.1904 115.295 82.0788 116.027 80.4669 115.603C79.2667 115.284 78.0033 114.777 77.9364 113.375L77.771 110.027L77.778 110.023Z" fill="#F6A3A8"/>
<path d="M122.225 127.466L106.901 132.573L94.9176 116.622C87.1502 120.016 94.9176 130.755 94.9176 130.755L103.072 140.377C103.91 141.368 105.293 141.708 106.5 141.225L124.614 133.971C125.596 130.615 122.225 127.466 122.225 127.466Z" fill="#4E5EA6"/>
<path d="M91.9718 93.1016C91.9718 93.1016 91.8275 93.9282 91.4017 94.8739C91.1201 94.7408 90.8069 94.6182 90.4514 94.5026C88.5334 93.8792 86.5379 93.4028 84.5072 93.4133C82.0788 93.4308 78.8655 93.8441 76.8278 95.1471C74.2762 96.7829 73.0726 100.002 73.3928 103.098C73.6955 106.023 75.6136 109.564 78.2883 111.301C79.7665 112.261 79.8334 112.373 81.7761 112.857C91.919 111.217 86.1014 102.468 86.1014 102.468C86.9813 101.918 88.7023 101.158 91.363 101.305C91.363 101.305 96.5084 98.6182 91.9718 93.1016Z" fill="#B74E52"/>
</svg>
