<svg width="300" height="240" viewBox="0 0 300 240" fill="none" xmlns="http://www.w3.org/2000/svg">
<path d="M147.934 172.194V186.893L39.2727 124.173V109.571L147.934 172.194Z" fill="#C9DAFC"/>
<path d="M39.2727 109.572L147.934 172.195L258.091 108.794L149.53 46.1152L39.2727 109.572Z" fill="white"/>
<path d="M147.934 172.194V186.893L258.091 123.49V108.794L147.934 172.194Z" fill="#B8BCFC"/>
<path d="M149.389 55.9121L57.4841 108.807L148.059 161.005L239.88 108.157L149.389 55.9121Z" fill="#ADD036"/>
<path d="M149.389 58.9936L237.208 109.693L239.88 108.157L149.389 55.9121L57.4841 108.807L60.1591 110.349L149.389 58.9936Z" fill="#B8BCFC"/>
<path d="M189.438 97.1242L214.651 82.4473V100.109L189.438 114.748V97.1242Z" fill="#B8BCFC"/>
<path d="M184.122 64.7012L214.651 82.4472L189.441 97.1273L158.875 79.3563L184.122 64.7012Z" fill="#FCD9BB"/>
<path d="M168.026 84.6826L189.441 97.1273L189.438 114.748L168.026 102.347V84.6826Z" fill="#C9DAFC"/>
<path d="M168.079 67.0621L193.064 52.5068V56.5812L168.079 71.0958V67.0621Z" fill="#B8BCFC"/>
<path d="M159.435 33L193.067 52.51L168.082 67.0621L134.378 47.4959L159.435 33Z" fill="white"/>
<path d="M134.378 47.4951L168.082 67.0613L168.079 84.6856L134.378 65.1568V47.4951Z" fill="#B8BCFC"/>
<path d="M187.986 72.1447V59.5283L172.024 68.7541V81.3955L187.986 72.1447Z" fill="#524556"/>
<path opacity="0.46" d="M175.331 88.9476V84.3145L189.441 92.4944V97.1275L175.331 88.9476Z" fill="#26A9E0"/>
<path opacity="0.46" d="M187.986 66.9447V62.3115L214.651 77.8159V82.4491L200.541 74.2692L187.986 66.9447Z" fill="#26A9E0"/>
<path d="M189.438 110.751L206.554 100.819L207.392 101.306L189.438 111.731V110.751Z" fill="#F1F1F2"/>
<path d="M206.554 100.819V90.3877L189.438 100.294V110.75L206.554 100.819Z" fill="#524556"/>
<path d="M207.392 89.9033V101.305L206.554 100.818V90.3872L207.392 89.9033Z" fill="#C9DAFC"/>
<path d="M189.438 110.748L183.174 107.146L182.336 107.629L189.438 111.729V110.748Z" fill="#F1F1F2"/>
<path d="M183.174 107.147V96.7314L189.438 100.294V110.75L183.174 107.147Z" fill="#5F5363"/>
<path d="M182.336 96.2471V107.63L183.174 107.146V96.731L182.336 96.2471Z" fill="#B8BCFC"/>
<path d="M183.334 62.2197V75.1483L183.065 74.9922V62.3758L183.334 62.2197Z" fill="#B8BCFC"/>
<path d="M183.334 75.1427L183.622 74.9772V62.0518L183.334 62.2172V75.1427Z" fill="#C9DAFC"/>
<path d="M178.607 64.9512V77.8798L178.338 77.7237V65.1073L178.607 64.9512Z" fill="#B8BCFC"/>
<path d="M178.607 77.8742L178.894 77.7087V64.7832L178.607 64.9487V77.8742Z" fill="#C9DAFC"/>
<path d="M169.556 69.2564L128.237 45.082V85.7848L169.556 109.944V69.2564Z" fill="#4E5EA6"/>
<path d="M133.999 41.7354L128.237 45.0822L169.552 69.2598L175.331 65.9035L133.999 41.7354Z" fill="#5E71B5"/>
<path d="M175.331 65.9033L169.552 69.2596L169.556 109.944L175.331 106.606V65.9033Z" fill="#415393"/>
<path d="M106.709 95.9108L156.05 67.1719V102.055L106.709 130.716V95.9108Z" fill="#B8BCFC"/>
<path d="M128.224 51.0146L156.056 67.1778L106.712 95.9167L78.8146 79.7161L128.224 51.0146Z" fill="white"/>
<path d="M78.8146 79.7129L106.712 95.9166L106.709 130.715L78.8146 114.596V79.7129Z" fill="#C9DAFC"/>
<path d="M106.709 129.737L121.861 120.942L122.699 121.426L106.709 130.715V129.737Z" fill="#F1F1F2"/>
<path d="M121.861 120.943V108.477L106.709 117.247V129.738L121.861 120.943Z" fill="#524556"/>
<path d="M122.699 107.992V121.427L121.861 120.943V108.476L122.699 107.992Z" fill="#C9DAFC"/>
<path d="M106.709 129.738L84.0738 116.666L83.2322 117.15L106.709 130.715V129.738Z" fill="#F1F1F2"/>
<path d="M84.0739 116.667V104.216L106.709 117.247V129.739L84.0739 116.667Z" fill="#5F5363"/>
<path d="M83.2322 103.731V117.15L84.0738 116.666V104.215L83.2322 103.731Z" fill="#B8BCFC"/>
<path d="M106.709 112.492L121.861 103.697L122.699 104.181L106.709 113.469V112.492Z" fill="#F1F1F2"/>
<path d="M121.861 103.698V91.2314L106.709 100.001V112.493L121.861 103.698Z" fill="#524556"/>
<path d="M122.699 90.7471V104.181L121.861 103.698V91.231L122.699 90.7471Z" fill="#C9DAFC"/>
<path d="M106.709 112.492L92.7649 104.443L91.9233 104.927L106.709 113.469V112.492Z" fill="#F1F1F2"/>
<path d="M92.7648 104.444V91.9932L106.709 100.001V112.493L92.7648 104.444Z" fill="#5F5363"/>
<path d="M91.9233 91.5088V104.928L92.7649 104.444V91.9927L91.9233 91.5088Z" fill="#B8BCFC"/>
<path d="M141.355 94.4904V110.529L151.685 104.584V88.5459L141.355 94.4904Z" fill="#524556"/>
<path d="M141.355 109.286V110.529L151.685 104.585L150.612 103.973L141.355 109.286Z" fill="#F3EEF3"/>
<path d="M151.685 88.5459V104.587L150.612 103.972V89.1641L151.685 88.5459Z" fill="#C9DAFC"/>
<path d="M152.43 88.1273V103.31L154.423 102.161V86.9814L152.43 88.1273Z" fill="#524556"/>
<path d="M152.43 102.863V103.31L154.423 102.161L154.05 101.945L152.43 102.863Z" fill="#F3EEF3"/>
<path d="M154.423 86.9814V102.161L154.05 101.946V87.1938L154.423 86.9814Z" fill="#C9DAFC"/>
<path d="M138.514 96.1419V111.325L140.51 110.176V94.9961L138.514 96.1419Z" fill="#524556"/>
<path d="M138.514 110.878V111.324L140.51 110.175L140.138 109.96L138.514 110.878Z" fill="#F3EEF3"/>
<path d="M140.51 94.9961V110.176L140.138 109.96V95.2084L140.51 94.9961Z" fill="#E5E2E6"/>
<path d="M131.337 83.7349L141.555 77.7842V116.929L131.337 122.864V83.7349Z" fill="#415393"/>
<path d="M135.792 74.4375L141.555 77.7844L131.34 83.7351L125.562 80.382L135.792 74.4375Z" fill="#5E71B5"/>
<path d="M125.562 80.3818L131.34 83.735L131.337 122.864L125.562 119.527V80.3818Z" fill="#4E5EA6"/>
<path opacity="0.46" d="M189.441 92.4955L214.651 77.8154V82.4486L189.441 97.1287V92.4955Z" fill="#26A9E0"/>
<path d="M131.653 56.3686L114.962 66.0908L111.045 63.743L127.733 54.1113L131.653 56.3686Z" fill="#9CA9AF"/>
<path d="M127.733 54.1113V54.6671L111.536 64.0365L111.045 63.743L127.733 54.1113Z" fill="#C9DAFC"/>
<path d="M127.733 54.667L131.14 56.6651L119.439 63.4901L115.976 61.4763L127.733 54.667Z" fill="#F6D9B7"/>
<path d="M119.439 63.4903L118.907 63.7994L115.976 62.0947V61.4766L119.439 63.4903Z" fill="#E2BCA5"/>
<path d="M123.588 65.5409L135.676 72.5001L141.711 69.0283L129.623 62.0723L123.588 65.5409Z" fill="#0099CE"/>
<path d="M141.711 69.0283V69.4342L135.676 72.9028V72.5001L141.711 69.0283Z" fill="#B8BCFC"/>
<path d="M123.588 65.9469V65.541L135.676 72.5002V72.9029L123.588 65.9469Z" fill="#C9DAFC"/>
<path d="M129.623 62.0723L123.588 65.5409L135.676 72.497L141.711 69.0283L129.623 62.0723ZM123.944 65.5409L129.623 62.2752L141.355 69.0252L135.676 72.2909L123.944 65.5409Z" fill="white"/>
<path d="M128.318 62.9121L140.307 69.8213L140.135 69.9181L128.162 63.0027L128.318 62.9121Z" fill="white"/>
<path d="M126.901 63.6836L138.889 70.5928L138.717 70.6896L126.741 63.7741L126.901 63.6836Z" fill="white"/>
<path d="M131.331 63.0771L125.355 66.5208L125.44 66.5708L131.409 63.124L131.331 63.0771Z" fill="white"/>
<path d="M132.976 64.0234L127.001 67.4671L127.088 67.5171L133.055 64.0703L132.976 64.0234Z" fill="white"/>
<path d="M134.622 64.9736L128.65 68.4142L128.734 68.4641L134.7 65.0173L134.622 64.9736Z" fill="white"/>
<path d="M136.271 65.9189L130.295 69.3626L130.38 69.4094L136.349 65.9658L136.271 65.9189Z" fill="white"/>
<path d="M137.916 66.8643L131.941 70.3079L132.029 70.3579L137.995 66.9111L137.916 66.8643Z" fill="white"/>
<path d="M139.562 67.8135L133.59 71.254L133.674 71.304L139.64 67.8572L139.562 67.8135Z" fill="white"/>
<path d="M125.302 64.6191L137.291 71.5252L137.119 71.6251L125.143 64.7097L125.302 64.6191Z" fill="white"/>
<path d="M113.992 71.0741L126.081 78.0301L132.113 74.5615L120.027 67.6055L113.992 71.0741Z" fill="#0099CE"/>
<path d="M132.113 74.5615V74.9643L126.081 78.4329V78.0302L132.113 74.5615Z" fill="#B8BCFC"/>
<path d="M113.992 71.477V71.0742L126.081 78.0303V78.433L113.992 71.477Z" fill="#C9DAFC"/>
<path d="M120.027 67.6055L113.992 71.0741L126.081 78.0301L132.116 74.5615L120.027 67.6055ZM114.349 71.0741L120.027 67.8084L131.759 74.5584L126.081 77.8241L114.349 71.0741Z" fill="white"/>
<path d="M118.723 68.4453L130.711 75.3514L130.539 75.4513L118.563 68.5359L118.723 68.4453Z" fill="white"/>
<path d="M117.302 69.2168L129.291 76.1229L129.119 76.2228L117.146 69.3073L117.302 69.2168Z" fill="white"/>
<path d="M121.732 68.6104L115.757 72.0509L115.844 72.1009L121.811 68.6541L121.732 68.6104Z" fill="white"/>
<path d="M123.381 69.5566L117.405 73.0003L117.49 73.0472L123.459 69.6004L123.381 69.5566Z" fill="white"/>
<path d="M125.027 70.502L119.051 73.9456L119.139 73.9956L125.105 70.5488L125.027 70.502Z" fill="white"/>
<path d="M126.672 71.4521L120.697 74.8927L120.784 74.9427L126.75 71.4959L126.672 71.4521Z" fill="white"/>
<path d="M128.321 72.3975L122.345 75.838L122.43 75.888L128.399 72.4412L128.321 72.3975Z" fill="white"/>
<path d="M129.967 73.3438L123.991 76.7874L124.079 76.8374L130.045 73.3906L129.967 73.3438Z" fill="white"/>
<path d="M115.703 70.1494L127.692 77.0586L127.52 77.1585L115.547 70.24L115.703 70.1494Z" fill="white"/>
<path d="M104.394 76.6065L116.483 83.5625L122.518 80.0908L110.429 73.1348L104.394 76.6065Z" fill="#0099CE"/>
<path d="M122.518 80.0908V80.4967L116.483 83.9653V83.5626L122.518 80.0908Z" fill="#B8BCFC"/>
<path d="M104.394 77.0082V76.6055L116.483 83.5615V83.9643L104.394 77.0082Z" fill="#C9DAFC"/>
<path d="M110.429 73.1348L104.394 76.6034L116.483 83.5594L122.518 80.0908L110.429 73.1348ZM104.75 76.6065L110.429 73.3408L122.161 80.0908L116.483 83.3565L104.75 76.6065Z" fill="white"/>
<path d="M109.124 73.9746L121.116 80.8838L120.944 80.9806L108.968 74.0651L109.124 73.9746Z" fill="white"/>
<path d="M107.707 74.7461L119.696 81.6553L119.523 81.7521L107.547 74.8366L107.707 74.7461Z" fill="white"/>
<path d="M112.137 74.1396L106.161 77.5833L106.246 77.6333L112.215 74.1865L112.137 74.1396Z" fill="white"/>
<path d="M113.783 75.0859L107.807 78.5296L107.895 78.5796L113.861 75.1328L113.783 75.0859Z" fill="white"/>
<path d="M115.428 76.0361L109.456 79.4767L109.54 79.5266L115.51 76.0798L115.428 76.0361Z" fill="white"/>
<path d="M117.077 76.9814L111.101 80.4251L111.186 80.4751L117.155 77.0283L117.077 76.9814Z" fill="white"/>
<path d="M118.723 77.9268L112.747 81.3704L112.835 81.4204L118.801 77.9736L118.723 77.9268Z" fill="white"/>
<path d="M120.368 78.876L114.396 82.3165L114.48 82.3665L120.45 78.9197L120.368 78.876Z" fill="white"/>
<path d="M106.108 75.6816L118.097 82.5877L117.925 82.6876L105.949 75.7722L106.108 75.6816Z" fill="white"/>
<path d="M94.7986 82.1356L106.887 89.0917L112.922 85.623L100.834 78.667L94.7986 82.1356Z" fill="#0099CE"/>
<path d="M112.922 85.623V86.0258L106.887 89.4976V89.0917L112.922 85.623Z" fill="#B8BCFC"/>
<path d="M94.7986 82.5385V82.1357L106.887 89.0918V89.4977L94.7986 82.5385Z" fill="#C9DAFC"/>
<path d="M100.834 78.667L94.7986 82.1356L106.887 89.0917L112.922 85.623L100.834 78.667ZM95.1552 82.1356L100.834 78.8699L112.566 85.6199L106.887 88.8856L95.1552 82.1356Z" fill="white"/>
<path d="M99.5289 79.5068L111.518 86.4129L111.346 86.5128L99.3725 79.5974L99.5289 79.5068Z" fill="white"/>
<path d="M98.1086 80.2783L110.1 87.1844L109.928 87.2843L97.9521 80.3689L98.1086 80.2783Z" fill="white"/>
<path d="M102.539 79.6719L96.5662 83.1124L96.6506 83.1624L102.617 79.7156L102.539 79.6719Z" fill="white"/>
<path d="M104.187 80.6182L98.2118 84.0618L98.2963 84.1087L104.266 80.665L104.187 80.6182Z" fill="white"/>
<path d="M105.833 81.5635L99.8575 85.0071L99.9451 85.0571L105.911 81.6103L105.833 81.5635Z" fill="white"/>
<path d="M107.479 82.5137L101.506 85.9542L101.591 86.0042L107.557 82.5574L107.479 82.5137Z" fill="white"/>
<path d="M109.127 83.459L103.152 86.9027L103.236 86.9495L109.206 83.5027L109.127 83.459Z" fill="white"/>
<path d="M110.773 84.4053L104.797 87.8489L104.885 87.8989L110.851 84.4521L110.773 84.4053Z" fill="white"/>
<path d="M96.5099 81.2109L108.499 88.1201L108.327 88.22L96.3535 81.3046L96.5099 81.2109Z" fill="white"/>
<path d="M145.797 91.9385V107.049L145.528 106.893V92.0946L145.797 91.9385Z" fill="#B8BCFC"/>
<path d="M145.797 107.044L146.085 106.878V91.7705L145.797 91.936V107.044Z" fill="#C9DAFC"/>
<path d="M89.0262 107.065V119.844L89.2922 119.688V107.222L89.0262 107.065Z" fill="#B8BCFC"/>
<path d="M89.0263 119.841L88.7385 119.676V106.9L89.0263 107.066V119.841Z" fill="#C9DAFC"/>
<path d="M117.296 111.121V123.9L117.027 123.744V111.274L117.296 111.121Z" fill="#B8BCFC"/>
<path d="M117.296 123.891L117.584 123.726V110.953L117.296 111.119V123.891Z" fill="#C9DAFC"/>
<path opacity="0.3" d="M100.727 96.5651L92.765 104.442V91.9912L100.727 96.5651Z" fill="white"/>
<path opacity="0.15" d="M132.432 140.399L141.686 145.713L150.991 140.355L141.736 135.038L132.432 140.399Z" fill="#7B4196"/>
<path d="M141.705 132.555V141.7L139.468 140.413V131.269L141.705 132.555Z" fill="#74462E"/>
<path d="M141.705 132.554V141.696L143.955 140.4V131.259L141.705 132.554Z" fill="#8A553A"/>
<path d="M141.686 128.499V136.483L132.432 131.169V123.186L141.686 128.499Z" fill="#5EB258"/>
<path d="M132.432 123.186L141.686 128.5L150.991 123.142L141.736 117.825L132.432 123.186Z" fill="#76C059"/>
<path d="M141.686 128.494V136.481L150.991 131.12V123.137L141.686 128.494Z" fill="#4FA050"/>
<path d="M141.686 118.903V126.889L132.432 121.572V113.589L141.686 118.903Z" fill="#5EB258"/>
<path d="M132.432 113.589L141.686 118.903L150.991 113.545L141.736 108.229L132.432 113.589Z" fill="#76C059"/>
<path d="M141.686 118.901V126.884L150.991 121.523V113.54L141.686 118.901Z" fill="#4FA050"/>
<path d="M141.686 109.308V117.291L132.432 111.974V103.991L141.686 109.308Z" fill="#5EB258"/>
<path d="M132.432 103.991L141.686 109.308L150.991 103.948L141.736 98.6338L132.432 103.991Z" fill="#76C059"/>
<path d="M141.686 109.303V117.286L150.991 111.929V103.942L141.686 109.303Z" fill="#4FA050"/>
<path opacity="0.15" d="M213.528 108.267L221.096 112.613L228.704 108.233L221.136 103.887L213.528 108.267Z" fill="#7B4196"/>
<path d="M221.111 101.857V109.331L219.281 108.279V100.805L221.111 101.857Z" fill="#74462E"/>
<path d="M221.111 101.855V109.333L222.951 108.271V100.797L221.111 101.855Z" fill="#8A553A"/>
<path d="M221.096 98.5413V105.07L213.528 100.72V94.1953L221.096 98.5413Z" fill="#5EB258"/>
<path d="M213.528 94.1957L221.096 98.5417L228.704 94.1583L221.136 89.8154L213.528 94.1957Z" fill="#76C059"/>
<path d="M221.096 98.5356V105.064L228.704 100.684V94.1553L221.096 98.5356Z" fill="#4FA050"/>
<path d="M221.096 90.6946V97.2229L213.528 92.8738V86.3486L221.096 90.6946Z" fill="#5EB258"/>
<path d="M213.528 86.3491L221.096 90.695L228.704 86.3116L221.136 81.9688L213.528 86.3491Z" fill="#76C059"/>
<path d="M221.096 90.6889V97.2172L228.704 92.8369V86.3086L221.096 90.6889Z" fill="#4FA050"/>
<path d="M221.096 82.8499V89.3782L213.528 85.0322V78.5039L221.096 82.8499Z" fill="#5EB258"/>
<path d="M213.528 78.5043L221.096 82.8503L228.704 78.4669L221.136 74.124L213.528 78.5043Z" fill="#76C059"/>
<path d="M221.096 82.8442V89.3725L228.704 84.9922V78.4639L221.096 82.8442Z" fill="#4FA050"/>
<path d="M158.878 111.565V112.988L160.533 112.039V110.612L158.878 111.565Z" fill="#D2D2D2"/>
<path d="M160.533 110.613L158.878 111.565L157.217 110.606L158.868 109.657L160.533 110.613Z" fill="#EDECED"/>
<path d="M158.878 111.562V112.989L157.217 112.03V110.606L158.878 111.562Z" fill="#BEC0C0"/>
<path d="M210.537 115.963V117.387L212.192 116.438V115.011L210.537 115.963Z" fill="#D2D2D2"/>
<path d="M212.192 115.011L210.537 115.963L208.875 115.005L210.527 114.056L212.192 115.011Z" fill="#EDECED"/>
<path d="M210.537 115.96V117.387L208.875 116.429V115.005L210.537 115.96Z" fill="#BEC0C0"/>
<path d="M172.027 130.568V131.995L173.682 131.046V129.619L172.027 130.568Z" fill="#D2D2D2"/>
<path d="M173.682 129.62L172.027 130.569L170.366 129.61L172.018 128.661L173.682 129.62Z" fill="#EDECED"/>
<path d="M172.027 130.569V131.992L170.366 131.037V129.61L172.027 130.569Z" fill="#BEC0C0"/>
<path opacity="0.08" d="M176.364 199.798C176.364 205.293 187.379 209.748 200.967 209.748C214.554 209.748 225.57 205.293 225.57 199.798C225.57 194.306 214.554 189.851 200.967 189.851C187.379 189.847 176.364 194.303 176.364 199.798Z" fill="#2C788F"/>
<path d="M228.977 118.869C228.977 118.869 229.966 119.222 228.867 119.687C228.867 119.687 227.829 120.277 227.153 120.783C227.147 120.789 227.044 120.923 227.247 120.936V120.939C228.007 120.636 229.478 120.24 231.511 120.605C231.511 120.605 232.8 120.905 232.653 122.709C232.547 123.992 231.608 124.583 230.638 124.448C229.665 124.314 229.221 124.311 228.167 124.461C227.197 124.598 225.911 125.347 224.91 125.001L224.503 121.389C224.506 121.386 226.512 119.203 228.977 118.869Z" fill="#F9B9A8"/>
<path d="M199.227 199.747C198.32 198.811 194.75 196.953 194.337 196.578C193.924 196.2 194.269 194.577 194.269 194.577L187.799 193.931C186.773 197.231 187.154 200.325 187.154 200.325C190.955 202.036 197.097 203.712 198.602 203.497C200.106 203.285 200.135 200.684 199.227 199.747Z" fill="#5A74B7"/>
<path d="M199.575 202.76C193.123 202.092 188.571 200.103 187.092 199.379C187.11 199.969 187.151 200.328 187.151 200.328C190.952 202.039 197.094 203.716 198.598 203.5C199.055 203.435 199.374 203.15 199.575 202.76Z" fill="#59559D"/>
<path d="M213.847 197.578C212.874 196.71 209.176 195.121 208.738 194.774C208.297 194.427 208.522 192.782 208.522 192.782L202.021 192.61C201.239 195.976 201.846 199.036 201.846 199.036C205.763 200.462 212.011 201.686 213.497 201.362C214.983 201.04 214.82 198.442 213.847 197.578Z" fill="#5A74B7"/>
<path d="M214.413 200.557C207.931 200.363 203.244 198.712 201.718 198.097C201.78 198.684 201.849 199.036 201.849 199.036C205.766 200.463 212.014 201.687 213.5 201.362C213.944 201.266 214.241 200.96 214.413 200.557Z" fill="#59559D"/>
<path d="M223.787 125.511L225.223 125.242C225.223 125.242 225.626 122.947 224.541 121.108L223.045 121.243L223.787 125.511Z" fill="#E4E5E6"/>
<path d="M207.731 107.652C207.731 107.652 209.983 114.824 211.607 122.386L223.333 121.043C223.333 121.043 224.778 122.298 224.369 125.551L207.928 128.845L204.005 113.11L207.731 107.652Z" fill="#485083"/>
<path d="M202.19 104.554L197.238 103.29L194.506 103.621L195.648 105.273L201.392 105.731L202.19 104.554Z" fill="#BBBCBE"/>
<path d="M193.089 105.444C194.591 104.835 194.719 104.364 194.719 104.364C195.135 102.753 195.204 101.282 195.204 101.282L202.049 102.722C201.912 103.234 201.905 104.08 201.955 104.948C201.915 105.528 202.547 105.485 202.547 105.485L203.601 106.228L204.011 109.297L198.658 111.601L194.297 109.331C194.29 109.328 191.591 106.053 193.089 105.444Z" fill="#F6A3A8"/>
<path d="M207.659 139.257C207.659 139.257 209.877 168.339 209.614 192.748C209.614 192.748 206.245 195.152 201.136 193.113C201.136 193.113 200.607 160.359 198.814 147.025L196.693 142.223L197.694 139.207L206.993 137.04L207.659 139.257Z" fill="#485083"/>
<path d="M188.819 138.189C188.819 138.189 188.506 162.732 188.431 166.02C188.353 169.307 186.801 193.663 186.801 193.663C186.801 193.663 189.022 196.632 195.439 195.177L197.303 168.83L198.918 146.067L199.165 141.711L188.819 138.189Z" fill="#485083"/>
<path d="M196.918 140.124C196.918 140.124 201.058 140.877 204.874 139.097L204.336 137.043L196.915 138.026V140.124H196.918Z" fill="#6C4C9E"/>
<path d="M193.89 104.64L194.538 104.989C202.781 111.134 201.996 105.408 201.996 105.408L202.544 105.483L204.07 107.119L205.378 106.853L204.164 137.362C200.016 139.189 196.79 138.458 196.79 138.458L194.506 130.241L192.454 106.856L193.89 104.64Z" fill="#E4E5E6"/>
<path d="M199.543 107.215L201.446 108.695L200.604 110.084L199.002 110.253L197.985 109.154L199.543 107.215Z" fill="#485083"/>
<path d="M200.604 110.085L202.387 130.485L201.486 133.473L198.326 130.432L199.002 110.254L200.604 110.085Z" fill="#485083"/>
<path d="M186.704 108.327C186.704 108.327 187.986 107.431 194.025 104.843C194.025 104.843 198.511 115.817 200.723 125.755L201.214 138.48L197.494 143.856C197.494 143.856 189.294 142.935 188.002 141.933C187.999 141.933 188.609 119.891 186.704 108.327Z" fill="#485083"/>
<path d="M200.357 127.081L200.72 125.754C201.367 115.941 202.027 105.17 202.027 105.17L207.731 107.649C209.157 123.035 208.463 140.865 208.463 140.865C207.171 141.87 203.517 142.935 203.517 142.935L201.808 138.452L200.016 133.191L200.357 127.081Z" fill="#485083"/>
<path d="M194.506 103.621L193.305 104.97L197.901 109.856L199.543 107.215L194.506 103.621Z" fill="#F0F0F0"/>
<path d="M202.19 104.555L202.672 105.401L201.927 109.678L199.543 107.215L202.19 104.555Z" fill="#F0F0F0"/>
<path d="M192.545 99.6066C192.545 99.6066 193.618 104.917 198.924 104.942C205.047 104.97 205.588 97.5897 204.89 94.1241C204.236 90.8834 200.122 87.0151 195.827 89.4504C192.604 91.2768 191.444 94.7361 192.545 99.6066Z" fill="#F9B9A8"/>
<path d="M197.291 142.5L208.848 145.089L212.483 128.916L200.926 126.331L197.291 142.5Z" fill="url(#paint0_linear)"/>
<path d="M195.42 137.574C195.817 134.802 197.194 134.309 197.194 134.309C197.194 134.309 199.158 134.199 200.629 134.39C202.099 134.58 202.284 135.048 202.284 135.048C202.284 135.048 202.39 135.832 201.214 135.579C200.038 135.329 199.628 135.81 199.628 135.81C199.628 135.81 200.838 136.738 203.332 137.3C203.332 137.3 204.546 138.064 203.689 139.16C202.831 140.256 202.24 140.294 200.648 140.059C199.055 139.825 198.261 139.616 195.989 137.799C195.798 137.724 195.611 137.649 195.42 137.574Z" fill="#F9B9A8"/>
<path d="M194.046 137.662L195.385 138.243C195.385 138.243 197.166 136.31 197.447 133.941L196.146 133.194L194.046 137.662Z" fill="#E4E5E6"/>
<path d="M179.336 126.441L183.272 114.299C184.733 109.15 186.707 108.326 186.707 108.326C191.985 110.271 190.514 115.994 190.514 115.994L185.887 126.013L196.637 133.212C196.637 133.212 196.38 135.798 194.353 137.958L180.3 129.085C179.408 128.523 179.011 127.437 179.336 126.441Z" fill="#485083"/>
<path d="M193.074 90.5865C193.083 90.5771 193.092 90.5646 193.105 90.5553C194.619 89.0036 196.746 88.1981 198.911 88.3916C199.437 88.4385 199.96 88.5509 200.473 88.7195C200.695 88.7944 200.911 88.8818 201.123 88.9755C204.23 90.1338 205.732 88.682 205.732 88.682C207.862 91.8946 206.47 94.358 205.622 95.407C205.572 95.4944 205.241 96.0127 205.103 95.9596C205.043 95.9377 202.547 94.9106 197.3 95.9752C197.3 95.9752 196.384 98.398 196.906 100.462C196.906 100.462 195.864 100.574 195.626 100.268C195.626 100.268 195.239 98.6571 195.342 97.5925C195.342 97.5925 193.53 97.1772 194.025 99.5719C194.025 99.5719 194.309 101.061 195.26 101.311L194.403 103.069C193.971 102.834 193.605 102.544 193.512 102.457C192.579 101.573 191.872 100.683 191.415 99.4657C191.052 98.501 190.793 97.4863 190.737 96.456C190.618 94.333 191.606 92.1007 193.074 90.5865Z" fill="#B74E52"/>
<defs>
<linearGradient id="paint0_linear" x1="212.483" y1="135.709" x2="197.29" y2="135.709" gradientUnits="userSpaceOnUse">
<stop stop-color="#CED4E8"/>
<stop offset="1" stop-color="#F0F0F3"/>
</linearGradient>
</defs>
</svg>
