<svg width="120" height="100" viewBox="0 0 120 100" fill="none" xmlns="http://www.w3.org/2000/svg">
<rect width="120" height="100" rx="4.8" fill="#CCCCCC"/>
<g clip-path="url(#clip0)">
<path fill-rule="evenodd" clip-rule="evenodd" d="M11.7783 44.8134L15.0599 41.6351C15.1346 41.5648 15.2253 41.5096 15.3267 41.4845L27.9143 38.01C28.0157 37.9799 28.1277 38.015 28.1918 38.0954L36.4092 48.4033C36.5586 48.5941 36.5213 48.8602 36.3185 49.0008C36.2865 49.0259 36.2491 49.041 36.2065 49.056L34.0987 49.8192C33.9653 49.8694 33.8746 49.995 33.88 50.1305V57.3657C33.88 57.5414 33.7626 57.697 33.5865 57.7573L26.2602 60.2979L21.5111 61.9447C21.303 62.015 21.0736 62.015 20.8655 61.9347L10.551 57.9732C10.3856 57.9079 10.2735 57.7523 10.2735 57.5866V49.6786C10.2735 49.5632 10.1935 49.4577 10.0761 49.4176L8.1391 48.7548C8.02705 48.7146 7.96835 48.5991 8.01104 48.4887L11.7783 44.8134ZM17.0553 42.4184L23.4479 51.7322C23.5546 51.8929 23.7627 51.9632 23.9548 51.9029L34.4027 48.8201C34.6375 48.7498 34.7655 48.5138 34.6908 48.2929C34.6748 48.2527 34.6588 48.2125 34.6321 48.1774L27.8234 39.2502C27.7113 39.1096 27.5192 39.0443 27.3378 39.0895L17.3115 41.7858C17.0767 41.851 16.9433 42.082 17.0073 42.3029C17.018 42.3481 17.034 42.3832 17.0553 42.4184ZM13.8324 57.7874V51.0443C13.8377 51.0192 13.8431 50.9941 13.8537 50.974V50.969C13.8964 50.8636 14.0245 50.8083 14.1365 50.8485L17.7704 52.1138C17.9464 52.174 18.0638 52.3297 18.0638 52.5054V58.9724C18.0638 59.0226 18.0532 59.0678 18.0372 59.113C17.9571 59.3188 17.7117 59.4243 17.4929 59.3489L14.1259 58.1791C13.9498 58.1188 13.8324 57.9632 13.8324 57.7874Z" fill="#FEFEFE"/>
</g>
<path d="M53.1709 42.8889V48.4711H51.8216V42.96H48.8571V57.8045H51.8216V51.3156H53.1709V58.0711H56.1734V42.8889H53.1709ZM43.4412 54.7111V43.2089H40.3057V57.36H44.0303C45.3985 57.36 47.1278 57.2 48.097 56.8267V54.1956C47.1088 54.5334 45.5886 54.7111 44.3154 54.7111H43.4412Z" fill="#FEFEFE"/>
<path d="M73.5408 45.5022V42.8889H70.3292V51.4578H73.5408V48.4178H75.4411V45.5022H73.5408ZM68.5619 43.0667H65.4454V44.5778H61.7777V43.0667H58.6612V50.8889H68.5619V43.0667ZM61.7777 48.4711V46.9245H65.4454V48.4711H61.7777ZM66.3765 51.7067C62.2908 51.7067 59.0603 52.5423 59.0603 54.9778C59.0603 57.4134 62.2908 58.2489 66.3765 58.2489C70.4622 58.2489 73.6928 57.4134 73.6928 54.9778C73.6928 52.5423 70.4622 51.7067 66.3765 51.7067ZM66.3765 55.8845C64.2291 55.8845 62.5189 55.6534 62.5189 54.9778C62.5189 54.32 64.2291 54.0711 66.3765 54.0711C68.5239 54.0711 70.2342 54.32 70.2342 54.9778C70.2342 55.6534 68.5239 55.8845 66.3765 55.8845Z" fill="#FEFEFE"/>
<path d="M92.2763 42.8889H89.0648V58.0711H92.2763V42.8889ZM80.6083 43.1556H77.3018V57.36H84.0099C85.5682 57.36 87.2215 57.0934 88.2096 56.6311V53.8934C87.2215 54.3378 85.5492 54.6223 84.0099 54.6223H80.6083V43.1556Z" fill="#FEFEFE"/>
<path d="M110.1 45.5022V42.8889H106.888V51.4578H110.1V48.4178H112V45.5022H110.1ZM105.121 43.0667H102.004V44.5778H98.3368V43.0667H95.2202V50.8889H105.121V43.0667ZM98.3368 48.4711V46.9245H102.004V48.4711H98.3368ZM102.936 51.7067C98.8498 51.7067 95.6193 52.5423 95.6193 54.9778C95.6193 57.4134 98.8498 58.2489 102.936 58.2489C107.021 58.2489 110.252 57.4134 110.252 54.9778C110.252 52.5423 107.021 51.7067 102.936 51.7067ZM102.936 55.8845C100.788 55.8845 99.0779 55.6534 99.0779 54.9778C99.0779 54.32 100.788 54.0711 102.936 54.0711C105.083 54.0711 106.793 54.32 106.793 54.9778C106.793 55.6534 105.083 55.8845 102.936 55.8845Z" fill="#FEFEFE"/>
<defs>
<clipPath id="clip0">
<rect width="28.5049" height="24" fill="white" transform="translate(8 38)"/>
</clipPath>
</defs>
</svg>
