<svg width="20" height="20" viewBox="0 0 20 20" fill="none" xmlns="http://www.w3.org/2000/svg">
<path d="M15.6 12.2999C15.8917 11.5916 16.05 10.8332 16.05 9.99991C16.05 9.39991 15.9584 8.82491 15.8 8.29158C15.2584 8.41658 14.6917 8.48325 14.1 8.48325C12.8883 8.48455 11.6941 8.19452 10.618 7.6376C9.54184 7.08068 8.61538 6.27321 7.91669 5.28325C7.16927 7.09173 5.75929 8.54642 3.97502 9.34992C3.94169 9.55825 3.94169 9.78325 3.94169 9.99991C3.94169 10.7955 4.09839 11.5833 4.40285 12.3183C4.70731 13.0534 5.15356 13.7212 5.71613 14.2838C6.85229 15.42 8.39325 16.0582 10 16.0582C10.875 16.0582 11.7167 15.8666 12.475 15.5249C12.95 16.4332 13.1667 16.8832 13.15 16.8832C11.7834 17.3416 10.725 17.5666 10 17.5666C7.98335 17.5666 6.05835 16.7749 4.64169 15.3499C3.78002 14.4909 3.1395 13.4358 2.77502 12.2749H1.66669V8.48325H2.57502C2.85022 7.14368 3.48293 5.90359 4.40601 4.89457C5.32909 3.88556 6.50811 3.14525 7.81796 2.75221C9.12781 2.35917 10.5196 2.32806 11.8457 2.66217C13.1718 2.99628 14.3828 3.68316 15.35 4.64991C16.4002 5.69596 17.1165 7.03 17.4084 8.48325H18.3334V12.2749H18.2834L15.3167 14.9999L10.9 14.4999V13.1082H14.925L15.6 12.2999ZM7.72502 9.80825C7.97502 9.80825 8.21669 9.90825 8.39169 10.0916C8.56756 10.2689 8.66624 10.5085 8.66624 10.7582C8.66624 11.008 8.56756 11.2476 8.39169 11.4249C8.21669 11.5999 7.97502 11.6999 7.72502 11.6999C7.20002 11.6999 6.77502 11.2832 6.77502 10.7582C6.77502 10.2332 7.20002 9.80825 7.72502 9.80825ZM12.2667 9.80825C12.7917 9.80825 13.2084 10.2332 13.2084 10.7582C13.2084 11.2832 12.7917 11.6999 12.2667 11.6999C11.7417 11.6999 11.3167 11.2832 11.3167 10.7582C11.3167 10.5063 11.4168 10.2647 11.5949 10.0865C11.7731 9.90834 12.0147 9.80825 12.2667 9.80825Z" fill="#222222"/>
</svg>
