<svg width="12" height="12" viewBox="0 0 12 12" fill="none" xmlns="http://www.w3.org/2000/svg">
<path d="M2 2H3.5L4.5 1H7.5L8.5 2H10C10.2652 2 10.5196 2.10536 10.7071 2.29289C10.8946 2.48043 11 2.73478 11 3V9C11 9.26521 10.8946 9.51957 10.7071 9.7071C10.5196 9.89464 10.2652 10 10 10H2C1.73478 10 1.48043 9.89464 1.29289 9.7071C1.10536 9.51957 1 9.26521 1 9V3C1 2.73478 1.10536 2.48043 1.29289 2.29289C1.48043 2.10536 1.73478 2 2 2ZM6 3.5C5.33696 3.5 4.70107 3.76339 4.23223 4.23223C3.76339 4.70107 3.5 5.33696 3.5 6C3.5 6.66304 3.76339 7.29892 4.23223 7.76777C4.70107 8.23661 5.33696 8.5 6 8.5C6.66304 8.5 7.29893 8.23661 7.76777 7.76777C8.23661 7.29892 8.5 6.66304 8.5 6C8.5 5.33696 8.23661 4.70107 7.76777 4.23223C7.29893 3.76339 6.66304 3.5 6 3.5ZM6 4.5C6.39783 4.5 6.77936 4.65803 7.06066 4.93934C7.34197 5.22064 7.5 5.60217 7.5 6C7.5 6.39782 7.34197 6.77935 7.06066 7.06066C6.77936 7.34196 6.39783 7.5 6 7.5C5.60218 7.5 5.22065 7.34196 4.93934 7.06066C4.65804 6.77935 4.5 6.39782 4.5 6C4.5 5.60217 4.65804 5.22064 4.93934 4.93934C5.22065 4.65803 5.60218 4.5 6 4.5Z" fill="white"/>
</svg>
