<svg width="174" height="27" viewBox="0 0 174 27" fill="none" xmlns="http://www.w3.org/2000/svg">
<path d="M122.248 15.06H121.276V16.992C121.276 18.948 120.052 21.012 118.504 21.804L119.092 22.596C120.304 21.948 121.3 20.604 121.768 19.032C122.26 20.508 123.232 21.768 124.372 22.38L124.984 21.6C123.472 20.844 122.248 18.888 122.248 16.992V15.06ZM128.692 18.492H126.916V14.136H125.932V24.888H126.916V19.308H128.692V18.492ZM137.559 23.952H132.627V22.56H137.559V23.952ZM137.559 21.792H132.627V20.436H131.655V24.744H138.543V20.436H137.559V21.792ZM132.615 18.792C131.547 18.792 130.779 18.096 130.779 17.112C130.779 16.128 131.547 15.444 132.615 15.444C133.683 15.444 134.451 16.128 134.451 17.112C134.451 18.096 133.683 18.792 132.615 18.792ZM137.547 14.136V16.692H135.351C135.147 15.444 134.067 14.628 132.615 14.628C131.007 14.628 129.843 15.636 129.843 17.112C129.843 18.6 131.007 19.608 132.615 19.608C134.091 19.608 135.171 18.768 135.363 17.496H137.547V19.908H138.543V14.136H137.547ZM144.338 16.044H146.726V15.228H140.906V16.044H143.366V17.412C143.366 19.236 142.07 21.276 140.534 22.044L141.11 22.824C142.322 22.2 143.366 20.832 143.858 19.26C144.35 20.7 145.358 21.96 146.558 22.56L147.122 21.768C145.562 21.036 144.338 19.128 144.338 17.412V16.044ZM150.77 18.468H148.994V14.136H148.01V24.888H148.994V19.296H150.77V18.468ZM157.501 16.92V17.724H159.625V20.544H160.621V14.136H159.625V16.92H157.501ZM158.101 19.368C156.541 18.816 155.485 17.46 155.485 16.08V15.708H157.849V14.916H152.101V15.708H154.501V16.08C154.501 17.628 153.397 19.08 151.789 19.668L152.305 20.448C153.565 19.968 154.561 18.96 155.017 17.712C155.485 18.816 156.409 19.704 157.609 20.136L158.101 19.368ZM157.069 24.12C155.449 24.12 154.465 23.664 154.465 22.884C154.465 22.104 155.449 21.636 157.069 21.636C158.689 21.636 159.673 22.104 159.673 22.884C159.673 23.664 158.689 24.12 157.069 24.12ZM157.069 20.88C154.861 20.88 153.481 21.612 153.481 22.884C153.481 24.156 154.861 24.888 157.069 24.888C159.277 24.888 160.645 24.156 160.645 22.884C160.645 21.612 159.277 20.88 157.069 20.88ZM164.916 17.616H170.412V19.596H164.916V17.616ZM168.156 22.704V20.388H171.372V14.892H170.412V16.812H164.916V14.892H163.944V20.388H167.16V22.704H162.792V23.508H172.548V22.704H168.156Z" fill="#888888"/>
<g clip-path="url(#clip0)">
<path fill-rule="evenodd" clip-rule="evenodd" d="M3.99615 7.66518L7.46712 4.08966C7.54613 4.01058 7.64208 3.94844 7.74931 3.9202L21.0631 0.011415C21.1704 -0.0224762 21.2889 0.0170625 21.3566 0.107439L30.0481 11.7039C30.2062 11.9185 30.1667 12.2179 29.9522 12.3761C29.9183 12.4043 29.8788 12.4212 29.8337 12.4382L27.6044 13.2968C27.4633 13.3533 27.3673 13.4945 27.373 13.647V21.7865C27.373 21.9842 27.2488 22.1593 27.0625 22.2271L19.3135 25.0853L14.2905 26.938C14.0704 27.0171 13.8277 27.0171 13.6076 26.9267L2.69807 22.47C2.52311 22.3966 2.40459 22.2215 2.40459 22.0351V13.1386C2.40459 13.0087 2.31993 12.8901 2.19577 12.8449L0.147053 12.0993C0.0285319 12.0541 -0.0335534 11.9242 0.0115973 11.7999L3.99615 7.66518ZM9.5775 4.97075L16.3388 15.4488C16.4517 15.6295 16.6718 15.7086 16.875 15.6408L27.9256 12.1726C28.174 12.0936 28.3094 11.8281 28.2304 11.5795C28.2135 11.5343 28.1965 11.4892 28.1683 11.4496L20.9668 1.40652C20.8483 1.24837 20.6451 1.17493 20.4532 1.22577L9.8484 4.25903C9.60007 4.33247 9.45897 4.5923 9.5267 4.84083C9.53799 4.89167 9.55492 4.93121 9.5775 4.97075ZM6.16864 22.2609V14.6749C6.17428 14.6467 6.17993 14.6184 6.19122 14.5959V14.5902C6.23637 14.4716 6.37182 14.4095 6.49034 14.4546L10.3338 15.8781C10.52 15.9459 10.6442 16.121 10.6442 16.3187V23.594C10.6442 23.6505 10.6329 23.7013 10.616 23.7521C10.5313 23.9837 10.2717 24.1023 10.0403 24.0176L6.47905 22.7015C6.29281 22.6337 6.16864 22.4586 6.16864 22.2609Z" fill="#888888"/>
</g>
<path d="M47.7769 5.5V11.78H46.3498V5.58H43.2143V22.28H46.3498V14.98H47.7769V22.58H50.9526V5.5H47.7769ZM37.4859 18.8V5.86H34.1694V21.78H38.109C39.5561 21.78 41.3852 21.6 42.4103 21.18V18.22C41.3651 18.6 39.7571 18.8 38.4105 18.8H37.4859Z" fill="#888888"/>
<path d="M69.3219 8.44V5.5H65.9251V15.14H69.3219V11.72H71.3319V8.44H69.3219ZM64.0558 5.7H60.7595V7.4H56.8803V5.7H53.5839V14.5H64.0558V5.7ZM56.8803 11.78V10.04H60.7595V11.78H56.8803ZM61.7444 15.42C57.423 15.42 54.006 16.36 54.006 19.1C54.006 21.84 57.423 22.78 61.7444 22.78C66.0658 22.78 69.4827 21.84 69.4827 19.1C69.4827 16.36 66.0658 15.42 61.7444 15.42ZM61.7444 20.12C59.4731 20.12 57.6642 19.86 57.6642 19.1C57.6642 18.36 59.4731 18.08 61.7444 18.08C64.0156 18.08 65.8246 18.36 65.8246 19.1C65.8246 19.86 64.0156 20.12 61.7444 20.12Z" fill="#888888"/>
<path d="M89.1384 5.5H85.7416V22.58H89.1384V5.5ZM76.7973 5.8H73.2999V21.78H80.3951C82.0433 21.78 83.7919 21.48 84.8371 20.96V17.88C83.7919 18.38 82.0232 18.7 80.3951 18.7H76.7973V5.8Z" fill="#888888"/>
<path d="M107.99 8.44V5.5H104.593V15.14H107.99V11.72H110V8.44H107.99ZM102.724 5.7H99.4277V7.4H95.5485V5.7H92.2521V14.5H102.724V5.7ZM95.5485 11.78V10.04H99.4277V11.78H95.5485ZM100.413 15.42C96.0912 15.42 92.6742 16.36 92.6742 19.1C92.6742 21.84 96.0912 22.78 100.413 22.78C104.734 22.78 108.151 21.84 108.151 19.1C108.151 16.36 104.734 15.42 100.413 15.42ZM100.413 20.12C98.1413 20.12 96.3324 19.86 96.3324 19.1C96.3324 18.36 98.1413 18.08 100.413 18.08C102.684 18.08 104.493 18.36 104.493 19.1C104.493 19.86 102.684 20.12 100.413 20.12Z" fill="#888888"/>
<defs>
<clipPath id="clip0">
<rect width="30.1494" height="27" fill="white"/>
</clipPath>
</defs>
</svg>
