<svg width="20" height="20" viewBox="0 0 20 20" fill="none" xmlns="http://www.w3.org/2000/svg">
<path d="M17.5 3.33325H2.50004C2.05801 3.33325 1.63409 3.50885 1.32153 3.82141C1.00897 4.13397 0.833374 4.55789 0.833374 4.99992V15.8333C0.833374 16.2753 1.00897 16.6992 1.32153 17.0118C1.63409 17.3243 2.05801 17.4999 2.50004 17.4999H17.5C17.9421 17.4999 18.366 17.3243 18.6786 17.0118C18.9911 16.6992 19.1667 16.2753 19.1667 15.8333V4.99992C19.1667 4.55789 18.9911 4.13397 18.6786 3.82141C18.366 3.50885 17.9421 3.33325 17.5 3.33325ZM2.50004 15.8333V4.99992H9.16671V15.8333H2.50004ZM17.5 15.8333H10.8334V4.99992H17.5V15.8333ZM11.6667 7.91658H16.6667V9.16658H11.6667V7.91658ZM11.6667 9.99992H16.6667V11.2499H11.6667V9.99992ZM11.6667 12.0833H16.6667V13.3333H11.6667V12.0833Z" fill="#222222"/>
</svg>
