<svg width="20" height="20" viewBox="0 0 20 20" fill="none" xmlns="http://www.w3.org/2000/svg">
<path d="M17.6111 5.84777C17.3646 5.2874 17.0041 4.79134 16.5584 4.35958C16.1126 3.92782 15.5815 3.59711 15.003 3.36745C14.4055 3.11942 13.77 3 13.1156 3H13.1061C12.1956 3 11.3041 3.23885 10.5359 3.69816C10.3462 3.8084 10.166 3.92782 10.0047 4.06562C9.83402 3.92782 9.66331 3.8084 9.47362 3.69816C8.13634 2.90814 6.41968 2.78871 4.99704 3.36745C4.41849 3.59711 3.89686 3.92782 3.44161 4.35958C2.99585 4.78215 2.63545 5.2874 2.38886 5.84777C2.13278 6.42651 2 7.042 2 7.67585C2 8.27297 2.1233 8.89764 2.37937 9.5315L2.38886 9.52231L2.37937 9.5315C2.58803 10.0551 2.89152 10.6063 3.2709 11.1667H3.28038H3.2709C3.87789 12.0394 4.71251 12.958 5.75578 13.8858C6.6473 14.685 7.53883 15.3465 8.11737 15.769C8.43983 15.9987 8.71488 16.1824 8.90456 16.311C9.11322 16.4488 9.22703 16.5223 9.246 16.5315L10.0047 17L10.7635 16.5315C10.8299 16.4856 12.5276 15.4383 14.2537 13.8858C15.297 12.958 16.1316 12.0394 16.7291 11.1667C17.1085 10.6247 17.4025 10.0919 17.6017 9.57743L17.6206 9.5315C17.8672 8.89764 18 8.27297 18 7.67585C18 7.042 17.8767 6.42651 17.6111 5.84777ZM15.8945 8.7874L15.8565 8.87927C15.7048 9.25591 15.4867 9.66929 15.1926 10.0919L12.9354 12.563C11.7214 13.6378 10.5264 14.4646 10.0047 14.8045C9.99526 14.7953 9.98577 14.7953 9.97629 14.7861C9.79609 14.6667 9.54001 14.4921 9.23651 14.2808C8.69591 13.895 7.88974 13.2887 7.06461 12.5538L4.84529 10.1194L4.12448 8.82415C3.97273 8.41995 3.89686 8.03412 3.89686 7.67585C3.89686 7.29921 3.97273 6.92257 4.13397 6.57349C4.28571 6.2336 4.50385 5.93045 4.76941 5.67323C5.04446 5.40682 5.36692 5.20472 5.72733 5.05774C6.60937 4.70866 7.66212 4.77297 8.48726 5.26903C8.60107 5.33333 8.70539 5.40682 8.80972 5.4895L10.0047 6.42651L11.1998 5.4895C11.2946 5.40682 11.4084 5.33333 11.5222 5.26903C11.9964 4.98425 12.556 4.80052 13.1251 4.83727C13.5234 4.83727 13.9123 4.91076 14.2916 5.06693C14.652 5.20472 14.965 5.41601 15.2496 5.67323C15.5246 5.93045 15.7333 6.2336 15.885 6.57349C16.0368 6.92257 16.1221 7.29003 16.1221 7.67585C16.1031 8.04331 16.0178 8.44751 15.8945 8.7874Z" fill="#222222"/>
</svg>
