<svg width="18" height="16" viewBox="0 0 18 16" fill="none" xmlns="http://www.w3.org/2000/svg">
<path d="M3.67243 7H2.20744C1.47569 7 0.991735 6.23985 1.30138 5.57684L3.40303 1.07684C3.56739 0.724915 3.92067 0.5 4.30908 0.5H6.70815M3.67243 7V11V15H7.72005V11H10.7558V15H14.8034V7M3.67243 7H4.68434M14.8034 7H16.2684C17.0001 7 17.4841 6.23985 17.1744 5.57684L15.0728 1.07684C14.9084 0.724916 14.5551 0.5 14.1667 0.5H12.0206M14.8034 7H13.7915M9.23791 0.5V7M9.23791 0.5H6.70815M9.23791 0.5H12.0206M9.23791 7H4.68434M9.23791 7H13.7915M6.70815 0.5L4.68434 7M12.0206 0.5L13.7915 7" stroke="#888888"/>
</svg>
