<svg width="20" height="20" viewBox="0 0 20 20" fill="none" xmlns="http://www.w3.org/2000/svg">
<path d="M9.99996 6.66659H3.33329C2.89127 6.66659 2.46734 6.84218 2.15478 7.15474C1.84222 7.4673 1.66663 7.89122 1.66663 8.33325V11.6666C1.66663 12.1086 1.84222 12.5325 2.15478 12.8451C2.46734 13.1577 2.89127 13.3333 3.33329 13.3333H4.16663V16.6666C4.16663 16.8876 4.25442 17.0996 4.4107 17.2558C4.56698 17.4121 4.77895 17.4999 4.99996 17.4999H6.66663C6.88764 17.4999 7.0996 17.4121 7.25588 17.2558C7.41216 17.0996 7.49996 16.8876 7.49996 16.6666V13.3333H9.99996L14.1666 16.6666V3.33325L9.99996 6.66659ZM12.5 12.9999L10.8333 11.6666H3.33329V8.33325H10.8333L12.5 6.99992V12.9999ZM17.9166 9.99992C17.9166 11.4249 17.1166 12.7166 15.8333 13.3333V6.66659C17.1083 7.29159 17.9166 8.58325 17.9166 9.99992Z" fill="#222222"/>
</svg>
