<svg width="20" height="20" viewBox="0 0 20 20" fill="none" xmlns="http://www.w3.org/2000/svg">
<path d="M11.75 7.50008L12.5 8.25008L4.91669 15.8334H4.16669V15.0834L11.75 7.50008ZM14.75 2.50008C14.5834 2.50008 14.3334 2.58341 14.1667 2.75008L12.6667 4.25008L15.75 7.41675L17.25 5.83341C17.5834 5.50008 17.5834 5.00008 17.25 4.66675L15.3334 2.75008C15.1667 2.58341 14.9167 2.50008 14.75 2.50008ZM11.75 5.16675L2.50002 14.3334V17.5001H5.66669L14.8334 8.25008L11.75 5.16675ZM5.83335 1.66675V4.16675H8.33335V5.83341H5.83335V8.33341H4.16669V5.83341H1.66669V4.16675H4.16669V1.66675H5.83335Z" fill="#222222"/>
</svg>
