<svg width="60" height="60" viewBox="0 0 60 60" fill="none" xmlns="http://www.w3.org/2000/svg">
<circle cx="30" cy="30" r="30" fill="#EEEEEE"/>
<g clip-path="url(#clip0)">
<path d="M39.2452 37.9435L39.0448 38.8659L39.2166 37.9435C38.8253 37.8588 38.2909 37.7459 38.1477 37.68C36.8594 37.1247 36.0197 36.3718 35.6093 35.3835C37.1362 33.9153 38.4149 31.8447 39.1879 29.5765C40.085 28.3812 40.5812 27.12 40.5812 26.0094C40.5812 25.2753 40.3617 24.6165 39.9514 24.0706C39.541 18.4706 35.3421 14.0753 30.2366 14H30.0744C25.0834 14.0282 20.8845 18.2729 20.3406 23.7318C19.7298 24.3247 19.4053 25.0965 19.4053 26.0094C19.4053 27.3271 20.0734 28.7953 21.2853 30.1694C22.0297 32.1082 23.1271 33.8494 24.425 35.1671C24.0146 36.1741 23.1748 36.9365 21.877 37.4918C21.7147 37.5576 21.1994 37.68 20.8177 37.7741C18.3842 38.3482 13.3265 39.5341 12.0477 44.2306C11.9523 44.5882 12 44.9835 12.1909 45.3035C12.3817 45.6329 12.6871 45.8588 13.0688 45.9624C13.1833 45.9812 13.3074 46 13.4314 46C13.6796 46 13.9277 45.9341 14.1472 45.8118C14.4812 45.6235 14.7102 45.3224 14.8152 44.9553C15.655 41.8776 19.1572 41.0588 21.4762 40.5129C22.1156 40.3624 22.6309 40.24 23.0126 40.08C26.1141 38.7529 27.1352 36.5788 27.4405 34.9882C27.4882 34.7435 27.4692 34.4894 27.3833 34.2541C27.2974 34.0188 27.1542 33.8118 26.9634 33.6518C25.6751 32.5506 24.5776 30.8847 23.8715 28.9553C23.8047 28.7765 23.7092 28.6071 23.5756 28.4753C22.6022 27.4306 22.2587 26.5176 22.2587 26.0094C22.2587 25.8024 22.2969 25.7647 22.4496 25.6706C22.65 25.5482 22.8217 25.3882 22.9458 25.1812C23.0698 24.9835 23.1366 24.7482 23.1462 24.5224C23.3371 20.2306 26.4003 16.8518 30.0458 16.8235H30.208C33.9584 16.8706 36.9835 20.3247 37.098 24.6824C37.1076 24.88 37.1553 25.0776 37.2412 25.2659C37.327 25.4447 37.4511 25.5953 37.6038 25.7271C37.6611 25.7741 37.6992 25.8118 37.6992 26C37.6992 26.5365 37.3557 27.2706 36.7449 28.0424C36.6495 28.1647 36.5732 28.3059 36.5159 28.4753C35.8097 30.6871 34.55 32.6353 33.0709 33.8118C32.8705 33.9718 32.7178 34.1788 32.6319 34.4235C32.546 34.6588 32.5174 34.9224 32.5651 35.1765C32.8705 36.7671 33.8916 38.9412 36.993 40.2682C37.4034 40.4471 37.9473 40.56 38.6249 40.7012C40.9152 41.1906 44.3698 41.9247 45.1905 44.9459C45.2382 45.1247 45.3241 45.2941 45.4481 45.4541C45.5626 45.5953 45.7058 45.7176 45.8585 45.8024C46.0207 45.8965 46.202 45.9529 46.3833 45.9812C46.5742 46.0094 46.765 45.9906 46.9368 45.9435C47.1181 45.8965 47.2899 45.8118 47.4426 45.6988C47.5953 45.5859 47.7193 45.4447 47.8052 45.2941C47.9007 45.1247 47.9675 44.9459 47.9865 44.7671C48.0152 44.5882 47.9961 44.4 47.9484 44.2118C46.6982 39.5341 41.6596 38.4612 39.2452 37.9435Z" fill="#CCCCCC"/>
</g>
<defs>
<clipPath id="clip0">
<rect width="40" height="40" fill="white" transform="translate(10 10)"/>
</clipPath>
</defs>
</svg>
