<svg width="20" height="20" viewBox="0 0 20 20" fill="none" xmlns="http://www.w3.org/2000/svg">
<path d="M15.8333 2.49992C16.2754 2.49992 16.6993 2.67551 17.0118 2.98807C17.3244 3.30063 17.5 3.72456 17.5 4.16659V15.8333C17.5 16.2753 17.3244 16.6992 17.0118 17.0118C16.6993 17.3243 16.2754 17.4999 15.8333 17.4999H4.16667C3.72464 17.4999 3.30072 17.3243 2.98816 17.0118C2.67559 16.6992 2.5 16.2753 2.5 15.8333V4.16659C2.5 3.72456 2.67559 3.30063 2.98816 2.98807C3.30072 2.67551 3.72464 2.49992 4.16667 2.49992H7.65C8 1.53325 8.91667 0.833252 10 0.833252C11.0833 0.833252 12 1.53325 12.35 2.49992H15.8333ZM10 2.49992C9.77899 2.49992 9.56702 2.58772 9.41074 2.744C9.25446 2.90028 9.16667 3.11224 9.16667 3.33325C9.16667 3.55427 9.25446 3.76623 9.41074 3.92251C9.56702 4.07879 9.77899 4.16659 10 4.16659C10.221 4.16659 10.433 4.07879 10.5893 3.92251C10.7455 3.76623 10.8333 3.55427 10.8333 3.33325C10.8333 3.11224 10.7455 2.90028 10.5893 2.744C10.433 2.58772 10.221 2.49992 10 2.49992ZM5.83333 5.83325V4.16659H4.16667V15.8333H15.8333V4.16659H14.1667V5.83325H5.83333ZM9.16667 7.49992H10.8333V11.2499H9.16667V7.49992ZM9.16667 12.4999H10.8333V14.1666H9.16667V12.4999Z" fill="#222222"/>
</svg>
