<svg width="20" height="20" viewBox="0 0 20 20" fill="none" xmlns="http://www.w3.org/2000/svg">
<path d="M8.33333 1.66675V3.55008L10 4.65841V3.33341H18.3333V15.8334H14.1667V17.5001H20V1.66675H8.33333ZM6.25 4.16675L0 8.33341V17.5001H12.5V8.33341L6.25 4.16675ZM11.6667 5.00008V5.77508L13.0083 6.66675H13.3333V5.00008H11.6667ZM15 5.00008V6.66675H16.6667V5.00008H15ZM6.25 6.25008L10.8333 9.16675V15.8334H8.33333V10.8334H4.16667V15.8334H1.66667V9.16675L6.25 6.25008ZM15 8.33341V10.0001H16.6667V8.33341H15ZM15 11.6667V13.3334H16.6667V11.6667H15Z" fill="#222222"/>
</svg>
