<svg width="20" height="20" viewBox="0 0 20 20" fill="none" xmlns="http://www.w3.org/2000/svg">
<path d="M11.25 6.66667H10V10.8333L13.5667 12.95L14.1667 11.9417L11.25 10.2083V6.66667ZM10.8334 2.5C8.84425 2.5 6.9366 3.29018 5.53007 4.6967C4.12355 6.10322 3.33337 8.01088 3.33337 10H0.833374L4.13337 13.3583L7.50004 10H5.00004C5.00004 8.4529 5.61462 6.96917 6.70858 5.87521C7.80255 4.78125 9.28628 4.16667 10.8334 4.16667C12.3805 4.16667 13.8642 4.78125 14.9582 5.87521C16.0521 6.96917 16.6667 8.4529 16.6667 10C16.6667 11.5471 16.0521 13.0308 14.9582 14.1248C13.8642 15.2188 12.3805 15.8333 10.8334 15.8333C9.22504 15.8333 7.76671 15.175 6.71671 14.1167L5.53337 15.3C6.22627 16.0005 7.05186 16.5559 7.96187 16.9336C8.87189 17.3114 9.84808 17.5039 10.8334 17.5C12.8225 17.5 14.7302 16.7098 16.1367 15.3033C17.5432 13.8968 18.3334 11.9891 18.3334 10C18.3334 8.01088 17.5432 6.10322 16.1367 4.6967C14.7302 3.29018 12.8225 2.5 10.8334 2.5Z" fill="#222222"/>
</svg>
