<svg width="260" height="240" viewBox="0 0 260 240" fill="none" xmlns="http://www.w3.org/2000/svg">
<g clip-path="url(#clip0)">
<path d="M179.68 133.619L179.62 161.579L138.41 185.519L138.48 157.559L179.68 133.619Z" fill="#FFA04C"/>
<path d="M138.41 185.519L112.21 170.389V142.389L138.48 157.559L138.41 185.519Z" fill="#FFB64D"/>
<path d="M179.68 133.619L138.48 157.559L112.21 142.389L153.27 118.369L179.68 133.619Z" fill="#FFDE95"/>
<path d="M167.26 126.399L125.91 150.279V155.709L121.17 153.149V147.569L162.91 123.469L167.26 126.399Z" fill="white"/>
<path d="M146.08 178.399L141.15 181.249V181.019L146.08 178.169V178.399Z" fill="#005478"/>
<path d="M146.08 179.149L141.15 181.999V181.769L146.08 178.919V179.149Z" fill="#005478"/>
<path d="M147.03 174.719L140.2 178.669V178.069L147.03 174.129V174.719Z" fill="#005478"/>
<path d="M146.08 177.659L141.15 180.509V180.279L146.08 177.419V177.659Z" fill="#005478"/>
<path d="M146.08 176.159L141.15 179.009V178.779L146.08 175.929V176.159Z" fill="#005478"/>
<path d="M146.08 176.909L141.15 179.759V179.529L146.08 176.679V176.909Z" fill="#005478"/>
<path d="M177.88 141.359L170.65 145.529V140.939L177.88 136.769V141.359Z" fill="#C3CCD9"/>
<path d="M176.87 138.249L171.76 141.199V140.969L176.87 138.019V138.249Z" fill="#005478"/>
<path d="M176.87 141.348L171.76 144.298V144.058L176.87 141.108V141.348Z" fill="#005478"/>
<path d="M176.87 139.799L171.76 142.749V142.509L176.87 139.559V139.799Z" fill="#005478"/>
<path d="M176.87 140.579L171.76 143.529V143.289L176.87 140.339V140.579Z" fill="#005478"/>
<path d="M176.87 139.028L171.76 141.978V141.738L176.87 138.788V139.028Z" fill="#005478"/>
<path d="M141.2 158.129C141.49 158.129 141.59 158.439 141.42 158.829C141.25 159.219 140.88 159.529 140.59 159.529C140.3 159.529 140.2 159.219 140.37 158.829C140.54 158.439 140.91 158.129 141.2 158.129Z" fill="#5B5C70"/>
<path d="M143.4 156.859C143.69 156.859 143.79 157.169 143.62 157.559C143.45 157.949 143.08 158.259 142.79 158.259C142.5 158.259 142.4 157.949 142.57 157.559C142.73 157.169 143.11 156.859 143.4 156.859Z" fill="#5B5C70"/>
<path d="M145.6 155.589C145.89 155.589 145.99 155.899 145.82 156.289C145.65 156.679 145.28 156.989 144.99 156.989C144.7 156.989 144.6 156.679 144.77 156.289C144.93 155.899 145.31 155.589 145.6 155.589Z" fill="#5B5C70"/>
<path d="M179.89 108.35L179.84 130L147.95 148.53L148 126.89L179.89 108.35Z" fill="#FFA04C"/>
<path d="M147.95 148.529L127.66 136.819V115.149L148 126.889L147.95 148.529Z" fill="#FFB64D"/>
<path d="M179.89 108.35L148 126.89L127.66 115.15L159.45 96.5498L179.89 108.35Z" fill="#FFDE95"/>
<path d="M170.28 102.77L138.27 121.25V125.46L134.6 123.47V119.15L166.91 100.5L170.28 102.77Z" fill="white"/>
<path d="M153.88 143.02L150.06 145.23V145.05L153.88 142.84V143.02Z" fill="#005478"/>
<path d="M153.88 143.6L150.06 145.8V145.63L153.88 143.42V143.6Z" fill="#005478"/>
<path d="M154.62 140.17L149.33 143.22V142.76L154.62 139.71V140.17Z" fill="#005478"/>
<path d="M153.88 142.44L150.06 144.65V144.47L153.88 142.26V142.44Z" fill="#005478"/>
<path d="M153.88 141.28L150.06 143.49V143.31L153.88 141.1V141.28Z" fill="#005478"/>
<path d="M153.88 141.86L150.06 144.07V143.89L153.88 141.68V141.86Z" fill="#005478"/>
<path d="M178.49 114.35L172.9 117.58V114.02L178.49 110.79V114.35Z" fill="#C3CCD9"/>
<path d="M177.71 111.94L173.76 114.23V114.04L177.71 111.76V111.94Z" fill="#005478"/>
<path d="M177.71 114.34L173.76 116.62V116.44L177.71 114.16V114.34Z" fill="#005478"/>
<path d="M177.71 113.14L173.76 115.42V115.24L177.71 112.96V113.14Z" fill="#005478"/>
<path d="M177.71 113.74L173.76 116.02V115.84L177.71 113.56V113.74Z" fill="#005478"/>
<path d="M177.71 112.54L173.76 114.83V114.64L177.71 112.36V112.54Z" fill="#005478"/>
<path d="M150.1 127.33C150.33 127.33 150.4 127.57 150.27 127.87C150.14 128.17 149.85 128.41 149.63 128.41C149.4 128.41 149.33 128.17 149.46 127.87C149.59 127.57 149.88 127.33 150.1 127.33Z" fill="#5B5C70"/>
<path d="M151.81 126.34C152.04 126.34 152.11 126.58 151.98 126.88C151.85 127.18 151.56 127.42 151.34 127.42C151.12 127.42 151.04 127.18 151.17 126.88C151.29 126.59 151.58 126.34 151.81 126.34Z" fill="#5B5C70"/>
<path d="M153.51 125.359C153.74 125.359 153.81 125.599 153.68 125.899C153.55 126.199 153.26 126.439 153.04 126.439C152.81 126.439 152.74 126.199 152.87 125.899C152.99 125.599 153.28 125.359 153.51 125.359Z" fill="#5B5C70"/>
<path d="M226.81 226.74L166.5 192.04C162.98 189.71 160.86 185.77 160.88 181.54C160.88 181.54 160.87 25.1496 160.92 24.8796C161.72 19.1096 168.7 16.1796 173.96 19.2096L234.21 53.9696C237.67 56.2596 239.75 60.1496 239.73 64.2996L239.62 219.3C239.62 219.6 239.59 219.88 239.54 220.15C239.13 226.27 232.24 229.87 226.81 226.74Z" fill="#023248"/>
<path d="M238.29 73.4498L238.28 71.1198C238.28 70.4398 237.73 70.2098 237.06 70.5998C236.38 70.9898 235.84 71.8498 235.83 72.5298L235.84 74.8598C235.84 75.5398 236.39 75.7698 237.06 75.3798C237.74 74.9898 238.29 74.1298 238.29 73.4498Z" fill="#005478"/>
<path d="M235.85 72.5195C235.85 71.8395 236.4 70.9795 237.08 70.5895C237.24 70.4995 237.4 70.4595 237.54 70.4395C237.57 70.5295 237.58 70.5995 237.58 70.7095L237.59 73.0395C237.59 73.7195 237.04 74.5795 236.36 74.9695C236.2 75.0595 236.05 75.1195 235.91 75.1395C235.88 75.0495 235.86 74.9595 235.86 74.8495L235.85 72.5195Z" fill="#5B5C70"/>
<path d="M239.18 74.0192C239.09 73.3392 238.51 73.1092 237.89 73.4992C237.27 73.8892 236.84 74.7492 236.93 75.4292C237.02 76.1092 237.6 76.3392 238.22 75.9492C238.84 75.5592 239.27 74.6992 239.18 74.0192Z" fill="#E5E3E4"/>
<path d="M237.91 73.5195C237.29 73.9095 236.86 74.7695 236.95 75.4495C236.99 75.7395 237.12 75.9395 237.3 76.0495L236.19 75.5695C235.99 75.4595 235.9 75.2895 235.86 74.9795C235.77 74.2995 236.19 73.4395 236.82 73.0495C237.12 72.8595 237.59 72.8795 237.59 72.8795L238.71 73.3495C238.48 73.2895 238.2 73.3395 237.91 73.5195Z" fill="#005478"/>
<path d="M238.34 96.3497C237.66 96.7397 237.12 97.5997 237.11 98.2797L237.1 105.28C237.1 105.61 237.23 105.82 237.44 105.92L236.34 105.4L236.23 105.35C235.98 105.25 235.82 105.04 235.82 104.67L235.83 97.6697C235.83 96.9897 236.38 96.1297 237.06 95.7397C237.39 95.5497 237.62 95.4897 237.84 95.5697L237.9 95.5897H237.91C237.92 95.5897 237.93 95.5997 237.94 95.6097L239.2 96.1997C238.98 96.1197 238.68 96.1597 238.34 96.3497Z" fill="#005478"/>
<path d="M239.56 103.87L239.57 96.8698C239.57 96.1898 239.02 95.9598 238.35 96.3498C237.67 96.7398 237.13 97.5998 237.12 98.2798L237.11 105.28C237.11 105.96 237.66 106.19 238.33 105.8C239.01 105.41 239.56 104.54 239.56 103.87Z" fill="#E5E3E4"/>
<path d="M238.28 111.73C237.6 112.12 237.06 112.98 237.05 113.66L237.04 117.67C237.04 118 237.17 118.21 237.38 118.31L236.28 117.79L236.17 117.74C235.92 117.64 235.76 117.43 235.76 117.06L235.77 113.05C235.77 112.37 236.32 111.51 237 111.12C237.33 110.93 237.56 110.87 237.78 110.95L237.84 110.97H237.85C237.86 110.97 237.87 110.98 237.88 110.99L239.14 111.58C238.93 111.49 238.62 111.53 238.28 111.73Z" fill="#005478"/>
<path d="M239.5 116.25L239.51 112.24C239.51 111.56 238.96 111.33 238.29 111.72C237.61 112.11 237.07 112.97 237.06 113.65L237.05 117.66C237.05 118.34 237.6 118.57 238.27 118.18C238.95 117.79 239.5 116.93 239.5 116.25Z" fill="#E5E3E4"/>
<path d="M160.92 24.88L160.88 181.43C160.86 185.65 162.98 189.6 166.5 191.93L227.45 227C230.95 228.56 235.16 226.82 235.18 222.86L235.29 66.86C235.31 62.71 233.23 58.82 229.77 56.53L168.88 21.44C164.52 18.99 161.17 21.21 160.92 24.88Z" fill="#5B5C70"/>
<path d="M225.59 221.91L167.68 188.28C165.21 186.65 163.73 183.88 163.74 180.92L163.85 28.4399C164.02 25.8699 166.37 24.3099 169.43 26.0299L227.3 59.6699C229.73 61.2799 231.18 63.9999 231.17 66.9099L231 219.01C230.99 221.79 227.9 223.44 225.59 221.91Z" fill="#023248"/>
<path d="M192.05 35.8099L191.98 35.7699C191.6 35.5499 191.29 35.7799 191.28 36.2899C191.28 36.7999 191.59 37.3999 191.97 37.6199L192.04 37.6599C192.42 37.8799 192.74 37.6499 192.74 37.1399C192.74 36.6299 192.43 36.0299 192.05 35.8099Z" fill="#023248"/>
<path d="M207.48 44.8097L194.21 37.0697C193.83 36.8497 193.51 37.0797 193.51 37.5897C193.51 38.0997 193.82 38.6997 194.2 38.9197L207.47 46.6597C207.85 46.8797 208.17 46.6497 208.17 46.1397C208.17 45.6297 207.87 45.0397 207.48 44.8097Z" fill="#023248"/>
<path d="M200.3 80.5695L185.92 54.9195L188.73 53.2895C190.58 52.1895 193.52 52.6995 196.37 54.3395C201.99 57.5795 206.54 65.4295 206.54 71.8795C206.54 74.8895 205.54 77.0595 203.91 78.1895C203.71 78.3295 202.25 79.6195 202.03 79.7295L200.3 80.5695Z" fill="#E32A56"/>
<path d="M183.08 61.5194C183.08 68.1394 187.75 76.1994 193.52 79.5294C199.29 82.8594 203.96 80.1894 203.96 73.5794C203.96 66.9594 199.29 58.8994 193.52 55.5694C187.75 52.2394 183.08 54.9094 183.08 61.5194Z" fill="#F85976"/>
<path d="M187.56 65.2397L188.35 70.2597C188.46 70.9897 188.98 71.7797 189.57 72.1197L196.32 76.0197C196.91 76.3697 197.42 76.1797 197.54 75.5697L198.32 71.4597C198.4 71.0497 198.1 70.4497 197.69 70.2197L188.18 64.7297C187.78 64.4897 187.48 64.7397 187.56 65.2397ZM195.29 70.6297C195.29 70.2197 195.54 70.0397 195.83 70.2097L195.86 70.2297C196.17 70.3997 196.41 70.8697 196.41 71.2697L195.72 73.6397C195.72 73.9697 195.52 74.1297 195.28 73.9797L195.25 73.9597C195.01 73.8197 194.81 73.4297 194.81 73.0997L195.29 70.6297ZM192.38 68.9497C192.38 68.5497 192.63 68.3697 192.93 68.5397L192.96 68.5497C193.26 68.7197 193.5 69.1997 193.5 69.5997L193.39 72.2597C193.39 72.5897 193.19 72.7497 192.95 72.5997L192.92 72.5797C192.68 72.4397 192.48 72.0497 192.48 71.7197L192.38 68.9497ZM189.47 67.2697C189.47 66.8697 189.72 66.6897 190.02 66.8597L190.05 66.8797C190.35 67.0497 190.59 67.5297 190.59 67.9297L191.05 70.8897C191.05 71.2197 190.85 71.3797 190.61 71.2297L190.58 71.2097C190.34 71.0697 190.14 70.6797 190.14 70.3497L189.47 67.2697Z" fill="white"/>
<path d="M187.22 63.2196L198.67 69.8296C199.02 70.0296 199.3 70.5696 199.3 71.0396C199.3 71.5096 199.02 71.7196 198.67 71.5196L187.22 64.9096C186.87 64.7096 186.59 64.1696 186.59 63.6996C186.59 63.2396 186.87 63.0196 187.22 63.2196Z" fill="white"/>
<path d="M193.31 68.1296C193.57 68.0596 193.63 67.6596 193.43 67.2496L190.44 60.8996C190.24 60.4796 189.87 60.2096 189.61 60.2796C189.35 60.3496 189.29 60.7496 189.49 61.1596L192.48 67.5096C192.67 67.9196 193.04 68.1996 193.31 68.1296Z" fill="white"/>
<path d="M192.55 67.7096C192.58 67.9496 192.88 68.0496 193.22 67.9196L198.41 65.9696C198.75 65.8396 199 65.5396 198.97 65.2996C198.94 65.0596 198.64 64.9596 198.3 65.0896L193.11 67.0396C192.77 67.1696 192.52 67.4696 192.55 67.7096Z" fill="white"/>
<path d="M220.18 100.71L209.54 105.37L211.04 109.19L221.66 104.55L220.18 100.71Z" fill="#005478"/>
<path d="M193.08 87.78L182.27 92.31L181 88.42L191.58 83.96L193.08 87.78Z" fill="#005478"/>
<path d="M191.05 84.7696C190.93 85.6596 191.39 86.8796 192.08 87.4996C192.76 88.1196 193.41 87.8996 193.53 87.0196C193.65 86.1296 193.19 84.9096 192.5 84.2896C191.81 83.6596 191.16 83.8796 191.05 84.7696Z" fill="#005478"/>
<path d="M219.65 101.529C219.55 102.419 220.02 103.629 220.71 104.239C221.4 104.849 222.04 104.629 222.15 103.739C222.25 102.849 221.78 101.639 221.09 101.029C220.4 100.419 219.76 100.639 219.65 101.529Z" fill="#005478"/>
<path d="M180.5 87.2992L181.45 86.9792C181.46 86.9792 181.47 86.9692 181.48 86.9692L181.53 86.9492L181.54 86.9592C181.94 86.8592 182.44 87.0192 182.95 87.4892C184.03 88.4792 184.77 90.4092 184.58 91.8192C184.49 92.5092 184.19 92.9492 183.79 93.0892H183.78L182.83 93.4092L182.6 92.7992C182.5 92.7292 182.4 92.6592 182.3 92.5692C181.21 91.5792 180.48 89.6492 180.67 88.2392C180.69 88.1192 180.72 88.0092 180.74 87.9092L180.5 87.2992Z" fill="#023248"/>
<path d="M179.68 88.58C179.5 89.99 180.23 91.93 181.31 92.91C182.4 93.9 183.42 93.55 183.61 92.15C183.79 90.74 183.06 88.8 181.98 87.82C180.89 86.83 179.86 87.18 179.68 88.58Z" fill="#005478"/>
<path d="M180.41 89.2501C180.29 90.1401 180.75 91.3601 181.44 91.9801C182.12 92.6001 182.77 92.3801 182.89 91.5001C183.01 90.6101 182.55 89.4001 181.86 88.7701C181.17 88.1401 180.52 88.3601 180.41 89.2501Z" fill="#5B5C70"/>
<path d="M209.14 104.21L210.09 103.88C210.1 103.88 210.11 103.87 210.12 103.87L210.17 103.85L210.18 103.86C210.58 103.76 211.08 103.91 211.6 104.37C212.7 105.34 213.45 107.27 213.28 108.68C213.2 109.38 212.91 109.81 212.5 109.96L212.49 109.97L211.54 110.31L211.3 109.71C211.2 109.64 211.1 109.57 211 109.48C209.9 108.51 209.15 106.58 209.31 105.17C209.32 105.05 209.35 104.94 209.38 104.84L209.14 104.21Z" fill="#023248"/>
<path d="M208.34 105.51C208.17 106.92 208.93 108.85 210.03 109.82C211.13 110.79 212.15 110.43 212.32 109.02C212.49 107.61 211.73 105.68 210.63 104.71C209.53 103.74 208.5 104.1 208.34 105.51Z" fill="#005478"/>
<path d="M209.07 106.16C208.97 107.05 209.44 108.26 210.13 108.87C210.82 109.48 211.46 109.26 211.57 108.37C211.67 107.48 211.2 106.27 210.51 105.66C209.82 105.05 209.18 105.27 209.07 106.16Z" fill="#5B5C70"/>
<path d="M182.82 165.75L179.53 163.84C179.43 163.77 179.32 163.71 179.21 163.66L179.09 163.59L179.08 163.6C177.69 162.95 175.94 163.13 174.1 164.32C170.15 166.87 167.29 173.04 167.71 178.11C167.9 180.38 168.72 182.04 169.92 182.96L169.98 182.99C170.19 183.14 170.41 183.27 170.64 183.38L173.54 185.1L182.82 165.75Z" fill="#023248"/>
<path d="M185.38 170.84C185.8 175.91 182.93 182.08 178.99 184.63C175.04 187.18 171.5 185.14 171.09 180.07C170.67 175 173.54 168.83 177.48 166.28C181.43 163.74 184.96 165.78 185.38 170.84Z" fill="#005478"/>
<path d="M181.03 173.3C181.19 175.28 180.07 177.7 178.52 178.7C176.97 179.7 175.59 178.9 175.42 176.91C175.26 174.93 176.38 172.51 177.92 171.51C179.48 170.52 180.87 171.32 181.03 173.3Z" fill="#023248"/>
<path d="M168.85 187.329L170 105.999C169.99 99.4694 171.25 97.9194 173.33 96.1395C175.09 94.3695 177.66 93.0895 179.51 92.4695L181.98 91.6294L181.16 89.4395L178.69 90.2794C177.69 90.6194 174.25 91.9095 171.82 94.3695C169.13 96.6695 167.82 98.9895 167.83 105.799L166.69 187.109L168.85 187.329Z" fill="#C3CCD9"/>
<path d="M167.89 156.84C167.81 156.79 167.75 156.68 167.74 156.53C167.71 156.22 167.89 155.84 168.13 155.68C168.25 155.6 168.36 155.6 168.45 155.64H168.46L199.01 173.46L198.51 174.69L167.91 156.84H167.89Z" fill="#5B5C70"/>
<path d="M168.84 126.46C168.76 126.41 168.7 126.3 168.69 126.15C168.66 125.84 168.84 125.46 169.09 125.3C169.21 125.22 169.32 125.22 169.41 125.26H169.42L199.97 143.08L199.47 144.31L168.87 126.46H168.84Z" fill="#C3CCD9"/>
<path d="M178.69 173.99L206.39 190.15L205.53 192.24L177.73 176.03C176.7 175.38 177.9 173.54 178.69 173.99Z" fill="white"/>
<path d="M198.21 194.85L198.04 203.87L167.68 186.15L167.85 177.13L198.21 194.85Z" fill="#5B5C70"/>
<path d="M198.17 205.45L208.7 194.58L208.47 191.76L198.21 194.85L198.17 205.45Z" fill="#C3CCD9"/>
<path d="M199.21 203.17L200.5 120.86C200.73 116.15 200.78 115.03 202.31 113.27C203.31 111.64 205.4 110.28 208.47 109.19L210.93 108.31L210.08 106.13L207.62 107.01C204.08 108.27 201.7 109.87 200.55 111.78C198.65 113.94 198.57 115.61 198.33 120.55L197.3 205.68L199.21 203.17Z" fill="#C3CCD9"/>
<path d="M216.78 185.619L212.97 183.389V183.399C211.56 182.659 209.75 182.809 207.84 184.049C203.89 186.599 201.03 192.769 201.45 197.839C201.65 200.249 202.56 201.969 203.88 202.839V202.849L204 202.919C204.05 202.949 204.1 202.979 204.15 203.009L207.45 204.939L216.78 185.619Z" fill="#023248"/>
<path d="M219.12 190.579C219.54 195.649 216.67 201.819 212.73 204.369C208.78 206.919 205.24 204.879 204.83 199.809C204.41 194.739 207.28 188.569 211.22 186.019C215.17 183.469 218.7 185.509 219.12 190.579Z" fill="#005478"/>
<path d="M213.07 194.48C213.13 195.26 212.69 196.21 212.09 196.6C211.48 196.99 210.94 196.68 210.88 195.9C210.82 195.12 211.26 194.17 211.86 193.78C212.46 193.39 213.01 193.7 213.07 194.48Z" fill="#023248"/>
<path d="M126.46 200.729L167.51 224.66L167.64 226.249L126.6 202.309L126.46 200.729Z" fill="#5B5C70"/>
<path d="M167.51 224.659L203.98 203.829L162.94 179.899L126.46 200.729L167.51 224.659Z" fill="#C3CCD9"/>
<path d="M167.51 224.66L203.98 203.83L204.11 205.42L167.64 226.25L167.51 224.66Z" fill="#5B5C70"/>
<path d="M129.22 167.81L129.29 197.59L173.17 223.09L173.1 193.31L129.22 167.81Z" fill="#FFA04C"/>
<path d="M173.17 223.089L201.08 206.969V177.159L173.1 193.309L173.17 223.089Z" fill="#FFB64D"/>
<path d="M129.22 167.809L173.1 193.309L201.23 177.069L157.35 151.569L129.22 167.809Z" fill="#FFDE95"/>
<path d="M142.45 160.13L186.48 185.55V191.35L191.53 188.61V182.67L147.08 157.01L142.45 160.13Z" fill="white"/>
<path d="M165 215.51L170.26 218.54V218.3L165 215.26V215.51Z" fill="#005478"/>
<path d="M165 216.3L170.26 219.34V219.09L165 216.06V216.3Z" fill="#005478"/>
<path d="M163.99 211.59L171.27 215.79V215.15L163.99 210.95V211.59Z" fill="#005478"/>
<path d="M165 214.71L170.26 217.75V217.5L165 214.47V214.71Z" fill="#005478"/>
<path d="M165 213.12L170.26 216.15V215.91L165 212.87V213.12Z" fill="#005478"/>
<path d="M165 213.91L170.26 216.95V216.7L165 213.67V213.91Z" fill="#005478"/>
<path d="M131.15 176.06L138.84 180.5V175.61L131.15 171.17V176.06Z" fill="#C3CCD9"/>
<path d="M132.22 172.75L137.66 175.89V175.64L132.22 172.5V172.75Z" fill="#005478"/>
<path d="M132.22 176.05L137.66 179.19V178.94L132.22 175.8V176.05Z" fill="#005478"/>
<path d="M132.22 174.4L137.66 177.54V177.29L132.22 174.15V174.4Z" fill="#005478"/>
<path d="M132.22 175.23L137.66 178.37V178.11L132.22 174.97V175.23Z" fill="#005478"/>
<path d="M132.22 173.58L137.66 176.72V176.46L132.22 173.32V173.58Z" fill="#005478"/>
<path d="M170.2 193.919C169.89 193.919 169.78 194.259 169.96 194.669C170.14 195.079 170.54 195.419 170.85 195.419C171.16 195.419 171.27 195.089 171.09 194.669C170.91 194.249 170.51 193.919 170.2 193.919Z" fill="#5B5C70"/>
<path d="M167.86 192.56C167.55 192.56 167.44 192.89 167.62 193.31C167.8 193.72 168.2 194.06 168.5 194.06C168.81 194.06 168.92 193.72 168.74 193.31C168.57 192.9 168.17 192.56 167.86 192.56Z" fill="#5B5C70"/>
<path d="M165.52 191.209C165.21 191.209 165.1 191.549 165.28 191.959C165.46 192.369 165.85 192.709 166.16 192.709C166.47 192.709 166.58 192.369 166.4 191.959C166.23 191.549 165.83 191.209 165.52 191.209Z" fill="#5B5C70"/>
<path d="M141.18 147.021L141.23 168.01L172.15 185.98L172.1 164.991L141.18 147.021Z" fill="#FFA04C"/>
<path d="M172.15 185.98L191.82 174.62V153.61L172.1 164.99L172.15 185.98Z" fill="#FFB64D"/>
<path d="M141.18 147.02L172.1 164.99L191.92 153.55L161 135.58L141.18 147.02Z" fill="#FFDE95"/>
<path d="M150.5 141.61L181.53 159.53V163.61L185.09 161.68V157.5L153.77 139.41L150.5 141.61Z" fill="white"/>
<path d="M166.4 180.631L170.1 182.771V182.601L166.4 180.461V180.631Z" fill="#005478"/>
<path d="M166.4 181.201L170.1 183.34V183.161L166.4 181.021V181.201Z" fill="#005478"/>
<path d="M165.69 177.871L170.81 180.831V180.381L165.69 177.421V177.871Z" fill="#005478"/>
<path d="M166.4 180.07L170.1 182.21V182.04L166.4 179.9V180.07Z" fill="#005478"/>
<path d="M166.4 178.95L170.1 181.09V180.92L166.4 178.78V178.95Z" fill="#005478"/>
<path d="M166.4 179.511L170.1 181.651V181.481L166.4 179.341V179.511Z" fill="#005478"/>
<path d="M142.54 152.841L147.96 155.971V152.521L142.54 149.391V152.841Z" fill="#C3CCD9"/>
<path d="M143.29 150.511L147.13 152.721V152.541L143.29 150.331V150.511Z" fill="#005478"/>
<path d="M143.29 152.83L147.13 155.04V154.86L143.29 152.65V152.83Z" fill="#005478"/>
<path d="M143.29 151.67L147.13 153.88V153.7L143.29 151.49V151.67Z" fill="#005478"/>
<path d="M143.29 152.25L147.13 154.46V154.28L143.29 152.07V152.25Z" fill="#005478"/>
<path d="M143.29 151.09L147.13 153.3V153.12L143.29 150.91V151.09Z" fill="#005478"/>
<path d="M170.06 165.42C169.84 165.42 169.77 165.66 169.89 165.95C170.02 166.24 170.3 166.48 170.51 166.48C170.73 166.48 170.8 166.24 170.68 165.95C170.56 165.66 170.28 165.42 170.06 165.42Z" fill="#5B5C70"/>
<path d="M168.41 164.47C168.19 164.47 168.12 164.71 168.24 165C168.37 165.29 168.65 165.53 168.86 165.53C169.08 165.53 169.15 165.29 169.03 165C168.91 164.7 168.63 164.47 168.41 164.47Z" fill="#5B5C70"/>
<path d="M166.76 163.51C166.54 163.51 166.47 163.75 166.59 164.04C166.72 164.33 167 164.57 167.21 164.57C167.43 164.57 167.5 164.33 167.38 164.04C167.26 163.75 166.98 163.51 166.76 163.51Z" fill="#5B5C70"/>
<path d="M108.777 112.038C109.231 111.87 111.272 114.055 112.239 112.946C113.255 111.778 114.6 109.82 114.919 110.013C115.364 110.282 113.961 112.87 113.012 113.962C112.062 115.055 111.39 115.752 111.541 115.886C111.919 116.231 113.927 114.937 113.953 115.214C114.02 116.181 111.768 117.752 110.062 117.609C108.214 117.458 103.29 127.171 101.106 128.742C98.4589 130.641 95.8458 125.894 96.8961 125.07C99.9545 122.659 105.424 117.76 106.012 116.307C106.407 115.366 106.912 112.727 108.777 112.038Z" fill="#FDABAB"/>
<path d="M86.8302 126.91C91.6783 126.28 96.0475 124.339 97.4338 123.952C98.8286 123.574 102.45 128.212 100.677 129.826C96.1567 133.909 90.6196 134.968 86.595 135.405C81.8225 135.926 78.386 135.556 78.2599 132.153C78.1423 129.137 81.1335 127.658 86.8302 126.91Z" fill="white"/>
<path d="M90.4854 213.899C90.9223 214.84 90.1157 216.361 89.3343 217.041C88.4688 217.789 83.2762 222.284 79.9069 220.99C79.5036 220.831 79.0919 220.646 78.7979 220.318C78.2937 219.755 79.0079 216.705 79.5709 216.159C80.3103 215.445 90.1325 213.126 90.4854 213.899Z" fill="#FFDE95"/>
<path d="M84.4693 213.47C86.8556 212.546 89.9896 212.647 90.3509 213.42C90.7878 214.369 89.4687 215.974 88.6873 216.663C86.4439 218.629 81.9151 220.738 80.2766 220.184C79.8649 220.049 79.0919 219.747 78.7978 219.428C78.2937 218.865 78.7558 216.915 79.3608 216.327C79.9321 215.781 83.2174 213.958 84.4693 213.47Z" fill="#F95A75"/>
<path d="M83.3603 217.646C83.6207 217.646 83.8392 217.924 83.8392 218.26C83.8392 218.596 83.6291 218.873 83.3603 218.873C83.0998 218.873 82.8813 218.596 82.8813 218.26C82.8897 217.924 83.0998 217.646 83.3603 217.646Z" fill="#FFDE95"/>
<path d="M80.0918 215.688L81.0328 216.932L80.7976 217.386C80.3271 218.058 80.4027 220.268 80.4027 220.268C79.3104 220.184 78.9323 219.553 78.9323 219.553C78.655 217.377 79.5288 216.537 79.5288 216.537L80.0918 215.688Z" fill="#FFDE95"/>
<path d="M85.5027 214.445C85.6959 214.874 85.3263 216.075 83.2425 216.966C82.5031 217.285 81.5957 217.512 80.7974 217.378C80.8983 217.05 80.7554 216.663 80.4614 216.479C80.1673 216.294 79.8144 216.369 79.5371 216.529C79.6968 215.983 79.7892 215.411 79.8816 214.84C80.4698 214.949 84.8809 213.101 85.5027 214.445Z" fill="#FDABAB"/>
<path d="M86.7295 186.003C86.5867 191.859 85.1163 214.167 85.1163 214.167C85.1163 214.167 82.9233 216.2 78.7642 214.596C78.7642 214.596 77.6467 197.749 77.2686 193.615C76.8989 189.481 77.2602 185.936 77.6047 185.163C78.5457 183.07 86.8723 180.155 86.7295 186.003Z" fill="#023248"/>
<path d="M79.3104 154.806C80.3018 154.05 83.3686 153.613 86.4523 156.293C91.9977 161.116 86.6623 183.895 86.6623 187.734C86.6623 191.7 78.6718 191.322 77.7476 186.004C77.1258 182.433 75.6218 170.048 75.4285 167.804C75.2185 165.359 75.1933 157.923 79.3104 154.806Z" fill="#023248"/>
<path d="M99.6018 218.369C100.039 219.31 99.2321 220.83 98.4507 221.511C97.5853 222.259 92.3927 226.754 89.0234 225.46C88.6201 225.3 88.2084 225.116 87.9143 224.788C87.4102 224.233 88.1244 221.175 88.6873 220.629C89.4267 219.915 99.2489 217.596 99.6018 218.369Z" fill="#FFDE95"/>
<path d="M93.5858 217.94C95.972 217.016 99.1061 217.117 99.4674 217.89C99.9043 218.839 98.5851 220.444 97.8037 221.133C95.5603 223.108 91.0315 225.208 89.3931 224.662C88.9814 224.527 88.2084 224.225 87.9143 223.906C87.4102 223.343 87.8723 221.393 88.4772 220.805C89.0486 220.251 92.3339 218.427 93.5858 217.94Z" fill="#F95A75"/>
<path d="M92.4853 222.116C92.7457 222.116 92.9642 222.393 92.9642 222.73C92.9642 223.074 92.7541 223.343 92.4853 223.343C92.2248 223.343 92.0063 223.066 92.0063 222.73C92.0063 222.393 92.2164 222.116 92.4853 222.116Z" fill="#FFDE95"/>
<path d="M89.2083 220.158L90.1494 221.402L89.9057 221.847C89.4352 222.519 89.5108 224.729 89.5108 224.729C88.4185 224.645 88.0404 224.015 88.0404 224.015C87.7632 221.83 88.637 220.998 88.637 220.998L89.2083 220.158Z" fill="#FFDE95"/>
<path d="M94.6109 218.923C94.8041 219.351 94.4344 220.553 92.3507 221.443C91.6113 221.763 90.7038 221.99 89.9056 221.855C90.0064 221.527 89.8636 221.141 89.5695 220.956C89.2754 220.78 88.9225 220.847 88.6453 221.007C88.8049 220.46 88.8973 219.889 88.9982 219.318C89.5863 219.419 93.9975 217.57 94.6109 218.923Z" fill="#FDABAB"/>
<path d="M95.6022 190.826C95.4594 196.682 94.0226 218.621 94.0226 218.621C94.0226 218.621 91.8548 221.746 87.6957 220.133C87.6957 220.133 86.5194 202.581 86.1413 198.438C85.7716 194.304 86.0069 190.078 86.3514 189.305C87.3008 187.213 95.7451 184.978 95.6022 190.826Z" fill="#005478"/>
<path d="M86.7296 159.88C87.7295 159.124 91.5189 156.973 94.6782 159.561C98.9381 163.065 95.5436 188.717 95.5436 192.557C95.5436 196.523 87.5531 196.144 86.6288 190.826C86.007 187.255 83.6544 171.795 83.4612 169.56C83.2511 167.115 82.6125 162.989 86.7296 159.88Z" fill="#005478"/>
<path d="M83.6963 171.543C83.5702 170.61 83.4862 169.913 83.4526 169.56C83.2426 167.115 82.604 162.989 86.7211 159.88C87.721 159.124 91.5104 156.973 94.6696 159.561C95.8375 160.519 92.9303 167.879 83.6963 171.543Z" fill="#023248"/>
<path d="M76.6888 142.648C75.7814 136.573 76.0755 128.255 82.604 128.255C85.8305 128.255 96.4509 130.927 96.4509 137.791C96.4509 143.807 95.4174 157.217 97.0979 164.418C97.0979 164.418 79.8061 168.182 75 162.628C75 162.637 77.5963 148.723 76.6888 142.648Z" fill="#576DFC"/>
<path d="M87.0993 117.298C87.7295 116.895 93.1741 116.945 93.2414 117.744C93.3086 118.542 92.544 119.676 92.838 120.424C93.0397 120.945 93.2834 122.062 92.8633 122.76C91.4517 125.104 90.4854 127.078 88.9646 126.633C88.5781 128.238 90.0653 130.086 89.8637 130.053C88.721 129.893 85.5281 128.776 84.4946 128.238C85.0408 124.659 84.1501 121.945 86.049 118.559C86.3179 118.071 86.6288 117.592 87.0993 117.298Z" fill="#FDABAB"/>
<path d="M85.3935 113.408C85.3935 110.652 90.3928 111.24 90.3256 113.332C92.5354 112.072 95.5938 115.029 93.5773 118.878C93.5773 118.878 93.174 117.651 92.3085 118.063C92.3085 120.062 90.9558 118.936 90.4852 121.23C90.1996 122.633 89.7542 124.112 88.4939 124.952C87.4184 125.675 84.6709 124.936 84.6709 124.936C84.6709 122.995 81.0999 119.869 82.2258 117.811C81.1167 115.08 83.3685 113.105 85.3935 113.408Z" fill="#023248"/>
<path d="M84.8138 126.633C86.0322 126.7 87.1077 126.91 89.704 128.238C90.3509 128.566 91.1155 129.658 91.0903 130.784L83.125 128.238L83.856 127.12C84.0661 126.801 84.4273 126.608 84.8138 126.633Z" fill="white"/>
<path d="M102.685 161.989C103.038 162.266 103.954 163.434 104.593 163.207C105.945 162.728 107.702 162.619 107.542 163.216C107.466 163.51 105.845 164.005 105.181 164.476C104.593 164.896 105.542 165.14 105.861 165.627C106.718 166.946 107.592 169.534 107.786 170.484C107.912 171.097 106.408 169.677 105.819 167.971C105.105 165.871 105.534 168.887 105.063 169.223C104.282 169.778 101.837 168.912 100.929 168.559C100.434 168.375 100.123 167.181 100.509 165.997C100.543 165.904 101.055 165.123 99.5766 163.753C96.4761 160.871 89.6367 153.99 89.6367 153.99L93.9303 150.78C93.9219 150.78 99.9967 159.914 102.685 161.989Z" fill="#FDABAB"/>
<path d="M92.6866 132.749C95.5014 133.438 96.0811 136.589 95.2661 142.034C94.5771 146.672 94.7956 149.839 94.7872 151.226C94.7704 152.612 89.9643 156.108 88.9476 154.041C86.3682 148.798 86.8471 143.412 87.4941 139.58C88.2671 135.043 89.519 131.968 92.6866 132.749Z" fill="white"/>
</g>
<path d="M25.784 41V48.536H24.08V41.096H20.336V61.136H24.08V52.376H25.784V61.496H29.576V41H25.784ZM13.496 56.96V41.432H9.536V60.536H14.24C15.968 60.536 18.152 60.32 19.376 59.816V56.264C18.128 56.72 16.208 56.96 14.6 56.96H13.496ZM51.5099 44.528V41H47.4539V52.568H51.5099V48.464H53.9099V44.528H51.5099ZM45.2219 41.24H41.2859V43.28H36.6539V41.24H32.7179V51.8H45.2219V41.24ZM36.6539 48.536V46.448H41.2859V48.536H36.6539ZM42.4619 52.904C37.3019 52.904 33.2219 54.032 33.2219 57.32C33.2219 60.608 37.3019 61.736 42.4619 61.736C47.6219 61.736 51.7019 60.608 51.7019 57.32C51.7019 54.032 47.6219 52.904 42.4619 52.904ZM42.4619 58.544C39.7499 58.544 37.5899 58.232 37.5899 57.32C37.5899 56.432 39.7499 56.096 42.4619 56.096C45.1739 56.096 47.3339 56.432 47.3339 57.32C47.3339 58.232 45.1739 58.544 42.4619 58.544ZM75.1719 41H71.1159V61.496H75.1719V41ZM60.4359 41.36H56.2599V60.536H64.7319C66.6999 60.536 68.7879 60.176 70.0359 59.552V55.856C68.7879 56.456 66.6759 56.84 64.7319 56.84H60.4359V41.36ZM97.6818 44.528V41H93.6258V52.568H97.6818V48.464H100.082V44.528H97.6818ZM91.3938 41.24H87.4578V43.28H82.8258V41.24H78.8898V51.8H91.3938V41.24ZM82.8258 48.536V46.448H87.4578V48.536H82.8258ZM88.6338 52.904C83.4738 52.904 79.3938 54.032 79.3938 57.32C79.3938 60.608 83.4738 61.736 88.6338 61.736C93.7938 61.736 97.8738 60.608 97.8738 57.32C97.8738 54.032 93.7938 52.904 88.6338 52.904ZM88.6338 58.544C85.9218 58.544 83.7618 58.232 83.7618 57.32C83.7618 56.432 85.9218 56.096 88.6338 56.096C91.3458 56.096 93.5058 56.432 93.5058 57.32C93.5058 58.232 91.3458 58.544 88.6338 58.544ZM30.824 72.488H28.424V65H24.368V85.496H28.424V76.424H30.824V72.488ZM9.872 84.536H21.8V65.48H9.872V84.536ZM13.928 69.248H17.744V80.768H13.928V69.248ZM52.6619 65H48.8699V79.472H52.6619V65ZM41.2859 73.352H43.7099V76.448H47.4539V65.096H43.7099V69.656H41.9339V69.632V65.24H32.5019V68.6H38.1899V69.656V69.992H32.5019V73.28H37.3259C36.4859 74.504 34.9499 75.056 32.5019 75.08V78.488C36.6779 78.488 39.9419 76.736 41.2859 73.352ZM53.5979 82.16L45.3179 79.52C45.6299 78.944 45.8699 78.344 46.0379 77.696L41.9819 76.904C41.1419 79.928 37.6859 81.704 33.6059 81.704V85.496C37.1819 85.496 40.6139 84.464 43.0379 82.376L52.2779 85.736L53.5979 82.16ZM30.824 96.488H28.424V89H24.368V109.496H28.424V100.424H30.824V96.488ZM17.816 95.504H13.856V89.48H9.872V108.536H21.8V89.48H17.816V95.504ZM13.856 104.816V99.2H17.816V104.816H13.856ZM44.6939 105.08V102.776H52.1099V99.224H37.4219V97.808H51.8699V89.48H33.3659V93.032H47.8619V94.424H33.4139V102.776H40.5659V105.08H32.2619V108.776H52.9979V105.08H44.6939ZM76.9959 96.488H74.5959V89H70.5399V109.496H74.5959V100.424H76.9959V96.488ZM55.9239 93.176H63.3879V95.024C63.3879 101.024 60.8439 104.648 55.9239 104.696V108.536C63.0279 108.536 67.5159 103.352 67.5159 95.024V89.48H55.9239V93.176ZM98.2578 89H94.2018V109.496H98.2578V89ZM91.0338 89.48H79.2258V93.176H86.8818V95.024C86.8818 100.952 84.1938 104.648 79.2258 104.696V108.536C86.4018 108.536 91.0338 103.352 91.0338 95.024V89.48Z" fill="#6F22D2"/>
<path d="M18.212 11.04V9H16.184V16.584H18.212V13.008H19.412V11.04H18.212ZM15.704 14.592V12.912C15.164 13.128 14.264 13.248 13.34 13.248H10.856V10.836H15.116V9.12H8.816V14.952H13.256C14.216 14.952 15.176 14.82 15.704 14.592ZM11.228 15.66H9.164V19.248H18.356V17.424H11.228V15.66ZM30.043 9H28.015V19.248H30.043V9ZM26.431 9.24H20.527V11.088H24.355V12.012C24.355 14.976 23.011 16.824 20.527 16.848V18.768C24.115 18.768 26.431 16.176 26.431 12.012V9.24ZM34.5299 12.972L36.1379 14.52L37.1819 13.488V14.628H39.0539V12.456H39.9779V14.964H41.8739V9H39.9779V10.608H39.0539V9.048H37.1819V13.008L35.2259 11.196C35.3699 10.572 35.4419 9.9 35.4419 9.156L33.5219 9.084C33.5219 11.436 32.6939 12.828 31.6499 12.996V14.808C32.8379 14.772 33.8579 14.1 34.5299 12.972ZM37.1579 14.976C34.4699 14.976 32.3459 15.552 32.3459 17.172C32.3459 18.792 34.4699 19.368 37.1579 19.368C39.8459 19.368 41.9699 18.792 41.9699 17.172C41.9699 15.552 39.8459 14.976 37.1579 14.976ZM37.1579 17.772C35.7059 17.772 34.5059 17.628 34.5059 17.172C34.5059 16.728 35.7059 16.572 37.1579 16.572C38.6099 16.572 39.8099 16.728 39.8099 17.172C39.8099 17.628 38.6099 17.772 37.1579 17.772ZM50.0329 9.276H47.6449V8.688H45.5569V9.276H43.1929V10.512H50.0329V9.276ZM52.8649 10.632V9H50.8369V15.024H52.8649V12.468H54.0409V10.632H52.8649ZM50.2489 14.652V13.428C49.6129 13.692 48.5569 13.788 47.6089 13.788V13.464C48.8449 13.308 49.6729 12.864 49.6729 12.108C49.6729 11.16 48.3889 10.704 46.6249 10.704C44.8609 10.704 43.5769 11.16 43.5769 12.108C43.5769 12.864 44.3929 13.308 45.6169 13.452V13.788H43.2169V15.024H47.5609C48.5809 15.024 49.6129 14.928 50.2489 14.652ZM45.4489 12.108C45.4489 11.94 45.9169 11.856 46.6249 11.856C47.3329 11.856 47.8009 11.94 47.8009 12.108C47.8009 12.276 47.3329 12.36 46.6249 12.36C45.9169 12.36 45.4489 12.276 45.4489 12.108ZM45.8089 17.784H52.8649V15.384H43.7929V16.476H50.8729V16.836H43.8169V19.248H52.9849V18.144H45.8089V17.784ZM63.2199 13.476V12.528C64.0959 12.192 64.6239 11.664 64.6239 10.908C64.6239 9.432 62.6439 8.832 59.9439 8.832C57.2439 8.832 55.2639 9.432 55.2639 10.908C55.2639 11.664 55.7919 12.192 56.6679 12.528V13.476H54.7599V15.012H65.1279V13.476H63.2199ZM59.9439 10.344C61.4799 10.344 62.4639 10.524 62.4639 10.908C62.4639 11.304 61.4799 11.472 59.9439 11.472C58.4079 11.472 57.4239 11.304 57.4239 10.908C57.4239 10.524 58.4079 10.344 59.9439 10.344ZM58.6719 12.936C59.0679 12.972 59.4999 12.984 59.9439 12.984C60.3879 12.984 60.8199 12.972 61.2159 12.936V13.476H58.6719V12.936ZM59.9439 15.36C57.1839 15.36 55.2639 15.888 55.2639 17.364C55.2639 18.84 57.1839 19.368 59.9439 19.368C62.7039 19.368 64.6239 18.84 64.6239 17.364C64.6239 15.888 62.7039 15.36 59.9439 15.36ZM59.9439 17.856C58.4559 17.856 57.4239 17.736 57.4239 17.364C57.4239 17.004 58.4559 16.872 59.9439 16.872C61.4319 16.872 62.4639 17.004 62.4639 17.364C62.4639 17.736 61.4319 17.856 59.9439 17.856ZM76.1428 11.592H74.5708V10.524H76.0348V9H66.9388V10.524H68.4028V11.592H66.8308V13.116H76.1428V11.592ZM70.4188 10.524H72.5548V11.592H70.4188V10.524ZM76.6708 15.12V13.584H66.3028V15.12H70.4788V15.66H66.9028V19.248H76.0708V15.66H72.4948V15.12H76.6708ZM74.0668 17.76H68.9068V17.148H74.0668V17.76ZM87.7578 9H85.7298V19.248H87.7578V9ZM81.3738 9.12C79.4418 9.12 78.1458 10.632 78.1458 14.004C78.1458 17.376 79.4418 18.888 81.3738 18.888C83.3058 18.888 84.5898 17.376 84.5898 14.004C84.5898 10.632 83.3058 9.12 81.3738 9.12ZM81.3738 10.98C82.0458 10.98 82.5858 11.712 82.5858 14.004C82.5858 16.308 82.0458 17.028 81.3738 17.028C80.6898 17.028 80.1498 16.308 80.1498 14.004C80.1498 11.712 80.6898 10.98 81.3738 10.98ZM18.5 21H16.472V26.136H18.5V21ZM16.004 25.56V24.048C15.692 24.168 15.26 24.264 14.768 24.324V22.668H15.68V21.12H8.78V22.668H9.68V24.384H8.708V25.92H13.4C14.372 25.92 15.476 25.788 16.004 25.56ZM11.588 22.668H12.86V24.384H11.588V22.668ZM11.348 29.868V29.472H18.5V26.496H9.32V27.876H16.496V28.272H9.344V31.248H18.608V29.868H11.348ZM28.495 29.028V26.808C29.515 26.232 30.103 25.344 30.103 24.276C30.103 22.344 28.195 21.012 25.315 21.012C22.435 21.012 20.527 22.344 20.527 24.276C20.527 25.344 21.115 26.232 22.135 26.808V29.028H20.131V30.888H30.499V29.028H28.495ZM25.315 22.836C26.863 22.836 27.955 23.4 27.955 24.276C27.955 25.14 26.863 25.716 25.315 25.716C23.767 25.716 22.675 25.14 22.675 24.276C22.675 23.4 23.767 22.836 25.315 22.836ZM24.163 27.456C24.523 27.504 24.907 27.528 25.315 27.528C25.723 27.528 26.107 27.504 26.467 27.456V29.028H24.163V27.456ZM36.2579 20.964H34.1819V22.236H31.8899V24.084H38.5379V22.236H36.2579V20.964ZM42.4979 24.744H41.2979V21H39.2699V31.248H41.2979V26.712H42.4979V24.744ZM35.2139 24.504C33.3659 24.504 32.2379 25.884 32.2379 27.696C32.2379 29.52 33.3659 30.888 35.2139 30.888C37.0619 30.888 38.1899 29.52 38.1899 27.696C38.1899 25.884 37.0619 24.504 35.2139 24.504ZM35.2139 29.148C34.5539 29.148 34.1699 28.572 34.1699 27.696C34.1699 26.82 34.5539 26.244 35.2139 26.244C35.8739 26.244 36.2579 26.82 36.2579 27.696C36.2579 28.572 35.8739 29.148 35.2139 29.148ZM54.0409 24.744H52.8409V21H50.8129V31.248H52.8409V26.712H54.0409V24.744ZM45.6289 28.932V23.076H49.5289V21.24H43.5649V30.768H47.5369C48.5209 30.768 49.7089 30.6 50.3329 30.288V28.476C49.7089 28.764 48.6529 28.932 47.6809 28.932H45.6289ZM62.7279 28.596H64.7199V21H62.7279V21.744H61.6359V23.532H62.7279V24.336H61.6359V26.124H62.7279V28.596ZM61.1559 21.12H55.0479V26.952H61.1559V21.12ZM59.1639 25.236H57.0399V22.836H59.1639V25.236ZM57.6159 29.436V27.66H55.5519V31.248H64.8639V29.436H57.6159ZM68.4988 27.84H70.4788C70.4788 27.168 70.7548 26.736 71.6308 26.052C72.4108 25.452 72.8428 24.744 72.8428 23.856C72.8428 22.224 71.6668 21.036 69.5908 21.036C67.6468 21.036 66.2788 22.332 66.2788 24.06H68.3668C68.3668 23.448 68.7988 22.884 69.6028 22.884C70.3588 22.884 70.7908 23.256 70.7908 23.856C70.7908 24.432 70.4068 24.792 69.6988 25.332C68.8228 25.992 68.4988 26.652 68.4988 27.84ZM69.5548 31.248C70.2868 31.248 70.8268 30.72 70.8268 29.988C70.8268 29.256 70.2868 28.716 69.5548 28.716C68.8228 28.716 68.2828 29.256 68.2828 29.988C68.2828 30.72 68.8228 31.248 69.5548 31.248Z" fill="#888888"/>
<defs>
<clipPath id="clip0">
<rect width="180.73" height="209.89" fill="white" transform="translate(59 18)"/>
</clipPath>
</defs>
</svg>
