<svg width="28" height="28" viewBox="0 0 28 28" fill="none" xmlns="http://www.w3.org/2000/svg">
<path d="M14 9.33329C11.4216 9.33329 9.33329 11.4216 9.33329 14C9.33329 16.5783 11.4216 18.6666 14 18.6666C16.5783 18.6666 18.6666 16.5783 18.6666 14C18.6666 11.4216 16.5783 9.33329 14 9.33329ZM24.43 12.8333C24.1657 10.4674 23.1048 8.26175 21.4215 6.57843C19.7382 4.89512 17.5325 3.83422 15.1666 3.56996V2.33329C15.1666 1.69163 14.6416 1.16663 14 1.16663C13.3583 1.16663 12.8333 1.69163 12.8333 2.33329V3.56996C10.4674 3.83422 8.26175 4.89512 6.57843 6.57843C4.89512 8.26175 3.83422 10.4674 3.56996 12.8333H2.33329C1.69163 12.8333 1.16663 13.3583 1.16663 14C1.16663 14.6416 1.69163 15.1666 2.33329 15.1666H3.56996C3.83422 17.5325 4.89512 19.7382 6.57843 21.4215C8.26175 23.1048 10.4674 24.1657 12.8333 24.43V25.6666C12.8333 26.3083 13.3583 26.8333 14 26.8333C14.6416 26.8333 15.1666 26.3083 15.1666 25.6666V24.43C17.5325 24.1657 19.7382 23.1048 21.4215 21.4215C23.1048 19.7382 24.1657 17.5325 24.43 15.1666H25.6666C26.3083 15.1666 26.8333 14.6416 26.8333 14C26.8333 13.3583 26.3083 12.8333 25.6666 12.8333H24.43ZM14 22.1666C9.48496 22.1666 5.83329 18.515 5.83329 14C5.83329 9.48496 9.48496 5.83329 14 5.83329C18.515 5.83329 22.1666 9.48496 22.1666 14C22.1666 18.515 18.515 22.1666 14 22.1666Z" fill="#888888"/>
</svg>
