<svg width="320" height="160" viewBox="0 0 320 160" fill="none" xmlns="http://www.w3.org/2000/svg">
<path d="M0 0H320V160H0V0Z" fill="#FAD143"/>
<g clip-path="url(#clip0)">
<path fill-rule="evenodd" clip-rule="evenodd" d="M268.986 64.6468C268.563 64.3261 267.978 64.3261 267.555 64.6468L237.148 87.7C236.243 88.3858 236.728 89.8283 237.863 89.8283H242.916V124.022C242.916 124.84 243.578 125.503 244.396 125.503H292.831C293.649 125.503 294.311 124.84 294.311 124.022V89.8283H298.678C299.813 89.8283 300.298 88.3858 299.393 87.7L268.986 64.6468Z" fill="#7B3ACF"/>
<path d="M269.011 104.982V107.975C269.011 108.947 269.799 109.735 270.772 109.735V109.735C271.744 109.735 272.532 108.947 272.532 107.975V100.809C272.532 99.6095 271.56 98.6372 270.361 98.6372H267.026C265.827 98.6372 264.855 99.6095 264.855 100.809V116.735C264.855 117.935 265.827 118.907 267.026 118.907H278.038C279.238 118.907 280.21 117.935 280.21 116.735V92.4624C280.21 91.263 279.238 90.2908 278.038 90.2908H258.807C257.607 90.2908 256.635 91.263 256.635 92.4624V123.651C256.635 124.85 257.607 125.822 258.807 125.822H280.21" stroke="#60309E" stroke-width="2" stroke-linecap="round"/>
<path fill-rule="evenodd" clip-rule="evenodd" d="M217.403 54C216.913 54 216.515 54.3977 216.515 54.8883V59.2127C216.515 59.7033 216.913 60.101 217.403 60.101H218.125V69.7734H217.117C216.299 69.7734 215.636 70.4363 215.636 71.254V123.841C215.636 129.401 220.144 133.909 225.704 133.909H243.305C243.308 133.909 243.311 133.906 243.311 133.902C243.311 133.901 243.312 133.899 243.313 133.898C243.314 133.897 243.315 133.896 243.317 133.896H290.294C292.582 133.896 294.436 132.042 294.436 129.755C294.436 126.895 292.118 124.578 289.259 124.578H244.792C243.974 124.578 243.311 123.915 243.311 123.097V71.254C243.311 70.4363 242.648 69.7734 241.83 69.7734H240.529V60.101H241.104C241.595 60.101 241.993 59.7033 241.993 59.2127V54.8883C241.993 54.3977 241.595 54 241.104 54H236.878C236.387 54 235.989 54.3977 235.989 54.8883V59.2127C235.989 59.7033 236.387 60.101 236.878 60.101H237.747V69.7734H220.908V60.101H221.63C222.121 60.101 222.519 59.7033 222.519 59.2127V54.8883C222.519 54.3977 222.121 54 221.63 54H217.403Z" fill="white"/>
<rect x="221.053" y="85.398" width="3.07565" height="4.91059" rx="0.592231" fill="#222222"/>
<rect x="234.964" y="85.398" width="3.07565" height="4.91059" rx="0.592231" fill="#222222"/>
<rect x="225.153" y="95.9631" width="8.93205" height="1.78567" rx="0.592231" fill="#222222"/>
<ellipse cx="217.173" cy="94.8472" rx="4.17317" ry="4.24096" fill="#FFCACA"/>
<ellipse cx="241.773" cy="94.8472" rx="4.17317" ry="4.24096" fill="#FFCACA"/>
</g>
<path d="M40.492 54.208C40.4053 55.6813 40.2493 57.042 40.024 58.29L46.342 65.908L42.936 68.612L38.49 62.944C37.5887 64.764 36.4533 66.168 35.084 67.156C33.7147 68.144 32.198 68.6467 30.534 68.664V64.348C31.5913 64.244 32.5187 63.7587 33.316 62.892C34.1133 62.0253 34.746 60.8467 35.214 59.356C35.6993 57.848 35.9853 56.132 36.072 54.208H31.028V50.152H36.046V47.422H40.544V50.152H45.276V54.208H40.492ZM51.854 47.5V69.704H47.46V60.266H43.742V56.106H47.46V47.5H51.854ZM66.5158 47.136C69.6184 47.136 72.0798 47.5087 73.8998 48.254C75.7371 48.9993 76.6558 50.1347 76.6558 51.66C76.6558 53.1853 75.7371 54.3207 73.8998 55.066C72.0798 55.8113 69.6184 56.184 66.5158 56.184C63.4131 56.184 60.9431 55.8113 59.1058 55.066C57.2858 54.3207 56.3758 53.1853 56.3758 51.66C56.3758 50.1347 57.2858 48.9993 59.1058 48.254C60.9431 47.5087 63.4131 47.136 66.5158 47.136ZM66.5158 50.438C64.7998 50.438 63.4564 50.542 62.4858 50.75C61.5324 50.958 61.0558 51.2613 61.0558 51.66C61.0558 52.076 61.5324 52.388 62.4858 52.596C63.4391 52.7867 64.7824 52.882 66.5158 52.882C68.2491 52.882 69.5924 52.7867 70.5458 52.596C71.4991 52.388 71.9758 52.076 71.9758 51.66C71.9758 51.2613 71.4904 50.958 70.5198 50.75C69.5664 50.542 68.2318 50.438 66.5158 50.438ZM77.7478 60.37H55.2838V56.99H77.7478V60.37ZM76.4478 69.704H56.5838V61.514H76.4478V69.704ZM72.1058 66.402V64.816H60.9258V66.402H72.1058ZM101.77 69.704H97.3755V47.5H101.77V69.704ZM87.9375 47.76C90.1042 47.76 91.8029 48.644 93.0335 50.412C94.2815 52.1627 94.9055 54.806 94.9055 58.342C94.9055 61.878 94.2815 64.53 93.0335 66.298C91.8029 68.0487 90.1042 68.924 87.9375 68.924C85.7709 68.924 84.0635 68.0487 82.8155 66.298C81.5675 64.53 80.9435 61.878 80.9435 58.342C80.9435 54.806 81.5675 52.1627 82.8155 50.412C84.0635 48.644 85.7709 47.76 87.9375 47.76ZM87.9375 51.79C86.1695 51.79 85.2855 53.974 85.2855 58.342C85.2855 62.71 86.1695 64.894 87.9375 64.894C89.6882 64.894 90.5635 62.71 90.5635 58.342C90.5635 56.0193 90.3209 54.3467 89.8355 53.324C89.3675 52.3013 88.7349 51.79 87.9375 51.79ZM128.755 59.876H126.155V69.704H121.761V47.5H126.155V55.612H128.755V59.876ZM114.975 64.712C116.033 64.712 117.081 64.6253 118.121 64.452C119.179 64.2613 120.045 64.01 120.721 63.698V67.598C120.063 67.9273 119.187 68.1873 118.095 68.378C117.021 68.5687 115.937 68.664 114.845 68.664H106.057V56.34H114.325V51.972H106.005V48.02H118.693V60.24H110.425V64.712H114.975ZM147.577 58.602H145.211V54.728H147.577V52.986H145.211V49.112H147.577V47.5H151.893V63.958H147.577V58.602ZM144.171 60.396H130.937V47.76H144.171V60.396ZM139.855 51.478H135.253V56.678H139.855V51.478ZM152.205 65.778V69.704H132.029V61.93H136.501V65.778H152.205ZM160.081 62.32C160.081 61.0373 160.271 59.9887 160.653 59.174C161.051 58.3593 161.727 57.5967 162.681 56.886C163.53 56.2273 164.137 55.6813 164.501 55.248C164.865 54.7973 165.047 54.2773 165.047 53.688C165.047 53.0293 164.821 52.518 164.371 52.154C163.92 51.7727 163.287 51.582 162.473 51.582C161.641 51.582 160.982 51.8333 160.497 52.336C160.029 52.8213 159.795 53.4193 159.795 54.13H155.271C155.271 52.8993 155.574 51.79 156.181 50.802C156.805 49.7967 157.654 49.008 158.729 48.436C159.821 47.864 161.06 47.578 162.447 47.578C163.92 47.578 165.185 47.838 166.243 48.358C167.3 48.878 168.106 49.606 168.661 50.542C169.215 51.4607 169.493 52.5093 169.493 53.688C169.493 55.508 168.617 57.094 166.867 58.446C165.913 59.1913 165.255 59.8413 164.891 60.396C164.544 60.9507 164.371 61.592 164.371 62.32H160.081ZM162.369 69.704C161.571 69.704 160.913 69.444 160.393 68.924C159.873 68.4213 159.613 67.7713 159.613 66.974C159.613 66.1767 159.873 65.518 160.393 64.998C160.913 64.478 161.571 64.218 162.369 64.218C163.166 64.218 163.825 64.478 164.345 64.998C164.865 65.518 165.125 66.1767 165.125 66.974C165.125 67.7713 164.865 68.4213 164.345 68.924C163.825 69.444 163.166 69.704 162.369 69.704ZM51.724 90.734H31.574V77.76H51.464V81.322H35.916V82.57H51.1V85.898H35.916V87.172H51.724V90.734ZM52.738 96.012H48.032V100.224H43.664V96.012H39.348V100.224H34.98V96.012H30.274V92.112H52.738V96.012ZM77.7478 94.946V98.924H55.2838V94.946H64.2798V92.528H56.5318V78.02H76.5258V81.842H60.8738V83.454H76.1618V87.068H60.8738V88.706H76.7858V92.528H68.7518V94.946H77.7478ZM101.77 99.704H97.3755V77.5H101.77V99.704ZM94.1515 90.24H85.6495V94.712H90.4595C91.4995 94.712 92.5482 94.6167 93.6055 94.426C94.6629 94.218 95.5295 93.958 96.2055 93.646V97.598C95.5469 97.9273 94.6715 98.1873 93.5795 98.378C92.5049 98.5687 91.4042 98.664 90.2775 98.664H81.2815V86.34H89.7835V81.972H81.2295V78.02H94.1515V90.24ZM119.109 84.78C118.659 85.872 117.844 86.73 116.665 87.354C115.504 87.978 114.083 88.29 112.401 88.29C110.98 88.29 109.732 88.0647 108.657 87.614C107.6 87.1633 106.785 86.5393 106.213 85.742C105.641 84.9273 105.355 83.9827 105.355 82.908C105.355 81.8507 105.641 80.9147 106.213 80.1C106.785 79.2853 107.6 78.6527 108.657 78.202C109.732 77.7513 110.98 77.526 112.401 77.526C114.013 77.526 115.391 77.812 116.535 78.384C117.679 78.956 118.494 79.7533 118.979 80.776H122.489V77.5H126.883V88.368H122.489V84.78H119.109ZM109.697 82.908C109.697 83.4973 109.94 83.9653 110.425 84.312C110.911 84.6587 111.569 84.832 112.401 84.832C113.233 84.832 113.892 84.6587 114.377 84.312C114.863 83.9653 115.105 83.4973 115.105 82.908C115.105 82.3187 114.863 81.8507 114.377 81.504C113.892 81.1573 113.233 80.984 112.401 80.984C111.569 80.984 110.911 81.1573 110.425 81.504C109.94 81.8507 109.697 82.3187 109.697 82.908ZM127.117 96.662V99.704H107.305V93.074H122.541V92.19H107.253V89.148H126.883V95.778H111.647V96.662H127.117ZM52.738 124.816V128.924H30.274V124.816H39.27V121.436H31.496V108.02H35.812V110.854H47.2V108.02H51.516V121.436H43.742V124.816H52.738ZM35.812 117.51H47.2V114.728H35.812V117.51ZM71.9498 112.102H56.4538V108.02H76.5258V122.658H71.9498V112.102ZM77.7478 124.816V128.924H55.2838V124.816H62.5118V116.132H67.0618V124.816H77.7478ZM111.033 119.876H108.433V129.704H104.039V107.5H108.433V115.612H111.033V119.876ZM88.2046 108.02H100.763V114.026C100.763 117.007 100.251 119.599 99.2286 121.8C98.206 124.001 96.75 125.7 94.8606 126.896C92.9713 128.075 90.7526 128.664 88.2046 128.664V124.504C90.8393 124.487 92.8413 123.559 94.2106 121.722C95.5973 119.885 96.2906 117.319 96.2906 114.026V112.024H88.2046V108.02ZM136.042 119.876H133.442V129.704H129.048V107.5H133.442V115.612H136.042V119.876ZM122.704 112.05C122.652 114.078 122.47 115.933 122.158 117.614L128.502 125.986L125.018 128.56L120.65 122.554C119.749 124.495 118.614 125.995 117.244 127.052C115.892 128.109 114.393 128.647 112.746 128.664V124.244C113.821 124.123 114.766 123.551 115.58 122.528C116.395 121.488 117.036 120.075 117.504 118.29C117.972 116.487 118.232 114.407 118.284 112.05H113.37V108.02H127.358V112.05H122.704ZM142.046 122.32H138.822L137.626 108.15H143.242L142.046 122.32ZM140.434 124.218C141.232 124.218 141.89 124.478 142.41 124.998C142.93 125.518 143.19 126.177 143.19 126.974C143.19 127.771 142.93 128.421 142.41 128.924C141.89 129.444 141.232 129.704 140.434 129.704C139.637 129.704 138.978 129.444 138.458 128.924C137.938 128.421 137.678 127.771 137.678 126.974C137.678 126.177 137.938 125.518 138.458 124.998C138.978 124.478 139.637 124.218 140.434 124.218Z" fill="white"/>
<path d="M31.328 31.336H30.092V38.188H30.812C31.94 38.188 33.188 38.128 34.64 37.864L34.508 36.808C33.332 37.024 32.288 37.108 31.328 37.132V31.336ZM37.652 30.088V34.396H36.368V30.304H35.204V40.384H36.368V35.416H37.652V40.924H38.828V30.088H37.652ZM44.9111 34.828H42.2591V33.244H44.9111V34.828ZM46.1351 30.772H44.9111V32.272H42.2591V30.772H41.0231V35.812H46.1351V30.772ZM45.6191 39.964C44.1071 39.964 43.2311 39.58 43.2311 38.872C43.2311 38.176 44.1071 37.792 45.6191 37.792C47.1311 37.792 48.0071 38.176 48.0071 38.872C48.0071 39.58 47.1311 39.964 45.6191 39.964ZM45.6191 36.808C43.3871 36.808 42.0071 37.588 42.0071 38.872C42.0071 40.168 43.3871 40.936 45.6191 40.936C47.8511 40.936 49.2311 40.168 49.2311 38.872C49.2311 37.588 47.8511 36.808 45.6191 36.808ZM49.1111 32.728V30.088H47.8751V36.556H49.1111V33.748H50.6471V32.728H49.1111ZM53.5501 31.144H52.3261V38.188H53.2501C54.9301 38.188 56.6821 38.056 58.5421 37.672L58.4101 36.64C56.7061 36.988 55.0861 37.12 53.5501 37.132V31.144ZM59.4061 30.088V40.924H60.6421V30.088H59.4061ZM66.9892 34.828H64.3372V33.244H66.9892V34.828ZM68.2132 30.772H66.9892V32.272H64.3372V30.772H63.1012V35.812H68.2132V30.772ZM67.6972 39.964C66.1852 39.964 65.3092 39.58 65.3092 38.872C65.3092 38.176 66.1852 37.792 67.6972 37.792C69.2092 37.792 70.0852 38.176 70.0852 38.872C70.0852 39.58 69.2092 39.964 67.6972 39.964ZM67.6972 36.808C65.4652 36.808 64.0852 37.588 64.0852 38.872C64.0852 40.168 65.4652 40.936 67.6972 40.936C69.9292 40.936 71.3092 40.168 71.3092 38.872C71.3092 37.588 69.9292 36.808 67.6972 36.808ZM71.1892 32.728V30.088H69.9532V36.556H71.1892V33.748H72.7252V32.728H71.1892ZM80.2556 30.988H79.0196V32.764C79.0196 34.768 77.9636 36.82 76.2716 37.648L77.0276 38.644C78.2636 38.008 79.1756 36.748 79.6436 35.248C80.1116 36.664 80.9756 37.84 82.1396 38.44L82.8956 37.456C81.2636 36.652 80.2556 34.696 80.2556 32.764V30.988ZM86.5436 34.384H84.8516V30.088H83.6156V40.924H84.8516V35.404H86.5436V34.384ZM92.3746 39.976C90.7906 39.976 89.9026 39.64 89.9026 38.98C89.9026 38.332 90.7906 37.984 92.3746 37.984C93.9586 37.984 94.8586 38.332 94.8586 38.98C94.8586 39.64 93.9586 39.976 92.3746 39.976ZM92.3746 37.036C90.0466 37.036 88.6426 37.744 88.6426 38.98C88.6426 40.228 90.0466 40.924 92.3746 40.924C94.7146 40.924 96.1066 40.228 96.1066 38.98C96.1066 37.744 94.7146 37.036 92.3746 37.036ZM91.0546 34.252C91.4506 34.312 91.9186 34.348 92.3986 34.348C92.8786 34.348 93.3226 34.312 93.7186 34.252V35.356H91.0546V34.252ZM92.3986 31.228C94.0066 31.228 94.9786 31.612 94.9786 32.308C94.9786 33.004 94.0066 33.4 92.3986 33.4C90.7786 33.4 89.8066 33.004 89.8066 32.308C89.8066 31.612 90.7786 31.228 92.3986 31.228ZM94.9546 35.356V33.928C95.7826 33.568 96.2626 33.016 96.2626 32.308C96.2626 31.036 94.7626 30.268 92.3986 30.268C90.0226 30.268 88.5346 31.036 88.5346 32.308C88.5346 33.016 89.0026 33.568 89.8186 33.916V35.356H87.4906V36.34H97.2946V35.356H94.9546ZM106.21 30.076V40.948H107.458V30.076H106.21ZM101.686 30.88C100.078 30.88 98.9017 32.368 98.9017 34.696C98.9017 37.048 100.078 38.524 101.686 38.524C103.306 38.524 104.482 37.048 104.482 34.696C104.482 32.368 103.306 30.88 101.686 30.88ZM101.686 31.996C102.634 31.996 103.294 33.016 103.294 34.696C103.294 36.4 102.634 37.42 101.686 37.42C100.75 37.42 100.09 36.4 100.09 34.696C100.09 33.016 100.75 31.996 101.686 31.996Z" fill="white"/>
<rect x="184.351" y="70.3131" width="30" height="2" rx="1" transform="rotate(31.2615 184.351 70.3131)" fill="white" stroke="white"/>
<rect x="-0.167931" y="0.686876" width="30" height="2" rx="1" transform="matrix(0.854807 -0.518945 -0.518945 -0.854807 184.851 122.091)" fill="white" stroke="white"/>
<defs>
<clipPath id="clip0">
<rect width="86.8649" height="80.35" fill="white" transform="translate(213 54)"/>
</clipPath>
</defs>
</svg>
