<svg width="320" height="160" viewBox="0 0 320 160" fill="none" xmlns="http://www.w3.org/2000/svg">
<rect width="320" height="160" fill="#1BA3CE"/>
<g clip-path="url(#clip0)">
<path d="M201.833 37.8709H203.328L205.818 40.8554V53.7882L197.351 69.7056L195.856 103.53L183.404 142.826L163.979 158.743H158.5L160.492 156.754L167.964 146.308L171.948 139.344L173.941 134.37L174.937 129.893L175.435 122.929L176.929 112.484L177.925 107.012L179.918 100.048L181.412 95.0739L183.404 89.6023L185.397 84.1307L186.891 80.1514L188.385 75.1772L189.879 69.7056L191.374 64.7314L193.366 60.2547L195.856 54.2857L197.351 50.8037L198.347 42.8451L199.841 38.8657L201.833 37.8709Z" fill="white" stroke="white"/>
<path d="M199.798 39.2652C199.798 39.2652 201.162 40.0719 201.628 41.0932C203.111 44.341 202.996 49.3192 201.018 51.4519C199.454 53.1377 196.442 52.6069 196.442 52.6069M201.628 67.2947C201.628 67.2947 203.153 69.1227 204.374 69.1227M189.12 101.113C194.057 97.0245 197.121 95.4391 203.153 94.1055" stroke="black" stroke-width="0.91875" stroke-linecap="round"/>
<path d="M290.405 42.8577C287.965 40.3142 281.863 43.467 281.863 43.467V59.9191C281.863 59.9191 297.422 50.17 290.405 42.8577Z" fill="white"/>
<path d="M289.409 44.9463C287.253 42.7142 281.863 45.481 281.863 45.481V59.9189C281.863 59.9189 295.608 51.3634 289.409 44.9463Z" fill="#FDF3EE"/>
<path d="M290.405 42.8577C287.965 40.3142 281.863 43.467 281.863 43.467V59.9191C281.863 59.9191 297.422 50.17 290.405 42.8577Z" stroke="black" stroke-width="0.91875"/>
<path d="M281.259 87.3541C276.072 87.1596 276.682 69.074 283.699 69.6834C288.652 70.1134 290.461 74.4809 290.106 79.4328C289.775 84.0551 285.896 87.5281 281.259 87.3541Z" fill="white"/>
<path d="M280.649 105.33C275.157 103.952 277.556 88.9694 284.005 88.5731C288.966 88.2681 291.495 90.3337 291.021 95.2757C290.549 100.205 285.458 106.536 280.649 105.33Z" fill="white"/>
<path d="M277.598 113.556C277.459 110.292 279.915 106.729 283.089 105.939C286.863 104.999 289.191 108.986 289.191 112.642C289.191 114.775 285.173 120.675 281.259 119.649C278.285 118.869 277.728 116.624 277.598 113.556Z" fill="white"/>
<path d="M204.679 48.71C205.449 44.5743 203.153 38.0466 203.153 38.0466C203.153 38.0466 203.022 38.0737 203.153 37.7418C203.507 36.85 205.289 38.3513 205.289 38.3513L207.73 41.398V66.0761L205.899 72.1695L204.069 80.7002V85.8796L205.594 86.7936L207.73 85.8796L211.39 135.845L257.152 140.72L247.389 148.641L237.322 153.821L227.254 159H161.968C161.968 159 172.414 147.65 176.612 138.892C183.573 124.367 177.368 113.362 182.408 98.0663C184.712 91.0765 187.209 87.6146 189.73 80.7002C192.541 72.9901 191.914 67.8048 195.832 60.5921C198.592 55.5092 203.62 54.3951 204.679 48.71Z" fill="#FDF3EE"/>
<path d="M158.613 158.695C158.613 158.695 169.745 146.076 172.951 136.15C176.002 126.705 174.405 121.456 177.527 108.425C181.227 92.9824 181.402 94.3489 186.985 79.4814C187.928 76.9693 188.866 70.9608 190.646 65.7716C192.542 60.2419 194.612 57.2406 196.442 52.0613C198.549 46.099 197.197 36.5006 203.459 37.4372C205.944 37.809 208.035 41.3342 208.035 41.3342M208.035 65.7716C208.035 65.7716 201.322 84.9654 204.984 86.7936C206.815 87.7074 208.035 84.6607 208.035 84.6607" stroke="black" stroke-width="0.91875" stroke-linecap="round" stroke-linejoin="bevel"/>
<rect x="208.341" y="13.3062" width="73.8262" height="143.191" rx="8.26875" fill="white" stroke="black" stroke-width="0.6125"/>
<rect x="211.391" y="29.149" width="67.7247" height="112.115" stroke="black" stroke-width="0.6125"/>
<path d="M239.152 22.14L254.406 22.14" stroke="black" stroke-width="1.225" stroke-linecap="round"/>
<path d="M236.712 22.14H237.017" stroke="black" stroke-width="1.225" stroke-linecap="round"/>
<path d="M243.452 73.0067L238.635 74.6708C238.115 74.8513 237.547 74.5744 237.367 74.0526L236.188 70.6279C236.008 70.1061 236.285 69.5374 236.805 69.3569L241.622 67.6927C242.142 67.5122 242.709 67.7892 242.889 68.3109L244.068 71.7357C244.248 72.2574 243.972 72.8261 243.452 73.0067Z" fill="#40220F"/>
<path d="M254.316 90.4302L250.282 91.8248C249.761 92.0053 249.194 91.7283 249.014 91.2066L247.835 87.7818C247.655 87.2601 247.931 86.6914 248.452 86.5108L252.486 85.1162C253.007 84.9357 253.574 85.2127 253.754 85.7344L254.933 89.1592C255.113 89.6834 254.837 90.2521 254.316 90.4302Z" fill="#40220F"/>
<path d="M249.452 74.8143L245.432 73.3776C244.914 73.1922 244.643 72.621 244.828 72.1017L246.041 68.6893C246.226 68.17 246.796 67.898 247.314 68.0835L251.334 69.5202C251.852 69.7056 252.123 70.2768 251.938 70.7961L250.725 74.2085C250.54 74.7302 249.97 74.9998 249.452 74.8143Z" fill="#40220F"/>
<path d="M244.261 91.9559L240.241 90.5193C239.723 90.3338 239.452 89.7626 239.637 89.2433L240.85 85.8309C241.035 85.3117 241.605 85.0397 242.123 85.2251L246.143 86.6618C246.661 86.8472 246.932 87.4184 246.747 87.9377L245.534 91.3501C245.349 91.8694 244.779 92.1414 244.261 91.9559Z" fill="#40220F"/>
<path d="M256.238 77.4704L250.624 77.7102C250.074 77.7325 249.608 77.3047 249.586 76.7533L249.381 71.9215C249.359 71.3701 249.786 70.9028 250.336 70.8805L255.949 70.6406C256.499 70.6184 256.965 71.0462 256.987 71.5976L257.192 76.4293C257.214 76.9808 256.787 77.4457 256.238 77.4704Z" fill="#40220F"/>
<path d="M242.214 90.4847L236.601 90.7245C236.051 90.7468 235.585 90.319 235.563 89.7676L235.358 84.9358C235.336 84.3844 235.763 83.917 236.313 83.8948L241.926 83.6549C242.476 83.6327 242.942 84.0605 242.964 84.6119L243.169 89.4436C243.191 89.9951 242.764 90.4599 242.214 90.4847Z" fill="#40220F"/>
<path d="M240.831 79.5651L235.217 79.805C234.667 79.8272 234.201 79.3994 234.179 78.848L233.974 74.0163C233.952 73.4649 234.379 72.9975 234.929 72.9752L240.542 72.7354C241.092 72.7131 241.558 73.1409 241.58 73.6923L241.785 78.5241C241.807 79.0755 241.381 79.5404 240.831 79.5651Z" fill="#40220F"/>
<path d="M246.232 78.9639L241.369 77.2281C240.851 77.0426 240.579 76.4714 240.764 75.9521L242.244 71.7831C242.429 71.2638 242.999 70.9918 243.517 71.1773L248.38 72.9131C248.898 73.0986 249.169 73.6698 248.984 74.1891L247.505 78.3581C247.32 78.8774 246.75 79.1494 246.232 78.9639Z" fill="#40220F"/>
<path d="M232.567 67.3717L236.118 98.6693H254.437L258.378 67.3717" stroke="black" stroke-width="0.39036" stroke-miterlimit="10"/>
<path d="M260.746 65.0772H229.39V67.3719H260.746V65.0772Z" stroke="black" stroke-width="0.39036" stroke-miterlimit="10"/>
<path d="M259.764 63.4846H230.559V65.077H259.764V63.4846Z" stroke="black" stroke-width="0.39036" stroke-miterlimit="10"/>
<path d="M240.698 37.3735L238.711 37.677L247.663 96.5933L249.65 96.2898L240.698 37.3735Z" fill="black" stroke="black" stroke-width="0.39036" stroke-miterlimit="10"/>
<path opacity="0.28" d="M260.746 65.0772H229.39V67.3719H260.746V65.0772Z" fill="white" stroke="black" stroke-width="0.39036" stroke-miterlimit="10"/>
<g opacity="0.92">
<path d="M232.922 69.5693L236.374 98.9165H254.694L258.13 69.5693" fill="#40220F"/>
<path d="M232.922 69.5693L236.374 98.9165H254.694L258.13 69.5693" stroke="black" stroke-width="0.39036" stroke-miterlimit="10"/>
</g>
<path opacity="0.28" d="M259.764 65.077H230.559V63.4846H230.964H259.764V65.077Z" fill="white" stroke="black" stroke-width="0.39036" stroke-miterlimit="10"/>
<path d="M258.152 63.4846H232.17" stroke="black" stroke-width="0.39036" stroke-miterlimit="10"/>
<path opacity="0.85" d="M254.898 84.7503L253.626 95.4647" stroke="white" stroke-width="0.78072" stroke-miterlimit="10" stroke-linecap="round"/>
<path opacity="0.85" d="M256.82 69.3399L256.511 72.3888" stroke="white" stroke-width="0.78072" stroke-miterlimit="10" stroke-linecap="round"/>
<path d="M257.611 73.593L256.072 86.6813H235.114L233.388 73.593H257.611Z" fill="white" stroke="black" stroke-width="0.39036" stroke-miterlimit="10"/>
<path d="M254.147 76.9414L252.038 82.2949H250.754L248.645 76.9414H249.994L251.449 80.8829L252.897 76.9414H254.147Z" fill="#1BA3CE"/>
<path d="M245.982 81.2563H243.912L243.54 82.2948H242.309L244.379 76.9413H245.617L247.686 82.2948H246.356L245.982 81.2563ZM245.614 80.2202L244.946 78.3558L244.277 80.2202H245.614Z" fill="#1BA3CE"/>
<path d="M248.159 80.6701H241.833" stroke="#1BA3CE" stroke-width="0.78072" stroke-miterlimit="10"/>
<path d="M241.081 79.6856H236.533" stroke="#1BA3CE" stroke-width="0.78072" stroke-miterlimit="10"/>
<path d="M238.092 82.292V77.433H241.411" stroke="#1BA3CE" stroke-width="0.78072" stroke-miterlimit="10"/>
<path d="M237.101 84.3947C236.822 84.3947 236.62 84.1845 236.62 83.9026C236.62 83.6207 236.822 83.4106 237.098 83.4106C237.32 83.4106 237.493 83.554 237.54 83.7493H237.367C237.33 83.6381 237.231 83.5614 237.098 83.5614C236.911 83.5614 236.785 83.7098 236.785 83.9051C236.785 84.1005 236.911 84.2488 237.098 84.2488C237.231 84.2488 237.332 84.1697 237.369 84.056H237.542C237.49 84.2562 237.318 84.3947 237.101 84.3947Z" fill="#1BA3CE"/>
<path d="M238.82 83.9026C238.82 84.1845 238.617 84.3947 238.341 84.3947C238.063 84.3947 237.86 84.1845 237.86 83.9026C237.86 83.6207 238.063 83.4106 238.341 83.4106C238.617 83.4106 238.82 83.6207 238.82 83.9026ZM238.026 83.9026C238.026 84.098 238.154 84.2464 238.339 84.2464C238.524 84.2464 238.652 84.098 238.652 83.9026C238.652 83.7073 238.524 83.5589 238.339 83.5589C238.154 83.5589 238.026 83.7073 238.026 83.9026Z" fill="#1BA3CE"/>
<path d="M239.639 83.581H239.431V84.3698H239.264V83.581H239.079V83.4327H239.264V83.2744C239.264 83.1186 239.355 83.0098 239.515 83.0098C239.557 83.0098 239.597 83.0123 239.624 83.0197V83.1631C239.602 83.1582 239.567 83.1582 239.542 83.1582C239.473 83.1582 239.431 83.2027 239.431 83.2793V83.4327H239.639V83.581Z" fill="#1BA3CE"/>
<path d="M240.455 83.581H240.247V84.3698H240.08V83.581H239.895V83.4327H240.08V83.2744C240.08 83.1186 240.171 83.0098 240.331 83.0098C240.373 83.0098 240.413 83.0123 240.44 83.0197V83.1631C240.418 83.1582 240.383 83.1582 240.358 83.1582C240.289 83.1582 240.247 83.2027 240.247 83.2793V83.4327H240.455V83.581Z" fill="#1BA3CE"/>
<path d="M240.701 83.9026C240.701 83.6207 240.899 83.4106 241.172 83.4106C241.446 83.4106 241.641 83.6207 241.641 83.9026C241.641 83.9249 241.641 83.9496 241.638 83.9719H240.871C240.889 84.1326 241.005 84.2538 241.172 84.2538C241.301 84.2538 241.399 84.1944 241.434 84.1178H241.606C241.555 84.281 241.387 84.3972 241.172 84.3972C240.899 84.3947 240.701 84.1845 240.701 83.9026ZM241.172 83.554C241.005 83.554 240.889 83.6727 240.871 83.8359H241.476C241.456 83.6702 241.34 83.554 241.172 83.554Z" fill="#1BA3CE"/>
<path d="M241.969 83.9026C241.969 83.6207 242.166 83.4106 242.44 83.4106C242.714 83.4106 242.909 83.6207 242.909 83.9026C242.909 83.9249 242.909 83.9496 242.906 83.9719H242.139C242.156 84.1326 242.272 84.2538 242.44 84.2538C242.568 84.2538 242.667 84.1944 242.701 84.1178H242.874C242.822 84.281 242.654 84.3972 242.44 84.3972C242.166 84.3947 241.969 84.1845 241.969 83.9026ZM242.44 83.554C242.272 83.554 242.156 83.6727 242.139 83.8359H242.743C242.724 83.6702 242.608 83.554 242.44 83.554Z" fill="#1BA3CE"/>
<path d="M245.338 84.3947C245.059 84.3947 244.857 84.1845 244.857 83.9026C244.857 83.6207 245.059 83.4106 245.335 83.4106C245.557 83.4106 245.73 83.554 245.777 83.7493H245.604C245.567 83.6381 245.468 83.5614 245.335 83.5614C245.148 83.5614 245.022 83.7098 245.022 83.9051C245.022 84.1005 245.148 84.2488 245.335 84.2488C245.468 84.2488 245.57 84.1697 245.607 84.056H245.779C245.727 84.2562 245.555 84.3947 245.338 84.3947Z" fill="#1BA3CE"/>
<path d="M247.057 83.9026C247.057 84.1845 246.855 84.3947 246.578 84.3947C246.3 84.3947 246.098 84.1845 246.098 83.9026C246.098 83.6207 246.3 83.4106 246.578 83.4106C246.857 83.4106 247.057 83.6207 247.057 83.9026ZM246.265 83.9026C246.265 84.098 246.393 84.2464 246.578 84.2464C246.763 84.2464 246.892 84.098 246.892 83.9026C246.892 83.7073 246.763 83.5589 246.578 83.5589C246.393 83.5589 246.265 83.7073 246.265 83.9026Z" fill="#1BA3CE"/>
<path d="M247.607 83.4328V83.5663C247.649 83.4971 247.733 83.4106 247.891 83.4106C248.029 83.4106 248.137 83.4872 248.182 83.6084C248.238 83.4897 248.354 83.4106 248.515 83.4106C248.714 83.4106 248.857 83.5639 248.857 83.8013V84.3725H248.69V83.8285C248.69 83.6603 248.608 83.5565 248.475 83.5565C248.335 83.5565 248.233 83.6949 248.233 83.8656V84.3725H248.066V83.8359C248.066 83.6603 247.982 83.5589 247.851 83.5589C247.713 83.5589 247.609 83.6974 247.609 83.8656V84.3725H247.442V83.4328H247.607Z" fill="#1BA3CE"/>
<path d="M249.429 84.2315V84.7706H249.261V83.4328H249.429V83.5713C249.476 83.4897 249.592 83.4081 249.762 83.4081C250.028 83.4081 250.226 83.6208 250.226 83.9002C250.226 84.1821 250.028 84.3922 249.762 84.3922C249.592 84.3947 249.478 84.3131 249.429 84.2315ZM250.06 83.9026C250.06 83.7073 249.937 83.5589 249.747 83.5589C249.557 83.5589 249.427 83.7073 249.427 83.9026C249.427 84.098 249.557 84.2464 249.747 84.2464C249.937 84.2464 250.06 84.098 250.06 83.9026Z" fill="#1BA3CE"/>
<path d="M250.557 83.9026C250.557 83.6207 250.754 83.4106 251.02 83.4106C251.19 83.4106 251.306 83.4922 251.353 83.5738V83.4353H251.521V84.3749H251.353V84.2365C251.306 84.3181 251.19 84.3997 251.02 84.3997C250.756 84.3947 250.557 84.1845 250.557 83.9026ZM251.356 83.9026C251.356 83.7073 251.225 83.5589 251.035 83.5589C250.848 83.5589 250.722 83.7073 250.722 83.9026C250.722 84.098 250.845 84.2464 251.035 84.2464C251.225 84.2464 251.356 84.098 251.356 83.9026Z" fill="#1BA3CE"/>
<path d="M252.12 83.4328V83.5762C252.16 83.507 252.266 83.4106 252.438 83.4106C252.66 83.4106 252.816 83.5688 252.816 83.8235V84.3725H252.648V83.8507C252.648 83.6603 252.557 83.5565 252.404 83.5565C252.241 83.5565 252.123 83.7098 252.123 83.8853V84.3725H251.955V83.4328H252.12Z" fill="#1BA3CE"/>
<path d="M254.051 83.4328L253.467 84.7705H253.297L253.482 84.3526L253.08 83.4328H253.265L253.565 84.1721L253.876 83.4328H254.051Z" fill="#1BA3CE"/>
<g opacity="0.85">
<path d="M255.715 59.9141C255.851 60.2801 255.984 60.6485 256.12 61.0145L255.715 59.9141Z" fill="white"/>
<path d="M255.715 59.9141C255.851 60.2801 255.984 60.6485 256.12 61.0145" stroke="white" stroke-width="0.78072" stroke-miterlimit="10" stroke-linecap="round"/>
</g>
<g opacity="0.85">
<path d="M250.407 53.6306C251.233 54.1277 252.291 54.8917 253.305 56.0366C253.887 56.6944 254.336 57.3398 254.676 57.911" fill="white"/>
<path d="M250.407 53.6306C251.233 54.1277 252.291 54.8917 253.305 56.0366C253.887 56.6944 254.336 57.3398 254.676 57.911" stroke="white" stroke-width="0.78072" stroke-miterlimit="10" stroke-linecap="round"/>
</g>
<path d="M257.72 58.5429C258.367 60.1091 258.712 61.7837 258.737 63.4777H245.369L232.001 63.4777C232.026 61.7837 232.37 60.1091 233.017 58.5429C233.689 56.9165 234.674 55.4387 235.915 54.194C237.157 52.9492 238.631 51.9619 240.253 51.2883C241.875 50.6146 243.613 50.2679 245.369 50.2679C247.124 50.2679 248.863 50.6146 250.485 51.2883C252.107 51.9619 253.581 52.9492 254.822 54.194C256.063 55.4387 257.048 56.9165 257.72 58.5429Z" fill="white" fill-opacity="0.3" stroke="black" stroke-width="0.39036"/>
<rect x="211.696" y="110.494" width="67.1169" height="30.4668" fill="#EEEEEE"/>
<rect x="217.797" y="119.025" width="0.610153" height="14.6241" fill="#222222" fill-opacity="0.8"/>
<rect x="219.017" y="119.025" width="0.610153" height="14.6241" fill="#222222" fill-opacity="0.8"/>
<rect x="220.238" y="119.025" width="0.610153" height="14.6241" fill="#222222" fill-opacity="0.8"/>
<rect x="221.458" y="119.025" width="0.610153" height="14.6241" fill="#222222" fill-opacity="0.8"/>
<rect x="234.881" y="119.025" width="0.610153" height="14.6241" fill="#222222" fill-opacity="0.8"/>
<rect x="236.101" y="119.025" width="0.610153" height="14.6241" fill="#222222" fill-opacity="0.8"/>
<rect x="237.322" y="119.025" width="0.610153" height="14.6241" fill="#222222" fill-opacity="0.8"/>
<rect x="238.542" y="119.025" width="0.610153" height="14.6241" fill="#222222" fill-opacity="0.8"/>
<rect x="248.915" y="119.025" width="0.610153" height="14.6241" fill="#222222" fill-opacity="0.8"/>
<rect x="250.135" y="119.025" width="0.610153" height="14.6241" fill="#222222" fill-opacity="0.8"/>
<rect x="251.355" y="119.025" width="0.610153" height="14.6241" fill="#222222" fill-opacity="0.8"/>
<rect x="252.576" y="119.025" width="0.610153" height="14.6241" fill="#222222" fill-opacity="0.8"/>
<rect x="253.796" y="119.025" width="0.610153" height="14.6241" fill="#222222" fill-opacity="0.8"/>
<rect x="271.49" y="119.025" width="0.610153" height="14.6241" fill="#222222" fill-opacity="0.8"/>
<rect x="272.711" y="119.025" width="0.610153" height="14.6241" fill="#222222" fill-opacity="0.8"/>
<rect x="222.678" y="119.025" width="1.22031" height="14.6241" fill="#222222" fill-opacity="0.8"/>
<rect x="239.763" y="119.025" width="1.22031" height="14.6241" fill="#222222" fill-opacity="0.8"/>
<rect x="241.593" y="119.025" width="1.22031" height="14.6241" fill="#222222" fill-opacity="0.8"/>
<rect x="243.423" y="119.025" width="1.22031" height="14.6241" fill="#222222" fill-opacity="0.8"/>
<rect x="255.016" y="119.025" width="1.22031" height="14.6241" fill="#222222" fill-opacity="0.8"/>
<rect x="256.847" y="119.025" width="1.22031" height="14.6241" fill="#222222" fill-opacity="0.8"/>
<rect x="258.677" y="119.025" width="1.22031" height="14.6241" fill="#222222" fill-opacity="0.8"/>
<rect x="224.509" y="119.025" width="1.22031" height="14.6241" fill="#222222" fill-opacity="0.8"/>
<rect x="226.339" y="119.025" width="3.05077" height="14.6241" fill="#222222" fill-opacity="0.8"/>
<rect x="245.254" y="119.025" width="3.05077" height="14.6241" fill="#222222" fill-opacity="0.8"/>
<rect x="265.389" y="119.025" width="3.05077" height="14.6241" fill="#222222" fill-opacity="0.8"/>
<rect x="230" y="119.025" width="1.83046" height="14.6241" fill="#222222" fill-opacity="0.8"/>
<rect x="260.508" y="119.025" width="1.83046" height="14.6241" fill="#222222" fill-opacity="0.8"/>
<rect x="262.948" y="119.025" width="1.83046" height="14.6241" fill="#222222" fill-opacity="0.8"/>
<rect x="269.05" y="119.025" width="1.83046" height="14.6241" fill="#222222" fill-opacity="0.8"/>
<rect x="232.441" y="119.025" width="1.83046" height="14.6241" fill="#222222" fill-opacity="0.8"/>
<path d="M279.912 104.629C275.191 103.34 277.253 89.3242 282.798 88.9535C287.064 88.6683 289.238 90.6005 288.831 95.2236C288.425 99.8346 284.047 105.757 279.912 104.629Z" fill="#FDF3EE"/>
<path d="M277.291 113.431C277.182 110.299 279.12 106.88 281.625 106.121C284.603 105.22 286.439 109.045 286.439 112.554C286.439 114.601 283.269 120.264 280.18 119.279C277.833 118.531 277.394 116.375 277.291 113.431Z" fill="#FDF3EE"/>
<path d="M281.038 86.4888C276.941 86.3319 276.448 69.85 281.991 70.3414C285.904 70.6882 288.308 76.1074 288.027 80.1007C287.766 83.8283 284.701 86.6291 281.038 86.4888Z" fill="#FDF3EE"/>
<path d="M281.253 86.7933C276.067 86.5988 276.677 68.5132 283.694 69.1225C288.646 69.5526 290.455 73.9201 290.1 78.8719C289.769 83.4942 285.89 86.9673 281.253 86.7933Z" stroke="black" stroke-width="0.91875"/>
<path d="M280.643 104.769C275.152 103.391 277.55 88.4085 283.999 88.0122C288.961 87.7073 291.489 89.7729 291.016 94.7148C290.544 99.644 285.452 105.975 280.643 104.769Z" stroke="black" stroke-width="0.91875"/>
<path d="M277.592 112.995C277.454 109.731 279.909 106.168 283.083 105.378C286.858 104.438 289.185 108.425 289.185 112.081C289.185 114.214 285.168 120.115 281.253 119.088C278.279 118.309 277.722 116.063 277.592 112.995Z" stroke="black" stroke-width="0.91875"/>
<path d="M199.862 39C199.862 39 201.25 39.8217 201.724 40.8621C203.232 44.1704 203.116 49.2414 201.103 51.4138C199.513 53.131 196.448 52.5903 196.448 52.5903M201.724 67.5517C201.724 67.5517 203.276 69.4138 204.517 69.4138M189 102C194.023 97.8355 197.139 96.2205 203.276 94.8621" stroke="black" stroke-width="0.931034" stroke-linecap="round"/>
</g>
<path d="M50.958 50.492H30.054V46.774H38.244V44.954H42.768V46.774H50.958V50.492ZM30.834 55.536C30.834 54.08 31.7093 52.988 33.46 52.26C35.2107 51.532 37.5593 51.168 40.506 51.168C43.4527 51.168 45.8013 51.532 47.552 52.26C49.3027 52.988 50.178 54.08 50.178 55.536C50.178 56.992 49.3027 58.084 47.552 58.812C45.8013 59.54 43.4527 59.904 40.506 59.904C37.5593 59.904 35.2107 59.54 33.46 58.812C31.7093 58.084 30.834 56.992 30.834 55.536ZM45.706 55.536C45.706 55.2413 45.2293 55.016 44.276 54.86C43.34 54.6867 42.0833 54.6 40.506 54.6C38.9287 54.6 37.6633 54.6867 36.71 54.86C35.774 55.016 35.306 55.2413 35.306 55.536C35.306 55.8307 35.774 56.0647 36.71 56.238C37.6633 56.394 38.9287 56.472 40.506 56.472C42.0833 56.472 43.34 56.394 44.276 56.238C45.2293 56.0647 45.706 55.8307 45.706 55.536ZM51.738 64.74H42.768V68.224H38.244V64.74H29.274V60.84H51.738V64.74ZM75.7598 67.704H71.3658V45.5H75.7598V67.704ZM67.9338 52.026C67.9338 55.0073 67.4051 57.5987 66.3478 59.8C65.3078 62.0013 63.8258 63.7 61.9018 64.896C59.9778 66.0747 57.7244 66.664 55.1418 66.664V62.504C57.7938 62.4867 59.8391 61.5507 61.2778 59.696C62.7164 57.8413 63.4358 55.2847 63.4358 52.026V50.024H55.1418V46.02H67.9338V52.026ZM85.7155 55.51C84.9702 56.7233 84.0775 57.6853 83.0375 58.396C82.0149 59.1067 80.8709 59.5053 79.6055 59.592V55.354C80.8882 55.1287 81.9195 54.0713 82.6995 52.182C83.4795 50.2753 83.9475 48.048 84.1035 45.5L88.3935 46.02C88.2895 47.944 87.9862 49.764 87.4835 51.48L90.4735 54.782C91.3922 54.0713 92.1375 52.8667 92.7095 51.168C93.2815 49.452 93.6282 47.5627 93.7495 45.5L98.0395 46.02C97.9355 47.944 97.6322 49.7813 97.1295 51.532L102.122 56.784L98.8455 59.41L95.3875 55.484C94.6249 56.7147 93.7235 57.6853 92.6835 58.396C91.6609 59.1067 90.5169 59.5053 89.2515 59.592L85.7155 55.51ZM79.2935 62.816H101.758V66.924H79.2935V62.816ZM120.969 50.102H105.473V46.02H125.545V60.658H120.969V50.102ZM126.767 62.816V66.924H104.303V62.816H111.531V54.132H116.081V62.816H126.767ZM50.854 75.5V97.704H46.46V87.798H42.118C41.3033 90.606 39.8213 92.7813 37.672 94.324C35.54 95.8667 32.992 96.6467 30.028 96.664V92.556C31.8827 92.5387 33.4687 92.1227 34.786 91.308C36.1033 90.4933 37.074 89.2627 37.698 87.616H30.028V83.638H38.426V82.988V80.05H30.028V76.02H42.794V82.676C42.794 83.1267 42.7853 83.4647 42.768 83.69H46.46V75.5H50.854ZM75.7338 75.5V97.704H71.3398V75.5H75.7338ZM67.6218 92.4C68.6964 92.2093 69.5458 91.9667 70.1698 91.672V95.598C69.5111 95.9273 68.6271 96.1873 67.5178 96.378C66.4258 96.5687 65.3338 96.664 64.2418 96.664H54.7258V92.686H56.5978V79.998H54.8818V76.02H69.3378V79.998H67.6218V92.4ZM60.9138 92.686H63.3058V79.998H60.9138V92.686ZM43.132 113.404C42.6813 114.635 41.858 115.605 40.662 116.316C39.466 117.027 38.0187 117.382 36.32 117.382C34.916 117.382 33.6767 117.139 32.602 116.654C31.5273 116.151 30.6867 115.449 30.08 114.548C29.4907 113.647 29.196 112.615 29.196 111.454C29.196 110.293 29.4907 109.27 30.08 108.386C30.6867 107.485 31.5273 106.783 32.602 106.28C33.6767 105.777 34.916 105.526 36.32 105.526C37.9667 105.526 39.3793 105.864 40.558 106.54C41.754 107.216 42.5773 108.135 43.028 109.296H46.46V105.5H50.854V117.59H46.46V113.404H43.132ZM33.564 111.454C33.564 112.165 33.8153 112.737 34.318 113.17C34.8207 113.603 35.488 113.82 36.32 113.82C37.152 113.82 37.8193 113.603 38.322 113.17C38.8247 112.737 39.076 112.165 39.076 111.454C39.076 110.743 38.8247 110.171 38.322 109.738C37.8193 109.305 37.152 109.088 36.32 109.088C35.488 109.088 34.8207 109.305 34.318 109.738C33.8153 110.171 33.564 110.743 33.564 111.454ZM51.088 124.09V127.704H31.25V118.422H50.854V122.036H35.67V124.09H51.088ZM75.8638 105.5V127.704H71.4698V117.98H68.5318C68.3411 120.979 67.6478 123.223 66.4518 124.714C65.2731 126.187 63.6958 126.924 61.7198 126.924C59.5704 126.924 57.8804 126.049 56.6498 124.298C55.4364 122.53 54.8298 119.878 54.8298 116.342C54.8298 112.806 55.4364 110.163 56.6498 108.412C57.8804 106.644 59.5704 105.76 61.7198 105.76C63.5918 105.76 65.1171 106.436 66.2958 107.788C67.4744 109.123 68.2024 111.151 68.4798 113.872H71.4698V105.5H75.8638ZM61.7198 122.894C63.4011 122.894 64.2418 120.71 64.2418 116.342C64.2418 111.974 63.4011 109.79 61.7198 109.79C60.0211 109.79 59.1718 111.974 59.1718 116.342C59.1718 120.71 60.0211 122.894 61.7198 122.894ZM100.874 105.5V118.708H96.4795V113.742H93.4635V117.876H79.9175V105.76H93.4635V109.634H96.4795V105.5H100.874ZM89.1215 109.4H84.2595V114.236H89.1215V109.4ZM80.9055 119.488H100.874V127.964H96.4015V123.258H80.9055V119.488ZM127.755 117.876H125.155V127.704H120.761V105.5H125.155V113.612H127.755V117.876ZM114.417 110.05C114.365 112.078 114.183 113.933 113.871 115.614L120.215 123.986L116.731 126.56L112.363 120.554C111.462 122.495 110.327 123.995 108.957 125.052C107.605 126.109 106.106 126.647 104.459 126.664V122.244C105.534 122.123 106.479 121.551 107.293 120.528C108.108 119.488 108.749 118.075 109.217 116.29C109.685 114.487 109.945 112.407 109.997 110.05H105.083V106.02H119.071V110.05H114.417ZM133.759 120.32H130.535L129.339 106.15H134.955L133.759 120.32ZM132.147 122.218C132.944 122.218 133.603 122.478 134.123 122.998C134.643 123.518 134.903 124.177 134.903 124.974C134.903 125.771 134.643 126.421 134.123 126.924C133.603 127.444 132.944 127.704 132.147 127.704C131.35 127.704 130.691 127.444 130.171 126.924C129.651 126.421 129.391 125.771 129.391 124.974C129.391 124.177 129.651 123.518 130.171 122.998C130.691 122.478 131.35 122.218 132.147 122.218Z" fill="white"/>
<path d="M39.376 35.292H37.936V40.248H36.748V30H37.936V34.152H39.376V35.292ZM32.884 31.464C32.876 32.648 32.772 33.732 32.572 34.716L35.86 38.844L34.924 39.552L32.224 36.06C31.872 37.124 31.4 37.964 30.808 38.58C30.224 39.196 29.548 39.548 28.78 39.636V38.46C29.372 38.348 29.884 37.98 30.316 37.356C30.748 36.732 31.08 35.912 31.312 34.896C31.544 33.88 31.668 32.736 31.684 31.464H29.02V30.372H35.464V31.464H32.884ZM43.743 33.888C43.391 34.376 42.927 34.776 42.351 35.088C41.783 35.4 41.135 35.596 40.407 35.676V34.608C41.175 34.504 41.807 34.228 42.303 33.78C42.799 33.324 43.103 32.768 43.215 32.112H40.611V31.08H43.203V29.808H44.415V31.08H46.995V32.112H44.427C44.387 32.44 44.319 32.728 44.223 32.976L47.343 34.716L46.815 35.64L43.743 33.888ZM49.803 30V40.248H48.615V30H49.803ZM44.391 36.588C45.943 36.588 47.063 36.464 47.751 36.216V37.248C47.031 37.504 45.903 37.632 44.367 37.632H44.343V40.248H43.155V37.632H40.203V36.588H44.391ZM58.7299 35.652H57.6019V30.06H58.7299V31.932H60.4699V30H61.5979V35.988H60.4699V33.024H58.7299V35.652ZM54.5059 33.444C53.9459 34.708 53.0259 35.456 51.7459 35.688V34.608C52.5219 34.392 53.0859 33.892 53.4379 33.108C53.7899 32.324 53.9659 31.328 53.9659 30.12L55.1059 30.156C55.1059 30.972 55.0299 31.7 54.8779 32.34L57.3139 34.608L56.5339 35.388L54.5059 33.444ZM57.2059 36.192C58.5579 36.192 59.6539 36.352 60.4939 36.672C61.3339 36.992 61.7539 37.508 61.7539 38.22C61.7539 38.932 61.3339 39.448 60.4939 39.768C59.6539 40.088 58.5579 40.248 57.2059 40.248C55.8539 40.248 54.7579 40.088 53.9179 39.768C53.0779 39.448 52.6579 38.932 52.6579 38.22C52.6579 37.508 53.0779 36.992 53.9179 36.672C54.7579 36.352 55.8539 36.192 57.2059 36.192ZM57.2059 39.276C58.1419 39.276 58.9219 39.188 59.5459 39.012C60.1779 38.844 60.4939 38.58 60.4939 38.22C60.4939 37.86 60.1779 37.596 59.5459 37.428C58.9219 37.252 58.1419 37.164 57.2059 37.164C56.2699 37.164 55.4859 37.252 54.8539 37.428C54.2299 37.596 53.9179 37.86 53.9179 38.22C53.9179 38.58 54.2299 38.844 54.8539 39.012C55.4859 39.188 56.2699 39.276 57.2059 39.276ZM71.6649 30H72.8649V40.248H71.6649V30ZM66.8289 39.768C66.2049 39.768 65.6609 39.592 65.1969 39.24C64.7329 38.896 64.3689 38.368 64.1049 37.656C63.8489 36.944 63.7209 36.06 63.7209 35.004C63.7209 33.948 63.8489 33.064 64.1049 32.352C64.3689 31.64 64.7329 31.112 65.1969 30.768C65.6609 30.416 66.2049 30.24 66.8289 30.24C67.4449 30.24 67.9849 30.416 68.4489 30.768C68.9129 31.112 69.2729 31.64 69.5289 32.352C69.7929 33.064 69.9249 33.948 69.9249 35.004C69.9249 36.06 69.7929 36.944 69.5289 37.656C69.2729 38.368 68.9129 38.896 68.4489 39.24C67.9849 39.592 67.4449 39.768 66.8289 39.768ZM66.8289 38.676C67.3969 38.676 67.8569 38.376 68.2089 37.776C68.5609 37.168 68.7369 36.244 68.7369 35.004C68.7369 33.772 68.5609 32.852 68.2089 32.244C67.8569 31.636 67.3969 31.332 66.8289 31.332C66.2529 31.332 65.7889 31.636 65.4369 32.244C65.0849 32.844 64.9089 33.764 64.9089 35.004C64.9089 36.244 65.0809 37.168 65.4249 37.776C65.7769 38.376 66.2449 38.676 66.8289 38.676ZM85.5479 35.292H84.1079V40.248H82.9199V30H84.1079V34.152H85.5479V35.292ZM79.3799 38.544C79.8759 38.544 80.3639 38.5 80.8439 38.412C81.3319 38.324 81.7279 38.208 82.0319 38.064V39.144C81.7279 39.296 81.3319 39.416 80.8439 39.504C80.3559 39.592 79.8599 39.636 79.3559 39.636H75.3119V34.38H79.7879V31.464H75.2879V30.372H80.9759V35.472H76.4879V38.544H79.3799ZM94.8468 34.692H93.1668V33.636H94.8468V32.196H93.1668V31.14H94.8468V30H96.0228V37.62H94.8468V34.692ZM92.5668 35.796H86.8068V30.252H92.5668V35.796ZM91.3908 31.284H87.9708V34.764H91.3908V31.284ZM96.2388 39.048V40.116H87.2988V36.792H88.5108V39.048H96.2388ZM100.39 37.332C100.39 36.612 100.482 36.04 100.666 35.616C100.858 35.184 101.206 34.796 101.71 34.452C102.134 34.148 102.438 33.872 102.622 33.624C102.814 33.376 102.91 33.092 102.91 32.772C102.91 32.308 102.746 31.936 102.418 31.656C102.098 31.376 101.654 31.236 101.086 31.236C100.694 31.236 100.354 31.32 100.066 31.488C99.7858 31.656 99.5698 31.872 99.4178 32.136C99.2738 32.4 99.1938 32.676 99.1778 32.964H97.9538C97.9698 32.452 98.1098 31.98 98.3738 31.548C98.6378 31.116 99.0018 30.776 99.4658 30.528C99.9378 30.272 100.474 30.144 101.074 30.144C101.706 30.144 102.25 30.26 102.706 30.492C103.17 30.716 103.522 31.028 103.762 31.428C104.002 31.82 104.122 32.268 104.122 32.772C104.122 33.604 103.678 34.336 102.79 34.968C102.446 35.2 102.186 35.436 102.01 35.676C101.834 35.916 101.714 36.164 101.65 36.42C101.594 36.676 101.566 36.98 101.566 37.332H100.39ZM101.002 40.188C100.754 40.188 100.546 40.1 100.378 39.924C100.21 39.756 100.126 39.548 100.126 39.3C100.126 39.052 100.21 38.844 100.378 38.676C100.546 38.508 100.754 38.424 101.002 38.424C101.25 38.424 101.458 38.508 101.626 38.676C101.802 38.844 101.89 39.052 101.89 39.3C101.89 39.556 101.806 39.768 101.638 39.936C101.47 40.104 101.258 40.188 101.002 40.188Z" fill="white"/>
<defs>
<clipPath id="clip0">
<rect width="136" height="147" fill="white" transform="translate(156 13)"/>
</clipPath>
</defs>
</svg>
