<svg width="88" height="88" viewBox="0 0 88 88" fill="none" xmlns="http://www.w3.org/2000/svg">
<path d="M37.364 36.6715C37.4348 36.7086 37.5056 36.7443 37.5765 36.7801C37.694 36.8383 37.8116 36.8952 37.9279 36.9482C41.5689 38.6081 44.6273 37.6855 46.4966 36.6781C46.5768 36.6345 46.6543 36.5921 46.7291 36.5484C47.8408 35.9104 48.434 35.3213 48.4648 35.2909L44.1356 32.7983L37.364 36.6715Z" fill="#AAD792"/>
<path d="M31.2217 40.1846C31.5343 40.3051 37.4655 42.6004 38.1951 42.8744C38.2044 42.877 38.2124 42.881 38.2205 42.8837C38.2779 42.9048 38.3314 42.9221 38.3835 42.9379C38.3942 42.9406 38.4048 42.9446 38.4155 42.9472C38.8057 43.0584 39.0529 43.0213 39.2627 42.9141C39.2787 42.9062 39.2961 42.8969 39.3121 42.8876C39.3214 42.8823 39.3321 42.8757 39.3415 42.8704C39.3615 42.8585 39.3802 42.8453 39.4003 42.8334C39.4484 42.8003 39.4965 42.7659 39.5446 42.7275C39.8719 42.4733 42.0338 40.6784 42.3959 40.3514C42.6458 40.1264 42.5803 39.9808 42.3612 39.8537C42.261 39.7954 42.13 39.7412 41.9817 39.6856C41.5047 39.5042 36.4086 37.4789 36.1401 37.373L31.2217 40.1846Z" fill="#D5D0CA"/>
<path d="M20.0702 46.5624C20.8291 46.4684 35.2409 44.6933 38.4837 44.692C38.9768 44.692 39.4458 44.733 39.9094 44.8071L49.8731 36.0998L48.4648 35.2883C48.4341 35.3188 47.8408 35.9078 46.7425 36.5379C46.6543 36.5882 46.5768 36.6319 46.4967 36.6743C44.6287 37.6816 41.5703 38.6042 37.9279 36.9443C37.8117 36.8913 37.6941 36.8344 37.5765 36.7762C37.5057 36.7418 37.4349 36.7047 37.364 36.6676L36.1401 37.3679C36.4087 37.4751 41.5048 39.5004 41.9818 39.6804C42.1301 39.736 42.2624 39.7916 42.3613 39.8485C42.5804 39.9756 42.6459 40.1225 42.396 40.3462C42.0339 40.6732 39.872 42.4681 39.5446 42.7223C39.4965 42.7594 39.4484 42.7951 39.4003 42.8282C39.3803 42.8414 39.3616 42.8533 39.3415 42.8653C39.0529 43.0162 38.8058 43.0532 38.4156 42.942C38.3314 42.9169 38.278 42.8997 38.2205 42.8785C37.4642 42.5952 31.5331 40.2999 31.2204 40.1794L20.0702 46.5624Z" fill="#EBE7DE"/>
<path d="M52.9515 37.8735C52.6082 38.1714 46.081 43.8183 45.5893 44.2181C45.2299 44.5133 45.2834 44.688 45.5933 44.8667C45.7056 44.9316 45.8512 44.9964 46.0222 45.0692C46.6663 45.3393 49.1529 46.5306 51.5419 46.6405C53.9309 46.7504 62.2499 43.641 62.6881 43.4781L52.9515 37.8735Z" fill="#D5D0CA"/>
<path d="M15.5566 49.1449C16.2995 49.0284 30.4147 46.8138 37.4108 46.9925L39.9107 44.8071C39.4471 44.7329 38.9768 44.6919 38.485 44.6919C35.2409 44.6919 20.8291 46.4683 20.0715 46.5623L15.5566 49.1449Z" fill="#A8DDFF"/>
<path d="M51.1958 36.8621L41.6437 45.2266C43.6466 45.8527 45.7898 46.917 49.0901 47.7853C54.106 49.1064 64.5213 45.0611 65.0705 44.848L62.6894 43.4767C62.2512 43.6408 53.9323 46.7489 51.5432 46.639C49.1542 46.5278 46.6676 45.3365 46.0236 45.0678C45.8526 44.9963 45.7069 44.9301 45.5947 44.8652C45.2847 44.6852 45.2312 44.5105 45.5907 44.2166C46.0824 43.8168 52.6095 38.1699 52.9529 37.8721L51.1958 36.8621Z" fill="#EBE7DE"/>
<path d="M10.049 52.2953L23.8942 50.548L34.9402 49.1541L37.4107 46.9951C30.4159 46.8164 16.2995 49.031 15.5566 49.1475L10.049 52.2953Z" fill="#EBE7DE"/>
<path d="M41.6424 45.2268L39.4404 47.1554C39.7771 47.211 40.0671 47.2798 40.2996 47.3659C44.3201 48.8379 48.7374 53.5542 67.799 46.4221L65.0692 44.8508C64.5214 45.0639 54.1047 49.1092 49.0888 47.7881C45.7898 46.9171 43.6466 45.8529 41.6424 45.2268Z" fill="#A8DDFF"/>
<path d="M39.4404 47.1552L37.662 48.7119L51.5566 52.8564L70.4913 47.9719L67.7976 46.4219C48.7374 53.554 44.32 48.8377 40.2982 47.3657C40.0684 47.2796 39.7771 47.2108 39.4404 47.1552Z" fill="#EBE7DE"/>
<path d="M55.6318 54.5919C55.3152 54.8567 57.3956 59.9225 57.6521 60.0615C57.8993 60.1621 60.3779 59.8484 60.8669 59.7293C61.3132 59.5651 65.029 57.4988 68.3574 55.5966C68.3747 55.5861 68.3934 55.5768 68.4108 55.5662C71.2528 53.9407 73.7594 52.4634 73.734 52.3694C73.7153 52.2993 73.3653 52.0795 72.9083 51.8161C72.0051 51.2972 70.7517 50.6486 70.6863 50.6142C69.9207 50.454 65.9362 51.6943 62.7575 52.5561C59.6804 53.3887 56.1155 54.3153 55.6318 54.5919Z" fill="#AAD792"/>
<path d="M30.0111 65.3882L24.2536 51.5978L7.80957 53.5754L10.049 52.2941L23.8942 50.5468L34.9402 49.1529L37.4107 46.9939L39.9107 44.8085L49.8744 36.1011L51.1958 36.8622L41.6437 45.2267L39.4417 47.1554L37.6633 48.7121L51.5579 52.8566L70.4926 47.9721L71.7779 48.7121L52.6696 53.7369L56.181 61.8883L62.0467 61.1034L77.7252 52.1352L78.9771 52.8553L63.7864 61.5442L66.5402 68.0303L64.7912 69.0311L64.6536 68.4698L37.1462 72.1736L35.3624 76.1063L33.7978 75.2062L35.1339 72.4449L30.1634 73.1134L28.8433 72.3536L35.6336 71.4151L38.628 65.2241L20.5685 67.5896L19.247 66.8284L30.0111 65.3882ZM37.6138 71.1397L64.1726 67.4691L61.8303 62.1848L40.401 64.9911L37.6138 71.1397ZM50.6453 53.7766L37.7608 49.9736L35.3838 50.2595L40.8807 63.9348L54.3051 62.1385L50.6453 53.7766ZM39.1384 64.1678L33.8218 50.4475L26.1015 51.3767L31.8924 65.138L39.1384 64.1678Z" fill="white"/>
<path d="M71.778 48.7119L77.7239 52.135L62.0468 61.1032L56.1811 61.8881L52.6697 53.7367L71.778 48.7119ZM60.8924 59.7199C61.3133 59.5637 65.0305 57.4974 68.3575 55.5952C68.3748 55.5846 68.3936 55.5754 68.4443 55.5462C71.2529 53.9393 73.7609 52.462 73.7355 52.368C73.7168 52.2978 73.3667 52.0781 72.9098 51.8147C72.0065 51.2958 70.7532 50.6472 70.6877 50.6128C69.9221 50.4526 65.9377 51.6929 62.759 52.5546C59.6832 53.3873 56.117 54.3152 55.5959 54.617C55.3179 54.8566 57.3983 59.9224 57.6575 60.0627C57.9007 60.162 60.3793 59.8483 60.8924 59.7199Z" fill="#EBE7DE"/>
<path d="M39.9788 52.5217C39.9013 52.5641 39.8853 52.5747 39.8693 52.5839C39.2119 52.9824 39.582 53.255 39.8853 53.9169C39.8906 53.9275 39.8946 53.9381 39.9 53.95C40.222 54.6714 42.7687 60.7976 42.9504 61.2503C43.0132 61.4065 43.1709 61.5587 43.3967 61.6858C43.8296 61.9293 44.5164 62.0802 45.2954 61.9836C46.4819 61.8367 48.9711 61.5296 49.3439 61.4766C49.368 61.4727 49.3974 61.4687 49.4294 61.4634C49.6646 61.4237 50.1095 61.3284 50.4596 61.1444C50.4796 61.1338 50.4983 61.1232 50.5171 61.1126C50.8658 60.9088 51.0822 60.6255 50.8858 60.2231C50.4489 59.3282 49.074 55.8853 48.8429 55.4577C48.6772 55.1506 48.4514 54.8647 48.0278 54.6185C47.8621 54.5218 47.6657 54.4318 47.4305 54.3498C46.5941 54.0572 44.5885 53.4351 44.483 53.402C42.5122 52.8288 40.7952 52.0822 39.9788 52.5217Z" fill="#D5D0CA"/>
<path d="M37.7608 49.9734L50.6453 53.7764L54.3051 62.1383L40.8807 63.9346L35.3838 50.2593L37.7608 49.9734ZM45.298 61.9834C46.4846 61.8365 48.9738 61.5294 49.3466 61.4765C49.3706 61.4725 49.4 61.4685 49.4321 61.4632C49.6673 61.4235 50.1122 61.3282 50.461 61.1442C50.481 61.1336 50.4997 61.123 50.5344 61.1032C50.8671 60.9086 51.0836 60.6253 50.8872 60.2229C50.4503 59.3281 49.0754 55.8851 48.8442 55.4575C48.6785 55.1504 48.454 54.8645 48.0291 54.6183C47.8635 54.5217 47.6671 54.4317 47.4319 54.3496C46.5955 54.057 44.5899 53.4349 44.4843 53.4018C42.5108 52.8286 40.7939 52.0807 39.9174 52.5533C39.9 52.5626 39.884 52.5732 39.8679 52.5824C39.2105 52.9809 39.5793 53.2536 39.884 53.9154C39.8893 53.926 39.8933 53.9366 39.8987 53.9485C40.2207 54.6699 42.7674 60.7961 42.9491 61.2488C43.0119 61.405 43.1696 61.5572 43.3954 61.6843C43.831 61.9292 44.5177 62.0801 45.298 61.9834Z" fill="#EBE7DE"/>
<path d="M29.2456 52.245C29.1921 52.2755 29.1708 52.2874 29.1507 52.3006C28.8621 52.4807 28.6844 52.707 28.7271 52.9492C28.7312 52.9704 28.7365 52.9929 28.7445 53.0141C28.9329 53.5648 33.099 63.3139 33.1685 63.5747C33.2006 63.7004 33.2714 63.8381 33.4411 63.9334C33.6228 64.034 33.9181 64.087 34.4031 64.0248C35.3465 63.9043 36.2016 63.7944 36.4809 63.7746C36.5837 63.7627 36.6559 63.7454 36.7254 63.7163C36.7534 63.7044 36.7802 63.6912 36.8069 63.6766C36.9792 63.5707 37.0928 63.4079 37.0327 63.1564C37.0287 63.1392 37.0233 63.1207 37.0167 63.1021C37.006 63.0677 36.9913 63.032 36.9739 62.9949C36.716 62.4442 32.757 53.1756 32.5673 52.7255C32.4844 52.5283 32.3094 52.3245 32.0288 52.1656C31.668 51.9631 31.1362 51.8373 30.4094 51.9048C30.3867 51.9075 30.3653 51.9088 30.3439 51.9115C30.3172 51.9141 30.2918 51.9181 30.2664 51.9207C30.2464 51.9234 30.225 51.9273 30.2049 51.93C29.8575 51.9856 29.5141 52.0968 29.2456 52.245Z" fill="#D5D0CA"/>
<path d="M39.1384 64.1677L31.8911 65.1366L26.1002 51.3753L33.8205 50.446L39.1384 64.1677ZM28.7431 53.0154C28.9315 53.566 33.0977 63.3152 33.1671 63.576C33.1992 63.7017 33.27 63.8394 33.4397 63.9347C33.6214 64.0353 33.9167 64.0882 34.4017 64.026C35.3451 63.9056 36.2002 63.7957 36.5169 63.7719C36.581 63.7639 36.6532 63.7454 36.724 63.7176C36.752 63.7057 36.7788 63.6924 36.8242 63.6673C36.9792 63.572 37.0928 63.4092 37.0313 63.1577C37.0273 63.1405 37.0219 63.1219 37.0153 63.1034C37.0046 63.069 36.9899 63.0332 36.9725 62.9962C36.7146 62.4455 32.7556 53.1769 32.5659 52.7268C32.483 52.5296 32.308 52.3257 32.0274 52.1669C31.6666 51.9643 31.1349 51.8386 30.408 51.9061C30.3853 51.9087 30.3639 51.9101 30.3425 51.9127C30.3158 51.9154 30.2904 51.9193 30.265 51.922C30.245 51.9246 30.2236 51.9286 30.2036 51.9312C29.8615 51.9855 29.5181 52.0967 29.2175 52.2622C29.1948 52.2754 29.1734 52.2873 29.1533 52.3006C28.8647 52.4806 28.687 52.7069 28.7298 52.9492C28.7298 52.9717 28.7351 52.9929 28.7431 53.0154Z" fill="#EBE7DE"/>
<path d="M2 56.8992L16.4986 65.2466C16.4986 65.2466 16.4986 65.2466 22.049 64.4259C26.02 60.6109 22.9028 56.9059 19.8149 55.1321C18.5108 54.3829 17.2134 53.9791 16.4572 54.0559C13.9105 54.3153 5.18806 55.2856 4.72843 55.3373L2 56.8992Z" fill="#AAD792"/>
<path d="M22.0503 64.4258C16.4999 65.2465 16.4999 65.2465 16.4999 65.2465L19.2471 66.8283L30.0125 65.3881L24.255 51.5977L7.80957 53.5753L4.72974 55.3371C5.18937 55.2855 13.9105 54.3166 16.4585 54.0558C17.2148 53.979 18.5135 54.3827 19.8163 55.132C22.9028 56.9057 26.0214 60.6121 22.0503 64.4258Z" fill="#EBE7DE"/>
<path d="M63.7864 61.544L66.5415 68.0302L86 56.8991L78.9758 52.8564L63.7864 61.544Z" fill="#EBE7DE"/>
<path d="M40.4024 64.9909L37.6139 71.1396L64.1726 67.4689L61.8317 62.1833L40.4024 64.9909Z" fill="#EBE7DE"/>
<path d="M20.5686 67.5882L22.498 68.6988C22.9389 68.6379 31.3126 67.489 31.9754 67.4082C32.3909 67.3579 32.6341 67.3831 32.7931 67.4757C32.8879 67.5313 32.9521 67.6134 33.0042 67.718C33.1418 67.9986 33.9261 69.9193 33.9676 70.0199C34.0397 70.1589 34.0851 70.331 33.8633 70.47C33.8005 70.507 33.7524 70.5282 33.695 70.5494C33.6656 70.56 33.6322 70.5706 33.5974 70.5811C33.536 70.5984 33.4665 70.6156 33.389 70.6301C32.4991 70.7599 27.5246 71.4058 27.2627 71.4402L28.8461 72.351L35.6364 71.4124L38.6307 65.2214L20.5686 67.5882Z" fill="#EBE7DE"/>
<path d="M22.4966 68.6988L27.26 71.4416C27.5219 71.4072 32.4977 70.7612 33.3862 70.6315C33.4651 70.6169 33.5346 70.5997 33.5947 70.5825C33.6294 70.5719 33.6615 70.5613 33.6922 70.5507C33.7497 70.5295 33.7978 70.5084 33.8392 70.4845C33.8472 70.4806 33.8539 70.4753 33.8619 70.4713C34.0837 70.3323 34.0383 70.1602 33.9661 70.0212C33.9247 69.9206 33.1404 67.9999 33.0028 67.7193C32.9507 67.6147 32.8865 67.5327 32.7917 67.4771C32.6327 67.3831 32.3895 67.3592 31.9739 67.4095C31.3125 67.489 22.9375 68.6393 22.4966 68.6988Z" fill="#D5D0CA"/>
<path d="M30.1635 73.1134L33.7978 75.2062L35.1353 72.4436L30.1635 73.1134Z" fill="#EBE7DE"/>
<path d="M37.1462 72.1735L35.3624 76.1063L38.0214 77.6378L53.3591 75.5702L54.8876 74.6952C54.2115 74.768 41.3698 76.142 40.846 76.2016C40.5347 76.2373 40.3169 76.2373 40.1365 76.1354C40.0136 76.0653 39.908 75.9474 39.8025 75.7608C39.5446 75.3002 38.9166 73.5648 38.8832 73.4734C38.8765 73.4589 38.8698 73.4456 38.8645 73.4311C38.8124 73.3013 38.8191 73.1835 38.966 73.0922C39.0208 73.0618 39.0515 73.0472 39.0876 73.034C39.1157 73.0234 39.1464 73.0141 39.1798 73.0048C39.248 72.9863 39.3295 72.9691 39.423 72.9559C39.4537 72.9519 39.4858 72.9466 39.5179 72.9426C39.5499 72.9386 39.5833 72.9347 39.6181 72.932C40.4118 72.8566 57.727 70.3852 58.1986 70.3243C58.5447 70.2806 58.8908 70.188 59.1366 70.3296C59.2248 70.3812 59.301 70.4633 59.3584 70.5891C59.5735 71.0643 59.8167 71.8254 59.8301 71.8651L64.7912 69.0271L64.6536 68.4658L37.1462 72.1735Z" fill="#EBE7DE"/>
<path d="M38.9942 73.0775C38.8205 73.1847 38.8125 73.3025 38.8659 73.4323C38.8712 73.4455 38.8779 73.4601 38.8846 73.4746C38.918 73.566 39.5447 75.3013 39.8039 75.762C39.9094 75.9486 40.015 76.0664 40.1379 76.1366C40.3183 76.2385 40.5361 76.2385 40.8474 76.2028C41.3712 76.1432 54.213 74.7679 54.889 74.6964L59.8315 71.8689C59.8181 71.8292 59.5749 71.0681 59.3598 70.5929C59.3024 70.4671 59.2275 70.3851 59.138 70.3334C58.8935 70.1918 58.5461 70.2845 58.2 70.3281C57.7284 70.3877 40.4132 72.8604 39.6195 72.9359C39.5847 72.9398 39.5513 72.9425 39.5193 72.9465C39.4859 72.9504 39.4538 72.9544 39.4244 72.9597C39.3309 72.9743 39.2494 72.9901 39.1812 73.0087C39.1478 73.0179 39.1171 73.0272 39.089 73.0378C39.0516 73.0484 39.0209 73.0629 38.9942 73.0775Z" fill="#D5D0CA"/>
<path d="M38.0214 77.6377L39.5285 78.5047L50.7923 77.0381L53.3591 75.5701L38.0214 77.6377Z" fill="white"/>
<path d="M39.5286 78.5048L41.482 79.6299L47.7646 78.7695L50.7923 77.0381L39.5286 78.5048Z" fill="#EBE7DE"/>
<path d="M41.4821 79.6299L43.8631 81L47.7647 78.7695L41.4821 79.6299Z" fill="#AAD792"/>
<g clip-path="url(#clip0)">
<path d="M43 28.85C43 28.8361 43 28.8221 43.0009 28.8082C43.0009 28.7942 43.0018 28.7803 43.0026 28.7654C43.0026 28.7602 43.0035 28.755 43.0035 28.7497C43.0035 28.748 43.0035 28.7462 43.0035 28.7454C43.0044 28.7375 43.0044 28.7305 43.0053 28.7227C43.007 28.7079 43.0079 28.6939 43.0105 28.6791C43.0123 28.6642 43.0149 28.6494 43.0167 28.6346C43.0193 28.6198 43.0219 28.6049 43.0246 28.5892C43.0263 28.5788 43.029 28.5683 43.0307 28.5578C43.0307 28.5561 43.0316 28.5552 43.0316 28.5535C43.0325 28.55 43.0334 28.5465 43.0334 28.543C43.0369 28.5273 43.0404 28.5116 43.0439 28.4959C43.0474 28.4802 43.0518 28.4645 43.0562 28.4488C43.0606 28.4331 43.065 28.4174 43.0702 28.4017C43.0746 28.386 43.0799 28.3711 43.0852 28.3554C43.0852 28.3546 43.086 28.3537 43.086 28.3528V28.3519C43.0904 28.338 43.0957 28.324 43.101 28.311C43.1062 28.2961 43.1115 28.2822 43.1176 28.2673C43.1229 28.2525 43.1291 28.2386 43.1352 28.2237C43.1413 28.2098 43.1475 28.1949 43.1536 28.181C43.1589 28.1688 43.1642 28.1566 43.1703 28.1443L46.1886 21.6936L47.2544 22.3086L44.2361 28.7593C44.2036 28.8291 44.1755 28.8989 44.1527 28.9669V28.9678C44.1299 29.0358 44.1115 29.1021 44.0974 29.1676C44.0974 29.1693 44.0965 29.1702 44.0965 29.1719C44.0834 29.2365 44.0737 29.2984 44.0693 29.3586C44.0693 29.3603 44.0693 29.3621 44.0693 29.363C44.0649 29.4231 44.0649 29.4816 44.0684 29.5365C44.0684 29.5374 44.0684 29.5392 44.0684 29.54C44.0728 29.595 44.0807 29.6465 44.093 29.6944C44.0939 29.6971 44.0939 29.6988 44.0948 29.7014C44.1071 29.7485 44.1237 29.7913 44.1431 29.8314C44.1448 29.8349 44.1475 29.8384 44.1492 29.8427C44.165 29.8733 44.1852 29.8994 44.2054 29.9247C44.2133 29.9343 44.2212 29.9457 44.23 29.9544C44.2581 29.9832 44.2888 30.0093 44.323 30.0294L43.2572 29.4144C43.2221 29.3944 43.1923 29.3682 43.1642 29.3394C43.1554 29.3298 43.1484 29.3193 43.1396 29.3097C43.1282 29.2958 43.1159 29.2836 43.1054 29.2679C43.0975 29.2557 43.0904 29.2417 43.0834 29.2277C43.0816 29.2243 43.079 29.2199 43.0773 29.2164C43.0755 29.2129 43.0737 29.2103 43.072 29.2068C43.0641 29.1902 43.0571 29.1728 43.05 29.1553C43.0439 29.1396 43.0386 29.1239 43.0342 29.1074C43.0325 29.1004 43.0307 29.0934 43.029 29.0864C43.0281 29.0838 43.0281 29.0821 43.0272 29.0795C43.0255 29.0733 43.0237 29.0672 43.0228 29.0611C43.0193 29.0472 43.0167 29.0324 43.014 29.0175C43.0114 29.0036 43.0097 28.9887 43.0079 28.9748C43.0061 28.9608 43.0044 28.9469 43.0035 28.932C43.0035 28.9294 43.0035 28.9268 43.0026 28.9242C43.0026 28.9233 43.0026 28.9216 43.0026 28.9207C43.0018 28.9102 43.0009 28.9006 43.0009 28.8902C43 28.878 43 28.864 43 28.85Z" fill="#9545E7"/>
<path d="M47.2553 22.3096L44.237 28.7603C43.9464 29.3823 44.0342 29.9711 44.4319 30.0749C44.5917 30.1176 44.777 30.0758 44.9596 29.9702C45.2335 29.8132 45.5039 29.514 45.6786 29.1415L48.6969 22.6899L47.2553 22.3096Z" fill="#E4D1F9"/>
<path d="M48.4062 19.8242L47.2596 22.2998L48.6968 22.6889L49.868 20.2107C49.6011 20.2115 49.3412 20.1801 49.0919 20.1138C48.8425 20.0493 48.6143 19.9507 48.4062 19.8242Z" fill="white"/>
<path d="M48.4063 19.8242L47.3405 19.2092L46.1948 21.6848L47.2598 22.3007L48.4063 19.8242Z" fill="#F1E7FC"/>
<path d="M48.4678 17.8598C48.4871 17.8676 48.5055 17.8755 48.5248 17.8833C48.5968 17.9112 48.6706 17.9374 48.7478 17.9583C48.8216 17.9775 48.8971 17.9906 48.9726 18.0028C49.0042 18.0081 49.0358 18.0124 49.0683 18.0159C49.142 18.0246 49.2175 18.0299 49.293 18.0316C49.3027 18.0316 49.3123 18.0325 49.322 18.0333C49.4089 18.0342 49.4976 18.029 49.5862 18.0203C49.6047 18.0185 49.6231 18.0168 49.6415 18.015C49.7285 18.0054 49.8163 17.9924 49.9049 17.974C49.9172 17.9714 49.9286 17.9688 49.9409 17.9662C50.034 17.9461 50.1288 17.9226 50.2227 17.8947C50.2262 17.8938 50.2306 17.892 50.2342 17.8912C50.3325 17.8606 50.4317 17.8266 50.5309 17.7874C50.5344 17.7865 50.537 17.7847 50.5405 17.7839C50.6389 17.7446 50.7381 17.701 50.8373 17.653C50.8452 17.6495 50.8522 17.646 50.8601 17.6426C50.9628 17.592 51.0664 17.5379 51.1691 17.4786C51.2446 17.4358 51.3193 17.3896 51.3948 17.3416C51.4097 17.332 51.4246 17.3224 51.4395 17.3128C51.4957 17.2762 51.5519 17.2387 51.6072 17.2003C51.6301 17.1846 51.6529 17.1689 51.6748 17.1523C51.7266 17.1157 51.7775 17.0773 51.8293 17.038C51.8495 17.0223 51.8706 17.0075 51.8908 16.9918C51.9619 16.9369 52.0321 16.8802 52.1024 16.8217C52.1085 16.8165 52.1147 16.8104 52.1208 16.8051C52.1849 16.7511 52.2481 16.6952 52.3113 16.6385C52.3342 16.6185 52.3561 16.5975 52.3781 16.5766C52.4255 16.5321 52.4737 16.4876 52.5203 16.4414C52.544 16.4187 52.5668 16.396 52.5905 16.3725C52.6397 16.3236 52.6888 16.2739 52.7371 16.2224C52.7547 16.2041 52.7731 16.1858 52.7907 16.1666C52.8556 16.0977 52.9197 16.027 52.9829 15.9555C52.9952 15.9415 53.0075 15.9267 53.0198 15.9128C53.0716 15.8534 53.1225 15.7933 53.1726 15.7322C53.1928 15.7078 53.213 15.6833 53.2323 15.6589C53.2744 15.6066 53.3166 15.5525 53.3587 15.4984C53.3815 15.4688 53.4052 15.4391 53.4281 15.4086C53.4553 15.3728 53.4807 15.3362 53.5071 15.2995C53.5571 15.2315 53.6063 15.1626 53.6546 15.0928C53.6756 15.0623 53.6967 15.0309 53.7178 14.9995C53.8205 14.8477 53.9197 14.6907 54.0154 14.5301C54.0365 14.4944 54.0575 14.4569 54.0786 14.4211C54.1181 14.3522 54.1576 14.2833 54.1954 14.2135C54.2252 14.1577 54.2559 14.1027 54.2849 14.046C54.2998 14.0172 54.3148 13.9884 54.3297 13.9588C54.3771 13.8654 54.4236 13.7712 54.4684 13.6762C54.5404 13.5226 54.6062 13.37 54.6677 13.2173C54.673 13.2042 54.6782 13.1903 54.6835 13.1772C54.7432 13.0272 54.7994 12.878 54.8494 12.7297C54.8512 12.7253 54.8521 12.721 54.8538 12.7175C54.9056 12.5648 54.9521 12.4131 54.9934 12.2621C54.996 12.2525 54.9978 12.2438 55.0004 12.2342C55.0391 12.092 55.0733 11.9507 55.1031 11.8112C55.1058 11.7972 55.1093 11.7824 55.1119 11.7684C55.14 11.6332 55.1637 11.5006 55.183 11.3689C55.1857 11.3532 55.1874 11.3384 55.1901 11.3227C55.2085 11.1927 55.2225 11.0645 55.2331 10.938C55.234 10.9231 55.2357 10.9083 55.2366 10.8944C55.2462 10.767 55.2506 10.6423 55.2515 10.5193C55.2515 10.5071 55.2515 10.4948 55.2524 10.4835C55.2524 10.3596 55.248 10.2384 55.2401 10.1197C55.2392 10.1093 55.2392 10.0979 55.2383 10.0875C55.2296 9.97146 55.2155 9.85893 55.1988 9.74902C55.1962 9.73419 55.1944 9.71936 55.1918 9.70453C55.1743 9.59985 55.1523 9.49779 55.1277 9.39922C55.1225 9.37741 55.1163 9.3556 55.1102 9.3338C55.0821 9.23174 55.0522 9.13142 55.0162 9.03634C55.0153 9.03459 55.0153 9.03372 55.0145 9.03198C54.9794 8.93951 54.9398 8.85228 54.8977 8.76767C54.874 8.71969 54.8468 8.6752 54.8204 8.62984C54.7932 8.58186 54.766 8.53302 54.7362 8.48766C54.7186 8.46149 54.6993 8.43706 54.6817 8.41176C54.6431 8.35943 54.6036 8.30883 54.5615 8.26085C54.5395 8.23556 54.5176 8.21113 54.4947 8.18758C54.45 8.14135 54.4026 8.09773 54.3543 8.05586C54.3323 8.03667 54.3113 8.01748 54.2884 7.99916C54.2164 7.94246 54.1409 7.88925 54.061 7.84302L55.1268 8.458C55.2067 8.50423 55.2822 8.55744 55.3542 8.61414C55.3771 8.63246 55.3981 8.65165 55.4201 8.67084C55.4684 8.71271 55.5158 8.75633 55.5605 8.80256C55.5834 8.82611 55.6053 8.85054 55.6273 8.87583C55.6694 8.92381 55.7089 8.9744 55.7475 9.02674C55.766 9.05204 55.7853 9.07646 55.8029 9.10263C55.8108 9.11397 55.8195 9.12357 55.8266 9.13578C55.8485 9.1698 55.8669 9.20906 55.8871 9.24482C55.9135 9.29018 55.9407 9.33467 55.9644 9.38352C55.9697 9.39486 55.9767 9.40358 55.9819 9.41492C56.0179 9.48994 56.0513 9.56758 56.0812 9.64783C56.082 9.64957 56.082 9.65044 56.0829 9.65219C56.1101 9.72372 56.1338 9.79699 56.1567 9.87288C56.1637 9.89731 56.1698 9.92348 56.1768 9.94878C56.183 9.97058 56.1883 9.99239 56.1944 10.0142C56.2006 10.0378 56.2076 10.0604 56.2128 10.084C56.2278 10.1494 56.2409 10.2157 56.2532 10.2829C56.255 10.2951 56.2567 10.3073 56.2585 10.3195C56.2611 10.3343 56.2629 10.3492 56.2655 10.364C56.2717 10.4032 56.2778 10.4416 56.2831 10.4809C56.291 10.5454 56.298 10.61 56.3033 10.6763C56.3041 10.685 56.3041 10.6937 56.305 10.7025C56.3059 10.7129 56.3059 10.7243 56.3068 10.7347C56.3103 10.7792 56.3129 10.8237 56.3156 10.8691C56.3182 10.9327 56.32 10.9982 56.32 11.0636C56.32 11.0749 56.32 11.0871 56.32 11.0985C56.32 11.1107 56.32 11.1229 56.3191 11.1342C56.3191 11.1744 56.3191 11.2145 56.3173 11.2555C56.3156 11.32 56.312 11.3855 56.3085 11.4509C56.3077 11.4701 56.305 11.4893 56.3041 11.5085C56.3033 11.5233 56.3015 11.5373 56.3006 11.5521C56.298 11.5835 56.2962 11.6149 56.2927 11.6472C56.2866 11.7135 56.2787 11.7798 56.2708 11.8469C56.2673 11.8766 56.262 11.9071 56.2576 11.9368C56.2559 11.9525 56.2532 11.9673 56.2506 11.983C56.2471 12.0057 56.2444 12.0275 56.2409 12.0502C56.2304 12.1182 56.2181 12.188 56.2049 12.2569C56.197 12.2988 56.1883 12.3407 56.1795 12.3825C56.1768 12.3965 56.1742 12.4104 56.1707 12.4253C56.1672 12.4401 56.1654 12.4541 56.1619 12.4689C56.1461 12.5395 56.1294 12.6111 56.1119 12.6826C56.0978 12.7376 56.0829 12.7934 56.068 12.8492C56.0654 12.8588 56.0636 12.8675 56.061 12.8771C56.0592 12.8841 56.0575 12.8911 56.0557 12.8981C56.0355 12.9687 56.0153 13.0402 55.9925 13.1118C55.9705 13.1816 55.9486 13.2522 55.9249 13.322C55.924 13.3255 55.9222 13.3281 55.9214 13.3316C55.9196 13.336 55.9187 13.3403 55.917 13.3438C55.8959 13.4049 55.8748 13.4668 55.852 13.5279C55.8283 13.5942 55.8029 13.6605 55.7765 13.7268C55.7677 13.7486 55.759 13.7695 55.7502 13.7913C55.7449 13.8044 55.7396 13.8183 55.7335 13.8314C55.7212 13.8628 55.7089 13.8934 55.6957 13.9248C55.6685 13.9902 55.6404 14.0547 55.6115 14.1202C55.586 14.1769 55.5605 14.2336 55.5342 14.2903C55.5298 14.2999 55.5254 14.3086 55.521 14.3182C55.4886 14.388 55.4543 14.4569 55.4201 14.5249C55.4122 14.5415 55.4034 14.5572 55.3955 14.5729C55.3806 14.6017 55.3656 14.6313 55.3507 14.6601C55.3332 14.6941 55.3156 14.729 55.2972 14.7631C55.2858 14.7849 55.2726 14.8058 55.2612 14.8276C55.2225 14.8974 55.1839 14.9672 55.1444 15.0361C55.1295 15.0623 55.1146 15.0902 55.0996 15.1163C55.0935 15.1259 55.0873 15.1355 55.0812 15.1451C54.9855 15.3056 54.8863 15.4618 54.7836 15.6144C54.7748 15.6275 54.7669 15.6415 54.7581 15.6546C54.7458 15.6729 54.7327 15.6903 54.7204 15.7078C54.6721 15.7784 54.6229 15.8473 54.5729 15.9154C54.5553 15.9389 54.5395 15.9634 54.522 15.9869C54.5123 15.9991 54.5026 16.0113 54.4939 16.0235C54.471 16.0541 54.4473 16.0837 54.4245 16.1134C54.3999 16.1457 54.3753 16.1779 54.3499 16.2102C54.3332 16.232 54.3148 16.253 54.2981 16.2739C54.2779 16.2983 54.2586 16.3227 54.2384 16.3472C54.2226 16.3655 54.2077 16.3856 54.1927 16.4039C54.1576 16.4457 54.1216 16.4867 54.0865 16.5277C54.0742 16.5417 54.0619 16.5565 54.0496 16.5705C54.0452 16.5748 54.0417 16.5801 54.0373 16.5844C53.9847 16.6446 53.9311 16.7031 53.8776 16.7606C53.8705 16.7676 53.8644 16.7746 53.8574 16.7816C53.8398 16.8008 53.8214 16.8191 53.8038 16.8374C53.7722 16.8697 53.7415 16.9037 53.7099 16.9351C53.6923 16.9526 53.6748 16.9691 53.6572 16.9866C53.6335 17.0101 53.6107 17.0328 53.587 17.0555C53.5694 17.0729 53.5518 17.0904 53.5334 17.1078C53.5036 17.1357 53.4737 17.1628 53.4447 17.1898C53.4219 17.2108 53.4 17.2317 53.3771 17.2518C53.3684 17.2596 53.3596 17.2683 53.3508 17.2762C53.2964 17.325 53.2419 17.3721 53.1866 17.4184C53.1805 17.4236 53.1743 17.4297 53.1682 17.4349C53.1673 17.4358 53.1664 17.4367 53.1656 17.4376C53.1041 17.489 53.0426 17.5387 52.9803 17.5876C52.9724 17.5937 52.9645 17.5989 52.9566 17.605C52.9364 17.6207 52.9153 17.6364 52.8943 17.6521C52.8618 17.6766 52.8293 17.7019 52.7977 17.7254C52.7784 17.7394 52.76 17.7525 52.7406 17.7655C52.7178 17.7821 52.695 17.7978 52.673 17.8135C52.6555 17.8257 52.6379 17.8388 52.6195 17.851C52.5817 17.8772 52.5431 17.9016 52.5054 17.9261C52.4904 17.9356 52.4755 17.9461 52.4606 17.9557C52.4553 17.9592 52.4509 17.9618 52.4457 17.9653C52.3886 18.0011 52.3315 18.036 52.2745 18.0691C52.2613 18.077 52.2481 18.0848 52.235 18.0918C52.1919 18.1162 52.1489 18.1406 52.1059 18.1633C52.0506 18.193 51.9953 18.2218 51.94 18.2488C51.9356 18.2514 51.9312 18.2532 51.9259 18.2549C51.918 18.2584 51.911 18.2619 51.9031 18.2654C51.8601 18.2854 51.8179 18.3064 51.7758 18.3256C51.7214 18.35 51.6661 18.3727 51.6116 18.3945C51.6099 18.3954 51.6081 18.3954 51.6064 18.3962C51.6028 18.3971 51.6002 18.3988 51.5967 18.3997C51.5467 18.4189 51.4966 18.4381 51.4474 18.4555C51.3983 18.473 51.3491 18.4887 51.3 18.5035C51.2964 18.5044 51.2921 18.5061 51.2885 18.507C51.2868 18.5079 51.2842 18.5088 51.2824 18.5088C51.2262 18.5253 51.1709 18.541 51.1156 18.555C51.0787 18.5637 51.0427 18.5716 51.0059 18.5794C50.9936 18.582 50.9821 18.5846 50.9699 18.5873C50.9611 18.589 50.9532 18.5916 50.9444 18.5925C50.8856 18.6038 50.8276 18.6134 50.7688 18.6213C50.7477 18.6239 50.7267 18.6256 50.7056 18.6274C50.6872 18.6291 50.6687 18.6318 50.6503 18.6335C50.6292 18.6352 50.6073 18.6387 50.5862 18.6405C50.5212 18.6448 50.4571 18.6475 50.3939 18.6466C50.3913 18.6466 50.3887 18.6466 50.386 18.6466C50.3764 18.6466 50.3667 18.6457 50.3562 18.6448C50.2982 18.644 50.2412 18.6422 50.185 18.637C50.1674 18.6352 50.1499 18.6318 50.1323 18.6291C50.0998 18.6256 50.0682 18.6204 50.0366 18.6152C50.0076 18.6108 49.9787 18.6082 49.9506 18.603C49.904 18.5942 49.8575 18.5829 49.8127 18.5716C49.7583 18.5567 49.7048 18.5402 49.6521 18.5218C49.631 18.514 49.6108 18.5053 49.5898 18.4965C49.5704 18.4887 49.5511 18.4808 49.5318 18.473C49.4598 18.4425 49.3905 18.4093 49.3237 18.3709L48.2579 17.756C48.3255 17.7952 48.3958 17.8292 48.4678 17.8598Z" fill="#9545E7"/>
<path d="M45.8427 15.8073C45.8427 15.768 45.8436 15.7296 45.8445 15.6904C45.8453 15.6634 45.8445 15.6372 45.8453 15.611C45.8462 15.5909 45.8471 15.57 45.848 15.5491C45.8497 15.5098 45.8515 15.4697 45.8532 15.4304C45.8541 15.406 45.855 15.3825 45.8567 15.358C45.8585 15.3345 45.8611 15.3092 45.8629 15.2856C45.8655 15.2464 45.869 15.2071 45.8725 15.167C45.8743 15.1452 45.8752 15.1243 45.8778 15.1025C45.8804 15.0745 45.884 15.0458 45.8875 15.0178C45.8919 14.9777 45.8963 14.9385 45.9006 14.8983C45.9033 14.88 45.9042 14.8617 45.9068 14.8434C45.9112 14.8102 45.9164 14.7771 45.9208 14.7448C45.9261 14.7056 45.9314 14.6654 45.9375 14.6253C45.9401 14.6105 45.9419 14.5956 45.9437 14.5799C45.9498 14.5424 45.9568 14.5049 45.963 14.4683C45.97 14.4282 45.977 14.3872 45.984 14.3462C45.9867 14.3339 45.9876 14.3226 45.9902 14.3104C45.9981 14.2685 46.0077 14.2267 46.0156 14.1839C46.0236 14.1438 46.0315 14.1037 46.0402 14.0635C46.042 14.0548 46.0437 14.0452 46.0455 14.0365C46.056 13.9894 46.0674 13.9414 46.0789 13.8943C46.0876 13.8551 46.0964 13.8167 46.1061 13.7774C46.1078 13.7713 46.1087 13.7643 46.1105 13.7582C46.1245 13.7015 46.1403 13.644 46.1561 13.5864C46.1649 13.5541 46.1728 13.521 46.1816 13.4887C46.1825 13.4852 46.1833 13.4817 46.1842 13.4782C46.2105 13.3849 46.2378 13.2915 46.2667 13.1982C46.2948 13.1075 46.3238 13.0168 46.3545 12.9252C46.3563 12.9199 46.358 12.9138 46.3607 12.9086C46.3712 12.8781 46.3826 12.8475 46.3932 12.817C46.4125 12.7629 46.4309 12.708 46.4502 12.653C46.4546 12.6408 46.459 12.6295 46.4634 12.6172C46.4757 12.585 46.488 12.5518 46.5003 12.5195C46.5161 12.4785 46.531 12.4367 46.5477 12.3957C46.5565 12.3739 46.5652 12.3521 46.574 12.3303C46.5881 12.2945 46.603 12.2587 46.617 12.223C46.6284 12.1942 46.6399 12.1654 46.6521 12.1366C46.6662 12.1035 46.6811 12.0694 46.696 12.0354C46.711 12.0014 46.725 11.9674 46.7399 11.9342C46.7478 11.9168 46.7549 11.8993 46.7628 11.8819C46.7952 11.8086 46.8286 11.7353 46.8629 11.6629C46.8681 11.6507 46.8743 11.6385 46.8795 11.6272C46.9225 11.5365 46.9656 11.4466 47.0103 11.3576C47.0209 11.3367 47.0323 11.3158 47.0428 11.2948C47.0621 11.2573 47.0815 11.2198 47.1008 11.1823C47.1245 11.1378 47.1464 11.0924 47.1701 11.048C47.185 11.0192 47.2017 10.9921 47.2175 10.9642C47.2676 10.8726 47.3185 10.7828 47.3694 10.6929C47.3896 10.658 47.408 10.6223 47.4282 10.5882C47.4414 10.5664 47.4555 10.5446 47.4677 10.5228C47.5002 10.4679 47.5336 10.4138 47.5678 10.3597C47.61 10.2917 47.653 10.2236 47.696 10.1565C47.7302 10.1032 47.7654 10.05 47.8005 9.99769C47.8242 9.96193 47.847 9.92616 47.8707 9.8904C47.8865 9.86685 47.9032 9.84504 47.9199 9.82149C47.9848 9.72815 48.0507 9.63569 48.1165 9.54497C48.1385 9.51531 48.1595 9.4839 48.1815 9.45424C48.1929 9.43942 48.2043 9.42459 48.2157 9.40888C48.2447 9.36963 48.2746 9.33212 48.3044 9.29374C48.3378 9.251 48.3703 9.20738 48.4036 9.16464C48.4256 9.1376 48.4475 9.11143 48.4695 9.08439C48.4949 9.05211 48.5213 9.02071 48.5476 8.9893C48.5678 8.96401 48.5889 8.93871 48.609 8.91341C48.6529 8.8602 48.6986 8.80961 48.7434 8.75727C48.7601 8.73808 48.7767 8.71801 48.7943 8.69882C48.8004 8.69185 48.8057 8.68574 48.8118 8.67876C48.8803 8.60113 48.9497 8.52523 49.0199 8.45022C49.0278 8.44149 49.0366 8.43277 49.0445 8.42405C49.0664 8.40049 49.0893 8.37694 49.1121 8.35339C49.1542 8.30977 49.1955 8.26529 49.2376 8.22254C49.2596 8.19986 49.2824 8.17893 49.3044 8.15712C49.3342 8.12746 49.3649 8.0978 49.3948 8.06814C49.4185 8.04459 49.4422 8.02104 49.4659 7.99836C49.5037 7.96259 49.5414 7.92857 49.58 7.89281C49.609 7.86577 49.638 7.83873 49.667 7.81256C49.6792 7.80209 49.6907 7.78988 49.7029 7.77941C49.7714 7.71835 49.8399 7.65903 49.9093 7.60059C49.9198 7.59186 49.9295 7.58314 49.94 7.57442C49.9417 7.57354 49.9426 7.5718 49.9444 7.57093C50.0243 7.50376 50.1042 7.43921 50.1841 7.3764C50.1937 7.36855 50.2042 7.36157 50.2139 7.35372C50.2402 7.33366 50.2666 7.3136 50.2929 7.29353C50.3351 7.26126 50.3781 7.22811 50.4202 7.19671C50.4448 7.17926 50.4694 7.16269 50.494 7.14524C50.5229 7.1243 50.5528 7.10337 50.5818 7.08331C50.6055 7.06673 50.6283 7.05016 50.6511 7.03446C50.7003 7.00131 50.7494 6.96903 50.7995 6.93763C50.8188 6.92542 50.8381 6.91233 50.8574 6.90012C50.8636 6.89576 50.8706 6.8914 50.8767 6.88704C50.9505 6.8408 51.0242 6.79544 51.0989 6.75183C51.1155 6.74223 51.1331 6.73176 51.1498 6.72217C51.206 6.68989 51.2613 6.65936 51.3175 6.62883C51.3236 6.62534 51.3297 6.62273 51.3359 6.61924C51.3763 6.59743 51.4175 6.57737 51.4579 6.55643C51.4825 6.54335 51.508 6.53026 51.5325 6.51805C51.5369 6.51543 51.5413 6.51369 51.5457 6.51194C51.587 6.49188 51.6282 6.47269 51.6695 6.4535C51.695 6.44216 51.7204 6.42907 51.745 6.41773C51.7485 6.41599 51.7512 6.41512 51.7547 6.41424C51.7994 6.39418 51.8433 6.37673 51.8881 6.35842C51.9118 6.34882 51.9346 6.33835 51.9583 6.32876C51.9601 6.32788 51.9619 6.32788 51.9636 6.32701C52.0233 6.30346 52.083 6.28078 52.1427 6.25984C52.1524 6.25636 52.162 6.25287 52.1708 6.24938H52.1717C52.241 6.22495 52.3104 6.20227 52.3797 6.18134C52.3815 6.18046 52.3833 6.18046 52.385 6.17959C52.4043 6.17349 52.4228 6.16912 52.4421 6.16389C52.4912 6.14993 52.5404 6.13598 52.5896 6.12376C52.594 6.12289 52.5984 6.12115 52.6019 6.12027C52.6229 6.11504 52.6431 6.11155 52.6633 6.10632C52.709 6.09585 52.7555 6.08538 52.8012 6.07579C52.8082 6.07404 52.8161 6.0723 52.824 6.07055C52.8433 6.06706 52.8626 6.06445 52.881 6.06096C52.9267 6.05311 52.9715 6.04526 53.0171 6.03828C53.0285 6.03653 53.0399 6.03392 53.0522 6.03217C53.068 6.03043 53.0838 6.02955 53.0988 6.02694C53.1471 6.02083 53.1945 6.01647 53.2428 6.01211C53.2586 6.01124 53.2744 6.00862 53.2893 6.00687C53.2998 6.006 53.3095 6.00687 53.32 6.006C53.3823 6.00251 53.4447 5.9999 53.5061 5.9999C53.5175 5.9999 53.529 5.99902 53.5404 5.99902C53.543 5.99902 53.5448 5.99902 53.5474 5.99902C53.6282 5.9999 53.7081 6.00338 53.7879 6.01036C53.7958 6.01124 53.8046 6.01036 53.8125 6.01124C53.8231 6.01211 53.8327 6.01473 53.8433 6.0156C53.9363 6.02519 54.0276 6.03653 54.118 6.05485C54.1786 6.06706 54.2383 6.08015 54.2971 6.09585C54.3691 6.11504 54.4394 6.13685 54.5087 6.1604C54.5359 6.17 54.5623 6.18221 54.5886 6.19268C54.6141 6.20227 54.6387 6.21274 54.6641 6.22321C54.7581 6.26333 54.8494 6.30695 54.9363 6.35667L56.0021 6.97165C55.9152 6.92193 55.8239 6.87831 55.7299 6.83819C55.7053 6.82772 55.6799 6.81725 55.6544 6.80766C55.5605 6.77102 55.4639 6.737 55.3629 6.70996C55.3041 6.69425 55.2435 6.6803 55.1838 6.66896C55.0934 6.65151 55.0012 6.6393 54.9091 6.6297C54.8906 6.62796 54.8722 6.62534 54.8537 6.62447C54.7747 6.61836 54.6948 6.614 54.6132 6.61313C54.5991 6.61313 54.5851 6.614 54.5719 6.614C54.5105 6.614 54.4481 6.61662 54.3858 6.62011C54.3604 6.62185 54.334 6.6236 54.3086 6.62621C54.2611 6.63058 54.2129 6.63494 54.1646 6.64104C54.1374 6.64453 54.1101 6.64802 54.0829 6.65151C54.0373 6.65762 53.9916 6.66547 53.946 6.67419C53.9196 6.67855 53.8933 6.68291 53.867 6.68815C53.8204 6.69774 53.7739 6.70821 53.7282 6.71868C53.7037 6.72479 53.68 6.72915 53.6554 6.73525C53.6053 6.74747 53.5553 6.7623 53.5053 6.77625C53.4851 6.78236 53.4657 6.78672 53.4456 6.79283C53.3762 6.81376 53.3068 6.83644 53.2366 6.86087C53.2261 6.86436 53.2164 6.86872 53.2059 6.87221C53.1471 6.89314 53.0874 6.91495 53.0277 6.9385C53.0022 6.94897 52.9767 6.96031 52.9513 6.97078C52.9074 6.9891 52.8626 7.00741 52.8187 7.02661C52.7906 7.03882 52.7634 7.05277 52.7353 7.06499C52.6932 7.08418 52.6519 7.10337 52.6098 7.12343C52.5799 7.13826 52.5509 7.15309 52.5211 7.16792C52.4807 7.18885 52.4394 7.20892 52.3991 7.23073C52.3376 7.26387 52.2753 7.29789 52.2138 7.33279C52.1164 7.38861 52.0189 7.44793 51.9215 7.50987C51.9022 7.52208 51.8828 7.53516 51.8635 7.54737C51.7907 7.59448 51.7178 7.64333 51.6458 7.69392C51.6168 7.71399 51.587 7.73492 51.558 7.75586C51.4904 7.80383 51.4237 7.85356 51.357 7.90415C51.3306 7.92421 51.3043 7.9434 51.2779 7.96434C51.1858 8.03587 51.0945 8.10914 51.004 8.18503C50.9944 8.19288 50.9847 8.20248 50.9751 8.21033C50.8934 8.27924 50.8126 8.3499 50.7328 8.4223C50.7038 8.44847 50.6739 8.47639 50.645 8.50343C50.5835 8.561 50.5212 8.61857 50.4606 8.67789C50.4307 8.70755 50.4 8.73721 50.3702 8.76686C50.3052 8.83142 50.2411 8.89684 50.177 8.96401C50.1551 8.98756 50.1323 9.01024 50.1103 9.03379C50.026 9.12364 49.9426 9.21523 49.8601 9.30857C49.8434 9.32776 49.8267 9.34782 49.8101 9.36701C49.7442 9.4429 49.6792 9.51967 49.6143 9.59818C49.5879 9.62958 49.5625 9.66185 49.5361 9.69413C49.4808 9.76304 49.4264 9.83283 49.372 9.90348C49.3421 9.94187 49.3123 9.98025 49.2833 10.0186C49.2499 10.0631 49.2166 10.1094 49.1841 10.1547C49.1174 10.2454 49.0515 10.337 48.9874 10.4312C48.9471 10.4888 48.9075 10.5472 48.8689 10.6066C48.8338 10.6598 48.7987 10.7121 48.7644 10.7662C48.7214 10.8334 48.6793 10.9014 48.6371 10.9694C48.6038 11.0235 48.5695 11.0785 48.5371 11.1334C48.5037 11.1893 48.4712 11.246 48.4387 11.3027C48.3869 11.3925 48.336 11.4824 48.286 11.574C48.2465 11.6464 48.2078 11.7188 48.1692 11.792C48.1499 11.8295 48.1297 11.8671 48.1104 11.9054C48.0489 12.0267 47.9884 12.1488 47.9304 12.2736C47.8883 12.3643 47.8479 12.4541 47.8084 12.5448C47.7935 12.5789 47.7785 12.6129 47.7645 12.6469C47.7381 12.7088 47.7118 12.7716 47.6863 12.8336C47.6714 12.8693 47.6574 12.9051 47.6425 12.9409C47.617 13.0037 47.5933 13.0665 47.5696 13.1293C47.5573 13.1624 47.5441 13.1956 47.5318 13.2279C47.5072 13.2942 47.4844 13.3605 47.4616 13.4259C47.4511 13.4564 47.4396 13.4878 47.4291 13.5183C47.3633 13.7129 47.3036 13.9065 47.25 14.0976C47.2412 14.1307 47.2325 14.163 47.2237 14.1961C47.207 14.2598 47.1894 14.3235 47.1736 14.3863C47.164 14.4255 47.1552 14.4639 47.1464 14.5032C47.1333 14.5599 47.1201 14.6166 47.1078 14.6724C47.099 14.7125 47.0911 14.7527 47.0832 14.7928C47.0727 14.8469 47.0613 14.901 47.0516 14.9542C47.0437 14.9952 47.0376 15.0353 47.0305 15.0763C47.0218 15.1286 47.013 15.181 47.0042 15.2333C46.9981 15.2734 46.9928 15.3127 46.9875 15.3528C46.9805 15.4043 46.9735 15.4557 46.9673 15.5063C46.9621 15.5465 46.9585 15.5866 46.9542 15.6267C46.9489 15.6764 46.9436 15.7262 46.9392 15.7759C46.9357 15.816 46.9322 15.8553 46.9296 15.8945C46.9261 15.9434 46.9225 15.9913 46.9199 16.0402C46.9182 16.0803 46.9155 16.1196 46.9146 16.1588C46.9129 16.2059 46.912 16.253 46.9111 16.3001C46.9103 16.3394 46.9094 16.3786 46.9094 16.417C46.9094 16.4624 46.9103 16.5077 46.9103 16.5522C46.9111 16.5932 46.912 16.6342 46.9129 16.6744C46.9146 16.718 46.9164 16.7607 46.919 16.8026C46.9217 16.8445 46.9234 16.8855 46.9269 16.9265C46.9296 16.9675 46.934 17.0076 46.9375 17.0477C46.9419 17.0913 46.9463 17.1341 46.9506 17.1777C46.955 17.2152 46.9603 17.2527 46.9656 17.2902C46.9717 17.3373 46.9787 17.3835 46.9866 17.4298C46.9928 17.4655 46.9989 17.5004 47.0051 17.5353C47.0147 17.5851 47.0244 17.6339 47.0349 17.6827C47.0419 17.715 47.049 17.7473 47.0569 17.7796C47.0709 17.8371 47.0858 17.8938 47.1016 17.9497C47.1087 17.9741 47.1148 17.9994 47.1218 18.0238C47.1482 18.1111 47.1763 18.1957 47.207 18.2785C47.2123 18.2942 47.2193 18.3091 47.2246 18.3239C47.2562 18.4068 47.2913 18.4879 47.3273 18.5664C47.3352 18.583 47.3422 18.5995 47.3501 18.6161C47.4037 18.7269 47.4625 18.8316 47.5257 18.9328C47.5345 18.9467 47.5424 18.9607 47.5511 18.9738C47.6012 19.0514 47.6547 19.1255 47.7101 19.1962C47.7215 19.211 47.7338 19.2241 47.7452 19.239C47.797 19.3026 47.8514 19.3637 47.9085 19.4213C47.9172 19.4309 47.926 19.4405 47.9357 19.45C47.9989 19.5129 48.0656 19.5713 48.135 19.6271C48.1508 19.6402 48.1666 19.6524 48.1824 19.6646C48.2544 19.7196 48.3281 19.7728 48.4054 19.8199C48.4212 19.8295 48.4379 19.8391 48.4537 19.8487L47.3879 19.2337C47.3712 19.2241 47.3554 19.2145 47.3396 19.2049C47.2623 19.1578 47.1886 19.1055 47.1166 19.0497C47.1008 19.0374 47.0841 19.0252 47.0683 19.0121C46.9989 18.9563 46.9322 18.8979 46.869 18.8351C46.8602 18.8263 46.8514 18.8159 46.8418 18.8072C46.7847 18.7487 46.7303 18.6876 46.6785 18.624C46.6671 18.61 46.6548 18.5961 46.6434 18.5821C46.5872 18.5114 46.5345 18.4373 46.4845 18.3597C46.481 18.3536 46.4757 18.3483 46.4722 18.3422C46.4669 18.3344 46.4634 18.3256 46.459 18.3178C46.3958 18.2175 46.337 18.1119 46.2834 18.0011C46.2808 17.9959 46.2782 17.9915 46.2755 17.9872C46.2702 17.9758 46.2659 17.9636 46.2606 17.9523C46.2237 17.8738 46.1895 17.7927 46.1579 17.7098C46.1535 17.6993 46.1491 17.6897 46.1447 17.6793C46.1429 17.6749 46.1412 17.6697 46.1394 17.6644C46.1087 17.5816 46.0806 17.4961 46.0543 17.4088C46.0525 17.4027 46.0508 17.3975 46.049 17.3923C46.0437 17.3731 46.0394 17.3539 46.0341 17.3347C46.0183 17.2789 46.0034 17.2222 45.9893 17.1646C45.9858 17.1515 45.9823 17.1393 45.9797 17.1262C45.9753 17.107 45.9718 17.087 45.9674 17.0678C45.9568 17.0189 45.9472 16.9701 45.9375 16.9204C45.934 16.902 45.9296 16.8846 45.9261 16.8663C45.9235 16.8497 45.9208 16.8322 45.9182 16.8157C45.9103 16.7694 45.9033 16.7232 45.8971 16.6761C45.8936 16.6534 45.8901 16.6316 45.8875 16.6089C45.8857 16.5941 45.8848 16.5784 45.8831 16.5636C45.8778 16.5208 45.8734 16.4772 45.8699 16.4345C45.8673 16.4083 45.8638 16.3839 45.862 16.3577C45.8611 16.3429 45.8603 16.3281 45.8594 16.3141C45.8559 16.2731 45.8541 16.2312 45.8515 16.1902C45.8497 16.1632 45.848 16.1361 45.8462 16.1082C45.8453 16.0925 45.8453 16.0768 45.8453 16.0611C45.8436 16.021 45.8436 15.98 45.8427 15.939C45.8418 15.9111 45.8409 15.884 45.8409 15.8561C45.8418 15.8422 45.8427 15.8247 45.8427 15.8073Z" fill="#9545E7"/>
<path d="M52.2147 7.33617C53.3077 6.70898 54.4122 6.4595 55.363 6.7116C57.7369 7.33791 58.2566 10.8481 56.5253 14.5502C55.4876 16.7676 53.8766 18.5515 52.241 19.4892C51.4342 19.9524 50.6213 20.2089 49.8689 20.2106C49.602 20.2115 49.3421 20.1801 49.0928 20.1138C48.8435 20.0475 48.6143 19.9498 48.4063 19.8233C46.6337 18.7469 46.38 15.5882 47.9295 12.2761C48.9672 10.0595 50.5791 8.27478 52.2147 7.33617ZM49.8127 18.5724C50.5431 18.7661 51.393 18.5741 52.2349 18.0909C53.4947 17.3677 54.7379 15.9939 55.5359 14.2876C56.8668 11.4439 56.4648 8.73623 54.6404 8.25297C53.91 8.06019 53.061 8.2521 52.2191 8.73448C50.9593 9.4585 49.7161 10.8324 48.9181 12.5386C47.5871 15.3832 47.9892 18.09 49.8127 18.5724Z" fill="#E4D1F9"/>
<path d="M60.4954 54.0075C60.4954 54.0075 61.0292 56.7221 61.4251 57.959C61.8211 59.196 62.5945 61.4631 62.1608 61.6323C61.6323 61.5948 60.7158 61.2014 60.4954 61.2014C60.2751 61.2014 59.8598 61.3139 59.8976 62.1383C59.9353 62.9626 60.5894 63.2819 61.0924 63.4694C61.5955 63.657 62.0028 63.732 62.2899 63.9945C62.577 64.2571 63.5383 64.8564 64.0861 64.463C64.6331 64.0696 64.5392 63.1693 64.1046 62.8884C63.9729 62.2508 63.9158 59.8537 63.9729 58.5984C64.0291 57.3423 64.0264 54.8205 62.7447 52.74C61.3856 53.3026 60.4954 54.0075 60.4954 54.0075Z" fill="#FBB985"/>
<path d="M53.9962 54.2658C53.9962 54.2658 53.8179 55.5725 53.9962 56.6725C54.1744 57.7725 54.8785 64.7195 54.5765 65.4941C54.3754 66.0437 53.3939 66.4441 52.1867 66.2688C50.9796 66.0934 50.2246 65.6686 50.2755 66.4685C50.3264 67.2684 50.7285 68.2428 52.1867 68.2925C53.645 68.3422 55.6827 69.717 56.6642 68.4923C57.1172 67.743 56.7142 66.7433 56.4877 66.7433C56.4377 65.9687 56.8143 62.5449 57.1163 61.4205C57.4183 60.296 57.3174 57.5971 57.1163 56.6969C56.9153 55.7967 57.6949 54.2649 57.6949 54.2649H53.9962V54.2658Z" fill="#FBB985"/>
<path d="M60.4481 29.1458C60.4481 29.1458 62.3426 28.55 63.0502 31.8177C63.7578 35.0854 63.5867 37.2627 63.5867 37.2627C63.8702 37.7799 63.8369 40.4754 63.4743 42.7338C63.4725 44.1574 63.5147 44.7165 63.009 45.2338C62.5033 45.7511 61.5806 46.3076 61.6903 45.718C61.8001 45.1283 61.8729 43.9498 61.5683 43.5459C61.2637 43.1412 62.0371 42.4407 62.0371 42.4407C62.0371 42.4407 61.6473 38.367 61.7913 37.5331C61.1328 35.6785 59.3313 30.1167 60.4481 29.1458Z" fill="#FBB985"/>
<path d="M57.9731 29.4031C59.4155 29.0794 60.4479 29.1457 60.4479 29.1457C60.4479 29.1457 62.7551 30.4359 61.483 34.4572C60.764 36.7793 60.3119 37.6534 60.714 38.7036C61.1161 39.753 63.1037 40.8033 62.6507 44.8517C62.1977 48.9001 63.4803 52.1992 63.4803 52.1992C63.4803 52.1992 60.361 55.923 52.9162 54.0232C52.8152 47.1755 53.5308 43.6514 54.6448 41.0528C55.1804 39.8036 55.8344 37.1788 55.0039 36.454C54.1488 36.529 52.7274 34.2671 54.1234 32.3052C54.4754 31.3553 55.406 30.5807 55.406 30.5807C55.406 30.5807 56.0864 29.8261 57.9731 29.4031Z" fill="#EA4A4A"/>
<path d="M54.6528 25.1096C54.6528 25.1096 54.6818 28.994 56.176 28.8134C57.6703 28.6329 57.0426 24.4615 54.6528 25.1096Z" fill="#FDAF71"/>
<path d="M55.1427 26.5078C55.1427 26.5078 55.1304 25.9704 55.4947 25.9207C55.8591 25.871 56.0733 26.4581 55.7335 26.9579C55.8345 27.9951 55.4947 29.6821 56.3621 29.7947C57.2295 29.9072 56.4376 37.7292 60.412 37.3794C64.3864 37.0296 66.4486 32.231 63.8324 30.9313C61.2162 29.6315 59.8299 28.9319 60.0705 27.2824C60.3111 25.6329 61.4181 23.309 58.2734 22.1593C56.6896 21.2338 53.3947 23.7836 55.1427 26.5078Z" fill="#1D1D1B"/>
<path d="M56.2541 33.9679C56.7457 33.2683 56.3279 31.9214 54.435 31.5839C52.5422 31.2463 51.0928 29.6046 50.0296 29.3124C49.7803 27.4456 48.4449 24.2512 48.2869 23.959C48.1289 23.6668 48.1965 23.262 48.2869 22.9689C48.3773 22.6758 48.6714 22.1594 48.6267 21.8218C48.581 21.4842 48.423 20.27 48.423 20.0676C48.423 19.8652 47.7663 19.9647 47.5178 21.1475C46.9068 22.2719 46.6575 23.419 47.1333 23.6214C47.1333 23.6214 47.3826 29.4921 48.3782 30.4594C49.372 31.4268 54.9407 35.8346 56.2541 33.9679Z" fill="#FBB985"/>
<path d="M56.665 68.4932C57.118 67.7438 56.7151 66.7442 56.4886 66.7442C56.4526 67.7639 55.0049 67.9436 53.4957 67.5685C51.9866 67.1934 52.3939 66.2932 52.3939 66.2932C52.3254 66.2871 52.257 66.2792 52.1876 66.2687C50.9804 66.0934 50.2254 65.6686 50.2763 66.4685C50.3264 67.2684 50.7294 68.2428 52.1876 68.2925C53.6467 68.3431 55.6835 69.7179 56.665 68.4932Z" fill="#1D1D1B"/>
<path d="M62.1784 62.9199C60.398 62.0449 61.6315 61.5285 61.6315 61.5285C61.1609 61.4003 60.6526 61.2014 60.4954 61.2014C60.2742 61.2014 59.8598 61.3139 59.8976 62.1383C59.9353 62.9626 60.5894 63.2819 61.0924 63.4694C61.5955 63.657 62.0028 63.732 62.2899 63.9946C62.577 64.2571 63.5383 64.8564 64.0861 64.463C64.6331 64.0696 64.5392 63.1694 64.1046 62.8885C63.8711 63.7826 63.0282 63.1955 62.1784 62.9199Z" fill="#1D1D1B"/>
</g>
<defs>
<clipPath id="clip0">
<rect width="22" height="63" fill="white" transform="translate(43 6)"/>
</clipPath>
</defs>
</svg>
