<svg width="28" height="28" viewBox="0 0 28 28" fill="none" xmlns="http://www.w3.org/2000/svg">
<path d="M14.0001 25.6667C15.2834 25.6667 16.3334 24.6167 16.3334 23.3334H11.6667C11.6667 24.6167 12.7167 25.6667 14.0001 25.6667ZM21.0001 18.6667V12.8334C21.0001 9.25169 19.0984 6.25335 15.7501 5.46002V4.66669C15.7501 3.69835 14.9684 2.91669 14.0001 2.91669C13.0317 2.91669 12.2501 3.69835 12.2501 4.66669V5.46002C8.91341 6.25335 7.00008 9.24002 7.00008 12.8334V18.6667L4.66675 21V22.1667H23.3334V21L21.0001 18.6667ZM18.6667 19.8334H9.33341V12.8334C9.33341 9.94002 11.0951 7.58335 14.0001 7.58335C16.9051 7.58335 18.6667 9.94002 18.6667 12.8334V19.8334Z" fill="#888888"/>
</svg>
