<svg width="88" height="88" viewBox="0 0 88 88" fill="none" xmlns="http://www.w3.org/2000/svg">
<path d="M43.2164 63.7985V69.3739L2 45.5836V40.0449L43.2164 63.7985Z" fill="#C9DAFC"/>
<path d="M2 40.0449L43.2164 63.7984L85 39.75L43.8216 15.9751L2 40.0449Z" fill="white"/>
<path d="M43.2164 63.7985V69.3739L85 45.3242V39.75L43.2164 63.7985Z" fill="#B8BCFC"/>
<path d="M43.7683 19.6912L8.90784 39.7546L43.2639 59.554L78.0923 39.5083L43.7683 19.6912Z" fill="#ADD036"/>
<path d="M43.7683 20.86L77.0789 40.091L78.0923 39.5083L43.7683 19.6912L8.90784 39.7546L9.92246 40.3396L43.7683 20.86Z" fill="#B8BCFC"/>
<path d="M58.9591 35.323L68.5227 29.7559V36.4551L58.9591 42.008V35.323Z" fill="#B8BCFC"/>
<path d="M56.9429 23.0247L68.5226 29.7559L58.9602 35.3242L47.3662 28.5835L56.9429 23.0247Z" fill="#FCD9BB"/>
<path d="M50.8373 30.6038L58.9602 35.3242L58.9591 42.008L50.8373 37.3042V30.6038Z" fill="#C9DAFC"/>
<path d="M50.8575 23.9201L60.3345 18.3992V19.9446L50.8575 25.4502V23.9201Z" fill="#B8BCFC"/>
<path d="M47.5787 11L60.3357 18.4003L50.8588 23.9201L38.0745 16.4984L47.5787 11Z" fill="white"/>
<path d="M38.0745 16.4985L50.8588 23.9202L50.8576 30.6053L38.0745 23.1978V16.4985Z" fill="#B8BCFC"/>
<path d="M58.4085 25.848V21.0625L52.354 24.5619V29.3569L58.4085 25.848Z" fill="#524556"/>
<path opacity="0.46" d="M53.6083 32.2218V30.4644L58.9603 33.5671V35.3245L53.6083 32.2218Z" fill="#26A9E0"/>
<path opacity="0.46" d="M58.4084 23.8751V22.1177L68.5226 27.9986V29.7561L63.1707 26.6533L58.4084 23.8751Z" fill="#26A9E0"/>
<path d="M58.9591 40.4912L65.4515 36.7241L65.7695 36.9089L58.9591 40.8631V40.4912Z" fill="#F1F1F2"/>
<path d="M65.4515 36.7241V32.7676L58.9591 36.5252V40.4912L65.4515 36.7241Z" fill="#524556"/>
<path d="M65.7696 32.584V36.9088L65.4515 36.7241V32.7675L65.7696 32.584Z" fill="#C9DAFC"/>
<path d="M58.9591 40.4911L56.5833 39.1245L56.2653 39.3081L58.9591 40.863V40.4911Z" fill="#F1F1F2"/>
<path d="M56.5833 39.1245V35.1738L58.959 36.525V40.4911L56.5833 39.1245Z" fill="#5F5363"/>
<path d="M56.2653 34.9902V39.308L56.5833 39.1244V35.1738L56.2653 34.9902Z" fill="#B8BCFC"/>
<path d="M56.6438 22.083V26.987L56.5417 26.9278V22.1422L56.6438 22.083Z" fill="#B8BCFC"/>
<path d="M56.6438 26.9848L56.753 26.9221V22.0193L56.6438 22.0821V26.9848Z" fill="#C9DAFC"/>
<path d="M54.8507 23.1194V28.0233L54.7487 27.9641V23.1786L54.8507 23.1194Z" fill="#B8BCFC"/>
<path d="M54.8507 28.0212L54.9599 27.9584V23.0557L54.8507 23.1184V28.0212Z" fill="#C9DAFC"/>
<path d="M51.4176 24.7526L35.7449 15.583V31.022L51.4176 40.1857V24.7526Z" fill="#4E5EA6"/>
<path d="M37.9308 14.3135L35.7449 15.583L51.4164 24.7538L53.6082 23.4807L37.9308 14.3135Z" fill="#5E71B5"/>
<path d="M53.6082 23.4807L51.4164 24.7538L51.4176 40.1857L53.6082 38.9197V23.4807Z" fill="#415393"/>
<path d="M27.5792 34.8624L46.2946 23.9614V37.193L27.5792 48.0644V34.8624Z" fill="#B8BCFC"/>
<path d="M35.7402 17.833L46.297 23.9638L27.5804 34.8648L16.9987 28.7198L35.7402 17.833Z" fill="white"/>
<path d="M16.9987 28.7185L27.5804 34.8647L27.5793 48.0643L16.9987 41.9501V28.7185Z" fill="#C9DAFC"/>
<path d="M27.5793 47.6939L33.3265 44.3579L33.6445 44.5415L27.5793 48.0646V47.6939Z" fill="#F1F1F2"/>
<path d="M33.3265 44.3578V39.6292L27.5793 42.9557V47.6939L33.3265 44.3578Z" fill="#524556"/>
<path d="M33.6446 39.4456V44.5414L33.3265 44.3578V39.6291L33.6446 39.4456Z" fill="#C9DAFC"/>
<path d="M27.5793 47.6938L18.9935 42.7354L18.6743 42.9189L27.5793 48.0645V47.6938Z" fill="#F1F1F2"/>
<path d="M18.9935 42.7355V38.0127L27.5793 42.9557V47.6939L18.9935 42.7355Z" fill="#5F5363"/>
<path d="M18.6743 37.8291V42.919L18.9935 42.7354V38.0127L18.6743 37.8291Z" fill="#B8BCFC"/>
<path d="M27.5792 41.1522L33.3264 37.8162L33.6444 37.9997L27.5792 41.5228V41.1522Z" fill="#F1F1F2"/>
<path d="M33.3264 37.8161V33.0874L27.5792 36.414V41.1521L33.3264 37.8161Z" fill="#524556"/>
<path d="M33.6445 32.9038V37.9996L33.3264 37.8161V33.0874L33.6445 32.9038Z" fill="#C9DAFC"/>
<path d="M27.5793 41.1521L22.2902 38.0991L21.9709 38.2827L27.5793 41.5228V41.1521Z" fill="#F1F1F2"/>
<path d="M22.2902 38.0992V33.3765L27.5793 36.4141V41.1522L22.2902 38.0992Z" fill="#5F5363"/>
<path d="M21.9709 33.1929V38.2828L22.2902 38.0992V33.3764L21.9709 33.1929Z" fill="#B8BCFC"/>
<path d="M40.7207 34.3236V40.4071L44.6392 38.1523V32.0688L40.7207 34.3236Z" fill="#524556"/>
<path d="M40.7207 39.9357V40.4071L44.6392 38.1523L44.2321 37.9202L40.7207 39.9357Z" fill="#F3EEF3"/>
<path d="M44.6392 32.0688V38.1535L44.2322 37.9202V32.3033L44.6392 32.0688Z" fill="#C9DAFC"/>
<path d="M44.9216 31.9102V37.6692L45.6776 37.2334V31.4756L44.9216 31.9102Z" fill="#524556"/>
<path d="M44.9216 37.4998V37.6691L45.6776 37.2333L45.5363 37.1516L44.9216 37.4998Z" fill="#F3EEF3"/>
<path d="M45.6776 31.4756V37.2334L45.5364 37.1517V31.5561L45.6776 31.4756Z" fill="#C9DAFC"/>
<path d="M39.6432 34.9502V40.7092L40.4003 40.2734V34.5156L39.6432 34.9502Z" fill="#524556"/>
<path d="M39.6432 40.5398V40.7092L40.4003 40.2734L40.2591 40.1917L39.6432 40.5398Z" fill="#F3EEF3"/>
<path d="M40.4002 34.5156V40.2734L40.259 40.1917V34.5962L40.4002 34.5156Z" fill="#E5E2E6"/>
<path d="M36.921 30.244L40.7968 27.9868V42.8349L36.921 45.0861V30.244Z" fill="#415393"/>
<path d="M38.6108 26.7173L40.7967 27.9868L36.9222 30.244L34.7303 28.9721L38.6108 26.7173Z" fill="#5E71B5"/>
<path d="M34.7303 28.9719L36.9222 30.2438L36.921 45.0859L34.7303 43.82V28.9719Z" fill="#4E5EA6"/>
<path opacity="0.46" d="M58.9603 33.5669L68.5227 27.9985V29.756L58.9603 35.3243V33.5669Z" fill="#26A9E0"/>
<path d="M37.0408 19.864L30.7097 23.5518L29.224 22.6612L35.5538 19.0078L37.0408 19.864Z" fill="#9CA9AF"/>
<path d="M35.5538 19.0078V19.2186L29.4103 22.7725L29.224 22.6612L35.5538 19.0078Z" fill="#C9DAFC"/>
<path d="M35.5539 19.2185L36.8462 19.9764L32.4079 22.5652L31.0942 21.8013L35.5539 19.2185Z" fill="#F6D9B7"/>
<path d="M32.4079 22.5654L32.2062 22.6826L31.0942 22.036V21.8015L32.4079 22.5654Z" fill="#E2BCA5"/>
<path d="M33.9814 23.3433L38.5668 25.983L40.856 24.6661L36.2706 22.0276L33.9814 23.3433Z" fill="#0099CE"/>
<path d="M40.856 24.666V24.82L38.5669 26.1357V25.9829L40.856 24.666Z" fill="#B8BCFC"/>
<path d="M33.9814 23.4972V23.3433L38.5669 25.9829V26.1357L33.9814 23.4972Z" fill="#C9DAFC"/>
<path d="M36.2706 22.0276L33.9814 23.3433L38.5668 25.9818L40.856 24.6661L36.2706 22.0276ZM34.1167 23.3433L36.2706 22.1046L40.7207 24.6649L38.5668 25.9036L34.1167 23.3433Z" fill="white"/>
<path d="M35.7758 22.3462L40.3232 24.9669L40.2579 25.0036L35.7164 22.3805L35.7758 22.3462Z" fill="white"/>
<path d="M35.2381 22.6387L39.7856 25.2594L39.7203 25.2961L35.1776 22.673L35.2381 22.6387Z" fill="white"/>
<path d="M36.9184 22.4089L34.6519 23.7152L34.6839 23.7341L36.9481 22.4267L36.9184 22.4089Z" fill="white"/>
<path d="M37.5427 22.7678L35.2761 24.074L35.3094 24.093L37.5724 22.7856L37.5427 22.7678Z" fill="white"/>
<path d="M38.1669 23.1277L35.9015 24.4327L35.9335 24.4517L38.1966 23.1443L38.1669 23.1277Z" fill="white"/>
<path d="M38.7924 23.4866L36.5258 24.7928L36.5578 24.8106L38.822 23.5043L38.7924 23.4866Z" fill="white"/>
<path d="M39.4165 23.8455L37.1499 25.1517L37.1831 25.1706L39.4462 23.8632L39.4165 23.8455Z" fill="white"/>
<path d="M40.0408 24.2053L37.7754 25.5104L37.8074 25.5293L40.0705 24.2219L40.0408 24.2053Z" fill="white"/>
<path d="M34.6318 22.9939L39.1792 25.6134L39.114 25.6513L34.5713 23.0282L34.6318 22.9939Z" fill="white"/>
<path d="M30.3419 25.4419L34.9273 28.0804L37.2153 26.7647L32.6311 24.1262L30.3419 25.4419Z" fill="#0099CE"/>
<path d="M37.2153 26.7646V26.9174L34.9274 28.2331V28.0803L37.2153 26.7646Z" fill="#B8BCFC"/>
<path d="M30.3419 25.5947V25.4419L34.9273 28.0804V28.2332L30.3419 25.5947Z" fill="#C9DAFC"/>
<path d="M32.6311 24.1262L30.3419 25.4419L34.9273 28.0804L37.2165 26.7647L32.6311 24.1262ZM30.4772 25.4419L32.6311 24.2032L37.0812 26.7635L34.9273 28.0023L30.4772 25.4419Z" fill="white"/>
<path d="M32.1362 24.4448L36.6836 27.0644L36.6184 27.1023L32.0757 24.4792L32.1362 24.4448Z" fill="white"/>
<path d="M31.5974 24.7373L36.1448 27.3569L36.0796 27.3948L31.5381 24.7716L31.5974 24.7373Z" fill="white"/>
<path d="M33.2778 24.5076L31.0112 25.8126L31.0445 25.8316L33.3075 24.5241L33.2778 24.5076Z" fill="white"/>
<path d="M33.9032 24.8665L31.6366 26.1727L31.6686 26.1904L33.9328 24.883L33.9032 24.8665Z" fill="white"/>
<path d="M34.5275 25.2251L32.2609 26.5313L32.2941 26.5503L34.5571 25.2429L34.5275 25.2251Z" fill="white"/>
<path d="M35.1516 25.5852L32.885 26.8902L32.9182 26.9092L35.1813 25.6018L35.1516 25.5852Z" fill="white"/>
<path d="M35.777 25.9441L33.5104 27.2491L33.5424 27.2681L35.8066 25.9607L35.777 25.9441Z" fill="white"/>
<path d="M36.4012 26.3027L34.1346 27.609L34.1679 27.6279L36.4309 26.3205L36.4012 26.3027Z" fill="white"/>
<path d="M30.991 25.0913L35.5384 27.712L35.4731 27.7499L30.9316 25.1257L30.991 25.0913Z" fill="white"/>
<path d="M26.701 27.5403L31.2864 30.1788L33.5756 28.8619L28.9902 26.2234L26.701 27.5403Z" fill="#0099CE"/>
<path d="M33.5755 28.8618V29.0158L31.2864 30.3315V30.1787L33.5755 28.8618Z" fill="#B8BCFC"/>
<path d="M26.701 27.6931V27.5403L31.2864 30.1788V30.3315L26.701 27.6931Z" fill="#C9DAFC"/>
<path d="M28.9902 26.2234L26.701 27.5391L31.2864 30.1776L33.5756 28.8619L28.9902 26.2234ZM26.8363 27.5403L28.9902 26.3015L33.4403 28.8619L31.2864 30.1006L26.8363 27.5403Z" fill="white"/>
<path d="M28.4954 26.542L33.044 29.1627L32.9787 29.1994L28.436 26.5763L28.4954 26.542Z" fill="white"/>
<path d="M27.9577 26.8345L32.5052 29.4552L32.4399 29.4919L27.8972 26.8688L27.9577 26.8345Z" fill="white"/>
<path d="M29.6382 26.6047L27.3716 27.911L27.4036 27.9299L29.6678 26.6225L29.6382 26.6047Z" fill="white"/>
<path d="M30.2623 26.9636L27.9957 28.2698L28.029 28.2888L30.292 26.9814L30.2623 26.9636Z" fill="white"/>
<path d="M30.8865 27.3235L28.6211 28.6285L28.6531 28.6475L30.9174 27.3401L30.8865 27.3235Z" fill="white"/>
<path d="M31.512 27.6824L29.2454 28.9886L29.2774 29.0075L31.5416 27.7001L31.512 27.6824Z" fill="white"/>
<path d="M32.1361 28.0413L29.8695 29.3475L29.9027 29.3664L32.1658 28.059L32.1361 28.0413Z" fill="white"/>
<path d="M32.7603 28.4011L30.4949 29.7062L30.5269 29.7251L32.7911 28.4177L32.7603 28.4011Z" fill="white"/>
<path d="M27.3514 27.1897L31.8988 29.8092L31.8336 29.8471L27.2909 27.224L27.3514 27.1897Z" fill="white"/>
<path d="M23.0615 29.6377L27.6469 32.2762L29.9361 30.9605L25.3507 28.322L23.0615 29.6377Z" fill="#0099CE"/>
<path d="M29.9361 30.9604V31.1132L27.647 32.4301V32.2762L29.9361 30.9604Z" fill="#B8BCFC"/>
<path d="M23.0615 29.7905V29.6377L27.6469 32.2762V32.4301L23.0615 29.7905Z" fill="#C9DAFC"/>
<path d="M25.3507 28.322L23.0615 29.6377L27.6469 32.2762L29.9361 30.9605L25.3507 28.322ZM23.1968 29.6377L25.3507 28.399L29.8008 30.9593L27.6469 32.1981L23.1968 29.6377Z" fill="white"/>
<path d="M24.8558 28.6406L29.4033 31.2602L29.338 31.2981L24.7965 28.675L24.8558 28.6406Z" fill="white"/>
<path d="M24.317 28.9331L28.8656 31.5527L28.8004 31.5905L24.2577 28.9674L24.317 28.9331Z" fill="white"/>
<path d="M25.9975 28.7034L23.7321 30.0084L23.7641 30.0274L26.0271 28.7199L25.9975 28.7034Z" fill="white"/>
<path d="M26.6228 29.0623L24.3562 30.3685L24.3882 30.3862L26.6525 29.08L26.6228 29.0623Z" fill="white"/>
<path d="M27.2471 29.4209L24.9805 30.7271L25.0137 30.7461L27.2767 29.4387L27.2471 29.4209Z" fill="white"/>
<path d="M27.8712 29.781L25.6058 31.086L25.6379 31.105L27.9009 29.7976L27.8712 29.781Z" fill="white"/>
<path d="M28.4966 30.1399L26.23 31.4461L26.262 31.4639L28.5263 30.1565L28.4966 30.1399Z" fill="white"/>
<path d="M29.1208 30.4985L26.8542 31.8048L26.8875 31.8237L29.1505 30.5163L29.1208 30.4985Z" fill="white"/>
<path d="M23.7107 29.2871L28.2581 31.9078L28.1929 31.9457L23.6514 29.3226L23.7107 29.2871Z" fill="white"/>
<path d="M42.4059 33.356V39.0877L42.3038 39.0285V33.4152L42.4059 33.356Z" fill="#B8BCFC"/>
<path d="M42.4059 39.0856L42.5151 39.0228V33.2922L42.4059 33.355V39.0856Z" fill="#C9DAFC"/>
<path d="M20.8721 39.0938V43.9409L20.9729 43.8816V39.153L20.8721 39.0938Z" fill="#B8BCFC"/>
<path d="M20.8721 43.9397L20.7629 43.8769V39.031L20.8721 39.0938V43.9397Z" fill="#C9DAFC"/>
<path d="M31.595 40.6321V45.4792L31.4929 45.42V40.6901L31.595 40.6321Z" fill="#B8BCFC"/>
<path d="M31.595 45.4759L31.7042 45.4131V40.5684L31.595 40.6311V45.4759Z" fill="#C9DAFC"/>
<path opacity="0.3" d="M25.3103 35.1111L22.2902 38.099V33.3762L25.3103 35.1111Z" fill="white"/>
<path opacity="0.15" d="M37.3363 51.737L40.8466 53.7525L44.3758 51.7204L40.8655 49.7036L37.3363 51.737Z" fill="#7B4196"/>
<path d="M40.8537 48.7621V52.2307L40.0052 51.7428V48.2742L40.8537 48.7621Z" fill="#74462E"/>
<path d="M40.8536 48.762V52.2294L41.7069 51.738V48.2705L40.8536 48.762Z" fill="#8A553A"/>
<path d="M40.8466 47.2238V50.252L37.3363 48.2364V45.2083L40.8466 47.2238Z" fill="#5EB258"/>
<path d="M37.3363 45.2082L40.8466 47.2238L44.3758 45.1916L40.8655 43.1748L37.3363 45.2082Z" fill="#76C059"/>
<path d="M40.8466 47.2214V50.2507L44.3758 48.2173V45.1892L40.8466 47.2214Z" fill="#4FA050"/>
<path d="M40.8466 43.5835V46.6128L37.3363 44.596V41.5679L40.8466 43.5835Z" fill="#5EB258"/>
<path d="M37.3363 41.5678L40.8466 43.5833L44.3758 41.5512L40.8655 39.5344L37.3363 41.5678Z" fill="#76C059"/>
<path d="M40.8466 43.5822V46.6103L44.3758 44.5769V41.5488L40.8466 43.5822Z" fill="#4FA050"/>
<path d="M40.8466 39.9443V42.9724L37.3363 40.9556V37.9275L40.8466 39.9443Z" fill="#5EB258"/>
<path d="M37.3363 37.9274L40.8466 39.9442L44.3758 37.9108L40.8655 35.8953L37.3363 37.9274Z" fill="#76C059"/>
<path d="M40.8466 39.9418V42.9699L44.3758 40.9377V37.9084L40.8466 39.9418Z" fill="#4FA050"/>
<path opacity="0.15" d="M68.0967 39.5497L70.9673 41.1981L73.8534 39.5367L70.9827 37.8882L68.0967 39.5497Z" fill="#7B4196"/>
<path d="M70.9733 37.1186V39.9537L70.2791 39.5546V36.7195L70.9733 37.1186Z" fill="#74462E"/>
<path d="M70.9733 37.1173V39.9536L71.671 39.5509V36.7158L70.9733 37.1173Z" fill="#8A553A"/>
<path d="M70.9673 35.8606V38.3369L68.0967 36.6872V34.2122L70.9673 35.8606Z" fill="#5EB258"/>
<path d="M68.0967 34.2123L70.9673 35.8607L73.8534 34.1981L70.9827 32.5508L68.0967 34.2123Z" fill="#76C059"/>
<path d="M70.9673 35.8583V38.3345L73.8533 36.673V34.1968L70.9673 35.8583Z" fill="#4FA050"/>
<path d="M70.9673 32.8848V35.3611L68.0967 33.7114V31.2363L70.9673 32.8848Z" fill="#5EB258"/>
<path d="M68.0967 31.2364L70.9673 32.8849L73.8534 31.2222L70.9827 29.575L68.0967 31.2364Z" fill="#76C059"/>
<path d="M70.9673 32.8824V35.3587L73.8533 33.6972V31.2209L70.9673 32.8824Z" fill="#4FA050"/>
<path d="M70.9673 29.9087V32.385L68.0967 30.7365V28.2603L70.9673 29.9087Z" fill="#5EB258"/>
<path d="M68.0967 28.2604L70.9673 29.9088L73.8534 28.2462L70.9827 26.5989L68.0967 28.2604Z" fill="#76C059"/>
<path d="M70.9673 29.9064V32.3826L73.8533 30.7211V28.2449L70.9673 29.9064Z" fill="#4FA050"/>
<path d="M47.3674 40.8002V41.3402L47.9952 40.9802V40.439L47.3674 40.8002Z" fill="#D2D2D2"/>
<path d="M47.9952 40.439L47.3674 40.8002L46.7373 40.4367L47.3639 40.0767L47.9952 40.439Z" fill="#EDECED"/>
<path d="M47.3674 40.7991V41.3403L46.7373 40.9768V40.4368L47.3674 40.7991Z" fill="#BEC0C0"/>
<path d="M66.9622 42.4689V43.0089L67.5899 42.6489V42.1077L66.9622 42.4689Z" fill="#D2D2D2"/>
<path d="M67.5899 42.1077L66.9622 42.4689L66.332 42.1054L66.9586 41.7454L67.5899 42.1077Z" fill="#EDECED"/>
<path d="M66.9622 42.4678V43.0091L66.332 42.6455V42.1055L66.9622 42.4678Z" fill="#BEC0C0"/>
<path d="M52.3551 48.0087V48.5499L52.9829 48.1899V47.6487L52.3551 48.0087Z" fill="#D2D2D2"/>
<path d="M52.9829 47.6487L52.3551 48.0087L51.725 47.6452L52.3516 47.2852L52.9829 47.6487Z" fill="#EDECED"/>
<path d="M52.3551 48.0088V48.5488L51.725 48.1865V47.6453L52.3551 48.0088Z" fill="#BEC0C0"/>
<path opacity="0.08" d="M54 74.2681C54 76.3524 58.1784 78.0423 63.3322 78.0423C68.486 78.0423 72.6644 76.3524 72.6644 74.2681C72.6644 72.185 68.486 70.4951 63.3322 70.4951C58.1784 70.4939 54 72.1838 54 74.2681Z" fill="#2C788F"/>
<path d="M73.9567 43.5713C73.9567 43.5713 74.3317 43.7051 73.9152 43.8816C73.9152 43.8816 73.5212 44.1054 73.2649 44.2972C73.2625 44.2996 73.2234 44.3505 73.3005 44.3553V44.3564C73.5889 44.2416 74.1466 44.0912 74.918 44.2297C74.918 44.2297 75.4069 44.3434 75.3511 45.0279C75.3108 45.5146 74.9548 45.7385 74.5869 45.6875C74.2178 45.6366 74.0493 45.6354 73.6494 45.6923C73.2815 45.7444 72.7938 46.0286 72.414 45.8971L72.2598 44.527C72.261 44.5258 73.0216 43.698 73.9567 43.5713Z" fill="#F9B9A8"/>
<path d="M62.6724 74.2492C62.3283 73.894 60.9743 73.1893 60.8176 73.0472C60.661 72.9039 60.7915 72.2881 60.7915 72.2881L58.3375 72.043C57.9482 73.2947 58.093 74.4683 58.093 74.4683C59.5348 75.1173 61.8643 75.7532 62.4351 75.6715C63.0059 75.591 63.0166 74.6045 62.6724 74.2492Z" fill="#5A74B7"/>
<path d="M62.8041 75.3922C60.3572 75.1387 58.6305 74.3844 58.0692 74.1096C58.0763 74.3334 58.0918 74.4696 58.0918 74.4696C59.5336 75.1186 61.8631 75.7545 62.4339 75.6728C62.6071 75.648 62.7282 75.5402 62.8041 75.3922Z" fill="#59559D"/>
<path d="M68.2179 73.4261C67.8488 73.0969 66.4461 72.4941 66.28 72.3627C66.1127 72.2312 66.1981 71.6071 66.1981 71.6071L63.7322 71.542C63.4355 72.8186 63.6657 73.9792 63.6657 73.9792C65.1515 74.5204 67.5213 74.9846 68.085 74.8614C68.6486 74.7395 68.5869 73.7542 68.2179 73.4261Z" fill="#5A74B7"/>
<path d="M68.4327 74.556C65.9738 74.4826 64.1962 73.8561 63.6171 73.6228C63.6408 73.8454 63.6669 73.9793 63.6669 73.9793C65.1526 74.5205 67.5225 74.9847 68.0862 74.8615C68.2547 74.8248 68.3674 74.7088 68.4327 74.556Z" fill="#59559D"/>
<path d="M71.988 46.0902L72.5327 45.9883C72.5327 45.9883 72.6858 45.1179 72.274 44.4204L71.7068 44.4713L71.988 46.0902Z" fill="#E4E5E6"/>
<path d="M65.898 39.3164C65.898 39.3164 66.7524 42.0366 67.3683 44.9049L71.816 44.3956C71.816 44.3956 72.3643 44.8717 72.2088 46.1057L65.9727 47.3551L64.4846 41.3865L65.898 39.3164Z" fill="#485083"/>
<path d="M63.7963 38.1415L61.9177 37.6619L60.8817 37.7874L61.3149 38.4139L63.4936 38.5879L63.7963 38.1415Z" fill="#BBBCBE"/>
<path d="M60.3442 38.479C60.9138 38.2481 60.9624 38.0692 60.9624 38.0692C61.1203 37.4582 61.1464 36.9004 61.1464 36.9004L63.7429 37.4463C63.6907 37.6405 63.6883 37.9615 63.7073 38.2907C63.6918 38.511 63.9315 38.4944 63.9315 38.4944L64.3315 38.7762L64.4869 39.9403L62.4565 40.8143L60.8022 39.9534C60.7998 39.9522 59.7757 38.7099 60.3442 38.479Z" fill="#F6A3A8"/>
<path d="M65.8707 51.3044C65.8707 51.3044 66.7121 62.3357 66.6124 71.5941C66.6124 71.5941 65.3343 72.5059 63.3964 71.7326C63.3964 71.7326 63.1959 59.3087 62.5159 54.2508L61.7113 52.4295L62.091 51.2855L65.6179 50.4636L65.8707 51.3044Z" fill="#485083"/>
<path d="M58.7243 50.8994C58.7243 50.8994 58.6056 60.2088 58.5771 61.4558C58.5475 62.7028 57.9589 71.9411 57.9589 71.9411C57.9589 71.9411 58.8014 73.0673 61.2353 72.5154L61.9426 62.5216L62.555 53.8873L62.6487 52.2352L58.7243 50.8994Z" fill="#485083"/>
<path d="M61.7967 51.6337C61.7967 51.6337 63.3667 51.9191 64.8145 51.2441L64.6104 50.4648L61.7955 50.8379V51.6337H61.7967Z" fill="#6C4C9E"/>
<path d="M60.648 38.1736L60.8936 38.3062C64.0206 40.6368 63.7227 38.4649 63.7227 38.4649L63.9304 38.4933L64.5095 39.1139L65.0055 39.0132L64.5451 50.5856C62.9715 51.2784 61.748 51.0013 61.748 51.0013L60.8817 47.8844L60.1033 39.0144L60.648 38.1736Z" fill="#E4E5E6"/>
<path d="M62.7924 39.1506L63.5139 39.712L63.1947 40.239L62.5871 40.3029L62.2014 39.886L62.7924 39.1506Z" fill="#485083"/>
<path d="M63.1946 40.239L63.871 47.9769L63.5293 49.1102L62.3307 47.9567L62.587 40.303L63.1946 40.239Z" fill="#485083"/>
<path d="M57.9221 39.5721C57.9221 39.5721 58.4087 39.2322 60.699 38.2505C60.699 38.2505 62.4007 42.4131 63.2397 46.1826L63.426 51.0095L62.0151 53.0488C62.0151 53.0488 58.9047 52.6994 58.4146 52.3193C58.4134 52.3193 58.6448 43.9585 57.9221 39.5721Z" fill="#485083"/>
<path d="M63.1009 46.686L63.2386 46.1827C63.4842 42.4606 63.7346 38.375 63.7346 38.375L65.898 39.3153C66.4391 45.1512 66.1756 51.9145 66.1756 51.9145C65.6855 52.2958 64.2995 52.6996 64.2995 52.6996L63.6515 50.999L62.9716 49.0036L63.1009 46.686Z" fill="#485083"/>
<path d="M60.8817 37.7876L60.426 38.2992L62.1693 40.1525L62.7923 39.1507L60.8817 37.7876Z" fill="#F0F0F0"/>
<path d="M63.7963 38.1416L63.979 38.4625L63.6966 40.085L62.7924 39.1506L63.7963 38.1416Z" fill="#F0F0F0"/>
<path d="M60.1377 36.2646C60.1377 36.2646 60.5447 38.279 62.5573 38.2885C64.8797 38.2992 65.085 35.4996 64.8204 34.1851C64.5724 32.9559 63.0118 31.4886 61.3825 32.4123C60.1602 33.1051 59.7199 34.4172 60.1377 36.2646Z" fill="#F9B9A8"/>
<path d="M61.9379 52.5348L66.3215 53.5165L67.7005 47.3822L63.3168 46.4016L61.9379 52.5348Z" fill="url(#paint0_linear)"/>
<path d="M61.2283 50.6661C61.379 49.6145 61.9011 49.4274 61.9011 49.4274C61.9011 49.4274 62.6464 49.3859 63.2041 49.4582C63.7619 49.5304 63.8319 49.708 63.8319 49.708C63.8319 49.708 63.8722 50.0053 63.426 49.9094C62.9798 49.8146 62.8244 49.997 62.8244 49.997C62.8244 49.997 63.2836 50.3487 64.2294 50.5619C64.2294 50.5619 64.6899 50.852 64.3647 51.2677C64.0395 51.6834 63.8153 51.6976 63.2112 51.6087C62.6072 51.5199 62.3058 51.4406 61.4443 50.7513C61.3719 50.7229 61.3007 50.6945 61.2283 50.6661Z" fill="#F9B9A8"/>
<path d="M60.7073 50.6993L61.2152 50.9196C61.2152 50.9196 61.8904 50.1865 61.9972 49.2877L61.5036 49.0046L60.7073 50.6993Z" fill="#E4E5E6"/>
<path d="M55.1274 46.4432L56.6203 41.8377C57.1745 39.8849 57.9233 39.5723 57.9233 39.5723C59.9253 40.31 59.3675 42.4808 59.3675 42.4808L57.6124 46.281L61.6899 49.0119C61.6899 49.0119 61.5926 49.9924 60.8236 50.8119L55.4929 47.4463C55.1547 47.2331 55.004 46.821 55.1274 46.4432Z" fill="#485083"/>
<path d="M60.3383 32.8433C60.3418 32.8397 60.3454 32.835 60.3501 32.8314C60.9245 32.2429 61.7314 31.9373 62.5526 32.0108C62.752 32.0285 62.9502 32.0712 63.1448 32.1351C63.229 32.1635 63.3109 32.1967 63.3916 32.2322C64.57 32.6716 65.1396 32.1209 65.1396 32.1209C65.9478 33.3395 65.4197 34.2738 65.0981 34.6718C65.0791 34.7049 64.9533 34.9015 64.9011 34.8814C64.8786 34.8731 63.9316 34.4835 61.9415 34.8873C61.9415 34.8873 61.5938 35.8063 61.792 36.589C61.792 36.589 61.3968 36.6317 61.3066 36.5156C61.3066 36.5156 61.1594 35.9046 61.1986 35.5007C61.1986 35.5007 60.5115 35.3432 60.699 36.2515C60.699 36.2515 60.807 36.8164 61.1678 36.9112L60.8426 37.5779C60.6788 37.4891 60.54 37.3789 60.5044 37.3458C60.1508 37.0106 59.8826 36.6731 59.7093 36.2113C59.5716 35.8453 59.4731 35.4605 59.4518 35.0697C59.4067 34.2644 59.7817 33.4176 60.3383 32.8433Z" fill="#B74E52"/>
<defs>
<linearGradient id="paint0_linear" x1="67.7005" y1="49.9587" x2="61.9377" y2="49.9587" gradientUnits="userSpaceOnUse">
<stop stop-color="#CED4E8"/>
<stop offset="1" stop-color="#F0F0F3"/>
</linearGradient>
</defs>
</svg>
