<svg width="20" height="20" viewBox="0 0 20 20" fill="none" xmlns="http://www.w3.org/2000/svg">
<path d="M13.85 2.49158C13.7532 2.39457 13.6383 2.3176 13.5117 2.26509C13.3852 2.21258 13.2495 2.18555 13.1125 2.18555C12.9755 2.18555 12.8398 2.21258 12.7133 2.26509C12.5867 2.3176 12.4718 2.39457 12.375 2.49158L5.45 9.41658C5.37275 9.49367 5.31146 9.58524 5.26964 9.68606C5.22782 9.78687 5.2063 9.89494 5.2063 10.0041C5.2063 10.1132 5.22782 10.2213 5.26964 10.3221C5.31146 10.4229 5.37275 10.5145 5.45 10.5916L12.375 17.5166C12.7833 17.9249 13.4417 17.9249 13.85 17.5166C14.2583 17.1082 14.2583 16.4499 13.85 16.0416L7.81667 9.99991L13.8583 3.95824C14.2583 3.55824 14.2583 2.89158 13.85 2.49158Z" fill="#222222"/>
</svg>
