<svg width="36" height="36" viewBox="0 0 36 36" fill="none" xmlns="http://www.w3.org/2000/svg">
<path d="M25.308 10.0795C25.4346 10.1321 25.5495 10.209 25.6463 10.306C26.0546 10.706 26.0546 11.3727 25.6546 11.7727L19.613 17.8144L25.6463 23.856C26.0546 24.2644 26.0546 24.9227 25.6463 25.331C25.238 25.7394 24.5796 25.7394 24.1713 25.331L17.9773 19.1371L11.7838 25.331C11.3754 25.7394 10.7171 25.7394 10.3088 25.331C9.90044 24.9227 9.89542 24.2644 10.3038 23.856L16.3454 17.8144L10.3086 11.7775C10.2115 11.6807 10.1346 11.5658 10.0821 11.4392C10.0296 11.3127 10.0025 11.177 10.0025 11.04C10.0025 10.903 10.0296 10.7673 10.0821 10.6408C10.1346 10.5142 10.2115 10.3993 10.3086 10.3025C10.7086 9.89416 11.3833 9.90603 11.7833 10.306L17.9773 16.5L24.1713 10.306C24.2681 10.209 24.383 10.1321 24.5096 10.0795C24.6361 10.027 24.7718 10 24.9088 10C25.0458 10 25.1815 10.027 25.308 10.0795Z" fill="#222222"/>
</svg>
