<svg width="12" height="12" viewBox="0 0 12 12" fill="none" xmlns="http://www.w3.org/2000/svg">
<path d="M1.49503 3.69024C1.43683 3.7483 1.39065 3.81727 1.35914 3.8932C1.32763 3.96913 1.31142 4.05053 1.31142 4.13274C1.31142 4.21495 1.32763 4.29635 1.35914 4.37228C1.39065 4.44822 1.43683 4.51718 1.49503 4.57524L5.65003 8.73024C5.69629 8.77659 5.75123 8.81337 5.81172 8.83846C5.87221 8.86355 5.93705 8.87646 6.00253 8.87646C6.06802 8.87646 6.13286 8.86355 6.19335 8.83846C6.25383 8.81337 6.30878 8.77659 6.35503 8.73024L10.51 4.57524C10.755 4.33024 10.755 3.93524 10.51 3.69024C10.265 3.44524 9.87003 3.44524 9.62503 3.69024L6.00003 7.31024L2.37503 3.68524C2.13503 3.44524 1.73503 3.44524 1.49503 3.69024Z" fill="#888888"/>
</svg>
