<svg width="20" height="20" viewBox="0 0 20 20" fill="none" xmlns="http://www.w3.org/2000/svg">
<path d="M10 6.66683C8.15837 6.66683 6.66671 8.1585 6.66671 10.0002C6.66671 11.8418 8.15837 13.3335 10 13.3335C11.8417 13.3335 13.3334 11.8418 13.3334 10.0002C13.3334 8.1585 11.8417 6.66683 10 6.66683ZM17.45 9.16683C17.2613 7.47693 16.5035 5.90144 15.3011 4.69907C14.0988 3.4967 12.5233 2.73892 10.8334 2.55016V1.66683C10.8334 1.2085 10.4584 0.833496 10 0.833496C9.54171 0.833496 9.16671 1.2085 9.16671 1.66683V2.55016C7.47681 2.73892 5.90132 3.4967 4.69895 4.69907C3.49658 5.90144 2.7388 7.47693 2.55004 9.16683H1.66671C1.20837 9.16683 0.833374 9.54183 0.833374 10.0002C0.833374 10.4585 1.20837 10.8335 1.66671 10.8335H2.55004C2.7388 12.5234 3.49658 14.0989 4.69895 15.3013C5.90132 16.5036 7.47681 17.2614 9.16671 17.4502V18.3335C9.16671 18.7918 9.54171 19.1668 10 19.1668C10.4584 19.1668 10.8334 18.7918 10.8334 18.3335V17.4502C12.5233 17.2614 14.0988 16.5036 15.3011 15.3013C16.5035 14.0989 17.2613 12.5234 17.45 10.8335H18.3334C18.7917 10.8335 19.1667 10.4585 19.1667 10.0002C19.1667 9.54183 18.7917 9.16683 18.3334 9.16683H17.45ZM10 15.8335C6.77504 15.8335 4.16671 13.2252 4.16671 10.0002C4.16671 6.77516 6.77504 4.16683 10 4.16683C13.225 4.16683 15.8334 6.77516 15.8334 10.0002C15.8334 13.2252 13.225 15.8335 10 15.8335Z" fill="#888888"/>
</svg>
