<svg width="16" height="16" viewBox="0 0 16 16" fill="none" xmlns="http://www.w3.org/2000/svg">
<path d="M8 1C4.13438 1 1 4.13438 1 8C1 11.8656 4.13438 15 8 15C11.8656 15 15 11.8656 15 8C15 4.13438 11.8656 1 8 1ZM8 12.0625C7.65469 12.0625 7.375 11.7828 7.375 11.4375C7.375 11.0922 7.65469 10.8125 8 10.8125C8.34531 10.8125 8.625 11.0922 8.625 11.4375C8.625 11.7828 8.34531 12.0625 8 12.0625ZM8.98281 8.63281C8.84131 8.68746 8.71955 8.78347 8.63343 8.90834C8.54731 9.03321 8.50081 9.18113 8.5 9.33281V9.6875C8.5 9.75625 8.44375 9.8125 8.375 9.8125H7.625C7.55625 9.8125 7.5 9.75625 7.5 9.6875V9.35156C7.5 8.99062 7.60469 8.63437 7.81094 8.3375C8.0125 8.04687 8.29375 7.825 8.625 7.69844C9.15625 7.49375 9.5 7.04844 9.5 6.5625C9.5 5.87344 8.82656 5.3125 8 5.3125C7.17344 5.3125 6.5 5.87344 6.5 6.5625V6.68125C6.5 6.75 6.44375 6.80625 6.375 6.80625H5.625C5.55625 6.80625 5.5 6.75 5.5 6.68125V6.5625C5.5 5.94844 5.76875 5.375 6.25625 4.94844C6.725 4.5375 7.34375 4.3125 8 4.3125C8.65625 4.3125 9.275 4.53906 9.74375 4.94844C10.2312 5.375 10.5 5.94844 10.5 6.5625C10.5 7.46562 9.90469 8.27812 8.98281 8.63281Z" fill="#888888"/>
</svg>
