<svg width="16" height="16" viewBox="0 0 16 16" fill="none" xmlns="http://www.w3.org/2000/svg">
<path fill-rule="evenodd" clip-rule="evenodd" d="M8 16C12.4183 16 16 12.4183 16 8C16 3.58172 12.4183 0 8 0C3.58172 0 0 3.58172 0 8C0 12.4183 3.58172 16 8 16ZM11.4773 11.9378L8.04049 8.50096L4.62869 11.9128L4.1113 11.3954L7.52309 7.98356L3.93015 4.39061L4.44754 3.87322L8.04049 7.46617L11.4605 4.04615L11.9779 4.56355L8.55788 7.98356L11.9947 11.4204L11.4773 11.9378Z" fill="#CCCCCC"/>
<path d="M4 4L12 12M12 4L4 12" stroke="white" stroke-width="0.8"/>
</svg>
