<svg width="16" height="16" viewBox="0 0 16 16" fill="none" xmlns="http://www.w3.org/2000/svg">
<path d="M14.0067 11.08C14.0843 11.0026 14.1459 10.9106 14.1879 10.8094C14.2299 10.7082 14.2515 10.5996 14.2515 10.49C14.2515 10.3804 14.2299 10.2719 14.1879 10.1706C14.1459 10.0694 14.0843 9.97741 14.0067 9.9L8.4667 4.36C8.40503 4.2982 8.33177 4.24917 8.25112 4.21571C8.17047 4.18226 8.08402 4.16504 7.9967 4.16504C7.90939 4.16504 7.82294 4.18226 7.74229 4.21571C7.66164 4.24917 7.58838 4.2982 7.5267 4.36L1.9867 9.9C1.66004 10.2267 1.66004 10.7533 1.9867 11.08C2.31337 11.4067 2.84004 11.4067 3.1667 11.08L8.00004 6.25334L12.8334 11.0867C13.1534 11.4067 13.6867 11.4067 14.0067 11.08Z" fill="#888888"/>
</svg>
