<svg width="16" height="16" viewBox="0 0 16 16" fill="none" xmlns="http://www.w3.org/2000/svg">
<path d="M4.92 14.0066C4.99741 14.0842 5.08937 14.1458 5.19061 14.1878C5.29185 14.2298 5.40039 14.2515 5.51 14.2515C5.61961 14.2515 5.72815 14.2298 5.82939 14.1878C5.93063 14.1458 6.02259 14.0842 6.1 14.0066L11.64 8.46664C11.7018 8.40497 11.7508 8.33171 11.7843 8.25106C11.8177 8.17041 11.835 8.08395 11.835 7.99664C11.835 7.90933 11.8177 7.82288 11.7843 7.74223C11.7508 7.66158 11.7018 7.58832 11.64 7.52664L6.1 1.98664C5.77333 1.65997 5.24666 1.65997 4.92 1.98664C4.59333 2.31331 4.59333 2.83997 4.92 3.16664L9.74667 7.99998L4.91333 12.8333C4.59333 13.1533 4.59333 13.6866 4.92 14.0066Z" fill="#888888"/>
</svg>
