<svg width="28" height="28" viewBox="0 0 28 28" fill="none" xmlns="http://www.w3.org/2000/svg">
<path d="M24.4043 8.02697C24.064 7.23894 23.5732 6.52483 22.9596 5.92463C22.3455 5.32263 21.6214 4.84423 20.8268 4.51545C20.0028 4.17316 19.119 3.99796 18.2268 4.00002C16.975 4.00002 15.7537 4.34279 14.6924 4.99025C14.4385 5.14514 14.1973 5.31525 13.9688 5.5006C13.7402 5.31525 13.499 5.14514 13.2451 4.99025C12.1838 4.34279 10.9625 4.00002 9.71074 4.00002C8.80937 4.00002 7.93594 4.17267 7.11074 4.51545C6.31348 4.84553 5.59492 5.32033 4.97793 5.92463C4.36347 6.52416 3.87262 7.23843 3.5332 8.02697C3.18027 8.84709 3 9.71799 3 10.6143C3 11.4598 3.17266 12.3408 3.51543 13.2371C3.80234 13.9862 4.21367 14.7631 4.73926 15.5477C5.57207 16.7893 6.71719 18.0842 8.13906 19.3969C10.4953 21.5729 12.8287 23.076 12.9277 23.1369L13.5295 23.5229C13.7961 23.693 14.1389 23.693 14.4055 23.5229L15.0072 23.1369C15.1063 23.0735 17.4371 21.5729 19.7959 19.3969C21.2178 18.0842 22.3629 16.7893 23.1957 15.5477C23.7213 14.7631 24.1352 13.9862 24.4195 13.2371C24.7623 12.3408 24.935 11.4598 24.935 10.6143C24.9375 9.71799 24.7572 8.84709 24.4043 8.02697V8.02697ZM13.9688 21.5145C13.9688 21.5145 4.92969 15.7229 4.92969 10.6143C4.92969 8.02697 7.07012 5.92971 9.71074 5.92971C11.5668 5.92971 13.1766 6.96564 13.9688 8.47892C14.7609 6.96564 16.3707 5.92971 18.2268 5.92971C20.8674 5.92971 23.0078 8.02697 23.0078 10.6143C23.0078 15.7229 13.9688 21.5145 13.9688 21.5145Z" fill="white"/>
</svg>
