<svg width="110" height="27" viewBox="0 0 110 27" fill="none" xmlns="http://www.w3.org/2000/svg">
<g clip-path="url(#clip0)">
<path fill-rule="evenodd" clip-rule="evenodd" d="M3.99622 7.6653L7.46718 4.08978C7.54619 4.0107 7.64214 3.94857 7.74937 3.92032L21.0632 0.011537C21.1704 -0.0223542 21.2889 0.0171845 21.3567 0.107561L30.0482 11.704C30.2062 11.9187 30.1667 12.218 29.9523 12.3762C29.9184 12.4044 29.8789 12.4214 29.8337 12.4383L27.6044 13.2969C27.4633 13.3534 27.3674 13.4946 27.373 13.6471V21.7866C27.373 21.9843 27.2488 22.1594 27.0626 22.2272L19.3136 25.0854L14.2906 26.9381C14.0705 27.0172 13.8278 27.0172 13.6077 26.9268L2.69813 22.4701C2.52317 22.3967 2.40465 22.2216 2.40465 22.0352V13.1387C2.40465 13.0088 2.31999 12.8902 2.19583 12.845L0.147114 12.0994C0.028593 12.0542 -0.0334924 11.9243 0.0116584 11.8L3.99622 7.6653ZM9.57756 4.97087L16.3389 15.4489C16.4518 15.6297 16.6719 15.7087 16.8751 15.641L27.9257 12.1728C28.174 12.0937 28.3095 11.8282 28.2305 11.5797C28.2135 11.5345 28.1966 11.4893 28.1684 11.4497L20.9668 1.40665C20.8483 1.24849 20.6451 1.17505 20.4532 1.22589L9.84846 4.25916C9.60013 4.33259 9.45904 4.59242 9.52676 4.84095C9.53805 4.89179 9.55498 4.93133 9.57756 4.97087ZM6.1687 22.261V14.6751C6.17435 14.6468 6.17999 14.6186 6.19128 14.596V14.5903C6.23643 14.4717 6.37188 14.4096 6.4904 14.4548L10.3339 15.8782C10.5201 15.946 10.6443 16.1211 10.6443 16.3188V23.5941C10.6443 23.6506 10.633 23.7014 10.616 23.7523C10.5314 23.9838 10.2718 24.1025 10.0404 24.0177L6.47911 22.7016C6.29287 22.6338 6.1687 22.4587 6.1687 22.261Z" fill="#6F22D2"/>
</g>
<path d="M47.7768 5.5V11.78H46.3497V5.58H43.2141V22.28H46.3497V14.98H47.7768V22.58H50.9525V5.5H47.7768ZM37.4857 18.8V5.86H34.1693V21.78H38.1088C39.556 21.78 41.3851 21.6 42.4102 21.18V18.22C41.365 18.6 39.757 18.8 38.4103 18.8H37.4857Z" fill="#6F22D2"/>
<path d="M69.3218 8.44V5.5H65.925V15.14H69.3218V11.72H71.3318V8.44H69.3218ZM64.0557 5.7H60.7594V7.4H56.8801V5.7H53.5838V14.5H64.0557V5.7ZM56.8801 11.78V10.04H60.7594V11.78H56.8801ZM61.7443 15.42C57.4228 15.42 54.0059 16.36 54.0059 19.1C54.0059 21.84 57.4228 22.78 61.7443 22.78C66.0657 22.78 69.4826 21.84 69.4826 19.1C69.4826 16.36 66.0657 15.42 61.7443 15.42ZM61.7443 20.12C59.473 20.12 57.664 19.86 57.664 19.1C57.664 18.36 59.473 18.08 61.7443 18.08C64.0155 18.08 65.8245 18.36 65.8245 19.1C65.8245 19.86 64.0155 20.12 61.7443 20.12Z" fill="#6F22D2"/>
<path d="M89.1383 5.5H85.7415V22.58H89.1383V5.5ZM76.7971 5.8H73.2998V21.78H80.395C82.0431 21.78 83.7918 21.48 84.837 20.96V17.88C83.7918 18.38 82.023 18.7 80.395 18.7H76.7971V5.8Z" fill="#6F22D2"/>
<path d="M107.99 8.44V5.5H104.593V15.14H107.99V11.72H110V8.44H107.99ZM102.724 5.7H99.4276V7.4H95.5483V5.7H92.252V14.5H102.724V5.7ZM95.5483 11.78V10.04H99.4276V11.78H95.5483ZM100.412 15.42C96.091 15.42 92.6741 16.36 92.6741 19.1C92.6741 21.84 96.091 22.78 100.412 22.78C104.734 22.78 108.151 21.84 108.151 19.1C108.151 16.36 104.734 15.42 100.412 15.42ZM100.412 20.12C98.1412 20.12 96.3322 19.86 96.3322 19.1C96.3322 18.36 98.1412 18.08 100.412 18.08C102.684 18.08 104.493 18.36 104.493 19.1C104.493 19.86 102.684 20.12 100.412 20.12Z" fill="#6F22D2"/>
<defs>
<clipPath id="clip0">
<rect width="30.1494" height="27" fill="white"/>
</clipPath>
</defs>
</svg>
