<svg width="120" height="120" viewBox="0 0 120 120" fill="none" xmlns="http://www.w3.org/2000/svg">
<circle cx="60" cy="60" r="60" fill="#EEEEEE"/>
<g clip-path="url(#clip0)">
<path d="M78.4904 75.8866L78.0896 77.7313L78.4331 75.8866C77.6506 75.7172 76.5818 75.4913 76.2955 75.3595C73.7189 74.2489 72.0393 72.743 71.2186 70.7666C74.2724 67.8301 76.8299 63.6889 78.3759 59.1525C80.1699 56.7619 81.1624 54.2395 81.1624 52.0183C81.1624 50.5501 80.7234 49.2325 79.9027 48.1407C79.082 36.9407 70.6842 28.1501 60.4732 27.9995H60.1488C50.1668 28.056 41.769 36.5454 40.6811 47.463C39.4596 48.6489 38.8107 50.1925 38.8107 52.0183C38.8107 54.6536 40.1467 57.5901 42.5706 60.3383C44.0593 64.216 46.2542 67.6983 48.8499 70.3336C48.0292 72.3477 46.3496 73.8725 43.754 74.983C43.4295 75.1148 42.3989 75.3595 41.6354 75.5477C36.7685 76.696 26.6529 79.0677 24.0954 88.4607C23.9046 89.176 24 89.9666 24.3817 90.6066C24.7634 91.2654 25.3742 91.7172 26.1376 91.9242C26.3667 91.9619 26.6148 91.9995 26.8629 91.9995C27.3591 91.9995 27.8554 91.8677 28.2943 91.623C28.9623 91.2466 29.4204 90.6442 29.6304 89.9101C31.3099 83.7548 38.3145 82.1172 42.9523 81.0254C44.2311 80.7242 45.2617 80.4795 46.0252 80.1595C52.2281 77.5054 54.2703 73.1572 54.8811 69.976C54.9765 69.4866 54.9383 68.9783 54.7665 68.5077C54.5948 68.0372 54.3085 67.623 53.9268 67.303C51.3502 65.1007 49.1553 61.7689 47.7429 57.9101C47.6093 57.5525 47.4185 57.2136 47.1513 56.9501C45.2045 54.8607 44.5174 53.0348 44.5174 52.0183C44.5174 51.6042 44.5937 51.5289 44.8991 51.3407C45.2999 51.096 45.6435 50.776 45.8916 50.3619C46.1397 49.9666 46.2733 49.496 46.2924 49.0442C46.6741 40.4607 52.8007 33.703 60.0915 33.6466H60.416C67.9168 33.7407 73.967 40.6489 74.196 49.3642C74.2151 49.7595 74.3106 50.1548 74.4823 50.5313C74.6541 50.8889 74.9022 51.1901 75.2076 51.4536C75.3221 51.5477 75.3984 51.623 75.3984 51.9995C75.3984 53.0725 74.7114 54.5407 73.4899 56.0842C73.299 56.3289 73.1463 56.6113 73.0318 56.9501C71.6194 61.3736 69.1001 65.2701 66.1418 67.623C65.741 67.943 65.4356 68.3572 65.2638 68.8466C65.092 69.3172 65.0348 69.8442 65.1302 70.3525C65.741 73.5336 67.7832 77.8819 73.9861 80.536C74.8068 80.8936 75.8947 81.1195 77.2498 81.4019C81.8304 82.3807 88.7395 83.8489 90.3809 89.8913C90.4763 90.2489 90.6481 90.5877 90.8962 90.9077C91.1253 91.1901 91.4116 91.4348 91.7169 91.6042C92.0414 91.7925 92.404 91.9054 92.7667 91.9619C93.1484 92.0183 93.5301 91.9807 93.8736 91.8866C94.2363 91.7924 94.5798 91.623 94.8852 91.3972C95.1906 91.1713 95.4387 90.8889 95.6105 90.5877C95.8013 90.2489 95.9349 89.8913 95.9731 89.5336C96.0304 89.176 95.9922 88.7995 95.8968 88.423C93.3965 79.0677 83.3191 76.9219 78.4904 75.8866Z" fill="#CCCCCC"/>
</g>
<defs>
<clipPath id="clip0">
<rect width="80" height="80" fill="white" transform="translate(20 20)"/>
</clipPath>
</defs>
</svg>
