<svg width="40" height="34" viewBox="0 0 40 34" fill="none" xmlns="http://www.w3.org/2000/svg">
<path d="M31.4043 12.027C31.064 11.2389 30.5732 10.5248 29.9596 9.92463C29.3455 9.32263 28.6214 8.84423 27.8268 8.51545C27.0028 8.17316 26.119 7.99796 25.2268 8.00002C23.975 8.00002 22.7537 8.34279 21.6924 8.99025C21.4385 9.14514 21.1973 9.31525 20.9688 9.5006C20.7402 9.31525 20.499 9.14514 20.2451 8.99025C19.1838 8.34279 17.9625 8.00002 16.7107 8.00002C15.8094 8.00002 14.9359 8.17267 14.1107 8.51545C13.3135 8.84553 12.5949 9.32033 11.9779 9.92463C11.3635 10.5242 10.8726 11.2384 10.5332 12.027C10.1803 12.8471 10 13.718 10 14.6143C10 15.4598 10.1727 16.3408 10.5154 17.2371C10.8023 17.9862 11.2137 18.7631 11.7393 19.5477C12.5721 20.7893 13.7172 22.0842 15.1391 23.3969C17.4953 25.5729 19.8287 27.076 19.9277 27.1369L20.5295 27.5229C20.7961 27.693 21.1389 27.693 21.4055 27.5229L22.0072 27.1369C22.1063 27.0735 24.4371 25.5729 26.7959 23.3969C28.2178 22.0842 29.3629 20.7893 30.1957 19.5477C30.7213 18.7631 31.1352 17.9862 31.4195 17.2371C31.7623 16.3408 31.935 15.4598 31.935 14.6143C31.9375 13.718 31.7572 12.8471 31.4043 12.027Z" fill="#6F22D2"/>
</svg>
