<svg width="222" height="55" viewBox="0 0 222 55" fill="none" xmlns="http://www.w3.org/2000/svg">
<g clip-path="url(#clip0)">
<path d="M7.95316 15.3304L14.8607 8.17932C15.0179 8.02116 15.2089 7.89689 15.4223 7.8404L41.918 0.02283C42.1314 -0.0449525 42.3672 0.034125 42.502 0.214878L59.7989 23.4078C60.1134 23.8371 60.0348 24.4358 59.608 24.7521C59.5406 24.8086 59.462 24.8425 59.3721 24.8764L54.9356 26.5935C54.6548 26.7065 54.4638 26.9889 54.4751 27.294V43.573C54.4751 43.9684 54.228 44.3186 53.8573 44.4542L38.4361 50.1705L28.4399 53.876C28.0018 54.0341 27.5189 54.0341 27.0808 53.8534L5.36985 44.94C5.02167 44.7931 4.7858 44.4429 4.7858 44.0701V26.2772C4.7858 26.0174 4.61732 25.7802 4.37023 25.6898L0.293105 24.1986C0.0572379 24.1082 -0.0663175 23.8484 0.0235365 23.5998L7.95316 15.3304Z" fill="white"/>
<path d="M19.0606 9.94154L32.5162 30.8976C32.7408 31.2591 33.1789 31.4173 33.5832 31.2817L55.575 24.3453C56.0692 24.1872 56.3388 23.6562 56.1815 23.1591C56.1478 23.0687 56.1141 22.9784 56.058 22.8993L41.7262 2.81309C41.4904 2.49678 41.086 2.34991 40.7042 2.45158L19.5997 8.51812C19.1055 8.66498 18.8247 9.18464 18.9595 9.68171C18.9819 9.78339 19.0156 9.86246 19.0606 9.94154Z" fill="#6F22D2"/>
<path d="M12.2764 29.3498V44.5218C12.2764 44.9172 12.5235 45.2674 12.8941 45.4029L19.9813 48.0352C20.4418 48.2046 20.9585 47.9674 21.127 47.5042C21.1607 47.4025 21.1831 47.3008 21.1831 47.1879V32.6372C21.1831 32.2418 20.936 31.8916 20.5654 31.7561L12.9166 28.9092C12.6807 28.8188 12.4111 28.9431 12.3213 29.1803C12.3213 29.1803 12.3213 29.1803 12.3213 29.1916C12.2988 29.2368 12.2876 29.2933 12.2764 29.3498Z" fill="#6F22D2"/>
</g>
<path d="M104.007 14V48.16H97.6869V32.96H94.8469V47.56H88.6069V14.16H94.8469V26.56H97.6869V14H104.007ZM79.0469 40.6C80.4335 40.6 81.8469 40.5067 83.2869 40.32C84.7535 40.1067 85.9935 39.8133 87.0069 39.44V45.36C86.0469 45.76 84.7669 46.0533 83.1669 46.24C81.5935 46.4533 80.0202 46.56 78.4469 46.56H70.6069V14.72H77.2069V40.6H79.0469ZM144.563 19.88V26.44H140.563V33.28H133.803V14H140.563V19.88H144.563ZM130.083 32H109.243V14.4H115.803V17.8H123.523V14.4H130.083V32ZM123.523 26.56V23.08H115.803V26.56H123.523ZM125.483 33.84C130.177 33.84 133.91 34.4267 136.683 35.6C139.483 36.7467 140.883 38.6133 140.883 41.2C140.883 43.7867 139.483 45.6533 136.683 46.8C133.91 47.9733 130.177 48.56 125.483 48.56C120.79 48.56 117.043 47.9733 114.243 46.8C111.47 45.6533 110.083 43.7867 110.083 41.2C110.083 38.6133 111.47 36.7467 114.243 35.6C117.043 34.4267 120.79 33.84 125.483 33.84ZM125.483 43.24C127.937 43.24 129.897 43.08 131.363 42.76C132.857 42.44 133.603 41.92 133.603 41.2C133.603 40.5067 132.857 40 131.363 39.68C129.87 39.3333 127.91 39.16 125.483 39.16C123.057 39.16 121.097 39.3333 119.603 39.68C118.11 40 117.363 40.5067 117.363 41.2C117.363 41.92 118.097 42.44 119.563 42.76C121.057 43.08 123.03 43.24 125.483 43.24ZM180 48.16H173.24V14H180V48.16ZM155.44 40.4H162.6C164.227 40.4 165.84 40.2533 167.44 39.96C169.067 39.6667 170.4 39.2667 171.44 38.76V44.92C170.427 45.4267 169.12 45.8267 167.52 46.12C165.92 46.4133 164.28 46.56 162.6 46.56H148.48V14.6H155.44V40.4ZM221.517 19.88V26.44H217.517V33.28H210.757V14H217.517V19.88H221.517ZM207.037 32H186.197V14.4H192.757V17.8H200.477V14.4H207.037V32ZM200.477 26.56V23.08H192.757V26.56H200.477ZM202.437 33.84C207.13 33.84 210.863 34.4267 213.637 35.6C216.437 36.7467 217.837 38.6133 217.837 41.2C217.837 43.7867 216.437 45.6533 213.637 46.8C210.863 47.9733 207.13 48.56 202.437 48.56C197.743 48.56 193.997 47.9733 191.197 46.8C188.423 45.6533 187.037 43.7867 187.037 41.2C187.037 38.6133 188.423 36.7467 191.197 35.6C193.997 34.4267 197.743 33.84 202.437 33.84ZM202.437 43.24C204.89 43.24 206.85 43.08 208.317 42.76C209.81 42.44 210.557 41.92 210.557 41.2C210.557 40.5067 209.81 40 208.317 39.68C206.823 39.3333 204.863 39.16 202.437 39.16C200.01 39.16 198.05 39.3333 196.557 39.68C195.063 40 194.317 40.5067 194.317 41.2C194.317 41.92 195.05 42.44 196.517 42.76C198.01 43.08 199.983 43.24 202.437 43.24Z" fill="white"/>
<defs>
<clipPath id="clip0">
<rect width="60" height="54" fill="white"/>
</clipPath>
</defs>
</svg>
