<svg width="28" height="28" viewBox="0 0 28 28" fill="none" xmlns="http://www.w3.org/2000/svg">
<path d="M23.7578 8.7172C23.4437 7.98979 22.9907 7.33062 22.4242 6.77658C21.8573 6.22089 21.189 5.77929 20.4555 5.4758C19.6949 5.15984 18.8791 4.99812 18.0555 5.00002C16.9 5.00002 15.7727 5.31642 14.793 5.91408C14.5586 6.05705 14.3359 6.21408 14.125 6.38517C13.9141 6.21408 13.6914 6.05705 13.457 5.91408C12.4773 5.31642 11.35 5.00002 10.1945 5.00002C9.3625 5.00002 8.55625 5.15939 7.79453 5.4758C7.05859 5.78049 6.39531 6.21877 5.82578 6.77658C5.25859 7.32999 4.8055 7.98932 4.49219 8.7172C4.16641 9.47424 4 10.2781 4 11.1055C4 11.886 4.15938 12.6992 4.47578 13.5266C4.74063 14.218 5.12031 14.9352 5.60547 15.6594C6.37422 16.8055 7.43125 18.0008 8.74375 19.2125C10.9187 21.2211 13.0727 22.6086 13.1641 22.6649L13.7195 23.0211C13.9656 23.1781 14.282 23.1781 14.5281 23.0211L15.0836 22.6649C15.175 22.6063 17.3266 21.2211 19.5039 19.2125C20.8164 18.0008 21.8734 16.8055 22.6422 15.6594C23.1273 14.9352 23.5094 14.218 23.7719 13.5266C24.0883 12.6992 24.2477 11.886 24.2477 11.1055C24.25 10.2781 24.0836 9.47424 23.7578 8.7172Z" fill="#6F22D2"/>
</svg>
