<svg width="56" height="50" viewBox="0 0 56 50" fill="none" xmlns="http://www.w3.org/2000/svg">
<g clip-path="url(#clip0)">
<path d="M26.2983 2.94737C27.0546 1.63743 28.9454 1.63743 29.7017 2.94737L50.547 39.0526C51.3033 40.3626 50.358 42 48.8454 42H7.15462C5.64203 42 4.69666 40.3626 5.45295 39.0526L26.2983 2.94737Z" fill="#DA3D3D"/>
<path d="M25.1038 13.8031C25.076 13.2421 25.5234 12.772 26.0851 12.772H29.8071C30.3666 12.772 30.8131 13.2385 30.7886 13.7974L30.0062 31.6525C29.9832 32.1779 29.5505 32.592 29.0247 32.592H26.9702C26.4465 32.592 26.0148 32.1812 25.9889 31.6581L25.1038 13.8031Z" fill="white"/>
<circle cx="27.7545" cy="37.5789" r="2.21053" fill="white"/>
</g>
<defs>
<clipPath id="clip0">
<rect width="56" height="50" fill="white"/>
</clipPath>
</defs>
</svg>
