<svg width="340" height="368" viewBox="0 0 340 368" fill="none" xmlns="http://www.w3.org/2000/svg">
<g clip-path="url(#clip0)">
<g clip-path="url(#clip1)">
<ellipse cx="126.968" cy="359" rx="20.9677" ry="10" fill="#BBCED6" fill-opacity="0.24"/>
<ellipse cx="53.9677" cy="351" rx="20.9677" ry="10" fill="#BBCED6" fill-opacity="0.24"/>
<path d="M117.617 290.16L121.12 358.572" stroke="white" stroke-width="0.294516"/>
<path d="M128.867 299.705L139.195 352.84" stroke="white" stroke-width="0.294516"/>
<path fill-rule="evenodd" clip-rule="evenodd" d="M132.371 299.308C133.132 299.068 134.034 298.725 134.827 298.407C135.385 298.183 135.89 297.971 136.256 297.816C136.439 297.738 136.587 297.674 136.689 297.629L136.807 297.578L136.838 297.564L136.846 297.561L136.848 297.56L136.848 297.56L136.848 297.559L136.819 297.492L136.789 297.425L136.789 297.425L136.788 297.425L136.786 297.426L136.778 297.429L136.748 297.443L136.63 297.494C136.528 297.538 136.381 297.602 136.198 297.68C135.833 297.836 135.329 298.047 134.772 298.27C133.657 298.717 132.337 299.209 131.501 299.396C130.895 299.532 129.948 299.533 129.147 299.498C128.748 299.481 128.387 299.455 128.126 299.434C127.996 299.423 127.89 299.413 127.817 299.406L127.734 299.398L127.712 299.396L127.706 299.395L127.705 299.395L127.705 299.395L127.705 299.395L127.697 299.468L127.697 299.468L127.697 299.468L127.697 299.468L127.689 299.541L127.689 299.541L127.689 299.542L127.691 299.542L127.697 299.542L127.709 299.544L129.758 312.132L130.936 300.351L132.371 299.308Z" fill="#111111" fill-opacity="0.8"/>
<path d="M126.646 244.393C126.582 244.551 126.346 244.493 126.362 244.324L126.55 242.404C126.559 242.315 126.644 242.254 126.731 242.275L127.687 242.509C127.792 242.535 127.835 242.661 127.766 242.745L126.875 243.837C126.866 243.849 126.858 243.862 126.853 243.876L126.646 244.393Z" fill="black"/>
<path d="M104.342 254.995C104.557 254.879 104.523 253.631 104.487 252.951C104.475 252.715 104.642 252.478 104.88 252.466C105.039 252.457 105.168 252.618 105.192 252.774C105.265 253.238 105.407 254.237 105.419 254.951C105.431 255.735 107.089 260.604 107.571 262.003C107.656 262.251 107.669 262.513 107.608 262.767C107.35 263.853 105.963 264.188 105.221 263.341C103.179 261.014 100.025 257.401 99.4126 256.595C98.7503 255.722 98.4951 254.157 98.3974 253.15C98.3378 252.536 98.5256 251.919 98.9938 251.518C99.1764 251.361 99.3901 251.203 99.6256 251.073C99.7356 251.012 99.8639 250.96 100.002 250.915C101.015 250.588 101.893 251.454 102.314 252.43C102.462 252.773 102.743 253.242 102.841 253.403C102.864 253.441 102.887 253.477 102.913 253.513C103.115 253.8 104.077 255.138 104.342 254.995Z" fill="#783434"/>
<path d="M127.151 362.507L127.372 358.195L119.371 356.774L111.343 356.86C111.343 356.86 110.548 357.729 110.454 358.443C110.331 359.387 110.823 359.91 111.362 360.637C112.238 361.819 113.172 362.109 114.547 362.373C115.264 362.512 115.685 362.429 116.416 362.428C118.712 362.427 122.288 361.873 122.288 361.873L122.191 362.615L123.005 362.91C123.005 362.91 124.783 363.41 125.88 363.096C126.4 362.948 127.151 362.507 127.151 362.507Z" fill="black"/>
<path d="M143.151 355.303L143.151 352.469L137.713 348.82L132.254 345.94C132.254 345.94 130.31 346.086 129.898 346.676C129.351 347.457 129.461 347.925 129.603 348.82C129.834 350.273 130.273 350.813 131.37 351.683C131.942 352.136 133.078 352.524 133.726 352.861C135.763 353.921 137.943 354.689 137.943 354.689L138.439 355.659L138.586 355.806C138.586 355.806 139.971 356.166 141.089 356.395C141.619 356.503 143.151 355.303 143.151 355.303Z" fill="black"/>
<path d="M138.417 287.382L125.668 288.31L130.928 319.286L137.26 352.124C137.26 352.124 139.862 353.912 141.603 353.52C143.22 353.155 143.887 351.241 143.887 351.241L139.911 315.015C139.911 315.015 142.136 303.62 141.006 295.716C140.358 291.186 138.417 287.382 138.417 287.382Z" fill="#320F7D"/>
<path d="M128.572 287.036L116.35 285.122C116.35 285.122 116.35 309.272 117.822 323.239C119.268 336.948 119.981 358.378 119.981 358.378C119.981 358.378 122.085 359.584 124.009 359.515C126.054 359.44 127.415 358.416 127.415 358.416C127.415 358.416 126.946 337.042 126.782 323.239C126.618 309.425 128.572 287.036 128.572 287.036Z" fill="#320F7D"/>
<path fill-rule="evenodd" clip-rule="evenodd" d="M140.284 272.27L126.929 279.533C126.929 279.533 126.939 281.115 127.41 281.957C127.841 282.726 129.023 283.535 129.023 283.535C129.023 283.535 138.82 279.523 146.227 275.349C147.594 274.578 146.249 271.353 145.635 270.053C144.99 268.068 144.062 265.293 143.264 263.229C141.995 259.948 139.711 255.167 139.711 255.167L133.356 258.689L140.284 272.27Z" fill="#B2BBCB"/>
<path fill-rule="evenodd" clip-rule="evenodd" d="M121.396 266.118C119.585 269.512 116.404 274.609 116.404 274.609L116.305 274.556C115.953 275.299 114.416 278.15 112.247 276.357C106.654 271.733 103.588 262.591 103.588 262.591C103.588 262.591 104.301 261.398 105.014 260.879C105.794 260.311 107.302 260.019 107.302 260.019L111.932 266.126L112.964 267.501C113.16 266.862 113.36 266.236 113.552 265.684C114.322 263.464 115.761 260.088 115.761 260.088L125.181 258.162C125.181 258.162 123.052 263.015 121.396 266.118Z" fill="#D7DDE9"/>
<path d="M138.586 253.903C135.522 252.725 128.986 254.492 128.986 254.492C128.986 254.492 121.049 252.268 118.089 255.67C112.963 261.561 116.862 265.326 116.35 272.458C116.092 276.051 115.841 277.405 115.585 280.999C115.336 284.498 115.024 291.454 119.589 289.981C124.154 288.509 138.586 287.478 138.586 287.478L142.456 273.93C142.456 273.93 141.638 255.077 138.586 253.903Z" fill="#D7DDE9"/>
<path d="M132.107 248.896L125.486 250.516C125.486 250.516 126.511 251.4 126.364 253.02C126.305 253.668 125.038 253.903 125.038 253.903C125.038 253.903 127.041 254.871 128.425 255.081C129.562 255.254 130.607 255.238 131.665 254.787C132.417 254.466 133.285 253.609 133.285 253.609C133.285 253.609 132.107 253.81 132.107 251.989C132.107 251.252 132.107 248.896 132.107 248.896Z" fill="#783434"/>
<path d="M122.883 243.824C122.899 247.821 122.763 251.884 127.297 251.03C131.038 250.435 133.513 250.544 134.986 244.771C136.399 239.235 131.87 236.466 128.128 237.062C124.485 237.905 122.866 239.827 122.883 243.824Z" fill="#783434"/>
<path d="M126.88 241.998C127.273 246.918 126.546 248.471 129.146 250.153C129.146 250.153 133.274 252.599 135.108 244.801C136.951 236.968 131.402 236.374 127.311 236.701C123.307 237.34 126.488 237.078 126.88 241.998Z" fill="black"/>
<path d="M126.882 243.17C127.271 243.268 127.6 243.541 127.795 243.931C127.991 244.321 128.037 244.796 127.923 245.25C127.81 245.705 127.547 246.102 127.191 246.355C126.835 246.607 126.417 246.695 126.027 246.598L126.455 244.884L126.882 243.17Z" fill="#783434"/>
<path d="M123.947 237.768C124.437 237.768 125.476 237.004 125.782 237.004L127.464 238.992C127.77 240.113 128.381 242.386 128.381 242.508C128.381 242.63 127.26 242.763 126.699 242.814C126.139 242.865 125.025 242.014 124.1 241.285C123.305 240.657 122.719 240.357 122.266 239.45C122.113 239.144 122.184 238.918 122.266 238.686C122.425 238.231 122.724 238.074 123.03 237.921C123.336 237.768 123.458 237.768 123.947 237.768Z" fill="black"/>
<path d="M122.682 256.407C122.24 256.554 121.912 256.62 121.504 257.437C121.096 258.254 122.093 259.057 122.093 259.057" stroke="white" stroke-width="0.294516"/>
<path d="M128.081 256.996C127.64 257.143 127.312 257.209 126.903 258.027C126.495 258.844 127.492 259.646 127.492 259.646" stroke="white" stroke-width="0.294516"/>
<path d="M126.869 263.639C127.33 263.705 127.653 263.792 128.384 263.244C129.115 262.696 128.581 261.531 128.581 261.531" stroke="white" stroke-width="0.294516"/>
<path d="M134.757 257.305C135.218 257.371 135.541 257.458 136.272 256.91C137.002 256.362 136.469 255.197 136.469 255.197" stroke="white" stroke-width="0.294516"/>
<path d="M123.369 273.194C122.927 273.341 122.599 273.408 122.191 274.225C121.783 275.042 122.78 275.845 122.78 275.845" stroke="white" stroke-width="0.294516"/>
<path d="M124.842 280.557C124.4 280.704 124.072 280.771 123.664 281.588C123.255 282.405 124.253 283.208 124.253 283.208" stroke="white" stroke-width="0.294516"/>
<path d="M119.835 280.262C119.393 280.41 119.065 280.476 118.657 281.293C118.248 282.11 119.246 282.913 119.246 282.913" stroke="white" stroke-width="0.294516"/>
<path d="M143.102 266.715C142.66 266.862 142.332 266.928 141.924 267.746C141.515 268.563 142.513 269.365 142.513 269.365" stroke="white" stroke-width="0.294516"/>
<path d="M140.465 265.092C140.785 264.753 141.043 264.54 141.017 263.627C140.992 262.714 139.733 262.477 139.733 262.477" stroke="white" stroke-width="0.294516"/>
<path d="M139.862 273.489C139.42 273.636 139.093 273.702 138.684 274.519C138.276 275.336 139.273 276.139 139.273 276.139" stroke="white" stroke-width="0.294516"/>
<path d="M111.294 268.187C110.852 268.335 110.524 268.401 110.116 269.218C109.707 270.035 110.705 270.838 110.705 270.838" stroke="white" stroke-width="0.294516"/>
<path d="M121.52 265.984C121.271 265.591 121.128 265.289 120.236 265.089C119.345 264.889 118.806 266.05 118.806 266.05" stroke="white" stroke-width="0.294516"/>
<path d="M107.302 263.83C107.052 263.437 106.909 263.135 106.018 262.935C105.126 262.735 104.587 263.896 104.587 263.896" stroke="white" stroke-width="0.294516"/>
<path d="M132.63 284.741C132.381 284.348 132.238 284.045 131.346 283.846C130.455 283.646 129.916 284.807 129.916 284.807" stroke="white" stroke-width="0.294516"/>
<path d="M136.165 264.714C135.915 264.32 135.772 264.018 134.881 263.818C133.989 263.618 133.45 264.78 133.45 264.78" stroke="white" stroke-width="0.294516"/>
<path d="M138.148 271.194C138.179 270.73 138.241 270.401 137.64 269.713C137.038 269.026 135.917 269.645 135.917 269.645" stroke="white" stroke-width="0.294516"/>
<path d="M129.553 272.434C129.584 271.969 129.646 271.641 129.045 270.953C128.443 270.266 127.323 270.885 127.323 270.885" stroke="white" stroke-width="0.294516"/>
<path d="M115.416 274.496C115.447 274.031 115.51 273.702 114.908 273.015C114.307 272.327 113.186 272.947 113.186 272.947" stroke="white" stroke-width="0.294516"/>
<path d="M133.531 278.577C133.346 278.149 133.252 277.828 132.404 277.491C131.555 277.153 130.84 278.215 130.84 278.215" stroke="white" stroke-width="0.294516"/>
<path d="M137.212 283.89C137.028 283.463 136.934 283.142 136.085 282.804C135.236 282.466 134.521 283.528 134.521 283.528" stroke="white" stroke-width="0.294516"/>
<path d="M66.2162 347.911C68.0132 348.775 66.9244 352.103 66.9244 352.103C66.9244 352.103 63.1516 352.02 60.3703 351.407C57.7842 350.838 54.2975 349.106 54.2975 349.106C54.2975 349.106 54.3801 347.138 54.4091 345.764C54.4367 344.463 54.7431 342.503 54.7431 342.503L60.4541 342.674L60.432 344.977C60.432 344.977 62.4293 346.092 66.2162 347.911Z" fill="#5676B6"/>
<path d="M51.5275 349.568C53.4049 350.672 51.9309 354.104 51.9309 354.104C51.9309 354.104 47.8308 353.67 44.8586 352.748C42.0951 351.891 38.4572 349.686 38.4572 349.686C38.4572 349.686 38.7271 347.551 38.8844 346.058C39.0334 344.644 39.5462 342.539 39.5462 342.539L45.7486 343.247L45.5138 345.753C45.5138 345.753 47.5708 347.241 51.5275 349.568Z" fill="#5676B6"/>
<path d="M40.956 253.733L53.8547 249.853L63.1153 254.421V288.994H40.396C40.396 288.994 40.9621 278.316 40.956 271.468C40.95 264.807 40.956 253.733 40.956 253.733Z" fill="#2E4A81"/>
<path d="M41.1229 288.157H52.2277L49.4712 315.571L46.3996 344.152C46.3996 344.152 43.284 345.105 41.5167 344.881C39.8758 344.672 37.7363 343.131 37.7363 343.131L40.2566 315.571L41.1229 288.157Z" fill="#2E4A81"/>
<path d="M49.873 249.12H57.0343L57.0799 253.156H49.9186L49.873 249.12Z" fill="#F1C2AE"/>
<path d="M51.3218 288.157H61.8954C61.8954 288.157 63.0081 305.019 63.2781 315.837C63.5477 326.644 63.2781 343.517 63.2781 343.517C63.2781 343.517 60.4127 344.586 58.4793 344.613C56.4225 344.641 53.9245 343.517 53.9245 343.517C53.9245 343.517 54.0773 326.643 53.6805 315.837C53.2834 305.022 51.3218 288.157 51.3218 288.157Z" fill="#2E4A81"/>
<path d="M87.0679 266.066C87.0195 265.886 87.7223 265.231 88.1138 264.883C88.2497 264.762 88.2923 264.543 88.1752 264.406C88.097 264.315 87.9418 264.33 87.8436 264.401C87.5515 264.612 86.9284 265.074 86.5306 265.453C86.2298 265.74 85.3718 266.358 84.7174 266.817C84.2276 267.161 83.983 267.765 84.105 268.35C84.2312 268.955 84.7212 269.411 85.3316 269.475C86.3995 269.586 88.0246 269.724 88.7596 269.627C89.5021 269.528 90.3807 268.946 90.9889 268.473C91.4873 268.085 91.8201 267.498 91.7426 266.871C91.7286 266.759 91.7079 266.643 91.6783 266.528C91.6544 266.436 91.6164 266.338 91.5691 266.238C91.2211 265.507 90.2873 265.493 89.5323 265.79C89.2767 265.89 88.8922 265.987 88.7401 266.024C88.6965 266.034 88.6528 266.043 88.6086 266.05C88.3131 266.1 87.1264 266.283 87.0679 266.066Z" fill="#FECDB8"/>
<path d="M49.873 251.715C49.873 251.715 53.3162 253.566 55.7826 253.012C56.9871 252.741 57.0799 251.715 57.0799 251.715C57.0799 251.715 57.992 262.983 57.9447 270.308C57.9032 276.734 56.7916 287.172 56.7916 287.172C56.7916 287.172 55.2119 287.123 53.6206 287.172C51.5827 287.236 49.8731 286.596 49.8731 286.596C49.8731 286.596 50.5689 273.132 50.1613 263.678C49.9765 259.391 49.873 251.715 49.873 251.715Z" fill="#FFC329"/>
<path d="M83.1186 266.428L84.5646 266.105C84.5646 266.105 85.1687 267.192 85.3412 267.957C85.5153 268.729 85.4319 269.982 85.4319 269.982L83.9859 270.306L83.1186 266.428Z" fill="#E4E4E4"/>
<path fill-rule="evenodd" clip-rule="evenodd" d="M68.4349 269.27L83.1987 266.104C83.1987 266.104 83.9943 267.269 84.1954 268.127C84.3991 268.995 84.1954 270.411 84.1954 270.411C84.1954 270.411 74.3617 273.678 66.1993 275.299C64.6104 275.615 63.5223 271.984 63.2086 270.786C62.4415 268.939 61.4601 266.511 60.7875 264.612C59.6379 261.367 58.2857 256.359 58.2857 256.359L63.1155 254.421L68.4349 269.27Z" fill="#2E4A81"/>
<path d="M38.459 349.678C38.459 349.678 43.1235 351.898 45.7845 352.771C48.4035 353.629 51.9496 354.115 51.9496 354.115L51.8262 354.326C51.7116 354.522 51.4942 354.633 51.2689 354.604C50.3052 354.483 47.6435 354.109 45.5636 353.433C42.966 352.59 38.385 350.341 38.385 350.341L38.459 349.678Z" fill="#2E4A81"/>
<path d="M54.2925 348.969C54.2925 348.969 58.0692 350.311 60.5587 350.92C63.0089 351.52 66.9146 352.071 66.9146 352.071L66.8516 352.2C66.742 352.426 66.501 352.555 66.253 352.518C65.1938 352.358 62.3349 351.908 60.3959 351.439C57.9662 350.852 54.2715 349.579 54.2715 349.579L54.2925 348.969Z" fill="#2E4A81"/>
<path d="M50.0271 242.568C49.6341 242.568 49.2573 242.75 48.9794 243.074C48.7015 243.398 48.5454 243.838 48.5454 244.296C48.5454 244.755 48.7015 245.195 48.9794 245.519C49.2573 245.843 49.6341 246.025 50.0271 246.025L50.0271 244.296V242.568Z" fill="#FECDB8"/>
<path d="M52.8243 280.618C52.9062 280.43 53.9543 280.37 54.5266 280.352C54.7253 280.345 54.9114 280.189 54.9052 279.989C54.9011 279.855 54.7575 279.758 54.6248 279.748C54.2308 279.721 53.3834 279.672 52.7845 279.713C52.3315 279.744 51.1778 279.661 50.305 279.588C49.6505 279.533 49.0277 279.875 48.7314 280.462C48.4252 281.068 48.5319 281.806 49.0102 282.295C49.8463 283.149 51.1393 284.423 51.8332 284.862C52.562 285.324 53.7746 285.444 54.6245 285.465C55.2517 285.482 55.8683 285.24 56.2118 284.715C56.2968 284.586 56.3778 284.443 56.4452 284.292C56.4882 284.196 56.5228 284.084 56.5505 283.965C56.7529 283.094 55.9651 282.419 55.1175 282.136C54.8266 282.038 54.4253 281.843 54.2749 281.768C54.2346 281.748 54.1959 281.727 54.157 281.705C53.882 281.543 52.7246 280.847 52.8243 280.618Z" fill="#FECDB8"/>
<path fill-rule="evenodd" clip-rule="evenodd" d="M38.5667 270.306L50.7606 278.832C50.7606 278.832 50.578 280.37 50.0272 281.138C49.5245 281.839 48.2857 282.496 48.2857 282.496C48.2857 282.496 39.196 277.521 32.4495 272.649C31.2037 271.749 32.8649 268.761 33.6049 267.564C34.4495 265.703 35.6565 263.106 36.6587 261.186C38.2518 258.134 40.9973 253.733 40.9973 253.733L46.7932 257.855L38.5667 270.306Z" fill="#2E4A81"/>
<path d="M54.7807 242.844C54.4529 246.95 54.3124 246.061 53.4619 250.386C49.8686 250.099 46.9754 248.74 46.6087 244.578C46.0981 238.782 50.1877 236.466 53.781 236.753C57.2984 237.3 55.1084 238.738 54.7807 242.844Z" fill="black"/>
<path d="M58.911 244.387C58.6335 247.864 57.3959 251.603 53.4319 251.174C50.1678 250.913 48.3285 248.96 47.9753 245.433C47.4833 240.52 51.1854 238.578 54.4496 238.838C57.646 239.319 59.1886 240.91 58.911 244.387Z" fill="#FECDB8"/>
<path d="M59.6839 242.381C59.6839 241.543 59.5222 240.713 59.208 239.939C58.8938 239.165 58.4332 238.462 57.8527 237.87C57.2721 237.277 56.5829 236.807 55.8243 236.487C55.0657 236.166 54.2527 236.001 53.4317 236.001C52.6106 236.001 51.4965 235.969 50.738 236.289C49.9794 236.61 49.3006 236.994 48.7201 237.587C48.1395 238.179 47.737 238.975 47.4228 239.749C47.1086 240.523 46.7021 241.738 46.7021 242.631C46.7021 243.524 50.9774 243.019 53.4317 243.019C55.886 243.019 59.6839 242.381 59.6839 242.381Z" fill="black"/>
<path d="M51.2626 245.188V241.998H47.9451L47.3071 242.253V244.295L47.4347 246.209L48.3279 248.123L48.8383 248.505L49.9867 245.188H51.2626Z" fill="black"/>
</g>
<g opacity="0.2">
<path fill-rule="evenodd" clip-rule="evenodd" d="M177.765 127.358L220.956 82.8807C221.939 81.897 223.133 81.1241 224.467 80.7728L390.136 32.1496C391.471 31.728 392.945 32.2198 393.788 33.3441L501.94 177.598C503.906 180.268 503.415 183.992 500.746 185.959C500.325 186.31 499.833 186.521 499.271 186.732L471.531 197.412C469.775 198.115 468.581 199.871 468.652 201.769V303.02C468.652 305.479 467.107 307.658 464.789 308.501L368.365 344.055L305.862 367.102C303.123 368.085 300.103 368.085 297.364 366.961L161.613 311.522C159.436 310.609 157.961 308.43 157.961 306.112V195.445C157.961 193.829 156.907 192.353 155.362 191.791L129.869 182.516C128.395 181.954 127.622 180.338 128.184 178.792L177.765 127.358ZM247.216 93.8413L331.35 224.182C332.754 226.431 335.493 227.415 338.021 226.571L475.529 183.429C478.619 182.445 481.219 177.735 480.236 174.643C480.025 174.081 479.814 173.519 479.463 173.027L388.937 49.5043C387.462 47.5369 384.934 46.6234 382.546 47.2558L250.587 84.988C247.497 85.9014 245.741 89.1336 246.584 92.2252C246.724 92.8576 246.935 93.3495 247.216 93.8413ZM204.799 308.921V214.555C204.869 214.204 204.939 213.853 205.08 213.572V213.501C205.642 212.026 207.327 211.253 208.802 211.815L256.627 229.522C258.945 230.365 260.49 232.543 260.49 235.002V325.503C260.49 326.206 260.35 326.838 260.139 327.471C259.085 330.352 255.855 331.827 252.976 330.773L208.661 314.401C206.344 313.558 204.799 311.38 204.799 308.921Z" fill="#6F22D2"/>
</g>
<path d="M29.9703 43.5597V72.0298H24.703V59.3616H22.336V71.5298H17.1354V43.6931H22.336V54.0277H24.703V43.5597H29.9703ZM9.16777 65.7291C10.3235 65.7291 11.5014 65.6513 12.7015 65.4957C13.9239 65.3179 14.9574 65.0734 15.8019 64.7623V69.6962C15.0018 70.0296 13.935 70.2741 12.6015 70.4296C11.2903 70.6074 9.97898 70.6963 8.66771 70.6963H2.13359V44.1598H7.63426V65.7291H9.16777ZM63.7715 48.4603V53.9276H60.4378V59.6283H54.8038V43.5597H60.4378V48.4603H63.7715ZM51.7034 58.5615H34.3346V43.8931H39.8019V46.7268H46.2361V43.8931H51.7034V58.5615ZM46.2361 54.0277V51.1273H39.8019V54.0277H46.2361ZM47.8696 60.0951C51.7812 60.0951 54.8927 60.584 57.204 61.5619C59.5377 62.5176 60.7045 64.0733 60.7045 66.2291C60.7045 68.3849 59.5377 69.9407 57.204 70.8964C54.8927 71.8743 51.7812 72.3632 47.8696 72.3632C43.958 72.3632 40.8354 71.8743 38.5018 70.8964C36.1904 69.9407 35.0347 68.3849 35.0347 66.2291C35.0347 64.0733 36.1904 62.5176 38.5018 61.5619C40.8354 60.584 43.958 60.0951 47.8696 60.0951ZM47.8696 67.9293C49.9143 67.9293 51.5478 67.796 52.7702 67.5293C54.0148 67.2626 54.6371 66.8292 54.6371 66.2291C54.6371 65.6513 54.0148 65.229 52.7702 64.9623C51.5256 64.6734 49.8921 64.5289 47.8696 64.5289C45.8471 64.5289 44.2136 64.6734 42.969 64.9623C41.7244 65.229 41.1021 65.6513 41.1021 66.2291C41.1021 66.8292 41.7133 67.2626 42.9357 67.5293C44.1803 67.796 45.8249 67.9293 47.8696 67.9293ZM93.3055 72.0298H87.6715V43.5597H93.3055V72.0298ZM72.8364 65.5624H78.8038C80.1595 65.5624 81.5041 65.4401 82.8376 65.1957C84.1933 64.9512 85.3046 64.6178 86.1713 64.1955V69.3295C85.3268 69.7518 84.2378 70.0852 82.9043 70.3296C81.5708 70.5741 80.204 70.6963 78.8038 70.6963H67.0357V44.0598H72.8364V65.5624ZM127.907 48.4603V53.9276H124.573V59.6283H118.939V43.5597H124.573V48.4603H127.907ZM115.839 58.5615H98.47V43.8931H103.937V46.7268H110.371V43.8931H115.839V58.5615ZM110.371 54.0277V51.1273H103.937V54.0277H110.371ZM112.005 60.0951C115.917 60.0951 119.028 60.584 121.339 61.5619C123.673 62.5176 124.84 64.0733 124.84 66.2291C124.84 68.3849 123.673 69.9407 121.339 70.8964C119.028 71.8743 115.917 72.3632 112.005 72.3632C108.093 72.3632 104.971 71.8743 102.637 70.8964C100.326 69.9407 99.1701 68.3849 99.1701 66.2291C99.1701 64.0733 100.326 62.5176 102.637 61.5619C104.971 60.584 108.093 60.0951 112.005 60.0951ZM112.005 67.9293C114.05 67.9293 115.683 67.796 116.906 67.5293C118.15 67.2626 118.772 66.8292 118.772 66.2291C118.772 65.6513 118.15 65.229 116.906 64.9623C115.661 64.6734 114.027 64.5289 112.005 64.5289C109.982 64.5289 108.349 64.6734 107.104 64.9623C105.86 65.229 105.237 65.6513 105.237 66.2291C105.237 66.8292 105.849 67.2626 107.071 67.5293C108.316 67.796 109.96 67.9293 112.005 67.9293ZM16.0353 81.7931C18.68 81.7931 21.0025 82.1931 23.0028 82.9932C25.003 83.7711 26.5477 84.8712 27.6367 86.2936C28.7257 87.716 29.2702 89.3496 29.2702 91.1942C29.2702 93.0389 28.7257 94.6724 27.6367 96.0948C26.5477 97.5172 25.003 98.6285 23.0028 99.4285C21.0025 100.206 18.68 100.595 16.0353 100.595C13.3905 100.595 11.068 100.206 9.06776 99.4285C7.06752 98.6285 5.52289 97.5172 4.43387 96.0948C3.34485 94.6724 2.80034 93.0389 2.80034 91.1942C2.80034 89.3496 3.34485 87.716 4.43387 86.2936C5.52289 84.8712 7.06752 83.7711 9.06776 82.9932C11.068 82.1931 13.3905 81.7931 16.0353 81.7931ZM16.0353 86.8937C14.6129 86.8937 13.3461 87.0715 12.2348 87.4271C11.1458 87.7827 10.2901 88.2939 9.66784 88.9606C9.06776 89.6051 8.76773 90.3497 8.76773 91.1942C8.76773 92.0388 9.06776 92.7944 9.66784 93.4612C10.2901 94.1057 11.1458 94.6057 12.2348 94.9613C13.3461 95.3169 14.6129 95.4947 16.0353 95.4947C17.4577 95.4947 18.7134 95.3169 19.8024 94.9613C20.9136 94.6057 21.7693 94.1057 22.3694 93.4612C22.9917 92.7944 23.3028 92.0388 23.3028 91.1942C23.3028 90.3497 22.9917 89.6051 22.3694 88.9606C21.7693 88.2939 20.9136 87.7827 19.8024 87.4271C18.7134 87.0715 17.4577 86.8937 16.0353 86.8937ZM30.437 109.03H1.63353V103.762H30.437V109.03ZM62.5047 103.896V109.03H33.7012V103.896H45.2359V100.695H35.3014V89.094H55.3705V87.1604H35.2347V82.2265H60.9378V93.7945H40.8687V95.7614H61.2712V100.695H50.97V103.896H62.5047ZM31.7038 135.428H28.3701V148.03H22.7361V119.56H28.3701V129.961H31.7038V135.428ZM13.635 120.226H19.169V146.696H2.60031V120.226H8.13432V128.594H13.635V120.226ZM13.635 141.529V133.728H8.13432V141.529H13.635ZM62.5047 141.896V147.03H33.7012V141.896H45.2359V138.695H35.3014V127.094H55.3705V125.16H35.2347V120.226H60.9378V131.795H40.8687V133.761H61.2712V138.695H50.97V141.896H62.5047ZM95.8392 135.428H92.5054V148.03H86.8714V119.56H92.5054V129.961H95.8392V135.428ZM66.569 120.226H82.6709V127.927C82.6709 131.75 82.0153 135.073 80.704 137.895C79.3928 140.718 77.5259 142.896 75.1033 144.429C72.6808 145.941 69.836 146.696 66.569 146.696V141.362C69.9472 141.34 72.5141 140.151 74.2699 137.795C76.0479 135.439 76.9369 132.15 76.9369 127.927V125.36H66.569V120.226ZM125.373 148.03H119.739V119.56H125.373V148.03ZM115.339 127.927C115.339 131.75 114.661 135.073 113.305 137.895C111.972 140.718 110.071 142.896 107.604 144.429C105.137 145.941 102.248 146.696 98.9367 146.696V141.362C102.337 141.34 104.96 140.14 106.804 137.762C108.649 135.384 109.571 132.106 109.571 127.927V125.36H98.9367V120.226H115.339V127.927Z" fill="#6F22D2"/>
<path d="M14.9851 2.49849V16.7335H12.3515V10.3994H11.168V16.4835H8.5677V2.56516H11.168V7.73246H12.3515V2.49849H14.9851ZM4.58389 13.5832C5.16173 13.5832 5.75069 13.5443 6.35077 13.4665C6.96195 13.3776 7.47868 13.2553 7.90096 13.0998V15.5667C7.50091 15.7334 6.96751 15.8557 6.30076 15.9334C5.64513 16.0223 4.98949 16.0668 4.33386 16.0668H1.0668V2.79853H3.81713V13.5832H4.58389ZM31.8858 4.94879V7.68245H30.2189V10.5328H27.4019V2.49849H30.2189V4.94879H31.8858ZM25.8517 9.9994H17.1673V2.66518H19.901V4.08201H23.118V2.66518H25.8517V9.9994ZM23.118 7.73246V6.28228H19.901V7.73246H23.118ZM23.9348 10.7662C25.8906 10.7662 27.4463 11.0106 28.602 11.4996C29.7688 11.9774 30.3522 12.7553 30.3522 13.8332C30.3522 14.9111 29.7688 15.689 28.602 16.1668C27.4463 16.6558 25.8906 16.9002 23.9348 16.9002C21.979 16.9002 20.4177 16.6558 19.2509 16.1668C18.0952 15.689 17.5174 14.9111 17.5174 13.8332C17.5174 12.7553 18.0952 11.9774 19.2509 11.4996C20.4177 11.0106 21.979 10.7662 23.9348 10.7662ZM23.9348 14.6833C24.9571 14.6833 25.7739 14.6166 26.3851 14.4833C27.0074 14.3499 27.3185 14.1332 27.3185 13.8332C27.3185 13.5443 27.0074 13.3331 26.3851 13.1998C25.7628 13.0553 24.946 12.9831 23.9348 12.9831C22.9236 12.9831 22.1068 13.0553 21.4845 13.1998C20.8622 13.3331 20.5511 13.5443 20.5511 13.8332C20.5511 14.1332 20.8566 14.3499 21.4678 14.4833C22.0901 14.6166 22.9124 14.6833 23.9348 14.6833ZM51.3246 2.49849V10.9662H48.5076V2.49849H51.3246ZM42.7402 8.36586C42.1623 9.07706 41.4511 9.64935 40.6066 10.0827C39.7621 10.5161 38.8508 10.7439 37.8729 10.7662V8.23252C38.4952 8.18807 39.0453 8.01582 39.5231 7.71579C40.0121 7.41575 40.4066 7.03237 40.7066 6.56565C41.0066 6.08781 41.2011 5.57664 41.29 5.03213H38.073V2.66518H47.2741V5.03213H44.1404C44.107 5.39884 44.0292 5.78778 43.907 6.19894L47.8075 8.59923L46.3573 10.6495L42.7402 8.36586ZM38.523 11.4662H51.3246V16.9002H48.4575V13.8832H38.523V11.4662ZM67.4251 2.49849V16.7335H64.6081V10.3828H61.6244C61.091 12.183 60.1686 13.5832 58.8574 14.5833C57.5461 15.5723 55.9515 16.0668 54.0735 16.0668V13.3998C55.7626 13.3887 57.046 12.7942 57.9239 11.6163C58.8129 10.4383 59.2574 8.79369 59.2574 6.68233V5.39884H54.0735V2.83186H62.1244V6.68233C62.1244 6.9268 62.1133 7.2824 62.0911 7.74912H64.6081V2.49849H67.4251ZM83.7923 2.49849V16.7335H81.1586V10.3994H79.9752V16.4835H77.3748V2.56516H79.9752V7.73246H81.1586V2.49849H83.7923ZM73.391 13.6665C73.98 13.6665 74.5745 13.6221 75.1746 13.5332C75.7858 13.4443 76.2969 13.322 76.7081 13.1664V15.5667C76.3081 15.7334 75.7913 15.8557 75.1579 15.9334C74.5356 16.0223 73.9022 16.0668 73.2577 16.0668H69.8739V8.23252H73.4577V5.23215H69.8739V2.83186H76.0747V10.5995H72.4909V13.6665H73.391ZM99.1927 6.08226H89.2582V6.58232H99.3427V8.19918H86.5412V4.63208H96.4757V4.13202H86.5078V2.49849H99.1927V6.08226ZM100.059 10.5495H85.6577V8.68257H100.059V10.5495ZM99.2261 14.6H89.2248V15.1H99.3761V16.7335H86.5078V13.1498H96.5091V12.6497H86.4745V11.0329H99.2261V14.6ZM5.88404 27.1492C4.56166 27.1492 3.50042 26.9047 2.70033 26.4158C1.91134 25.9157 1.51685 25.1934 1.51685 24.2488C1.51685 23.3043 1.91134 22.5875 2.70033 22.0986C3.50042 21.5985 4.56166 21.3485 5.88404 21.3485C7.20643 21.3485 8.26211 21.5985 9.05109 22.0986C9.85119 22.5875 10.2512 23.3043 10.2512 24.2488C10.2512 25.1934 9.85119 25.9157 9.05109 26.4158C8.26211 26.9047 7.20643 27.1492 5.88404 27.1492ZM11.8681 30.1995V21.4985H14.6851V32.5498H11.8681V32.1498H8.20099V30.1995H11.8681ZM5.88404 23.4154C5.37287 23.4154 4.96727 23.4876 4.66723 23.6321C4.37831 23.7654 4.23384 23.971 4.23384 24.2488C4.23384 24.5266 4.37831 24.7378 4.66723 24.8822C4.96727 25.0156 5.37287 25.0823 5.88404 25.0823C6.39522 25.0823 6.79527 25.0156 7.08419 24.8822C7.38423 24.7378 7.53424 24.5266 7.53424 24.2488C7.53424 23.971 7.38423 23.7654 7.08419 23.6321C6.79527 23.4876 6.39522 23.4154 5.88404 23.4154ZM14.8851 33.3833V35.7335H1.95024V31.2163H4.21718V29.7995H0.816765V27.6326H7.36756C8.10098 27.6326 8.79551 27.5937 9.45114 27.5159C10.1068 27.427 10.6402 27.2936 11.0513 27.1158V29.2828C10.2624 29.6272 9.01776 29.7995 7.31755 29.7995H7.01751V31.9498H4.76724V33.3833H14.8851ZM26.4518 24.6655H16.7173V22.4653H20.151V21.2485H23.018V22.4653H26.4518V24.6655ZM31.8858 24.7989V27.5326H30.2189V32.1164H27.4019V21.4985H30.2189V24.7989H31.8858ZM21.5845 30.933C20.7733 30.933 20.0343 30.8218 19.3676 30.5996C18.7119 30.3773 18.1897 30.044 17.8007 29.5995C17.4118 29.155 17.2173 28.6216 17.2173 27.9993C17.2173 27.377 17.4118 26.8436 17.8007 26.3991C18.1897 25.9546 18.7119 25.6212 19.3676 25.399C20.0343 25.1767 20.7733 25.0656 21.5845 25.0656C22.3957 25.0656 23.1291 25.1767 23.7848 25.399C24.4515 25.6212 24.9794 25.9546 25.3683 26.3991C25.7572 26.8436 25.9517 27.377 25.9517 27.9993C25.9517 28.6216 25.7572 29.155 25.3683 29.5995C24.9794 30.044 24.4515 30.3773 23.7848 30.5996C23.1291 30.8218 22.3957 30.933 21.5845 30.933ZM21.5845 27.0992C21.0844 27.0992 20.6788 27.1881 20.3677 27.3659C20.0565 27.5326 19.901 27.7437 19.901 27.9993C19.901 28.2549 20.0565 28.4716 20.3677 28.6494C20.6788 28.816 21.0844 28.8994 21.5845 28.8994C22.0846 28.8994 22.4902 28.816 22.8013 28.6494C23.1125 28.4716 23.268 28.2549 23.268 27.9993C23.268 27.7437 23.1125 27.5326 22.8013 27.3659C22.4902 27.1881 22.0846 27.0992 21.5845 27.0992ZM20.5177 33.2832H30.4189V35.7335H17.6507V31.3497H20.5177V33.2832ZM47.9196 29.4328H46.2527V35.7335H43.4357V21.4985H46.2527V26.6991H47.9196V29.4328ZM39.0852 32.5165C39.7742 32.5165 40.452 32.4609 41.1188 32.3498C41.7966 32.2387 42.3467 32.0831 42.769 31.8831V34.4C42.3578 34.6112 41.7855 34.7723 41.0521 34.8834C40.3298 35.0057 39.6075 35.0668 38.8852 35.0668H33.3678V21.8319H41.6522V24.3822H36.2348V32.5165H39.0852ZM59.9863 28.616H58.4694V26.1324H59.9863V25.0156H58.4694V22.5319H59.9863V21.4985H62.7533V32.0498H59.9863V28.616ZM57.8027 29.7662H49.3183V21.6652H57.8027V29.7662ZM55.0357 24.0488H52.0853V27.3825H55.0357V24.0488ZM62.9533 33.2166V35.7335H50.0184V30.7496H52.8854V33.2166H62.9533ZM68.0025 30.9996C68.0025 30.1773 68.1247 29.505 68.3692 28.9827C68.6248 28.4604 69.0582 27.9715 69.6694 27.5159C70.2139 27.0936 70.6028 26.7436 70.8362 26.4658C71.0695 26.1768 71.1862 25.8435 71.1862 25.4656C71.1862 25.0434 71.0417 24.7155 70.7528 24.4822C70.4639 24.2377 70.0583 24.1155 69.536 24.1155C69.0026 24.1155 68.5803 24.2766 68.2692 24.5989C67.9691 24.91 67.8191 25.2934 67.8191 25.749H64.9188C64.9188 24.96 65.1132 24.2488 65.5022 23.6154C65.9022 22.9709 66.4467 22.4653 67.1357 22.0986C67.8358 21.7319 68.6303 21.5485 69.5193 21.5485C70.4639 21.5485 71.2751 21.7152 71.953 22.0486C72.6308 22.3819 73.1476 22.8487 73.5032 23.4487C73.8588 24.0377 74.0365 24.71 74.0365 25.4656C74.0365 26.6324 73.4754 27.6492 72.353 28.516C71.7418 28.9938 71.3196 29.4106 71.0862 29.7662C70.8639 30.1218 70.7528 30.5329 70.7528 30.9996H68.0025ZM69.4693 35.7335C68.9582 35.7335 68.5359 35.5669 68.2025 35.2335C67.8691 34.9112 67.7025 34.4945 67.7025 33.9833C67.7025 33.4722 67.8691 33.0499 68.2025 32.7165C68.5359 32.3831 68.9582 32.2165 69.4693 32.2165C69.9805 32.2165 70.4028 32.3831 70.7362 32.7165C71.0695 33.0499 71.2362 33.4722 71.2362 33.9833C71.2362 34.4945 71.0695 34.9112 70.7362 35.2335C70.4028 35.5669 69.9805 35.7335 69.4693 35.7335Z" fill="#888888"/>
</g>
<defs>
<clipPath id="clip0">
<rect width="340" height="368" fill="white"/>
</clipPath>
<clipPath id="clip1">
<rect width="116" height="132" fill="white" transform="translate(32 236)"/>
</clipPath>
</defs>
</svg>
