<svg width="167" height="41" viewBox="0 0 167 41" fill="none" xmlns="http://www.w3.org/2000/svg">
<g clip-path="url(#clip0)">
<path fill-rule="evenodd" clip-rule="evenodd" d="M6.0484 11.5677L11.3011 6.17175C11.4207 6.05241 11.5659 5.95865 11.7282 5.91602L31.8764 0.0171712C32.0387 -0.0339749 32.218 0.025694 32.3205 0.162084L45.4736 17.6626C45.7128 17.9865 45.653 18.4383 45.3284 18.677C45.2772 18.7196 45.2174 18.7452 45.1491 18.7708L41.7754 20.0665C41.5619 20.1517 41.4167 20.3648 41.4252 20.595V32.8786C41.4252 33.1769 41.2373 33.4412 40.9555 33.5435L29.2287 37.8568L21.6272 40.6528C21.2941 40.7721 20.9268 40.7721 20.5937 40.6357L4.08396 33.91C3.81919 33.7992 3.63984 33.5349 3.63984 33.2536V19.8278C3.63984 19.6317 3.51172 19.4527 3.32382 19.3845L0.223436 18.2593C0.0440751 18.1911 -0.0498806 17.995 0.0184474 17.8075L6.0484 11.5677ZM14.4938 7.50105L24.7259 23.3137C24.8967 23.5865 25.2298 23.7058 25.5373 23.6036L42.2606 18.3696C42.6364 18.2503 42.8414 17.8496 42.7218 17.4745C42.6962 17.4063 42.6706 17.3382 42.6279 17.2785L31.7295 2.12219C31.5502 1.8835 31.2427 1.77269 30.9523 1.8494L14.9038 6.42698C14.528 6.5378 14.3144 6.92992 14.4169 7.30499C14.434 7.38171 14.4596 7.44138 14.4938 7.50105ZM9.33529 33.5944V22.1462C9.34383 22.1035 9.35237 22.0609 9.36945 22.0268V22.0183C9.43778 21.8393 9.64276 21.7455 9.82212 21.8137L15.6385 23.9619C15.9204 24.0641 16.1083 24.3284 16.1083 24.6268V35.6061C16.1083 35.6914 16.0912 35.7681 16.0656 35.8448C15.9375 36.1943 15.5446 36.3733 15.1944 36.2455L9.80504 34.2593C9.52319 34.157 9.33529 33.8927 9.33529 33.5944Z" fill="white" fill-opacity="0.4"/>
</g>
<path d="M72.3035 8.30078V17.7781H70.1438V8.42151H65.3987V33.6239H70.1438V22.6073H72.3035V34.0767H77.1094V8.30078H72.3035ZM56.7298 28.3722V8.84407H51.7109V32.8694H57.6727C59.8628 32.8694 62.6308 32.5977 64.182 31.9639V27.4969C62.6003 28.0703 60.167 28.3722 58.129 28.3722H56.7298Z" fill="white" fill-opacity="0.4"/>
<path d="M104.908 12.7376V8.30078H99.7677V22.8488H104.908V17.6875H107.95V12.7376H104.908ZM96.9389 8.60261H91.9505V11.1681H86.0799V8.60261H81.0915V21.8829H96.9389V8.60261ZM86.0799 17.7781V15.1522H91.9505V17.7781H86.0799ZM93.4409 23.2713C86.9012 23.2713 81.7302 24.6899 81.7302 28.8249C81.7302 32.9599 86.9012 34.3785 93.4409 34.3785C99.9806 34.3785 105.152 32.9599 105.152 28.8249C105.152 24.6899 99.9806 23.2713 93.4409 23.2713ZM93.4409 30.3642C90.0038 30.3642 87.2662 29.9718 87.2662 28.8249C87.2662 27.7081 90.0038 27.2856 93.4409 27.2856C96.8781 27.2856 99.6156 27.7081 99.6156 28.8249C99.6156 29.9718 96.8781 30.3642 93.4409 30.3642Z" fill="white" fill-opacity="0.4"/>
<path d="M134.897 8.30078H129.757V34.0767H134.897V8.30078ZM116.221 8.75352H110.928V32.8694H121.666C124.16 32.8694 126.806 32.4166 128.388 31.6319V26.9838C126.806 27.7383 124.129 28.2212 121.666 28.2212H116.221V8.75352Z" fill="white" fill-opacity="0.4"/>
<path d="M163.426 12.7376V8.30078H158.285V22.8488H163.426V17.6875H166.468V12.7376H163.426ZM155.457 8.60261H150.468V11.1681H144.598V8.60261H139.609V21.8829H155.457V8.60261ZM144.598 17.7781V15.1522H150.468V17.7781H144.598ZM151.959 23.2713C145.419 23.2713 140.248 24.6899 140.248 28.8249C140.248 32.9599 145.419 34.3785 151.959 34.3785C158.498 34.3785 163.669 32.9599 163.669 28.8249C163.669 24.6899 158.498 23.2713 151.959 23.2713ZM151.959 30.3642C148.521 30.3642 145.784 29.9718 145.784 28.8249C145.784 27.7081 148.521 27.2856 151.959 27.2856C155.396 27.2856 158.133 27.7081 158.133 28.8249C158.133 29.9718 155.396 30.3642 151.959 30.3642Z" fill="white" fill-opacity="0.4"/>
<defs>
<clipPath id="clip0">
<rect width="45.626" height="40.7464" fill="white"/>
</clipPath>
</defs>
</svg>
