<svg width="12" height="15" viewBox="0 0 12 15" fill="none" xmlns="http://www.w3.org/2000/svg">
<path d="M8.5233 4.11571C9.04315 4.09583 9.55951 4.20799 10.0235 4.44159C10.4874 4.67519 10.8837 5.02248 11.1746 5.45058L11.1211 5.4885L10.9989 5.57193L10.8308 5.70086L10.6321 5.87531C10.5579 5.94613 10.489 6.02217 10.4258 6.10284C10.3487 6.1873 10.2796 6.27871 10.2195 6.37588C10.1584 6.47448 10.0896 6.58066 10.0285 6.70201C9.96722 6.82503 9.91363 6.95167 9.86806 7.08124C9.82442 7.22533 9.79123 7.37234 9.76873 7.52114C9.74055 7.68137 9.72776 7.8439 9.73052 8.00654C9.72784 8.35859 9.78998 8.70816 9.9139 9.03803C10.0183 9.31185 10.1653 9.56776 10.3494 9.79647C10.5057 9.98464 10.6825 10.1551 10.8766 10.3046C11.0163 10.4146 11.1645 10.5135 11.3198 10.6004L11.5337 10.699C11.5337 10.7445 11.4879 10.8431 11.4344 10.9948C11.3809 11.1465 11.2739 11.3816 11.1211 11.7002C10.979 12.0156 10.813 12.3198 10.6245 12.6103C10.4411 12.8758 10.2959 13.0805 10.1737 13.2322C10.0514 13.3839 9.89861 13.5432 9.71524 13.7328C9.5547 13.9018 9.3627 14.0383 9.14983 14.1348C8.95195 14.2195 8.73879 14.2633 8.5233 14.2637C8.15747 14.2462 7.79892 14.1559 7.46889 13.9983C7.11082 13.8272 6.72006 13.7341 6.3228 13.7252C5.9053 13.7359 5.49444 13.8314 5.11558 14.0058C4.79221 14.1607 4.44221 14.2534 4.08409 14.2789C3.89201 14.2673 3.70455 14.2156 3.53396 14.1272C3.32799 14.0333 3.14144 13.9021 2.98384 13.7404C2.81372 13.5795 2.65779 13.4044 2.51776 13.2171C2.38023 13.0502 2.21977 12.8227 2.02112 12.5496C1.58216 11.9087 1.23741 11.2089 0.997272 10.4715C0.741123 9.71076 0.607049 8.91479 0.599958 8.11272C0.592961 7.52627 0.691279 6.94327 0.890303 6.39105C1.05384 5.92537 1.31416 5.49901 1.65437 5.13961C1.9622 4.81837 2.33091 4.56062 2.73934 4.38117C3.12731 4.20359 3.5499 4.11297 3.97712 4.11571C4.39616 4.13901 4.80761 4.23662 5.19198 4.40392C5.49862 4.54886 5.82591 4.64607 6.16235 4.69213C6.51033 4.63471 6.84935 4.53273 7.17091 4.38875C7.60166 4.21828 8.05969 4.1258 8.5233 4.11571ZM8.04958 3.02355C7.81115 3.30153 7.5205 3.5308 7.19383 3.69857C6.895 3.86705 6.55933 3.96077 6.21583 3.97161C6.15752 3.97942 6.09841 3.97942 6.04009 3.97161C6.02778 3.89371 6.02778 3.81439 6.04009 3.73649C6.05745 3.05644 6.32993 2.40731 6.80416 1.91622C7.06483 1.62341 7.3784 1.3816 7.72867 1.20328C8.05294 1.02534 8.41322 0.921676 8.78309 0.899902C8.79237 0.985612 8.79237 1.07206 8.78309 1.15777C8.77182 1.84687 8.51151 2.50902 8.04958 3.02355Z" fill="#040000"/>
</svg>
