<svg width="20" height="18" viewBox="0 0 20 18" fill="none" xmlns="http://www.w3.org/2000/svg">
<path d="M10 0.129761C11.808 0.129761 13.4803 0.470506 15.0167 1.152C16.5532 1.83349 17.7679 2.76017 18.6607 3.93205C19.5536 5.10392 20 6.38217 20 7.76679C20 9.1514 19.5536 10.4315 18.6607 11.6069C17.7679 12.7824 16.5551 13.7109 15.0223 14.3924C13.4896 15.0739 11.8155 15.4146 10 15.4146C9.42708 15.4146 8.83557 15.375 8.22545 15.2956C5.57664 17.0769 4.16667 17.9783 3.99554 18C3.91369 18.0288 3.83557 18.0252 3.76116 17.9891C3.7314 17.9675 3.70908 17.9387 3.6942 17.9026C3.67932 17.8666 3.67188 17.8341 3.67188 17.8053V17.762C3.71652 17.4807 4.05506 16.3089 4.6875 14.2464C3.25149 13.554 2.11124 12.6364 1.26674 11.4934C0.422247 10.3503 0 9.10813 0 7.76679C0 6.38217 0.446429 5.10392 1.33929 3.93205C2.23214 2.76017 3.4468 1.83349 4.98326 1.152C6.51972 0.470506 8.19196 0.129761 10 0.129761Z" fill="#FFDE00"/>
</svg>
