<svg width="110" height="27" viewBox="0 0 110 27" fill="none" xmlns="http://www.w3.org/2000/svg">
<g clip-path="url(#clip0)">
<path fill-rule="evenodd" clip-rule="evenodd" d="M3.99628 7.66518L7.46724 4.08966C7.54626 4.01058 7.6422 3.94844 7.74943 3.9202L21.0633 0.011415C21.1705 -0.0224762 21.289 0.0170625 21.3567 0.107439L30.0483 11.7039C30.2063 11.9185 30.1668 12.2179 29.9523 12.3761C29.9185 12.4043 29.8789 12.4212 29.8338 12.4382L27.6045 13.2968C27.4634 13.3533 27.3674 13.4945 27.3731 13.647V21.7865C27.3731 21.9842 27.2489 22.1593 27.0627 22.2271L19.3137 25.0853L14.2906 26.938C14.0705 27.0171 13.8279 27.0171 13.6077 26.9267L2.69819 22.47C2.52323 22.3966 2.40471 22.2215 2.40471 22.0351V13.1386C2.40471 13.0087 2.32005 12.8901 2.19589 12.8449L0.147175 12.0993C0.028654 12.0541 -0.0334314 11.9242 0.0117194 11.7999L3.99628 7.66518ZM9.57762 4.97075L16.3389 15.4488C16.4518 15.6295 16.6719 15.7086 16.8751 15.6408L27.9258 12.1726C28.1741 12.0936 28.3095 11.8281 28.2305 11.5795C28.2136 11.5343 28.1967 11.4892 28.1684 11.4496L20.9669 1.40652C20.8484 1.24837 20.6452 1.17493 20.4533 1.22577L9.84852 4.25903C9.60019 4.33247 9.4591 4.5923 9.52682 4.84083C9.53811 4.89167 9.55504 4.93121 9.57762 4.97075ZM6.16876 22.2609V14.6749C6.17441 14.6467 6.18005 14.6184 6.19134 14.5959V14.5902C6.23649 14.4716 6.37194 14.4095 6.49046 14.4546L10.3339 15.8781C10.5202 15.9459 10.6443 16.121 10.6443 16.3187V23.594C10.6443 23.6505 10.633 23.7013 10.6161 23.7521C10.5315 23.9837 10.2718 24.1023 10.0404 24.0176L6.47918 22.7015C6.29293 22.6337 6.16876 22.4586 6.16876 22.2609Z" fill="white"/>
</g>
<path d="M47.7768 5.5V11.78H46.3497V5.58H43.2141V22.28H46.3497V14.98H47.7768V22.58H50.9525V5.5H47.7768ZM37.4857 18.8V5.86H34.1693V21.78H38.1088C39.556 21.78 41.3851 21.6 42.4102 21.18V18.22C41.365 18.6 39.757 18.8 38.4103 18.8H37.4857Z" fill="white"/>
<path d="M69.3218 8.44V5.5H65.925V15.14H69.3218V11.72H71.3318V8.44H69.3218ZM64.0557 5.7H60.7594V7.4H56.8801V5.7H53.5838V14.5H64.0557V5.7ZM56.8801 11.78V10.04H60.7594V11.78H56.8801ZM61.7443 15.42C57.4228 15.42 54.0059 16.36 54.0059 19.1C54.0059 21.84 57.4228 22.78 61.7443 22.78C66.0657 22.78 69.4826 21.84 69.4826 19.1C69.4826 16.36 66.0657 15.42 61.7443 15.42ZM61.7443 20.12C59.473 20.12 57.664 19.86 57.664 19.1C57.664 18.36 59.473 18.08 61.7443 18.08C64.0155 18.08 65.8245 18.36 65.8245 19.1C65.8245 19.86 64.0155 20.12 61.7443 20.12Z" fill="white"/>
<path d="M89.1383 5.5H85.7415V22.58H89.1383V5.5ZM76.7971 5.8H73.2998V21.78H80.395C82.0431 21.78 83.7918 21.48 84.837 20.96V17.88C83.7918 18.38 82.023 18.7 80.395 18.7H76.7971V5.8Z" fill="white"/>
<path d="M107.99 8.44V5.5H104.593V15.14H107.99V11.72H110V8.44H107.99ZM102.724 5.7H99.4276V7.4H95.5483V5.7H92.252V14.5H102.724V5.7ZM95.5483 11.78V10.04H99.4276V11.78H95.5483ZM100.412 15.42C96.091 15.42 92.6741 16.36 92.6741 19.1C92.6741 21.84 96.091 22.78 100.412 22.78C104.734 22.78 108.151 21.84 108.151 19.1C108.151 16.36 104.734 15.42 100.412 15.42ZM100.412 20.12C98.1412 20.12 96.3322 19.86 96.3322 19.1C96.3322 18.36 98.1412 18.08 100.412 18.08C102.684 18.08 104.493 18.36 104.493 19.1C104.493 19.86 102.684 20.12 100.412 20.12Z" fill="white"/>
<defs>
<clipPath id="clip0">
<rect width="30.1494" height="27" fill="white"/>
</clipPath>
</defs>
</svg>
