<svg width="179" height="170" viewBox="0 0 179 170" fill="none" xmlns="http://www.w3.org/2000/svg">
<path d="M39.844 5.764H35.444V-2.6226e-06H28.008V20.328H35.444V12.848H39.844V5.764ZM13.4 14.168L22.904 19.668L26.38 14.168L16.48 8.668C16.7 8.008 16.832 7.304 16.92 6.6H25.06V0.44H1.124V6.6H9.396C8.604 9.944 5.436 13.288 0.596 13.552V20.064C5.964 19.932 10.452 17.512 13.4 14.168ZM2.268 37.576H35.444V21.648H2.268V37.576ZM9.704 27.764H28.008V31.46H9.704V27.764ZM77.9882 7.48V-2.6226e-06H70.7282V27.808H77.9882V14.696H82.1682V7.48H77.9882ZM54.5362 5.984V0.44H42.7002V6.512H47.6722V7.656C47.6722 11.704 46.0442 14.652 42.7002 15.488V21.868C49.9162 21.12 54.5362 15.004 54.5362 5.984ZM60.8722 7.612C60.8722 12.144 58.5402 15.488 54.5362 16.192V22.528C62.6762 21.912 67.9122 15.84 67.9122 5.896V0.44H55.8122V6.512H60.8722V7.612ZM52.1602 24.42H44.5922V37.576H78.5162V30.888H52.1602V24.42ZM39.844 93.764H35.444V88H28.008V108.328H35.444V100.848H39.844V93.764ZM13.4 102.168L22.904 107.668L26.38 102.168L16.48 96.668C16.7 96.008 16.832 95.304 16.92 94.6H25.06V88.44H1.124V94.6H9.396C8.604 97.944 5.436 101.288 0.596 101.552V108.064C5.964 107.932 10.452 105.512 13.4 102.168ZM2.268 125.576H35.444V109.648H2.268V125.576ZM9.704 115.764H28.008V119.46H9.704V115.764ZM77.9882 95.48V88H70.7282V115.808H77.9882V102.696H82.1682V95.48H77.9882ZM54.5362 93.984V88.44H42.7002V94.512H47.6722V95.656C47.6722 99.704 46.0442 102.652 42.7002 103.488V109.868C49.9162 109.12 54.5362 103.004 54.5362 93.984ZM60.8722 95.612C60.8722 100.144 58.5402 103.488 54.5362 104.192V110.528C62.6762 109.912 67.9122 103.84 67.9122 93.896V88.44H55.8122V94.512H60.8722V95.612ZM52.1602 112.42H44.5922V125.576H78.5162V118.888H52.1602V112.42Z" fill="#B180F0"/>
<path d="M35.444 48.532V44H28.008V62.392H35.444V55.308H39.844V48.532H35.444ZM13.18 56.32L23.124 61.952L26.6 56.584L16.392 51.04C17.184 49.06 17.624 46.86 17.624 44.616L10.188 44.176C10.056 50.732 6.096 55.352 0.156 56.056V62.524C5.48 62.26 10.056 59.884 13.18 56.32ZM9.66 74.932H35.444V63.712H2.224V68.86H28.096V70.356H2.312V81.576H35.84V76.428H9.66V74.932ZM61.2682 56.144L76.8882 64.372L80.3642 58.124L64.8322 50.512C65.6682 48.62 66.2842 46.64 66.5922 44.528L59.0242 43.428C57.8362 51.7 50.7082 57.332 43.3602 57.332V64.328C50.3562 64.372 56.8682 61.204 61.2682 56.144ZM80.4962 67.144H42.4802V74.008H57.6602V82.456H65.3162V74.008H80.4962V67.144ZM121.148 44H113.712V64.812H121.148V44ZM109.312 54.164C109.312 48.092 104.384 44.044 97.0804 44.044C89.7764 44.044 84.8484 48.092 84.8484 54.164C84.8484 60.28 89.7764 64.284 97.0804 64.284C104.384 64.284 109.312 60.28 109.312 54.164ZM92.2404 54.164C92.2404 51.7 94.1764 50.116 97.0804 50.116C99.9844 50.116 101.92 51.7 101.92 54.164C101.92 56.628 99.9844 58.212 97.0804 58.212C94.1764 58.212 92.2404 56.628 92.2404 54.164ZM123.832 76.648L116.572 71.676C117.1 70.268 117.452 68.772 117.672 67.144L110.5 65.956C110.016 70.18 107.728 73.568 104.912 74.536L100.82 71.72C101.348 70.356 101.744 68.816 101.964 67.144L94.7924 65.956C94.2204 70.972 91.0964 74.844 87.5324 74.844V81.576C91.2724 81.576 94.8364 79.948 97.5204 77.044L103.24 81.576C107.112 81.576 110.72 79.948 113.36 77L119.608 81.972L123.832 76.648ZM166.817 57.728H162.417V44H154.981V81.576H162.417V64.944H166.817V57.728ZM135.973 73.084V51.612H150.273V44.88H128.405V79.816H142.969C146.577 79.816 150.933 79.2 153.221 78.056V71.412C150.933 72.468 147.061 73.084 143.497 73.084H135.973ZM179.001 45.1H169.497L171.521 69.08H176.977L179.001 45.1ZM174.249 72.292C171.565 72.292 169.585 74.272 169.585 76.956C169.585 79.64 171.565 81.576 174.249 81.576C176.933 81.576 178.913 79.64 178.913 76.956C178.913 74.272 176.933 72.292 174.249 72.292ZM35.444 136.532V132H28.008V150.392H35.444V143.308H39.844V136.532H35.444ZM13.18 144.32L23.124 149.952L26.6 144.584L16.392 139.04C17.184 137.06 17.624 134.86 17.624 132.616L10.188 132.176C10.056 138.732 6.096 143.352 0.156 144.056V150.524C5.48 150.26 10.056 147.884 13.18 144.32ZM9.66 162.932H35.444V151.712H2.224V156.86H28.096V158.356H2.312V169.576H35.84V164.428H9.66V162.932ZM82.1682 145.728H77.7682V132H70.3322V169.576H77.7682V152.944H82.1682V145.728ZM54.8442 132.44C47.8482 132.44 43.1842 137.984 43.1842 150.348C43.1842 162.712 47.8482 168.256 54.8442 168.256C61.8402 168.256 66.4602 162.712 66.4602 150.348C66.4602 137.984 61.8402 132.44 54.8442 132.44ZM54.8442 161.436C52.3802 161.436 50.5322 158.796 50.5322 150.348C50.5322 141.944 52.3802 139.26 54.8442 139.26C57.2642 139.26 59.1122 141.944 59.1122 150.348C59.1122 158.796 57.2642 161.436 54.8442 161.436ZM107.596 161.304V155.584H120.752V132.88H113.448V137.676H94.1764V132.88H86.8724V155.584H100.028V161.304H84.8044V168.256H122.82V161.304H107.596ZM94.1764 144.232H113.448V148.94H94.1764V144.232ZM166.817 145.728H162.417V132H154.981V169.576H162.417V152.944H166.817V145.728ZM144.245 139.7H152.121V132.88H128.449V139.7H136.765C136.501 151.756 132.893 159.72 127.393 160.336V167.816C133.025 167.772 137.733 164.032 140.769 157.476L148.161 167.64L154.057 163.284L143.321 149.116C143.849 146.256 144.157 143.088 144.245 139.7ZM179.001 133.1H169.497L171.521 157.08H176.977L179.001 133.1ZM174.249 160.292C171.565 160.292 169.585 162.272 169.585 164.956C169.585 167.64 171.565 169.576 174.249 169.576C176.933 169.576 178.913 167.64 178.913 164.956C178.913 162.272 176.933 160.292 174.249 160.292Z" fill="white"/>
</svg>
