<svg width="300" height="240" viewBox="0 0 300 240" fill="none" xmlns="http://www.w3.org/2000/svg">
<g clip-path="url(#clip0)">
<path d="M199.343 22.9101C198.675 22.6699 197.944 22.5854 197.231 22.6388C196.188 22.7144 195.168 23.0569 194.237 23.524C194.201 23.5418 194.161 23.564 194.125 23.5818C194.005 23.6441 193.88 23.7063 193.755 23.7775L187.347 20.0588C187.396 20.0322 187.445 20.0055 187.49 19.9788C187.566 19.9387 187.641 19.8987 187.713 19.8631C187.748 19.8453 187.789 19.8231 187.824 19.8053C187.833 19.8009 187.846 19.792 187.855 19.7875C189.442 19.0046 191.487 18.5554 193.172 19.2893C193.207 19.3071 193.247 19.3205 193.283 19.3382C193.399 19.3916 193.51 19.4494 193.617 19.5117C195.101 20.3702 196.581 21.2332 198.065 22.0917C198.72 22.4697 199.375 22.8523 200.03 23.2304C199.811 23.1014 199.58 22.9946 199.343 22.9101Z" fill="#C9DAFC"/>
<path d="M176.118 17.7681C176.318 17.6524 176.554 17.559 176.724 17.4656C177.04 17.301 177.365 17.1409 177.695 16.9985C178.35 16.7094 179.032 16.4736 179.732 16.318C181.211 15.9888 182.86 16.0244 184.25 16.6783C184.268 16.6872 184.29 16.6961 184.308 16.705C184.437 16.7672 184.562 16.834 184.687 16.9051L191.095 20.6238C189.896 19.9299 188.452 19.7253 187.089 19.8765C185.783 20.0233 184.509 20.4725 183.341 21.0641C183.279 21.0953 183.212 21.1309 183.15 21.1665C182.976 21.2599 182.802 21.3533 182.628 21.4511C182.481 21.5357 182.339 21.6246 182.192 21.7136C180.997 21.0197 179.807 20.3302 178.613 19.6363C178.021 19.2893 177.423 18.9468 176.831 18.5999C176.519 18.4175 176.069 18.2485 175.819 17.9949C175.89 17.9104 175.997 17.8348 176.118 17.7681Z" fill="#C9DAFC"/>
<path d="M170.031 18.769C166.889 20.7751 164.402 23.6842 162.5 26.8691C161.925 27.8344 161.39 28.8263 160.931 29.8538C160.882 29.9606 160.833 30.0718 160.788 30.1785L154.38 26.4599C154.416 26.3798 154.447 26.3042 154.483 26.2241C156.074 22.6345 158.436 19.2227 161.435 16.6695C162.348 15.891 163.333 15.1882 164.376 14.5922C165.565 13.9116 166.844 13.3556 168.199 13.1198C169.594 12.8752 171.091 12.9731 172.375 13.5958C172.504 13.6581 172.633 13.7248 172.753 13.796C174.892 15.037 177.027 16.278 179.166 17.5146C177.896 16.7851 176.363 16.5894 174.915 16.7896C173.466 16.9897 172.089 17.568 170.815 18.2931C170.547 18.4487 170.289 18.6089 170.031 18.769Z" fill="#B8BCFC"/>
<path d="M129.983 63.0729C130.014 62.2144 130.134 61.3737 130.295 60.6042C131.329 55.6623 134.443 50.5869 138.873 47.9848C138.904 47.967 138.931 47.9492 138.962 47.9314L139.35 47.709L145.758 51.4276L145.37 51.6501C140.874 55.1374 137.139 60.3017 136.502 65.8575C136.351 67.1741 136.524 68.4774 136.89 69.7496C137.255 71.0218 137.812 72.1427 138.9 72.89C136.77 71.8135 134.684 70.4569 132.603 69.247C132.509 69.1936 132.425 69.1358 132.336 69.0779C132.309 69.0601 132.282 69.0423 132.26 69.0245C132.197 68.9801 132.135 68.9311 132.077 68.8867C132.05 68.8644 132.024 68.8466 131.997 68.8244C131.926 68.7666 131.859 68.7043 131.787 68.6376C130.317 67.2408 129.907 65.1146 129.983 63.0729Z" fill="#B8BCFC"/>
<path d="M156.47 32.5317C153.904 34.2932 152.362 36.6863 150.74 39.1594C149.492 41.0588 147.812 42.9359 147.077 45.0844C146.707 46.1608 146.404 47.2595 146.159 48.3671C146.038 48.9232 146.248 49.5281 146.159 50.0886C146.136 50.2309 146.243 51.2629 145.753 51.4275L139.345 47.7088C139.35 47.5398 139.359 47.3663 139.372 47.1973C139.376 47.1617 139.376 47.1261 139.381 47.0905C139.385 47.0149 139.394 46.9393 139.399 46.8637C139.751 42.5801 141.613 38.1497 144.055 34.6268C146.444 31.1839 150.196 27.5453 154.38 26.46L160.788 30.1786C160.659 30.2142 160.53 30.2498 160.396 30.2898C160.378 30.2943 160.356 30.3032 160.334 30.3076C160.209 30.3476 160.08 30.3877 159.951 30.4322C159.902 30.45 159.853 30.4678 159.799 30.4855C158.632 30.9126 157.531 31.8022 156.47 32.5317Z" fill="#C9DAFC"/>
<path d="M170.695 18.342C166.55 20.7306 162.905 25.2677 160.788 30.1785C159.777 30.4409 158.707 30.8813 157.607 31.5174C151.208 35.2049 146.003 44.0078 145.753 51.4273L145.366 51.6497C140.383 54.5188 136.36 61.4802 136.377 67.1916C136.395 72.903 140.446 75.2072 145.423 72.3381L193.662 44.5371C198.644 41.6681 202.668 34.7067 202.65 28.9953C202.632 23.3372 198.662 21.0242 193.746 23.7687C192.009 19.6586 187.677 18.5288 182.619 21.4423C182.472 21.5268 182.33 21.6158 182.183 21.7048C180.774 16.7673 176.158 15.1971 170.695 18.342Z" fill="white"/>
<path d="M238.407 40.4048L233.523 37.598L233.514 37.6024C231.932 36.6194 229.851 36.437 228.001 37.5001L67.8946 129.679C64.3475 131.721 62.1595 135.502 62.1595 139.594V219.563C62.1595 220.991 62.9616 222.134 64.0667 222.721V222.726L68.9819 225.555L69.7618 223.513L68.3447 222.197L232.186 127.864C234.57 126.49 236.04 123.95 236.04 121.206V42.1351C236.04 42.0595 236.027 41.9883 236.027 41.9127L238.407 40.4048Z" fill="#C9DAFC"/>
<path d="M80.2962 144.336L63.327 134.563C64.3118 132.553 65.8849 130.836 67.8946 129.679L69.7841 128.594L80.2873 134.657L80.2962 144.336Z" fill="#B8BCFC"/>
<path d="M62.1773 139.029L69.8152 143.437V221.356L68.3447 222.201L69.7618 223.518L68.9819 225.559L64.0667 222.73V222.726C62.9616 222.139 62.1595 220.995 62.1595 219.568V139.594C62.1595 139.403 62.1684 139.216 62.1773 139.029Z" fill="#B8BCFC"/>
<path d="M232.961 40.3516L72.8543 132.531C69.3027 134.572 67.1192 138.353 67.1192 142.446V222.415C67.1192 225.173 70.1093 226.894 72.4978 225.515L237.145 130.72C239.529 129.346 241 126.81 241 124.061V44.9866C241 40.8676 236.535 38.2921 232.961 40.3516Z" fill="#258BE0"/>
<path d="M182.472 132.851V148.535C182.472 149.887 183.938 150.728 185.11 150.056L227.636 125.502C228.639 124.924 229.258 123.856 229.258 122.695V105.761C229.258 104.596 227.992 103.866 226.981 104.449L184.825 128.789C183.368 129.626 182.472 131.174 182.472 132.851ZM225.782 110.65L214.664 117.077V115.832L225.782 109.404V110.65ZM225.782 113.065L203.474 125.96V124.715L225.782 111.82V113.065ZM225.782 117.954L214.664 124.381V123.136L225.782 116.708V117.954ZM225.782 120.369L203.474 133.264V132.019L225.782 119.124V120.369ZM185.944 144.571L225.782 121.543V122.789L185.944 145.817V144.571ZM185.944 142.156L202.097 132.819V134.065L185.944 143.402V142.156ZM185.944 139.736L213.287 123.932V125.177L185.944 140.982V139.736ZM185.944 137.263L225.782 114.235V115.48L185.944 138.509V137.263ZM185.944 134.848L202.097 125.511V126.757L185.944 136.093V134.848ZM185.944 132.432L213.287 116.628V117.874L185.944 133.678V132.432Z" fill="white"/>
<path d="M182.472 108.519V124.204C182.472 125.556 183.938 126.397 185.11 125.725L227.636 101.171C228.639 100.593 229.258 99.5253 229.258 98.3644V81.4302C229.258 80.2648 227.992 79.5353 226.981 80.118L184.825 104.458C183.368 105.295 182.472 106.843 182.472 108.519ZM225.782 86.3187L214.664 92.7463V91.5008L225.782 85.0733V86.3187ZM225.782 88.7341L203.474 101.629V100.384L225.782 87.4886V88.7341ZM225.782 93.6226L214.664 100.05V98.8047L225.782 92.3771V93.6226ZM225.782 96.038L203.474 108.933V107.688L225.782 94.7925V96.038ZM185.944 120.24L225.782 97.2123V98.4578L185.944 121.486V120.24ZM185.944 117.825L202.097 108.488V109.734L185.944 119.071V117.825ZM185.944 115.41L213.287 99.6054V100.851L185.944 116.655V115.41ZM185.944 112.932L225.782 89.904V91.1494L185.944 114.178V112.932ZM185.944 110.517L202.097 101.18V102.426L185.944 111.762V110.517ZM185.944 108.101L213.287 92.2971V93.5426L185.944 109.347V108.101Z" fill="white"/>
<path d="M182.472 84.1884V99.8682C182.472 101.22 183.938 102.061 185.11 101.389L227.636 76.8356C228.639 76.2574 229.258 75.1898 229.258 74.0288V57.0992C229.258 55.9337 227.992 55.2042 226.981 55.787L184.825 80.1273C183.368 80.9635 182.472 82.5115 182.472 84.1884ZM225.782 61.9877L214.664 68.4153V67.1698L225.782 60.7422V61.9877ZM225.782 64.403L203.474 77.2982V76.0528L225.782 63.1576V64.403ZM225.782 69.2916L214.664 75.7191V74.4737L225.782 68.0461V69.2916ZM225.782 71.7069L203.474 84.6021V83.3566L225.782 70.4614V71.7069ZM185.944 95.9093L225.782 72.8812V74.1267L185.944 97.1548V95.9093ZM185.944 93.494L202.097 84.1573V85.4028L185.944 94.7395V93.494ZM185.944 91.0786L213.287 75.2743V76.5198L185.944 92.3241V91.0786ZM185.944 88.601L225.782 65.5729V66.8184L185.944 89.8465V88.601ZM185.944 86.1857L202.097 76.849V78.0945L185.944 87.4312V86.1857ZM185.944 83.7703L213.287 67.966V69.2115L185.944 85.0158V83.7703Z" fill="white"/>
<path d="M132.064 161.933V177.617C132.064 178.969 133.53 179.81 134.702 179.138L177.227 154.584C178.23 154.006 178.849 152.938 178.849 151.777V134.843C178.849 133.678 177.584 132.948 176.572 133.531L134.417 157.871C132.964 158.708 132.064 160.256 132.064 161.933ZM175.378 139.732L164.26 146.159V144.914L175.378 138.486V139.732ZM175.378 142.147L153.07 155.042V153.797L175.378 140.902V142.147ZM175.378 147.036L164.26 153.463V152.218L175.378 145.79V147.036ZM175.378 149.451L153.07 162.346V161.101L175.378 148.206V149.451ZM135.54 173.653L175.378 150.625V151.871L135.54 174.899V173.653ZM135.54 171.238L151.689 161.901V163.147L135.535 172.484V171.238H135.54ZM135.54 168.823L162.883 153.018V154.264L135.54 170.068V168.823ZM135.54 166.345L175.378 143.317V144.563L135.54 167.591V166.345ZM135.54 163.93L151.689 154.593V155.839L135.535 165.175V163.93H135.54ZM135.54 161.514L162.883 145.71V146.956L135.54 162.76V161.514Z" fill="white"/>
<path d="M132.064 137.601V153.281C132.064 154.633 133.53 155.474 134.702 154.802L177.227 130.248C178.23 129.67 178.849 128.602 178.849 127.441V110.507C178.849 109.342 177.584 108.612 176.572 109.195L134.417 133.535C132.964 134.376 132.064 135.924 132.064 137.601ZM175.378 115.4L164.26 121.828V120.582L175.378 114.155V115.4ZM175.378 117.816L153.07 130.711V129.465L175.378 116.57V117.816ZM175.378 122.704L164.26 129.132V127.886L175.378 121.459V122.704ZM175.378 125.12L153.07 138.015V136.769L175.378 123.874V125.12ZM135.54 149.322L175.378 126.294V127.539L135.54 150.567V149.322ZM135.54 146.907L151.689 137.57V138.815L135.535 148.152V146.907H135.54ZM135.54 144.491L162.883 128.687V129.932L135.54 145.737V144.491ZM135.54 142.014L175.378 118.986V120.231L135.54 143.259V142.014ZM135.54 139.598L151.689 130.262V131.507L135.535 140.844V139.598H135.54ZM135.54 137.183L162.883 121.379V122.624L135.54 138.428V137.183Z" fill="white"/>
<path d="M132.064 113.27V128.95C132.064 130.302 133.53 131.143 134.702 130.471L177.227 105.917C178.23 105.339 178.849 104.271 178.849 103.11V86.1763C178.849 85.0109 177.584 84.2814 176.572 84.8641L134.417 109.204C132.964 110.045 132.064 111.593 132.064 113.27ZM175.378 91.0693L164.26 97.4969V96.2514L175.378 89.8238V91.0693ZM175.378 93.4846L153.07 106.38V105.134L175.378 92.2391V93.4846ZM175.378 98.3731L164.26 104.801V103.555L175.378 97.1277V98.3731ZM175.378 100.788L153.07 113.684V112.438L175.378 99.543V100.788ZM135.54 124.991L175.378 101.963V103.208L135.54 126.236V124.991ZM135.54 122.576L151.689 113.239V114.484L135.535 123.821V122.576H135.54ZM135.54 120.16L162.883 104.356V105.601L135.54 121.406V120.16ZM135.54 117.683L175.378 94.6545V95.9L135.54 118.928V117.683ZM135.54 115.267L151.689 105.931V107.176L135.535 116.513V115.267H135.54ZM135.54 112.852L162.883 97.0476V98.2931L135.54 114.097V112.852Z" fill="white"/>
<path d="M235.63 39.626C234.739 39.626 233.821 39.8528 232.961 40.351L72.8543 132.53C69.3072 134.572 67.1192 138.353 67.1192 142.445V222.414C67.1192 224.505 68.8393 225.999 70.7109 225.999C71.308 225.999 71.9185 225.848 72.4978 225.514L237.145 130.72C239.529 129.345 241 126.81 241 124.061V44.986C241 41.8634 238.429 39.626 235.63 39.626ZM236.321 124.061C236.321 125.137 235.742 126.138 234.81 126.676L71.7982 220.524V142.445C71.7982 140.034 73.0994 137.783 75.1938 136.578L235.301 44.3988C235.416 44.3321 235.523 44.301 235.635 44.301C235.849 44.301 236.325 44.4745 236.325 44.9905V124.061H236.321Z" fill="white"/>
<path d="M124.114 149.372L113.308 145.386L102.497 141.405L91.7441 157.81L80.9958 174.224L86.517 171.039L86.5749 192.088L98.2725 185.349L98.219 166.964L106.904 161.96L106.958 180.344L118.651 173.605L118.593 152.552L124.114 149.372Z" fill="white"/>
<path d="M64.8153 51.5338L104.631 28.5947C105.741 27.9542 106.984 28.0298 107.965 28.5725L108 28.5947C108.005 28.5991 108.009 28.5991 108.014 28.6036L112.804 31.3792L108.143 48.0242V79.8997C108.143 83.8853 106.013 87.5728 102.55 89.5656L68.7814 109.022L66.932 114.017L62.0971 111.219C60.2923 110.205 59 108.292 59 105.93V61.5867C59 57.441 61.2147 53.6067 64.8153 51.5338Z" fill="#B8BCFC"/>
<path d="M63.6879 64.3086V108.652C63.6879 113.327 68.7591 116.25 72.8142 113.91L108.789 93.1815C112.247 91.1888 114.382 87.5057 114.382 83.5157V34.2346C114.382 31.6413 111.57 30.0177 109.319 31.3166L69.4988 54.2557C65.9027 56.3286 63.6879 60.1629 63.6879 64.3086Z" fill="white"/>
<path d="M87.1052 56.711C90.5543 54.7226 94.0079 54.2467 96.646 55.7457C101.312 58.3968 101.873 66.3457 98.3259 74.4102L106.075 78.8183C106.583 79.1074 106.588 80.0549 106.08 80.9267L104.333 83.9426C104.079 84.3829 103.745 84.721 103.415 84.9123C103.081 85.1035 102.746 85.148 102.492 85.0057L94.7476 80.602C92.475 83.689 89.8324 86.0999 87.1899 87.6256C83.7408 89.614 80.2917 90.0899 77.6492 88.5909C72.3686 85.5884 72.3418 75.8024 77.5868 66.7327C80.2115 62.1955 83.6561 58.6993 87.1052 56.711ZM80.8666 83.0351C82.6134 84.0271 84.8994 83.7113 87.181 82.3991C89.4626 81.0824 91.7441 78.7694 93.4776 75.7669C96.949 69.7618 96.9311 63.2853 93.4375 61.297C91.6907 60.3051 89.4046 60.6209 87.1231 61.9375C84.8415 63.2542 82.5599 65.5672 80.8264 68.5653C77.3506 74.5703 77.3684 81.0468 80.8666 83.0351Z" fill="url(#paint0_linear)"/>
</g>
<defs>
<linearGradient id="paint0_linear" x1="106.46" y1="72.1673" x2="73.6741" y2="72.1673" gradientUnits="userSpaceOnUse">
<stop stop-color="#52AFE7"/>
<stop offset="1" stop-color="#2C78E7"/>
</linearGradient>
<clipPath id="clip0">
<rect width="182" height="213" fill="white" transform="translate(59 13)"/>
</clipPath>
</defs>
</svg>
