<svg width="300" height="240" viewBox="0 0 300 240" fill="none" xmlns="http://www.w3.org/2000/svg">
<path d="M141.151 176.821V193.667L17 121.77V105.031L141.151 176.821Z" fill="#C9DAFC"/>
<path d="M17 105.031L141.151 176.821L267.01 104.14L142.974 32.2891L17 105.031Z" fill="white"/>
<path d="M141.151 176.821V193.667L267.01 120.986V104.14L141.151 176.821Z" fill="#B8BCFC"/>
<path d="M142.813 43.5195L37.8074 104.154L141.294 163.99L246.203 103.409L142.813 43.5195Z" fill="#ADD036"/>
<path d="M142.813 47.0519L243.15 105.17L246.203 103.409L142.813 43.5195L37.8074 104.154L40.8636 105.922L142.813 47.0519Z" fill="#B8BCFC"/>
<path d="M183.681 92.0499L212.581 75.2217V95.4463L183.681 112.156V92.0499Z" fill="#E9B486"/>
<path d="M170.905 50.9453L212.588 75.2284L183.688 92.0566L141.905 67.7126L170.905 50.9453Z" fill="#FCD9BB"/>
<path d="M141.901 67.7129L183.688 92.0568L183.681 112.156L141.901 87.9339V67.7129Z" fill="#F4C698"/>
<path d="M186.086 109.557L209.324 96.1289L210.357 96.7302L186.086 110.763V109.557Z" fill="#A7C8C9"/>
<path d="M209.324 96.129V81.4375L186.086 94.8335V109.557L209.324 96.129Z" fill="#415393"/>
<path d="M210.357 80.8398V96.7303L209.324 96.1291V81.4375L210.357 80.8398Z" fill="#F4C698"/>
<path d="M177.461 63.1711L177.457 112.607L125.337 82.526V33.0293L177.461 63.1711Z" fill="#4E5EA6"/>
<path d="M177.461 63.1712V112.607L180.921 110.553V61.1455L177.461 63.1712Z" fill="#415393"/>
<path d="M135.249 84.5661L135.253 127.861L169.561 108.026V64.499L135.249 84.5661Z" fill="#B8BCFC"/>
<path d="M155.367 98.9711V116.197L168.753 108.48V91.2549L155.367 98.9711Z" fill="#524556"/>
<path d="M167.956 91.7166V108.019L168.753 108.477V91.2549L167.956 91.7166Z" fill="#C9DAFC"/>
<path d="M167.956 108.022L155.367 115.205V116.218L168.753 108.484L167.956 108.022Z" fill="white"/>
<path d="M167.71 108.603L167.334 108.381V92.0787L167.71 91.8604V108.603Z" fill="white"/>
<path d="M167.71 108.61V91.8602L168.342 91.4951V108.245L167.71 108.61Z" fill="#C9DAFC"/>
<path d="M155.367 115.724V98.9744L155.999 98.6094V115.359L155.367 115.724Z" fill="#C9DAFC"/>
<path d="M155.367 99.6193V98.9715L168.342 91.4951L168.332 92.1859L155.367 99.6193Z" fill="#C9DAFC"/>
<path d="M155.999 114.754V114.346L167.334 107.825L167.71 108.004L155.999 114.754Z" fill="white"/>
<path d="M162.23 111.641L161.915 111.458V97.9081L162.23 97.7256V111.641Z" fill="white"/>
<path d="M162.23 111.644V97.7251L162.755 97.4209V111.343L162.23 111.644Z" fill="#C9DAFC"/>
<path d="M161.611 112.002L161.297 111.819V98.2694L161.611 98.0869V112.002Z" fill="white"/>
<path d="M161.611 112.009V98.0868L162.133 97.7861V111.705L161.611 112.009Z" fill="#C9DAFC"/>
<path d="M155.367 102.006V101.437L168.342 93.9609L168.332 94.5729L155.367 102.006Z" fill="#C9DAFC"/>
<path d="M155.999 101.075V100.667L167.334 94.1465L167.71 94.3218L155.999 101.075Z" fill="white"/>
<path d="M155.367 115.688V115.119L168.342 107.639L168.332 108.251L155.367 115.688Z" fill="#C9DAFC"/>
<path d="M125.873 93.2949V146.51L68.3053 113.244V59.9678L125.873 93.2949Z" fill="#F4C698"/>
<path d="M125.873 93.2946V146.51L160.185 126.675V73.2275L125.873 93.2946Z" fill="#E9B486"/>
<path d="M160.185 73.428L102.621 40.126L68.3053 59.9927L125.87 93.2911L160.185 73.428Z" fill="#FCD9BB"/>
<path d="M180.921 61.1454L177.461 63.1711L125.337 33.0293L128.794 31L180.921 61.1454Z" fill="#5E71B5"/>
<path d="M169.561 64.4989L158.384 71.0341L114.149 45.4733L125.326 38.9346L169.561 64.4989Z" fill="white"/>
<path d="M120.158 142.34V121.045L72.9236 93.8633V115.018L120.158 142.34Z" fill="#5F5363"/>
<path d="M120.158 141.618V142.115L72.5733 114.611L73.0022 114.36L120.158 141.618Z" fill="white"/>
<path d="M72.1479 115.466L72.9236 115.019V93.8637L72.1479 93.4199V115.466Z" fill="#E9B486"/>
<path d="M120.158 142.341V143.239L72.1479 115.467L72.9236 115.02L120.158 142.341Z" fill="#D8C1AE"/>
<path d="M73.1488 115.542L73.4884 115.341V94.1897L73.1488 93.9893V115.542Z" fill="white"/>
<path d="M120.158 124.463V124.957L72.5733 97.4566L73.0022 97.2061L120.158 124.463Z" fill="#E6E6E6"/>
<path d="M73.1488 115.548V93.9888L72.5733 93.6631V115.215L73.1488 115.548Z" fill="#B8BCFC"/>
<path d="M81.5025 120.373L81.8457 120.172V99.0172L81.5025 98.8203V120.373Z" fill="white"/>
<path d="M81.5025 120.376V98.8205L80.9306 98.4912V120.047L81.5025 120.376Z" fill="#B8BCFC"/>
<path d="M89.8597 125.201L90.2029 125V103.849L89.8597 103.648V125.201Z" fill="white"/>
<path d="M89.8597 125.208V103.649L89.2878 103.323V124.876L89.8597 125.208Z" fill="#B8BCFC"/>
<path d="M98.2171 130.033L98.5602 129.832V108.677L98.2171 108.48V130.033Z" fill="white"/>
<path d="M98.2171 130.036V108.48L97.6451 108.15V129.706L98.2171 130.036Z" fill="#B8BCFC"/>
<path d="M106.574 134.86L106.917 134.66V113.508L106.574 113.312V134.86Z" fill="white"/>
<path d="M106.574 134.868V113.312L105.999 112.982V134.535L106.574 134.868Z" fill="#B8BCFC"/>
<path d="M120.158 125.573V124.958L72.5733 97.457L72.5769 98.0655L120.158 125.573Z" fill="white"/>
<path d="M120.158 142.726V142.114L72.5733 114.61L72.5769 115.219L120.158 142.726Z" fill="#B8BCFC"/>
<path d="M120.158 121.536V121.046L72.5733 93.6631L72.5769 94.0281L120.158 121.536Z" fill="white"/>
<path d="M50.9366 93.4419L68.3053 83.3887L125.873 116.551L160.185 96.663L167.449 100.883L115.764 130.835L50.9366 93.4419Z" fill="#5E71B5"/>
<path d="M115.764 130.835V132.818L50.9366 95.4287V93.4424L115.764 130.835Z" fill="#4E5EA6"/>
<path d="M167.449 100.883V102.866L115.764 132.818V130.835L167.449 100.883Z" fill="#415393"/>
<path d="M129.938 111.816V93.5203L156.475 78.2275V96.3799L129.938 111.816Z" fill="#524556"/>
<path d="M156.475 78.2275L156.06 78.4673V96.6233L156.475 96.3799V78.2275Z" fill="#F4C698"/>
<path d="M156.085 96.1504L156.514 96.4009L129.938 111.815V111.268L156.085 96.1504Z" fill="#FCD9BB"/>
<path d="M147.353 101.573L147.031 101.387V83.6708L147.353 83.4883V101.573Z" fill="#B8BCFC"/>
<path d="M147.353 101.573V83.4885L147.885 83.1807V101.261L147.353 101.573Z" fill="#C9DAFC"/>
<path d="M138.845 106.491L138.527 106.305V88.5709L138.845 88.3848V106.491Z" fill="#B8BCFC"/>
<path d="M138.845 106.491V88.3849L139.381 88.0771V106.179L138.845 106.491Z" fill="#C9DAFC"/>
<path d="M147.031 83.6709V101.387L139.381 105.81V88.0766L147.031 83.6709Z" fill="#C9DAFC"/>
<path d="M147.031 84.9521V85.5248L139.381 89.9483V89.3578L147.031 84.9521Z" fill="#B8BCFC"/>
<path d="M147.031 86.7598V87.3324L139.381 91.756V91.1654L147.031 86.7598Z" fill="#B8BCFC"/>
<path d="M147.031 88.5674V89.14L139.381 93.5636V92.9731L147.031 88.5674Z" fill="#B8BCFC"/>
<path d="M147.031 90.374V90.9467L139.381 95.3702V94.7797L147.031 90.374Z" fill="#B8BCFC"/>
<path d="M147.031 92.1816V92.7543L139.381 97.1778V96.5873L147.031 92.1816Z" fill="#B8BCFC"/>
<path d="M147.031 93.9854V94.5616L139.381 98.9851V98.391L147.031 93.9854Z" fill="#B8BCFC"/>
<path d="M147.031 95.793V96.3656L139.381 100.789V100.199L147.031 95.793Z" fill="#B8BCFC"/>
<path d="M147.031 97.6006V98.1732L139.381 102.597V102.006L147.031 97.6006Z" fill="#B8BCFC"/>
<path d="M147.031 99.4082V99.9808L139.381 104.404V103.814L147.031 99.4082Z" fill="#B8BCFC"/>
<path d="M166.82 87.3359V70.225L168.753 69.1191V86.2157L166.82 87.3359Z" fill="#524556"/>
<path d="M168.753 69.1191L168.267 69.3983V85.9437L168.753 86.2157V69.1191Z" fill="#C9DAFC"/>
<path d="M168.267 85.9443L166.82 86.7639V87.3365L168.753 86.2163L168.267 85.9443Z" fill="white"/>
<path d="M162.491 89.6982V72.5873L164.425 71.4814V88.578L162.491 89.6982Z" fill="#524556"/>
<path d="M164.425 71.4814L163.938 71.7606V88.306L164.425 88.578V71.4814Z" fill="#C9DAFC"/>
<path d="M163.938 88.3066L162.491 89.1262V89.6988L164.425 88.5786L163.938 88.3066Z" fill="white"/>
<path d="M85.5918 89.8955L89.5345 92.0822V93.1631L84.7267 90.393L85.5918 89.8955Z" fill="#FCD9BB"/>
<path d="M85.5918 72.5483V89.8954L84.7267 90.3964V72.0508L85.5918 72.5483Z" fill="#E9B486"/>
<path d="M89.5345 92.6155V74.8246L85.1915 72.3193V90.1281L89.5345 92.6155Z" fill="#5F5363"/>
<path d="M85.7133 90.4292L85.9099 90.3147V72.7385L85.7133 72.624V90.4292Z" fill="white"/>
<path d="M85.7133 90.4288V72.6235L85.1915 72.3193V90.1281L85.7133 90.4288Z" fill="#C9DAFC"/>
<path d="M85.7133 89.8385L89.5345 91.9823V91.764L85.9099 89.749L85.7133 89.8385Z" fill="white"/>
<path d="M85.1915 89.541L89.5345 91.9818V92.6153L85.1915 90.128V89.541Z" fill="#C9DAFC"/>
<path d="M85.1915 72.3193L89.5345 74.8103V75.3937L85.1915 72.9063V72.3193Z" fill="#C9DAFC"/>
<path d="M89.5345 92.6153V74.8101L89.0126 74.5596V92.3183L89.5345 92.6153Z" fill="#C9DAFC"/>
<path d="M79.1791 86.2734L83.1218 88.4602V89.541L78.314 86.7745L79.1791 86.2734Z" fill="#FCD9BB"/>
<path d="M79.1791 68.9298V86.2733L78.314 86.7743V68.4287L79.1791 68.9298Z" fill="#E9B486"/>
<path d="M83.1218 88.9934V71.2025L78.7787 68.6973V86.5061L83.1218 88.9934Z" fill="#5F5363"/>
<path d="M79.3006 86.8072L79.4972 86.6927V69.1165L79.3006 69.002V86.8072Z" fill="white"/>
<path d="M79.3006 86.8067V69.0015L78.7787 68.6973V86.5061L79.3006 86.8067Z" fill="#C9DAFC"/>
<path d="M79.3006 86.2158L83.1218 88.3596V88.1413L79.4972 86.1299L79.3006 86.2158Z" fill="white"/>
<path d="M78.7787 85.9229L83.1218 88.3601V88.9936L78.7787 86.5062V85.9229Z" fill="#C9DAFC"/>
<path d="M78.7787 68.6973L83.1218 71.1882V71.7716L78.7787 69.2842V68.6973Z" fill="#C9DAFC"/>
<path d="M83.1218 88.9933V71.188L82.5999 70.9375V88.6962L83.1218 88.9933Z" fill="#C9DAFC"/>
<path d="M72.7878 82.6982L76.7341 84.885V85.9658L71.9263 83.1957L72.7878 82.6982Z" fill="#FCD9BB"/>
<path d="M72.7878 65.351V82.6981L71.9263 83.1992V64.8535L72.7878 65.351Z" fill="#E9B486"/>
<path d="M76.7341 85.4182V67.6273L72.3911 65.1221V82.9309L76.7341 85.4182Z" fill="#5F5363"/>
<path d="M72.9094 83.232L73.1095 83.1139V65.5413L72.9094 65.4268V83.232Z" fill="white"/>
<path d="M72.9094 83.2315V65.4263L72.3911 65.1221V82.9309L72.9094 83.2315Z" fill="#C9DAFC"/>
<path d="M72.9094 82.6412L76.7341 84.785V84.5667L73.1095 82.5518L72.9094 82.6412Z" fill="white"/>
<path d="M72.3911 82.3438L76.7341 84.7846V85.4181L72.3911 82.9307V82.3438Z" fill="#C9DAFC"/>
<path d="M72.3911 65.1221L76.7341 67.613V68.1964L72.3911 65.709V65.1221Z" fill="#C9DAFC"/>
<path d="M76.7341 85.4181V67.6128L76.2122 67.3623V85.121L76.7341 85.4181Z" fill="#C9DAFC"/>
<path d="M116.78 108.029L120.726 110.22V111.3L115.918 108.53L116.78 108.029Z" fill="#FCD9BB"/>
<path d="M116.78 90.6859V108.033L115.918 108.531V90.1885L116.78 90.6859Z" fill="#E9B486"/>
<path d="M120.726 110.753V92.9623L116.383 90.457V108.262L120.726 110.753Z" fill="#5F5363"/>
<path d="M116.901 108.563L117.101 108.449V90.8762L116.901 90.7617V108.563Z" fill="white"/>
<path d="M116.901 108.563V90.7577L116.383 90.457V108.266L116.901 108.563Z" fill="#C9DAFC"/>
<path d="M116.901 107.976L120.726 110.116V109.902L117.101 107.887L116.901 107.976Z" fill="white"/>
<path d="M116.383 107.679L120.726 110.116V110.753L116.383 108.266V107.679Z" fill="#C9DAFC"/>
<path d="M116.383 90.457L120.726 92.948V93.5313L116.383 91.044V90.457Z" fill="#C9DAFC"/>
<path d="M120.726 110.753V92.9478L120.204 92.6973V110.452L120.726 110.753Z" fill="#C9DAFC"/>
<path d="M110.37 104.411L114.313 106.598V107.679L109.505 104.909L110.37 104.411Z" fill="#FCD9BB"/>
<path d="M110.37 87.0639V104.411L109.505 104.908V86.5664L110.37 87.0639Z" fill="#E9B486"/>
<path d="M114.313 107.131V89.3402L109.97 86.835V104.644L114.313 107.131Z" fill="#5F5363"/>
<path d="M110.492 104.941L110.689 104.827V87.2542L110.492 87.1396V104.941Z" fill="white"/>
<path d="M110.492 104.941V87.1356L109.97 86.835V104.644L110.492 104.941Z" fill="#C9DAFC"/>
<path d="M110.492 104.354L114.313 106.498V106.28L110.689 104.265L110.492 104.354Z" fill="white"/>
<path d="M109.97 104.057L114.313 106.497V107.131L109.97 104.644V104.057Z" fill="#C9DAFC"/>
<path d="M109.97 86.835L114.313 89.3259V89.9093L109.97 87.4219V86.835Z" fill="#C9DAFC"/>
<path d="M114.313 107.131V89.3257L113.791 89.0752V106.834L114.313 107.131Z" fill="#C9DAFC"/>
<path d="M103.979 100.832L107.925 103.022V104.103L103.114 101.333L103.979 100.832Z" fill="#FCD9BB"/>
<path d="M103.979 83.4887V100.836L103.114 101.333V82.9912L103.979 83.4887Z" fill="#E9B486"/>
<path d="M107.925 103.556V85.7614L103.579 83.2598V101.065L107.925 103.556Z" fill="#5F5363"/>
<path d="M104.101 101.366L104.297 101.251V83.6751L104.101 83.5605V101.366Z" fill="white"/>
<path d="M104.101 101.366V83.5604L103.579 83.2598V101.069L104.101 101.366Z" fill="#C9DAFC"/>
<path d="M104.101 100.779L107.925 102.919V102.701L104.297 100.689L104.101 100.779Z" fill="white"/>
<path d="M103.579 100.481L107.925 102.919V103.556L103.579 101.068V100.481Z" fill="#C9DAFC"/>
<path d="M103.579 83.2598L107.925 85.7507V86.3341L103.579 83.8467V83.2598Z" fill="#C9DAFC"/>
<path d="M107.925 103.556V85.7505L107.404 85.5V103.255L107.925 103.556Z" fill="#C9DAFC"/>
<path d="M129.959 127.177V143.761L156.142 128.601V112.002L129.959 127.177Z" fill="#524556"/>
<path d="M155.932 129.106L155.606 128.913V112.314L155.932 112.124V129.106Z" fill="white"/>
<path d="M155.932 129.109V112.124L156.475 111.809V128.794L155.932 129.109Z" fill="#C9DAFC"/>
<path d="M129.959 143.593V143.246L155.606 128.437L155.932 128.576L129.959 143.593Z" fill="white"/>
<path d="M150.034 132.527L149.708 132.338V115.735L150.034 115.549V132.527Z" fill="white"/>
<path d="M150.034 132.535V115.549L150.58 115.23V132.22L150.034 132.535Z" fill="#C9DAFC"/>
<path d="M129.959 144.145V143.593L155.932 128.576V129.106L129.959 144.145Z" fill="#C9DAFC"/>
<path d="M129.959 127.789V127.177L156.121 112.013L156.285 112.532L129.959 127.789Z" fill="#C9DAFC"/>
<path d="M160.185 69.7887L102.621 36.4902L68.3053 56.3569L125.87 89.6554L160.185 69.7887Z" fill="#5E71B5"/>
<path d="M125.87 89.6598V91.6425L68.3053 58.3441V56.3613L125.87 89.6598Z" fill="#4E5EA6"/>
<path d="M160.185 69.792V71.7747L125.87 91.6414V89.6587L160.185 69.792Z" fill="#415393"/>
<path d="M155.095 69.7986L135.507 81.1081L125.727 75.4677L145.315 64.1582L155.095 69.7986Z" fill="#0099CE"/>
<path d="M125.727 75.4678V76.1227L135.507 81.7667V81.1082L125.727 75.4678Z" fill="#E0E4E4"/>
<path d="M155.095 70.4538V69.7988L135.507 81.1083V81.7668L155.095 70.4538Z" fill="#F1F1F1"/>
<path d="M125.727 75.4677L135.507 81.1081L155.095 69.7986L145.315 64.1582L125.727 75.4677ZM135.507 80.7752L126.306 75.4677L145.315 64.491L154.516 69.7986L135.507 80.7752Z" fill="#F1F1F1"/>
<path d="M147.428 65.5254L128 76.7561L128.279 76.9136L147.685 65.6721L147.428 65.5254Z" fill="#F1F1F1"/>
<path d="M149.726 66.7773L130.302 78.0081L130.581 78.1655L149.983 66.9241L149.726 66.7773Z" fill="#F1F1F1"/>
<path d="M142.548 65.7939L152.232 71.3878L152.092 71.4701L142.423 65.8655L142.548 65.7939Z" fill="#F1F1F1"/>
<path d="M139.882 67.333L149.562 72.9305L149.422 73.0092L139.753 67.4046L139.882 67.333Z" fill="#F1F1F1"/>
<path d="M137.212 68.8721L146.895 74.4695L146.756 74.5483L137.087 68.9472L137.212 68.8721Z" fill="#F1F1F1"/>
<path d="M134.545 70.4111L144.225 76.0086L144.089 76.0873L134.416 70.4863L134.545 70.4111Z" fill="#F1F1F1"/>
<path d="M131.878 71.9502L141.558 77.5477L141.419 77.6264L131.75 72.0254L131.878 71.9502Z" fill="#F1F1F1"/>
<path d="M129.208 73.4883L138.892 79.0857L138.752 79.1681L129.08 73.5634L129.208 73.4883Z" fill="#F1F1F1"/>
<path d="M152.318 68.2988L132.894 79.5295L133.172 79.6906L152.575 68.4456L152.318 68.2988Z" fill="#F1F1F1"/>
<path d="M140.515 61.367L120.926 72.68L111.15 67.036L130.738 55.7266L140.515 61.367Z" fill="#0099CE"/>
<path d="M111.15 67.0361V67.6947L120.926 73.3351V72.6801L111.15 67.0361Z" fill="#E0E4E4"/>
<path d="M140.515 62.0221V61.3672L120.926 72.6802V73.3352L140.515 62.0221Z" fill="#F1F1F1"/>
<path d="M111.15 67.036L120.93 72.6764L140.518 61.367L130.738 55.7266L111.15 67.036ZM120.926 72.3436L111.725 67.036L130.735 56.0594L139.935 61.367L120.926 72.3436Z" fill="#F1F1F1"/>
<path d="M132.847 57.0938L113.423 68.3245L113.702 68.4855L133.105 57.2405L132.847 57.0938Z" fill="#F1F1F1"/>
<path d="M135.149 58.3457L115.722 69.5764L116 69.7375L135.403 58.4924L135.149 58.3457Z" fill="#F1F1F1"/>
<path d="M127.972 57.3623L137.651 62.9598L137.512 63.0385L127.843 57.4339L127.972 57.3623Z" fill="#F1F1F1"/>
<path d="M125.301 58.9014L134.985 64.4988L134.845 64.5776L125.176 58.9765L125.301 58.9014Z" fill="#F1F1F1"/>
<path d="M122.635 60.4404L132.315 66.0379L132.175 66.1166L122.506 60.5156L122.635 60.4404Z" fill="#F1F1F1"/>
<path d="M119.965 61.9795L129.648 67.577L129.509 67.6557L119.839 62.0546L119.965 61.9795Z" fill="#F1F1F1"/>
<path d="M117.298 63.5186L126.978 69.116L126.842 69.1983L117.169 63.5937L117.298 63.5186Z" fill="#F1F1F1"/>
<path d="M114.631 65.0605L124.311 70.6544L124.172 70.7367L114.503 65.1321L114.631 65.0605Z" fill="#F1F1F1"/>
<path d="M137.741 59.8672L118.313 71.0979L118.592 71.2589L137.994 60.0139L137.741 59.8672Z" fill="#F1F1F1"/>
<path d="M125.938 52.9353L106.349 64.2448L96.5692 58.6044L116.158 47.2949L125.938 52.9353Z" fill="#0099CE"/>
<path d="M96.5692 58.6045V59.2594L106.349 64.8998V64.2449L96.5692 58.6045Z" fill="#E0E4E4"/>
<path d="M125.938 53.5905V52.9355L106.349 64.245V64.8999L125.938 53.5905Z" fill="#F1F1F1"/>
<path d="M96.5692 58.6044L106.349 64.2448L125.938 52.9353L116.158 47.2949L96.5692 58.6044ZM106.349 63.9119L97.1483 58.6044L116.158 47.6278L125.359 52.9353L106.349 63.9119Z" fill="#F1F1F1"/>
<path d="M118.27 48.6592L98.8426 59.8899L99.1214 60.0509L118.524 48.8095L118.27 48.6592Z" fill="#F1F1F1"/>
<path d="M120.569 49.9111L101.145 61.1418L101.423 61.3029L120.826 50.0614L120.569 49.9111Z" fill="#F1F1F1"/>
<path d="M113.391 48.9277L123.074 54.5252L122.935 54.6039L113.266 49.0029L113.391 48.9277Z" fill="#F1F1F1"/>
<path d="M110.724 50.4658L120.404 56.0633L120.265 56.1456L110.596 50.541L110.724 50.4658Z" fill="#F1F1F1"/>
<path d="M108.054 52.0088L117.738 57.6027L117.598 57.685L107.929 52.0804L108.054 52.0088Z" fill="#F1F1F1"/>
<path d="M105.388 53.5479L115.067 59.1417L114.928 59.2241L105.259 53.6194L105.388 53.5479Z" fill="#F1F1F1"/>
<path d="M102.717 55.0869L112.401 60.6844L112.261 60.7631L102.592 55.1585L102.717 55.0869Z" fill="#F1F1F1"/>
<path d="M100.051 56.625L109.731 62.2225L109.595 62.3012L99.9221 56.7002L100.051 56.625Z" fill="#F1F1F1"/>
<path d="M123.16 51.4355L103.736 62.6627L104.015 62.8237L123.418 51.5823L123.16 51.4355Z" fill="#F1F1F1"/>
<path d="M111.357 44.4959L91.7685 55.8089L81.9922 50.1649L101.581 38.8555L111.357 44.4959Z" fill="#0099CE"/>
<path d="M81.9922 50.165V50.8236L91.7685 56.464V55.809L81.9922 50.165Z" fill="#E0E4E4"/>
<path d="M111.357 45.151V44.4961L91.7686 55.8091V56.4641L111.357 45.151Z" fill="#F1F1F1"/>
<path d="M81.9922 50.1649L91.7721 55.8053L111.361 44.4959L101.581 38.8555L81.9922 50.1649ZM91.7685 55.4725L82.5677 50.1649L101.577 39.1883L110.778 44.4959L91.7685 55.4725Z" fill="#F1F1F1"/>
<path d="M103.69 40.2227L84.2656 51.4534L84.5444 51.6144L103.947 40.3694L103.69 40.2227Z" fill="#F1F1F1"/>
<path d="M105.992 41.4746L86.564 52.7053L86.8428 52.8664L106.245 41.6213L105.992 41.4746Z" fill="#F1F1F1"/>
<path d="M98.8139 40.4912L108.494 46.0887L108.354 46.1674L98.6852 40.5628L98.8139 40.4912Z" fill="#F1F1F1"/>
<path d="M96.1438 42.0303L105.827 47.6277L105.688 47.7065L96.0187 42.1054L96.1438 42.0303Z" fill="#F1F1F1"/>
<path d="M93.4772 43.5693L103.157 49.1668L103.018 49.2455L93.3485 43.6445L93.4772 43.5693Z" fill="#F1F1F1"/>
<path d="M90.807 45.1084L100.49 50.7059L100.351 50.7846L90.6819 45.1836L90.807 45.1084Z" fill="#F1F1F1"/>
<path d="M88.1403 46.6475L97.8202 52.2449L97.6808 52.3272L88.0117 46.7226L88.1403 46.6475Z" fill="#F1F1F1"/>
<path d="M85.4702 48.1895L95.1536 53.7833L95.0142 53.8657L85.3451 48.261L85.4702 48.1895Z" fill="#F1F1F1"/>
<path d="M108.583 42.9961L89.1556 54.2268L89.4344 54.3878L108.837 43.1428L108.583 42.9961Z" fill="#F1F1F1"/>
<path d="M194.122 115.413L186.086 110.767L210.357 96.7305L218.372 101.362L194.122 115.413Z" fill="#A7C8C9"/>
<path opacity="0.15" d="M135.989 150.612L144.636 155.594L153.326 150.573L144.682 145.591L135.989 150.612Z" fill="#7B4196"/>
<path d="M144.654 143.265V151.833L142.563 150.63V142.059L144.654 143.265Z" fill="#74462E"/>
<path d="M144.654 143.261V151.833L146.752 150.619V142.048L144.654 143.261Z" fill="#8A553A"/>
<path d="M144.636 139.464V146.948L135.989 141.966V134.482L144.636 139.464Z" fill="#5EB258"/>
<path d="M135.989 134.482L144.636 139.464L153.326 134.443L144.682 129.461L135.989 134.482Z" fill="#76C059"/>
<path d="M144.636 139.46V146.94L153.326 141.919V134.436L144.636 139.46Z" fill="#4FA050"/>
<path d="M144.636 130.469V137.953L135.989 132.971V125.487L144.636 130.469Z" fill="#5EB258"/>
<path d="M135.989 125.488L144.636 130.47L153.326 125.449L144.682 120.467L135.989 125.488Z" fill="#76C059"/>
<path d="M144.636 130.466V137.946L153.326 132.925V125.441L144.636 130.466Z" fill="#4FA050"/>
<path d="M144.636 121.475V128.959L135.989 123.977V116.493L144.636 121.475Z" fill="#5EB258"/>
<path d="M135.989 116.494L144.636 121.476L153.326 116.455L144.682 111.473L135.989 116.494Z" fill="#76C059"/>
<path d="M144.636 121.472V128.952L153.326 123.931V116.447L144.636 121.472Z" fill="#4FA050"/>
<path opacity="0.1" d="M190.308 125.91L186.097 128.337L181.861 125.892L186.076 123.466L190.308 125.91Z" fill="#009345"/>
<path d="M186.09 121.228V126.897L187.745 125.942V120.276L186.09 121.228Z" fill="#74462E"/>
<path d="M186.09 121.229V126.895L184.428 125.936V120.267L186.09 121.229Z" fill="#8A553A"/>
<path d="M186.097 104.597V123.247L190.308 120.821V102.171L186.097 104.597Z" fill="#F28D55"/>
<path d="M190.308 102.171L186.097 104.597L181.861 102.153L186.076 99.7266L190.308 102.171Z" fill="#FCB87A"/>
<path d="M186.097 104.597V123.244L181.861 120.796V102.149L186.097 104.597Z" fill="#F2A355"/>
<path opacity="0.1" d="M233.638 105.41L229.428 107.836L225.195 105.388L229.406 102.962L233.638 105.41Z" fill="#009345"/>
<path d="M229.42 100.728V106.397L231.075 105.442V99.7764L229.42 100.728Z" fill="#74462E"/>
<path d="M229.42 100.728V106.394L227.758 105.435V99.7656L229.42 100.728Z" fill="#8A553A"/>
<path d="M229.428 84.0974V102.747L233.638 100.321V81.6709L229.428 84.0974Z" fill="#F28D55"/>
<path d="M233.638 81.6706L229.428 84.0972L225.195 81.6528L229.406 79.2227L233.638 81.6706Z" fill="#FCB87A"/>
<path d="M229.428 84.0938V102.744L225.195 100.296V81.6494L229.428 84.0938Z" fill="#F2A355"/>
<path d="M217.313 111.358V112.993L219.204 111.905V110.27L217.313 111.358Z" fill="#D2D2D2"/>
<path d="M219.204 110.27L217.313 111.358L215.415 110.259L217.306 109.171L219.204 110.27Z" fill="#EDECED"/>
<path d="M217.313 111.358V112.99L215.415 111.894V110.259L217.313 111.358Z" fill="#BEC0C0"/>
<path d="M162.798 139.739V141.375L164.689 140.287V138.651L162.798 139.739Z" fill="#D2D2D2"/>
<path d="M164.689 138.651L162.798 139.739L160.9 138.641L162.787 137.553L164.689 138.651Z" fill="#EDECED"/>
<path d="M162.798 139.739V141.371L160.9 140.276V138.641L162.798 139.739Z" fill="#BEC0C0"/>
<path d="M175.356 120.542V122.178L177.246 121.09V119.454L175.356 120.542Z" fill="#D2D2D2"/>
<path d="M177.246 119.454L175.356 120.542L173.457 119.446L175.345 118.358L177.246 119.454Z" fill="#EDECED"/>
<path d="M175.356 120.541V122.177L173.457 121.078V119.446L175.356 120.541Z" fill="#BEC0C0"/>
<path opacity="0.08" d="M224.098 195.846C224.098 202.556 237.51 207.996 254.049 207.996C270.592 207.996 284 202.556 284 195.846C284 189.139 270.592 183.695 254.049 183.695C237.51 183.695 224.098 189.139 224.098 195.846Z" fill="#2C788F"/>
<path d="M275.099 110.327C276.029 100.321 268.955 96.5913 268.955 96.5913L272.74 88.46C272.74 88.46 283.249 95.582 281.18 111.465C279.135 127.138 266.556 125.967 266.556 125.967L266.846 120.409C266.842 120.413 274.334 118.573 275.099 110.327Z" fill="#F79D58"/>
<path d="M261.234 190.166C261.999 190.355 262.728 190.681 263.414 191.093C265.266 192.209 266.378 191.01 266.378 191.01L272.744 191.225C273.519 192.113 273.437 199.049 273.437 199.049C271.832 199.886 269.677 199.911 267.922 199.8C263.986 199.546 259.65 197.435 256.583 194.933C256.494 194.861 256.54 194.289 256.537 194.167C256.53 193.888 256.537 193.609 256.562 193.333C256.608 192.789 256.719 192.242 256.941 191.737C257.434 190.602 258.396 189.99 259.632 189.976C260.179 189.969 260.712 190.037 261.234 190.166Z" fill="#5A74B7"/>
<path d="M236.784 189.869C237.699 190.137 238.585 190.542 239.386 191.053C241.209 192.22 242.349 191.053 242.349 191.053L248.709 191.443C249.459 192.353 249.188 199.281 249.188 199.281C247.561 200.076 245.402 200.04 243.651 199.883C239.568 199.507 235.865 197.453 232.795 194.711C232.58 194.518 232.384 194.31 232.201 194.092C232.67 189.221 235.972 189.683 236.784 189.869Z" fill="#5A74B7"/>
<path d="M232.402 193.129C235.622 196.003 239.508 198.157 243.79 198.555C245.495 198.712 247.561 198.744 249.216 198.082C249.202 198.798 249.184 199.281 249.184 199.281C247.558 200.076 245.402 200.04 243.647 199.882C239.565 199.507 235.862 197.452 232.791 194.711C232.577 194.517 232.38 194.31 232.198 194.092C232.234 193.723 232.291 193.394 232.355 193.086C232.373 193.097 232.387 193.115 232.402 193.129Z" fill="#59559D"/>
<path d="M259.965 132.234L259.175 164.144L263.003 192.078C263.003 192.078 270.731 193.259 273.923 191.405L270.692 163.149L271.861 128.881L259.965 132.234Z" fill="#3D4956"/>
<path d="M242.517 162.483L247.629 130.354L261.427 132.548L253.491 164.079L250.703 194.031C243.558 195.681 240.037 192.116 240.037 192.116L242.517 162.483Z" fill="#3D4956"/>
<path d="M246.389 129.116C246.36 127.434 248.022 114.088 248.022 114.088C248.226 104.336 249.248 93.0011 249.47 90.0449C249.502 89.6154 249.802 89.2647 250.221 89.1573L257.255 87.7257L265.663 86.7344L269.437 87.3213C271.103 87.5289 273.394 88.3163 273.755 89.7836C274.32 92.0634 274.585 93.6882 274.156 96.8556C273.848 99.1533 272.855 107.263 272.855 110.642C272.855 119.678 273.298 121.264 273.044 130.354C273.044 130.354 273.094 131.038 272.2 131.682C265.344 137.165 247.547 132.083 247.547 132.083C245.981 131.861 246.41 130.43 246.389 129.116Z" fill="#F7BD67"/>
<path d="M265.827 83.2959C265.552 83.6001 265.262 83.8828 264.955 84.1226C263.132 85.5435 260.29 86.4633 258.124 87.0108C257.781 87.1003 257.405 87.1719 257.023 87.2292L257.255 87.7266C259.489 88.5355 261.577 89.262 263.168 88.8397C264.354 88.5247 265.602 88.0165 265.67 86.6243L265.831 83.2959H265.827Z" fill="#F6A3A8"/>
<path d="M264.908 67.9238C260.347 65.9303 255.111 67.8415 252.837 72.2221C250.739 76.2627 250.775 81.8101 253.073 85.7791C254.399 88.0697 258.521 87.3574 260.619 86.9172C263.539 86.3088 266.503 84.8987 268.072 82.2431C269.798 79.3191 270.206 75.368 269.019 72.1756C268.268 70.1499 266.746 68.7291 264.908 67.9238Z" fill="#F9B9A8"/>
<path d="M260.065 67.2079C261.659 67.0182 263.321 67.2293 264.905 67.9237C266.742 68.7253 268.268 70.1462 269.019 72.1754C270.206 75.3679 269.795 79.319 268.068 82.243C266.499 84.9022 263.532 86.3087 260.615 86.9171C259.7 87.1068 258.403 87.3358 257.119 87.3609L256.469 84.2436C257.531 84.2436 258.185 82.9481 258.378 81.4521C258.574 79.9596 257.802 79.4657 257.134 79.4264C256.465 79.387 256.308 82.4327 256.308 82.4327L255.325 82.1177C255.464 80.0133 255.143 77.1359 255.143 77.1359C255.143 77.1359 252.669 77.4293 250.467 75.1889C250.482 75.1925 250.61 67.9022 260.065 67.2079Z" fill="#5E6280"/>
<path d="M256.548 193.702C259.682 196.193 264.015 198.269 267.961 198.523C269.698 198.634 271.807 198.609 273.434 197.839C273.441 198.562 273.434 199.049 273.434 199.049C271.829 199.887 269.673 199.912 267.918 199.801C263.983 199.547 259.647 197.435 256.58 194.933C256.49 194.862 256.537 194.289 256.533 194.167C256.53 194.01 256.54 193.856 256.548 193.702Z" fill="#59559D"/>
<path d="M245.341 78.3024L256.018 77.5222C256.365 77.4971 256.665 77.7584 256.694 78.1055L256.994 82.2249C257.019 82.5721 256.758 82.8763 256.412 82.9013L245.731 83.6815C245.384 83.7066 245.084 83.4453 245.055 83.0982L244.755 78.9788C244.734 78.6316 244.995 78.3274 245.341 78.3024Z" fill="#5E6280"/>
<path d="M243.601 81.005C243.879 79.7989 245.838 79.4697 246.66 79.6951C247.154 79.8311 247.754 79.9063 248.326 79.9636C248.333 79.9564 249.445 79.0867 249.985 80.6471C249.988 80.6543 249.988 80.6615 249.988 80.6686C250.26 81.2591 250.356 82.1109 250.449 82.3829C250.589 82.7945 249.588 85.7937 248.39 86.1229C247.593 86.3448 246.703 86.9855 246.189 87.397L242.242 85.2568C242.653 84.2261 243.379 81.9463 243.601 81.005Z" fill="#F9B9A8"/>
<path d="M242.078 84.9092L246.332 87.3822C246.503 87.4824 246.535 87.7151 246.396 87.8546C245.041 89.2254 239.24 95.3561 241.159 97.9222C243.611 101.193 249.574 89.6799 249.574 89.6799C249.574 89.6799 251.425 89.297 253.016 93.4736C253.016 93.4736 253.616 95.2774 253.016 98.6058C253.016 98.6058 249.688 103.978 243.769 105.628V105.624C241.027 106.508 238.157 105.943 235.662 102.654C229.728 94.8157 242.078 84.9092 242.078 84.9092Z" fill="#F79D58"/>
</svg>
