<svg width="264" height="264" viewBox="0 0 264 264" fill="none" xmlns="http://www.w3.org/2000/svg">
<circle cx="132" cy="132" r="132" fill="#6F22D2" fill-opacity="0.06"/>
<circle cx="132" cy="132" r="119.374" fill="#6F22D2" fill-opacity="0.06"/>
<path d="M125.924 141.264L108.72 147.215C106.861 147.861 104.835 146.871 104.192 145.004L99.9815 132.756C99.3385 130.89 100.325 128.855 102.184 128.21L119.388 122.258C121.246 121.612 123.272 122.603 123.915 124.469L128.126 136.718C128.769 138.584 127.782 140.618 125.924 141.264Z" fill="#40220F"/>
<path d="M164.731 203.58L150.319 208.568C148.461 209.213 146.435 208.223 145.792 206.357L141.581 194.108C140.938 192.242 141.924 190.208 143.783 189.562L158.195 184.574C160.053 183.929 162.079 184.919 162.722 186.785L166.933 199.034C167.576 200.909 166.589 202.943 164.731 203.58Z" fill="#40220F"/>
<path d="M147.356 147.728L132.998 142.59C131.148 141.927 130.179 139.884 130.839 138.027L135.173 125.822C135.834 123.965 137.869 122.992 139.719 123.655L154.077 128.794C155.927 129.457 156.896 131.5 156.235 133.357L151.901 145.562C151.241 147.428 149.206 148.392 147.356 147.728Z" fill="#40220F"/>
<path d="M128.817 209.036L114.458 203.898C112.608 203.235 111.639 201.192 112.3 199.335L116.634 187.13C117.295 185.273 119.329 184.3 121.179 184.963L135.538 190.102C137.388 190.765 138.357 192.808 137.696 194.665L133.362 206.87C132.701 208.727 130.666 209.7 128.817 209.036Z" fill="#40220F"/>
<path d="M171.593 157.228L151.544 158.086C149.579 158.166 147.914 156.636 147.835 154.664L147.104 137.382C147.025 135.41 148.549 133.739 150.513 133.659L170.562 132.801C172.527 132.722 174.191 134.252 174.271 136.224L175.002 153.505C175.081 155.477 173.557 157.14 171.593 157.228Z" fill="#40220F"/>
<path d="M121.505 203.774L101.456 204.632C99.4918 204.712 97.8269 203.182 97.7476 201.209L97.0165 183.928C96.9372 181.956 98.4611 180.285 100.426 180.205L120.475 179.347C122.439 179.268 124.104 180.798 124.183 182.77L124.914 200.051C124.994 202.023 123.47 203.686 121.505 203.774Z" fill="#40220F"/>
<path d="M116.563 164.719L96.5142 165.577C94.5498 165.657 92.8849 164.127 92.8056 162.155L92.0745 144.874C91.9952 142.901 93.5192 141.23 95.4835 141.15L115.533 140.293C117.497 140.213 119.162 141.743 119.241 143.715L119.972 160.996C120.052 162.968 118.528 164.631 116.563 164.719Z" fill="#40220F"/>
<path d="M135.855 162.57L118.484 156.362C116.634 155.698 115.665 153.655 116.326 151.798L121.611 136.887C122.272 135.03 124.306 134.057 126.156 134.721L143.528 140.929C145.377 141.592 146.346 143.635 145.686 145.493L140.4 160.403C139.74 162.261 137.705 163.233 135.855 162.57Z" fill="#40220F"/>
<path d="M87.045 121.109L99.7299 233.047H165.162L179.239 121.109" stroke="black" stroke-width="1.76297" stroke-miterlimit="10"/>
<path d="M187.695 112.903H75.699V121.11H187.695V112.903Z" stroke="black" stroke-width="1.76297" stroke-miterlimit="10"/>
<path d="M184.19 107.207H79.8747V112.903H184.19V107.207Z" stroke="black" stroke-width="1.76297" stroke-miterlimit="10"/>
<path d="M116.089 13.8183L108.992 14.9038L140.965 225.622L148.062 224.536L116.089 13.8183Z" fill="black" stroke="black" stroke-width="1.76297" stroke-miterlimit="10"/>
<path opacity="0.28" d="M187.695 112.903H75.699V121.11H187.695V112.903Z" fill="white" stroke="black" stroke-width="1.76297" stroke-miterlimit="10"/>
<g opacity="0.92">
<path d="M88.3157 128.969L100.645 233.931H166.078L178.352 128.969" fill="#40220F"/>
<path d="M88.3157 128.969L100.645 233.931H166.078L178.352 128.969" stroke="black" stroke-width="1.76297" stroke-miterlimit="10"/>
</g>
<path opacity="0.28" d="M184.19 112.903H79.8747V107.207H81.3194H184.19V112.903Z" fill="white" stroke="black" stroke-width="1.76297" stroke-miterlimit="10"/>
<path d="M178.428 107.207H85.6266" stroke="black" stroke-width="1.76297" stroke-miterlimit="10"/>
<path opacity="0.85" d="M166.81 183.265L162.264 221.586" stroke="white" stroke-width="3.52594" stroke-miterlimit="10" stroke-linecap="round"/>
<path opacity="0.85" d="M173.673 128.15L172.571 139.054" stroke="white" stroke-width="3.52594" stroke-miterlimit="10" stroke-linecap="round"/>
<path d="M176.5 143.361L171 190.172H96.1447L89.9784 143.361H176.5Z" fill="white" stroke="black" stroke-width="1.76297" stroke-miterlimit="10"/>
<path d="M164.127 155.337L156.595 174.484H152.006L144.474 155.337H149.293L154.49 169.434L159.661 155.337H164.127Z" fill="#1BA3CE"/>
<path d="M134.961 170.77H127.57L126.24 174.484H121.844L129.235 155.337H133.657L141.048 174.484H136.3L134.961 170.77ZM133.648 167.064L131.261 160.396L128.874 167.064H133.648Z" fill="#1BA3CE"/>
<path d="M142.739 168.673H120.144" stroke="#1BA3CE" stroke-width="3.52594" stroke-miterlimit="10"/>
<path d="M117.457 165.153H101.213" stroke="#1BA3CE" stroke-width="3.52594" stroke-miterlimit="10"/>
<path d="M106.781 174.475V157.096H118.638" stroke="#1BA3CE" stroke-width="3.52594" stroke-miterlimit="10"/>
<path d="M103.24 181.992C102.244 181.992 101.522 181.24 101.522 180.232C101.522 179.224 102.244 178.472 103.231 178.472C104.024 178.472 104.64 178.985 104.808 179.684H104.191C104.059 179.286 103.706 179.012 103.231 179.012C102.561 179.012 102.112 179.542 102.112 180.241C102.112 180.94 102.561 181.47 103.231 181.47C103.706 181.47 104.068 181.187 104.2 180.78H104.816C104.631 181.497 104.015 181.992 103.24 181.992Z" fill="#1BA3CE"/>
<path d="M109.379 180.232C109.379 181.24 108.657 181.992 107.67 181.992C106.675 181.992 105.953 181.24 105.953 180.232C105.953 179.224 106.675 178.472 107.67 178.472C108.657 178.472 109.379 179.224 109.379 180.232ZM106.543 180.232C106.543 180.931 107.001 181.461 107.662 181.461C108.322 181.461 108.78 180.931 108.78 180.232C108.78 179.533 108.322 179.003 107.662 179.003C107.001 179.003 106.543 179.533 106.543 180.232Z" fill="#1BA3CE"/>
<path d="M112.304 179.082H111.564V181.904H110.965V179.082H110.304V178.552H110.965V177.986C110.965 177.429 111.291 177.04 111.864 177.04C112.013 177.04 112.154 177.048 112.251 177.075V177.588C112.172 177.57 112.049 177.57 111.96 177.57C111.714 177.57 111.564 177.729 111.564 178.004V178.552H112.304V179.082Z" fill="#1BA3CE"/>
<path d="M115.22 179.082H114.48V181.904H113.881V179.082H113.22V178.552H113.881V177.986C113.881 177.429 114.207 177.04 114.779 177.04C114.929 177.04 115.07 177.048 115.167 177.075V177.588C115.088 177.57 114.964 177.57 114.876 177.57C114.63 177.57 114.48 177.729 114.48 178.004V178.552H115.22V179.082Z" fill="#1BA3CE"/>
<path d="M116.101 180.232C116.101 179.224 116.805 178.472 117.783 178.472C118.761 178.472 119.457 179.224 119.457 180.232C119.457 180.312 119.457 180.4 119.448 180.48H116.708C116.77 181.055 117.184 181.488 117.783 181.488C118.241 181.488 118.594 181.276 118.717 181.002H119.334C119.149 181.585 118.55 182.001 117.783 182.001C116.805 181.992 116.101 181.24 116.101 180.232ZM117.783 178.985C117.184 178.985 116.77 179.41 116.708 179.993H118.867C118.796 179.401 118.382 178.985 117.783 178.985Z" fill="#1BA3CE"/>
<path d="M120.629 180.232C120.629 179.224 121.333 178.472 122.311 178.472C123.289 178.472 123.985 179.224 123.985 180.232C123.985 180.312 123.985 180.4 123.976 180.48H121.236C121.298 181.055 121.712 181.488 122.311 181.488C122.769 181.488 123.121 181.276 123.245 181.002H123.861C123.676 181.585 123.077 182.001 122.311 182.001C121.333 181.992 120.629 181.24 120.629 180.232ZM122.311 178.985C121.712 178.985 121.298 179.41 121.236 179.993H123.395C123.324 179.401 122.91 178.985 122.311 178.985Z" fill="#1BA3CE"/>
<path d="M132.661 181.992C131.666 181.992 130.944 181.24 130.944 180.232C130.944 179.224 131.666 178.472 132.652 178.472C133.445 178.472 134.062 178.985 134.229 179.684H133.613C133.48 179.286 133.128 179.012 132.652 179.012C131.983 179.012 131.534 179.542 131.534 180.241C131.534 180.94 131.983 181.47 132.652 181.47C133.128 181.47 133.489 181.187 133.621 180.78H134.238C134.053 181.497 133.436 181.992 132.661 181.992Z" fill="#1BA3CE"/>
<path d="M138.802 180.232C138.802 181.24 138.079 181.992 137.093 181.992C136.097 181.992 135.375 181.24 135.375 180.232C135.375 179.224 136.097 178.472 137.093 178.472C138.088 178.472 138.802 179.224 138.802 180.232ZM135.974 180.232C135.974 180.931 136.432 181.461 137.093 181.461C137.753 181.461 138.211 180.931 138.211 180.232C138.211 179.533 137.753 179.003 137.093 179.003C136.432 179.003 135.974 179.533 135.974 180.232Z" fill="#1BA3CE"/>
<path d="M140.766 178.552V179.029C140.915 178.782 141.215 178.472 141.779 178.472C142.272 178.472 142.659 178.746 142.818 179.18C143.021 178.755 143.435 178.472 144.007 178.472C144.721 178.472 145.232 179.02 145.232 179.869V181.912H144.633V179.967C144.633 179.365 144.342 178.994 143.866 178.994C143.364 178.994 143.003 179.489 143.003 180.099V181.912H142.404V179.993C142.404 179.365 142.104 179.003 141.638 179.003C141.144 179.003 140.774 179.498 140.774 180.099V181.912H140.175V178.552H140.766V178.552Z" fill="#1BA3CE"/>
<path d="M147.275 181.409V183.337H146.676V178.552H147.275V179.048C147.442 178.756 147.856 178.464 148.464 178.464C149.415 178.464 150.12 179.224 150.12 180.224C150.12 181.232 149.415 181.984 148.464 181.984C147.856 181.993 147.451 181.701 147.275 181.409ZM149.53 180.233C149.53 179.534 149.09 179.003 148.411 179.003C147.733 179.003 147.266 179.534 147.266 180.233C147.266 180.931 147.733 181.462 148.411 181.462C149.09 181.462 149.53 180.931 149.53 180.233Z" fill="#1BA3CE"/>
<path d="M151.301 180.232C151.301 179.224 152.006 178.472 152.957 178.472C153.565 178.472 153.979 178.764 154.146 179.056V178.561H154.745V181.921H154.146V181.426C153.979 181.718 153.565 182.01 152.957 182.01C152.014 181.992 151.301 181.24 151.301 180.232ZM154.155 180.232C154.155 179.533 153.688 179.003 153.01 179.003C152.34 179.003 151.891 179.533 151.891 180.232C151.891 180.931 152.332 181.461 153.01 181.461C153.688 181.461 154.155 180.931 154.155 180.232Z" fill="#1BA3CE"/>
<path d="M156.886 178.552V179.065C157.027 178.817 157.406 178.472 158.022 178.472C158.815 178.472 159.37 179.038 159.37 179.949V181.912H158.771V180.046C158.771 179.365 158.445 178.994 157.899 178.994C157.318 178.994 156.895 179.542 156.895 180.17V181.912H156.296V178.552H156.886Z" fill="#1BA3CE"/>
<path d="M163.784 178.552L161.696 183.336H161.088L161.749 181.842L160.313 178.552H160.974L162.048 181.196L163.158 178.552H163.784Z" fill="#1BA3CE"/>
<g opacity="0.85">
<path d="M169.726 94.437C170.21 95.7459 170.686 97.0637 171.171 98.3726Z" fill="white"/>
<path d="M169.726 94.437C170.21 95.7459 170.686 97.0637 171.171 98.3726" stroke="white" stroke-width="3.52594" stroke-miterlimit="10" stroke-linecap="round"/>
</g>
<g opacity="0.85">
<path d="M150.768 71.9639C153.719 73.7415 157.498 76.4743 161.119 80.569C163.198 82.9215 164.801 85.2298 166.017 87.2727" fill="white"/>
<path d="M150.768 71.9639C153.719 73.7415 157.498 76.4743 161.119 80.569C163.198 82.9215 164.801 85.2298 166.017 87.2727" stroke="white" stroke-width="3.52594" stroke-miterlimit="10" stroke-linecap="round"/>
</g>
<path d="M176.718 89.6017C178.997 95.1249 180.222 101.026 180.331 106.998H132.772L85.2126 106.998C85.3223 101.026 86.5471 95.1249 88.8258 89.6017C91.2165 83.807 94.7207 78.5419 99.1379 74.1071C103.555 69.6724 108.799 66.1547 114.57 63.7548C120.341 61.3549 126.526 60.1198 132.772 60.1198C139.018 60.1198 145.203 61.3549 150.974 63.7548C156.745 66.1547 161.989 69.6724 166.406 74.1071C170.823 78.5419 174.327 83.807 176.718 89.6017Z" fill="white" fill-opacity="0.3" stroke="black" stroke-width="1.76297"/>
<path d="M82.5806 233.757H181.219" stroke="black" stroke-width="2.29545"/>
<path d="M53.906 149.697C53.906 152.247 51.8481 154.306 49.319 154.306C46.7899 154.306 44.732 152.247 44.732 149.697C44.732 147.146 46.7899 145.087 49.319 145.087C51.8481 145.087 53.906 147.146 53.906 149.697Z" stroke="white" stroke-width="2.29545"/>
<path d="M201.863 48.3635C201.863 50.9138 199.805 52.9734 197.276 52.9734C194.747 52.9734 192.689 50.9138 192.689 48.3635C192.689 45.8133 194.747 43.7537 197.276 43.7537C199.805 43.7537 201.863 45.8133 201.863 48.3635Z" stroke="white" stroke-width="2.29545"/>
<path d="M203.01 138.181C203.01 139.459 201.979 140.488 200.717 140.488C199.455 140.488 198.424 139.459 198.424 138.181C198.424 136.903 199.455 135.874 200.717 135.874C201.979 135.874 203.01 136.903 203.01 138.181Z" stroke="white" stroke-width="2.29545"/>
<mask id="path-50-inside-1" fill="white">
<ellipse cx="201.864" cy="168.121" rx="2.29391" ry="2.30303"/>
</mask>
<path d="M201.862 168.121C201.862 168.123 201.862 168.125 201.862 168.125C201.862 168.126 201.862 168.127 201.862 168.127C201.862 168.127 201.862 168.126 201.862 168.126C201.862 168.126 201.861 168.128 201.86 168.129C201.858 168.131 201.857 168.131 201.86 168.13C201.861 168.13 201.863 168.129 201.864 168.129C201.866 168.128 201.866 168.128 201.864 168.128V172.719C204.407 172.719 206.453 170.652 206.453 168.121H201.862ZM201.864 168.128C201.862 168.128 201.862 168.128 201.863 168.129C201.865 168.129 201.867 168.13 201.868 168.13C201.871 168.131 201.87 168.131 201.868 168.129C201.866 168.128 201.866 168.126 201.866 168.126C201.866 168.126 201.866 168.127 201.866 168.127C201.866 168.127 201.866 168.126 201.866 168.125C201.866 168.125 201.865 168.123 201.865 168.121H197.274C197.274 170.652 199.321 172.719 201.864 172.719V168.128ZM201.865 168.121C201.865 168.119 201.866 168.117 201.866 168.116C201.866 168.116 201.866 168.115 201.866 168.115C201.866 168.115 201.866 168.115 201.866 168.116C201.866 168.116 201.866 168.114 201.868 168.112C201.87 168.11 201.871 168.111 201.868 168.112C201.867 168.112 201.865 168.113 201.863 168.113C201.862 168.114 201.862 168.113 201.864 168.113V163.522C199.321 163.522 197.274 165.59 197.274 168.121H201.865ZM201.864 168.113C201.866 168.113 201.866 168.114 201.864 168.113C201.863 168.113 201.861 168.112 201.86 168.112C201.857 168.111 201.858 168.11 201.86 168.112C201.861 168.114 201.862 168.116 201.862 168.116C201.862 168.115 201.862 168.115 201.862 168.115C201.862 168.115 201.862 168.116 201.862 168.116C201.862 168.117 201.862 168.119 201.862 168.121H206.453C206.453 165.59 204.407 163.522 201.864 163.522V168.113Z" fill="white" mask="url(#path-50-inside-1)"/>
<mask id="path-52-inside-2" fill="white">
<ellipse cx="138.781" cy="31.0906" rx="2.29391" ry="2.30303"/>
</mask>
<path d="M138.78 31.0906C138.78 31.0928 138.78 31.0943 138.78 31.0951C138.78 31.0959 138.779 31.0963 138.779 31.0963C138.779 31.0964 138.779 31.0961 138.78 31.0959C138.78 31.0957 138.779 31.0973 138.777 31.0992C138.775 31.1012 138.775 31.1009 138.777 31.0998C138.778 31.0992 138.78 31.0987 138.782 31.0984C138.783 31.098 138.784 31.0982 138.781 31.0982V35.6891C141.325 35.6891 143.371 33.6217 143.371 31.0906H138.78ZM138.781 31.0982C138.779 31.0982 138.779 31.098 138.781 31.0984C138.783 31.0987 138.784 31.0992 138.786 31.0998C138.788 31.1009 138.788 31.1012 138.786 31.0992C138.784 31.0973 138.783 31.0957 138.783 31.0959C138.783 31.0961 138.783 31.0964 138.783 31.0963C138.783 31.0963 138.783 31.0959 138.783 31.0951C138.783 31.0943 138.783 31.0928 138.783 31.0906H134.192C134.192 33.6217 136.238 35.6891 138.781 35.6891V31.0982ZM138.783 31.0906C138.783 31.0884 138.783 31.087 138.783 31.0862C138.783 31.0854 138.783 31.085 138.783 31.0849C138.783 31.0849 138.783 31.0852 138.783 31.0854C138.783 31.0855 138.784 31.084 138.786 31.082C138.788 31.0801 138.788 31.0804 138.786 31.0814C138.784 31.082 138.783 31.0825 138.781 31.0829C138.779 31.0832 138.779 31.0831 138.781 31.0831V26.4921C136.238 26.4921 134.192 28.5596 134.192 31.0906H138.783ZM138.781 31.0831C138.784 31.0831 138.783 31.0832 138.782 31.0829C138.78 31.0825 138.778 31.082 138.777 31.0814C138.775 31.0804 138.775 31.0801 138.777 31.082C138.779 31.084 138.78 31.0855 138.78 31.0854C138.779 31.0852 138.779 31.0849 138.779 31.0849C138.779 31.085 138.78 31.0854 138.78 31.0862C138.78 31.087 138.78 31.0884 138.78 31.0906H143.371C143.371 28.5596 141.325 26.4921 138.781 26.4921V31.0831Z" fill="white" mask="url(#path-52-inside-2)"/>
<mask id="path-54-inside-3" fill="white">
<ellipse cx="75.6989" cy="172.727" rx="2.29391" ry="2.30303"/>
</mask>
<path d="M75.6974 172.727C75.6974 172.729 75.6973 172.731 75.6972 172.731C75.6971 172.732 75.697 172.732 75.697 172.733C75.697 172.733 75.6971 172.732 75.6972 172.732C75.6972 172.732 75.6966 172.733 75.6946 172.735C75.6927 172.737 75.6921 172.737 75.6946 172.736C75.696 172.735 75.6977 172.735 75.6993 172.735C75.7011 172.734 75.7012 172.734 75.6989 172.734V177.325C78.2422 177.325 80.2883 175.258 80.2883 172.727H75.6974ZM75.6989 172.734C75.6967 172.734 75.6968 172.734 75.6986 172.735C75.7002 172.735 75.7019 172.735 75.7033 172.736C75.7057 172.737 75.7052 172.737 75.7032 172.735C75.7013 172.733 75.7006 172.732 75.7007 172.732C75.7008 172.732 75.7008 172.733 75.7008 172.733C75.7008 172.732 75.7008 172.732 75.7007 172.731C75.7006 172.731 75.7005 172.729 75.7005 172.727H71.1096C71.1096 175.258 73.1557 177.325 75.6989 177.325V172.734ZM75.7005 172.727C75.7005 172.725 75.7006 172.723 75.7007 172.722C75.7008 172.722 75.7008 172.721 75.7008 172.721C75.7008 172.721 75.7008 172.721 75.7007 172.722C75.7006 172.722 75.7013 172.72 75.7032 172.718C75.7052 172.716 75.7057 172.717 75.7033 172.718C75.7019 172.718 75.7002 172.719 75.6986 172.719C75.6968 172.719 75.6967 172.719 75.6989 172.719V168.128C73.1557 168.128 71.1096 170.196 71.1096 172.727H75.7005ZM75.6989 172.719C75.7012 172.719 75.7011 172.719 75.6993 172.719C75.6977 172.719 75.696 172.718 75.6946 172.718C75.6921 172.717 75.6927 172.716 75.6946 172.718C75.6966 172.72 75.6972 172.722 75.6972 172.722C75.6971 172.721 75.697 172.721 75.697 172.721C75.697 172.721 75.6971 172.722 75.6972 172.722C75.6973 172.723 75.6974 172.725 75.6974 172.727H80.2883C80.2883 170.196 78.2422 168.128 75.6989 168.128V172.719Z" fill="white" mask="url(#path-54-inside-3)"/>
<mask id="path-56-inside-4" fill="white">
<ellipse cx="216.774" cy="86.3631" rx="2.29391" ry="2.30303"/>
</mask>
<path d="M216.773 86.3631C216.773 86.3653 216.773 86.3668 216.772 86.3675C216.772 86.3683 216.772 86.3687 216.772 86.3688C216.772 86.3688 216.772 86.3686 216.772 86.3683C216.772 86.3682 216.772 86.3697 216.77 86.3717C216.768 86.3736 216.767 86.3733 216.77 86.3723C216.771 86.3717 216.773 86.3712 216.775 86.3708C216.776 86.3705 216.776 86.3707 216.774 86.3707V90.9616C219.317 90.9616 221.364 88.8942 221.364 86.3631H216.773ZM216.774 86.3707C216.772 86.3707 216.772 86.3705 216.774 86.3708C216.775 86.3712 216.777 86.3717 216.779 86.3723C216.781 86.3733 216.78 86.3736 216.779 86.3717C216.777 86.3697 216.776 86.3682 216.776 86.3683C216.776 86.3686 216.776 86.3688 216.776 86.3688C216.776 86.3687 216.776 86.3683 216.776 86.3675C216.776 86.3668 216.776 86.3653 216.776 86.3631H212.185C212.185 88.8942 214.231 90.9616 216.774 90.9616V86.3707ZM216.776 86.3631C216.776 86.3609 216.776 86.3594 216.776 86.3586C216.776 86.3578 216.776 86.3574 216.776 86.3574C216.776 86.3574 216.776 86.3576 216.776 86.3578C216.776 86.358 216.777 86.3565 216.779 86.3545C216.78 86.3526 216.781 86.3528 216.779 86.3539C216.777 86.3545 216.775 86.355 216.774 86.3553C216.772 86.3557 216.772 86.3555 216.774 86.3555V81.7646C214.231 81.7646 212.185 83.832 212.185 86.3631H216.776ZM216.774 86.3555C216.776 86.3555 216.776 86.3557 216.775 86.3553C216.773 86.355 216.771 86.3545 216.77 86.3539C216.767 86.3528 216.768 86.3526 216.77 86.3545C216.772 86.3565 216.772 86.358 216.772 86.3578C216.772 86.3576 216.772 86.3574 216.772 86.3574C216.772 86.3574 216.772 86.3578 216.772 86.3586C216.773 86.3594 216.773 86.3609 216.773 86.3631H221.364C221.364 83.832 219.317 81.7646 216.774 81.7646V86.3555Z" fill="white" mask="url(#path-56-inside-4)"/>
<path d="M237.419 104.788C237.419 106.066 236.388 107.094 235.125 107.094C233.863 107.094 232.832 106.066 232.832 104.788C232.832 103.509 233.863 102.481 235.125 102.481C236.388 102.481 237.419 103.509 237.419 104.788Z" stroke="white" stroke-width="2.29545"/>
<path d="M190.393 206.121C190.393 207.399 189.363 208.428 188.1 208.428C186.838 208.428 185.807 207.399 185.807 206.121C185.807 204.843 186.838 203.814 188.1 203.814C189.363 203.814 190.393 204.843 190.393 206.121Z" stroke="white" stroke-width="2.29545"/>
<path d="M164.014 49.5146C164.014 50.7929 162.983 51.8214 161.72 51.8214C160.458 51.8214 159.427 50.7929 159.427 49.5146C159.427 48.2363 160.458 47.2078 161.72 47.2078C162.983 47.2078 164.014 48.2363 164.014 49.5146Z" stroke="white" stroke-width="2.29545"/>
<path d="M68.8164 104.788C68.8164 106.066 67.7854 107.094 66.5233 107.094C65.2611 107.094 64.2301 106.066 64.2301 104.788C64.2301 103.509 65.2611 102.481 66.5233 102.481C67.7854 102.481 68.8164 103.509 68.8164 104.788Z" stroke="white" stroke-width="2.29545"/>
<path d="M53.906 193.454C53.906 194.732 52.875 195.761 51.6129 195.761C50.3507 195.761 49.3197 194.732 49.3197 193.454C49.3197 192.176 50.3507 191.147 51.6129 191.147C52.875 191.147 53.906 192.176 53.906 193.454Z" stroke="white" stroke-width="2.29545"/>
<path d="M25.2322 130.121C25.2322 131.399 24.2012 132.428 22.939 132.428C21.6769 132.428 20.6459 131.399 20.6459 130.121C20.6459 128.843 21.6769 127.814 22.939 127.814C24.2012 127.814 25.2322 128.843 25.2322 130.121Z" stroke="white" stroke-width="2.29545"/>
<path d="M230.537 188.272C230.537 190.504 228.736 192.306 226.523 192.306C224.311 192.306 222.51 190.504 222.51 188.272C222.51 186.04 224.311 184.238 226.523 184.238C228.736 184.238 230.537 186.04 230.537 188.272Z" stroke="white" stroke-width="2.29545"/>
<path d="M88.3147 47.2117C88.3147 49.7619 86.2567 51.8215 83.7276 51.8215C81.1986 51.8215 79.1406 49.7619 79.1406 47.2117C79.1406 44.6614 81.1986 42.6018 83.7276 42.6018C86.2567 42.6018 88.3147 44.6614 88.3147 47.2117Z" stroke="white" stroke-width="2.29545"/>
</svg>
