<svg width="221" height="240" viewBox="0 0 221 240" fill="none" xmlns="http://www.w3.org/2000/svg">
<path d="M76.5 58.6047C77.7622 51.8176 74 41.1047 74 41.1047C74 41.1047 73.7842 41.1491 74 40.6045C74.5799 39.1409 77.5 41.6047 77.5 41.6047L81.5 46.6047V87.1048L78.5 97.1048L75.5 111.105V119.605L78 121.105L81.5 119.605L87.5 201.605L162.5 209.605L146.5 222.605L130 231.105L113.5 239.605H6.5C6.5 239.605 23.6205 220.978 30.5 206.605C41.909 182.768 31.7388 164.707 40 139.605C43.7751 128.134 47.8679 122.452 52 111.105C56.6076 98.4515 55.5796 89.9416 62 78.1048C66.5246 69.763 74.7649 67.9346 76.5 58.6047Z" fill="#FDF3EE"/>
<path d="M68.5 43.1045C68.5 43.1045 70.7358 44.4284 71.5 46.1045C73.9301 51.4345 73.7419 59.6045 70.5 63.1045C67.9374 65.8712 63 65 63 65M71.5 89.1045C71.5 89.1045 74 92.1045 76 92.1045M51 144.604C59.0918 137.895 64.1128 135.293 74 133.104" stroke="black" stroke-width="1.5" stroke-linecap="round"/>
<path d="M217 49.0003C213 44.8261 203 50.0002 203 50.0002V77.0002C203 77.0002 228.5 61.0008 217 49.0003Z" fill="white"/>
<path d="M215.368 52.4281C211.834 48.7649 203 53.3055 203 53.3055V77C203 77 225.527 62.9593 215.368 52.4281Z" fill="#FDF3EE"/>
<path d="M217 49.0003C213 44.8261 203 50.0002 203 50.0002V77.0002C203 77.0002 228.5 61.0008 217 49.0003Z" stroke="black" stroke-width="1.5"/>
<rect x="82.5" y="0.5" width="121" height="235" rx="13.5" fill="white" stroke="black"/>
<rect x="87.5" y="26.5" width="111" height="184" stroke="black"/>
<path d="M133 15L158 15" stroke="black" stroke-width="2" stroke-linecap="round"/>
<path d="M129 15H129.5" stroke="black" stroke-width="2" stroke-linecap="round"/>
<path d="M202.009 122.025C193.51 121.705 194.509 92.0247 206.009 93.0247C214.126 93.7305 217.091 100.898 216.509 109.025C215.967 116.611 209.609 122.31 202.009 122.025Z" fill="white"/>
<path d="M201.009 151.525C192.01 149.264 195.94 124.675 206.509 124.025C214.641 123.525 218.785 126.915 218.01 135.025C217.236 143.114 208.891 153.505 201.009 151.525Z" fill="white"/>
<path d="M196.009 165.025C195.782 159.668 199.807 153.821 205.009 152.525C211.195 150.983 215.009 157.525 215.009 163.525C215.009 167.025 208.425 176.709 202.009 175.025C197.135 173.745 196.222 170.06 196.009 165.025Z" fill="white"/>
<path d="M1 239.105C1 239.105 19.2449 218.396 24.5 202.105C29.5 186.605 26.8832 177.99 32 156.605C38.0636 131.261 38.3502 133.504 47.5 109.105C49.046 104.982 50.5835 95.1211 53.5 86.605C56.6079 77.5301 60 72.6045 63 64.1046C66.4535 54.3196 64.238 38.5675 74.5 40.1046C78.5736 40.7148 82 46.5 82 46.5M82 86.605C82 86.605 70.9985 118.104 77 121.105C80 122.604 82 117.604 82 117.604" stroke="black" stroke-width="1.5" stroke-linecap="round" stroke-linejoin="bevel"/>
<path d="M140.046 98.4784L132.152 101.209C131.299 101.506 130.37 101.051 130.075 100.195L128.142 94.5745C127.847 93.7182 128.3 92.7849 129.153 92.4886L137.047 89.7575C137.9 89.4613 138.83 89.9158 139.125 90.7721L141.057 96.3925C141.352 97.2488 140.899 98.1822 140.046 98.4784Z" fill="#40220F"/>
<path d="M157.853 127.073L151.24 129.361C150.387 129.658 149.457 129.203 149.162 128.347L147.23 122.726C146.935 121.87 147.388 120.937 148.241 120.641L154.854 118.352C155.706 118.056 156.636 118.51 156.931 119.366L158.863 124.987C159.158 125.847 158.706 126.78 157.853 127.073Z" fill="#40220F"/>
<path d="M149.881 101.445L143.292 99.0872C142.443 98.7829 141.999 97.8455 142.302 96.9933L144.29 91.3931C144.594 90.5409 145.527 90.0945 146.376 90.3989L152.965 92.7566C153.813 93.061 154.258 93.9984 153.955 94.8506L151.966 100.451C151.663 101.307 150.729 101.749 149.881 101.445Z" fill="#40220F"/>
<path d="M141.373 129.577L134.785 127.219C133.936 126.915 133.491 125.977 133.794 125.125L135.783 119.525C136.086 118.673 137.02 118.226 137.869 118.531L144.457 120.888C145.306 121.193 145.751 122.13 145.448 122.982L143.459 128.583C143.156 129.435 142.222 129.881 141.373 129.577Z" fill="#40220F"/>
<path d="M161.001 105.804L151.802 106.198C150.9 106.234 150.136 105.532 150.1 104.627L149.765 96.6977C149.728 95.7927 150.427 95.0258 151.329 94.9892L160.528 94.5956C161.43 94.5591 162.194 95.2611 162.23 96.1661L162.566 104.096C162.602 105.001 161.903 105.763 161.001 105.804Z" fill="#40220F"/>
<path d="M138.018 127.162L128.819 127.556C127.917 127.593 127.153 126.891 127.117 125.986L126.782 118.056C126.745 117.151 127.445 116.384 128.346 116.348L137.546 115.954C138.447 115.917 139.211 116.62 139.247 117.524L139.583 125.454C139.619 126.359 138.92 127.122 138.018 127.162Z" fill="#40220F"/>
<path d="M135.751 109.242L126.551 109.636C125.65 109.672 124.886 108.97 124.85 108.065L124.514 100.136C124.478 99.2307 125.177 98.4637 126.078 98.4272L135.278 98.0336C136.179 97.9971 136.943 98.6991 136.98 99.6041L137.315 107.534C137.352 108.439 136.652 109.201 135.751 109.242Z" fill="#40220F"/>
<path d="M144.603 108.255L136.632 105.407C135.783 105.102 135.338 104.165 135.642 103.313L138.067 96.4707C138.37 95.6185 139.304 95.1721 140.153 95.4765L148.123 98.3253C148.972 98.6296 149.417 99.5671 149.114 100.419L146.688 107.261C146.385 108.113 145.452 108.56 144.603 108.255Z" fill="#40220F"/>
<path d="M122.207 89.231L128.027 140.594H158.051L164.51 89.231" stroke="black" stroke-width="0.637322" stroke-miterlimit="10"/>
<path d="M168.39 85.4653H117V89.2312H168.39V85.4653Z" stroke="black" stroke-width="0.637322" stroke-miterlimit="10"/>
<path d="M166.782 82.8516H118.916V85.465H166.782V82.8516Z" stroke="black" stroke-width="0.637322" stroke-miterlimit="10"/>
<path d="M135.534 40L132.277 40.498L146.948 137.187L150.205 136.689L135.534 40Z" fill="black" stroke="black" stroke-width="0.637322" stroke-miterlimit="10"/>
<path opacity="0.28" d="M168.39 85.4653H117V89.2312H168.39V85.4653Z" fill="white" stroke="black" stroke-width="0.637322" stroke-miterlimit="10"/>
<g opacity="0.92">
<path d="M122.789 92.8374L128.447 141H158.471L164.103 92.8374" fill="#40220F"/>
<path d="M122.789 92.8374L128.447 141H158.471L164.103 92.8374" stroke="black" stroke-width="0.637322" stroke-miterlimit="10"/>
</g>
<path opacity="0.28" d="M166.782 85.465H118.916V82.8516H119.579H166.782V85.465Z" fill="white" stroke="black" stroke-width="0.637322" stroke-miterlimit="10"/>
<path d="M164.138 82.8516H121.556" stroke="black" stroke-width="0.637322" stroke-miterlimit="10"/>
<path opacity="0.85" d="M158.806 117.751L156.721 135.335" stroke="white" stroke-width="1.27464" stroke-miterlimit="10" stroke-linecap="round"/>
<path opacity="0.85" d="M161.956 92.4609L161.45 97.4646" stroke="white" stroke-width="1.27464" stroke-miterlimit="10" stroke-linecap="round"/>
<path d="M163.253 99.4409L160.73 120.92H126.382L123.552 99.4409H163.253Z" fill="white" stroke="black" stroke-width="0.637322" stroke-miterlimit="10"/>
<path d="M157.575 104.936L154.119 113.722H152.014L148.558 104.936H150.769L153.153 111.405L155.526 104.936H157.575Z" fill="#1BA3CE"/>
<path d="M144.192 112.017H140.801L140.191 113.722H138.174L141.565 104.936H143.594L146.985 113.722H144.807L144.192 112.017ZM143.59 110.317L142.495 107.257L141.399 110.317H143.59Z" fill="#1BA3CE"/>
<path d="M147.761 111.056H137.394" stroke="#1BA3CE" stroke-width="1.27464" stroke-miterlimit="10"/>
<path d="M136.161 109.439H128.707" stroke="#1BA3CE" stroke-width="1.27464" stroke-miterlimit="10"/>
<path d="M131.262 113.717V105.743H136.702" stroke="#1BA3CE" stroke-width="1.27464" stroke-miterlimit="10"/>
<path d="M129.637 117.168C129.181 117.168 128.849 116.823 128.849 116.36C128.849 115.898 129.181 115.553 129.633 115.553C129.997 115.553 130.28 115.788 130.357 116.109H130.074C130.013 115.926 129.852 115.8 129.633 115.8C129.326 115.8 129.12 116.044 129.12 116.364C129.12 116.685 129.326 116.928 129.633 116.928C129.852 116.928 130.017 116.799 130.078 116.612H130.361C130.276 116.941 129.993 117.168 129.637 117.168Z" fill="#1BA3CE"/>
<path d="M132.455 116.36C132.455 116.823 132.123 117.168 131.671 117.168C131.214 117.168 130.882 116.823 130.882 116.36C130.882 115.898 131.214 115.553 131.671 115.553C132.123 115.553 132.455 115.898 132.455 116.36ZM131.153 116.36C131.153 116.681 131.363 116.924 131.666 116.924C131.97 116.924 132.18 116.681 132.18 116.36C132.18 116.04 131.97 115.796 131.666 115.796C131.363 115.796 131.153 116.04 131.153 116.36Z" fill="#1BA3CE"/>
<path d="M133.797 115.832H133.457V117.127H133.183V115.832H132.879V115.589H133.183V115.329C133.183 115.074 133.332 114.895 133.595 114.895C133.664 114.895 133.728 114.899 133.773 114.911V115.147C133.736 115.139 133.68 115.139 133.639 115.139C133.526 115.139 133.457 115.212 133.457 115.337V115.589H133.797V115.832Z" fill="#1BA3CE"/>
<path d="M135.134 115.832H134.795V117.127H134.52V115.832H134.217V115.589H134.52V115.329C134.52 115.074 134.67 114.895 134.932 114.895C135.001 114.895 135.066 114.899 135.11 114.911V115.147C135.074 115.139 135.017 115.139 134.977 115.139C134.864 115.139 134.795 115.212 134.795 115.337V115.589H135.134V115.832Z" fill="#1BA3CE"/>
<path d="M135.539 116.36C135.539 115.898 135.862 115.553 136.311 115.553C136.759 115.553 137.079 115.898 137.079 116.36C137.079 116.397 137.079 116.437 137.075 116.474H135.817C135.846 116.738 136.036 116.937 136.311 116.937C136.521 116.937 136.682 116.839 136.739 116.713H137.022C136.937 116.981 136.662 117.172 136.311 117.172C135.862 117.168 135.539 116.823 135.539 116.36ZM136.311 115.788C136.036 115.788 135.846 115.983 135.817 116.251H136.808C136.775 115.979 136.585 115.788 136.311 115.788Z" fill="#1BA3CE"/>
<path d="M137.616 116.36C137.616 115.898 137.94 115.553 138.388 115.553C138.837 115.553 139.156 115.898 139.156 116.36C139.156 116.397 139.156 116.437 139.152 116.474H137.895C137.923 116.738 138.113 116.937 138.388 116.937C138.598 116.937 138.76 116.839 138.817 116.713H139.1C139.015 116.981 138.74 117.172 138.388 117.172C137.94 117.168 137.616 116.823 137.616 116.36ZM138.388 115.788C138.113 115.788 137.923 115.983 137.895 116.251H138.885C138.853 115.979 138.663 115.788 138.388 115.788Z" fill="#1BA3CE"/>
<path d="M143.138 117.168C142.681 117.168 142.35 116.823 142.35 116.36C142.35 115.898 142.681 115.553 143.134 115.553C143.498 115.553 143.78 115.788 143.857 116.109H143.574C143.514 115.926 143.352 115.8 143.134 115.8C142.827 115.8 142.62 116.044 142.62 116.364C142.62 116.685 142.827 116.928 143.134 116.928C143.352 116.928 143.518 116.799 143.578 116.612H143.861C143.776 116.941 143.494 117.168 143.138 117.168Z" fill="#1BA3CE"/>
<path d="M145.955 116.36C145.955 116.823 145.624 117.168 145.171 117.168C144.714 117.168 144.383 116.823 144.383 116.36C144.383 115.898 144.714 115.553 145.171 115.553C145.628 115.553 145.955 115.898 145.955 116.36ZM144.658 116.36C144.658 116.681 144.868 116.924 145.171 116.924C145.474 116.924 145.684 116.681 145.684 116.36C145.684 116.04 145.474 115.796 145.171 115.796C144.868 115.796 144.658 116.04 144.658 116.36Z" fill="#1BA3CE"/>
<path d="M146.857 115.589V115.808C146.925 115.695 147.063 115.553 147.322 115.553C147.548 115.553 147.726 115.679 147.799 115.877C147.892 115.683 148.081 115.553 148.344 115.553C148.672 115.553 148.906 115.804 148.906 116.194V117.131H148.631V116.239C148.631 115.963 148.498 115.792 148.28 115.792C148.049 115.792 147.883 116.019 147.883 116.299V117.131H147.609V116.251C147.609 115.963 147.471 115.796 147.257 115.796C147.031 115.796 146.861 116.023 146.861 116.299V117.131H146.586V115.589H146.857V115.589Z" fill="#1BA3CE"/>
<path d="M149.843 116.9V117.785H149.568V115.589H149.843V115.817C149.92 115.683 150.11 115.549 150.389 115.549C150.825 115.549 151.149 115.898 151.149 116.356C151.149 116.819 150.825 117.164 150.389 117.164C150.11 117.168 149.924 117.034 149.843 116.9ZM150.878 116.36C150.878 116.04 150.676 115.796 150.365 115.796C150.053 115.796 149.839 116.04 149.839 116.36C149.839 116.681 150.053 116.925 150.365 116.925C150.676 116.925 150.878 116.681 150.878 116.36Z" fill="#1BA3CE"/>
<path d="M151.691 116.36C151.691 115.898 152.014 115.553 152.451 115.553C152.73 115.553 152.92 115.687 152.996 115.821V115.593H153.271V117.135H152.996V116.908C152.92 117.042 152.73 117.176 152.451 117.176C152.018 117.168 151.691 116.823 151.691 116.36ZM153.001 116.36C153.001 116.04 152.786 115.796 152.475 115.796C152.168 115.796 151.962 116.04 151.962 116.36C151.962 116.681 152.164 116.924 152.475 116.924C152.786 116.924 153.001 116.681 153.001 116.36Z" fill="#1BA3CE"/>
<path d="M154.253 115.589V115.825C154.318 115.711 154.492 115.553 154.775 115.553C155.138 115.553 155.393 115.812 155.393 116.23V117.131H155.118V116.275C155.118 115.963 154.969 115.792 154.718 115.792C154.451 115.792 154.257 116.044 154.257 116.332V117.131H153.982V115.589H154.253Z" fill="#1BA3CE"/>
<path d="M157.419 115.589L156.461 117.785H156.182L156.485 117.099L155.826 115.589H156.129L156.622 116.803L157.132 115.589H157.419Z" fill="#1BA3CE"/>
<g opacity="0.85">
<path d="M160.145 76.9922C160.367 77.5928 160.586 78.1974 160.808 78.798Z" fill="white"/>
<path d="M160.145 76.9922C160.367 77.5928 160.586 78.1974 160.808 78.798" stroke="white" stroke-width="1.27464" stroke-miterlimit="10" stroke-linecap="round"/>
</g>
<g opacity="0.85">
<path d="M151.446 66.6802C152.8 67.4959 154.534 68.7498 156.196 70.6287C157.15 71.7082 157.885 72.7673 158.443 73.7047" fill="white"/>
<path d="M151.446 66.6802C152.8 67.4959 154.534 68.7498 156.196 70.6287C157.15 71.7082 157.885 72.7673 158.443 73.7047" stroke="white" stroke-width="1.27464" stroke-miterlimit="10" stroke-linecap="round"/>
</g>
<path d="M163.432 74.7411C164.493 77.3122 165.058 80.0613 165.098 82.8422H143.188L121.278 82.8422C121.318 80.0613 121.883 77.3123 122.944 74.7411C124.045 72.0717 125.659 69.6463 127.694 67.6034C129.729 65.5605 132.145 63.9401 134.803 62.8345C137.461 61.729 140.311 61.16 143.188 61.16C146.066 61.16 148.915 61.729 151.573 62.8345C154.232 63.9401 156.647 65.5605 158.682 67.6034C160.717 69.6463 162.331 72.0717 163.432 74.7411Z" fill="white" fill-opacity="0.3" stroke="black" stroke-width="0.637322"/>
<rect x="88" y="160" width="110" height="50" fill="#EEEEEE"/>
<rect x="98" y="174" width="1" height="24" fill="#222222" fill-opacity="0.8"/>
<rect x="100" y="174" width="1" height="24" fill="#222222" fill-opacity="0.8"/>
<rect x="102" y="174" width="1" height="24" fill="#222222" fill-opacity="0.8"/>
<rect x="104" y="174" width="1" height="24" fill="#222222" fill-opacity="0.8"/>
<rect x="126" y="174" width="1" height="24" fill="#222222" fill-opacity="0.8"/>
<rect x="128" y="174" width="1" height="24" fill="#222222" fill-opacity="0.8"/>
<rect x="130" y="174" width="1" height="24" fill="#222222" fill-opacity="0.8"/>
<rect x="132" y="174" width="1" height="24" fill="#222222" fill-opacity="0.8"/>
<rect x="149" y="174" width="1" height="24" fill="#222222" fill-opacity="0.8"/>
<rect x="151" y="174" width="1" height="24" fill="#222222" fill-opacity="0.8"/>
<rect x="153" y="174" width="1" height="24" fill="#222222" fill-opacity="0.8"/>
<rect x="155" y="174" width="1" height="24" fill="#222222" fill-opacity="0.8"/>
<rect x="157" y="174" width="1" height="24" fill="#222222" fill-opacity="0.8"/>
<rect x="186" y="174" width="1" height="24" fill="#222222" fill-opacity="0.8"/>
<rect x="188" y="174" width="1" height="24" fill="#222222" fill-opacity="0.8"/>
<rect x="106" y="174" width="2" height="24" fill="#222222" fill-opacity="0.8"/>
<rect x="134" y="174" width="2" height="24" fill="#222222" fill-opacity="0.8"/>
<rect x="137" y="174" width="2" height="24" fill="#222222" fill-opacity="0.8"/>
<rect x="140" y="174" width="2" height="24" fill="#222222" fill-opacity="0.8"/>
<rect x="159" y="174" width="2" height="24" fill="#222222" fill-opacity="0.8"/>
<rect x="162" y="174" width="2" height="24" fill="#222222" fill-opacity="0.8"/>
<rect x="165" y="174" width="2" height="24" fill="#222222" fill-opacity="0.8"/>
<rect x="109" y="174" width="2" height="24" fill="#222222" fill-opacity="0.8"/>
<rect x="112" y="174" width="5" height="24" fill="#222222" fill-opacity="0.8"/>
<rect x="143" y="174" width="5" height="24" fill="#222222" fill-opacity="0.8"/>
<rect x="176" y="174" width="5" height="24" fill="#222222" fill-opacity="0.8"/>
<rect x="118" y="174" width="3" height="24" fill="#222222" fill-opacity="0.8"/>
<rect x="168" y="174" width="3" height="24" fill="#222222" fill-opacity="0.8"/>
<rect x="172" y="174" width="3" height="24" fill="#222222" fill-opacity="0.8"/>
<rect x="182" y="174" width="3" height="24" fill="#222222" fill-opacity="0.8"/>
<rect x="122" y="174" width="3" height="24" fill="#222222" fill-opacity="0.8"/>
<path d="M199.803 150.375C192.064 148.26 195.444 125.258 204.532 124.649C211.525 124.181 215.088 127.352 214.421 134.939C213.755 142.507 206.58 152.227 199.803 150.375Z" fill="#FDF3EE"/>
<path d="M195.507 164.82C195.328 159.679 198.504 154.068 202.609 152.824C207.49 151.344 210.5 157.623 210.5 163.381C210.5 166.74 205.304 176.034 200.242 174.417C196.396 173.189 195.676 169.652 195.507 164.82Z" fill="#FDF3EE"/>
<path d="M201.647 120.605C194.932 120.347 194.124 93.2982 203.21 94.1046C209.622 94.6738 213.562 103.567 213.103 110.121C212.674 116.238 207.651 120.835 201.647 120.605Z" fill="#FDF3EE"/>
<path d="M202 121.104C193.5 120.785 194.5 91.1043 206 92.1043C214.117 92.8101 217.082 99.9777 216.5 108.104C215.957 115.69 209.6 121.39 202 121.104Z" stroke="black" stroke-width="1.5"/>
<path d="M201 150.604C192 148.344 195.931 123.755 206.5 123.105C214.632 122.604 218.776 125.994 218 134.105C217.227 142.194 208.881 152.584 201 150.604Z" stroke="black" stroke-width="1.5"/>
<path d="M196 164.104C195.773 158.748 199.797 152.901 205 151.604C211.186 150.062 215 156.604 215 162.605C215 166.105 208.416 175.789 202 174.104C197.126 172.825 196.213 169.139 196 164.104Z" stroke="black" stroke-width="1.5"/>
</svg>
