<svg width="80" height="80" viewBox="0 0 80 80" fill="none" xmlns="http://www.w3.org/2000/svg">
<path d="M66.6666 43.3335C61.0733 43.3335 55.8366 44.8668 51.3566 47.5302C55.3459 52.1922 58.4421 57.5494 60.49 63.3335H66.6666V43.3335ZM53.3466 63.3335C46.8133 47.6735 31.36 36.6668 13.3333 36.6668V63.3335H53.3466ZM13.3333 30.0002C26.1 30.0002 37.7433 34.7835 46.58 42.6535C52.5462 38.7369 59.5297 36.6555 66.6666 36.6668V10.0002H70.0266C71.8533 10.0002 73.3333 11.4835 73.3333 13.3102V66.6902C73.3272 67.5656 72.977 68.4034 72.3583 69.0228C71.7395 69.6421 70.902 69.9932 70.0266 70.0002H9.97329C9.096 69.9993 8.25495 69.6502 7.63492 69.0295C7.0149 68.4089 6.66663 67.5675 6.66663 66.6902V13.3102C6.67273 12.4348 7.02296 11.5969 7.64167 10.9776C8.26038 10.3582 9.09789 10.0071 9.97329 10.0002H20V3.3335H26.6666V16.6668H13.3333V30.0002ZM60 3.3335V16.6668H33.3333V10.0002H53.3333V3.3335H60ZM55 33.3335C53.6739 33.3335 52.4021 32.8067 51.4644 31.869C50.5267 30.9313 50 29.6596 50 28.3335C50 27.0074 50.5267 25.7356 51.4644 24.798C52.4021 23.8603 53.6739 23.3335 55 23.3335C56.326 23.3335 57.5978 23.8603 58.5355 24.798C59.4732 25.7356 60 27.0074 60 28.3335C60 29.6596 59.4732 30.9313 58.5355 31.869C57.5978 32.8067 56.326 33.3335 55 33.3335Z" fill="#CCCCCC"/>
</svg>
