<svg width="40" height="40" viewBox="0 0 40 40" fill="none" xmlns="http://www.w3.org/2000/svg">
<g clip-path="url(#clip0)">
<g clip-path="url(#clip1)">
<path d="M38.5936 15.5087C38.4143 14.9524 38.0846 14.4566 37.641 14.0762C37.1974 13.6957 36.6571 13.4455 36.08 13.3531L27.0246 11.8814L22.8268 3.7241C22.5594 3.20479 22.1541 2.76916 21.6555 2.46503C21.1568 2.16089 20.584 2 19.9999 2C19.4158 2 18.8429 2.16089 18.3442 2.46503C17.8456 2.76916 17.4403 3.20479 17.1729 3.7241L12.9751 11.8814L3.91986 13.3531C3.34335 13.4469 2.80382 13.6977 2.36048 14.078C1.91714 14.4583 1.58711 14.9534 1.40661 15.5089C1.22611 16.0644 1.20211 16.6589 1.33724 17.2271C1.47238 17.7954 1.76142 18.3154 2.17267 18.7302L8.63361 25.2433L7.23517 34.3101C7.14543 34.8876 7.2167 35.4787 7.44114 36.0183C7.66558 36.5579 8.03449 37.0251 8.50729 37.3686C8.9801 37.7122 9.53848 37.9186 10.121 37.9653C10.7036 38.012 11.2877 37.8972 11.8092 37.6334L19.9999 33.5014L28.1907 37.6334C28.7123 37.8966 29.2963 38.0111 29.8786 37.9641C30.4609 37.9172 31.019 37.7107 31.4917 37.3673C31.9643 37.0239 32.3332 36.5569 32.5578 36.0176C32.7824 35.4783 32.854 34.8875 32.7648 34.3101L31.3663 25.2433L37.8273 18.7302C38.2398 18.3162 38.5298 17.7962 38.665 17.2276C38.8003 16.659 38.7756 16.0641 38.5936 15.5087Z" fill="#EEEEEE"/>
</g>
</g>
<defs>
<clipPath id="clip0">
<rect width="40" height="40" fill="white"/>
</clipPath>
<clipPath id="clip1">
<rect width="40" height="40" fill="white"/>
</clipPath>
</defs>
</svg>
