<svg width="84" height="26" viewBox="0 0 84 26" fill="none" xmlns="http://www.w3.org/2000/svg">
<path d="M10.788 0.999999V11.248H8.892V6.688H8.04V11.068H6.168V1.048H8.04V4.768H8.892V0.999999H10.788ZM3.3 8.98C3.716 8.98 4.14 8.952 4.572 8.896C5.012 8.832 5.384 8.744 5.688 8.632V10.408C5.4 10.528 5.016 10.616 4.536 10.672C4.064 10.736 3.592 10.768 3.12 10.768H0.768V1.216H2.748V8.98H3.3ZM22.955 2.764V4.732H21.755V6.784H19.727V0.999999H21.755V2.764H22.955ZM18.611 6.4H12.359V1.12H14.327V2.14H16.643V1.12H18.611V6.4ZM16.643 4.768V3.724H14.327V4.768H16.643ZM17.231 6.952C18.639 6.952 19.759 7.128 20.591 7.48C21.431 7.824 21.851 8.384 21.851 9.16C21.851 9.936 21.431 10.496 20.591 10.84C19.759 11.192 18.639 11.368 17.231 11.368C15.823 11.368 14.699 11.192 13.859 10.84C13.027 10.496 12.611 9.936 12.611 9.16C12.611 8.384 13.027 7.824 13.859 7.48C14.699 7.128 15.823 6.952 17.231 6.952ZM17.231 9.772C17.967 9.772 18.555 9.724 18.995 9.628C19.443 9.532 19.667 9.376 19.667 9.16C19.667 8.952 19.443 8.8 18.995 8.704C18.547 8.6 17.959 8.548 17.231 8.548C16.503 8.548 15.915 8.6 15.467 8.704C15.019 8.8 14.795 8.952 14.795 9.16C14.795 9.376 15.015 9.532 15.455 9.628C15.903 9.724 16.495 9.772 17.231 9.772ZM37.0452 3.304H27.3972V1.588H31.1772V0.748H33.2652V1.588H37.0452V3.304ZM27.7572 5.632C27.7572 4.96 28.1612 4.456 28.9692 4.12C29.7772 3.784 30.8612 3.616 32.2212 3.616C33.5812 3.616 34.6652 3.784 35.4732 4.12C36.2812 4.456 36.6852 4.96 36.6852 5.632C36.6852 6.304 36.2812 6.808 35.4732 7.144C34.6652 7.48 33.5812 7.648 32.2212 7.648C30.8612 7.648 29.7772 7.48 28.9692 7.144C28.1612 6.808 27.7572 6.304 27.7572 5.632ZM34.6212 5.632C34.6212 5.496 34.4012 5.392 33.9612 5.32C33.5292 5.24 32.9492 5.2 32.2212 5.2C31.4932 5.2 30.9092 5.24 30.4692 5.32C30.0372 5.392 29.8212 5.496 29.8212 5.632C29.8212 5.768 30.0372 5.876 30.4692 5.956C30.9092 6.028 31.4932 6.064 32.2212 6.064C32.9492 6.064 33.5292 6.028 33.9612 5.956C34.4012 5.876 34.6212 5.768 34.6212 5.632ZM37.4052 9.88H33.2652V11.488H31.1772V9.88H27.0372V8.08H37.4052V9.88ZM48.4922 11.248H46.4642V0.999999H48.4922V11.248ZM44.8802 4.012C44.8802 5.388 44.6362 6.584 44.1482 7.6C43.6682 8.616 42.9842 9.4 42.0962 9.952C41.2082 10.496 40.1682 10.768 38.9762 10.768V8.848C40.2002 8.84 41.1442 8.408 41.8082 7.552C42.4722 6.696 42.8042 5.516 42.8042 4.012V3.088H38.9762V1.24H44.8802V4.012ZM59.8672 2.548H52.7632V3.268H59.9872V4.816H50.7472V0.999999H59.8672V2.548ZM60.4912 6.904H50.1232V5.344H60.4912V6.904ZM55.3072 7.336C56.7792 7.336 57.9312 7.5 58.7632 7.828C59.5952 8.148 60.0112 8.66 60.0112 9.364C60.0112 10.068 59.5952 10.58 58.7632 10.9C57.9312 11.228 56.7792 11.392 55.3072 11.392C53.8352 11.392 52.6832 11.228 51.8512 10.9C51.0192 10.58 50.6032 10.068 50.6032 9.364C50.6032 8.66 51.0192 8.148 51.8512 7.828C52.6832 7.5 53.8352 7.336 55.3072 7.336ZM55.3072 8.848C54.5232 8.848 53.9032 8.892 53.4472 8.98C52.9912 9.06 52.7632 9.188 52.7632 9.364C52.7632 9.708 53.6112 9.88 55.3072 9.88C57.0032 9.88 57.8512 9.708 57.8512 9.364C57.8512 9.188 57.6232 9.06 57.1672 8.98C56.7112 8.892 56.0912 8.848 55.3072 8.848ZM72.0341 6.292V7.84H61.6661V6.292H65.8421V5.764H62.3021V2.788H69.4301V2.32H62.2781V0.999999H71.4101V3.976H64.2821V4.444H71.5181V5.764H67.8581V6.292H72.0341ZM62.2181 8.308H71.4341V11.368H69.3821V9.856H62.2181V8.308ZM78.3931 0.831999C79.8331 0.831999 80.9691 0.983999 81.8011 1.288C82.6331 1.592 83.0491 2.084 83.0491 2.764C83.0491 3.444 82.6331 3.936 81.8011 4.24C80.9691 4.544 79.8331 4.696 78.3931 4.696C76.9531 4.696 75.8171 4.544 74.9851 4.24C74.1531 3.936 73.7371 3.444 73.7371 2.764C73.7371 2.084 74.1531 1.592 74.9851 1.288C75.8171 0.983999 76.9531 0.831999 78.3931 0.831999ZM78.3931 2.284C77.6011 2.284 76.9851 2.324 76.5451 2.404C76.1051 2.484 75.8851 2.604 75.8851 2.764C75.8851 3.084 76.7211 3.244 78.3931 3.244C80.0651 3.244 80.9011 3.084 80.9011 2.764C80.9011 2.604 80.6811 2.484 80.2411 2.404C79.8011 2.324 79.1851 2.284 78.3931 2.284ZM83.5771 6.508H73.2091V5.032H83.5771V6.508ZM82.9771 9.58H75.8011V9.928H83.0851V11.248H73.8211V8.524H80.9971V8.176H73.7971V6.904H82.9771V9.58ZM7.62 21.372C7.052 21.62 6.156 21.744 4.932 21.744H0.588V20.112H2.976V19.392C2.296 19.256 1.764 18.996 1.38 18.612C0.996 18.228 0.804 17.752 0.804 17.184C0.804 16.728 0.932 16.328 1.188 15.984C1.452 15.632 1.824 15.364 2.304 15.18C2.784 14.988 3.344 14.892 3.984 14.892C4.624 14.892 5.184 14.988 5.664 15.18C6.144 15.364 6.512 15.632 6.768 15.984C7.032 16.328 7.164 16.728 7.164 17.184C7.164 17.752 6.968 18.232 6.576 18.624C6.192 19.008 5.66 19.264 4.98 19.392V20.112C5.5 20.112 5.996 20.084 6.468 20.028C6.94 19.964 7.324 19.868 7.62 19.74V21.372ZM11.412 17.328V19.236H10.236V22.776H8.208V15H10.236V17.328H11.412ZM2.772 17.184C2.772 17.424 2.88 17.62 3.096 17.772C3.312 17.916 3.608 17.988 3.984 17.988C4.36 17.988 4.656 17.916 4.872 17.772C5.088 17.62 5.196 17.424 5.196 17.184C5.196 16.944 5.088 16.752 4.872 16.608C4.656 16.456 4.36 16.38 3.984 16.38C3.608 16.38 3.312 16.456 3.096 16.608C2.88 16.752 2.772 16.944 2.772 17.184ZM3.252 23.532H10.38V25.248H1.2V22.26H3.252V23.532ZM22.499 23.064V24.888H12.131V23.064H14.339V21.84H12.707V17.7H19.931V17.004H12.683V15.24H21.935V19.38H14.711V20.076H22.055V21.84H20.291V23.064H22.499ZM16.367 23.064H18.263V21.84H16.367V23.064ZM28.9299 17.196H23.4339V15.696H25.2219V14.844H27.2379V15.696H28.9299V17.196ZM31.1979 21.264H29.3739V15.048H31.1979V17.1H32.0259V15H33.8739V21.396H32.0259V18.948H31.1979V21.264ZM26.2539 21.324C25.7819 21.324 25.3539 21.248 24.9699 21.096C24.5859 20.936 24.2819 20.708 24.0579 20.412C23.8339 20.116 23.7219 19.772 23.7219 19.38C23.7219 18.988 23.8339 18.644 24.0579 18.348C24.2819 18.052 24.5859 17.828 24.9699 17.676C25.3539 17.516 25.7819 17.436 26.2539 17.436C26.7259 17.436 27.1539 17.516 27.5379 17.676C27.9219 17.828 28.2259 18.052 28.4499 18.348C28.6739 18.644 28.7859 18.988 28.7859 19.38C28.7859 19.772 28.6739 20.116 28.4499 20.412C28.2259 20.708 27.9219 20.936 27.5379 21.096C27.1539 21.248 26.7259 21.324 26.2539 21.324ZM26.2539 18.84C26.0379 18.84 25.8539 18.892 25.7019 18.996C25.5579 19.092 25.4859 19.22 25.4859 19.38C25.4859 19.54 25.5579 19.672 25.7019 19.776C25.8539 19.872 26.0379 19.92 26.2539 19.92C26.4699 19.92 26.6499 19.872 26.7939 19.776C26.9459 19.672 27.0219 19.54 27.0219 19.38C27.0219 19.22 26.9459 19.092 26.7939 18.996C26.6499 18.892 26.4699 18.84 26.2539 18.84ZM33.4779 25.356L31.4739 24.216C31.0979 24.544 30.6659 24.796 30.1779 24.972C29.6899 25.156 29.1859 25.248 28.6659 25.248L26.9619 24.216C26.5779 24.544 26.1419 24.796 25.6539 24.972C25.1739 25.156 24.6739 25.248 24.1539 25.248V23.508C24.4899 23.508 24.8139 23.424 25.1259 23.256C25.4459 23.08 25.7139 22.848 25.9299 22.56C26.1539 22.272 26.2859 21.968 26.3259 21.648L28.2459 21.96C28.2059 22.264 28.1099 22.584 27.9579 22.92L29.0259 23.472C29.4739 23.384 29.8739 23.168 30.2259 22.824C30.5779 22.472 30.7819 22.08 30.8379 21.648L32.7579 21.96C32.7099 22.288 32.6139 22.604 32.4699 22.908L34.4019 23.856L33.4779 25.356ZM46.0409 20.712H44.8409V25.248H42.8129V15H44.8409V18.744H46.0409V20.712ZM39.6809 22.932C40.1769 22.932 40.6649 22.892 41.1449 22.812C41.6329 22.732 42.0289 22.62 42.3329 22.476V24.288C42.0369 24.44 41.6249 24.556 41.0969 24.636C40.5769 24.724 40.0569 24.768 39.5369 24.768H35.5649V15.24H41.5289V17.076H37.6289V22.932H39.6809ZM54.7279 20.124H53.6359V18.336H54.7279V17.532H53.6359V15.744H54.7279V15H56.7199V22.596H54.7279V20.124ZM53.1559 20.952H47.0479V15.12H53.1559V20.952ZM51.1639 16.836H49.0399V19.236H51.1639V16.836ZM56.8639 23.436V25.248H47.5519V21.66H49.6159V23.436H56.8639ZM60.4988 21.84C60.4988 21.248 60.5868 20.764 60.7628 20.388C60.9468 20.012 61.2588 19.66 61.6988 19.332C62.0908 19.028 62.3708 18.776 62.5388 18.576C62.7068 18.368 62.7908 18.128 62.7908 17.856C62.7908 17.552 62.6868 17.316 62.4788 17.148C62.2708 16.972 61.9788 16.884 61.6028 16.884C61.2188 16.884 60.9148 17 60.6908 17.232C60.4748 17.456 60.3668 17.732 60.3668 18.06H58.2788C58.2788 17.492 58.4188 16.98 58.6988 16.524C58.9868 16.06 59.3788 15.696 59.8748 15.432C60.3788 15.168 60.9508 15.036 61.5908 15.036C62.2708 15.036 62.8548 15.156 63.3428 15.396C63.8308 15.636 64.2028 15.972 64.4588 16.404C64.7148 16.828 64.8428 17.312 64.8428 17.856C64.8428 18.696 64.4388 19.428 63.6308 20.052C63.1908 20.396 62.8868 20.696 62.7188 20.952C62.5588 21.208 62.4788 21.504 62.4788 21.84H60.4988ZM61.5548 25.248C61.1868 25.248 60.8828 25.128 60.6428 24.888C60.4028 24.656 60.2828 24.356 60.2828 23.988C60.2828 23.62 60.4028 23.316 60.6428 23.076C60.8828 22.836 61.1868 22.716 61.5548 22.716C61.9228 22.716 62.2268 22.836 62.4668 23.076C62.7068 23.316 62.8268 23.62 62.8268 23.988C62.8268 24.356 62.7068 24.656 62.4668 24.888C62.2268 25.128 61.9228 25.248 61.5548 25.248Z" fill="#888888"/>
</svg>
