<svg width="91" height="78" viewBox="0 0 91 78" fill="none" xmlns="http://www.w3.org/2000/svg">
<path d="M16.04 5.368V0.999999H20.096V16.192H16.04V8.896H13.304V5.368H16.04ZM7.496 9.832C6.664 10.952 5.648 11.848 4.448 12.52C3.248 13.192 1.944 13.544 0.536 13.576V9.904C1.864 9.808 2.952 9.264 3.8 8.272C4.664 7.264 5.192 6.072 5.384 4.696H0.824V1.24H13.88V4.696H9.464C9.416 5.352 9.296 5.992 9.104 6.616L14.768 10.528L12.488 13.408L7.496 9.832ZM20.384 17.872V21.496H1.76V14.32H5.888V17.872H20.384ZM36.9659 6.232H23.1419V2.776H27.9419V0.855999H32.1179V2.776H36.9659V6.232ZM44.9099 12.232H42.5579V21.496H38.5019V0.999999H42.5579V8.296H44.9099V12.232ZM32.0459 16.96C33.0699 16.96 34.0539 16.896 34.9979 16.768C35.9419 16.624 36.7179 16.416 37.3259 16.144V19.72C36.7179 19.992 35.9419 20.192 34.9979 20.32C34.0539 20.464 33.0379 20.536 31.9499 20.536H23.2619V16.96H28.0139V15.208C26.7339 14.968 25.7259 14.504 24.9899 13.816C24.2539 13.112 23.8859 12.216 23.8859 11.128C23.8859 9.768 24.4539 8.72 25.5899 7.984C26.7419 7.232 28.2379 6.856 30.0779 6.856C31.9179 6.856 33.4059 7.232 34.5419 7.984C35.6939 8.72 36.2699 9.768 36.2699 11.128C36.2699 12.232 35.8859 13.136 35.1179 13.84C34.3659 14.528 33.3419 14.992 32.0459 15.232V16.96ZM27.6779 11.128C27.6779 11.48 27.8939 11.752 28.3259 11.944C28.7579 12.12 29.3419 12.208 30.0779 12.208C30.8139 12.208 31.3979 12.12 31.8299 11.944C32.2619 11.752 32.4779 11.48 32.4779 11.128C32.4779 10.776 32.2619 10.512 31.8299 10.336C31.3979 10.144 30.8139 10.048 30.0779 10.048C29.3419 10.048 28.7579 10.144 28.3259 10.336C27.8939 10.512 27.6779 10.776 27.6779 11.128ZM59.4279 13.216H46.9239V1.24H50.8839V3.832H55.4679V1.24H59.4279V5.2H62.2119V0.999999H66.2679V16.168H62.2119V9.016H59.4279V13.216ZM55.4679 9.832V7.144H50.8839V9.832H55.4679ZM66.5559 17.848V21.496H47.9319V14.416H52.0599V17.848H66.5559ZM89.4978 6.256H70.1058V2.704H77.7138V0.735999H81.8898V2.704H89.4978V6.256ZM90.1698 17.176V20.776H69.4338V17.176H77.7378V15.376C75.5778 15.232 73.8818 14.816 72.6498 14.128C71.4178 13.44 70.8018 12.464 70.8018 11.2C70.8018 9.744 71.6098 8.672 73.2258 7.984C74.8578 7.296 77.0498 6.952 79.8018 6.952C82.5538 6.952 84.7378 7.296 86.3538 7.984C87.9858 8.672 88.8018 9.744 88.8018 11.2C88.8018 12.464 88.1858 13.44 86.9538 14.128C85.7218 14.816 84.0258 15.232 81.8658 15.376V17.176H90.1698ZM74.9538 11.2C74.9538 11.856 76.5698 12.184 79.8018 12.184C83.0338 12.184 84.6498 11.856 84.6498 11.2C84.6498 10.544 83.0338 10.216 79.8018 10.216C76.5698 10.216 74.9538 10.544 74.9538 11.2ZM20 29V39.608H15.944V29H20ZM13.544 34.304C13.544 35.36 13.264 36.288 12.704 37.088C12.144 37.888 11.36 38.504 10.352 38.936C9.344 39.368 8.184 39.584 6.872 39.584C5.56 39.584 4.4 39.368 3.392 38.936C2.384 38.504 1.6 37.888 1.04 37.088C0.48 36.288 0.2 35.36 0.2 34.304C0.2 33.248 0.48 32.328 1.04 31.544C1.6 30.744 2.384 30.128 3.392 29.696C4.4 29.248 5.56 29.024 6.872 29.024C8.184 29.024 9.344 29.248 10.352 29.696C11.36 30.128 12.144 30.744 12.704 31.544C13.264 32.328 13.544 33.248 13.544 34.304ZM4.232 34.304C4.232 34.912 4.472 35.4 4.952 35.768C5.432 36.136 6.072 36.32 6.872 36.32C7.672 36.32 8.312 36.136 8.792 35.768C9.272 35.4 9.512 34.912 9.512 34.304C9.512 33.696 9.272 33.208 8.792 32.84C8.312 32.472 7.672 32.288 6.872 32.288C6.072 32.288 5.432 32.472 4.952 32.84C4.472 33.208 4.232 33.696 4.232 34.304ZM16.016 40.328H20V49.496H1.904V40.328H5.888V41.672H16.016V40.328ZM16.016 46.28V44.816H5.888V46.28H16.016ZM43.1819 29V41.768H39.1979V38.888H37.0619V40.664C36.5339 40.84 35.8139 40.984 34.9019 41.096C34.0059 41.208 33.0779 41.264 32.1179 41.264H23.8379V33.776H31.4219V32.36H23.7899V29.24H35.4059V36.704H27.8459V38.144H32.3339C34.0139 38.144 35.4139 38.008 36.5339 37.736V35.504H39.1979V34.184H36.5339V30.8H39.1979V29H43.1819ZM24.7499 42.488H43.1819V49.736H39.0539V45.872H24.7499V42.488ZM21.824 68.424H19.424V77.496H15.368V57H19.424V64.488H21.824V68.424ZM8.816 57.48H12.8V76.536H0.872V57.48H4.856V63.504H8.816V57.48ZM8.816 72.816V67.2H4.856V72.816H8.816ZM43.9979 73.08V76.776H23.2619V73.08H31.5659V70.776H24.4139V62.424H38.8619V61.032H24.3659V57.48H42.8699V65.808H28.4219V67.224H43.1099V70.776H35.6939V73.08H43.9979ZM67.9959 68.424H65.5959V77.496H61.5399V57H65.5959V64.488H67.9959V68.424ZM46.9239 57.48H58.5159V63.024C58.5159 65.776 58.0439 68.168 57.0999 70.2C56.1559 72.232 54.8119 73.8 53.0679 74.904C51.3239 75.992 49.2759 76.536 46.9239 76.536V72.696C49.3559 72.68 51.2039 71.824 52.4679 70.128C53.7479 68.432 54.3879 66.064 54.3879 63.024V61.176H46.9239V57.48ZM89.2578 77.496H85.2018V57H89.2578V77.496ZM82.0338 63.024C82.0338 65.776 81.5458 68.168 80.5698 70.2C79.6098 72.232 78.2418 73.8 76.4658 74.904C74.6898 75.992 72.6098 76.536 70.2258 76.536V72.696C72.6738 72.68 74.5618 71.816 75.8898 70.104C77.2178 68.392 77.8818 66.032 77.8818 63.024V61.176H70.2258V57.48H82.0338V63.024Z" fill="#6F22D2"/>
</svg>
