<svg width="123" height="98" viewBox="0 0 123 98" fill="none" xmlns="http://www.w3.org/2000/svg">
<path d="M25.49 7.10814H1.37V2.81814H10.82V0.718144H16.04V2.81814H25.49V7.10814ZM2.27 12.9281C2.27 11.2481 3.28 9.98814 5.3 9.14814C7.32 8.30814 10.03 7.88814 13.43 7.88814C16.83 7.88814 19.54 8.30814 21.56 9.14814C23.58 9.98814 24.59 11.2481 24.59 12.9281C24.59 14.6081 23.58 15.8681 21.56 16.7081C19.54 17.5481 16.83 17.9681 13.43 17.9681C10.03 17.9681 7.32 17.5481 5.3 16.7081C3.28 15.8681 2.27 14.6081 2.27 12.9281ZM19.43 12.9281C19.43 12.5881 18.88 12.3281 17.78 12.1481C16.7 11.9481 15.25 11.8481 13.43 11.8481C11.61 11.8481 10.15 11.9481 9.05 12.1481C7.97 12.3281 7.43 12.5881 7.43 12.9281C7.43 13.2681 7.97 13.5381 9.05 13.7381C10.15 13.9181 11.61 14.0081 13.43 14.0081C15.25 14.0081 16.7 13.9181 17.78 13.7381C18.88 13.5381 19.43 13.2681 19.43 12.9281ZM26.39 23.5481H16.04V27.5681H10.82V23.5481H0.47V19.0481H26.39V23.5481ZM54.1074 26.9681H49.0374V1.34814H54.1074V26.9681ZM45.0774 8.87814C45.0774 12.3181 44.4674 15.3081 43.2474 17.8481C42.0474 20.3881 40.3374 22.3481 38.1174 23.7281C35.8974 25.0881 33.2974 25.7681 30.3174 25.7681V20.9681C33.3774 20.9481 35.7374 19.8681 37.3974 17.7281C39.0574 15.5881 39.8874 12.6381 39.8874 8.87814V6.56814H30.3174V1.94814H45.0774V8.87814ZM65.5948 12.8981C64.7348 14.2981 63.7048 15.4081 62.5048 16.2281C61.3248 17.0481 60.0048 17.5081 58.5448 17.6081V12.7181C60.0248 12.4581 61.2148 11.2381 62.1148 9.05814C63.0148 6.85814 63.5548 4.28814 63.7348 1.34814L68.6848 1.94814C68.5648 4.16814 68.2148 6.26814 67.6348 8.24814L71.0848 12.0581C72.1448 11.2381 73.0048 9.84814 73.6648 7.88814C74.3248 5.90814 74.7248 3.72814 74.8648 1.34814L79.8148 1.94814C79.6948 4.16814 79.3448 6.28814 78.7648 8.30814L84.5248 14.3681L80.7448 17.3981L76.7548 12.8681C75.8748 14.2881 74.8348 15.4081 73.6348 16.2281C72.4548 17.0481 71.1348 17.5081 69.6748 17.6081L65.5948 12.8981ZM58.1848 21.3281H84.1048V26.0681H58.1848V21.3281ZM106.272 6.65814H88.3923V1.94814H111.552V18.8381H106.272V6.65814ZM112.962 21.3281V26.0681H87.0423V21.3281H95.3823V11.3081H100.632V21.3281H112.962ZM25.37 36.3481V61.9681H20.3V50.5381H15.29C14.35 53.7781 12.64 56.2881 10.16 58.0681C7.7 59.8481 4.76 60.7481 1.34 60.7681V56.0281C3.48 56.0081 5.31 55.5281 6.83 54.5881C8.35 53.6481 9.47 52.2281 10.19 50.3281H1.34V45.7381H11.03V44.9881V41.5981H1.34V36.9481H16.07V44.6281C16.07 45.1481 16.06 45.5381 16.04 45.7981H20.3V36.3481H25.37ZM54.0774 36.3481V61.9681H49.0074V36.3481H54.0774ZM44.7174 55.8481C45.9574 55.6281 46.9374 55.3481 47.6574 55.0081V59.5381C46.8974 59.9181 45.8774 60.2181 44.5974 60.4381C43.3374 60.6581 42.0774 60.7681 40.8174 60.7681H29.8374V56.1781H31.9974V41.5381H30.0174V36.9481H46.6974V41.5381H44.7174V55.8481ZM36.9774 56.1781H39.7374V41.5381H36.9774V56.1781ZM27.53 75.6981V80.6181H24.53V85.7481H19.46V71.3481H24.53V75.6981H27.53ZM16.67 84.9681H1.04V71.6481H5.96V74.2581H11.75V71.6481H16.67V84.9681ZM11.75 80.8881V78.2181H5.96V80.8881H11.75ZM7.01 92.8581H24.8V96.9681H1.91V86.6481H24.53V90.7581H7.01V92.8581ZM56.3874 85.6281H53.3874V96.9681H48.3174V71.3481H53.3874V80.7081H56.3874V85.6281ZM37.7574 71.6481C40.2374 71.6481 42.1774 72.6681 43.5774 74.7081C44.9774 76.7281 45.6774 79.7781 45.6774 83.8581C45.6774 87.9381 44.9774 90.9981 43.5774 93.0381C42.1774 95.0581 40.2374 96.0681 37.7574 96.0681C35.2774 96.0681 33.3274 95.0581 31.9074 93.0381C30.5074 90.9981 29.8074 87.9381 29.8074 83.8581C29.8074 79.7781 30.5074 76.7281 31.9074 74.7081C33.3274 72.6681 35.2774 71.6481 37.7574 71.6481ZM37.7574 91.4181C39.6974 91.4181 40.6674 88.8981 40.6674 83.8581C40.6674 78.8181 39.6974 76.2981 37.7574 76.2981C35.7974 76.2981 34.8174 78.8181 34.8174 83.8581C34.8174 88.8981 35.7974 91.4181 37.7574 91.4181ZM83.0848 71.3481V86.5881H78.0148V80.8581H74.5348V85.6281H58.9048V71.6481H74.5348V76.1181H78.0148V71.3481H83.0848ZM69.5248 75.8481H63.9148V81.4281H69.5248V75.8481ZM60.0448 87.4881H83.0848V97.2681H77.9248V91.8381H60.0448V87.4881ZM114.102 85.6281H111.102V96.9681H106.032V71.3481H111.102V80.7081H114.102V85.6281ZM98.7123 76.5981C98.6523 78.9381 98.4423 81.0781 98.0823 83.0181L105.402 92.6781L101.382 95.6481L96.3423 88.7181C95.3023 90.9581 93.9923 92.6881 92.4123 93.9081C90.8523 95.1281 89.1223 95.7481 87.2223 95.7681V90.6681C88.4623 90.5281 89.5523 89.8681 90.4923 88.6881C91.4323 87.4881 92.1723 85.8581 92.7123 83.7981C93.2523 81.7181 93.5523 79.3181 93.6123 76.5981H87.9423V71.9481H104.082V76.5981H98.7123ZM121.03 88.4481H117.31L115.93 72.0981H122.41L121.03 88.4481ZM119.17 90.6381C120.09 90.6381 120.85 90.9381 121.45 91.5381C122.05 92.1381 122.35 92.8981 122.35 93.8181C122.35 94.7381 122.05 95.4881 121.45 96.0681C120.85 96.6681 120.09 96.9681 119.17 96.9681C118.25 96.9681 117.49 96.6681 116.89 96.0681C116.29 95.4881 115.99 94.7381 115.99 93.8181C115.99 92.8981 116.29 92.1381 116.89 91.5381C117.49 90.9381 118.25 90.6381 119.17 90.6381Z" fill="#6F22D2"/>
</svg>
