<svg width="120" height="29" viewBox="0 0 120 29" fill="none" xmlns="http://www.w3.org/2000/svg">
<path d="M12.586 0.499999V12.456H10.374V7.136H9.38V12.246H7.196V0.555999H9.38V4.896H10.374V0.499999H12.586ZM3.85 9.81C4.33533 9.81 4.83 9.77733 5.334 9.712C5.84733 9.63733 6.28133 9.53467 6.636 9.404V11.476C6.3 11.616 5.852 11.7187 5.292 11.784C4.74133 11.8587 4.19067 11.896 3.64 11.896H0.896V0.751999H3.206V9.81H3.85ZM26.7808 7.164H25.3808V12.456H23.0148V0.499999H25.3808V4.868H26.7808V7.164ZM14.4888 0.78H21.2508V4.014C21.2508 5.61933 20.9755 7.01467 20.4248 8.2C19.8741 9.38533 19.0901 10.3 18.0728 10.944C17.0555 11.5787 15.8608 11.896 14.4888 11.896V9.656C15.9075 9.64667 16.9855 9.14733 17.7228 8.158C18.4695 7.16867 18.8428 5.78733 18.8428 4.014V2.936H14.4888V0.78ZM44.1714 1.942V4.098H42.7714V6.352H40.4054V0.499999H42.7714V1.942H44.1714ZM35.6874 4.42C35.1741 4.99867 34.5628 5.46533 33.8534 5.82C33.1441 6.16533 32.3741 6.35667 31.5434 6.394V4.336C32.1688 4.26133 32.7194 4.056 33.1954 3.72C33.6714 3.384 34.0448 2.94533 34.3154 2.404C34.5861 1.86267 34.7261 1.24667 34.7354 0.555999L37.1014 0.695999C37.1014 1.40533 36.9708 2.08667 36.7094 2.74L39.9574 4.504L38.8514 6.212L35.6874 4.42ZM34.5674 10.818H42.8974V12.456H32.2294V8.886H40.4334V8.41H32.2014V6.772H42.7714V10.342H34.5674V10.818ZM54.2642 3.188V0.499999H56.6302V9.39H54.2642V5.162H50.9882V3.188H54.2642ZM53.2142 7.472C52.9156 7.584 52.5049 7.67267 51.9822 7.738C51.4689 7.794 50.9276 7.822 50.3582 7.822H45.3462V0.64H52.5282V2.6H47.7262V5.862H50.4562C51.6882 5.862 52.6076 5.75467 53.2142 5.54V7.472ZM56.7982 10.37V12.456H45.9342V8.522H48.3422V10.37H56.7982ZM75.0288 2.558V4.854H73.6288V7.248H71.2628V0.499999H73.6288V2.558H75.0288ZM69.9608 6.8H62.6668V0.64H64.9628V1.83H67.6648V0.64H69.9608V6.8ZM67.6648 4.896V3.678H64.9628V4.896H67.6648ZM68.3508 7.444C69.9935 7.444 71.3002 7.64933 72.2708 8.06C73.2508 8.46133 73.7408 9.11467 73.7408 10.02C73.7408 10.9253 73.2508 11.5787 72.2708 11.98C71.3002 12.3907 69.9935 12.596 68.3508 12.596C66.7082 12.596 65.3968 12.3907 64.4168 11.98C63.4462 11.5787 62.9608 10.9253 62.9608 10.02C62.9608 9.11467 63.4462 8.46133 64.4168 8.06C65.3968 7.64933 66.7082 7.444 68.3508 7.444ZM68.3508 10.734C69.2095 10.734 69.8955 10.678 70.4088 10.566C70.9315 10.454 71.1928 10.272 71.1928 10.02C71.1928 9.77733 70.9315 9.6 70.4088 9.488C69.8862 9.36667 69.2002 9.306 68.3508 9.306C67.5015 9.306 66.8155 9.36667 66.2928 9.488C65.7702 9.6 65.5088 9.77733 65.5088 10.02C65.5088 10.272 65.7655 10.454 66.2788 10.566C66.8015 10.678 67.4922 10.734 68.3508 10.734ZM12.362 19.188H1.106V17.186H5.516V16.206H7.952V17.186H12.362V19.188ZM1.526 21.904C1.526 21.12 1.99733 20.532 2.94 20.14C3.88267 19.748 5.14733 19.552 6.734 19.552C8.32067 19.552 9.58533 19.748 10.528 20.14C11.4707 20.532 11.942 21.12 11.942 21.904C11.942 22.688 11.4707 23.276 10.528 23.668C9.58533 24.06 8.32067 24.256 6.734 24.256C5.14733 24.256 3.88267 24.06 2.94 23.668C1.99733 23.276 1.526 22.688 1.526 21.904ZM9.534 21.904C9.534 21.7453 9.27733 21.624 8.764 21.54C8.26 21.4467 7.58333 21.4 6.734 21.4C5.88467 21.4 5.20333 21.4467 4.69 21.54C4.186 21.624 3.934 21.7453 3.934 21.904C3.934 22.0627 4.186 22.1887 4.69 22.282C5.20333 22.366 5.88467 22.408 6.734 22.408C7.58333 22.408 8.26 22.366 8.764 22.282C9.27733 22.1887 9.534 22.0627 9.534 21.904ZM12.782 26.86H7.952V28.736H5.516V26.86H0.686V24.76H12.782V26.86ZM25.7168 28.456H23.3508V16.5H25.7168V28.456ZM21.5028 20.014C21.5028 21.6193 21.2181 23.0147 20.6488 24.2C20.0888 25.3853 19.2908 26.3 18.2548 26.944C17.2188 27.5787 16.0055 27.896 14.6148 27.896V25.656C16.0428 25.6467 17.1441 25.1427 17.9188 24.144C18.6935 23.1453 19.0808 21.7687 19.0808 20.014V18.936H14.6148V16.78H21.5028V20.014ZM38.9876 19.51H30.6436V19.93H39.1136V21.288H28.3616V18.292H36.7056V17.872H28.3336V16.5H38.9876V19.51ZM39.7156 23.262H27.6196V21.694H39.7156V23.262ZM39.0156 26.664H30.6156V27.084H39.1416V28.456H28.3336V25.446H36.7336V25.026H28.3056V23.668H39.0156V26.664ZM56.3782 18.306H48.0902V19.146H56.5182V20.952H45.7382V16.5H56.3782V18.306ZM57.1062 23.388H45.0102V21.568H57.1062V23.388ZM51.0582 23.892C52.7756 23.892 54.1196 24.0833 55.0902 24.466C56.0609 24.8393 56.5462 25.4367 56.5462 26.258C56.5462 27.0793 56.0609 27.6767 55.0902 28.05C54.1196 28.4327 52.7756 28.624 51.0582 28.624C49.3409 28.624 47.9969 28.4327 47.0262 28.05C46.0556 27.6767 45.5702 27.0793 45.5702 26.258C45.5702 25.4367 46.0556 24.8393 47.0262 24.466C47.9969 24.0833 49.3409 23.892 51.0582 23.892ZM51.0582 25.656C50.1436 25.656 49.4202 25.7073 48.8882 25.81C48.3562 25.9033 48.0902 26.0527 48.0902 26.258C48.0902 26.6593 49.0796 26.86 51.0582 26.86C53.0369 26.86 54.0262 26.6593 54.0262 26.258C54.0262 26.0527 53.7602 25.9033 53.2282 25.81C52.6962 25.7073 51.9729 25.656 51.0582 25.656ZM70.573 22.674V24.48H58.477V22.674H63.349V22.058H59.219V18.586H67.535V18.04H59.191V16.5H69.845V19.972H61.529V20.518H69.971V22.058H65.701V22.674H70.573ZM59.121 25.026H69.873V28.596H67.479V26.832H59.121V25.026ZM78.0758 19.062H71.6638V17.312H73.7498V16.318H76.1018V17.312H78.0758V19.062ZM80.7218 23.808H78.5938V16.556H80.7218V18.95H81.6878V16.5H83.8438V23.962H81.6878V21.106H80.7218V23.808ZM74.9538 23.878C74.4031 23.878 73.9038 23.7893 73.4558 23.612C73.0078 23.4253 72.6531 23.1593 72.3918 22.814C72.1305 22.4687 71.9998 22.0673 71.9998 21.61C71.9998 21.1527 72.1305 20.7513 72.3918 20.406C72.6531 20.0607 73.0078 19.7993 73.4558 19.622C73.9038 19.4353 74.4031 19.342 74.9538 19.342C75.5045 19.342 76.0038 19.4353 76.4518 19.622C76.8998 19.7993 77.2545 20.0607 77.5158 20.406C77.7771 20.7513 77.9078 21.1527 77.9078 21.61C77.9078 22.0673 77.7771 22.4687 77.5158 22.814C77.2545 23.1593 76.8998 23.4253 76.4518 23.612C76.0038 23.7893 75.5045 23.878 74.9538 23.878ZM74.9538 20.98C74.7018 20.98 74.4871 21.0407 74.3098 21.162C74.1418 21.274 74.0578 21.4233 74.0578 21.61C74.0578 21.7967 74.1418 21.9507 74.3098 22.072C74.4871 22.184 74.7018 22.24 74.9538 22.24C75.2058 22.24 75.4158 22.184 75.5838 22.072C75.7611 21.9507 75.8498 21.7967 75.8498 21.61C75.8498 21.4233 75.7611 21.274 75.5838 21.162C75.4158 21.0407 75.2058 20.98 74.9538 20.98ZM83.3818 28.582L81.0438 27.252C80.6051 27.6347 80.1011 27.9287 79.5318 28.134C78.9625 28.3487 78.3745 28.456 77.7678 28.456L75.7798 27.252C75.3318 27.6347 74.8231 27.9287 74.2538 28.134C73.6938 28.3487 73.1105 28.456 72.5038 28.456V26.426C72.8958 26.426 73.2738 26.328 73.6378 26.132C74.0111 25.9267 74.3238 25.656 74.5758 25.32C74.8371 24.984 74.9911 24.6293 75.0378 24.256L77.2778 24.62C77.2311 24.9747 77.1191 25.348 76.9418 25.74L78.1878 26.384C78.7105 26.2813 79.1771 26.0293 79.5878 25.628C79.9985 25.2173 80.2365 24.76 80.3018 24.256L82.5418 24.62C82.4858 25.0027 82.3738 25.3713 82.2058 25.726L84.4598 26.832L83.3818 28.582ZM98.0386 23.164H96.6386V28.456H94.2726V16.5H96.6386V20.868H98.0386V23.164ZM90.6186 25.754C91.1973 25.754 91.7666 25.7073 92.3266 25.614C92.8959 25.5207 93.3579 25.39 93.7126 25.222V27.336C93.3673 27.5133 92.8866 27.6487 92.2706 27.742C91.6639 27.8447 91.0573 27.896 90.4506 27.896H85.8166V16.78H92.7746V18.922H88.2246V25.754H90.6186ZM108.173 22.478H106.899V20.392H108.173V19.454H106.899V17.368H108.173V16.5H110.497V25.362H108.173V22.478ZM106.339 23.444H99.2134V16.64H106.339V23.444ZM104.015 18.642H101.537V21.442H104.015V18.642ZM110.665 26.342V28.456H99.8014V24.27H102.209V26.342H110.665ZM114.906 24.48C114.906 23.7893 115.009 23.2247 115.214 22.786C115.429 22.3473 115.793 21.9367 116.306 21.554C116.764 21.1993 117.09 20.9053 117.286 20.672C117.482 20.4293 117.58 20.1493 117.58 19.832C117.58 19.4773 117.459 19.202 117.216 19.006C116.974 18.8007 116.633 18.698 116.194 18.698C115.746 18.698 115.392 18.8333 115.13 19.104C114.878 19.3653 114.752 19.6873 114.752 20.07H112.316C112.316 19.4073 112.48 18.81 112.806 18.278C113.142 17.7367 113.6 17.312 114.178 17.004C114.766 16.696 115.434 16.542 116.18 16.542C116.974 16.542 117.655 16.682 118.224 16.962C118.794 17.242 119.228 17.634 119.526 18.138C119.825 18.6327 119.974 19.1973 119.974 19.832C119.974 20.812 119.503 21.666 118.56 22.394C118.047 22.7953 117.692 23.1453 117.496 23.444C117.31 23.7427 117.216 24.088 117.216 24.48H114.906ZM116.138 28.456C115.709 28.456 115.354 28.316 115.074 28.036C114.794 27.7653 114.654 27.4153 114.654 26.986C114.654 26.5567 114.794 26.202 115.074 25.922C115.354 25.642 115.709 25.502 116.138 25.502C116.568 25.502 116.922 25.642 117.202 25.922C117.482 26.202 117.622 26.5567 117.622 26.986C117.622 27.4153 117.482 27.7653 117.202 28.036C116.922 28.316 116.568 28.456 116.138 28.456Z" fill="#888888"/>
</svg>
