<svg width="20" height="20" viewBox="0 0 20 20" fill="none" xmlns="http://www.w3.org/2000/svg">
<path d="M17.9168 12.0835H2.0835C1.396 12.0835 0.833496 11.521 0.833496 10.8335V5.8335C0.833496 5.146 1.396 4.5835 2.0835 4.5835H17.9168C18.6043 4.5835 19.1668 5.146 19.1668 5.8335V10.8335C19.1668 11.521 18.6043 12.0835 17.9168 12.0835ZM2.0835 5.41683C1.85433 5.41683 1.66683 5.60433 1.66683 5.8335V10.8335C1.66683 11.0627 1.85433 11.2502 2.0835 11.2502H17.9168C18.146 11.2502 18.3335 11.0627 18.3335 10.8335V5.8335C18.3335 5.60433 18.146 5.41683 17.9168 5.41683H2.0835Z" fill="#222222"/>
<path d="M7.08338 17.0834C6.68338 17.0834 6.47922 16.9001 6.37922 16.7501C6.07505 16.2876 6.36672 15.6126 6.70422 14.8376C6.84588 14.5084 7.07505 13.9834 7.08755 13.7542C6.85838 13.7542 6.67088 13.5667 6.67088 13.3376C6.67088 13.1084 6.85838 12.9209 7.08755 12.9209C7.48755 12.9209 7.69172 13.1042 7.79172 13.2542C8.09588 13.7167 7.80421 14.3917 7.46671 15.1667C7.32505 15.4959 7.09588 16.0209 7.08338 16.2501C7.31255 16.2501 7.50005 16.4376 7.50005 16.6667C7.50005 16.8959 7.31255 17.0834 7.08338 17.0834ZM7.14588 13.7542H7.15005H7.14588Z" fill="#222222"/>
<path d="M12.9164 17.0834C12.5164 17.0834 12.3122 16.9001 12.2122 16.7501C11.9081 16.2876 12.1997 15.6126 12.5372 14.8376C12.6789 14.5084 12.9081 13.9834 12.9206 13.7542C12.6914 13.7542 12.5039 13.5667 12.5039 13.3376C12.5039 13.1084 12.6914 12.9209 12.9206 12.9209C13.3206 12.9209 13.5247 13.1042 13.6247 13.2542C13.9289 13.7167 13.6372 14.3917 13.2997 15.1667C13.1581 15.4959 12.9289 16.0209 12.9164 16.2501C13.1456 16.2501 13.3331 16.4376 13.3331 16.6667C13.3331 16.8959 13.1456 17.0834 12.9164 17.0834ZM12.9789 13.7542H12.9831H12.9789Z" fill="#222222"/>
<path d="M9.99989 17.0834C9.59989 17.0834 9.39572 16.9001 9.29572 16.7501C8.99155 16.2876 9.28322 15.6126 9.62072 14.8376C9.76239 14.5084 9.99155 13.9834 10.0041 13.7542C9.77489 13.7542 9.58739 13.5667 9.58739 13.3376C9.58739 13.1084 9.77489 12.9209 10.0041 12.9209C10.4041 12.9209 10.6082 13.1042 10.7082 13.2542C11.0124 13.7167 10.7207 14.3917 10.3832 15.1667C10.2416 15.4959 10.0124 16.0209 9.99989 16.2501C10.2291 16.2501 10.4166 16.4376 10.4166 16.6667C10.4166 16.8959 10.2291 17.0834 9.99989 17.0834ZM10.0624 13.7542H10.0666H10.0624Z" fill="#222222"/>
<path d="M17.0833 10.8333H2.91667C2.6875 10.8333 2.5 10.6458 2.5 10.4167C2.5 10.1875 2.6875 10 2.91667 10H17.0833C17.3125 10 17.5 10.1875 17.5 10.4167C17.5 10.6458 17.3125 10.8333 17.0833 10.8333Z" fill="#222222"/>
<path d="M17.0833 9.58333H2.91667C2.6875 9.58333 2.5 9.39583 2.5 9.16667C2.5 8.9375 2.6875 8.75 2.91667 8.75H17.0833C17.3125 8.75 17.5 8.9375 17.5 9.16667C17.5 9.39583 17.3125 9.58333 17.0833 9.58333Z" fill="#222222"/>
</svg>
