<svg width="20" height="20" viewBox="0 0 20 20" fill="none" xmlns="http://www.w3.org/2000/svg">
<path d="M17.2223 4.44434H12.7778V5.55545H17.2223V17.2221H12.7778V18.3332H18.3334V5.55545C18.3334 5.26076 18.2163 4.97815 18.008 4.76977C17.7996 4.5614 17.517 4.44434 17.2223 4.44434Z" fill="#222222"/>
<path d="M11.0444 1.66699H3.39995C3.08758 1.66699 2.78801 1.79108 2.56713 2.01196C2.34625 2.23283 2.22217 2.5324 2.22217 2.84477V18.3337H12.2222V2.84477C12.2222 2.5324 12.0981 2.23283 11.8772 2.01196C11.6563 1.79108 11.3568 1.66699 11.0444 1.66699ZM11.1111 17.2225H9.44439V15.5559H4.99995V17.2225H3.33328V2.84477C3.33328 2.83602 3.335 2.82735 3.33835 2.81926C3.3417 2.81117 3.34661 2.80382 3.35281 2.79763C3.359 2.79144 3.36635 2.78653 3.37443 2.78318C3.38252 2.77983 3.39119 2.7781 3.39995 2.7781H11.0444C11.0531 2.7781 11.0618 2.77983 11.0699 2.78318C11.078 2.78653 11.0853 2.79144 11.0915 2.79763C11.0977 2.80382 11.1026 2.81117 11.106 2.81926C11.1093 2.82735 11.1111 2.83602 11.1111 2.84477V17.2225Z" fill="#222222"/>
<path d="M4.44434 4.44434H5.55545V5.55545H4.44434V4.44434Z" fill="#222222"/>
<path d="M6.6665 4.44434H7.77761V5.55545H6.6665V4.44434Z" fill="#222222"/>
<path d="M8.88867 4.44434H9.99978V5.55545H8.88867V4.44434Z" fill="#222222"/>
<path d="M4.44434 7.22266H5.55545V8.33377H4.44434V7.22266Z" fill="#222222"/>
<path d="M6.6665 7.22266H7.77761V8.33377H6.6665V7.22266Z" fill="#222222"/>
<path d="M8.88867 7.22266H9.99978V8.33377H8.88867V7.22266Z" fill="#222222"/>
<path d="M4.44434 10H5.55545V11.1111H4.44434V10Z" fill="#222222"/>
<path d="M6.6665 10H7.77761V11.1111H6.6665V10Z" fill="#222222"/>
<path d="M8.88867 10H9.99978V11.1111H8.88867V10Z" fill="#222222"/>
<path d="M4.44434 12.7773H5.55545V13.8885H4.44434V12.7773Z" fill="#222222"/>
<path d="M6.6665 12.7773H7.77761V13.8885H6.6665V12.7773Z" fill="#222222"/>
<path d="M8.88867 12.7773H9.99978V13.8885H8.88867V12.7773Z" fill="#222222"/>
<path d="M12.7778 7.22266H13.8889V8.33377H12.7778V7.22266Z" fill="#222222"/>
<path d="M15 7.22266H16.1111V8.33377H15V7.22266Z" fill="#222222"/>
<path d="M12.7778 10H13.8889V11.1111H12.7778V10Z" fill="#222222"/>
<path d="M15 10H16.1111V11.1111H15V10Z" fill="#222222"/>
<path d="M12.7778 12.7773H13.8889V13.8885H12.7778V12.7773Z" fill="#222222"/>
<path d="M15 12.7773H16.1111V13.8885H15V12.7773Z" fill="#222222"/>
</svg>
