<svg width="160" height="136" viewBox="0 0 160 136" fill="none" xmlns="http://www.w3.org/2000/svg">
<mask id="path-1-inside-1" fill="white">
<path fill-rule="evenodd" clip-rule="evenodd" d="M96.0295 13.2632C95.5304 12.8955 94.85 12.8955 94.3508 13.2632L54.9575 42.2819C53.8575 43.0922 54.4306 44.8367 55.7969 44.8367H62.5319V87.7117C62.5319 88.6888 63.3239 89.4808 64.3009 89.4808H126.959C127.936 89.4808 128.728 88.6888 128.728 87.7117V44.8367H134.583C135.95 44.8367 136.523 43.0922 135.423 42.2819L96.0295 13.2632Z"/>
</mask>
<path fill-rule="evenodd" clip-rule="evenodd" d="M96.0295 13.2632C95.5304 12.8955 94.85 12.8955 94.3508 13.2632L54.9575 42.2819C53.8575 43.0922 54.4306 44.8367 55.7969 44.8367H62.5319V87.7117C62.5319 88.6888 63.3239 89.4808 64.3009 89.4808H126.959C127.936 89.4808 128.728 88.6888 128.728 87.7117V44.8367H134.583C135.95 44.8367 136.523 43.0922 135.423 42.2819L96.0295 13.2632Z" fill="#EEEEEE"/>
<path d="M94.3508 13.2632L93.7212 12.4086V12.4086L94.3508 13.2632ZM96.0295 13.2632L96.6591 12.4086V12.4086L96.0295 13.2632ZM54.9575 42.2819L54.328 41.4273H54.328L54.9575 42.2819ZM62.5319 44.8367H63.5933V43.7752H62.5319V44.8367ZM128.728 44.8367V43.7752H127.667V44.8367H128.728ZM135.423 42.2819L136.052 41.4273L135.423 42.2819ZM94.9803 14.1178C95.1051 14.0259 95.2752 14.0259 95.4 14.1178L96.6591 12.4086C95.7855 11.7651 94.5948 11.7651 93.7212 12.4086L94.9803 14.1178ZM55.5871 43.1365L94.9803 14.1178L93.7212 12.4086L54.328 41.4273L55.5871 43.1365ZM55.7969 43.7752C55.4553 43.7752 55.312 43.3391 55.5871 43.1365L54.328 41.4273C52.4029 42.8454 53.4059 45.8981 55.7969 45.8981V43.7752ZM62.5319 43.7752H55.7969V45.8981H62.5319V43.7752ZM63.5933 87.7117V44.8367H61.4704V87.7117H63.5933ZM64.3009 88.4194C63.9101 88.4194 63.5933 88.1026 63.5933 87.7117H61.4704C61.4704 89.275 62.7377 90.5423 64.3009 90.5423V88.4194ZM126.959 88.4194H64.3009V90.5423H126.959V88.4194ZM127.667 87.7117C127.667 88.1026 127.35 88.4194 126.959 88.4194V90.5423C128.522 90.5423 129.79 89.275 129.79 87.7117H127.667ZM127.667 44.8367V87.7117H129.79V44.8367H127.667ZM134.583 43.7752H128.728V45.8981H134.583V43.7752ZM134.793 43.1365C135.068 43.3391 134.925 43.7752 134.583 43.7752V45.8981C136.974 45.8981 137.977 42.8454 136.052 41.4273L134.793 43.1365ZM95.4 14.1178L134.793 43.1365L136.052 41.4273L96.6591 12.4086L95.4 14.1178Z" fill="#CCCCCC" mask="url(#path-1-inside-1)"/>
<mask id="path-3-inside-2" fill="white">
<path fill-rule="evenodd" clip-rule="evenodd" d="M29.5866 0C29.0004 0 28.5252 0.475228 28.5252 1.06145V6.57355C28.5252 7.15978 29.0004 7.63501 29.5866 7.63501H30.5979V19.7393H29.1636C28.1866 19.7393 27.3945 20.5313 27.3945 21.5084V87.9702C27.3945 94.614 32.7805 100 39.4243 100L50.9687 100L63.0387 100L127.466 100C128.443 100 129.235 99.2079 129.235 98.2309V81.0987C129.235 80.1216 128.443 79.3296 127.466 79.3296H64.8078C63.8308 79.3296 63.0387 78.5375 63.0387 77.5605V21.5084C63.0387 20.5313 62.2467 19.7393 61.2696 19.7393H59.4529V7.63501H60.2789C60.8651 7.63501 61.3403 7.15978 61.3403 6.57356V1.06145C61.3403 0.475228 60.8651 0 60.2789 0H54.6694C54.0832 0 53.608 0.475228 53.608 1.06145V6.57355C53.608 7.15978 54.0832 7.63501 54.6694 7.63501H55.8697V19.7393H34.1812V7.63501H35.196C35.7823 7.63501 36.2575 7.15978 36.2575 6.57356V1.06145C36.2575 0.475228 35.7823 0 35.196 0H29.5866Z"/>
</mask>
<path fill-rule="evenodd" clip-rule="evenodd" d="M29.5866 0C29.0004 0 28.5252 0.475228 28.5252 1.06145V6.57355C28.5252 7.15978 29.0004 7.63501 29.5866 7.63501H30.5979V19.7393H29.1636C28.1866 19.7393 27.3945 20.5313 27.3945 21.5084V87.9702C27.3945 94.614 32.7805 100 39.4243 100L50.9687 100L63.0387 100L127.466 100C128.443 100 129.235 99.2079 129.235 98.2309V81.0987C129.235 80.1216 128.443 79.3296 127.466 79.3296H64.8078C63.8308 79.3296 63.0387 78.5375 63.0387 77.5605V21.5084C63.0387 20.5313 62.2467 19.7393 61.2696 19.7393H59.4529V7.63501H60.2789C60.8651 7.63501 61.3403 7.15978 61.3403 6.57356V1.06145C61.3403 0.475228 60.8651 0 60.2789 0H54.6694C54.0832 0 53.608 0.475228 53.608 1.06145V6.57355C53.608 7.15978 54.0832 7.63501 54.6694 7.63501H55.8697V19.7393H34.1812V7.63501H35.196C35.7823 7.63501 36.2575 7.15978 36.2575 6.57356V1.06145C36.2575 0.475228 35.7823 0 35.196 0H29.5866Z" fill="white"/>
<path d="M30.5979 7.63501H31.6594V6.57355H30.5979V7.63501ZM30.5979 19.7393V20.8007H31.6594V19.7393H30.5979ZM39.4243 100L39.4243 98.9385H39.4243V100ZM50.9687 100L50.9687 101.061H50.9687L50.9687 100ZM63.0387 100V98.9385V100ZM127.466 100V101.061V100ZM59.4529 19.7393H58.3915V20.8007H59.4529V19.7393ZM59.4529 7.63501V6.57355H58.3915V7.63501H59.4529ZM55.8697 7.63501H56.9311V6.57355H55.8697V7.63501ZM55.8697 19.7393V20.8007H56.9311V19.7393H55.8697ZM34.1812 19.7393H33.1198V20.8007H34.1812V19.7393ZM34.1812 7.63501V6.57355H33.1198V7.63501H34.1812ZM29.5866 1.06145V1.06145V-1.06145C28.4142 -1.06145 27.4637 -0.110996 27.4637 1.06145H29.5866ZM29.5866 6.57355V1.06145H27.4637V6.57355H29.5866ZM29.5866 6.57355H29.5866H27.4637C27.4637 7.746 28.4142 8.69646 29.5866 8.69646V6.57355ZM30.5979 6.57355H29.5866V8.69646H30.5979V6.57355ZM31.6594 19.7393V7.63501H29.5365V19.7393H31.6594ZM29.1636 20.8007H30.5979V18.6778H29.1636V20.8007ZM28.456 21.5084C28.456 21.1176 28.7728 20.8007 29.1636 20.8007V18.6778C27.6004 18.6778 26.3331 19.9451 26.3331 21.5084H28.456ZM28.456 87.9702V21.5084H26.3331V87.9702H28.456ZM39.4243 98.9385C33.3667 98.9385 28.456 94.0278 28.456 87.9702H26.3331C26.3331 95.2003 32.1942 101.061 39.4243 101.061V98.9385ZM50.9687 98.9385L39.4243 98.9385L39.4243 101.061L50.9687 101.061L50.9687 98.9385ZM63.0387 98.9385L50.9687 98.9385L50.9687 101.061L63.0387 101.061V98.9385ZM127.466 98.9385L63.0387 98.9385V101.061L127.466 101.061V98.9385ZM128.174 98.2309C128.174 98.6217 127.857 98.9385 127.466 98.9385V101.061C129.029 101.061 130.297 99.7942 130.297 98.2309H128.174ZM128.174 81.0987V98.2309H130.297V81.0987H128.174ZM127.466 80.391C127.857 80.391 128.174 80.7079 128.174 81.0987H130.297C130.297 79.5354 129.029 78.2681 127.466 78.2681V80.391ZM64.8078 80.391H127.466V78.2681H64.8078V80.391ZM61.9773 77.5605C61.9773 79.1238 63.2445 80.391 64.8078 80.391V78.2681C64.417 78.2681 64.1002 77.9513 64.1002 77.5605H61.9773ZM61.9773 21.5084V77.5605H64.1002V21.5084H61.9773ZM61.2696 20.8007C61.6604 20.8007 61.9773 21.1176 61.9773 21.5084H64.1002C64.1002 19.9451 62.8329 18.6778 61.2696 18.6778V20.8007ZM59.4529 20.8007H61.2696V18.6778H59.4529V20.8007ZM60.5144 19.7393V7.63501H58.3915V19.7393H60.5144ZM59.4529 8.69646H60.2789V6.57355H59.4529V8.69646ZM60.2789 8.69646C61.4513 8.69646 62.4018 7.74601 62.4018 6.57356H60.2789L60.2789 6.57355V8.69646ZM62.4018 6.57356V1.06145H60.2789V6.57356H62.4018ZM62.4018 1.06145C62.4018 -0.110999 61.4513 -1.06145 60.2789 -1.06145V1.06145H60.2789H62.4018ZM60.2789 -1.06145H54.6694V1.06145H60.2789V-1.06145ZM54.6694 -1.06145C53.497 -1.06145 52.5465 -0.110997 52.5465 1.06145H54.6694V1.06145V-1.06145ZM52.5465 1.06145V6.57355H54.6694V1.06145H52.5465ZM52.5465 6.57355C52.5465 7.746 53.497 8.69646 54.6694 8.69646V6.57355H52.5465ZM54.6694 8.69646H55.8697V6.57355H54.6694V8.69646ZM54.8082 7.63501V19.7393H56.9311V7.63501H54.8082ZM34.1812 20.8007H55.8697V18.6778H34.1812V20.8007ZM33.1198 7.63501V19.7393H35.2427V7.63501H33.1198ZM35.196 6.57355H34.1812V8.69646H35.196V6.57355ZM35.196 6.57356L35.196 6.57355V8.69646C36.3685 8.69646 37.319 7.746 37.319 6.57356H35.196ZM35.196 1.06145V6.57356H37.319V1.06145H35.196ZM35.196 1.06145H35.196H37.319C37.319 -0.110996 36.3685 -1.06145 35.196 -1.06145V1.06145ZM29.5866 1.06145H35.196V-1.06145H29.5866V1.06145Z" fill="#CCCCCC" mask="url(#path-3-inside-2)"/>
<rect x="34.373" y="39.2924" width="3.96046" height="6.14525" rx="0.707635" fill="#CCCCCC"/>
<rect x="52.2891" y="39.2924" width="3.96046" height="6.14525" rx="0.707635" fill="#CCCCCC"/>
<rect x="39.6533" y="52.5139" width="11.5042" height="2.23464" rx="0.707635" fill="#CCCCCC"/>
<ellipse cx="29.3749" cy="51.1174" rx="5.37492" ry="5.30726" fill="#FFEFEF"/>
<ellipse cx="61.0575" cy="51.1174" rx="5.37492" ry="5.30726" fill="#FFEFEF"/>
<path d="M80.2012 80.2607V36.4432C80.2012 35.857 80.6764 35.3818 81.2626 35.3818H109.503C110.09 35.3818 110.565 35.857 110.565 36.4432V70.1317C110.565 70.7179 110.09 71.1931 109.503 71.1931H91.8492C91.2629 71.1931 90.7877 70.7179 90.7877 70.1317V46.8882C90.7877 46.302 91.2629 45.8267 91.8492 45.8267H99.6148C100.201 45.8267 100.676 46.302 100.676 46.8882V58.6537C100.676 59.2399 100.201 59.7151 99.6148 59.7151H97.2026C96.6164 59.7151 96.1412 59.2399 96.1412 58.6537V53.7671" stroke="#CCCCCC" stroke-width="1.41527"/>
<path d="M2.04 124.168H1.068V131.164H1.92C3.564 131.164 5.208 131.044 7.044 130.672L6.924 129.856C5.184 130.204 3.588 130.336 2.04 130.336V124.168ZM10.644 127.42H8.916V123.124H7.932V133.888H8.916V128.236H10.644V127.42ZM14.1111 130.612C13.2471 130.612 12.7071 129.52 12.7071 127.756C12.7071 126.028 13.2471 124.936 14.1111 124.936C14.9511 124.936 15.5031 126.028 15.5031 127.756C15.5031 129.52 14.9511 130.612 14.1111 130.612ZM17.7471 127.312H16.3911C16.2711 125.284 15.4071 124.024 14.1111 124.024C12.7071 124.024 11.8071 125.464 11.8071 127.756C11.8071 130.084 12.7071 131.524 14.1111 131.524C15.4311 131.524 16.3071 130.228 16.3911 128.116H17.7471V133.36H18.6831V123.364H17.7471V127.312ZM19.8831 123.124V133.888H20.8191V123.124H19.8831ZM28.6781 127.528H26.8181C27.1781 126.568 27.3341 125.548 27.3341 124.492H23.1821V125.296H26.3621C26.1821 127.552 25.0301 129.484 22.7261 130.864L23.3021 131.572C24.7901 130.684 25.8221 129.568 26.4701 128.32H28.6781V133.348H29.6141V123.412H28.6781V127.528ZM30.9221 123.124V133.888H31.8581V123.124H30.9221ZM39.1024 130.54H38.1184V133.648H45.5224V132.844H39.1024V130.54ZM38.9584 125.596C38.9584 124.744 40.0384 124.24 41.7424 124.24C43.4224 124.24 44.5024 124.744 44.5024 125.596C44.5024 126.448 43.4224 126.94 41.7424 126.94C40.0384 126.94 38.9584 126.448 38.9584 125.596ZM42.2344 128.848V127.72C44.2384 127.612 45.5104 126.832 45.5104 125.596C45.5104 124.252 44.0344 123.448 41.7424 123.448C39.4264 123.448 37.9504 124.252 37.9504 125.596C37.9504 126.844 39.2224 127.612 41.2504 127.72V128.848H36.8704V129.652H46.5904V128.848H42.2344ZM54.1826 125.188H56.1026V124.384H51.1946V125.188H53.2346V126.16C53.2346 128.14 52.3946 130.096 50.8946 130.996L51.4946 131.728C52.5626 131.056 53.3426 129.796 53.7146 128.32C54.0866 129.688 54.8306 130.84 55.8746 131.464L56.4746 130.744C54.9866 129.904 54.1826 128.032 54.1826 126.16V125.188ZM57.0626 126.988H55.2866V127.792H57.0626V133.324H57.9986V123.364H57.0626V126.988ZM59.2226 123.112V133.876H60.1706V123.112H59.2226ZM63.2297 126.532C63.2297 125.476 64.0217 124.732 65.0777 124.732C66.1337 124.732 66.9257 125.476 66.9257 126.532C66.9257 127.588 66.1337 128.332 65.0777 128.332C64.0217 128.332 63.2297 127.588 63.2297 126.532ZM67.8857 126.532C67.8857 124.972 66.6857 123.88 65.0777 123.88C63.4697 123.88 62.2697 124.972 62.2697 126.532C62.2697 128.092 63.4697 129.184 65.0777 129.184C66.6857 129.184 67.8857 128.092 67.8857 126.532ZM64.7057 130.24H63.7217V133.648H70.8977V132.844H64.7057V130.24ZM70.4177 126.4V123.124H69.4337V131.044H70.4177V127.216H72.0137V126.4H70.4177ZM80.9288 123.124V133.912H81.9128V123.124H80.9288ZM76.2368 123.952C74.6408 123.952 73.5008 125.416 73.5008 127.708C73.5008 130 74.6408 131.464 76.2368 131.464C77.8328 131.464 78.9728 130 78.9728 127.708C78.9728 125.416 77.8328 123.952 76.2368 123.952ZM76.2368 124.84C77.2808 124.84 78.0248 125.968 78.0248 127.708C78.0248 129.46 77.2808 130.588 76.2368 130.588C75.1808 130.588 74.4368 129.46 74.4368 127.708C74.4368 125.968 75.1808 124.84 76.2368 124.84ZM90.129 130.588C89.085 130.588 88.353 129.46 88.353 127.708C88.353 125.968 89.085 124.84 90.129 124.84C91.161 124.84 91.893 125.968 91.893 127.708C91.893 129.46 91.161 130.588 90.129 130.588ZM90.129 123.952C88.545 123.952 87.417 125.416 87.417 127.708C87.417 130 88.545 131.464 90.129 131.464C91.713 131.464 92.829 130 92.829 127.708C92.829 125.416 91.713 123.952 90.129 123.952ZM97.317 127.42H95.541V123.136H94.557V133.888H95.541V128.248H97.317V127.42ZM104.876 128.38C103.292 127.852 102.176 126.544 102.176 125.104V124.672H104.612V123.88H98.7081V124.672H101.168V125.104C101.168 126.616 100.076 128.02 98.4441 128.596L98.9601 129.364C100.232 128.896 101.228 127.936 101.684 126.712C102.176 127.84 103.16 128.728 104.396 129.16L104.876 128.38ZM99.9321 130.996H106.148V133.888H107.132V130.204H99.9321V130.996ZM106.148 123.124V129.64H107.132V123.124H106.148ZM116.5 132.976H114.604V131.524H116.5V132.976ZM116.5 130.792H114.604V129.436H113.68V133.744H117.412V129.436H116.5V130.792ZM115.396 127.744C114.328 127.744 113.56 127.048 113.56 126.076C113.56 125.104 114.328 124.42 115.396 124.42C116.464 124.42 117.232 125.104 117.232 126.076C117.232 127.048 116.464 127.744 115.396 127.744ZM120.328 126.46V128.824H121.324V123.136H120.328V125.656H118.132C117.928 124.42 116.848 123.604 115.396 123.604C113.788 123.604 112.624 124.6 112.624 126.076C112.624 127.552 113.788 128.56 115.396 128.56C116.872 128.56 117.952 127.72 118.132 126.46H120.328ZM120.46 129.364H119.5V130.276C119.5 131.38 118.828 132.544 117.544 133.096L118.048 133.84C118.984 133.432 119.632 132.688 119.98 131.812C120.304 132.7 120.952 133.432 121.924 133.84L122.416 133.096C121.132 132.592 120.46 131.416 120.46 130.276V129.364ZM132.675 126.484C130.767 126.244 128.871 125.056 128.871 123.724V123.244H127.863V123.724C127.863 125.092 125.979 126.244 124.047 126.484L124.407 127.276C126.087 127.012 127.695 126.172 128.367 124.972C129.051 126.172 130.647 127.012 132.315 127.276L132.675 126.484ZM130.983 132.952H125.691V131.584H130.983V132.952ZM130.983 130.828H125.691V129.568H124.719V133.744H131.955V129.568H130.983V130.828ZM123.483 128.032V128.824H133.227V128.032H123.483ZM136.19 124.168H135.206V131.104H136.094C137.81 131.104 139.502 130.984 141.374 130.6L141.266 129.76C139.478 130.12 137.81 130.264 136.19 130.264V124.168ZM142.37 123.124V133.876H143.354V123.124H142.37ZM147.014 124.972H151.034V124.156H146.03V131.224H146.882C148.91 131.224 150.326 131.152 151.97 130.84L151.862 130.024C150.302 130.3 148.922 130.384 147.014 130.384V124.972ZM155.63 127.372H153.854V123.124H152.87V133.912H153.854V128.188H155.63V127.372ZM157.933 130.588H157.249L156.949 124.432H158.233L157.933 130.588ZM156.841 132.352C156.841 132.056 156.913 131.848 157.057 131.728C157.201 131.608 157.377 131.548 157.585 131.548C157.785 131.548 157.957 131.608 158.101 131.728C158.253 131.848 158.329 132.056 158.329 132.352C158.329 132.64 158.253 132.848 158.101 132.976C157.957 133.104 157.785 133.168 157.585 133.168C157.377 133.168 157.201 133.104 157.057 132.976C156.913 132.848 156.841 132.64 156.841 132.352Z" fill="#888888"/>
</svg>
