<svg width="48" height="48" viewBox="0 0 48 48" fill="none" xmlns="http://www.w3.org/2000/svg">
<g clip-path="url(#clip0)">
<path d="M9.49316 31.6141H17.878" stroke="#6F22D2" stroke-width="1.92"/>
<path d="M23.207 31.6142C23.207 33.2014 22.0152 34.3807 20.6734 34.3807C19.3315 34.3807 18.1397 33.2014 18.1397 31.6142C18.1397 30.0269 19.3315 28.8476 20.6734 28.8476C22.0152 28.8476 23.207 30.0269 23.207 31.6142Z" stroke="#6F22D2" stroke-width="1.92"/>
<path d="M21.3711 29.3782L22.7686 24.9063" stroke="#6F22D2" stroke-width="1.92"/>
<path d="M17.4056 11.2828L38.9196 17.9848C39.0698 18.0316 39.1401 18.2094 39.0617 18.3443L33.4188 28.0503C33.3645 28.1437 33.2541 28.1862 33.15 28.1538L14.3868 22.3087C14.2602 22.2693 14.186 22.1337 14.221 22.0058L17.1131 11.4429C17.1481 11.3151 17.2791 11.2434 17.4056 11.2828Z" stroke="#6F22D2" stroke-width="1.92"/>
<path d="M38.5334 19.9657L40.0705 20.4446C40.7033 20.6417 41.0744 21.3197 40.8994 21.9589L40.8245 22.2323L39.5743 26.7984C39.3993 27.4376 38.7445 27.796 38.1117 27.5989L35.6803 26.8414L34.5624 26.4932" stroke="#6F22D2" stroke-width="1.92"/>
<rect x="6.96" y="25.36" width="2.88" height="12.48" stroke="#6F22D2" stroke-width="1.92"/>
</g>
<defs>
<clipPath id="clip0">
<rect width="48" height="48" fill="white"/>
</clipPath>
</defs>
</svg>
