<svg width="20" height="20" viewBox="0 0 20 20" fill="none" xmlns="http://www.w3.org/2000/svg">
<g clip-path="url(#clip0)">
<path d="M14.5832 9.99984H5.83317C5.60401 9.99984 5.4165 9.81234 5.4165 9.58317C5.4165 9.354 5.60401 9.1665 5.83317 9.1665H14.5832C14.8124 9.1665 14.9999 9.354 14.9999 9.58317C14.9999 9.81234 14.8124 9.99984 14.5832 9.99984Z" fill="#222222"/>
<path d="M14.5832 12.0833H5.83317C5.60401 12.0833 5.4165 11.8958 5.4165 11.6667C5.4165 11.4375 5.60401 11.25 5.83317 11.25H14.5832C14.8124 11.25 14.9999 11.4375 14.9999 11.6667C14.9999 11.8958 14.8124 12.0833 14.5832 12.0833Z" fill="#222222"/>
<path d="M14.5832 16.2498C14.354 16.2498 14.1665 16.0623 14.1665 15.8332V9.58317C14.1665 9.354 14.354 9.1665 14.5832 9.1665C14.8123 9.1665 14.9998 9.354 14.9998 9.58317V15.8332C14.9998 16.0623 14.8123 16.2498 14.5832 16.2498Z" fill="#222222"/>
<path d="M5.83317 16.2498C5.60401 16.2498 5.4165 16.0623 5.4165 15.8332V9.58317C5.4165 9.354 5.60401 9.1665 5.83317 9.1665C6.06234 9.1665 6.24984 9.354 6.24984 9.58317V15.8332C6.24984 16.0623 6.06234 16.2498 5.83317 16.2498Z" fill="#222222"/>
<path d="M13.7502 10H6.66683C6.45017 10 6.271 9.83334 6.25017 9.61667L5.8335 4.61667C5.8335 3.43333 6.76684 2.5 7.91684 2.5H12.9169C14.0669 2.5 15.0002 3.43333 15.0002 4.58333C15.0002 4.60417 15.0002 4.62917 14.9961 4.65L14.1627 9.65C14.1294 9.85417 13.9544 10 13.7502 10ZM7.05017 9.16667H13.396L14.1669 4.55C14.1502 3.875 13.596 3.33333 12.9169 3.33333H7.91684C7.22934 3.33333 6.66683 3.89583 6.66683 4.58333L7.05017 9.16667Z" fill="#222222"/>
</g>
<defs>
<clipPath id="clip0">
<rect width="20.0001" height="20" fill="white"/>
</clipPath>
</defs>
</svg>
