<svg width="20" height="20" viewBox="0 0 20 20" fill="none" xmlns="http://www.w3.org/2000/svg">
<g clip-path="url(#clip0)">
<path d="M7.91667 10.8332C7.6875 10.8332 7.5 10.6457 7.5 10.4165V8.95817C7.5 8.729 7.6875 8.5415 7.91667 8.5415C8.14583 8.5415 8.33333 8.729 8.33333 8.95817V10.4165C8.33333 10.6457 8.14583 10.8332 7.91667 10.8332Z" fill="#222222"/>
<path d="M12.0832 10.8332C11.854 10.8332 11.6665 10.6457 11.6665 10.4165V8.95817C11.6665 8.729 11.854 8.5415 12.0832 8.5415C12.3123 8.5415 12.4998 8.729 12.4998 8.95817V10.4165C12.4998 10.6457 12.3123 10.8332 12.0832 10.8332Z" fill="#222222"/>
<path d="M16.2497 17.5002H3.74967C3.52051 17.5002 3.33301 17.3127 3.33301 17.0835V2.50016C3.33301 2.271 3.52051 2.0835 3.74967 2.0835H16.2497C16.4788 2.0835 16.6663 2.271 16.6663 2.50016V17.0835C16.6663 17.3127 16.4788 17.5002 16.2497 17.5002ZM4.16634 16.6668H15.833V2.91683H4.16634V16.6668Z" fill="#222222"/>
<path d="M9.99967 17.5002C9.77051 17.5002 9.58301 17.3127 9.58301 17.0835V2.50016C9.58301 2.271 9.77051 2.0835 9.99967 2.0835C10.2288 2.0835 10.4163 2.271 10.4163 2.50016V17.0835C10.4163 17.3127 10.2288 17.5002 9.99967 17.5002Z" fill="#222222"/>
</g>
<defs>
<clipPath id="clip0">
<rect width="20" height="20" fill="white"/>
</clipPath>
</defs>
</svg>
