<svg width="20" height="20" viewBox="0 0 20 20" fill="none" xmlns="http://www.w3.org/2000/svg">
<g clip-path="url(#clip0)">
<path d="M18.7497 6.24984H1.24967C1.02051 6.24984 0.833008 6.06234 0.833008 5.83317C0.833008 5.604 1.02051 5.4165 1.24967 5.4165H18.7497C18.9788 5.4165 19.1663 5.604 19.1663 5.83317C19.1663 6.06234 18.9788 6.24984 18.7497 6.24984Z" fill="#222222"/>
<path d="M16.6667 15.4165C16.4375 15.4165 16.25 15.229 16.25 14.9998V5.83317C16.25 5.604 16.4375 5.4165 16.6667 5.4165C16.8958 5.4165 17.0833 5.604 17.0833 5.83317V14.9998C17.0833 15.229 16.8958 15.4165 16.6667 15.4165Z" fill="#222222"/>
<path d="M2.91667 15.4165C2.6875 15.4165 2.5 15.229 2.5 14.9998V5.83317C2.5 5.604 2.6875 5.4165 2.91667 5.4165C3.14583 5.4165 3.33333 5.604 3.33333 5.83317V14.9998C3.33333 15.229 3.14583 15.4165 2.91667 15.4165Z" fill="#222222"/>
<path d="M10.8332 12.9165C10.604 12.9165 10.4165 12.729 10.4165 12.4998V5.83317C10.4165 5.604 10.604 5.4165 10.8332 5.4165C11.0623 5.4165 11.2498 5.604 11.2498 5.83317V12.4998C11.2498 12.729 11.0623 12.9165 10.8332 12.9165Z" fill="#222222"/>
<path d="M16.6665 12.9168H10.8332C10.604 12.9168 10.4165 12.7293 10.4165 12.5002C10.4165 12.271 10.604 12.0835 10.8332 12.0835H16.6665C16.8957 12.0835 17.0832 12.271 17.0832 12.5002C17.0832 12.7293 16.8957 12.9168 16.6665 12.9168Z" fill="#222222"/>
<path d="M16.6665 9.58333H10.8332C10.604 9.58333 10.4165 9.39583 10.4165 9.16667C10.4165 8.9375 10.604 8.75 10.8332 8.75H16.6665C16.8957 8.75 17.0832 8.9375 17.0832 9.16667C17.0832 9.39583 16.8957 9.58333 16.6665 9.58333Z" fill="#222222"/>
<path d="M13.9583 7.91683H13.5417C13.3125 7.91683 13.125 7.72933 13.125 7.50016C13.125 7.271 13.3125 7.0835 13.5417 7.0835H13.9583C14.1875 7.0835 14.375 7.271 14.375 7.50016C14.375 7.72933 14.1875 7.91683 13.9583 7.91683Z" fill="#222222"/>
<path d="M13.9583 11.2498H13.5417C13.3125 11.2498 13.125 11.0623 13.125 10.8332C13.125 10.604 13.3125 10.4165 13.5417 10.4165H13.9583C14.1875 10.4165 14.375 10.604 14.375 10.8332C14.375 11.0623 14.1875 11.2498 13.9583 11.2498Z" fill="#222222"/>
<path d="M10.8333 8.33333H2.91667C2.6875 8.33333 2.5 8.14583 2.5 7.91667C2.5 7.6875 2.6875 7.5 2.91667 7.5H10.8333C11.0625 7.5 11.25 7.6875 11.25 7.91667C11.25 8.14583 11.0625 8.33333 10.8333 8.33333Z" fill="#222222"/>
</g>
<defs>
<clipPath id="clip0">
<rect width="20" height="20" fill="white"/>
</clipPath>
</defs>
</svg>
