<svg width="20" height="20" viewBox="0 0 20 20" fill="none" xmlns="http://www.w3.org/2000/svg">
<path d="M9.99951 15.8335C9.31201 15.8335 8.74951 15.271 8.74951 14.5835C8.74951 13.896 9.31201 13.3335 9.99951 13.3335C10.687 13.3335 11.2495 13.896 11.2495 14.5835C11.2495 15.271 10.687 15.8335 9.99951 15.8335ZM9.99951 14.1668C9.77034 14.1668 9.58284 14.3543 9.58284 14.5835C9.58284 14.8127 9.77034 15.0002 9.99951 15.0002C10.2287 15.0002 10.4162 14.8127 10.4162 14.5835C10.4162 14.3543 10.2287 14.1668 9.99951 14.1668Z" fill="#222222"/>
<path d="M13.333 17.4958C13.333 17.7292 13.1455 17.9167 12.9122 17.9167H7.08717C6.85384 17.9167 6.66634 17.7292 6.66634 17.4958V2.50417C6.66634 2.27083 6.85384 2.08333 7.08717 2.08333H12.9122C13.1455 2.08333 13.333 2.27083 13.333 2.50417V9.16667H14.1663V2.50417C14.1663 1.8125 13.6038 1.25 12.9122 1.25H7.08717C6.39551 1.25 5.83301 1.8125 5.83301 2.50417V17.4958C5.83301 18.1875 6.39551 18.75 7.08717 18.75H12.9122C13.6038 18.75 14.1663 18.1875 14.1663 17.4958V12.2792H13.333V17.4958Z" fill="#222222"/>
<path d="M17.1957 9.1665H14.1665V9.99984H17.1957C17.5957 9.99984 17.9165 10.3248 17.9165 10.7207C17.9165 11.1165 17.5915 11.4415 17.1957 11.4415H14.1665V12.2748H17.1957C18.054 12.2748 18.7498 11.579 18.7498 10.7207C18.7498 9.86234 18.054 9.1665 17.1957 9.1665Z" fill="#222222"/>
<path d="M10.4163 10.7207C10.4163 10.3207 10.7413 9.99984 11.1372 9.99984H13.333V9.1665H11.1372C10.2788 9.1665 9.58301 9.86234 9.58301 10.7207C9.58301 11.579 10.2788 12.2748 11.1372 12.2748H13.333V11.4415H11.1372C10.7413 11.4457 10.4163 11.1207 10.4163 10.7207Z" fill="#222222"/>
<path d="M14.1663 9.1665H13.333V9.99984H14.1663V9.1665Z" fill="#222222"/>
<path d="M14.1663 11.4458H13.333V12.2791H14.1663V11.4458Z" fill="#222222"/>
</svg>
