<svg width="87" height="26" viewBox="0 0 87 26" fill="none" xmlns="http://www.w3.org/2000/svg">
<path d="M10.5 0.999999V11.248H8.472V0.999999H10.5ZM5.412 3.1C5.388 4.02 5.304 4.872 5.16 5.656L8.136 9.52L6.528 10.72L4.464 7.912C4.048 8.824 3.52 9.524 2.88 10.012C2.248 10.508 1.544 10.76 0.768 10.768V8.728C1.264 8.672 1.704 8.408 2.088 7.936C2.472 7.456 2.776 6.8 3 5.968C3.224 5.136 3.348 4.18 3.372 3.1H1.056V1.24H7.608V3.1H5.412ZM21.851 4.408H19.799V2.668H12.731V0.999999H21.851V4.408ZM22.499 6.448H12.131V4.792H22.499V6.448ZM21.899 11.248H12.731V7.06H21.899V11.248ZM19.895 9.664V8.644H14.735V9.664H19.895ZM37.2372 0.999999V11.248H35.3412V6.688H34.4892V11.068H32.6172V1.048H34.4892V4.768H35.3412V0.999999H37.2372ZM29.7492 8.98C30.1652 8.98 30.5892 8.952 31.0212 8.896C31.4612 8.832 31.8332 8.744 32.1372 8.632V10.408C31.8492 10.528 31.4652 10.616 30.9852 10.672C30.5132 10.736 30.0412 10.768 29.5692 10.768H27.2172V1.216H29.1972V8.98H29.7492ZM52.7675 6.712H51.5675V11.248H49.5395V0.999999H51.5675V4.744H52.7675V6.712ZM46.6115 3.1C46.5875 4.036 46.5035 4.892 46.3595 5.668L49.2875 9.532L47.6795 10.72L45.6635 7.948C45.2475 8.844 44.7235 9.536 44.0915 10.024C43.4675 10.512 42.7755 10.76 42.0155 10.768V8.728C42.5115 8.672 42.9475 8.408 43.3235 7.936C43.6995 7.456 43.9955 6.804 44.2115 5.98C44.4275 5.148 44.5475 4.188 44.5715 3.1H42.3035V1.24H48.7595V3.1H46.6115ZM57.0984 5.428C56.6824 5.844 56.1824 6.176 55.5984 6.424C55.0144 6.664 54.3704 6.788 53.6664 6.796V5.032C54.2184 5 54.6984 4.848 55.1064 4.576C55.5144 4.296 55.8064 3.944 55.9824 3.52H53.8824V1.78H56.0184V0.808H58.0824V1.78H60.2304V3.52H58.1064C58.0824 3.672 58.0464 3.82 57.9984 3.964L60.6504 5.26L59.7744 6.808L57.0984 5.428ZM63.4224 0.999999V11.248H61.3944V0.999999H63.4224ZM58.1544 7.372C58.6744 7.372 59.1704 7.348 59.6424 7.3C60.1224 7.252 60.5104 7.176 60.8064 7.072V8.8C60.2144 9.016 59.2904 9.124 58.0344 9.124V11.248H56.0064V9.124H53.4864V7.372H58.1544ZM75.8534 2.764V4.732H74.6534V6.784H72.6254V0.999999H74.6534V2.764H75.8534ZM71.5094 6.4H65.2574V1.12H67.2254V2.14H69.5414V1.12H71.5094V6.4ZM69.5414 4.768V3.724H67.2254V4.768H69.5414ZM70.1294 6.952C71.5374 6.952 72.6574 7.128 73.4894 7.48C74.3294 7.824 74.7494 8.384 74.7494 9.16C74.7494 9.936 74.3294 10.496 73.4894 10.84C72.6574 11.192 71.5374 11.368 70.1294 11.368C68.7214 11.368 67.5974 11.192 66.7574 10.84C65.9254 10.496 65.5094 9.936 65.5094 9.16C65.5094 8.384 65.9254 7.824 66.7574 7.48C67.5974 7.128 68.7214 6.952 70.1294 6.952ZM70.1294 9.772C70.8654 9.772 71.4534 9.724 71.8934 9.628C72.3414 9.532 72.5654 9.376 72.5654 9.16C72.5654 8.952 72.3414 8.8 71.8934 8.704C71.4454 8.6 70.8574 8.548 70.1294 8.548C69.4014 8.548 68.8134 8.6 68.3654 8.704C67.9174 8.8 67.6934 8.952 67.6934 9.16C67.6934 9.376 67.9134 9.532 68.3534 9.628C68.8014 9.724 69.3934 9.772 70.1294 9.772ZM86.4844 11.248H84.4564V0.999999H86.4844V11.248ZM80.1004 1.12C81.1004 1.12 81.8844 1.528 82.4524 2.344C83.0284 3.152 83.3164 4.372 83.3164 6.004C83.3164 7.636 83.0284 8.86 82.4524 9.676C81.8844 10.484 81.1004 10.888 80.1004 10.888C79.1004 10.888 78.3124 10.484 77.7364 9.676C77.1604 8.86 76.8724 7.636 76.8724 6.004C76.8724 4.372 77.1604 3.152 77.7364 2.344C78.3124 1.528 79.1004 1.12 80.1004 1.12ZM80.1004 2.98C79.2844 2.98 78.8764 3.988 78.8764 6.004C78.8764 8.02 79.2844 9.028 80.1004 9.028C80.9084 9.028 81.3124 8.02 81.3124 6.004C81.3124 4.932 81.2004 4.16 80.9764 3.688C80.7604 3.216 80.4684 2.98 80.1004 2.98ZM10.488 15V25.248H8.46V15H10.488ZM5.124 15.24H7.116V24.768H1.044V15.24H3.036V18.252H5.124V15.24ZM5.124 22.908V20.1H3.036V22.908H5.124ZM22.091 15V25.248H20.063V20.76H18.707C18.619 22.144 18.299 23.18 17.747 23.868C17.203 24.548 16.475 24.888 15.563 24.888C14.571 24.888 13.791 24.484 13.223 23.676C12.663 22.86 12.383 21.636 12.383 20.004C12.383 18.372 12.663 17.152 13.223 16.344C13.791 15.528 14.571 15.12 15.563 15.12C16.427 15.12 17.131 15.432 17.675 16.056C18.219 16.672 18.555 17.608 18.683 18.864H20.063V15H22.091ZM15.563 23.028C16.339 23.028 16.727 22.02 16.727 20.004C16.727 17.988 16.339 16.98 15.563 16.98C14.779 16.98 14.387 17.988 14.387 20.004C14.387 22.02 14.779 23.028 15.563 23.028ZM33.5859 20.676H31.5579V15H33.5859V20.676ZM30.3579 17.772C30.3579 18.324 30.2179 18.808 29.9379 19.224C29.6579 19.64 29.2659 19.964 28.7619 20.196C28.2579 20.42 27.6779 20.532 27.0219 20.532C26.3659 20.532 25.7859 20.42 25.2819 20.196C24.7779 19.964 24.3859 19.64 24.1059 19.224C23.8259 18.808 23.6859 18.324 23.6859 17.772C23.6859 17.228 23.8259 16.748 24.1059 16.332C24.3859 15.908 24.7779 15.584 25.2819 15.36C25.7859 15.128 26.3659 15.012 27.0219 15.012C27.6779 15.012 28.2579 15.128 28.7619 15.36C29.2659 15.584 29.6579 15.908 29.9379 16.332C30.2179 16.748 30.3579 17.228 30.3579 17.772ZM25.7019 17.772C25.7019 18.108 25.8219 18.376 26.0619 18.576C26.3019 18.776 26.6219 18.876 27.0219 18.876C27.4219 18.876 27.7419 18.776 27.9819 18.576C28.2219 18.376 28.3419 18.108 28.3419 17.772C28.3419 17.436 28.2219 17.168 27.9819 16.968C27.7419 16.768 27.4219 16.668 27.0219 16.668C26.6219 16.668 26.3019 16.768 26.0619 16.968C25.8219 17.168 25.7019 17.436 25.7019 17.772ZM33.1659 25.356L31.4619 24C31.1019 24.4 30.6819 24.708 30.2019 24.924C29.7299 25.14 29.2299 25.248 28.7019 25.248L27.1419 24.012C26.7739 24.412 26.3539 24.716 25.8819 24.924C25.4179 25.14 24.9299 25.248 24.4179 25.248V23.412C24.7379 23.412 25.0379 23.308 25.3179 23.1C25.6059 22.884 25.8459 22.592 26.0379 22.224C26.2299 21.848 26.3499 21.436 26.3979 20.988L28.3539 21.312C28.2979 21.76 28.1939 22.176 28.0419 22.56L29.1579 23.328C29.5419 23.192 29.8739 22.912 30.1539 22.488C30.4419 22.056 30.6179 21.556 30.6819 20.988L32.6379 21.312C32.5739 21.768 32.4739 22.18 32.3379 22.548L34.3179 23.904L33.1659 25.356ZM46.0409 20.712H44.8409V25.248H42.8129V15H44.8409V18.744H46.0409V20.712ZM39.6809 22.932C40.1769 22.932 40.6649 22.892 41.1449 22.812C41.6329 22.732 42.0289 22.62 42.3329 22.476V24.288C42.0369 24.44 41.6249 24.556 41.0969 24.636C40.5769 24.724 40.0569 24.768 39.5369 24.768H35.5649V15.24H41.5289V17.076H37.6289V22.932H39.6809ZM54.7279 20.124H53.6359V18.336H54.7279V17.532H53.6359V15.744H54.7279V15H56.7199V22.596H54.7279V20.124ZM53.1559 20.952H47.0479V15.12H53.1559V20.952ZM51.1639 16.836H49.0399V19.236H51.1639V16.836ZM56.8639 23.436V25.248H47.5519V21.66H49.6159V23.436H56.8639ZM60.4988 21.84C60.4988 21.248 60.5868 20.764 60.7628 20.388C60.9468 20.012 61.2588 19.66 61.6988 19.332C62.0908 19.028 62.3708 18.776 62.5388 18.576C62.7068 18.368 62.7908 18.128 62.7908 17.856C62.7908 17.552 62.6868 17.316 62.4788 17.148C62.2708 16.972 61.9788 16.884 61.6028 16.884C61.2188 16.884 60.9148 17 60.6908 17.232C60.4748 17.456 60.3668 17.732 60.3668 18.06H58.2788C58.2788 17.492 58.4188 16.98 58.6988 16.524C58.9868 16.06 59.3788 15.696 59.8748 15.432C60.3788 15.168 60.9508 15.036 61.5908 15.036C62.2708 15.036 62.8548 15.156 63.3428 15.396C63.8308 15.636 64.2028 15.972 64.4588 16.404C64.7148 16.828 64.8428 17.312 64.8428 17.856C64.8428 18.696 64.4388 19.428 63.6308 20.052C63.1908 20.396 62.8868 20.696 62.7188 20.952C62.5588 21.208 62.4788 21.504 62.4788 21.84H60.4988ZM61.5548 25.248C61.1868 25.248 60.8828 25.128 60.6428 24.888C60.4028 24.656 60.2828 24.356 60.2828 23.988C60.2828 23.62 60.4028 23.316 60.6428 23.076C60.8828 22.836 61.1868 22.716 61.5548 22.716C61.9228 22.716 62.2268 22.836 62.4668 23.076C62.7068 23.316 62.8268 23.62 62.8268 23.988C62.8268 24.356 62.7068 24.656 62.4668 24.888C62.2268 25.128 61.9228 25.248 61.5548 25.248Z" fill="#888888"/>
</svg>
