<svg width="98" height="77" viewBox="0 0 98 77" fill="none" xmlns="http://www.w3.org/2000/svg">
<path d="M20.576 -1.43051e-06V20.496H16.784V11.376H15.08V20.136H11.336V0.0959988H15.08V7.536H16.784V-1.43051e-06H20.576ZM5.6 15.96C6.432 15.96 7.28 15.904 8.144 15.792C9.024 15.664 9.768 15.488 10.376 15.264V18.816C9.8 19.056 9.032 19.232 8.072 19.344C7.128 19.472 6.184 19.536 5.24 19.536H0.536V0.431999H4.496V15.96H5.6ZM44.9099 3.528V7.464H42.5099V11.568H38.4539V-1.43051e-06H42.5099V3.528H44.9099ZM36.2219 10.8H23.7179V0.24H27.6539V2.28H32.2859V0.24H36.2219V10.8ZM32.2859 7.536V5.448H27.6539V7.536H32.2859ZM33.4619 11.904C36.2779 11.904 38.5179 12.256 40.1819 12.96C41.8619 13.648 42.7019 14.768 42.7019 16.32C42.7019 17.872 41.8619 18.992 40.1819 19.68C38.5179 20.384 36.2779 20.736 33.4619 20.736C30.6459 20.736 28.3979 20.384 26.7179 19.68C25.0539 18.992 24.2219 17.872 24.2219 16.32C24.2219 14.768 25.0539 13.648 26.7179 12.96C28.3979 12.256 30.6459 11.904 33.4619 11.904ZM33.4619 17.544C34.9339 17.544 36.1099 17.448 36.9899 17.256C37.8859 17.064 38.3339 16.752 38.3339 16.32C38.3339 15.904 37.8859 15.6 36.9899 15.408C36.0939 15.2 34.9179 15.096 33.4619 15.096C32.0059 15.096 30.8299 15.2 29.9339 15.408C29.0379 15.6 28.5899 15.904 28.5899 16.32C28.5899 16.752 29.0299 17.064 29.9099 17.256C30.8059 17.448 31.9899 17.544 33.4619 17.544ZM56.7159 0.167999C58.6199 0.167999 60.2919 0.455999 61.7319 1.032C63.1719 1.592 64.2839 2.384 65.0679 3.408C65.8519 4.432 66.2439 5.608 66.2439 6.936C66.2439 8.264 65.8519 9.44 65.0679 10.464C64.2839 11.488 63.1719 12.288 61.7319 12.864C60.2919 13.424 58.6199 13.704 56.7159 13.704C54.8119 13.704 53.1399 13.424 51.6999 12.864C50.2599 12.288 49.1479 11.488 48.3639 10.464C47.5799 9.44 47.1879 8.264 47.1879 6.936C47.1879 5.608 47.5799 4.432 48.3639 3.408C49.1479 2.384 50.2599 1.592 51.6999 1.032C53.1399 0.455999 54.8119 0.167999 56.7159 0.167999ZM56.7159 3.84C55.6919 3.84 54.7799 3.968 53.9799 4.224C53.1959 4.48 52.5799 4.848 52.1319 5.328C51.6999 5.792 51.4839 6.328 51.4839 6.936C51.4839 7.544 51.6999 8.088 52.1319 8.568C52.5799 9.032 53.1959 9.392 53.9799 9.648C54.7799 9.904 55.6919 10.032 56.7159 10.032C57.7399 10.032 58.6439 9.904 59.4279 9.648C60.2279 9.392 60.8439 9.032 61.2759 8.568C61.7239 8.088 61.9479 7.544 61.9479 6.936C61.9479 6.328 61.7239 5.792 61.2759 5.328C60.8439 4.848 60.2279 4.48 59.4279 4.224C58.6439 3.968 57.7399 3.84 56.7159 3.84ZM67.0839 19.776H46.3479V15.984H67.0839V19.776ZM90.1698 16.08V19.776H69.4338V16.08H77.7378V13.776H70.5858V5.424H85.0338V4.032H70.5378V0.48H89.0418V8.808H74.5938V10.224H89.2818V13.776H81.8658V16.08H90.1698ZM20.912 36.952V40.024H0.176V36.952H3.992V35.056C2.12 34.336 1.184 33.256 1.184 31.816C1.184 30.408 2.024 29.368 3.704 28.696C5.4 28.008 7.68 27.664 10.544 27.664C13.408 27.664 15.68 28.008 17.36 28.696C19.056 29.368 19.904 30.408 19.904 31.816C19.904 33.256 18.968 34.336 17.096 35.056V36.952H20.912ZM10.544 30.688C8.96 30.688 7.72 30.784 6.824 30.976C5.944 31.168 5.504 31.448 5.504 31.816C5.504 32.2 5.944 32.488 6.824 32.68C7.704 32.856 8.944 32.944 10.544 32.944C12.144 32.944 13.384 32.856 14.264 32.68C15.144 32.488 15.584 32.2 15.584 31.816C15.584 31.448 15.136 31.168 14.24 30.976C13.36 30.784 12.128 30.688 10.544 30.688ZM8 36.952H13.088V35.872C12.384 35.936 11.536 35.968 10.544 35.968C9.552 35.968 8.704 35.936 8 35.872V36.952ZM10.544 40.72C16.784 40.72 19.904 42.056 19.904 44.728C19.904 47.4 16.784 48.736 10.544 48.736C4.304 48.736 1.184 47.4 1.184 44.728C1.184 42.056 4.304 40.72 10.544 40.72ZM10.544 45.712C13.904 45.712 15.584 45.384 15.584 44.728C15.584 44.072 13.904 43.744 10.544 43.744C7.184 43.744 5.504 44.072 5.504 44.728C5.504 45.384 7.184 45.712 10.544 45.712ZM43.9979 38.128V41.464H23.2619V38.128H31.5899V36.568H24.5099V28H42.7499V31.264H28.5659V33.304H42.9899V36.568H35.6699V38.128H43.9979ZM28.5899 45.112H43.0379V48.496H24.4619V42.4H28.5899V45.112ZM13.256 65.84H0.752V56.24H4.688V57.944H9.32V56.24H13.256V59.072H16.04V56H20.096V66.272H16.04V62.768H13.256V65.84ZM9.32 62.72V60.992H4.688V62.72H9.32ZM20.312 73.784V76.496H1.784V70.496H16.112V69.704H1.736V66.992H20.096V72.992H5.768V73.784H20.312ZM43.1819 56V76.496H39.1259V67.52H36.4139C36.2379 70.288 35.5979 72.36 34.4939 73.736C33.4059 75.096 31.9499 75.776 30.1259 75.776C28.1419 75.776 26.5819 74.968 25.4459 73.352C24.3259 71.72 23.7659 69.272 23.7659 66.008C23.7659 62.744 24.3259 60.304 25.4459 58.688C26.5819 57.056 28.1419 56.24 30.1259 56.24C31.8539 56.24 33.2619 56.864 34.3499 58.112C35.4379 59.344 36.1099 61.216 36.3659 63.728H39.1259V56H43.1819ZM30.1259 72.056C31.6779 72.056 32.4539 70.04 32.4539 66.008C32.4539 61.976 31.6779 59.96 30.1259 59.96C28.5579 59.96 27.7739 61.976 27.7739 66.008C27.7739 70.04 28.5579 72.056 30.1259 72.056ZM67.0839 71.984V75.776H46.3479V71.984H54.6519V68.864H47.4759V56.48H51.4599V59.096H61.9719V56.48H65.9559V68.864H58.7799V71.984H67.0839ZM51.4599 65.24H61.9719V62.672H51.4599V65.24ZM91.0818 67.424H88.6818V76.496H84.6258V56H88.6818V63.488H91.0818V67.424ZM78.7698 60.2C78.7218 62.072 78.5538 63.784 78.2658 65.336L84.1218 73.064L80.9058 75.44L76.8738 69.896C76.0418 71.688 74.9938 73.072 73.7298 74.048C72.4818 75.024 71.0978 75.52 69.5778 75.536V71.456C70.5698 71.344 71.4418 70.816 72.1938 69.872C72.9458 68.912 73.5378 67.608 73.9698 65.96C74.4018 64.296 74.6418 62.376 74.6898 60.2H70.1538V56.48H83.0658V60.2H78.7698ZM96.6238 69.68H93.6478L92.5438 56.6H97.7278L96.6238 69.68ZM95.1358 71.432C95.8718 71.432 96.4798 71.672 96.9598 72.152C97.4398 72.632 97.6797 73.24 97.6797 73.976C97.6797 74.712 97.4398 75.312 96.9598 75.776C96.4798 76.256 95.8718 76.496 95.1358 76.496C94.3998 76.496 93.7918 76.256 93.3118 75.776C92.8318 75.312 92.5918 74.712 92.5918 73.976C92.5918 73.24 92.8318 72.632 93.3118 72.152C93.7918 71.672 94.3998 71.432 95.1358 71.432Z" fill="#6F22D2"/>
</svg>
