<svg width="20" height="20" viewBox="0 0 20 20" fill="none" xmlns="http://www.w3.org/2000/svg">
<path d="M16.6667 18.75H3.33333C2.875 18.75 2.5 18.375 2.5 17.9167V2.08333C2.5 1.625 2.875 1.25 3.33333 1.25H16.6667C17.125 1.25 17.5 1.625 17.5 2.08333V17.9167C17.5 18.375 17.125 18.75 16.6667 18.75ZM3.33333 2.08333V17.9167H16.6667V2.08333H3.33333Z" fill="#222222"/>
<path d="M9.99984 14.5832C6.78317 14.5832 4.1665 11.9665 4.1665 8.74984C4.1665 5.53317 6.78317 2.9165 9.99984 2.9165C13.2165 2.9165 15.8332 5.53317 15.8332 8.74984C15.8332 11.9665 13.2165 14.5832 9.99984 14.5832ZM9.99984 3.74984C7.2415 3.74984 4.99984 5.9915 4.99984 8.74984C4.99984 11.5082 7.2415 13.7498 9.99984 13.7498C12.7582 13.7498 14.9998 11.5082 14.9998 8.74984C14.9998 5.9915 12.7582 3.74984 9.99984 3.74984Z" fill="#222222"/>
<path d="M9.99967 13.2293C7.52884 13.2293 5.52051 11.221 5.52051 8.75016C5.52051 6.27933 7.52884 4.271 9.99967 4.271C12.4705 4.271 14.4788 6.27933 14.4788 8.75016C14.4788 11.221 12.4705 13.2293 9.99967 13.2293ZM9.99967 5.10433C7.99134 5.10433 6.35384 6.73766 6.35384 8.75016C6.35384 10.7627 7.99134 12.396 9.99967 12.396C12.008 12.396 13.6455 10.7627 13.6455 8.75016C13.6455 6.73766 12.008 5.10433 9.99967 5.10433Z" fill="#222222"/>
<path d="M15.8333 17.4998H11.6667C11.4375 17.4998 11.25 17.3123 11.25 17.0832V15.8332C11.25 15.604 11.4375 15.4165 11.6667 15.4165H15.8333C16.0625 15.4165 16.25 15.604 16.25 15.8332V17.0832C16.25 17.3123 16.0625 17.4998 15.8333 17.4998ZM12.0833 16.6665H15.4167V16.2498H12.0833V16.6665Z" fill="#222222"/>
</svg>
