<svg width="20" height="20" viewBox="0 0 20 20" fill="none" xmlns="http://www.w3.org/2000/svg">
<path d="M18.333 15.8332H1.66634C1.20801 15.8332 0.833008 15.4582 0.833008 14.9998V4.99984C0.833008 4.5415 1.20801 4.1665 1.66634 4.1665H18.333C18.7913 4.1665 19.1663 4.5415 19.1663 4.99984V14.9998C19.1663 15.4582 18.7913 15.8332 18.333 15.8332ZM1.66634 4.99984V14.9998H18.333V4.99984H1.66634Z" fill="#222222"/>
<path d="M13.7495 14.1668H2.91618C2.68701 14.1668 2.49951 13.9793 2.49951 13.7502V6.25016C2.49951 6.021 2.68701 5.8335 2.91618 5.8335H13.7495C13.9787 5.8335 14.1662 6.021 14.1662 6.25016V13.7502C14.1662 13.9793 13.9787 14.1668 13.7495 14.1668ZM3.33285 13.3335H13.3328V6.66683H3.33285V13.3335Z" fill="#222222"/>
<path d="M4.16624 8.74997C4.05791 8.74997 3.95374 8.7083 3.87041 8.62913C3.70791 8.46663 3.70791 8.20413 3.87041 8.04163L4.70374 7.2083C4.86624 7.0458 5.12874 7.0458 5.29124 7.2083C5.45374 7.3708 5.45374 7.6333 5.29124 7.7958L4.45791 8.62913C4.37874 8.7083 4.27458 8.74997 4.16624 8.74997Z" fill="#222222"/>
<path d="M4.16624 10.5166C4.05791 10.5166 3.95374 10.475 3.87041 10.3958C3.70791 10.2333 3.70791 9.9708 3.87041 9.8083L6.47041 7.2083C6.63291 7.0458 6.89541 7.0458 7.05791 7.2083C7.22041 7.3708 7.22041 7.6333 7.05791 7.7958L4.45791 10.3958C4.37874 10.475 4.27458 10.5166 4.16624 10.5166Z" fill="#222222"/>
<path d="M16.25 8.75C15.5625 8.75 15 8.1875 15 7.5C15 6.8125 15.5625 6.25 16.25 6.25C16.9375 6.25 17.5 6.8125 17.5 7.5C17.5 8.1875 16.9375 8.75 16.25 8.75ZM16.25 7.08333C16.0208 7.08333 15.8333 7.27083 15.8333 7.5C15.8333 7.72917 16.0208 7.91667 16.25 7.91667C16.4792 7.91667 16.6667 7.72917 16.6667 7.5C16.6667 7.27083 16.4792 7.08333 16.25 7.08333Z" fill="#222222"/>
<path d="M16.25 12.0835C15.5625 12.0835 15 11.521 15 10.8335C15 10.146 15.5625 9.5835 16.25 9.5835C16.9375 9.5835 17.5 10.146 17.5 10.8335C17.5 11.521 16.9375 12.0835 16.25 12.0835ZM16.25 10.4168C16.0208 10.4168 15.8333 10.6043 15.8333 10.8335C15.8333 11.0627 16.0208 11.2502 16.25 11.2502C16.4792 11.2502 16.6667 11.0627 16.6667 10.8335C16.6667 10.6043 16.4792 10.4168 16.25 10.4168Z" fill="#222222"/>
<path d="M17.0833 13.7498H15.4167C15.1875 13.7498 15 13.5623 15 13.3332C15 13.104 15.1875 12.9165 15.4167 12.9165H17.0833C17.3125 12.9165 17.5 13.104 17.5 13.3332C17.5 13.5623 17.3125 13.7498 17.0833 13.7498Z" fill="#222222"/>
</svg>
