<svg width="110" height="27" viewBox="0 0 110 27" fill="none" xmlns="http://www.w3.org/2000/svg">
<g clip-path="url(#clip0)">
<path fill-rule="evenodd" clip-rule="evenodd" d="M3.99628 7.66506L7.46724 4.08954C7.54626 4.01046 7.6422 3.94832 7.74943 3.92008L21.0633 0.0112929C21.1705 -0.0225983 21.289 0.0169404 21.3567 0.107317L30.0483 11.7038C30.2063 11.9184 30.1668 12.2178 29.9523 12.3759C29.9185 12.4042 29.8789 12.4211 29.8338 12.4381L27.6045 13.2966C27.4634 13.3531 27.3674 13.4943 27.3731 13.6469V21.7864C27.3731 21.9841 27.2489 22.1592 27.0627 22.227L19.3137 25.0851L14.2906 26.9379C14.0705 27.0169 13.8279 27.0169 13.6077 26.9266L2.69819 22.4699C2.52323 22.3964 2.40471 22.2213 2.40471 22.0349V13.1385C2.40471 13.0086 2.32005 12.89 2.19589 12.8448L0.147175 12.0992C0.028654 12.054 -0.0334314 11.9241 0.0117194 11.7998L3.99628 7.66506ZM9.57762 4.97063L16.3389 15.4487C16.4518 15.6294 16.6719 15.7085 16.8751 15.6407L27.9258 12.1725C28.1741 12.0934 28.3095 11.8279 28.2305 11.5794C28.2136 11.5342 28.1967 11.489 28.1684 11.4495L20.9669 1.4064C20.8484 1.24824 20.6452 1.17481 20.4533 1.22565L9.84852 4.25891C9.60019 4.33234 9.4591 4.59218 9.52682 4.84071C9.53811 4.89155 9.55504 4.93109 9.57762 4.97063ZM6.16876 22.2608V14.6748C6.17441 14.6466 6.18005 14.6183 6.19134 14.5957V14.5901C6.23649 14.4715 6.37194 14.4093 6.49046 14.4545L10.3339 15.8779C10.5202 15.9457 10.6443 16.1208 10.6443 16.3185V23.5939C10.6443 23.6503 10.633 23.7012 10.6161 23.752C10.5315 23.9836 10.2718 24.1022 10.0404 24.0175L6.47918 22.7014C6.29293 22.6336 6.16876 22.4585 6.16876 22.2608Z" fill="#6F22D2"/>
</g>
<path d="M47.7768 5.5V11.78H46.3497V5.58H43.2141V22.28H46.3497V14.98H47.7768V22.58H50.9525V5.5H47.7768ZM37.4857 18.8V5.86H34.1693V21.78H38.1088C39.556 21.78 41.3851 21.6 42.4102 21.18V18.22C41.365 18.6 39.757 18.8 38.4103 18.8H37.4857Z" fill="#6F22D2"/>
<path d="M69.3218 8.44V5.5H65.925V15.14H69.3218V11.72H71.3318V8.44H69.3218ZM64.0557 5.7H60.7594V7.4H56.8801V5.7H53.5838V14.5H64.0557V5.7ZM56.8801 11.78V10.04H60.7594V11.78H56.8801ZM61.7443 15.42C57.4228 15.42 54.0059 16.36 54.0059 19.1C54.0059 21.84 57.4228 22.78 61.7443 22.78C66.0657 22.78 69.4826 21.84 69.4826 19.1C69.4826 16.36 66.0657 15.42 61.7443 15.42ZM61.7443 20.12C59.473 20.12 57.664 19.86 57.664 19.1C57.664 18.36 59.473 18.08 61.7443 18.08C64.0155 18.08 65.8245 18.36 65.8245 19.1C65.8245 19.86 64.0155 20.12 61.7443 20.12Z" fill="#6F22D2"/>
<path d="M89.1383 5.5H85.7415V22.58H89.1383V5.5ZM76.7971 5.8H73.2998V21.78H80.395C82.0431 21.78 83.7918 21.48 84.837 20.96V17.88C83.7918 18.38 82.023 18.7 80.395 18.7H76.7971V5.8Z" fill="#6F22D2"/>
<path d="M107.99 8.44V5.5H104.593V15.14H107.99V11.72H110V8.44H107.99ZM102.724 5.7H99.4276V7.4H95.5483V5.7H92.252V14.5H102.724V5.7ZM95.5483 11.78V10.04H99.4276V11.78H95.5483ZM100.412 15.42C96.091 15.42 92.6741 16.36 92.6741 19.1C92.6741 21.84 96.091 22.78 100.412 22.78C104.734 22.78 108.151 21.84 108.151 19.1C108.151 16.36 104.734 15.42 100.412 15.42ZM100.412 20.12C98.1412 20.12 96.3322 19.86 96.3322 19.1C96.3322 18.36 98.1412 18.08 100.412 18.08C102.684 18.08 104.493 18.36 104.493 19.1C104.493 19.86 102.684 20.12 100.412 20.12Z" fill="#6F22D2"/>
<defs>
<clipPath id="clip0">
<rect width="30.1494" height="27" fill="white"/>
</clipPath>
</defs>
</svg>
