<svg width="20" height="20" viewBox="0 0 20 20" fill="none" xmlns="http://www.w3.org/2000/svg">
<g clip-path="url(#clip0)">
<path d="M15.18 2H5.18C4.87 2 4.57 2.12 4.34 2.34C4.12 2.57 4 2.87 4 3.18V18.67H16.36V3.18C16.36 2.87 16.24 2.57 16.02 2.35C15.79 2.12 15.49 2 15.18 2ZM15.24 17.56H13.69V15.89H6.78V17.56H5.11V3.18C5.11 3.17 5.11 3.16 5.12 3.15C5.12 3.14 5.13 3.13 5.13 3.13C5.14 3.12 5.14 3.12 5.15 3.12C5.16 3.12 5.17 3.11 5.18 3.11H15.18C15.19 3.11 15.2 3.11 15.21 3.12C15.22 3.12 15.23 3.13 15.23 3.13C15.24 3.14 15.24 3.14 15.24 3.15C15.24 3.16 15.25 3.17 15.25 3.18V17.56H15.24Z" fill="#222222"/>
<path d="M6.22021 4.78027H7.33021V5.89027H6.22021V4.78027Z" fill="#222222"/>
<path d="M8.43994 4.78027H9.54994V5.89027H8.43994V4.78027Z" fill="#222222"/>
<path d="M10.6699 4.78027H11.7799V5.89027H10.6699V4.78027Z" fill="#222222"/>
<path d="M6.22021 7.55957H7.33021V8.66957H6.22021V7.55957Z" fill="#222222"/>
<path d="M8.43994 7.55957H9.54994V8.66957H8.43994V7.55957Z" fill="#222222"/>
<path d="M10.6699 7.55957H11.7799V8.66957H10.6699V7.55957Z" fill="#222222"/>
<path d="M6.22021 10.3301H7.33021V11.4401H6.22021V10.3301Z" fill="#222222"/>
<path d="M8.43994 10.3301H9.54994V11.4401H8.43994V10.3301Z" fill="#222222"/>
<path d="M10.6699 10.3301H11.7799V11.4401H10.6699V10.3301Z" fill="#222222"/>
<path d="M6.22021 13.1104H7.33021V14.2204H6.22021V13.1104Z" fill="#222222"/>
<path d="M8.43994 13.1104H9.54994V14.2204H8.43994V13.1104Z" fill="#222222"/>
<path d="M10.6699 13.1104H11.7799V14.2204H10.6699V13.1104Z" fill="#222222"/>
<path d="M12.9302 4.78027H14.0402V5.89027H12.9302V4.78027Z" fill="#222222"/>
<path d="M12.9302 7.55957H14.0402V8.66957H12.9302V7.55957Z" fill="#222222"/>
<path d="M12.9302 10.3301H14.0402V11.4401H12.9302V10.3301Z" fill="#222222"/>
<path d="M12.9302 13.1104H14.0402V14.2204H12.9302V13.1104Z" fill="#222222"/>
</g>
<defs>
<clipPath id="clip0">
<rect width="12.36" height="16.67" fill="white" transform="translate(4 2)"/>
</clipPath>
</defs>
</svg>
