<svg width="20" height="20" viewBox="0 0 20 20" fill="none" xmlns="http://www.w3.org/2000/svg">
<path d="M14.9998 18.75H4.99984C4.5415 18.75 4.1665 18.375 4.1665 17.9167V2.08333C4.1665 1.625 4.5415 1.25 4.99984 1.25H14.9998C15.4582 1.25 15.8332 1.625 15.8332 2.08333V17.9167C15.8332 18.375 15.4582 18.75 14.9998 18.75ZM4.99984 2.08333V17.9167H14.9998V2.08333H4.99984Z" fill="#222222"/>
<path d="M13.6955 6.77894C13.4663 6.77894 13.2788 6.59144 13.2788 6.36227V4.97477C13.2788 4.74561 13.4663 4.55811 13.6955 4.55811C13.9246 4.55811 14.1121 4.74561 14.1121 4.97477V6.36227C14.1121 6.59561 13.9246 6.77894 13.6955 6.77894Z" fill="#222222"/>
<path d="M13.6955 12.7335C13.4663 12.7335 13.2788 12.546 13.2788 12.3169V10.9294C13.2788 10.7002 13.4663 10.5127 13.6955 10.5127C13.9246 10.5127 14.1121 10.7002 14.1121 10.9294V12.3169C14.1121 12.546 13.9246 12.7335 13.6955 12.7335Z" fill="#222222"/>
<path d="M15.4165 9.22494H4.58317C4.354 9.22494 4.1665 9.03744 4.1665 8.80827C4.1665 8.5791 4.354 8.3916 4.58317 8.3916H15.4165C15.6457 8.3916 15.8332 8.5791 15.8332 8.80827C15.8332 9.03744 15.6457 9.22494 15.4165 9.22494Z" fill="#222222"/>
</svg>
