<svg width="20" height="20" viewBox="0 0 20 20" fill="none" xmlns="http://www.w3.org/2000/svg">
<g clip-path="url(#clip0)">
<path d="M2.45557 12.0059H5.94923" stroke="#222222" stroke-width="0.8"/>
<path d="M8.16959 12.0059C8.16959 12.6672 7.67302 13.1586 7.1139 13.1586C6.55478 13.1586 6.0582 12.6672 6.0582 12.0059C6.0582 11.3445 6.55478 10.8531 7.1139 10.8531C7.67302 10.8531 8.16959 11.3445 8.16959 12.0059Z" stroke="#222222" stroke-width="0.8"/>
<path d="M7.40479 11.0742L7.98706 9.21094" stroke="#222222" stroke-width="0.8"/>
<path d="M5.63072 3.60122C5.6453 3.54795 5.69987 3.51809 5.7526 3.53451L14.7167 6.32702C14.7793 6.34652 14.8086 6.42058 14.776 6.47677L12.4248 10.5209C12.4021 10.5599 12.3561 10.5776 12.3127 10.5641L4.49475 8.12863C4.44202 8.1122 4.4111 8.0557 4.42568 8.00244L5.63072 3.60122Z" stroke="#222222" stroke-width="0.8"/>
<path d="M14.5562 7.15229L15.1967 7.35181C15.4603 7.43394 15.6149 7.71644 15.542 7.98277L15.5108 8.09671L14.9899 9.99923C14.917 10.2656 14.6441 10.4149 14.3805 10.3328L13.3674 10.0172L12.9016 9.87207" stroke="#222222" stroke-width="0.8"/>
<rect x="1.4" y="9.4" width="1.2" height="5.2" stroke="#222222" stroke-width="0.8"/>
</g>
<defs>
<clipPath id="clip0">
<rect width="20" height="20" fill="white"/>
</clipPath>
</defs>
</svg>
