<svg width="80" height="80" viewBox="0 0 80 80" fill="none" xmlns="http://www.w3.org/2000/svg">
<path d="M6.66675 13.31C6.67285 12.4346 7.02308 11.5967 7.64179 10.9774C8.2605 10.3581 9.09802 10.007 9.97342 10H70.0268C71.8534 10 73.3334 11.4833 73.3334 13.31V66.69C73.3273 67.5654 72.9771 68.4033 72.3584 69.0226C71.7397 69.6419 70.9022 69.993 70.0268 70H9.97342C9.09613 69.9991 8.25507 69.65 7.63505 69.0293C7.01502 68.4087 6.66675 67.5673 6.66675 66.69V13.31ZM13.3334 16.6667V63.3333H66.6668V16.6667H13.3334ZM20.0001 23.3333H40.0001V43.3333H20.0001V23.3333ZM26.6668 30V36.6667H33.3334V30H26.6668ZM20.0001 50H60.0001V56.6667H20.0001V50ZM46.6668 23.3333H60.0001V30H46.6668V23.3333ZM46.6668 36.6667H60.0001V43.3333H46.6668V36.6667Z" fill="#CCCCCC"/>
</svg>
