<svg width="20" height="20" viewBox="0 0 20 20" fill="none" xmlns="http://www.w3.org/2000/svg">
<path d="M7.22004 5.53027C5.50004 5.53027 4.29004 6.73027 4.29004 8.33027H6.08004C6.08004 7.71027 6.48004 7.11027 7.22004 7.11027C8.01004 7.11027 8.34004 7.51027 8.34004 8.11027C8.34004 8.57027 8.11004 9.10027 7.13004 10.1103L4.46004 12.8603V13.9003H10.29V12.3603H7.12004L8.29004 11.1503C9.72004 9.67027 10.13 8.94027 10.13 8.09027C10.13 6.61027 9.05004 5.53027 7.22004 5.53027Z" fill="#222222"/>
<path d="M16.2 9.10027H14.52V7.36027H12.85V9.10027H11.17V10.5603H12.85V12.3003H14.52V10.5603H16.2V9.10027Z" fill="#222222"/>
<path fill-rule="evenodd" clip-rule="evenodd" d="M16 2H4C2.89543 2 2 2.89543 2 4V16C2 17.1046 2.89543 18 4 18H16C17.1046 18 18 17.1046 18 16V4C18 2.89543 17.1046 2 16 2ZM4 0C1.79086 0 0 1.79086 0 4V16C0 18.2091 1.79086 20 4 20H16C18.2091 20 20 18.2091 20 16V4C20 1.79086 18.2091 0 16 0H4Z" fill="#222222"/>
</svg>
