<svg width="20" height="20" viewBox="0 0 20 20" fill="none" xmlns="http://www.w3.org/2000/svg">
<g clip-path="url(#clip0)">
<path d="M16.6667 19.1668H3.33333C2.875 19.1668 2.5 18.7918 2.5 18.3335V1.66683C2.5 1.2085 2.875 0.833496 3.33333 0.833496H16.6667C17.125 0.833496 17.5 1.2085 17.5 1.66683V18.3335C17.5 18.7918 17.125 19.1668 16.6667 19.1668ZM3.33333 1.66683V18.3335H16.6667V1.66683H3.33333Z" fill="#222222"/>
<path d="M10.0002 17.0833C7.01266 17.0833 4.5835 14.6542 4.5835 11.6667C4.5835 8.67917 7.01266 6.25 10.0002 6.25C12.9877 6.25 15.4168 8.67917 15.4168 11.6667C15.4168 14.6542 12.9877 17.0833 10.0002 17.0833ZM10.0002 7.08333C7.471 7.08333 5.41683 9.1375 5.41683 11.6667C5.41683 14.1958 7.471 16.25 10.0002 16.25C12.5293 16.25 14.5835 14.1958 14.5835 11.6667C14.5835 9.1375 12.5293 7.08333 10.0002 7.08333Z" fill="#222222"/>
<path d="M10.0002 15.8333C7.70433 15.8333 5.8335 13.9625 5.8335 11.6667C5.8335 9.37083 7.70433 7.5 10.0002 7.5C12.296 7.5 14.1668 9.37083 14.1668 11.6667C14.1668 13.9625 12.296 15.8333 10.0002 15.8333ZM10.0002 8.33333C8.16266 8.33333 6.66683 9.82917 6.66683 11.6667C6.66683 13.5042 8.16266 15 10.0002 15C11.8377 15 13.3335 13.5042 13.3335 11.6667C13.3335 9.82917 11.8377 8.33333 10.0002 8.33333Z" fill="#222222"/>
<path d="M7.49967 12.0833C7.27051 12.0833 7.08301 11.8958 7.08301 11.6667C7.08301 10.0583 8.39134 8.75 9.99967 8.75C10.2288 8.75 10.4163 8.9375 10.4163 9.16667C10.4163 9.39583 10.2288 9.58333 9.99967 9.58333C8.84967 9.58333 7.91634 10.5167 7.91634 11.6667C7.91634 11.8958 7.72884 12.0833 7.49967 12.0833Z" fill="#222222"/>
<path d="M14.583 5C13.8955 5 13.333 4.4375 13.333 3.75C13.333 3.0625 13.8955 2.5 14.583 2.5C15.2705 2.5 15.833 3.0625 15.833 3.75C15.833 4.4375 15.2705 5 14.583 5ZM14.583 3.33333C14.3538 3.33333 14.1663 3.52083 14.1663 3.75C14.1663 3.97917 14.3538 4.16667 14.583 4.16667C14.8122 4.16667 14.9997 3.97917 14.9997 3.75C14.9997 3.52083 14.8122 3.33333 14.583 3.33333Z" fill="#222222"/>
<path d="M11.25 5C10.5625 5 10 4.4375 10 3.75C10 3.0625 10.5625 2.5 11.25 2.5C11.9375 2.5 12.5 3.0625 12.5 3.75C12.5 4.4375 11.9375 5 11.25 5ZM11.25 3.33333C11.0208 3.33333 10.8333 3.52083 10.8333 3.75C10.8333 3.97917 11.0208 4.16667 11.25 4.16667C11.4792 4.16667 11.6667 3.97917 11.6667 3.75C11.6667 3.52083 11.4792 3.33333 11.25 3.33333Z" fill="#222222"/>
<path d="M8.74984 5H4.58317C4.354 5 4.1665 4.8125 4.1665 4.58333V2.91667C4.1665 2.6875 4.354 2.5 4.58317 2.5H8.74984C8.979 2.5 9.1665 2.6875 9.1665 2.91667V4.58333C9.1665 4.8125 8.979 5 8.74984 5ZM4.99984 4.16667H8.33317V3.33333H4.99984V4.16667Z" fill="#222222"/>
</g>
<defs>
<clipPath id="clip0">
<rect width="20" height="20" fill="white"/>
</clipPath>
</defs>
</svg>
