<svg width="20" height="20" viewBox="0 0 20 20" fill="none" xmlns="http://www.w3.org/2000/svg">
<path d="M10 16.25C9.3125 16.25 8.75 15.6875 8.75 15C8.75 14.3125 9.3125 13.75 10 13.75C10.6875 13.75 11.25 14.3125 11.25 15C11.25 15.6875 10.6875 16.25 10 16.25ZM10 14.5833C9.77083 14.5833 9.58333 14.7708 9.58333 15C9.58333 15.2292 9.77083 15.4167 10 15.4167C10.2292 15.4167 10.4167 15.2292 10.4167 15C10.4167 14.7708 10.2292 14.5833 10 14.5833Z" fill="#222222"/>
<path d="M18.2248 8.37083C18.1082 8.37083 17.9915 8.32083 17.9081 8.225C15.9248 5.9125 13.0415 4.58333 9.99982 4.58333C6.95815 4.58333 4.07482 5.9125 2.09148 8.225C1.94148 8.4 1.67898 8.42083 1.50398 8.27083C1.32898 8.12083 1.30815 7.85833 1.45815 7.68333C3.59982 5.18333 6.71648 3.75 9.99982 3.75C13.2831 3.75 16.3998 5.18333 18.5415 7.68333C18.6915 7.85833 18.6706 8.12083 18.4956 8.27083C18.4165 8.3375 18.3207 8.37083 18.2248 8.37083Z" fill="#222222"/>
<path d="M16.4496 10.1458C16.3288 10.1458 16.2079 10.0958 16.1288 9.99167C14.6163 8.14167 12.3829 7.08333 9.99959 7.08333C7.61626 7.08333 5.38292 8.14167 3.87042 9.99167C3.72459 10.1708 3.46209 10.1958 3.28292 10.05C3.10376 9.90417 3.07876 9.64167 3.22459 9.4625C4.89542 7.42083 7.36626 6.25 9.99959 6.25C12.6329 6.25 15.1038 7.42083 16.7746 9.4625C16.9204 9.64167 16.8954 9.90417 16.7163 10.05C16.6371 10.1125 16.5454 10.1458 16.4496 10.1458Z" fill="#222222"/>
<path d="M14.6665 11.9292C14.5415 11.9292 14.4165 11.8708 14.3332 11.7625C13.2957 10.3792 11.7165 9.58333 9.99988 9.58333C8.28321 9.58333 6.70405 10.3792 5.66655 11.7625C5.52905 11.9458 5.26655 11.9833 5.08321 11.8458C4.89988 11.7083 4.86238 11.4458 4.99988 11.2625C6.19571 9.66667 8.01655 8.75 9.99988 8.75C11.9832 8.75 13.804 9.66667 14.9999 11.2625C15.1374 11.4458 15.0999 11.7083 14.9165 11.8458C14.8415 11.9 14.754 11.9292 14.6665 11.9292Z" fill="#222222"/>
<path d="M12.8709 13.725C12.7292 13.725 12.5876 13.65 12.5126 13.5208C11.9876 12.6333 11.0251 12.0833 10.0001 12.0833C8.97507 12.0833 8.01257 12.6333 7.48757 13.5208C7.37091 13.7167 7.11674 13.7833 6.91674 13.6667C6.71674 13.55 6.65424 13.2958 6.77091 13.0958C7.44591 11.9583 8.68341 11.25 10.0001 11.25C11.3167 11.25 12.5542 11.9583 13.2292 13.0958C13.3459 13.2958 13.2792 13.55 13.0834 13.6667C13.0167 13.7083 12.9417 13.725 12.8709 13.725Z" fill="#222222"/>
</svg>
