<svg width="300" height="240" viewBox="0 0 300 240" fill="none" xmlns="http://www.w3.org/2000/svg">
<g clip-path="url(#clip0)">
<path d="M104.809 106.208C104.827 106.128 104.856 106.036 104.874 105.956L104.868 105.959C104.868 105.959 104.049 104.738 99.7659 104.277C99.7364 104.378 99.4761 104.453 99.4465 104.554C96.8319 108.546 96.4208 110.085 96.2019 112.731C95.983 115.378 96.0954 116.34 97.876 117.579C99.6536 118.818 100.73 116.718 100.73 116.718C101.372 112.547 102.7 110.423 102.7 110.423C102.7 110.423 103.487 111.023 103.203 112.987C102.919 114.95 104.123 114.656 104.123 114.656C104.123 114.656 104.83 114.288 104.992 111.849C105.158 109.41 104.809 106.214 104.809 106.208Z" fill="#F9B9A8"/>
<path opacity="0.07" d="M121.958 185.166C121.958 191.205 108.4 196.1 91.6795 196.1C74.9566 196.1 61.4043 191.205 61.4043 185.166C61.4043 179.13 74.9596 174.231 91.6795 174.231C108.4 174.231 121.958 179.13 121.958 185.166Z" fill="#2C788F"/>
<path d="M111.106 181.996C109.719 180.829 104.528 178.77 103.904 178.31C103.28 177.847 103.519 175.541 103.519 175.541L94.5042 175.583C93.5666 180.312 94.5397 184.551 94.5397 184.551C100.029 186.372 108.737 187.806 110.783 187.29C112.827 186.773 112.49 183.161 111.106 181.996Z" fill="#5A74B7"/>
<path d="M112.017 186.06C102.422 186.003 96.2256 183.882 94.3001 183.113C94.4154 184.01 94.5367 184.548 94.5367 184.548C100.026 186.369 108.737 187.803 110.78 187.287C111.419 187.129 111.801 186.654 112.017 186.06Z" fill="#59559D"/>
<path d="M91.3512 186.467C90.0765 185.181 85.0898 182.662 84.5071 182.145C83.9244 181.628 84.371 179.356 84.371 179.356L75.3884 178.586C74.0338 183.211 74.6224 187.518 74.6224 187.518C79.9285 189.826 88.4734 192.039 90.5556 191.71C92.6408 191.383 92.629 187.756 91.3512 186.467Z" fill="#5A74B7"/>
<path d="M91.8925 190.664C82.9395 189.865 76.5863 187.183 74.5218 186.199C74.5603 187.022 74.6253 187.521 74.6253 187.521C79.9315 189.829 88.4763 192.042 90.5586 191.713C91.1886 191.615 91.6234 191.211 91.8925 190.664Z" fill="#59559D"/>
<path d="M81.6943 57.7275C83.7203 56.8928 83.8919 56.2512 83.8919 56.2512C84.4509 54.0501 84.5455 52.0332 84.5455 52.0332L93.7854 54.0026C93.5961 54.7036 93.5932 55.8651 93.6582 57.0503C94.0516 57.1097 94.3681 57.0532 94.3681 57.0532L95.8795 58.8028L96.4326 63.003L89.2039 66.1517L83.3151 63.0446C83.3151 63.0446 79.6682 58.5652 81.6943 57.7275Z" fill="#F6A3A8"/>
<path d="M101.854 103.971C101.854 103.971 104.016 143.924 104.433 177.324C104.433 177.324 100.068 179.48 93.0016 178.09C93.0016 178.09 92.3864 133.275 89.5441 115.093L87.1483 108.377L88.4053 104.221L100.887 100.965L101.854 103.971Z" fill="#494DA5"/>
<path d="M75.1784 103.101C75.1784 103.101 75.5304 143.728 75.5304 148.228C75.5304 152.728 74.0367 180.38 74.0367 180.38C74.0367 180.38 76.5745 183.303 85.7434 182.18L87.592 151.79L90.1001 113.572L89.2483 107.589L75.1784 103.101Z" fill="#494DA5"/>
<path d="M86.8614 105.18C86.8614 105.18 92.4485 106.211 97.6009 103.775L96.8763 100.962L86.8585 102.305V105.18H86.8614Z" fill="#3D3E5A"/>
<path d="M83.4926 56.7295L83.6464 57.1067C94.3444 62.6406 93.6583 57.0503 93.6583 57.0503L94.3681 57.0532L96.5154 60.0237L98.2782 59.6613L96.8171 106.244C91.2181 108.745 86.8614 107.744 86.8614 107.744L83.605 91.656L80.8365 59.6613L83.4926 56.7295Z" fill="#FECC5D"/>
<path d="M100.911 57.8553L93.6405 56.7265L93.9836 59.789L94.6432 67.3637C94.6432 67.3637 96.5686 88.4628 96.1398 109.966C96.1072 111.549 97.6837 112.672 99.1566 112.111C100.505 111.597 101.952 110.958 102.741 110.331C102.738 110.331 105.072 85.1656 100.911 57.8553Z" fill="#494DA5"/>
<path d="M83.7972 56.4087C75.7847 57.686 72.898 59.4237 72.898 59.4237C72.898 76.278 74.2674 111.341 74.2674 111.341C75.4357 112.262 81.1116 113.302 84.7259 113.884C86.3586 114.148 87.8434 112.901 87.8937 111.24C89.1359 71.8045 83.7972 56.4087 83.7972 56.4087Z" fill="#494DA5"/>
<path d="M81.0613 50.4262C81.0613 50.4262 82.8626 57.7157 90.0232 57.3414C98.2871 56.9107 98.5267 46.6329 97.3525 41.8743C96.2552 37.4245 90.4462 32.3748 84.8117 36.0819C80.5881 38.8652 79.2512 43.7546 81.0613 50.4262Z" fill="#F9B9A8"/>
<path d="M90.2717 96.275C90.1977 96.2364 90.1208 96.1859 90.0469 96.1443V96.1503C90.0469 96.1503 88.6597 96.6256 87.098 100.656C87.1868 100.713 87.1897 100.983 87.2784 101.04C90.4314 104.616 91.8067 105.418 94.2912 106.321C96.7786 107.224 97.731 107.367 99.3873 105.965C101.044 104.563 99.3045 102.973 99.3045 102.973C95.4625 101.262 93.7706 99.4207 93.7706 99.4207C93.7706 99.4207 94.5515 98.8148 96.3646 99.6019C98.1776 100.389 98.2102 99.1445 98.2102 99.1445C98.2102 99.1445 98.0416 98.3633 95.7375 97.5672C93.4423 96.7741 90.2776 96.278 90.2717 96.275Z" fill="#F9B9A8"/>
<path d="M87.7221 46.0774C87.7221 46.0774 87.2607 49.3509 87.521 51.6144L86.1723 51.2846C86.1723 51.2846 85.8203 48.6795 85.8499 48.0053C85.8795 47.3339 84.1255 47.0577 84.0072 48.8459C83.8919 50.6341 84.9153 52.1639 85.6458 52.6837L84.4953 55.6957C84.4953 55.6957 79.7067 52.9689 79.4464 45.8636C79.1862 38.7375 82.8892 34.163 88.3403 34.0738C88.3403 34.0738 97.4619 33.5689 98.8047 43.205C98.8047 43.202 96.2611 45.6497 87.7221 46.0774Z" fill="#494865"/>
<path d="M77.3021 80.5703L90.387 96.6701L87.2814 101.04L67.6333 83.5912L72.898 59.4237L82.9809 65.323L77.3021 80.5703Z" fill="#494DA5"/>
<path d="M101.041 102.237L105.823 78.5504L97.8671 67.836L100.911 57.8553L116.187 75.2294L105.498 107.079L101.041 102.237Z" fill="#494DA5"/>
<path d="M166.992 3.29407C166.205 2.83365 165.114 2.89603 163.913 3.59408L106.341 36.973C103.957 38.3543 102.02 41.7257 102.029 44.4615L102.384 170.412C102.386 171.769 102.869 172.728 103.644 173.18L106.504 174.849C105.729 174.398 105.247 173.438 105.244 172.081L104.889 46.1309C104.88 43.3951 106.817 40.0266 109.201 38.6424L166.77 5.26347C167.971 4.56839 169.062 4.50601 169.849 4.96346L166.992 3.29407Z" fill="#DCDCDC"/>
<path d="M166.77 5.26346C169.154 3.8822 171.103 4.99612 171.112 7.7319L171.467 133.682C171.476 136.418 169.539 139.786 167.155 141.167L109.586 174.549C107.202 175.931 105.253 174.817 105.244 172.081L104.889 46.1309C104.88 43.3951 106.817 40.0266 109.201 38.6424L166.77 5.26346Z" fill="#F8F8F8"/>
<path d="M179.479 56.7443C180.361 56.2334 181.062 56.6492 181.065 57.6503C181.068 58.6513 180.37 59.8633 179.488 60.3772L122.736 93.2838C121.869 93.7858 121.165 93.3848 121.162 92.3837C121.159 91.3827 121.857 90.1529 122.724 89.6509L179.479 56.7443Z" fill="#9AD2FF"/>
<path d="M179.459 49.4637C180.34 48.9528 181.041 49.3687 181.044 50.3697C181.047 51.3708 180.349 52.5975 179.468 53.1114L122.715 86.0181C121.848 86.5201 121.144 86.1042 121.141 85.1031C121.138 84.1021 121.836 82.8723 122.703 82.3703L179.459 49.4637Z" fill="#9AD2FF"/>
<path d="M179.175 55.7967C178.888 55.6304 178.492 55.6541 178.048 55.9096L121.295 88.8162C120.429 89.3182 119.731 90.548 119.734 91.549C119.734 92.0481 119.908 92.3956 120.189 92.559L121.621 93.3937C121.34 93.2303 121.165 92.8798 121.165 92.3837C121.162 91.3827 121.86 90.1529 122.727 89.6509L179.479 56.7443C179.92 56.4888 180.316 56.4651 180.603 56.6314L179.175 55.7967Z" fill="#8CC1E5"/>
<path d="M121.607 86.125C121.323 85.9587 121.145 85.6052 121.145 85.1032C121.142 84.1021 121.84 82.8724 122.707 82.3704L179.46 49.4637C179.9 49.2083 180.3 49.1845 180.583 49.3509L179.155 48.5162C178.868 48.3498 178.472 48.3736 178.031 48.629L121.275 81.5357C120.409 82.0377 119.711 83.2674 119.714 84.2685C119.717 84.7705 119.891 85.124 120.175 85.2903L121.607 86.125Z" fill="#8CC1E5"/>
<path d="M121.585 78.8444C121.301 78.6781 121.124 78.3246 121.121 77.8226C121.118 76.8216 121.816 75.5918 122.682 75.0898L162.103 52.2322C162.538 51.9797 162.928 51.9589 163.212 52.1253L161.78 51.2906C161.497 51.1242 161.103 51.145 160.671 51.3975L121.251 74.2551C120.381 74.7571 119.686 75.9869 119.689 76.9879C119.692 77.4899 119.867 77.8434 120.154 78.0097L121.585 78.8444Z" fill="#8CC1E5"/>
<path d="M162.106 52.2322C162.972 51.7302 163.676 52.146 163.679 53.1471C163.682 54.1481 162.984 55.3779 162.118 55.8799L122.697 78.7375C121.831 79.2395 121.127 78.8236 121.124 77.8226C121.121 76.8216 121.819 75.5918 122.685 75.0898L162.106 52.2322Z" fill="#9AD2FF"/>
<path d="M138.574 54.1957L177.98 31.347C178.418 31.0945 178.814 31.0707 179.104 31.24L180.535 32.0747C180.248 31.9054 179.849 31.9292 179.411 32.1817L140.006 55.0304C139.124 55.5413 138.426 56.7681 138.429 57.7721C138.432 58.2711 138.607 58.6246 138.891 58.7909L137.459 57.9562C137.175 57.7899 137.001 57.4364 136.998 56.9374C136.995 55.9334 137.693 54.7066 138.574 54.1957Z" fill="#8CC1E5"/>
<path d="M140.003 55.0304C139.121 55.5413 138.423 56.7681 138.426 57.7721C138.429 58.7731 139.13 59.189 140.012 58.6781L179.417 35.8294C180.284 35.3274 180.997 34.0917 180.994 33.0906C180.991 32.0896 180.275 31.6797 179.408 32.1817L140.003 55.0304Z" fill="#9AD2FF"/>
<path d="M138.539 46.927L160.612 34.1273C161.053 33.8719 161.452 33.8481 161.742 34.0174L163.174 34.8521C162.887 34.6828 162.484 34.7095 162.044 34.962L139.97 47.7617C139.104 48.2637 138.406 49.4786 138.409 50.4796C138.409 50.9876 138.586 51.3411 138.867 51.5044L137.435 50.6697C137.152 50.5034 136.977 50.1499 136.977 49.6449C136.974 48.6439 137.672 47.429 138.539 46.927Z" fill="#5CADE5"/>
<path d="M139.97 47.7617C139.104 48.2637 138.406 49.4786 138.409 50.4796C138.412 51.4955 139.113 51.8965 139.982 51.3945L162.056 38.5949C162.922 38.0929 163.635 36.872 163.632 35.8561C163.629 34.8551 162.913 34.46 162.047 34.962L139.97 47.7617Z" fill="#66BBFF"/>
<path d="M128.169 54.9502C126.717 55.7908 125.619 57.5374 125.628 59.9286C125.634 62.305 127.128 62.3228 127.128 63.0565C127.131 64.2239 124.268 65.7477 122.821 68.534C124.123 69.5172 126.054 69.5054 128.204 68.2578C130.355 67.0102 132.268 64.7942 133.573 62.299C132.103 61.2029 129.24 63.0001 129.237 61.8327C129.234 61.099 130.721 59.3553 130.716 56.976C130.71 54.5848 129.606 54.1155 128.169 54.9502Z" fill="#66BBFF"/>
<path d="M126.731 51.05C128.698 49.9093 130.482 49.8024 131.768 50.5539L133.2 51.3886C131.91 50.6371 130.13 50.744 128.163 51.8847C124.238 54.16 121.073 59.6642 121.088 64.1942C121.094 66.226 121.748 67.7201 122.827 68.531L121.396 67.6963C120.316 66.8854 119.663 65.3913 119.657 63.3595C119.642 58.8296 122.804 53.3253 126.731 51.05Z" fill="#5CADE5"/>
<path d="M128.16 51.8847C124.235 54.16 121.07 59.6643 121.085 64.1942C121.091 66.226 121.745 67.7201 122.824 68.531C124.271 65.7477 127.134 64.2209 127.131 63.0535C127.128 62.3198 125.637 62.302 125.631 59.9257C125.625 57.5344 126.723 55.7878 128.172 54.9472C129.609 54.1125 130.713 54.5818 130.721 56.973C130.727 59.3494 129.24 61.096 129.243 61.8297C129.246 62.9971 132.109 61.2 133.579 62.2961C134.637 60.2435 135.279 58.0008 135.273 55.969C135.256 51.4391 132.073 49.6182 128.16 51.8847Z" fill="#9AD2FF"/>
<path d="M165.478 72.761L178.08 65.4537C178.521 65.1982 178.92 65.1744 179.204 65.3408L180.636 66.1755C180.349 66.0091 179.953 66.0329 179.512 66.2884L166.906 73.5957C166.037 74.0977 165.327 75.3334 165.33 76.3374C165.333 76.8334 165.507 77.1869 165.791 77.3533L164.363 76.5186C164.079 76.3522 163.901 76.0017 163.898 75.5027C163.901 74.4987 164.611 73.2659 165.478 72.761Z" fill="#5CADE5"/>
<path d="M166.909 73.5956C166.043 74.0977 165.33 75.3334 165.333 76.3374C165.336 77.3414 166.051 77.7483 166.918 77.2434L179.521 69.9361C180.402 69.4251 181.1 68.1983 181.097 67.1943C181.094 66.1903 180.393 65.7774 179.512 66.2883L166.909 73.5956Z" fill="#66BBFF"/>
<path d="M122.765 99.192C121.899 99.694 121.186 100.93 121.189 101.931C121.192 102.932 121.907 103.342 122.774 102.84L125.936 101.007C126.802 100.505 127.5 99.2752 127.498 98.2741C127.495 97.2731 126.794 96.8572 125.924 97.3592L122.765 99.192Z" fill="#66BBFF"/>
<path d="M121.337 98.3573L124.498 96.5245C124.933 96.2721 125.324 96.2513 125.608 96.4176L127.036 97.2523C126.752 97.0859 126.359 97.1097 125.927 97.3592L122.765 99.192C121.899 99.694 121.189 100.93 121.192 101.931C121.195 102.43 121.369 102.78 121.653 102.947L120.222 102.112C119.938 101.946 119.76 101.595 119.76 101.096C119.757 100.095 120.467 98.8593 121.337 98.3573Z" fill="#5CADE5"/>
<path d="M130.792 92.8738L133.954 91.0411C134.389 90.7886 134.779 90.7678 135.063 90.9341L136.495 91.7688C136.211 91.6025 135.818 91.6263 135.386 91.8758L132.224 93.7085C131.354 94.2106 130.659 95.4403 130.662 96.4414C130.665 96.9434 130.84 97.2969 131.124 97.4632L129.692 96.6285C129.408 96.4622 129.231 96.1087 129.231 95.6067C129.228 94.6027 129.926 93.3759 130.792 92.8738Z" fill="#5CADE5"/>
<path d="M132.224 93.7086C131.357 94.2106 130.659 95.4403 130.662 96.4414C130.665 97.4424 131.366 97.8583 132.236 97.3563L135.398 95.5235C136.264 95.0215 136.962 93.7917 136.959 92.7907C136.956 91.7896 136.255 91.3738 135.386 91.8758L132.224 93.7086Z" fill="#66BBFF"/>
<path d="M179.527 73.5778C180.405 73.0699 181.109 73.4679 181.112 74.466L181.216 110.857C181.219 111.858 180.518 113.088 179.639 113.599L122.883 146.505C122.017 147.007 121.316 146.588 121.313 145.587L121.209 109.196C121.206 108.195 121.902 106.986 122.768 106.484L179.527 73.5778ZM135.54 132.984C136.48 131.163 137.057 129.167 137.051 127.361C137.039 123.336 134.206 121.717 130.724 123.734C127.237 125.757 124.424 130.652 124.433 134.674C124.439 136.48 125.028 137.802 125.977 138.527C127.134 139.412 128.846 139.406 130.766 138.295C132.668 137.193 134.374 135.215 135.54 132.984ZM135.486 114.79C136.427 112.969 137.004 110.976 136.998 109.167C136.986 105.142 134.152 103.523 130.671 105.54C127.184 107.563 124.371 112.458 124.38 116.48C124.386 118.289 124.975 119.608 125.924 120.333C127.08 121.218 128.793 121.212 130.713 120.101C132.614 118.996 134.321 117.021 135.486 114.79ZM176.474 109.963C177.341 109.461 178.054 108.228 178.051 107.221C178.048 106.22 177.332 105.81 176.466 106.312L141.786 126.419C140.905 126.93 140.207 128.16 140.21 129.161C140.213 130.165 140.914 130.581 141.795 130.07L176.474 109.963ZM176.421 91.7689C177.288 91.2668 178.001 90.0341 177.998 89.0271C177.995 88.0261 177.279 87.634 176.412 88.139L141.733 108.246C140.852 108.757 140.154 109.969 140.157 110.967C140.16 111.971 140.861 112.387 141.742 111.876L176.421 91.7689ZM140.189 121.886C140.192 122.899 140.893 123.306 141.774 122.795L157.542 113.652C158.409 113.15 159.104 111.935 159.101 110.919C159.098 109.915 158.397 109.514 157.53 110.016L141.763 119.159C140.881 119.67 140.186 120.882 140.189 121.886ZM141.712 100.965C140.831 101.476 140.133 102.691 140.136 103.692C140.139 104.711 140.84 105.112 141.721 104.601L157.489 95.4582C158.355 94.9561 159.05 93.7442 159.048 92.7253C159.045 91.7243 158.344 91.3203 157.477 91.8223L141.712 100.965Z" fill="#D9EEFF"/>
<path d="M179.228 72.6273C178.941 72.4609 178.542 72.4847 178.095 72.7431L121.34 105.65C120.473 106.152 119.778 107.364 119.781 108.362L119.884 144.75C119.887 145.252 120.062 145.605 120.349 145.772L121.78 146.606C121.496 146.44 121.319 146.083 121.316 145.584L121.212 109.196C121.209 108.195 121.904 106.986 122.771 106.484L179.527 73.5778C179.97 73.3194 180.373 73.2956 180.66 73.462L179.228 72.6273Z" fill="#C6D8E5"/>
<path d="M176.466 106.318C177.332 105.816 178.048 106.223 178.051 107.224C178.054 108.225 177.344 109.461 176.474 109.966L141.795 130.073C140.914 130.584 140.213 130.168 140.21 129.167C140.207 128.166 140.905 126.936 141.786 126.425L176.466 106.318Z" fill="#9AD2FF"/>
<path d="M157.533 110.019C158.4 109.517 159.104 109.918 159.107 110.919C159.11 111.935 158.412 113.15 157.545 113.652L141.78 122.792C140.899 123.303 140.198 122.902 140.195 121.886C140.192 120.885 140.89 119.67 141.771 119.162L157.533 110.019Z" fill="#66BBFF"/>
<path d="M130.733 126.473C132.017 125.73 133.002 126.131 133.008 128.252C133.014 130.376 131.683 131.926 131.683 132.583C131.686 133.614 134.238 132.015 135.537 132.984C134.374 135.215 132.668 137.193 130.763 138.298C128.846 139.409 127.134 139.415 125.974 138.53C127.264 136.058 129.816 134.701 129.813 133.667C129.81 133.011 128.477 133.005 128.468 130.884C128.468 128.76 129.45 127.215 130.733 126.473Z" fill="#66BBFF"/>
<path d="M130.724 123.737C134.209 121.717 137.042 123.339 137.054 127.361C137.06 129.17 136.48 131.166 135.54 132.987C134.238 132.018 131.689 133.62 131.686 132.586C131.683 131.929 133.017 130.376 133.011 128.255C133.005 126.131 132.017 125.73 130.736 126.476C129.453 127.218 128.471 128.763 128.477 130.884C128.482 133.008 129.819 133.011 129.822 133.667C129.825 134.698 127.273 136.058 125.983 138.53C125.034 137.808 124.445 136.486 124.442 134.677C124.424 130.655 127.24 125.757 130.724 123.737Z" fill="#9AD2FF"/>
<path d="M176.409 88.142L141.733 108.252C140.849 108.763 140.151 109.972 140.157 110.979C140.157 111.977 140.858 112.396 141.742 111.885L176.418 91.7748C177.285 91.2758 178.001 90.0371 177.995 89.0361C177.998 88.0321 177.279 87.6429 176.409 88.142Z" fill="#9AD2FF"/>
<path d="M157.48 91.8253C158.347 91.3233 159.05 91.7243 159.053 92.7254C159.056 93.7412 158.358 94.9532 157.492 95.4582L141.727 104.598C140.846 105.109 140.145 104.708 140.142 103.692C140.139 102.691 140.837 101.476 141.718 100.965L157.48 91.8253Z" fill="#66BBFF"/>
<path d="M130.68 108.279C131.964 107.536 132.949 107.937 132.955 110.058C132.96 112.182 131.629 113.732 131.629 114.389C131.632 115.42 134.185 113.821 135.483 114.79C134.321 117.021 132.614 118.999 130.71 120.104C128.793 121.215 127.081 121.221 125.921 120.336C127.211 117.864 129.763 116.507 129.76 115.473C129.757 114.817 128.423 114.811 128.414 112.69C128.417 110.566 129.399 109.021 130.68 108.279Z" fill="#66BBFF"/>
<path d="M130.674 105.543C134.158 103.523 136.992 105.145 137.004 109.167C137.01 110.976 136.43 112.972 135.489 114.793C134.188 113.824 131.638 115.426 131.635 114.392C131.632 113.735 132.966 112.182 132.96 110.061C132.955 107.937 131.967 107.536 130.686 108.282C129.402 109.024 128.42 110.569 128.426 112.69C128.432 114.814 129.769 114.817 129.772 115.473C129.775 116.504 127.222 117.864 125.933 120.336C124.983 119.614 124.395 118.292 124.392 116.483C124.374 112.461 127.187 107.563 130.674 105.543Z" fill="#9AD2FF"/>
<path d="M222.866 215.007C223.141 215.173 223.369 215.411 223.508 215.699C224.005 216.724 224.191 217.942 224.176 218.64C224.159 219.563 223.52 220.392 222.535 220.749C221.047 221.289 218.793 221.572 217.06 220.835C214.91 219.923 214.91 218.158 214.656 217.092C214.579 216.768 214.404 216.477 214.165 216.248C213.644 215.749 212.742 215.215 210.272 214.398C206.98 213.284 206.649 210.712 206.865 208.766C206.977 207.765 207.906 207.064 208.891 207.248C209.781 207.414 211.083 207.89 212.976 208.986L222.866 215.007Z" fill="#011C2C"/>
<path d="M190.071 223.196C190.071 223.196 184.664 223.404 182.13 223.603C179.598 223.802 176.806 224.907 179.275 228.828C181.062 231.318 184.706 232.289 187.338 232.051C189.97 231.814 191.242 232.158 191.242 232.158C191.162 232.604 192.112 233.236 193.659 233.667C195.031 234.05 197.699 234.285 199.329 233.002C199.758 232.666 200.009 232.152 200.027 231.606C200.089 229.749 199.63 225.371 199.63 225.371L190.071 223.196Z" fill="#011C2C"/>
<path d="M184.161 133.56C184.161 133.56 184.407 178.105 190.027 223.779C190.136 224.664 190.651 225.451 191.426 225.891C193.126 226.862 196.347 227.997 199.624 225.4C200.361 224.818 200.745 223.897 200.669 222.959C199.985 214.704 196.628 171.175 200.186 154.511C200.186 154.511 202.656 173.037 214.567 214.493C214.777 215.224 215.28 215.839 215.957 216.177C217.634 217.018 220.926 218.028 223.57 214.93C224.129 214.273 224.339 213.382 224.141 212.541L217.081 182.168C217.081 182.168 214.783 173.878 215.919 170.462C217.051 167.046 219.548 140.85 212.289 135.384L184.161 133.56Z" fill="#3D0871"/>
<path d="M191.568 226.606C191.491 226.606 191.426 226.547 191.417 226.47C187.927 187.295 186.874 163.719 186.608 150.839C186.318 136.878 186.862 132.116 186.868 132.072C186.877 131.989 186.957 131.929 187.036 131.938C187.119 131.947 187.178 132.024 187.17 132.108C187.164 132.155 186.622 136.905 186.912 150.857C187.181 163.731 188.231 187.293 191.721 226.443C191.727 226.526 191.668 226.6 191.585 226.606C191.577 226.606 191.571 226.606 191.568 226.606Z" fill="#E4D1F9"/>
<path d="M216.903 219.581C216.838 219.581 216.776 219.537 216.759 219.471C205.989 181.907 201.375 154.79 201.331 154.52C201.316 154.436 201.372 154.359 201.455 154.344C201.538 154.332 201.615 154.386 201.63 154.469C201.674 154.739 206.285 181.842 217.051 219.388C217.075 219.468 217.028 219.552 216.948 219.575C216.933 219.581 216.918 219.581 216.903 219.581Z" fill="#E4D1F9"/>
<path d="M204.703 177.618C204.706 177.63 204.709 177.642 204.712 177.653C204.709 177.642 204.706 177.63 204.703 177.618Z" fill="#758AC8"/>
<path d="M204.673 177.505C204.673 177.511 204.676 177.517 204.676 177.523C204.676 177.514 204.676 177.511 204.673 177.505Z" fill="#758AC8"/>
<path opacity="0.8" d="M206.028 154.989C210.506 153.78 212.21 150.72 212.21 150.72C209.639 153.605 200.181 154.511 200.181 154.511C200.181 154.511 202.227 167.082 204.383 175.663L204.83 156.539C204.848 155.815 205.333 155.176 206.028 154.989Z" fill="#250644"/>
<path d="M167.087 109.339C167.087 109.339 165.513 105.121 165.034 101.562C164.555 98.0038 158.675 93.067 162.425 89.2262C166.176 85.3854 163.478 90.0431 168.069 93.7502C172.662 97.4573 170.127 100.291 170.733 102.21C171.343 104.129 172.863 108.427 172.863 108.427L167.087 109.339Z" fill="#A26169"/>
<path d="M214.327 87.4706C214.327 87.4706 222.493 91.46 222.008 116.112C222.008 116.18 222.003 116.245 221.997 116.314C221.884 117.439 220.68 126.948 211.724 131.086L214.327 87.4706Z" fill="#AEB9CA"/>
<path d="M224.2 104.794C224.046 104.794 223.916 104.759 223.804 104.69C223.467 104.485 223.437 104.064 223.407 103.66C223.36 102.985 223.283 102.528 222.665 102.299C222.328 102.174 222.026 102.186 221.742 102.338C220.905 102.78 220.53 104.239 220.527 104.254C220.485 104.417 220.323 104.515 220.16 104.473C219.997 104.432 219.9 104.269 219.941 104.105C219.959 104.034 220.385 102.373 221.458 101.803C221.896 101.571 222.369 101.548 222.872 101.732C223.904 102.112 223.969 103.018 224.011 103.618C224.026 103.823 224.046 104.132 224.117 104.173C224.132 104.182 224.277 104.254 224.886 103.986C225.809 103.579 226.197 103.128 226.478 102.798C226.939 102.258 227.255 101.975 228.409 102.483C228.563 102.552 228.631 102.73 228.566 102.881C228.498 103.036 228.32 103.104 228.169 103.039C227.371 102.688 227.297 102.774 226.939 103.193C226.637 103.547 226.182 104.081 225.132 104.542C224.738 104.708 224.44 104.794 224.2 104.794Z" fill="#F7F8FA"/>
<path d="M222.18 122.376C222.115 122.376 222.05 122.356 221.994 122.311C221.864 122.207 221.84 122.017 221.94 121.886C221.955 121.868 222.322 121.369 222.198 120.665C222.077 119.985 221.541 119.335 220.604 118.738C219.678 118.146 219.154 117.428 219.057 116.605C218.894 115.277 219.906 114.193 219.95 114.148C220.065 114.026 220.255 114.023 220.376 114.139C220.497 114.255 220.5 114.445 220.388 114.567C220.379 114.576 219.527 115.494 219.657 116.536C219.737 117.169 220.163 117.737 220.929 118.227C222.02 118.922 222.647 119.712 222.795 120.573C222.964 121.545 222.44 122.231 222.417 122.261C222.357 122.335 222.269 122.376 222.18 122.376Z" fill="#F7F8FA"/>
<path d="M215.537 136.979C220.666 122.849 218.714 92.7877 215.898 88.9499C213.082 85.1121 207.374 87.9281 206.12 88.7984C204.866 89.6688 195.102 92.7105 195.102 92.7105C182.115 93.9997 176.791 112.378 176.111 114.54C175.43 116.706 175.203 114.312 175.203 114.312C174.726 109.728 173.659 107.488 172.884 106.431C172.47 105.867 171.854 105.472 171.171 105.329C168.577 104.779 167.169 105.98 166.468 106.995C166.04 107.616 165.88 108.38 165.998 109.125C166.507 112.289 168.459 122.869 172.307 127.105C176.859 132.116 181.363 123.612 182.878 122.246C184.392 120.879 184.238 122.246 184.238 122.246C184.238 122.246 180.491 142.379 186.087 145.261C191.683 148.142 197.992 142.379 201.148 142.379C204.304 142.379 214.727 139.207 215.537 136.979Z" fill="#CED5DD"/>
<path d="M171.606 117.745C171.452 117.745 171.322 117.71 171.21 117.641C170.872 117.437 170.843 117.015 170.813 116.611C170.766 115.936 170.689 115.479 170.071 115.25C169.734 115.126 169.432 115.137 169.148 115.289C168.45 115.66 168.036 116.795 167.933 117.202C167.891 117.365 167.728 117.463 167.566 117.422C167.403 117.38 167.305 117.217 167.347 117.053C167.365 116.982 167.791 115.322 168.864 114.751C169.302 114.52 169.775 114.496 170.278 114.68C171.31 115.06 171.375 115.966 171.417 116.566C171.431 116.771 171.452 117.08 171.523 117.122C171.538 117.131 171.683 117.202 172.292 116.935C173.215 116.528 173.602 116.076 173.883 115.746C174.345 115.206 174.661 114.924 175.815 115.431C175.969 115.5 176.037 115.678 175.972 115.83C175.904 115.984 175.726 116.052 175.575 115.987C174.777 115.636 174.703 115.723 174.345 116.141C174.043 116.495 173.588 117.03 172.538 117.49C172.144 117.662 171.846 117.745 171.606 117.745Z" fill="#F7F8FA"/>
<path d="M174.419 107.521C174.268 107.521 174.138 107.408 174.12 107.257C174.114 107.206 173.978 105.997 174.859 104.993C175.605 104.144 176.832 103.713 178.5 103.713C178.666 103.713 178.802 103.85 178.802 104.016C178.802 104.182 178.666 104.319 178.5 104.319C177.016 104.319 175.945 104.678 175.318 105.385C174.614 106.181 174.717 107.171 174.717 107.18C174.735 107.346 174.62 107.497 174.454 107.515C174.442 107.518 174.431 107.521 174.419 107.521Z" fill="#F7F8FA"/>
<path d="M169.586 135.33C169.521 135.33 169.456 135.31 169.399 135.265C169.269 135.161 169.246 134.971 169.346 134.84C169.361 134.823 169.731 134.324 169.604 133.62C169.482 132.939 168.944 132.289 168.009 131.692C167.084 131.101 166.56 130.382 166.462 129.559C166.3 128.231 167.311 127.147 167.356 127.102C167.471 126.981 167.663 126.978 167.782 127.093C167.903 127.209 167.906 127.399 167.791 127.521C167.77 127.545 166.933 128.454 167.06 129.491C167.137 130.123 167.566 130.691 168.332 131.181C169.423 131.876 170.05 132.666 170.198 133.527C170.367 134.499 169.843 135.185 169.819 135.215C169.766 135.289 169.675 135.33 169.586 135.33Z" fill="#F7F8FA"/>
<path d="M175.019 140.948C174.265 140.948 173.668 140.612 173.635 140.591C173.49 140.508 173.44 140.324 173.523 140.178C173.605 140.033 173.789 139.982 173.934 140.065C173.946 140.071 174.806 140.55 175.628 140.232C176.193 140.012 176.628 139.462 176.918 138.595C176.971 138.438 177.143 138.351 177.3 138.405C177.456 138.458 177.542 138.631 177.489 138.788C177.14 139.84 176.584 140.517 175.838 140.802C175.557 140.909 175.279 140.948 175.019 140.948Z" fill="#F7F8FA"/>
<path d="M176.108 133.322C175.98 133.322 175.862 133.239 175.821 133.112C175.77 132.951 175.856 132.782 176.016 132.731C176.466 132.586 176.749 132.354 176.859 132.042C177.095 131.362 176.516 130.468 176.51 130.459C176.418 130.319 176.457 130.132 176.596 130.04C176.735 129.948 176.921 129.984 177.013 130.123C177.042 130.171 177.767 131.276 177.43 132.241C177.255 132.743 176.841 133.103 176.199 133.308C176.17 133.317 176.14 133.322 176.108 133.322Z" fill="#F7F8FA"/>
<path d="M180.432 125.302C180.172 125.302 179.932 125.231 179.716 125.091C178.938 124.586 178.79 123.339 178.784 123.285C178.767 123.119 178.885 122.97 179.051 122.95C179.219 122.929 179.367 123.051 179.385 123.217C179.417 123.499 179.601 124.292 180.047 124.583C180.248 124.714 180.488 124.732 180.781 124.637C182.041 124.23 181.724 122.849 181.71 122.789C181.671 122.626 181.769 122.463 181.931 122.424C182.094 122.385 182.257 122.483 182.295 122.647C182.461 123.333 182.393 124.753 180.961 125.213C180.778 125.273 180.6 125.302 180.432 125.302Z" fill="#F7F8FA"/>
<path d="M186.528 114.056C186.374 114.056 186.244 113.94 186.229 113.786C185.995 111.576 184.511 111.49 184.445 111.487C184.28 111.481 184.15 111.341 184.156 111.175C184.162 111.008 184.301 110.875 184.463 110.881C184.484 110.881 186.537 110.967 186.829 113.723C186.847 113.89 186.726 114.038 186.56 114.056C186.551 114.056 186.539 114.056 186.528 114.056Z" fill="#F7F8FA"/>
<path d="M183.502 105.409C183.348 105.409 183.218 105.293 183.203 105.139C182.97 102.929 181.485 102.843 181.42 102.84C181.254 102.834 181.124 102.694 181.13 102.528C181.136 102.361 181.278 102.225 181.437 102.234C181.458 102.234 183.511 102.32 183.804 105.076C183.821 105.243 183.7 105.391 183.534 105.409C183.526 105.406 183.514 105.409 183.502 105.409Z" fill="#F7F8FA"/>
<path d="M193.18 114.974C193.117 114.974 193.055 114.956 193.002 114.918C192.866 114.82 192.837 114.629 192.934 114.493C193.706 113.423 192.736 112.405 192.695 112.36C192.579 112.241 192.579 112.048 192.7 111.932C192.819 111.816 193.011 111.816 193.126 111.938C193.603 112.428 194.277 113.667 193.422 114.849C193.363 114.932 193.271 114.974 193.18 114.974Z" fill="#F7F8FA"/>
<path d="M191.683 106.984C191.08 106.984 190.245 106.294 189.982 106.063C189.858 105.953 189.846 105.76 189.956 105.635C190.065 105.51 190.257 105.495 190.382 105.608C190.893 106.057 191.532 106.434 191.698 106.378C191.857 106.327 192.026 106.413 192.076 106.574C192.127 106.734 192.041 106.903 191.881 106.954C191.819 106.975 191.754 106.984 191.683 106.984Z" fill="#F7F8FA"/>
<path d="M212.615 135.889C212.124 135.889 211.689 135.693 211.322 135.307C210.533 134.478 210.887 133.602 211.124 133.022C211.21 132.809 211.328 132.517 211.278 132.437C211.26 132.411 211.145 132.28 210.456 132.25C209.4 132.206 208.826 132.449 208.409 132.63C207.732 132.921 207.309 133.037 206.466 132.036C206.359 131.909 206.374 131.715 206.501 131.609C206.628 131.502 206.818 131.516 206.927 131.644C207.522 132.354 207.646 132.301 208.172 132.072C208.616 131.879 209.287 131.591 210.482 131.644C211.207 131.677 211.597 131.816 211.784 132.108C212.003 132.452 211.84 132.856 211.68 133.248C211.411 133.908 211.272 134.377 211.757 134.885C212.02 135.161 212.316 135.286 212.653 135.28C213.484 135.256 214.401 134.377 214.682 134.041C214.789 133.914 214.981 133.899 215.108 134.006C215.235 134.113 215.25 134.306 215.144 134.433C215.093 134.49 213.937 135.85 212.671 135.886C212.653 135.889 212.633 135.889 212.615 135.889Z" fill="#F7F8FA"/>
<path d="M183.481 139.843C182.99 139.843 182.555 139.647 182.189 139.26C181.399 138.432 181.754 137.555 181.991 136.976C182.076 136.762 182.195 136.471 182.144 136.391C182.127 136.364 182.011 136.234 181.322 136.204C180.266 136.159 179.692 136.403 179.275 136.584C178.598 136.875 178.175 136.991 177.332 135.99C177.226 135.862 177.24 135.669 177.368 135.562C177.495 135.455 177.684 135.47 177.794 135.598C178.388 136.308 178.512 136.251 179.039 136.026C179.482 135.832 180.154 135.541 181.349 135.598C182.073 135.631 182.464 135.77 182.65 136.061C182.869 136.406 182.706 136.81 182.547 137.202C182.28 137.861 182.138 138.331 182.623 138.839C182.887 139.115 183.177 139.243 183.52 139.234C184.351 139.21 185.268 138.331 185.549 137.995C185.655 137.867 185.847 137.852 185.975 137.959C186.102 138.066 186.117 138.259 186.01 138.387C185.963 138.444 184.803 139.804 183.537 139.84C183.52 139.843 183.499 139.843 183.481 139.843Z" fill="#F7F8FA"/>
<path d="M201.1 141.616C200.296 141.616 199.394 141.372 198.403 140.882C198.252 140.808 198.193 140.627 198.264 140.475C198.338 140.324 198.518 140.261 198.669 140.336C200.071 141.028 201.248 141.185 202.171 140.805C203.206 140.377 203.555 139.403 203.558 139.394C203.611 139.237 203.783 139.153 203.943 139.207C204.099 139.26 204.182 139.436 204.129 139.593C204.111 139.644 203.688 140.835 202.402 141.366C202 141.533 201.565 141.616 201.1 141.616Z" fill="#F7F8FA"/>
<path d="M219.654 125.011C219.53 125.011 219.415 124.934 219.37 124.812C219.314 124.655 219.394 124.482 219.548 124.423C219.559 124.417 220.787 123.948 221.148 122.905C221.367 122.269 221.225 121.533 220.728 120.716C220.024 119.56 219.799 118.53 220.053 117.656C220.34 116.673 221.142 116.272 221.177 116.254C221.328 116.183 221.509 116.245 221.58 116.394C221.654 116.545 221.588 116.727 221.441 116.798C221.417 116.81 220.837 117.107 220.63 117.835C220.429 118.536 220.636 119.397 221.242 120.395C221.84 121.378 221.997 122.287 221.716 123.104C221.26 124.42 219.817 124.967 219.755 124.987C219.725 125.002 219.69 125.011 219.654 125.011Z" fill="#F7F8FA"/>
<path d="M219.805 109.903C219.707 109.903 219.613 109.856 219.557 109.77C219.551 109.761 218.956 108.905 218.033 108.822C217.397 108.769 216.732 109.084 216.058 109.767C215.939 109.886 215.75 109.886 215.632 109.77C215.513 109.651 215.513 109.461 215.629 109.342C216.439 108.519 217.27 108.142 218.092 108.219C219.302 108.332 220.024 109.387 220.056 109.431C220.151 109.571 220.113 109.758 219.977 109.853C219.923 109.886 219.864 109.903 219.805 109.903Z" fill="#F7F8FA"/>
<path d="M198.045 123.33C197.882 123.33 197.749 123.202 197.743 123.036C197.743 123.027 197.696 121.981 196.96 121.417C196.454 121.028 195.72 120.939 194.789 121.158C194.626 121.197 194.463 121.096 194.425 120.933C194.386 120.769 194.49 120.606 194.65 120.57C195.771 120.309 196.673 120.434 197.329 120.942C198.291 121.684 198.344 122.965 198.344 123.018C198.35 123.184 198.22 123.324 198.051 123.33C198.054 123.33 198.048 123.33 198.045 123.33Z" fill="#F7F8FA"/>
<path d="M212.396 117.95C212.248 117.95 212.118 117.84 212.097 117.686C212.088 117.63 211.92 116.26 212.674 115.515C213.064 115.128 213.614 114.983 214.307 115.087C214.472 115.111 214.585 115.265 214.561 115.431C214.537 115.598 214.383 115.711 214.218 115.687C213.724 115.613 213.345 115.702 213.097 115.948C212.647 116.394 212.653 117.297 212.695 117.609C212.715 117.775 212.6 117.927 212.434 117.95C212.423 117.95 212.408 117.95 212.396 117.95Z" fill="#F7F8FA"/>
<path d="M206.98 123.487C206.948 123.487 206.912 123.481 206.88 123.469C206.723 123.413 206.64 123.241 206.696 123.083C206.797 122.801 206.989 121.966 206.702 121.482C206.572 121.262 206.35 121.132 206.028 121.084C204.647 120.879 204.304 122.338 204.289 122.4C204.253 122.564 204.094 122.667 203.928 122.629C203.765 122.593 203.662 122.43 203.7 122.266C203.86 121.551 204.573 120.256 206.117 120.484C206.622 120.558 206.995 120.79 207.22 121.17C207.714 121.999 207.285 123.235 207.264 123.285C207.22 123.41 207.105 123.487 206.98 123.487Z" fill="#F7F8FA"/>
<path d="M197.096 134.249C197.048 134.249 197.001 134.237 196.957 134.214C196.939 134.205 195.061 133.177 196.049 130.465C196.105 130.307 196.279 130.227 196.436 130.284C196.593 130.34 196.673 130.515 196.616 130.673C195.809 132.889 197.226 133.667 197.238 133.676C197.385 133.753 197.442 133.937 197.365 134.086C197.309 134.19 197.205 134.249 197.096 134.249Z" fill="#F7F8FA"/>
<path d="M191.047 146.55C191 146.55 190.952 146.538 190.908 146.514C190.89 146.505 189.012 145.478 190 142.766C190.056 142.608 190.231 142.528 190.388 142.584C190.544 142.641 190.624 142.816 190.568 142.973C189.76 145.189 191.177 145.968 191.189 145.977C191.337 146.054 191.393 146.238 191.316 146.387C191.26 146.49 191.157 146.55 191.047 146.55Z" fill="#F7F8FA"/>
<path d="M188.888 127.503C188.761 127.503 188.642 127.423 188.601 127.295C188.379 126.618 188.317 125.151 189.654 124.441C189.802 124.364 189.985 124.42 190.062 124.569C190.139 124.717 190.083 124.901 189.935 124.979C188.716 125.626 189.154 127.049 189.172 127.108C189.222 127.269 189.136 127.438 188.977 127.489C188.95 127.5 188.918 127.503 188.888 127.503Z" fill="#F7F8FA"/>
<path d="M188.551 134.701C188.432 134.701 188.32 134.629 188.273 134.514C187.995 133.839 187.566 133.198 187.38 133.171C187.214 133.147 187.101 132.993 187.125 132.826C187.149 132.66 187.303 132.547 187.468 132.571C188.116 132.666 188.675 133.905 188.832 134.282C188.897 134.436 188.823 134.615 188.669 134.677C188.628 134.695 188.589 134.701 188.551 134.701Z" fill="#F7F8FA"/>
<path d="M216.685 104.37C216.214 104.37 215.794 104.179 215.439 103.808C214.679 103.009 215.019 102.168 215.247 101.61C215.324 101.42 215.439 101.135 215.395 101.063C215.386 101.049 215.286 100.921 214.623 100.891C213.617 100.847 213.07 101.081 212.674 101.254C212.023 101.536 211.612 101.646 210.802 100.68C210.695 100.552 210.71 100.359 210.837 100.252C210.964 100.146 211.154 100.16 211.263 100.288C211.825 100.956 211.932 100.912 212.437 100.695C212.863 100.511 213.508 100.232 214.653 100.285C215.351 100.315 215.726 100.451 215.907 100.737C216.12 101.072 215.963 101.461 215.809 101.839C215.555 102.462 215.422 102.908 215.88 103.389C216.128 103.651 216.407 103.775 216.726 103.764C217.513 103.74 218.385 102.905 218.657 102.584C218.764 102.457 218.956 102.442 219.083 102.549C219.21 102.656 219.225 102.849 219.119 102.976C219.071 103.033 217.962 104.334 216.747 104.37C216.72 104.37 216.702 104.37 216.685 104.37Z" fill="#F7F8FA"/>
<path d="M205.824 110.711C205.052 110.711 204.188 110.477 203.242 110.01C203.091 109.936 203.032 109.755 203.103 109.603C203.177 109.452 203.357 109.39 203.508 109.464C204.845 110.123 205.966 110.275 206.841 109.912C207.826 109.505 208.155 108.582 208.158 108.573C208.211 108.415 208.382 108.329 208.542 108.386C208.699 108.439 208.782 108.614 208.728 108.772C208.711 108.819 208.305 109.966 207.072 110.474C206.688 110.634 206.273 110.711 205.824 110.711Z" fill="#F7F8FA"/>
<path d="M216.475 87.23C216.327 87.23 216.197 87.1201 216.176 86.9657C216.17 86.9092 216.004 85.5963 216.732 84.8804C217.108 84.5061 217.637 84.3695 218.302 84.4675C218.468 84.4913 218.58 84.6457 218.557 84.8121C218.533 84.9784 218.379 85.0913 218.214 85.0675C217.746 84.9992 217.388 85.0794 217.155 85.3111C216.643 85.8161 216.773 86.8765 216.773 86.8855C216.794 87.0518 216.679 87.2033 216.513 87.2241C216.501 87.23 216.486 87.23 216.475 87.23Z" fill="#F7F8FA"/>
<path d="M211.299 92.5204C211.266 92.5204 211.231 92.5145 211.198 92.5026C211.041 92.4461 210.958 92.2739 211.015 92.1164C211.109 91.8491 211.293 91.056 211.021 90.5985C210.896 90.3936 210.689 90.2718 210.385 90.2242C209.074 90.0282 208.752 91.4124 208.737 91.4689C208.702 91.6322 208.539 91.7362 208.376 91.6976C208.214 91.6619 208.11 91.4986 208.149 91.3352C208.302 90.6461 208.983 89.4014 210.473 89.6212C210.961 89.6925 211.319 89.9153 211.538 90.2837C212.014 91.0827 211.6 92.2679 211.583 92.3154C211.541 92.4432 211.423 92.5204 211.299 92.5204Z" fill="#F7F8FA"/>
<path d="M201.855 102.804C201.807 102.804 201.76 102.792 201.716 102.768C201.698 102.76 199.894 101.77 200.84 99.1712C200.896 99.0138 201.071 98.9336 201.228 98.99C201.384 99.0465 201.464 99.2217 201.408 99.3792C200.639 101.488 201.982 102.225 201.997 102.231C202.144 102.308 202.201 102.492 202.124 102.641C202.068 102.745 201.964 102.804 201.855 102.804Z" fill="#F7F8FA"/>
<path d="M194.014 96.3582C193.886 96.3582 193.768 96.278 193.727 96.1503C193.514 95.4998 193.452 94.0888 194.741 93.4056C194.889 93.3284 195.072 93.3848 195.149 93.5333C195.226 93.6818 195.17 93.866 195.022 93.9432C193.86 94.5611 194.283 95.9037 194.301 95.9631C194.354 96.1235 194.265 96.2929 194.108 96.3463C194.076 96.3523 194.043 96.3582 194.014 96.3582Z" fill="#F7F8FA"/>
<path d="M193.688 103.235C193.57 103.235 193.458 103.164 193.41 103.048C193.15 102.418 192.739 101.797 192.567 101.773C192.402 101.75 192.289 101.595 192.313 101.429C192.337 101.262 192.49 101.15 192.656 101.173C193.283 101.265 193.818 102.454 193.969 102.816C194.034 102.97 193.96 103.149 193.807 103.211C193.768 103.229 193.727 103.235 193.688 103.235Z" fill="#F7F8FA"/>
<path d="M174.493 110.242C174.493 110.242 175.031 112.179 175.229 114.656C175.229 114.656 175.472 115.865 175.838 115.238C175.838 115.238 176.362 117.021 175.342 119.84C174.324 122.656 174.777 111.751 174.493 110.242Z" fill="#AEB9CA"/>
<path d="M188.293 72.1372C187.711 71.4302 186.667 69.8054 187.24 67.7706C187.462 66.9805 188.14 66.4042 188.953 66.3092C190.163 66.1666 192.127 65.8369 193.543 65.1002C195.735 63.9625 202.692 62.5931 207.078 69.6569C210.914 75.8354 205.572 83.71 204.179 85.5814C203.961 85.8725 203.668 86.0983 203.333 86.2379C202.251 86.6805 199.675 87.4498 197.252 86.0597C194.076 84.2388 192.943 81.4287 192.715 81.3515C192.582 81.3069 191.529 80.8673 190.686 80.5109C190.024 80.2317 189.559 79.6197 189.468 78.9039L188.734 73.159C188.681 72.7847 188.533 72.4283 188.293 72.1372Z" fill="#1E2733"/>
<path d="M205.747 91.249C203.745 93.0343 198.569 92.8085 195.099 92.7105C195.173 92.6778 195.244 92.6422 195.312 92.6065C195.318 92.6036 195.324 92.6006 195.327 92.5976C195.392 92.5649 195.454 92.5293 195.516 92.4966C195.525 92.4907 195.534 92.4877 195.543 92.4818C195.599 92.4491 195.655 92.4135 195.711 92.3808C195.723 92.3719 195.735 92.3659 195.747 92.357C195.797 92.3243 195.847 92.2887 195.895 92.253C195.91 92.2441 195.921 92.2323 195.933 92.2233C195.978 92.1907 196.022 92.155 196.063 92.1194C196.078 92.1075 196.093 92.0956 196.105 92.0837C196.143 92.0481 196.182 92.0124 196.217 91.9768C196.232 91.9619 196.247 91.9471 196.262 91.9322C196.294 91.8966 196.327 91.861 196.359 91.8253C196.374 91.8075 196.389 91.7926 196.401 91.7748C196.43 91.7392 196.457 91.7005 196.48 91.6649C196.495 91.6441 196.507 91.6263 196.519 91.6055C196.543 91.5698 196.563 91.5312 196.584 91.4926C196.596 91.4718 196.608 91.4481 196.619 91.4273C196.637 91.3886 196.655 91.35 196.67 91.3084C196.679 91.2847 196.69 91.2609 196.699 91.2372C196.714 91.1985 196.726 91.157 196.738 91.1154C196.744 91.0886 196.753 91.0619 196.758 91.0352C196.767 90.9936 196.773 90.949 196.782 90.9074C196.788 90.8777 196.791 90.851 196.797 90.8213C196.803 90.7767 196.803 90.7292 196.806 90.6847C196.806 90.6549 196.809 90.6252 196.809 90.5926C196.809 90.545 196.806 90.4945 196.803 90.444C196.8 90.4114 196.8 90.3817 196.797 90.349C196.791 90.2955 196.782 90.2391 196.77 90.1826C196.764 90.1529 196.761 90.1262 196.756 90.0965C196.738 90.0133 196.717 89.9302 196.693 89.841C196.693 89.8351 196.69 89.8321 196.69 89.8262C196.404 88.84 196.007 88.1717 195.472 87.7053C195.271 87.53 195.052 87.3815 194.809 87.2568C194.75 87.2271 194.691 87.1974 194.629 87.1676C194.321 87.0251 193.981 86.9122 193.603 86.8171C193.529 86.7993 193.452 86.7785 193.372 86.7607C193.215 86.7251 193.052 86.6924 192.887 86.6597C192.789 86.6419 192.689 86.6241 192.585 86.6062C192.351 86.5646 192.103 86.529 191.846 86.4904C191.71 86.4696 191.568 86.4488 191.426 86.431C191.29 86.4131 191.151 86.3924 191.009 86.3716C190.867 86.3508 190.722 86.3329 190.571 86.3122C188.382 86.0062 187.941 82.2426 188.06 79.1029C188.06 79.0969 188.06 79.091 188.06 79.0851C188.069 78.8563 188.081 78.6336 188.095 78.4137C188.101 78.3276 188.107 78.2415 188.113 78.1583C188.122 78.0216 188.134 77.888 188.146 77.7573C188.261 76.4622 188.456 75.4166 188.619 75.0007C188.557 74.1036 188.509 73.3759 188.577 72.6214C189.086 73.3224 189.831 73.9581 190.751 74.6947C191.269 75.1076 191.503 75.7879 191.334 76.4295C191.035 77.582 190.849 78.6157 190.781 79.0138C190.763 79.1207 190.799 79.2306 190.876 79.3108C191.032 79.4682 191.293 79.4356 191.405 79.2455C191.778 78.6187 192.615 77.4394 193.718 77.3295C195.084 77.1959 196.847 79.2989 195.297 81.1852C194.96 81.5951 194.928 82.1773 195.229 82.6139C196.492 84.4289 198.746 87.0459 203.848 86.0003C203.848 87.5924 204.141 88.5014 204.863 88.8519C204.889 88.8638 204.922 88.8757 204.954 88.8846C204.966 88.8875 204.981 88.8905 204.996 88.8905C205.019 88.8935 205.043 88.8994 205.073 88.9024C205.09 88.9054 205.114 88.9054 205.135 88.9054C205.161 88.9054 205.185 88.9083 205.212 88.9083C205.235 88.9083 205.262 88.9083 205.289 88.9054C205.315 88.9054 205.342 88.9024 205.371 88.9024C205.401 88.8994 205.433 88.8994 205.466 88.8964C205.493 88.8935 205.522 88.8905 205.549 88.8875C205.584 88.8846 205.623 88.8786 205.661 88.8757C205.688 88.8727 205.714 88.8697 205.741 88.8638C205.785 88.8578 205.83 88.8519 205.877 88.843C205.898 88.84 205.919 88.837 205.942 88.8341C205.998 88.8252 206.052 88.8162 206.111 88.8073C206.557 89.3242 206.83 90.1648 205.747 91.249Z" fill="#A26169"/>
<path d="M101.115 114.19C101.925 113.72 102.585 114.104 102.588 115.033L102.662 141.613C102.665 142.543 102.008 143.683 101.197 144.156L59.5499 168.302C58.7394 168.772 58.0799 168.395 58.0769 167.465L58 140.885C57.9971 139.955 58.6537 138.809 59.4641 138.337L101.115 114.19Z" fill="#71AFFE"/>
<path d="M95.4003 135.954C95.8026 135.72 96.1339 135.91 96.1339 136.373L96.1368 136.964C96.1368 137.434 95.8085 138.007 95.4063 138.239L65.1872 155.764C64.785 155.999 64.4537 155.809 64.4537 155.336L64.4508 154.745C64.4508 154.282 64.7791 153.709 65.1813 153.477L95.4003 135.954Z" fill="#F8F8F8"/>
<path d="M83.2057 138.313C83.5724 138.102 83.8771 138.268 83.8771 138.696L83.8801 139.439C83.8801 139.866 83.5784 140.386 83.2116 140.6L65.1104 151.095C64.7406 151.309 64.439 151.139 64.439 150.711L64.436 149.969C64.436 149.541 64.7318 149.024 65.1044 148.807L83.2057 138.313Z" fill="#F8F8F8"/>
<path d="M95.3737 126.161C95.776 125.926 96.1073 126.116 96.1073 126.58L96.1102 127.177C96.1102 127.64 95.7819 128.213 95.3797 128.445L65.1577 145.971C64.7554 146.205 64.4242 146.015 64.4242 145.552L64.4212 144.955C64.4212 144.491 64.7495 143.918 65.1518 143.686L95.3737 126.161Z" fill="#F8F8F8"/>
<path d="M113.644 121.557C114.454 121.087 115.114 121.47 115.117 122.4L115.19 148.98C115.193 149.909 114.537 151.05 113.726 151.522L72.0788 175.672C71.2683 176.141 70.6088 175.764 70.6058 174.834L70.5289 148.255C70.526 147.325 71.1826 146.179 71.993 145.706L113.644 121.557Z" fill="#71DCEC"/>
<path d="M95.7346 145.682C96.1013 145.472 96.406 145.638 96.406 146.066L96.409 146.808C96.409 147.236 96.1073 147.756 95.7405 147.97L77.6393 158.464C77.2725 158.675 76.9679 158.509 76.9679 158.081L76.9649 157.339C76.9649 156.911 77.2666 156.391 77.6333 156.177L95.7346 145.682Z" fill="#F8F8F8"/>
<path d="M107.903 133.53C108.305 133.296 108.642 133.483 108.642 133.946L108.645 134.543C108.645 135.007 108.314 135.583 107.912 135.815L77.6925 153.337C77.2843 153.575 76.9531 153.385 76.9531 152.921L76.9501 152.324C76.9501 151.861 77.2784 151.288 77.6836 151.053L107.903 133.53Z" fill="#F8F8F8"/>
<path d="M107.929 143.324C108.331 143.089 108.669 143.276 108.669 143.74L108.672 144.331C108.672 144.8 108.34 145.377 107.938 145.608L77.7221 163.131C77.3139 163.369 76.9826 163.178 76.9826 162.709L76.9797 162.118C76.9797 161.655 77.308 161.081 77.7132 160.847L107.929 143.324Z" fill="#F8F8F8"/>
<path opacity="0.07" d="M241 220.532C241 229.627 224.466 237 204.073 237C183.679 237 167.149 229.627 167.149 220.532C167.149 211.442 183.679 204.067 204.073 204.067C224.466 204.067 241 211.442 241 220.532Z" fill="#2C788F"/>
</g>
<defs>
<clipPath id="clip0">
<rect width="183" height="234" fill="white" transform="translate(58 3)"/>
</clipPath>
</defs>
</svg>
