<svg width="300" height="240" viewBox="0 0 300 240" fill="none" xmlns="http://www.w3.org/2000/svg">
<g clip-path="url(#clip0)">
<path d="M177.065 29.5866V18.6224C177.065 15.1812 174.296 12.3871 170.879 12.3871H118.197C114.783 12.3871 112.011 15.1778 112.011 18.6224V47.3084C112.011 50.7497 114.779 53.5438 118.197 53.5438H170.879C174.293 53.5438 177.065 50.753 177.065 47.3084V36.651L187.882 33.1188L177.065 29.5866Z" fill="#F8F8F8"/>
<path opacity="0.07" d="M247.903 172.094C247.903 179.809 232.442 186.065 213.374 186.065C194.306 186.065 178.845 179.809 178.845 172.094C178.845 164.379 194.302 158.123 213.374 158.123C232.446 158.123 247.903 164.379 247.903 172.094Z" fill="#2C788F"/>
<path d="M241.055 98.4687L247.045 97.8787C249.093 102.017 249.13 103.314 248.911 105.844C248.692 108.374 248.413 109.267 246.353 110.189C244.293 111.11 243.528 108.972 243.528 108.972C243.564 104.939 242.54 102.749 242.54 102.749C242.54 102.749 241.621 103.205 241.585 105.101C241.549 106.996 240.346 106.551 240.346 106.551C240.346 106.551 239.671 106.103 239.913 103.775C240.152 101.443 241.055 98.4728 241.055 98.4687Z" fill="#F9B9A8"/>
<path d="M247.887 95.4013L239.602 98.0605L239.926 99.863C239.926 99.863 244.944 99.2325 248.32 97.3897L247.887 95.4013Z" fill="#DDF0F1"/>
<path d="M165.658 85.3787C165.658 85.3787 164.683 86.8619 166.638 86.3729C166.638 86.3729 168.641 86.1143 170.074 86.1102C170.09 86.1143 170.369 86.1911 170.102 86.4133C170.098 86.4133 170.102 86.4174 170.102 86.4214C168.771 86.7851 166.378 87.7389 164.003 90.3052C164.003 90.3052 162.566 92.0187 164.61 94.3102C166.063 95.9388 167.929 95.7812 169.106 94.6092C170.28 93.4372 170.879 92.9846 172.458 92.1117C173.907 91.3115 176.412 91.0164 177.408 89.5292L174.271 84.231C174.263 84.235 169.325 83.3217 165.658 85.3787Z" fill="#F9B9A8"/>
<path d="M175.781 83.063L173.66 84.0693C173.66 84.0693 174.571 87.0034 177.25 90.2284L179.63 89.0119L175.781 83.063Z" fill="#DDF0F1"/>
<path d="M194.929 171.723C196.269 170.486 201.434 168.122 202.041 167.629C202.648 167.132 202.247 164.88 202.247 164.88L211.459 164.343C212.73 168.938 212.018 173.173 212.018 173.173C206.53 175.319 197.73 177.296 195.609 176.92C193.489 176.54 193.59 172.959 194.929 171.723Z" fill="#B55F51"/>
<path d="M194.27 175.784C204.065 175.109 210.253 172.624 212.172 171.743C212.111 172.632 212.022 173.173 212.022 173.173C206.534 175.319 197.734 177.296 195.609 176.92C194.95 176.798 194.529 176.354 194.27 175.784Z" fill="#B64D51"/>
<path d="M217.385 173.113C218.628 171.828 223.557 169.237 224.128 168.72C224.695 168.202 224.177 166.012 224.177 166.012L233.178 164.994C234.684 169.431 234.227 173.622 234.227 173.622C228.969 176.018 220.449 178.423 218.344 178.168C216.244 177.914 216.142 174.398 217.385 173.113Z" fill="#B55F51"/>
<path d="M216.964 177.134C226.532 175.95 232.458 173.181 234.287 172.22C234.279 173.097 234.223 173.63 234.223 173.63C228.965 176.027 220.445 178.431 218.34 178.177C217.693 178.092 217.251 177.68 216.964 177.134Z" fill="#B64D51"/>
<path d="M201.891 98.9618C201.891 98.9618 199.661 130.687 201.276 164.965C201.276 164.965 206.287 166.699 212.807 165.171C212.807 165.171 212.398 128.989 214.305 112.561L215.754 102.324L216.458 92.0632L202.672 91.3519L201.891 98.9618Z" fill="#485083"/>
<path d="M229.973 90.3941C229.973 90.3941 230.24 122.879 230.329 127.534C230.418 132.194 234.903 164.99 234.903 164.99C234.903 164.99 233.644 169.403 222.177 167.471L216.705 129.789L215.313 100.712L215.187 94.1889L229.973 90.3941Z" fill="#485083"/>
<path d="M216.741 92.4915C216.741 92.4915 210.739 93.5585 205.202 91.0366L205.979 88.1228L216.741 89.513V92.4915Z" fill="#485083"/>
<path d="M220.17 40.3135L219.554 41.146L209.505 45.8057L208.679 42.5039C214.366 38.8626 220.17 40.3135 220.17 40.3135Z" fill="#BCBDBF"/>
<path d="M219.231 37.4522C219.231 37.4522 219.332 39.5375 219.931 41.8209L215.645 46.4806L211.953 49.6854H209.606L208.954 47.014C208.954 47.014 209.857 41.4814 209.302 39.4931L219.231 37.4522Z" fill="#F6A3A8"/>
<path d="M216.928 90.1354C216.928 90.1354 212.249 91.17 206.234 88.5836L204.478 45.353L209.755 46.3998L214.835 45.543L221.133 42.2089L223.209 45.353L220.234 78.4882L216.928 90.1354Z" fill="#DDF0F1"/>
<path d="M207.881 52.1102C207.881 52.1102 206.501 74.0185 207.169 97.7049C207.169 97.7049 203.178 96.6744 201.308 95.2478C201.308 95.2478 201.009 64.9779 202.191 45.353L208.618 43.199L208.464 45.0014L207.881 52.1102Z" fill="#485083"/>
<path d="M220.17 40.3135L221.481 42.4998L214.633 49.6854L211.658 46.0643L220.17 40.3135Z" fill="#F1F1F1"/>
<path d="M233.518 46.0643C233.518 46.0643 230.964 44.4235 221.485 42.4998C221.485 42.4998 214.094 54.3047 215.912 97.7817C215.912 97.7817 230.187 96.0035 232.061 94.5769C232.061 94.5769 228.945 66.2752 233.518 46.0643Z" fill="#485083"/>
<path d="M221.505 33.8634C221.505 33.8634 220.388 41.6633 213.05 42.1361C204.587 42.6817 203.332 32.0165 204.057 26.9244C204.737 22.1637 210.261 16.821 216.369 20.0015C220.951 22.3859 222.695 26.6981 221.505 33.8634Z" fill="#F9B9A8"/>
<path d="M211.658 46.0643L208.116 49.1034L208.679 42.4998L211.658 46.0643Z" fill="#F1F1F1"/>
<path d="M211.658 46.0643L209.059 48.2952L210.124 50.1299L212.443 50.3684L213.92 48.8165L211.658 46.0643Z" fill="#6D8CC7"/>
<path d="M210.124 50.1299L207.711 81.9557L210.253 86.6477L212.929 82.4568L212.443 50.3684L210.124 50.1299Z" fill="#6D8CC7"/>
<path d="M202.191 45.353C202.191 45.353 191.505 72.41 174.611 83.0792L178.792 89.8929C178.792 89.8929 192.711 82.2911 203.879 64.1939L202.191 45.353Z" fill="#485083"/>
<path d="M216.268 19.3873C210.873 17.5282 203.02 20.5916 202.227 26.1606C201.992 27.8176 202.276 30.1413 202.826 32.4853L214.062 28.9653L214.442 30.6021L215.738 32.1741C215.645 33.7745 215.685 34.6071 215.515 35.4921L217.009 36.1185C217.009 36.1185 217.425 30.8728 218.579 30.695C219.733 30.5172 220.842 31.7215 220.243 33.0633C219.644 34.405 219.826 35.8801 218.579 36.3691C218.579 36.3691 218.486 38.3009 218.737 39.6386C221.87 36.9147 222.679 32.6955 222.679 32.6955C224.331 24.2733 221.995 21.3595 216.268 19.3873Z" fill="#B64D50"/>
<path d="M233.518 46.0643C233.518 46.0643 242.848 57.6954 248.215 95.7974L239.347 98.7557C239.347 98.7557 234.542 70.5631 228.661 59.5059C222.772 48.4447 233.518 46.0643 233.518 46.0643Z" fill="#485083"/>
<path opacity="0.07" d="M53 180.755C53 188.122 67.7612 194.096 85.9709 194.096C104.181 194.096 118.942 188.122 118.942 180.755C118.942 173.388 104.181 167.414 85.9709 167.414C67.7612 167.414 53 173.388 53 180.755Z" fill="#2B778F"/>
<path d="M95.4825 38.6403C94.839 38.4423 94.3816 38.806 94.3816 38.806L94.6244 43.979L95.4623 43.6193C95.5797 43.5708 95.6647 43.4657 95.6849 43.3404C96.0127 41.3642 95.4825 38.6403 95.4825 38.6403Z" fill="#454766"/>
<path d="M69.5219 54.2602C69.5219 54.2602 59.5812 58.5724 69.5219 71.7068V54.2602Z" fill="#FAAF40"/>
<path d="M74.7796 173.452C74.7796 173.452 76.1517 174.806 78.3495 173.452C79.7135 172.612 81.2839 172.001 82.8746 171.771C83.7731 171.642 84.7 171.638 85.5864 171.852C86.2299 172.009 87.5494 172.426 87.8287 173.101C88.5694 174.923 87.6547 176.528 86.2947 177.7C82.5993 180.88 78.1349 183.265 73.2172 183.705C71.1085 183.891 68.51 183.932 66.551 183.01C66.551 183.01 66.2232 174.964 67.1258 173.909L74.7796 173.452Z" fill="#9C5984"/>
<path d="M70.4123 98.2626C70.4123 98.2626 67.7005 108.491 68 116.465L65.6646 173.097C65.6646 173.097 69.2547 176.281 76.176 175.938C77.7423 175.861 78.9768 174.568 79.0133 173.004L80.7092 98.7759L70.4123 98.2626Z" fill="#5F64A5"/>
<path d="M92.7909 178.358C92.7909 178.358 94.163 179.712 96.3608 178.358C97.7248 177.518 99.2953 176.908 100.886 176.677C101.784 176.548 102.711 176.544 103.598 176.758C104.241 176.916 105.561 177.332 105.84 178.007C106.581 179.83 105.666 181.434 104.306 182.606C100.611 185.786 96.1463 188.171 91.2286 188.611C89.1199 188.797 86.5214 188.838 84.5624 187.916C84.5624 187.916 84.2345 179.87 85.1371 178.815L92.7909 178.358Z" fill="#9C5984"/>
<path d="M79.6163 97.4301C79.6163 97.4301 77.6573 105.323 79.8551 114.747L83.8176 179.579C83.8176 179.579 89.8444 182.226 97.2229 179.579L93.9849 102.926L79.6163 97.4301Z" fill="#5F64A5"/>
<path d="M95.4825 99.4386C95.3813 96.0762 94.7013 87.2054 94.7013 87.2054C95.0616 73.7194 94.5921 60.2091 94.5921 60.2091L86.9463 55.2221L75.5891 52.5871L71.412 53.6338C69.6069 53.751 68.1174 55.0725 67.7855 56.8467C67.1905 60.0394 66.5308 65.18 67.3929 69.383C67.9595 72.1594 68.5828 77.2596 69.1131 82.2507C69.1657 82.768 69.9023 92.6128 69.5178 96.6299C69.5178 96.6299 69.4207 97.4463 70.4083 98.2626C77.9407 105.181 93.9849 102.926 93.9849 102.926C95.7982 102.74 95.5311 101.011 95.4825 99.4386Z" fill="#FAAF40"/>
<path d="M123.014 75.3319C121.937 74.9722 120.816 75.0005 118.723 75.3157C119.16 74.9278 119.784 74.5277 120.314 74.2892C121.221 73.877 120.613 73.4163 120.613 73.4163C120.01 73.3395 117.351 74.2448 116.623 74.7944C115.894 75.344 114.364 76.1483 114.364 76.1483L114.417 76.5201C114.048 76.6171 113.81 76.6777 113.81 76.6777C113.81 76.6777 115.542 80.7756 116.598 80.9252C117.651 81.0747 119.622 79.3773 120.743 79.2318C122.301 79.0298 123.479 79.834 124.584 79.733C125.689 79.6319 126.065 78.2781 126.167 77.6274C126.264 76.9727 124.37 75.7805 123.014 75.3319Z" fill="#F9BAA9"/>
<path d="M114.198 75.7482L101.845 79.6077C101.845 79.6077 99.7364 67.4229 99.2345 64.9173C98.7327 62.4116 94.5961 60.2051 94.5961 60.2051C88.2496 63.4139 90.156 68.4292 90.156 68.4292L95.3206 85.896C96.037 88.3128 98.6962 89.5696 101.024 88.5876L117.416 81.6647C117.513 76.5524 114.198 75.7482 114.198 75.7482Z" fill="#FAAF40"/>
<path d="M77.1878 28.2742C79.8997 27.8297 83.6072 27.7448 86.2259 28.5208C90.6377 29.8221 93.05 32.6389 94.1145 36.8177C95.187 41.0328 95.5068 48.0567 93.0904 51.9688C91.5807 54.4178 88.2173 53.9571 85.813 53.3226C82.9069 52.5548 79.1104 51.3019 76.7264 49.5076C73.4075 47.006 71.6509 41.5218 71.4525 37.5613C71.2785 34.1423 73.0472 28.9491 77.1878 28.2742Z" fill="#F9BAA9"/>
<path d="M75.5972 48.4689C75.9533 48.8488 76.3257 49.2004 76.7264 49.5035C79.1063 51.3019 82.9069 52.5507 85.813 53.3186C86.2744 53.4398 86.7804 53.5489 87.2904 53.6378L86.9423 55.218C83.854 56.0627 80.9722 55.8242 78.8392 55.2342C77.2485 54.7937 75.5891 54.1228 75.5891 52.4537V48.4689H75.5972Z" fill="#F9A4A9"/>
<path d="M96.1827 28.2257C96.1827 28.2257 92.6938 29.814 87.3997 27.6155C84.7081 26.496 77.2081 26.7951 75.0953 29.0987C72.4523 30.8486 71.3149 34.7889 71.4566 37.5573C71.6589 41.5178 73.4156 46.9979 76.7305 49.4995C78.564 50.8816 78.6449 51.0392 81.1018 51.8031C81.7817 51.4798 85.384 48.6831 85.384 48.6831C83.9957 47.8789 82.9191 43.2677 84.3964 42.4635C85.8778 41.6592 86.8613 44.5205 86.8613 44.5205C87.7113 44.2053 89.0146 43.2232 88.2941 41.5218C87.5777 39.8204 88.2941 38.0301 88.2941 38.0301C90.9169 38.0826 93.0783 36.6075 93.908 36.1387C93.9121 36.1387 97.4051 33.726 96.1827 28.2257Z" fill="#B54D50"/>
<path d="M85.9668 42.8717L95.2073 40.5115C95.2073 40.5115 95.5756 40.9601 95.2073 41.5299L86.6023 43.7567L85.9668 42.8717Z" fill="#454766"/>
<path d="M135.221 216.986V232.347L76.7305 198.618V183.257L135.221 216.986Z" fill="#C9DAFC"/>
<path d="M135.221 216.986V232.347L187.608 202.138V186.777L135.221 216.986Z" fill="#B8BCFC"/>
<path d="M76.7305 183.257L135.221 216.986L187.608 186.777L129.117 153.043L76.7305 183.257Z" fill="#617EBA"/>
<path d="M88.6422 207.832V208.547L74.6055 200.428V199.741L88.6422 207.832Z" fill="#ECF3FA"/>
<path d="M74.6055 199.741L88.6423 207.832L92.7464 205.468L78.7097 197.377L74.6055 199.741Z" fill="#617EBA"/>
<path d="M88.6423 207.832V208.547L92.7464 206.179V205.468L88.6423 207.832Z" fill="#B8BCFC"/>
<path d="M75.16 196.254V200.061L74.6055 199.741V195.934L75.16 196.254Z" fill="#ECF3FA"/>
<path d="M74.6055 195.934L75.16 196.254L79.2642 193.889L78.7097 193.57L74.6055 195.934Z" fill="white"/>
<path d="M75.16 196.254V200.061L79.2642 197.692V193.889L75.16 196.254Z" fill="#ECF3FA"/>
<path d="M88.0877 203.71V207.513L88.6423 207.198V203.391L88.0877 203.71Z" fill="#B8BCFC"/>
<path d="M88.6423 203.391L88.0877 203.71L75.16 196.254L75.7105 195.934L88.6423 203.391Z" fill="white"/>
<path d="M88.0877 203.71V207.513L75.16 200.061V196.254L88.0877 203.71Z" fill="#ECF3FA"/>
<path d="M90.6943 194.831V204.288L87.8044 202.619V193.166L90.6943 194.831Z" fill="#5F5363"/>
<path d="M90.6943 203.621V204.288L87.8044 202.619L88.3711 202.291L90.6943 203.621Z" fill="#617EBA"/>
<path d="M87.8044 193.166V202.619L88.3711 202.291V193.489L87.8044 193.166Z" fill="#B8BCFC"/>
<path d="M87.2297 192.839V202.291L84.3398 200.622V191.17L87.2297 192.839Z" fill="#5F5363"/>
<path d="M87.2297 201.625V202.291L84.3398 200.622L84.9064 200.295L87.2297 201.625Z" fill="#617EBA"/>
<path d="M84.3398 191.17V200.622L84.9064 200.295V191.497L84.3398 191.17Z" fill="#B8BCFC"/>
<path d="M83.7691 190.842V200.295L80.8791 198.626V189.173L83.7691 190.842Z" fill="#5F5363"/>
<path d="M83.7691 199.628V200.295L80.8791 198.626L81.4417 198.299L83.7691 199.628Z" fill="#617EBA"/>
<path d="M80.8791 189.173V198.626L81.4417 198.299V189.501L80.8791 189.173Z" fill="#B8BCFC"/>
<path d="M88.6423 204.029V207.832L88.0877 207.513V203.71L88.6423 204.029Z" fill="#ECF3FA"/>
<path d="M88.0877 203.71L88.6423 204.029L92.7464 201.661L92.196 201.342L88.0877 203.71Z" fill="white"/>
<path d="M88.6423 204.029V207.832L92.7464 205.468V201.661L88.6423 204.029Z" fill="#B8BCFC"/>
<path d="M128.684 230.896V231.612L114.647 223.492V222.805L128.684 230.896Z" fill="#ECF3FA"/>
<path d="M114.647 222.805L128.684 230.896L132.788 228.528L118.752 220.441L114.647 222.805Z" fill="#617EBA"/>
<path d="M128.684 230.896V231.612L132.788 229.243V228.528L128.684 230.896Z" fill="#B8BCFC"/>
<path d="M115.202 219.318V223.125L114.647 222.805V218.998L115.202 219.318Z" fill="#ECF3FA"/>
<path d="M114.647 218.998L115.202 219.318L119.306 216.954L118.752 216.634L114.647 218.998Z" fill="white"/>
<path d="M115.202 219.318V223.125L119.306 220.756V216.953L115.202 219.318Z" fill="#ECF3FA"/>
<path d="M128.13 226.774V230.577L128.684 230.258V226.455L128.13 226.774Z" fill="#B8BCFC"/>
<path d="M128.684 226.455L128.13 226.774L115.202 219.318L115.752 218.998L128.684 226.455Z" fill="white"/>
<path d="M128.13 226.774V230.577L115.202 223.125V219.318L128.13 226.774Z" fill="#ECF3FA"/>
<path d="M130.736 217.895V227.348L127.846 225.683V216.23L130.736 217.895Z" fill="#5F5363"/>
<path d="M130.736 226.685V227.348L127.846 225.683L128.413 225.355L130.736 226.685Z" fill="#617EBA"/>
<path d="M127.846 216.23V225.683L128.413 225.356V216.553L127.846 216.23Z" fill="#B8BCFC"/>
<path d="M127.272 215.899V225.355L124.382 223.686V214.234L127.272 215.899Z" fill="#5F5363"/>
<path d="M127.272 224.689V225.355L124.382 223.686L124.948 223.359L127.272 224.689Z" fill="#617EBA"/>
<path d="M124.382 214.234V223.686L124.948 223.359V214.557L124.382 214.234Z" fill="#B8BCFC"/>
<path d="M123.811 213.906V223.359L120.921 221.69V212.237L123.811 213.906Z" fill="#5F5363"/>
<path d="M123.811 222.692V223.359L120.921 221.69L121.484 221.363L123.811 222.692Z" fill="#617EBA"/>
<path d="M120.921 212.237V221.69L121.484 221.363V212.565L120.921 212.237Z" fill="#B8BCFC"/>
<path d="M128.684 227.089V230.896L128.13 230.577V226.77L128.684 227.089Z" fill="#ECF3FA"/>
<path d="M128.13 226.77L128.684 227.089L132.788 224.725L132.238 224.406L128.13 226.77Z" fill="white"/>
<path d="M128.684 227.089V230.896L132.788 228.528V224.725L128.684 227.089Z" fill="#B8BCFC"/>
<path d="M176.084 211.142V211.853L190.121 203.738V203.051L176.084 211.142Z" fill="#B8BCFC"/>
<path d="M190.121 203.051L176.084 211.142L171.98 208.774L186.017 200.683L190.121 203.051Z" fill="#617EBA"/>
<path d="M176.084 211.142V211.853L171.98 209.489V208.774L176.084 211.142Z" fill="#ECF3FA"/>
<path d="M189.571 199.564V203.37L190.121 203.051V199.244L189.571 199.564Z" fill="#B8BCFC"/>
<path d="M190.121 199.244L189.571 199.564L185.462 197.195L186.017 196.876L190.121 199.244Z" fill="white"/>
<path d="M189.571 199.563V203.37L185.462 201.002V197.195L189.571 199.563Z" fill="#ECF3FA"/>
<path d="M176.639 207.016V210.823L176.084 210.503V206.697L176.639 207.016Z" fill="#B8BCFC"/>
<path d="M176.084 206.697L176.639 207.016L189.571 199.564L189.016 199.244L176.084 206.697Z" fill="white"/>
<path d="M176.639 207.016V210.823L189.571 203.37V199.564L176.639 207.016Z" fill="#B8BCFC"/>
<path d="M174.032 198.141V207.594L176.922 205.929V196.472L174.032 198.141Z" fill="#5F5363"/>
<path d="M174.032 206.927V207.594L176.922 205.929L176.36 205.597L174.032 206.927Z" fill="#617EBA"/>
<path d="M176.922 196.472V205.929L176.36 205.597V196.799L176.922 196.472Z" fill="#ECF3FA"/>
<path d="M177.497 196.144V205.597L180.387 203.932V194.479L177.497 196.144Z" fill="#5F5363"/>
<path d="M177.497 204.934V205.597L180.387 203.932L179.82 203.605L177.497 204.934Z" fill="#617EBA"/>
<path d="M180.387 194.479V203.932L179.82 203.605V194.803L180.387 194.479Z" fill="#ECF3FA"/>
<path d="M180.962 194.148V203.605L183.852 201.936V192.483L180.962 194.148Z" fill="#5F5363"/>
<path d="M180.962 202.938V203.605L183.852 201.936L183.285 201.608L180.962 202.938Z" fill="#617EBA"/>
<path d="M183.852 192.483V201.936L183.285 201.608V192.806L183.852 192.483Z" fill="#ECF3FA"/>
<path d="M176.084 207.335V211.142L176.639 210.823V207.016L176.084 207.335Z" fill="#B8BCFC"/>
<path d="M176.639 207.016L176.084 207.335L171.98 204.971L172.535 204.652L176.639 207.016Z" fill="white"/>
<path d="M176.084 207.335V211.142L171.98 208.774V204.971L176.084 207.335Z" fill="#ECF3FA"/>
<path d="M157.612 221.787V222.502L171.648 214.383V213.696L157.612 221.787Z" fill="#B8BCFC"/>
<path d="M171.648 213.696L157.612 221.787L153.507 219.419L167.544 211.332L171.648 213.696Z" fill="#617EBA"/>
<path d="M157.612 221.787V222.502L153.507 220.134V219.419L157.612 221.787Z" fill="#ECF3FA"/>
<path d="M171.094 210.208V214.015L171.648 213.696V209.889L171.094 210.208Z" fill="#B8BCFC"/>
<path d="M171.648 209.889L171.094 210.208L166.99 207.844L167.544 207.525L171.648 209.889Z" fill="white"/>
<path d="M171.094 210.208V214.015L166.99 211.647V207.844L171.094 210.208Z" fill="#ECF3FA"/>
<path d="M158.166 217.665V221.468L157.612 221.152V217.346L158.166 217.665Z" fill="#B8BCFC"/>
<path d="M157.612 217.346L158.166 217.665L171.094 210.208L170.543 209.889L157.612 217.346Z" fill="white"/>
<path d="M158.166 217.665V221.468L171.094 214.015V210.208L158.166 217.665Z" fill="#B8BCFC"/>
<path d="M155.559 208.786V218.243L158.449 216.574V207.121L155.559 208.786Z" fill="#5F5363"/>
<path d="M155.559 217.576V218.243L158.449 216.574L157.883 216.246L155.559 217.576Z" fill="#617EBA"/>
<path d="M158.449 207.121V216.574L157.883 216.246V207.444L158.449 207.121Z" fill="#ECF3FA"/>
<path d="M159.024 206.789V216.246L161.914 214.577V205.124L159.024 206.789Z" fill="#5F5363"/>
<path d="M159.024 215.579V216.246L161.914 214.577L161.347 214.25L159.024 215.579Z" fill="#617EBA"/>
<path d="M161.914 205.124V214.577L161.347 214.25V205.448L161.914 205.124Z" fill="#ECF3FA"/>
<path d="M162.489 204.797V214.25L165.379 212.581V203.128L162.489 204.797Z" fill="#5F5363"/>
<path d="M162.489 213.583V214.25L165.379 212.581L164.812 212.253L162.489 213.583Z" fill="#617EBA"/>
<path d="M165.379 203.128V212.581L164.812 212.253V203.455L165.379 203.128Z" fill="#ECF3FA"/>
<path d="M157.612 217.98V221.787L158.166 221.468V217.661L157.612 217.98Z" fill="#B8BCFC"/>
<path d="M158.166 217.661L157.612 217.98L153.507 215.616L154.062 215.297L158.166 217.661Z" fill="white"/>
<path d="M157.612 217.98V221.787L153.507 219.419V215.616L157.612 217.98Z" fill="#ECF3FA"/>
<path d="M103.242 207.541L100.979 206.24L100.692 206.41L103.242 207.877V207.541Z" fill="white"/>
<path d="M100.979 206.24V200.768L103.242 202.053V207.541L100.979 206.24Z" fill="#5F5363"/>
<path d="M100.692 200.602V206.41L100.979 206.24V200.768L100.692 200.602Z" fill="#B8BCFC"/>
<path d="M100.396 205.904L98.1336 204.603L97.8463 204.769L100.396 206.24V205.904Z" fill="white"/>
<path d="M98.1336 204.603V199.127L100.396 200.412V205.904L98.1336 204.603Z" fill="#5F5363"/>
<path d="M97.8463 198.961V204.769L98.1336 204.603V199.127L97.8463 198.961Z" fill="#B8BCFC"/>
<path d="M102.205 208.475V208.952L96.8141 205.824V205.363L102.205 208.475Z" fill="#ECF3FA"/>
<path d="M96.8141 205.363L102.205 208.475L103.242 207.877L97.8463 204.769L96.8141 205.363Z" fill="white"/>
<path d="M102.205 208.475V208.952L103.242 208.358V207.877L102.205 208.475Z" fill="#B8BCFC"/>
<path d="M113.878 213.676L111.62 212.379L111.333 212.544L113.878 214.015V213.676Z" fill="white"/>
<path d="M111.62 212.379V206.903L113.878 208.188V213.676L111.62 212.379Z" fill="#5F5363"/>
<path d="M111.333 206.737V212.544L111.62 212.379V206.903L111.333 206.737Z" fill="#B8BCFC"/>
<path d="M111.037 212.039L108.774 210.738L108.487 210.904L111.037 212.375V212.039Z" fill="white"/>
<path d="M108.774 210.738V205.262L111.037 206.551V212.039L108.774 210.738Z" fill="#5F5363"/>
<path d="M108.487 205.096V210.904L108.774 210.738V205.262L108.487 205.096Z" fill="#B8BCFC"/>
<path d="M112.846 214.609V215.09L107.451 211.962V211.498L112.846 214.609Z" fill="#ECF3FA"/>
<path d="M107.451 211.498L112.846 214.61L113.882 214.015L108.487 210.904L107.451 211.498Z" fill="white"/>
<path d="M112.846 214.61V215.09L113.882 214.492V214.015L112.846 214.61Z" fill="#B8BCFC"/>
<path d="M135.221 201.629V216.986L76.7305 183.257V167.895L135.221 201.629Z" fill="#C9DAFC"/>
<path d="M135.221 201.629V216.986L187.608 186.777V171.415L135.221 201.629Z" fill="#B8BCFC"/>
<path d="M76.7305 167.895L135.221 201.629L187.608 171.415L129.117 137.686L76.7305 167.895Z" fill="#617EBA"/>
<path d="M88.6422 192.471V193.186L74.6055 185.067V184.38L88.6422 192.471Z" fill="#ECF3FA"/>
<path d="M74.6055 184.38L88.6423 192.471L92.7464 190.107L78.7097 182.016L74.6055 184.38Z" fill="#617EBA"/>
<path d="M88.6423 192.471V193.186L92.7464 190.818V190.107L88.6423 192.471Z" fill="#B8BCFC"/>
<path d="M75.16 180.892V184.699L74.6055 184.38V180.577L75.16 180.892Z" fill="#ECF3FA"/>
<path d="M74.6055 180.577L75.16 180.892L79.2642 178.528L78.7097 178.209L74.6055 180.577Z" fill="white"/>
<path d="M75.16 180.892V184.699L79.2642 182.331V178.528L75.16 180.892Z" fill="#ECF3FA"/>
<path d="M88.0877 188.349V192.156L88.6423 191.836V188.029L88.0877 188.349Z" fill="#B8BCFC"/>
<path d="M88.6423 188.029L88.0877 188.349L75.16 180.892L75.7105 180.577L88.6423 188.029Z" fill="white"/>
<path d="M88.0877 188.349V192.156L75.16 184.699V180.892L88.0877 188.349Z" fill="#ECF3FA"/>
<path d="M90.6943 179.47V188.927L87.8044 187.258V177.805L90.6943 179.47Z" fill="#5F5363"/>
<path d="M90.6943 188.26V188.927L87.8044 187.258L88.3711 186.93L90.6943 188.26Z" fill="#617EBA"/>
<path d="M87.8044 177.805V187.258L88.3711 186.93V178.132L87.8044 177.805Z" fill="#B8BCFC"/>
<path d="M87.2297 177.477V186.93L84.3398 185.261V175.808L87.2297 177.477Z" fill="#5F5363"/>
<path d="M87.2297 186.263V186.93L84.3398 185.261L84.9064 184.934L87.2297 186.263Z" fill="#617EBA"/>
<path d="M84.3398 175.808V185.261L84.9064 184.934V176.136L84.3398 175.808Z" fill="#B8BCFC"/>
<path d="M83.7691 175.481V184.934L80.8791 183.265V173.812L83.7691 175.481Z" fill="#5F5363"/>
<path d="M83.7691 184.267V184.934L80.8791 183.265L81.4417 182.937L83.7691 184.267Z" fill="#617EBA"/>
<path d="M80.8791 173.812V183.265L81.4417 182.937V174.139L80.8791 173.812Z" fill="#B8BCFC"/>
<path d="M88.6423 188.668V192.471L88.0877 192.156V188.349L88.6423 188.668Z" fill="#ECF3FA"/>
<path d="M88.0877 188.349L88.6423 188.668L92.7464 186.3L92.196 185.98L88.0877 188.349Z" fill="white"/>
<path d="M88.6423 188.668V192.471L92.7464 190.107V186.3L88.6423 188.668Z" fill="#B8BCFC"/>
<path d="M128.684 215.535V216.25L114.647 208.131V207.444L128.684 215.535Z" fill="#ECF3FA"/>
<path d="M114.647 207.444L128.684 215.535L132.788 213.167L118.752 205.08L114.647 207.444Z" fill="#617EBA"/>
<path d="M128.684 215.535V216.25L132.788 213.882V213.167L128.684 215.535Z" fill="#B8BCFC"/>
<path d="M115.202 203.957V207.763L114.647 207.444V203.637L115.202 203.957Z" fill="#ECF3FA"/>
<path d="M114.647 203.637L115.202 203.956L119.306 201.592L118.752 201.273L114.647 203.637Z" fill="white"/>
<path d="M115.202 203.956V207.763L119.306 205.395V201.592L115.202 203.956Z" fill="#ECF3FA"/>
<path d="M128.13 211.413V215.216L128.684 214.9V211.094L128.13 211.413Z" fill="#B8BCFC"/>
<path d="M128.684 211.094L128.13 211.413L115.202 203.957L115.752 203.637L128.684 211.094Z" fill="white"/>
<path d="M128.13 211.413V215.216L115.202 207.763V203.956L128.13 211.413Z" fill="#ECF3FA"/>
<path d="M130.736 202.534V211.991L127.846 210.322V200.869L130.736 202.534Z" fill="#5F5363"/>
<path d="M130.736 211.324V211.991L127.846 210.322L128.413 209.994L130.736 211.324Z" fill="#617EBA"/>
<path d="M127.846 200.869V210.322L128.413 209.994V201.192L127.846 200.869Z" fill="#B8BCFC"/>
<path d="M127.272 200.537V209.994L124.382 208.325V198.872L127.272 200.537Z" fill="#5F5363"/>
<path d="M127.272 209.327V209.994L124.382 208.325L124.948 207.998L127.272 209.327Z" fill="#617EBA"/>
<path d="M124.382 198.872V208.325L124.948 207.998V199.2L124.382 198.872Z" fill="#B8BCFC"/>
<path d="M123.811 198.545V207.998L120.921 206.329V196.876L123.811 198.545Z" fill="#5F5363"/>
<path d="M123.811 207.331V207.998L120.921 206.329L121.484 206.001L123.811 207.331Z" fill="#617EBA"/>
<path d="M120.921 196.876V206.329L121.484 206.001V197.203L120.921 196.876Z" fill="#B8BCFC"/>
<path d="M128.684 211.728V215.535L128.13 215.216V211.413L128.684 211.728Z" fill="#ECF3FA"/>
<path d="M128.13 211.413L128.684 211.728L132.788 209.364L132.238 209.045L128.13 211.413Z" fill="white"/>
<path d="M128.684 211.728V215.535L132.788 213.167V209.364L128.684 211.728Z" fill="#B8BCFC"/>
<path d="M176.084 195.781V196.492L190.121 188.377V187.69L176.084 195.781Z" fill="#B8BCFC"/>
<path d="M190.121 187.69L176.084 195.781L171.98 193.413L186.017 185.322L190.121 187.69Z" fill="#617EBA"/>
<path d="M176.084 195.781V196.492L171.98 194.128V193.413L176.084 195.781Z" fill="#ECF3FA"/>
<path d="M189.571 184.202V188.009L190.121 187.69V183.883L189.571 184.202Z" fill="#B8BCFC"/>
<path d="M190.121 183.883L189.571 184.202L185.462 181.834L186.017 181.519L190.121 183.883Z" fill="white"/>
<path d="M189.571 184.202V188.009L185.462 185.641V181.834L189.571 184.202Z" fill="#ECF3FA"/>
<path d="M176.639 191.655V195.462L176.084 195.142V191.335L176.639 191.655Z" fill="#B8BCFC"/>
<path d="M176.084 191.335L176.639 191.655L189.571 184.202L189.016 183.883L176.084 191.335Z" fill="white"/>
<path d="M176.639 191.655V195.462L189.571 188.009V184.202L176.639 191.655Z" fill="#B8BCFC"/>
<path d="M174.032 182.78V192.232L176.922 190.567V181.111L174.032 182.78Z" fill="#5F5363"/>
<path d="M174.032 191.566V192.232L176.922 190.567L176.36 190.24L174.032 191.566Z" fill="#617EBA"/>
<path d="M176.922 181.111V190.567L176.36 190.24V181.438L176.922 181.111Z" fill="#ECF3FA"/>
<path d="M177.497 180.783V190.24L180.387 188.571V179.118L177.497 180.783Z" fill="#5F5363"/>
<path d="M177.497 189.573V190.24L180.387 188.571L179.82 188.244L177.497 189.573Z" fill="#617EBA"/>
<path d="M180.387 179.118V188.571L179.82 188.244V179.442L180.387 179.118Z" fill="#ECF3FA"/>
<path d="M180.962 178.787V188.244L183.852 186.575V177.122L180.962 178.787Z" fill="#5F5363"/>
<path d="M180.962 187.577V188.244L183.852 186.575L183.285 186.247L180.962 187.577Z" fill="#617EBA"/>
<path d="M183.852 177.122V186.575L183.285 186.247V177.445L183.852 177.122Z" fill="#ECF3FA"/>
<path d="M176.084 191.974V195.781L176.639 195.462V191.655L176.084 191.974Z" fill="#B8BCFC"/>
<path d="M176.639 191.655L176.084 191.974L171.98 189.61L172.535 189.29L176.639 191.655Z" fill="white"/>
<path d="M176.084 191.974V195.781L171.98 193.413V189.61L176.084 191.974Z" fill="#ECF3FA"/>
<path d="M157.612 206.426V207.141L171.648 199.022V198.335L157.612 206.426Z" fill="#B8BCFC"/>
<path d="M171.648 198.335L157.612 206.426L153.507 204.062L167.544 195.971L171.648 198.335Z" fill="#617EBA"/>
<path d="M157.612 206.426V207.141L153.507 204.773V204.062L157.612 206.426Z" fill="#ECF3FA"/>
<path d="M171.094 194.847V198.654L171.648 198.335V194.528L171.094 194.847Z" fill="#B8BCFC"/>
<path d="M171.648 194.528L171.094 194.847L166.99 192.483L167.544 192.164L171.648 194.528Z" fill="white"/>
<path d="M171.094 194.847V198.654L166.99 196.286V192.483L171.094 194.847Z" fill="#ECF3FA"/>
<path d="M158.166 202.304V206.106L157.612 205.791V201.984L158.166 202.304Z" fill="#B8BCFC"/>
<path d="M157.612 201.984L158.166 202.304L171.094 194.847L170.543 194.528L157.612 201.984Z" fill="white"/>
<path d="M158.166 202.304V206.106L171.094 198.654V194.847L158.166 202.304Z" fill="#B8BCFC"/>
<path d="M155.559 193.425V202.881L158.449 201.212V191.76L155.559 193.425Z" fill="#5F5363"/>
<path d="M155.559 202.215V202.881L158.449 201.212L157.883 200.885L155.559 202.215Z" fill="#617EBA"/>
<path d="M158.449 191.76V201.212L157.883 200.885V192.083L158.449 191.76Z" fill="#ECF3FA"/>
<path d="M159.024 191.432V200.885L161.914 199.216V189.763L159.024 191.432Z" fill="#5F5363"/>
<path d="M159.024 200.218V200.885L161.914 199.216L161.347 198.889L159.024 200.218Z" fill="#617EBA"/>
<path d="M161.914 189.763V199.216L161.347 198.889V190.091L161.914 189.763Z" fill="#ECF3FA"/>
<path d="M162.489 189.436V198.889L165.379 197.22V187.767L162.489 189.436Z" fill="#5F5363"/>
<path d="M162.489 198.222V198.889L165.379 197.22L164.812 196.892L162.489 198.222Z" fill="#617EBA"/>
<path d="M165.379 187.767V197.22L164.812 196.892V188.094L165.379 187.767Z" fill="#ECF3FA"/>
<path d="M157.612 202.619V206.426L158.166 206.106V202.304L157.612 202.619Z" fill="#B8BCFC"/>
<path d="M158.166 202.304L157.612 202.619L153.507 200.255L154.062 199.935L158.166 202.304Z" fill="white"/>
<path d="M157.612 202.619V206.426L153.507 204.062V200.255L157.612 202.619Z" fill="#ECF3FA"/>
<path d="M103.242 192.18L100.979 190.883L100.692 191.048L103.242 192.519V192.18Z" fill="white"/>
<path d="M100.979 190.883V185.407L103.242 186.692V192.18L100.979 190.883Z" fill="#5F5363"/>
<path d="M100.692 185.241V191.048L100.979 190.883V185.407L100.692 185.241Z" fill="#B8BCFC"/>
<path d="M100.396 190.543L98.1336 189.242L97.8463 189.408L100.396 190.879V190.543Z" fill="white"/>
<path d="M98.1336 189.242V183.766L100.396 185.051V190.543L98.1336 189.242Z" fill="#5F5363"/>
<path d="M97.8463 183.6V189.408L98.1336 189.242V183.766L97.8463 183.6Z" fill="#B8BCFC"/>
<path d="M102.205 193.113V193.594L96.8141 190.466V190.002L102.205 193.113Z" fill="#ECF3FA"/>
<path d="M96.8141 190.002L102.205 193.113L103.242 192.519L97.8463 189.408L96.8141 190.002Z" fill="white"/>
<path d="M102.205 193.113V193.594L103.242 192.996V192.519L102.205 193.113Z" fill="#B8BCFC"/>
<path d="M113.878 198.319L111.62 197.017L111.333 197.183L113.878 198.654V198.319Z" fill="white"/>
<path d="M111.62 197.017V191.541L113.878 192.827V198.319L111.62 197.017Z" fill="#5F5363"/>
<path d="M111.333 191.376V197.183L111.62 197.017V191.541L111.333 191.376Z" fill="#B8BCFC"/>
<path d="M111.037 196.678L108.774 195.377L108.487 195.542L111.037 197.013V196.678Z" fill="white"/>
<path d="M108.774 195.377V189.901L111.037 191.19V196.678L108.774 195.377Z" fill="#5F5363"/>
<path d="M108.487 189.735V195.542L108.774 195.377V189.901L108.487 189.735Z" fill="#B8BCFC"/>
<path d="M112.846 199.248V199.729L107.451 196.601V196.14L112.846 199.248Z" fill="#ECF3FA"/>
<path d="M107.451 196.14L112.846 199.248L113.882 198.654L108.487 195.542L107.451 196.14Z" fill="white"/>
<path d="M112.846 199.248V199.729L113.882 199.131V198.654L112.846 199.248Z" fill="#B8BCFC"/>
<path d="M135.221 186.267V201.629L76.7305 167.895V152.534L135.221 186.267Z" fill="#C9DAFC"/>
<path d="M135.221 186.267V201.629L187.608 171.415V156.054L135.221 186.267Z" fill="#B8BCFC"/>
<path d="M76.7305 152.534L135.221 186.267L187.608 156.054L129.117 122.325L76.7305 152.534Z" fill="#617EBA"/>
<path d="M88.6422 177.11V177.825L74.6055 169.706V169.019L88.6422 177.11Z" fill="#ECF3FA"/>
<path d="M74.6055 169.019L88.6423 177.11L92.7464 174.745L78.7097 166.655L74.6055 169.019Z" fill="#617EBA"/>
<path d="M88.6423 177.11V177.825L92.7464 175.457V174.745L88.6423 177.11Z" fill="#B8BCFC"/>
<path d="M75.16 165.535V169.338L74.6055 169.019V165.216L75.16 165.535Z" fill="#ECF3FA"/>
<path d="M74.6055 165.216L75.16 165.535L79.2642 163.167L78.7097 162.848L74.6055 165.216Z" fill="white"/>
<path d="M75.16 165.535V169.338L79.2642 166.974V163.167L75.16 165.535Z" fill="#ECF3FA"/>
<path d="M88.0877 172.988V176.794L88.6423 176.475V172.668L88.0877 172.988Z" fill="#B8BCFC"/>
<path d="M88.6423 172.668L88.0877 172.987L75.16 165.531L75.7105 165.216L88.6423 172.668Z" fill="white"/>
<path d="M88.0877 172.988V176.794L75.16 169.338V165.531L88.0877 172.988Z" fill="#ECF3FA"/>
<path d="M90.6943 164.113V173.565L87.8044 171.896V162.444L90.6943 164.113Z" fill="#5F5363"/>
<path d="M90.6943 172.899V173.565L87.8044 171.896L88.3711 171.569L90.6943 172.899Z" fill="#617EBA"/>
<path d="M87.8044 162.444V171.896L88.3711 171.569V162.771L87.8044 162.444Z" fill="#B8BCFC"/>
<path d="M87.2297 162.116V171.569L84.3398 169.9V160.447L87.2297 162.116Z" fill="#5F5363"/>
<path d="M87.2297 170.902V171.569L84.3398 169.9L84.9064 169.573L87.2297 170.902Z" fill="#617EBA"/>
<path d="M84.3398 160.447V169.9L84.9064 169.573V160.774L84.3398 160.447Z" fill="#B8BCFC"/>
<path d="M83.7691 160.12V169.573L80.8791 167.907V158.451L83.7691 160.12Z" fill="#5F5363"/>
<path d="M83.7691 168.906V169.573L80.8791 167.908L81.4417 167.576L83.7691 168.906Z" fill="#617EBA"/>
<path d="M80.8791 158.451V167.908L81.4417 167.576V158.778L80.8791 158.451Z" fill="#B8BCFC"/>
<path d="M88.6423 173.307V177.11L88.0877 176.794V172.987L88.6423 173.307Z" fill="#ECF3FA"/>
<path d="M88.0877 172.987L88.6423 173.307L92.7464 170.939L92.196 170.619L88.0877 172.987Z" fill="white"/>
<path d="M88.6423 173.307V177.11L92.7464 174.745V170.939L88.6423 173.307Z" fill="#B8BCFC"/>
<path d="M128.684 200.174V200.889L114.647 192.77V192.083L128.684 200.174Z" fill="#ECF3FA"/>
<path d="M114.647 192.083L128.684 200.174L132.788 197.81L118.752 189.719L114.647 192.083Z" fill="#617EBA"/>
<path d="M128.684 200.174V200.889L132.788 198.521V197.81L128.684 200.174Z" fill="#B8BCFC"/>
<path d="M115.202 188.595V192.402L114.647 192.083V188.276L115.202 188.595Z" fill="#ECF3FA"/>
<path d="M114.647 188.276L115.202 188.595L119.306 186.231L118.752 185.912L114.647 188.276Z" fill="white"/>
<path d="M115.202 188.595V192.402L119.306 190.034V186.231L115.202 188.595Z" fill="#ECF3FA"/>
<path d="M128.13 196.052V199.854L128.684 199.539V195.732L128.13 196.052Z" fill="#B8BCFC"/>
<path d="M128.684 195.732L128.13 196.052L115.202 188.595L115.752 188.276L128.684 195.732Z" fill="white"/>
<path d="M128.13 196.052V199.854L115.202 192.402V188.595L128.13 196.052Z" fill="#ECF3FA"/>
<path d="M130.736 187.173V196.629L127.846 194.96V185.508L130.736 187.173Z" fill="#5F5363"/>
<path d="M130.736 195.963V196.629L127.846 194.96L128.413 194.633L130.736 195.963Z" fill="#617EBA"/>
<path d="M127.846 185.508V194.96L128.413 194.633V185.831L127.846 185.508Z" fill="#B8BCFC"/>
<path d="M127.272 185.18V194.633L124.382 192.964V183.511L127.272 185.18Z" fill="#5F5363"/>
<path d="M127.272 193.966V194.633L124.382 192.964L124.948 192.637L127.272 193.966Z" fill="#617EBA"/>
<path d="M124.382 183.511V192.964L124.948 192.637V183.839L124.382 183.511Z" fill="#B8BCFC"/>
<path d="M123.811 183.184V192.637L120.921 190.968V181.515L123.811 183.184Z" fill="#5F5363"/>
<path d="M123.811 191.97V192.637L120.921 190.968L121.484 190.64L123.811 191.97Z" fill="#617EBA"/>
<path d="M120.921 181.515V190.968L121.484 190.64V181.842L120.921 181.515Z" fill="#B8BCFC"/>
<path d="M128.684 196.371V200.174L128.13 199.854V196.052L128.684 196.371Z" fill="#ECF3FA"/>
<path d="M128.13 196.052L128.684 196.371L132.788 194.003L132.238 193.683L128.13 196.052Z" fill="white"/>
<path d="M128.684 196.371V200.174L132.788 197.81V194.003L128.684 196.371Z" fill="#B8BCFC"/>
<path d="M176.084 180.42V181.135L190.121 173.016V172.329L176.084 180.42Z" fill="#B8BCFC"/>
<path d="M190.121 172.329L176.084 180.42L171.98 178.051L186.017 169.965L190.121 172.329Z" fill="#617EBA"/>
<path d="M176.084 180.42V181.135L171.98 178.767V178.051L176.084 180.42Z" fill="#ECF3FA"/>
<path d="M189.571 168.841V172.648L190.121 172.329V168.522L189.571 168.841Z" fill="#B8BCFC"/>
<path d="M190.121 168.522L189.571 168.841L185.462 166.477L186.017 166.158L190.121 168.522Z" fill="white"/>
<path d="M189.571 168.841V172.648L185.462 170.28V166.477L189.571 168.841Z" fill="#ECF3FA"/>
<path d="M176.639 176.297V180.1L176.084 179.781V175.978L176.639 176.297Z" fill="#B8BCFC"/>
<path d="M176.084 175.978L176.639 176.297L189.571 168.841L189.016 168.522L176.084 175.978Z" fill="white"/>
<path d="M176.639 176.297V180.1L189.571 172.648V168.841L176.639 176.297Z" fill="#B8BCFC"/>
<path d="M174.032 167.418V176.871L176.922 175.206V165.753L174.032 167.418Z" fill="#5F5363"/>
<path d="M174.032 176.208V176.871L176.922 175.206L176.36 174.879L174.032 176.208Z" fill="#617EBA"/>
<path d="M176.922 165.753V175.206L176.36 174.879V166.077L176.922 165.753Z" fill="#ECF3FA"/>
<path d="M177.497 165.422V174.879L180.387 173.21V163.757L177.497 165.422Z" fill="#5F5363"/>
<path d="M177.497 174.212V174.879L180.387 173.21L179.82 172.882L177.497 174.212Z" fill="#617EBA"/>
<path d="M180.387 163.757V173.21L179.82 172.882V164.08L180.387 163.757Z" fill="#ECF3FA"/>
<path d="M180.962 163.43V172.882L183.852 171.213V161.761L180.962 163.43Z" fill="#5F5363"/>
<path d="M180.962 172.216V172.882L183.852 171.213L183.285 170.886L180.962 172.216Z" fill="#617EBA"/>
<path d="M183.852 161.761V171.213L183.285 170.886V162.088L183.852 161.761Z" fill="#ECF3FA"/>
<path d="M176.084 176.613V180.42L176.639 180.1V176.293L176.084 176.613Z" fill="#B8BCFC"/>
<path d="M176.639 176.293L176.084 176.613L171.98 174.248L172.535 173.929L176.639 176.293Z" fill="white"/>
<path d="M176.084 176.613V180.42L171.98 178.051V174.248L176.084 176.613Z" fill="#ECF3FA"/>
<path d="M157.612 191.065V191.78L171.648 183.661V182.974L157.612 191.065Z" fill="#B8BCFC"/>
<path d="M171.648 182.974L157.612 191.064L153.507 188.7L167.544 180.609L171.648 182.974Z" fill="#617EBA"/>
<path d="M157.612 191.065V191.78L153.507 189.412V188.7L157.612 191.065Z" fill="#ECF3FA"/>
<path d="M171.094 179.486V183.293L171.648 182.974V179.171L171.094 179.486Z" fill="#B8BCFC"/>
<path d="M171.648 179.171L171.094 179.486L166.99 177.122L167.544 176.803L171.648 179.171Z" fill="white"/>
<path d="M171.094 179.486V183.293L166.99 180.925V177.122L171.094 179.486Z" fill="#ECF3FA"/>
<path d="M158.166 186.942V190.749L157.612 190.43V186.623L158.166 186.942Z" fill="#B8BCFC"/>
<path d="M157.612 186.623L158.166 186.942L171.094 179.486L170.543 179.171L157.612 186.623Z" fill="white"/>
<path d="M158.166 186.942V190.749L171.094 183.293V179.486L158.166 186.942Z" fill="#B8BCFC"/>
<path d="M155.559 178.063V187.52L158.449 185.851V176.398L155.559 178.063Z" fill="#5F5363"/>
<path d="M155.559 186.853V187.52L158.449 185.851L157.883 185.524L155.559 186.853Z" fill="#617EBA"/>
<path d="M158.449 176.398V185.851L157.883 185.524V176.726L158.449 176.398Z" fill="#ECF3FA"/>
<path d="M159.024 176.071V185.524L161.914 183.855V174.402L159.024 176.071Z" fill="#5F5363"/>
<path d="M159.024 184.857V185.524L161.914 183.855L161.347 183.527L159.024 184.857Z" fill="#617EBA"/>
<path d="M161.914 174.402V183.855L161.347 183.527V174.729L161.914 174.402Z" fill="#ECF3FA"/>
<path d="M162.489 174.075V183.527L165.379 181.862V172.406L162.489 174.075Z" fill="#5F5363"/>
<path d="M162.489 182.861V183.527L165.379 181.862L164.812 181.531L162.489 182.861Z" fill="#617EBA"/>
<path d="M165.379 172.406V181.862L164.812 181.531V172.733L165.379 172.406Z" fill="#ECF3FA"/>
<path d="M157.612 187.262V191.064L158.166 190.749V186.942L157.612 187.262Z" fill="#B8BCFC"/>
<path d="M158.166 186.942L157.612 187.262L153.507 184.893L154.062 184.574L158.166 186.942Z" fill="white"/>
<path d="M157.612 187.262V191.064L153.507 188.7V184.893L157.612 187.262Z" fill="#ECF3FA"/>
<path d="M103.242 176.819L100.979 175.521L100.692 175.687L103.242 177.158V176.819Z" fill="white"/>
<path d="M100.979 175.521V170.045L103.242 171.331V176.819L100.979 175.521Z" fill="#5F5363"/>
<path d="M100.692 169.88V175.687L100.979 175.521V170.045L100.692 169.88Z" fill="#B8BCFC"/>
<path d="M100.396 175.182L98.1336 173.881L97.8463 174.046L100.396 175.517V175.182Z" fill="white"/>
<path d="M98.1336 173.881V168.405L100.396 169.694V175.182L98.1336 173.881Z" fill="#5F5363"/>
<path d="M97.8463 168.239V174.046L98.1336 173.881V168.405L97.8463 168.239Z" fill="#B8BCFC"/>
<path d="M102.205 177.752V178.233L96.8141 175.105V174.64L102.205 177.752Z" fill="#ECF3FA"/>
<path d="M96.8141 174.64L102.205 177.752L103.242 177.158L97.8463 174.046L96.8141 174.64Z" fill="white"/>
<path d="M102.205 177.752V178.233L103.242 177.635V177.158L102.205 177.752Z" fill="#B8BCFC"/>
<path d="M113.878 182.958L111.62 181.656L111.333 181.822L113.878 183.293V182.958Z" fill="white"/>
<path d="M111.62 181.656V176.18L113.878 177.469V182.958L111.62 181.656Z" fill="#5F5363"/>
<path d="M111.333 176.014V181.822L111.62 181.656V176.18L111.333 176.014Z" fill="#B8BCFC"/>
<path d="M111.037 181.317L108.774 180.015L108.487 180.181L111.037 181.652V181.317Z" fill="white"/>
<path d="M108.774 180.015V174.539L111.037 175.829V181.317L108.774 180.015Z" fill="#5F5363"/>
<path d="M108.487 174.374V180.181L108.774 180.015V174.539L108.487 174.374Z" fill="#B8BCFC"/>
<path d="M112.846 183.887V184.368L107.451 181.24V180.779L112.846 183.887Z" fill="#ECF3FA"/>
<path d="M107.451 180.779L112.846 183.887L113.882 183.293L108.487 180.181L107.451 180.779Z" fill="white"/>
<path d="M112.846 183.887V184.368L113.882 183.774V183.293L112.846 183.887Z" fill="#B8BCFC"/>
<path d="M138.082 187.916V234L135.221 232.347V186.267L138.082 187.916Z" fill="#C9DAFC"/>
<path d="M138.082 187.916V234L147.817 228.391V182.307L138.082 187.916Z" fill="#ECF3FA"/>
<path d="M135.221 186.267L138.082 187.916L147.817 182.307L144.951 180.658L135.221 186.267Z" fill="white"/>
<path d="M129.117 122.325L76.7305 152.534L135.221 186.267L187.608 156.054L129.117 122.325ZM79.3411 152.534L129.117 123.828L184.997 156.054L135.221 184.76L79.3411 152.534Z" fill="white"/>
<path d="M129.117 123.828L79.3411 152.534L81.0006 153.492L129.117 125.74V123.828Z" fill="#B8BCFC"/>
<path d="M129.117 123.828L184.997 156.054L183.337 157.012L129.117 125.74V123.828Z" fill="#ECF3FA"/>
<path d="M129.72 132.343V141.028L118.197 134.384V125.699L129.72 132.343Z" fill="#ECF3FA"/>
<path d="M129.72 132.343V141.028L140.037 135.075V126.391L129.72 132.343Z" fill="#B8BCFC"/>
<path d="M118.197 125.699L129.72 132.343L140.037 126.391L128.518 119.751L118.197 125.699Z" fill="white"/>
<path d="M136.123 130.246V137.339L138.637 135.888V128.803L136.123 130.246Z" fill="#5F5363"/>
<path d="M136.123 136.761V137.339L138.637 135.888L138.143 135.605L136.123 136.761Z" fill="#617EBA"/>
<path d="M138.637 128.803V135.888L138.143 135.605V129.086L138.637 128.803Z" fill="#ECF3FA"/>
<path d="M134.521 42.3602V46.038L120.506 37.9582V34.277L134.521 42.3602Z" fill="#C9DAFC"/>
<path d="M134.521 42.3602V46.038L147.072 38.7997V35.1185L134.521 42.3602Z" fill="#B8BCFC"/>
<path d="M120.507 34.277L134.522 42.3602L147.073 35.1186L133.061 27.0388L120.507 34.277Z" fill="#617EBA"/>
<path d="M123.36 40.1642V40.3352L119.999 38.3907V38.2264L123.36 40.1642Z" fill="#ECF3FA"/>
<path d="M119.999 38.2264L123.36 40.1642L124.344 39.5976L120.983 37.6598L119.999 38.2264Z" fill="#617EBA"/>
<path d="M123.36 40.1642V40.3352L124.344 39.7686V39.5976L123.36 40.1642Z" fill="#B8BCFC"/>
<path d="M120.13 37.3916V38.3035L119.999 38.2264V37.3145L120.13 37.3916Z" fill="#ECF3FA"/>
<path d="M119.999 37.3145L120.13 37.3916L121.114 36.825L120.983 36.7479L119.999 37.3145Z" fill="white"/>
<path d="M120.13 37.3916V38.3035L121.114 37.7369V36.825L120.13 37.3916Z" fill="#ECF3FA"/>
<path d="M123.229 39.1785V40.0905L123.36 40.0133V39.1014L123.229 39.1785Z" fill="#B8BCFC"/>
<path d="M123.36 39.1014L123.229 39.1786L120.13 37.3916L120.264 37.3145L123.36 39.1014Z" fill="white"/>
<path d="M123.229 39.1779V40.0898L120.13 38.3028V37.3909L123.229 39.1779Z" fill="#ECF3FA"/>
<path d="M123.854 37.0496V39.316L123.162 38.917V36.6507L123.854 37.0496Z" fill="#5F5363"/>
<path d="M123.854 39.1551V39.316L123.162 38.917L123.296 38.8366L123.854 39.1551Z" fill="#617EBA"/>
<path d="M123.162 36.6507V38.917L123.296 38.8366V36.7278L123.162 36.6507Z" fill="#B8BCFC"/>
<path d="M123.024 36.5736V38.8366L122.329 38.4376V36.1713L123.024 36.5736Z" fill="#5F5363"/>
<path d="M123.024 38.679V38.8366L122.329 38.4376L122.467 38.3605L123.024 38.679Z" fill="#617EBA"/>
<path d="M122.329 36.1713V38.4376L122.467 38.3605V36.2517L122.329 36.1713Z" fill="#B8BCFC"/>
<path d="M122.192 36.0942V38.3605L121.5 37.9582V35.6952L122.192 36.0942Z" fill="#5F5363"/>
<path d="M122.192 38.1996V38.3605L121.5 37.9582L121.638 37.8811L122.192 38.1996Z" fill="#617EBA"/>
<path d="M121.5 35.6952V37.9582L121.638 37.8811V35.7723L121.5 35.6952Z" fill="#B8BCFC"/>
<path d="M123.36 39.2523V40.1642L123.229 40.0905V39.1785L123.36 39.2523Z" fill="#ECF3FA"/>
<path d="M123.229 39.1785L123.36 39.2523L124.344 38.6857L124.213 38.6086L123.229 39.1785Z" fill="white"/>
<path d="M123.36 39.2523V40.1642L124.344 39.5976V38.6857L123.36 39.2523Z" fill="#B8BCFC"/>
<path d="M132.957 45.6927V45.8636L129.592 43.9158V43.7515L132.957 45.6927Z" fill="#ECF3FA"/>
<path d="M129.592 43.7515L132.957 45.6927L133.94 45.1227L130.576 43.1849L129.592 43.7515Z" fill="#617EBA"/>
<path d="M132.957 45.6927V45.8637L133.94 45.2937V45.1227L132.957 45.6927Z" fill="#B8BCFC"/>
<path d="M129.723 42.9167V43.8286L129.592 43.7515V42.8396L129.723 42.9167Z" fill="#ECF3FA"/>
<path d="M129.592 42.8396L129.723 42.9167L130.707 42.3501L130.576 42.273L129.592 42.8396Z" fill="white"/>
<path d="M129.723 42.9167V43.8286L130.707 43.262V42.3501L129.723 42.9167Z" fill="#ECF3FA"/>
<path d="M132.822 44.7036V45.6156L132.957 45.5384V44.6265L132.822 44.7036Z" fill="#B8BCFC"/>
<path d="M132.957 44.6265L132.822 44.7036L129.723 42.9167L129.857 42.8396L132.957 44.6265Z" fill="white"/>
<path d="M132.822 44.703V45.6149L129.723 43.8279V42.916L132.822 44.703Z" fill="#ECF3FA"/>
<path d="M133.447 42.5748V44.8411L132.755 44.4422V42.1758L133.447 42.5748Z" fill="#5F5363"/>
<path d="M133.447 44.6802V44.8411L132.755 44.4422L132.889 44.3617L133.447 44.6802Z" fill="#617EBA"/>
<path d="M132.755 42.1758V44.4422L132.889 44.3617V42.2563L132.755 42.1758Z" fill="#B8BCFC"/>
<path d="M132.617 42.0987V44.3617L131.926 43.9627V41.6997L132.617 42.0987Z" fill="#5F5363"/>
<path d="M132.617 44.2041V44.3617L131.926 43.9627L132.06 43.8856L132.617 44.2041Z" fill="#617EBA"/>
<path d="M131.926 41.6997V43.9627L132.06 43.8856V41.7768L131.926 41.6997Z" fill="#B8BCFC"/>
<path d="M131.788 41.6193V43.8856L131.096 43.4867V41.2203L131.788 41.6193Z" fill="#5F5363"/>
<path d="M131.788 43.7247V43.8856L131.096 43.4867L131.231 43.4062L131.788 43.7247Z" fill="#617EBA"/>
<path d="M131.096 41.2203V43.4867L131.231 43.4062V41.2974L131.096 41.2203Z" fill="#B8BCFC"/>
<path d="M132.957 44.7808V45.6927L132.822 45.6156V44.7036L132.957 44.7808Z" fill="#ECF3FA"/>
<path d="M132.822 44.7037L132.957 44.7808L133.94 44.2108L133.806 44.1371L132.822 44.7037Z" fill="white"/>
<path d="M132.957 44.7808V45.6927L133.94 45.1227V44.2108L132.957 44.7808Z" fill="#B8BCFC"/>
<path d="M144.312 40.9588V41.1298L147.677 39.1853V39.021L144.312 40.9588Z" fill="#B8BCFC"/>
<path d="M147.677 39.021L144.312 40.9588L143.328 40.3922L146.693 38.451L147.677 39.021Z" fill="#617EBA"/>
<path d="M144.312 40.9588V41.1298L143.328 40.5632V40.3922L144.312 40.9588Z" fill="#ECF3FA"/>
<path d="M147.542 38.1828V39.0948L147.677 39.021V38.1091L147.542 38.1828Z" fill="#B8BCFC"/>
<path d="M147.677 38.1091L147.542 38.1829L146.559 37.6163L146.693 37.5392L147.677 38.1091Z" fill="white"/>
<path d="M147.542 38.1822V39.0941L146.559 38.5275V37.6156L147.542 38.1822Z" fill="#ECF3FA"/>
<path d="M144.447 39.9698V40.8817L144.312 40.8046V39.8927L144.447 39.9698Z" fill="#B8BCFC"/>
<path d="M144.312 39.8927L144.447 39.9698L147.542 38.1828L147.411 38.1091L144.312 39.8927Z" fill="white"/>
<path d="M144.447 39.9698V40.8817L147.542 39.0948V38.1829L144.447 39.9698Z" fill="#B8BCFC"/>
<path d="M143.822 37.8442V40.1073L144.514 39.7083V37.4419L143.822 37.8442Z" fill="#5F5363"/>
<path d="M143.822 39.9497V40.1073L144.514 39.7083L144.379 39.6312L143.822 39.9497Z" fill="#617EBA"/>
<path d="M144.514 37.4419V39.7083L144.379 39.6312V37.5224L144.514 37.4419Z" fill="#ECF3FA"/>
<path d="M144.651 37.3648V39.6312L145.343 39.2289V36.9659L144.651 37.3648Z" fill="#5F5363"/>
<path d="M144.651 39.4703V39.6312L145.343 39.2289L145.209 39.1518L144.651 39.4703Z" fill="#617EBA"/>
<path d="M145.343 36.9659V39.2289L145.209 39.1518V37.043L145.343 36.9659Z" fill="#ECF3FA"/>
<path d="M145.481 36.8854V39.1517L146.172 38.7528V36.4864L145.481 36.8854Z" fill="#5F5363"/>
<path d="M145.481 38.9908V39.1518L146.172 38.7528L146.038 38.6723L145.481 38.9908Z" fill="#617EBA"/>
<path d="M146.172 36.4864V38.7528L146.038 38.6723V36.5669L146.172 36.4864Z" fill="#ECF3FA"/>
<path d="M144.312 40.0469V40.9588L144.447 40.8817V39.9698L144.312 40.0469Z" fill="#B8BCFC"/>
<path d="M144.447 39.9698L144.312 40.0469L143.328 39.4803L143.463 39.4032L144.447 39.9698Z" fill="white"/>
<path d="M144.312 40.0462V40.9581L143.328 40.3916V39.4796L144.312 40.0462Z" fill="#ECF3FA"/>
<path d="M139.887 43.5101V43.6811L143.251 41.7332V41.569L139.887 43.5101Z" fill="#B8BCFC"/>
<path d="M143.251 41.569L139.887 43.5101L138.903 42.9402L142.267 41.0024L143.251 41.569Z" fill="#617EBA"/>
<path d="M139.887 43.5101V43.6811L138.903 43.1112V42.9402L139.887 43.5101Z" fill="#ECF3FA"/>
<path d="M143.117 40.7342V41.6461L143.251 41.569V40.657L143.117 40.7342Z" fill="#B8BCFC"/>
<path d="M143.251 40.6571L143.117 40.7342L142.133 40.1676L142.267 40.0905L143.251 40.6571Z" fill="white"/>
<path d="M143.117 40.7335V41.6454L142.133 41.0788V40.1669L143.117 40.7335Z" fill="#ECF3FA"/>
<path d="M140.018 42.5211V43.433L139.887 43.3559V42.444L140.018 42.5211Z" fill="#B8BCFC"/>
<path d="M139.887 42.444L140.018 42.5211L143.117 40.7342L142.986 40.6571L139.887 42.444Z" fill="white"/>
<path d="M140.018 42.5211V43.433L143.117 41.6461V40.7342L140.018 42.5211Z" fill="#B8BCFC"/>
<path d="M139.393 40.3922V42.6586L140.088 42.2596V39.9932L139.393 40.3922Z" fill="#5F5363"/>
<path d="M139.393 42.501V42.6586L140.088 42.2596L139.951 42.1792L139.393 42.501Z" fill="#617EBA"/>
<path d="M140.088 39.9932V42.2596L139.951 42.1791V40.0737L140.088 39.9932Z" fill="#ECF3FA"/>
<path d="M140.226 39.9161V42.1792L140.918 41.7802V39.5172L140.226 39.9161Z" fill="#5F5363"/>
<path d="M140.226 42.0216V42.1791L140.918 41.7802L140.78 41.7031L140.226 42.0216Z" fill="#617EBA"/>
<path d="M140.918 39.5172V41.7802L140.78 41.7031V39.5943L140.918 39.5172Z" fill="#ECF3FA"/>
<path d="M141.055 39.4367V41.7031L141.747 41.3041V39.0378L141.055 39.4367Z" fill="#5F5363"/>
<path d="M141.055 41.5422V41.7031L141.747 41.3041L141.613 41.2237L141.055 41.5422Z" fill="#617EBA"/>
<path d="M141.747 39.0378V41.3041L141.613 41.2236V39.1149L141.747 39.0378Z" fill="#ECF3FA"/>
<path d="M139.887 42.5982V43.5101L140.018 43.433V42.5211L139.887 42.5982Z" fill="#B8BCFC"/>
<path d="M140.018 42.5211L139.887 42.5982L138.903 42.0283L139.034 41.9545L140.018 42.5211Z" fill="white"/>
<path d="M139.887 42.5976V43.5095L138.903 42.9395V42.0276L139.887 42.5976Z" fill="#ECF3FA"/>
<path d="M126.859 40.0972L126.318 39.7854L126.248 39.8256L126.859 40.1776V40.0972Z" fill="white"/>
<path d="M126.318 39.785V38.4708L126.858 38.7792V40.0968L126.318 39.785Z" fill="#5F5363"/>
<path d="M126.248 38.4309V39.8256L126.318 39.7854V38.4711L126.248 38.4309Z" fill="#B8BCFC"/>
<path d="M126.177 39.7016L125.637 39.3898L125.566 39.43L126.177 39.782V39.7016Z" fill="white"/>
<path d="M125.636 39.3894V38.0786L126.177 38.387V39.7012L125.636 39.3894Z" fill="#5F5363"/>
<path d="M125.567 38.0387V39.43L125.637 39.3898V38.0789L125.567 38.0387Z" fill="#B8BCFC"/>
<path d="M126.61 40.3184V40.4324L125.318 39.6848V39.5742L126.61 40.3184Z" fill="#ECF3FA"/>
<path d="M125.318 39.5742L126.61 40.3184L126.859 40.1776L125.566 39.43L125.318 39.5742Z" fill="white"/>
<path d="M126.61 40.3184V40.4324L126.859 40.2916V40.1776L126.61 40.3184Z" fill="#B8BCFC"/>
<path d="M129.407 41.5656L128.867 41.2538L128.796 41.2941L129.407 41.6461V41.5656Z" fill="white"/>
<path d="M128.866 41.2535V39.9426L129.407 40.2511V41.5653L128.866 41.2535Z" fill="#5F5363"/>
<path d="M128.796 39.9027V41.2941L128.867 41.2538V39.943L128.796 39.9027Z" fill="#B8BCFC"/>
<path d="M128.726 41.1734L128.185 40.8616L128.115 40.9018L128.726 41.2538V41.1734Z" fill="white"/>
<path d="M128.185 40.8612V39.5503L128.725 39.8588V41.173L128.185 40.8612Z" fill="#5F5363"/>
<path d="M128.115 39.5105V40.9018L128.186 40.8616V39.5507L128.115 39.5105Z" fill="#B8BCFC"/>
<path d="M129.162 41.7902V41.9042L127.87 41.1532V41.0426L129.162 41.7902Z" fill="#ECF3FA"/>
<path d="M127.87 41.0426L129.162 41.7902L129.407 41.6461L128.115 40.9018L127.87 41.0426Z" fill="white"/>
<path d="M129.162 41.7902V41.9042L129.407 41.76V41.6461L129.162 41.7902Z" fill="#B8BCFC"/>
<path d="M134.521 38.679V42.3602L120.506 34.277V30.5959L134.521 38.679Z" fill="#C9DAFC"/>
<path d="M134.521 38.679V42.3602L147.072 35.1185V31.4407L134.521 38.679Z" fill="#B8BCFC"/>
<path d="M120.507 30.5959L134.522 38.679L147.073 31.4407L133.061 23.3576L120.507 30.5959Z" fill="#617EBA"/>
<path d="M123.36 36.4864V36.6574L119.999 34.7095V34.5452L123.36 36.4864Z" fill="#ECF3FA"/>
<path d="M119.999 34.5452L123.36 36.4864L124.344 35.9165L120.983 33.9787L119.999 34.5452Z" fill="#617EBA"/>
<path d="M123.36 36.4864V36.6574L124.344 36.0874V35.9165L123.36 36.4864Z" fill="#B8BCFC"/>
<path d="M120.13 33.7104V34.6223L119.999 34.5452V33.6333L120.13 33.7104Z" fill="#ECF3FA"/>
<path d="M119.999 33.6333L120.13 33.7104L121.114 33.1439L120.983 33.0667L119.999 33.6333Z" fill="white"/>
<path d="M120.13 33.7105V34.6224L121.114 34.0558V33.1439L120.13 33.7105Z" fill="#ECF3FA"/>
<path d="M123.229 35.4974V36.4093L123.36 36.3322V35.4203L123.229 35.4974Z" fill="#B8BCFC"/>
<path d="M123.36 35.4203L123.229 35.4974L120.13 33.7104L120.264 33.6333L123.36 35.4203Z" fill="white"/>
<path d="M123.229 35.4967V36.4086L120.13 34.6217V33.7098L123.229 35.4967Z" fill="#ECF3FA"/>
<path d="M123.854 33.3685V35.6348L123.162 35.2359V32.9695L123.854 33.3685Z" fill="#5F5363"/>
<path d="M123.854 35.4739V35.6348L123.162 35.2359L123.296 35.1554L123.854 35.4739Z" fill="#617EBA"/>
<path d="M123.162 32.9695V35.2359L123.296 35.1554V33.05L123.162 32.9695Z" fill="#B8BCFC"/>
<path d="M123.024 32.8924V35.1554L122.329 34.7564V32.4934L123.024 32.8924Z" fill="#5F5363"/>
<path d="M123.024 34.9978V35.1554L122.329 34.7564L122.467 34.6793L123.024 34.9978Z" fill="#617EBA"/>
<path d="M122.329 32.4934V34.7564L122.467 34.6793V32.5705L122.329 32.4934Z" fill="#B8BCFC"/>
<path d="M122.192 32.413V34.6793L121.5 34.2804V32.014L122.192 32.413Z" fill="#5F5363"/>
<path d="M122.192 34.5184V34.6793L121.5 34.2804L121.638 34.1999L122.192 34.5184Z" fill="#617EBA"/>
<path d="M121.5 32.014V34.2804L121.638 34.1999V32.0911L121.5 32.014Z" fill="#B8BCFC"/>
<path d="M123.36 35.5745V36.4864L123.229 36.4093V35.4974L123.36 35.5745Z" fill="#ECF3FA"/>
<path d="M123.229 35.4974L123.36 35.5745L124.344 35.0045L124.213 34.9308L123.229 35.4974Z" fill="white"/>
<path d="M123.36 35.5745V36.4864L124.344 35.9165V35.0046L123.36 35.5745Z" fill="#B8BCFC"/>
<path d="M132.957 42.0115V42.1825L129.592 40.238V40.0737L132.957 42.0115Z" fill="#ECF3FA"/>
<path d="M129.592 40.0737L132.957 42.0115L133.94 41.4449L130.576 39.5038L129.592 40.0737Z" fill="#617EBA"/>
<path d="M132.957 42.0115V42.1825L133.94 41.6159V41.4449L132.957 42.0115Z" fill="#B8BCFC"/>
<path d="M129.723 39.2355V40.1475L129.592 40.0737V39.1618L129.723 39.2355Z" fill="#ECF3FA"/>
<path d="M129.592 39.1618L129.723 39.2355L130.707 38.669L130.576 38.5918L129.592 39.1618Z" fill="white"/>
<path d="M129.723 39.2355V40.1474L130.707 39.5809V38.6689L129.723 39.2355Z" fill="#ECF3FA"/>
<path d="M132.822 41.0225V41.9344L132.957 41.8573V40.9454L132.822 41.0225Z" fill="#B8BCFC"/>
<path d="M132.957 40.9454L132.822 41.0225L129.723 39.2355L129.857 39.1618L132.957 40.9454Z" fill="white"/>
<path d="M132.822 41.0218V41.9337L129.723 40.1468V39.2349L132.822 41.0218Z" fill="#ECF3FA"/>
<path d="M133.447 38.8969V41.1599L132.755 40.761V38.498L133.447 38.8969Z" fill="#5F5363"/>
<path d="M133.447 41.0024V41.1599L132.755 40.761L132.889 40.6839L133.447 41.0024Z" fill="#617EBA"/>
<path d="M132.755 38.498V40.761L132.889 40.6839V38.5751L132.755 38.498Z" fill="#B8BCFC"/>
<path d="M132.617 38.4175V40.6839L131.926 40.2849V38.0185L132.617 38.4175Z" fill="#5F5363"/>
<path d="M132.617 40.523V40.6839L131.926 40.2849L132.06 40.2045L132.617 40.523Z" fill="#617EBA"/>
<path d="M131.926 38.0185V40.2849L132.06 40.2044V38.0957L131.926 38.0185Z" fill="#B8BCFC"/>
<path d="M131.788 37.9381V40.2044L131.096 39.8055V37.5391L131.788 37.9381Z" fill="#5F5363"/>
<path d="M131.788 40.0435V40.2044L131.096 39.8055L131.231 39.725L131.788 40.0435Z" fill="#617EBA"/>
<path d="M131.096 37.5391V39.8055L131.231 39.725V37.6196L131.096 37.5391Z" fill="#B8BCFC"/>
<path d="M132.957 41.0996V42.0115L132.822 41.9344V41.0225L132.957 41.0996Z" fill="#ECF3FA"/>
<path d="M132.822 41.0225L132.957 41.0996L133.94 40.533L133.806 40.4559L132.822 41.0225Z" fill="white"/>
<path d="M132.957 41.0996V42.0115L133.94 41.4449V40.533L132.957 41.0996Z" fill="#B8BCFC"/>
<path d="M144.312 37.2776V37.4486L147.677 35.5041V35.3398L144.312 37.2776Z" fill="#B8BCFC"/>
<path d="M147.677 35.3398L144.312 37.2776L143.328 36.711L146.693 34.7732L147.677 35.3398Z" fill="#617EBA"/>
<path d="M144.312 37.2776V37.4486L143.328 36.882V36.711L144.312 37.2776Z" fill="#ECF3FA"/>
<path d="M147.542 34.505V35.4169L147.677 35.3398V34.4279L147.542 34.505Z" fill="#B8BCFC"/>
<path d="M147.677 34.4279L147.542 34.505L146.559 33.9351L146.693 33.8613L147.677 34.4279Z" fill="white"/>
<path d="M147.542 34.5044V35.4163L146.559 34.8463V33.9344L147.542 34.5044Z" fill="#ECF3FA"/>
<path d="M144.447 36.2886V37.2005L144.312 37.1234V36.2115L144.447 36.2886Z" fill="#B8BCFC"/>
<path d="M144.312 36.2115L144.447 36.2886L147.542 34.505L147.411 34.4279L144.312 36.2115Z" fill="white"/>
<path d="M144.447 36.2886V37.2005L147.542 35.4136V34.505L144.447 36.2886Z" fill="#B8BCFC"/>
<path d="M143.822 34.163V36.4294L144.514 36.0271V33.7641L143.822 34.163Z" fill="#5F5363"/>
<path d="M143.822 36.2685V36.4294L144.514 36.0271L144.379 35.95L143.822 36.2685Z" fill="#617EBA"/>
<path d="M144.514 33.7641V36.0271L144.379 35.95V33.8412L144.514 33.7641Z" fill="#ECF3FA"/>
<path d="M144.651 33.6836V35.95L145.343 35.551V33.2847L144.651 33.6836Z" fill="#5F5363"/>
<path d="M144.651 35.789V35.95L145.343 35.551L145.209 35.4706L144.651 35.789Z" fill="#617EBA"/>
<path d="M145.343 33.2847V35.551L145.209 35.4706V33.3618L145.343 33.2847Z" fill="#ECF3FA"/>
<path d="M145.481 33.2076V35.4706L146.172 35.0716V32.8052L145.481 33.2076Z" fill="#5F5363"/>
<path d="M145.481 35.313V35.4706L146.172 35.0716L146.038 34.9945L145.481 35.313Z" fill="#617EBA"/>
<path d="M146.172 32.8052V35.0716L146.038 34.9945V32.8857L146.172 32.8052Z" fill="#ECF3FA"/>
<path d="M144.312 36.3657V37.2776L144.447 37.2005V36.2886L144.312 36.3657Z" fill="#B8BCFC"/>
<path d="M144.447 36.2886L144.312 36.3657L143.328 35.7991L143.463 35.722L144.447 36.2886Z" fill="white"/>
<path d="M144.312 36.365V37.2769L143.328 36.7104V35.7984L144.312 36.365Z" fill="#ECF3FA"/>
<path d="M139.887 39.829V40L143.251 38.0554V37.8912L139.887 39.829Z" fill="#B8BCFC"/>
<path d="M143.251 37.8912L139.887 39.829L138.903 39.2624L142.267 37.3212L143.251 37.8912Z" fill="#617EBA"/>
<path d="M139.887 39.829V39.9999L138.903 39.4333V39.2624L139.887 39.829Z" fill="#ECF3FA"/>
<path d="M143.117 37.053V37.9649L143.251 37.8912V36.9792L143.117 37.053Z" fill="#B8BCFC"/>
<path d="M143.251 36.9792L143.117 37.053L142.133 36.4864L142.267 36.4093L143.251 36.9792Z" fill="white"/>
<path d="M143.117 37.0523V37.9642L142.133 37.3976V36.4857L143.117 37.0523Z" fill="#ECF3FA"/>
<path d="M140.018 38.8399V39.7518L139.887 39.6747V38.7628L140.018 38.8399Z" fill="#B8BCFC"/>
<path d="M139.887 38.7628L140.018 38.8399L143.117 37.053L142.986 36.9792L139.887 38.7628Z" fill="white"/>
<path d="M140.018 38.8399V39.7518L143.117 37.9649V37.053L140.018 38.8399Z" fill="#B8BCFC"/>
<path d="M139.393 36.7144V38.9774L140.088 38.5784V36.3154L139.393 36.7144Z" fill="#5F5363"/>
<path d="M139.393 38.8198V38.9774L140.088 38.5784L139.951 38.5013L139.393 38.8198Z" fill="#617EBA"/>
<path d="M140.088 36.3154V38.5784L139.951 38.5013V36.3925L140.088 36.3154Z" fill="#ECF3FA"/>
<path d="M140.226 36.235V38.5013L140.918 38.1024V35.836L140.226 36.235Z" fill="#5F5363"/>
<path d="M140.226 38.3404V38.5013L140.918 38.1024L140.78 38.0219L140.226 38.3404Z" fill="#617EBA"/>
<path d="M140.918 35.836V38.1024L140.78 38.0219V35.9131L140.918 35.836Z" fill="#ECF3FA"/>
<path d="M141.055 35.7555V38.0219L141.747 37.623V35.3566L141.055 35.7555Z" fill="#5F5363"/>
<path d="M141.055 37.861V38.0219L141.747 37.623L141.613 37.5425L141.055 37.861Z" fill="#617EBA"/>
<path d="M141.747 35.3566V37.623L141.613 37.5425V35.437L141.747 35.3566Z" fill="#ECF3FA"/>
<path d="M139.887 38.9171V39.829L140.018 39.7519V38.84L139.887 38.9171Z" fill="#B8BCFC"/>
<path d="M140.018 38.84L139.887 38.9171L138.903 38.3505L139.034 38.2734L140.018 38.84Z" fill="white"/>
<path d="M139.887 38.9164V39.8283L138.903 39.2617V38.3498L139.887 38.9164Z" fill="#ECF3FA"/>
<path d="M126.859 36.416L126.318 36.1042L126.248 36.1444L126.859 36.4965V36.416Z" fill="white"/>
<path d="M126.318 36.1039V34.793L126.858 35.0981V36.4157L126.318 36.1039Z" fill="#5F5363"/>
<path d="M126.248 34.7531V36.1444L126.318 36.1042V34.7933L126.248 34.7531Z" fill="#B8BCFC"/>
<path d="M126.177 36.0237L125.637 35.7119L125.566 35.7522L126.177 36.1042V36.0237Z" fill="white"/>
<path d="M125.636 35.7116V34.3974L126.177 34.7058V36.0234L125.636 35.7116Z" fill="#5F5363"/>
<path d="M125.567 34.3575V35.7522L125.637 35.712V34.3977L125.567 34.3575Z" fill="#B8BCFC"/>
<path d="M126.61 36.6373V36.7546L125.318 36.0036V35.893L126.61 36.6373Z" fill="#ECF3FA"/>
<path d="M125.318 35.893L126.61 36.6373L126.859 36.4965L125.566 35.7522L125.318 35.893Z" fill="white"/>
<path d="M126.61 36.6373V36.7546L126.859 36.6105V36.4965L126.61 36.6373Z" fill="#B8BCFC"/>
<path d="M129.407 37.8844L128.867 37.5726L128.796 37.6129L129.407 37.9649V37.8844Z" fill="white"/>
<path d="M128.866 37.5723V36.2614L129.407 36.5699V37.8841L128.866 37.5723Z" fill="#5F5363"/>
<path d="M128.796 36.2215V37.6129L128.867 37.5726V36.2618L128.796 36.2215Z" fill="#B8BCFC"/>
<path d="M128.726 37.4922L128.185 37.1804L128.115 37.2206L128.726 37.5727V37.4922Z" fill="white"/>
<path d="M128.185 37.18V35.8692L128.725 36.1776V37.4918L128.185 37.18Z" fill="#5F5363"/>
<path d="M128.115 35.8293V37.2206L128.186 37.1804V35.8695L128.115 35.8293Z" fill="#B8BCFC"/>
<path d="M129.162 38.1091V38.223L127.87 37.4754V37.3648L129.162 38.1091Z" fill="#ECF3FA"/>
<path d="M127.87 37.3648L129.162 38.1091L129.407 37.9649L128.115 37.2206L127.87 37.3648Z" fill="white"/>
<path d="M129.162 38.1091V38.223L129.407 38.0822V37.9649L129.162 38.1091Z" fill="#B8BCFC"/>
<path d="M134.521 34.9979V38.679L120.506 30.5959V26.9147L134.521 34.9979Z" fill="#C9DAFC"/>
<path d="M134.521 34.9979V38.679L147.072 31.4407V27.7596L134.521 34.9979Z" fill="#B8BCFC"/>
<path d="M120.507 26.9147L134.522 34.9979L147.073 27.7596L133.061 19.6764L120.507 26.9147Z" fill="#617EBA"/>
<path d="M123.36 32.8052V32.9762L119.999 31.0317V30.8674L123.36 32.8052Z" fill="#ECF3FA"/>
<path d="M119.999 30.8674L123.36 32.8052L124.344 32.2386L120.983 30.2975L119.999 30.8674Z" fill="#617EBA"/>
<path d="M123.36 32.8052V32.9762L124.344 32.4096V32.2386L123.36 32.8052Z" fill="#B8BCFC"/>
<path d="M120.13 30.0293V30.9412L119.999 30.8674V29.9555L120.13 30.0293Z" fill="#ECF3FA"/>
<path d="M119.999 29.9555L120.13 30.0293L121.114 29.4627L120.983 29.3856L119.999 29.9555Z" fill="white"/>
<path d="M120.13 30.0293V30.9412L121.114 30.3746V29.4627L120.13 30.0293Z" fill="#ECF3FA"/>
<path d="M123.229 31.8162V32.7281L123.36 32.651V31.7391L123.229 31.8162Z" fill="#B8BCFC"/>
<path d="M123.36 31.7391L123.229 31.8162L120.13 30.0293L120.264 29.9555L123.36 31.7391Z" fill="white"/>
<path d="M123.229 31.8156V32.7275L120.13 30.9406V30.0286L123.229 31.8156Z" fill="#ECF3FA"/>
<path d="M123.854 29.6907V31.9537L123.162 31.5547V29.2883L123.854 29.6907Z" fill="#5F5363"/>
<path d="M123.854 31.7961V31.9537L123.162 31.5547L123.296 31.4776L123.854 31.7961Z" fill="#617EBA"/>
<path d="M123.162 29.2883V31.5547L123.296 31.4776V29.3688L123.162 29.2883Z" fill="#B8BCFC"/>
<path d="M123.024 29.2112V31.4776L122.329 31.0753V28.8123L123.024 29.2112Z" fill="#5F5363"/>
<path d="M123.024 31.3167V31.4776L122.329 31.0753L122.467 30.9982L123.024 31.3167Z" fill="#617EBA"/>
<path d="M122.329 28.8123V31.0753L122.467 30.9982V28.8894L122.329 28.8123Z" fill="#B8BCFC"/>
<path d="M122.192 28.7318V30.9982L121.5 30.5992V28.3329L122.192 28.7318Z" fill="#5F5363"/>
<path d="M122.192 30.8373V30.9982L121.5 30.5992L121.638 30.5188L122.192 30.8373Z" fill="#617EBA"/>
<path d="M121.5 28.3329V30.5992L121.638 30.5188V28.4133L121.5 28.3329Z" fill="#B8BCFC"/>
<path d="M123.36 31.8933V32.8052L123.229 32.7281V31.8162L123.36 31.8933Z" fill="#ECF3FA"/>
<path d="M123.229 31.8162L123.36 31.8933L124.344 31.3267L124.213 31.2496L123.229 31.8162Z" fill="white"/>
<path d="M123.36 31.8933V32.8052L124.344 32.2386V31.3267L123.36 31.8933Z" fill="#B8BCFC"/>
<path d="M132.957 38.3304V38.5013L129.592 36.5568V36.3925L132.957 38.3304Z" fill="#ECF3FA"/>
<path d="M129.592 36.3926L132.957 38.3304L133.94 37.7638L130.576 35.826L129.592 36.3926Z" fill="#617EBA"/>
<path d="M132.957 38.3304V38.5013L133.94 37.9347V37.7638L132.957 38.3304Z" fill="#B8BCFC"/>
<path d="M129.723 35.5578V36.4697L129.592 36.3926V35.4807L129.723 35.5578Z" fill="#ECF3FA"/>
<path d="M129.592 35.4807L129.723 35.5578L130.707 34.9878L130.576 34.9141L129.592 35.4807Z" fill="white"/>
<path d="M129.723 35.5578V36.4697L130.707 35.8997V34.9878L129.723 35.5578Z" fill="#ECF3FA"/>
<path d="M132.822 37.3413V38.2533L132.957 38.1795V37.2642L132.822 37.3413Z" fill="#B8BCFC"/>
<path d="M132.957 37.2642L132.822 37.3414L129.723 35.5578L129.857 35.4807L132.957 37.2642Z" fill="white"/>
<path d="M132.822 37.3407V38.2526L129.723 36.469V35.5571L132.822 37.3407Z" fill="#ECF3FA"/>
<path d="M133.447 35.2158V37.4822L132.755 37.0798V34.8168L133.447 35.2158Z" fill="#5F5363"/>
<path d="M133.447 37.3212V37.4822L132.755 37.0798L132.889 37.0027L133.447 37.3212Z" fill="#617EBA"/>
<path d="M132.755 34.8168V37.0798L132.889 37.0027V34.8939L132.755 34.8168Z" fill="#B8BCFC"/>
<path d="M132.617 34.7364V37.0027L131.926 36.6038V34.3374L132.617 34.7364Z" fill="#5F5363"/>
<path d="M132.617 36.8418V37.0027L131.926 36.6038L132.06 36.5233L132.617 36.8418Z" fill="#617EBA"/>
<path d="M131.926 34.3374V36.6038L132.06 36.5233V34.4145L131.926 34.3374Z" fill="#B8BCFC"/>
<path d="M131.788 34.2603V36.5233L131.096 36.1243V33.858L131.788 34.2603Z" fill="#5F5363"/>
<path d="M131.788 36.3657V36.5233L131.096 36.1244L131.231 36.0472L131.788 36.3657Z" fill="#617EBA"/>
<path d="M131.096 33.858V36.1243L131.231 36.0472V33.9384L131.096 33.858Z" fill="#B8BCFC"/>
<path d="M132.957 37.4184V38.3304L132.822 38.2532V37.3413L132.957 37.4184Z" fill="#ECF3FA"/>
<path d="M132.822 37.3413L132.957 37.4184L133.94 36.8519L133.806 36.7747L132.822 37.3413Z" fill="white"/>
<path d="M132.957 37.4184V38.3304L133.94 37.7638V36.8519L132.957 37.4184Z" fill="#B8BCFC"/>
<path d="M144.312 33.5964V33.7674L147.677 31.8229V31.6586L144.312 33.5964Z" fill="#B8BCFC"/>
<path d="M147.677 31.6586L144.312 33.5964L143.328 33.0298L146.693 31.092L147.677 31.6586Z" fill="#617EBA"/>
<path d="M144.312 33.5965V33.7674L143.328 33.2008V33.0299L144.312 33.5965Z" fill="#ECF3FA"/>
<path d="M147.542 30.8239V31.7358L147.677 31.6587V30.7468L147.542 30.8239Z" fill="#B8BCFC"/>
<path d="M147.677 30.7468L147.542 30.8239L146.559 30.2573L146.693 30.1802L147.677 30.7468Z" fill="white"/>
<path d="M147.542 30.8232V31.7351L146.559 31.1685V30.2566L147.542 30.8232Z" fill="#ECF3FA"/>
<path d="M144.447 32.6074V33.5194L144.312 33.4456V32.5337L144.447 32.6074Z" fill="#B8BCFC"/>
<path d="M144.312 32.5337L144.447 32.6074L147.542 30.8239L147.411 30.7467L144.312 32.5337Z" fill="white"/>
<path d="M144.447 32.6074V33.5194L147.542 31.7358V30.8239L144.447 32.6074Z" fill="#B8BCFC"/>
<path d="M143.822 30.4819V32.7482L144.514 32.3493V30.0829L143.822 30.4819Z" fill="#5F5363"/>
<path d="M143.822 32.5873V32.7483L144.514 32.3493L144.379 32.2688L143.822 32.5873Z" fill="#617EBA"/>
<path d="M144.514 30.0829V32.3493L144.379 32.2688V30.16L144.514 30.0829Z" fill="#ECF3FA"/>
<path d="M144.651 30.0024V32.2688L145.343 31.8698V29.6035L144.651 30.0024Z" fill="#5F5363"/>
<path d="M144.651 32.1079V32.2688L145.343 31.8698L145.209 31.7894L144.651 32.1079Z" fill="#617EBA"/>
<path d="M145.343 29.6035V31.8698L145.209 31.7894V29.6839L145.343 29.6035Z" fill="#ECF3FA"/>
<path d="M145.481 29.5264V31.7894L146.172 31.3904V29.1274L145.481 29.5264Z" fill="#5F5363"/>
<path d="M145.481 31.6318V31.7894L146.172 31.3904L146.038 31.3133L145.481 31.6318Z" fill="#617EBA"/>
<path d="M146.172 29.1274V31.3904L146.038 31.3133V29.2045L146.172 29.1274Z" fill="#ECF3FA"/>
<path d="M144.312 32.6845V33.5965L144.447 33.5193V32.6074L144.312 32.6845Z" fill="#B8BCFC"/>
<path d="M144.447 32.6074L144.312 32.6846L143.328 32.118L143.463 32.0408L144.447 32.6074Z" fill="white"/>
<path d="M144.312 32.6839V33.5958L143.328 33.0292V32.1173L144.312 32.6839Z" fill="#ECF3FA"/>
<path d="M139.887 36.1478V36.3188L143.251 34.3743V34.21L139.887 36.1478Z" fill="#B8BCFC"/>
<path d="M143.251 34.21L139.887 36.1478L138.903 35.5812L142.267 33.6434L143.251 34.21Z" fill="#617EBA"/>
<path d="M139.887 36.1478V36.3188L138.903 35.7522V35.5812L139.887 36.1478Z" fill="#ECF3FA"/>
<path d="M143.117 33.3752V34.2871L143.251 34.21V33.2981L143.117 33.3752Z" fill="#B8BCFC"/>
<path d="M143.251 33.2981L143.117 33.3752L142.133 32.8052L142.267 32.7315L143.251 33.2981Z" fill="white"/>
<path d="M143.117 33.3746V34.2865L142.133 33.7165V32.8046L143.117 33.3746Z" fill="#ECF3FA"/>
<path d="M140.018 35.1588V36.0707L139.887 35.9969V35.0816L140.018 35.1588Z" fill="#B8BCFC"/>
<path d="M139.887 35.0817L140.018 35.1588L143.117 33.3752L142.986 33.2981L139.887 35.0817Z" fill="white"/>
<path d="M140.018 35.1588V36.0707L143.117 34.2871V33.3752L140.018 35.1588Z" fill="#B8BCFC"/>
<path d="M139.393 33.0332V35.2996L140.088 34.8973V32.6343L139.393 33.0332Z" fill="#5F5363"/>
<path d="M139.393 35.1387V35.2996L140.088 34.8973L139.951 34.8202L139.393 35.1387Z" fill="#617EBA"/>
<path d="M140.088 32.6343V34.8973L139.951 34.8202V32.7114L140.088 32.6343Z" fill="#ECF3FA"/>
<path d="M140.226 32.5538V34.8202L140.918 34.4212V32.1548L140.226 32.5538Z" fill="#5F5363"/>
<path d="M140.226 34.6592V34.8202L140.918 34.4212L140.78 34.3407L140.226 34.6592Z" fill="#617EBA"/>
<path d="M140.918 32.1548V34.4212L140.78 34.3407V32.232L140.918 32.1548Z" fill="#ECF3FA"/>
<path d="M141.055 32.0777V34.3407L141.747 33.9418V31.6754L141.055 32.0777Z" fill="#5F5363"/>
<path d="M141.055 34.1832V34.3407L141.747 33.9418L141.613 33.8647L141.055 34.1832Z" fill="#617EBA"/>
<path d="M141.747 31.6754V33.9418L141.613 33.8647V31.7559L141.747 31.6754Z" fill="#ECF3FA"/>
<path d="M139.887 35.2359V36.1478L140.018 36.0707V35.1588L139.887 35.2359Z" fill="#B8BCFC"/>
<path d="M140.018 35.1588L139.887 35.2359L138.903 34.6693L139.034 34.5922L140.018 35.1588Z" fill="white"/>
<path d="M139.887 35.2352V36.1471L138.903 35.5805V34.6686L139.887 35.2352Z" fill="#ECF3FA"/>
<path d="M126.859 32.7348L126.318 32.423L126.248 32.4633L126.859 32.8153V32.7348Z" fill="white"/>
<path d="M126.318 32.4227V31.1118L126.858 31.4203V32.7345L126.318 32.4227Z" fill="#5F5363"/>
<path d="M126.248 31.0719V32.4633L126.318 32.423V31.1122L126.248 31.0719Z" fill="#B8BCFC"/>
<path d="M126.177 32.3426L125.637 32.0308L125.566 32.071L126.177 32.4231V32.3426Z" fill="white"/>
<path d="M125.636 32.0304V30.7196L126.177 31.028V32.3422L125.636 32.0304Z" fill="#5F5363"/>
<path d="M125.567 30.6797V32.071L125.637 32.0308V30.7199L125.567 30.6797Z" fill="#B8BCFC"/>
<path d="M126.61 32.9595V33.0735L125.318 32.3225V32.2119L126.61 32.9595Z" fill="#ECF3FA"/>
<path d="M125.318 32.2119L126.61 32.9595L126.859 32.8153L125.566 32.071L125.318 32.2119Z" fill="white"/>
<path d="M126.61 32.9595V33.0735L126.859 32.9293V32.8153L126.61 32.9595Z" fill="#B8BCFC"/>
<path d="M129.407 34.2033L128.867 33.8948L128.796 33.9317L129.407 34.2837V34.2033Z" fill="white"/>
<path d="M128.866 33.8945V32.5803L129.407 32.8887V34.2029L128.866 33.8945Z" fill="#5F5363"/>
<path d="M128.796 32.5404V33.9317L128.867 33.8948V32.5806L128.796 32.5404Z" fill="#B8BCFC"/>
<path d="M128.726 33.811L128.185 33.4992L128.115 33.5395L128.726 33.8915V33.811Z" fill="white"/>
<path d="M128.185 33.4989V32.188L128.725 32.4964V33.8107L128.185 33.4989Z" fill="#5F5363"/>
<path d="M128.115 32.1481V33.5395L128.186 33.4992V32.1884L128.115 32.1481Z" fill="#B8BCFC"/>
<path d="M129.162 34.4279V34.5419L127.87 33.7943V33.6836L129.162 34.4279Z" fill="#ECF3FA"/>
<path d="M127.87 33.6836L129.162 34.4279L129.407 34.2837L128.115 33.5395L127.87 33.6836Z" fill="white"/>
<path d="M129.162 34.4279V34.5419L129.407 34.4011V34.2837L129.162 34.4279Z" fill="#B8BCFC"/>
<path d="M135.206 35.3935V46.4336L134.521 46.038V34.9979L135.206 35.3935Z" fill="#C9DAFC"/>
<path d="M135.206 35.3935V46.4336L137.54 45.0892V34.0491L135.206 35.3935Z" fill="#ECF3FA"/>
<path d="M134.521 34.9979L135.206 35.3935L137.54 34.0491L136.851 33.6535L134.521 34.9979Z" fill="white"/>
<path d="M133.061 19.6764L120.51 26.9147L134.525 34.9979L147.076 27.7596L133.061 19.6764ZM121.134 26.9147L133.061 20.0352L146.448 27.7562L134.521 34.6358L121.134 26.9147Z" fill="white"/>
<path d="M133.061 20.0385L121.134 26.9147L121.53 27.146L133.061 20.4978V20.0385Z" fill="#B8BCFC"/>
<path d="M133.061 20.0385L146.448 27.7595L146.052 27.9875L133.061 20.4978V20.0385Z" fill="#ECF3FA"/>
<path d="M133.202 22.0769V24.1589L130.442 22.5664V20.4844L133.202 22.0769Z" fill="#ECF3FA"/>
<path d="M133.202 22.0769V24.1589L135.676 22.734V20.652L133.202 22.0769Z" fill="#B8BCFC"/>
<path d="M130.442 20.4844L133.202 22.0769L135.676 20.652L132.916 19.0595L130.442 20.4844Z" fill="white"/>
<path d="M134.739 21.5773V23.2738L135.34 22.9284V21.2287L134.739 21.5773Z" fill="#5F5363"/>
<path d="M134.739 23.1363V23.2738L135.34 22.9284L135.223 22.858L134.739 23.1363Z" fill="#617EBA"/>
<path d="M135.34 21.2287V22.9284L135.223 22.858V21.2957L135.34 21.2287Z" fill="#ECF3FA"/>
<path d="M159.687 31.3536C161.154 30.2371 161.947 29.4929 161.947 28.3027C161.947 27.0622 161.054 26.2945 159.486 26.2945C157.82 26.2945 156.927 27.4612 156.927 28.7251H152.602C152.602 25.1512 155.436 22.4725 159.462 22.4725C163.76 22.4725 166.198 24.93 166.198 28.3027C166.198 30.1399 165.305 31.6017 163.69 32.8421C161.876 34.2569 161.306 35.1487 161.306 36.5401H157.206C157.202 34.0826 157.874 32.7181 159.687 31.3536ZM156.756 40.9789C156.756 39.4669 157.874 38.3505 159.388 38.3505C160.903 38.3505 162.021 39.4669 162.021 40.9789C162.021 42.4909 160.903 43.5839 159.388 43.5839C157.874 43.5839 156.756 42.4943 156.756 40.9789Z" fill="#FFC62A"/>
</g>
<defs>
<clipPath id="clip0">
<rect width="196" height="229" fill="white" transform="translate(53 5)"/>
</clipPath>
</defs>
</svg>
